<svg width="35" height="35" viewBox="0 0 35 35" fill="none" xmlns="http://www.w3.org/2000/svg">
<path d="M31.6673 21.8067C31.6673 24.9092 29.174 27.4167 26.0998 27.4167H8.90148C5.82732 27.4167 3.33398 24.9092 3.33398 21.8067C3.33398 19.0158 5.35982 16.7067 8.02315 16.2817C7.98065 16.0833 7.96648 15.885 7.96648 15.6725C7.96648 13.7175 9.53898 12.1167 11.494 12.1167C12.3582 12.1167 13.1657 12.4425 13.7748 12.9667C14.8657 10.4875 16.2682 8.20667 20.2065 8.20667C24.9806 8.20667 27.2332 11.9183 27.2332 15.8425C27.2332 15.9983 27.2332 16.1683 27.219 16.3242C29.7548 16.8483 31.6673 19.1008 31.6673 21.8067Z" fill="#253E90"/>
</svg>
