<svg width="24" height="25" viewBox="0 0 24 25" fill="none" xmlns="http://www.w3.org/2000/svg">
<path fill-rule="evenodd" clip-rule="evenodd" d="M17.2187 9.23584H6.75807L11.388 12.5643C11.7423 12.8191 12.2276 12.8175 12.5891 12.5519C13.8875 11.5979 15.3414 10.5595 16.474 9.75985C16.742 9.5706 16.9924 9.3945 17.2187 9.23584ZM19 15.8217L19 10.4315C18.6578 10.6691 18.1815 11.0025 17.6276 11.3936C17.0876 11.7749 16.4751 12.2101 15.8422 12.6638L19 15.8217ZM17.5857 17.2358H6.41425L9.77915 13.8709L10.2206 14.1882C11.2885 14.956 12.7233 14.9352 13.7733 14.1636C13.9141 14.0602 14.0567 13.9558 14.2006 13.8507L17.5857 17.2358ZM8.13367 12.688L5 15.8217V10.4351L8.13367 12.688ZM19 7.23584C20.1046 7.23584 21 8.13127 21 9.23584V17.2358C21 18.3404 20.1046 19.2358 19 19.2358H5C3.89543 19.2358 3 18.3404 3 17.2358V9.23584C3 8.13127 3.89543 7.23584 5 7.23584L19 7.23584Z" fill="#333333"/>
</svg>
