<svg width="557" height="471" viewBox="0 0 557 471" fill="none" xmlns="http://www.w3.org/2000/svg">
<g clip-path="url(#clip0_642_7582)">
<g filter="url(#filter0_d_642_7582)">
<path d="M493.702 297.625C534.813 256.527 534.813 189.892 493.702 148.794C452.592 107.695 385.938 107.695 344.827 148.794C303.716 189.892 303.716 256.527 344.827 297.625C385.938 338.724 452.592 338.724 493.702 297.625Z" fill="url(#paint0_linear_642_7582)"/>
</g>
<path d="M418.948 137.92C380.316 138.06 347.747 163.88 337.394 199.19C334.693 208.4 326.361 214.8 316.758 214.8H316.698C304.504 214.8 293.331 208.25 287.099 197.77C278.847 183.88 264.063 174.24 247.078 173.23C237.975 172.69 229.352 174.58 221.81 178.32C213.248 182.57 202.895 180.69 196.133 173.94L195.723 173.53C187.34 165.15 184.699 152.75 188.531 141.53C191.591 132.57 193.032 122.85 192.522 112.74C190.571 74.58 156.821 41.44 118.62 40.12C74.1772 38.59 37.8166 74.87 39.237 119.28C40.4774 158.16 74.3673 192.1 113.249 193.41C128.813 193.94 143.387 189.82 155.681 182.35C165.154 176.59 177.187 177.26 185.71 184.34L186.31 184.84C194.112 191.33 197.643 201.68 195.283 211.55C194.142 216.32 193.682 221.35 194.022 226.54C194.722 237.37 198.934 247.32 205.536 255.23C208.897 259.25 208.907 265.1 205.606 269.17L205.135 269.75C201.554 274.17 195.503 275.63 190.241 273.47C179.718 269.14 168.155 266.82 156.021 267C108.617 267.68 70.2461 306.92 70.5862 354.31C70.9363 402.43 110.518 441.23 158.942 440.32C205.235 439.46 243.026 401.74 243.967 355.46C244.477 330.45 234.374 307.81 217.869 291.69C213.788 287.7 212.708 281.57 215.358 276.51L215.498 276.25C217.989 271.5 223.531 269.24 228.642 270.89C232.093 272 235.704 272.75 239.425 273.08C259.641 274.87 277.647 264.64 287.079 248.73C293.321 238.22 304.494 231.62 316.728 231.62C326.351 231.62 334.673 238.06 337.374 247.29C347.767 282.67 380.477 308.51 419.228 308.51C467.032 308.51 505.643 269.21 504.513 221.17C503.422 175.02 465.081 137.78 418.908 137.95L418.948 137.92Z" stroke="url(#paint1_linear_642_7582)" stroke-width="6.3" stroke-miterlimit="10"/>
<g filter="url(#filter1_d_642_7582)">
<path d="M418.948 137.92C380.316 138.06 347.747 163.88 337.394 199.19C334.693 208.4 326.361 214.8 316.758 214.8H316.698C304.504 214.8 293.331 208.25 287.099 197.77C278.847 183.88 264.063 174.24 247.078 173.23C237.975 172.69 229.352 174.58 221.81 178.32C213.248 182.57 202.895 180.69 196.133 173.94L195.723 173.53C187.34 165.15 184.699 152.75 188.531 141.53C191.591 132.57 193.032 122.85 192.522 112.74C190.571 74.58 156.821 41.44 118.62 40.12C74.1772 38.59 37.8166 74.87 39.237 119.28C40.4774 158.16 74.3673 192.1 113.249 193.41C128.813 193.94 143.387 189.82 155.681 182.35C165.154 176.59 177.187 177.26 185.71 184.34L186.31 184.84C194.112 191.33 197.643 201.68 195.283 211.55C194.142 216.32 193.682 221.35 194.022 226.54C194.722 237.37 198.934 247.32 205.536 255.23C208.896 259.25 208.907 265.1 205.606 269.17L205.135 269.75C201.554 274.17 195.503 275.63 190.241 273.47C179.718 269.14 168.155 266.82 156.021 267C108.617 267.68 70.2461 306.92 70.5862 354.31C70.9363 402.43 110.518 441.23 158.942 440.32C205.235 439.46 243.026 401.74 243.967 355.46C244.477 330.45 234.374 307.81 217.869 291.69C213.788 287.7 212.708 281.57 215.358 276.51L215.498 276.25C217.989 271.5 223.531 269.24 228.642 270.89C232.093 272 235.704 272.75 239.425 273.08C259.641 274.87 277.647 264.64 287.079 248.73C293.321 238.22 304.494 231.62 316.728 231.62C326.351 231.62 334.673 238.06 337.374 247.29C347.767 282.67 380.477 308.51 419.228 308.51C467.032 308.51 505.643 269.21 504.513 221.17C503.422 175.02 465.081 137.78 418.908 137.95L418.948 137.92Z" fill="url(#paint2_linear_642_7582)"/>
</g>
<g filter="url(#filter2_d_642_7582)">
<path d="M212.933 409.237C243.645 378.534 243.645 328.755 212.933 298.052C182.221 267.349 132.427 267.349 101.715 298.052C71.0029 328.755 71.0029 378.534 101.715 409.237C132.427 439.94 182.221 439.94 212.933 409.237Z" fill="url(#paint3_linear_642_7582)"/>
</g>
<g filter="url(#filter3_d_642_7582)">
<path d="M209.466 405.772C238.264 376.983 238.264 330.306 209.466 301.517C180.669 272.727 133.978 272.727 105.18 301.517C76.3824 330.306 76.3824 376.983 105.18 405.772C133.978 434.562 180.669 434.562 209.466 405.772Z" stroke="url(#paint4_linear_642_7582)" stroke-width="3.15" stroke-miterlimit="10"/>
</g>
<g filter="url(#filter4_d_642_7582)">
<path d="M115.919 182.15C152.044 182.15 181.328 152.874 181.328 116.76C181.328 80.6461 152.044 51.37 115.919 51.37C79.7949 51.37 50.5103 80.6461 50.5103 116.76C50.5103 152.874 79.7949 182.15 115.919 182.15Z" fill="url(#paint5_linear_642_7582)"/>
</g>
<g filter="url(#filter5_d_642_7582)">
<path d="M419.268 300.44C461.933 300.44 496.52 265.863 496.52 223.21C496.52 180.557 461.933 145.98 419.268 145.98C376.602 145.98 342.015 180.557 342.015 223.21C342.015 265.863 376.602 300.44 419.268 300.44Z" stroke="url(#paint6_linear_642_7582)" stroke-width="5.25" stroke-miterlimit="10"/>
</g>
<g filter="url(#filter6_d_642_7582)">
<path d="M229.292 417.24C211.697 437.13 185.97 449.67 157.321 449.67C104.276 449.67 61.2632 406.68 61.2632 353.64C61.2632 343.49 62.8336 333.71 65.7545 324.52" stroke="url(#paint7_linear_642_7582)" stroke-width="1.05" stroke-miterlimit="10" stroke-linecap="round"/>
</g>
<path d="M65.6744 327.55C67.3428 327.55 68.6953 326.198 68.6953 324.53C68.6953 322.862 67.3428 321.51 65.6744 321.51C64.0061 321.51 62.6536 322.862 62.6536 324.53C62.6536 326.198 64.0061 327.55 65.6744 327.55Z" fill="url(#paint8_linear_642_7582)"/>
<g filter="url(#filter7_d_642_7582)">
<path d="M54.6213 186.32C35.3457 169.33 23.1821 144.46 23.1821 116.76C23.1821 65.5601 64.6942 24.0601 115.909 24.0601" stroke="url(#paint9_linear_642_7582)" stroke-width="1.05" stroke-miterlimit="10" stroke-linecap="round"/>
</g>
<g filter="url(#filter8_d_642_7582)">
<path d="M208.646 116.76C208.646 131.24 205.325 144.94 199.413 157.14" stroke="url(#paint10_linear_642_7582)" stroke-width="1.05" stroke-miterlimit="10" stroke-linecap="round"/>
</g>
<g filter="url(#filter9_d_642_7582)">
<path d="M169.365 192.52C154.26 203.19 135.815 209.46 115.919 209.46C112.838 209.46 109.787 209.31 106.776 209.02" stroke="url(#paint11_linear_642_7582)" stroke-width="1.05" stroke-miterlimit="10" stroke-linecap="round"/>
</g>
<path d="M115.919 27.08C117.587 27.08 118.94 25.7279 118.94 24.06C118.94 22.3921 117.587 21.04 115.919 21.04C114.251 21.04 112.898 22.3921 112.898 24.06C112.898 25.7279 114.251 27.08 115.919 27.08Z" fill="url(#paint12_linear_642_7582)"/>
<path d="M211.667 116.76C211.667 118.43 210.317 119.78 208.646 119.78C206.976 119.78 205.625 118.43 205.625 116.76C205.625 115.09 206.976 113.74 208.646 113.74C210.317 113.74 211.667 115.09 211.667 116.76Z" fill="url(#paint13_linear_642_7582)"/>
<g filter="url(#filter10_d_642_7582)">
<path d="M348.707 311.64C328.601 295.59 314.097 272.82 308.575 246.74" stroke="url(#paint14_linear_642_7582)" stroke-width="1.05" stroke-miterlimit="10" stroke-linecap="round"/>
</g>
<g filter="url(#filter11_d_642_7582)">
<path d="M399.382 111.83C405.834 110.69 412.476 110.09 419.268 110.09C481.756 110.09 532.421 160.73 532.421 223.21C532.421 285.69 481.766 336.33 419.268 336.33" stroke="url(#paint15_linear_642_7582)" stroke-width="1.05" stroke-miterlimit="10" stroke-linecap="round"/>
</g>
<path d="M422.269 336.32C422.269 337.99 420.918 339.34 419.248 339.34C417.577 339.34 416.227 337.99 416.227 336.32C416.227 334.65 417.577 333.3 419.248 333.3C420.918 333.3 422.269 334.65 422.269 336.32Z" fill="url(#paint16_linear_642_7582)"/>
<path d="M131.353 338H123.794V325.396H131.062V327.708H126.633V330.512H130.755V332.814H126.633V335.697H131.353V338ZM141.794 338H139.025V332.999C139.025 331.604 138.527 330.907 137.531 330.907C137.051 330.907 136.655 331.092 136.345 331.461C136.034 331.83 135.879 332.299 135.879 332.867V338H133.102V329H135.879V330.424H135.914C136.576 329.328 137.54 328.78 138.806 328.78C140.798 328.78 141.794 330.017 141.794 332.489V338ZM152.64 338H149.871V332.885C149.871 331.566 149.391 330.907 148.43 330.907C147.938 330.907 147.539 331.092 147.234 331.461C146.93 331.83 146.777 332.299 146.777 332.867V338H144V324.676H146.777V330.336H146.812C147.492 329.299 148.415 328.78 149.581 328.78C151.62 328.78 152.64 330.011 152.64 332.472V338ZM162.334 338H159.706V336.708H159.671C159.067 337.716 158.174 338.22 156.99 338.22C156.117 338.22 155.429 337.974 154.925 337.481C154.427 336.983 154.178 336.321 154.178 335.495C154.178 333.749 155.212 332.741 157.28 332.472L159.724 332.146C159.724 331.162 159.19 330.67 158.124 330.67C157.052 330.67 156.032 330.989 155.065 331.628V329.536C155.452 329.337 155.979 329.161 156.647 329.009C157.321 328.856 157.934 328.78 158.484 328.78C161.051 328.78 162.334 330.061 162.334 332.621V338ZM159.724 334.344V333.737L158.089 333.948C157.187 334.065 156.735 334.473 156.735 335.17C156.735 335.486 156.844 335.747 157.061 335.952C157.283 336.151 157.582 336.251 157.957 336.251C158.479 336.251 158.903 336.072 159.231 335.715C159.56 335.352 159.724 334.895 159.724 334.344ZM173.224 338H170.455V332.999C170.455 331.604 169.957 330.907 168.961 330.907C168.48 330.907 168.085 331.092 167.774 331.461C167.464 331.83 167.309 332.299 167.309 332.867V338H164.531V329H167.309V330.424H167.344C168.006 329.328 168.97 328.78 170.235 328.78C172.228 328.78 173.224 330.017 173.224 332.489V338ZM182.25 337.675C181.623 338.038 180.718 338.22 179.534 338.22C178.151 338.22 177.032 337.801 176.177 336.963C175.321 336.125 174.894 335.044 174.894 333.72C174.894 332.19 175.351 330.986 176.265 330.107C177.185 329.223 178.412 328.78 179.947 328.78C181.008 328.78 181.775 328.921 182.25 329.202V331.558C181.67 331.124 181.022 330.907 180.308 330.907C179.511 330.907 178.878 331.142 178.409 331.61C177.946 332.073 177.715 332.715 177.715 333.535C177.715 334.332 177.938 334.959 178.383 335.416C178.828 335.867 179.44 336.093 180.22 336.093C180.911 336.093 181.588 335.876 182.25 335.442V337.675ZM192.164 334.291H186.293C186.387 335.598 187.21 336.251 188.763 336.251C189.753 336.251 190.623 336.017 191.373 335.548V337.552C190.541 337.997 189.46 338.22 188.13 338.22C186.677 338.22 185.549 337.818 184.746 337.016C183.943 336.207 183.542 335.082 183.542 333.641C183.542 332.146 183.976 330.963 184.843 330.09C185.71 329.217 186.776 328.78 188.042 328.78C189.354 328.78 190.368 329.17 191.083 329.949C191.804 330.729 192.164 331.786 192.164 333.122V334.291ZM189.589 332.586C189.589 331.297 189.067 330.652 188.024 330.652C187.579 330.652 187.192 330.837 186.864 331.206C186.542 331.575 186.346 332.035 186.275 332.586H189.589ZM127.274 361.552C126.354 361.997 125.153 362.22 123.671 362.22C121.737 362.22 120.217 361.651 119.109 360.515C118.002 359.378 117.448 357.863 117.448 355.971C117.448 353.955 118.069 352.32 119.312 351.066C120.56 349.812 122.177 349.186 124.163 349.186C125.394 349.186 126.431 349.341 127.274 349.651V352.385C126.431 351.881 125.47 351.629 124.392 351.629C123.208 351.629 122.253 352.001 121.526 352.745C120.8 353.489 120.437 354.497 120.437 355.769C120.437 356.987 120.779 357.96 121.465 358.687C122.15 359.407 123.073 359.768 124.233 359.768C125.341 359.768 126.354 359.498 127.274 358.959V361.552ZM137.751 362H134.982V360.629H134.938C134.253 361.689 133.336 362.22 132.188 362.22C130.102 362.22 129.059 360.957 129.059 358.432V353H131.827V358.186C131.827 359.457 132.331 360.093 133.339 360.093C133.837 360.093 134.235 359.92 134.534 359.574C134.833 359.223 134.982 358.748 134.982 358.15V353H137.751V362ZM139.509 361.763V359.513C139.966 359.788 140.42 359.993 140.871 360.128C141.328 360.263 141.759 360.33 142.163 360.33C142.655 360.33 143.042 360.263 143.323 360.128C143.61 359.993 143.754 359.788 143.754 359.513C143.754 359.337 143.689 359.19 143.561 359.073C143.432 358.956 143.265 358.854 143.06 358.766C142.86 358.678 142.641 358.599 142.4 358.528C142.16 358.458 141.929 358.379 141.706 358.291C141.349 358.156 141.032 358.013 140.757 357.86C140.487 357.702 140.259 357.521 140.071 357.315C139.89 357.11 139.749 356.873 139.649 356.604C139.556 356.334 139.509 356.015 139.509 355.646C139.509 355.142 139.617 354.708 139.834 354.345C140.057 353.981 140.35 353.686 140.713 353.457C141.082 353.223 141.501 353.053 141.97 352.947C142.444 352.836 142.937 352.78 143.446 352.78C143.845 352.78 144.249 352.812 144.659 352.877C145.069 352.936 145.474 353.023 145.872 353.141V355.285C145.521 355.08 145.143 354.928 144.738 354.828C144.34 354.723 143.947 354.67 143.561 354.67C143.379 354.67 143.206 354.688 143.042 354.723C142.884 354.752 142.743 354.799 142.62 354.863C142.497 354.922 142.4 355.001 142.33 355.101C142.26 355.194 142.225 355.303 142.225 355.426C142.225 355.59 142.277 355.73 142.383 355.848C142.488 355.965 142.626 356.067 142.796 356.155C142.966 356.237 143.153 356.313 143.358 356.384C143.569 356.448 143.777 356.516 143.982 356.586C144.352 356.715 144.686 356.855 144.984 357.008C145.283 357.16 145.538 357.339 145.749 357.544C145.966 357.749 146.13 357.989 146.241 358.265C146.358 358.54 146.417 358.868 146.417 359.249C146.417 359.782 146.3 360.239 146.065 360.62C145.837 360.995 145.529 361.303 145.143 361.543C144.762 361.777 144.319 361.947 143.815 362.053C143.317 362.164 142.799 362.22 142.26 362.22C141.27 362.22 140.353 362.067 139.509 361.763ZM153.466 361.895C153.056 362.111 152.438 362.22 151.611 362.22C149.654 362.22 148.676 361.203 148.676 359.17V355.048H147.217V353H148.676V351.058L151.444 350.267V353H153.466V355.048H151.444V358.687C151.444 359.624 151.816 360.093 152.561 360.093C152.854 360.093 153.155 360.008 153.466 359.838V361.895ZM159.258 362.22C157.758 362.22 156.577 361.801 155.716 360.963C154.86 360.119 154.433 358.977 154.433 357.535C154.433 356.047 154.878 354.884 155.769 354.046C156.659 353.202 157.863 352.78 159.381 352.78C160.875 352.78 162.047 353.202 162.896 354.046C163.746 354.884 164.171 355.994 164.171 357.377C164.171 358.871 163.731 360.052 162.853 360.919C161.979 361.786 160.781 362.22 159.258 362.22ZM159.328 354.907C158.672 354.907 158.162 355.133 157.799 355.584C157.436 356.035 157.254 356.674 157.254 357.5C157.254 359.229 157.951 360.093 159.346 360.093C160.676 360.093 161.341 359.205 161.341 357.43C161.341 355.748 160.67 354.907 159.328 354.907ZM180.264 362H177.495V356.867C177.495 355.561 177.015 354.907 176.054 354.907C175.597 354.907 175.225 355.104 174.938 355.496C174.65 355.889 174.507 356.378 174.507 356.964V362H171.729V356.814C171.729 355.543 171.258 354.907 170.314 354.907C169.84 354.907 169.459 355.095 169.172 355.47C168.891 355.845 168.75 356.354 168.75 356.999V362H165.973V353H168.75V354.406H168.785C169.072 353.926 169.474 353.536 169.989 353.237C170.511 352.933 171.079 352.78 171.694 352.78C172.966 352.78 173.836 353.34 174.305 354.459C174.99 353.34 175.998 352.78 177.328 352.78C179.285 352.78 180.264 353.987 180.264 356.401V362ZM190.547 358.291H184.676C184.77 359.598 185.593 360.251 187.146 360.251C188.136 360.251 189.006 360.017 189.756 359.548V361.552C188.924 361.997 187.843 362.22 186.513 362.22C185.06 362.22 183.932 361.818 183.129 361.016C182.326 360.207 181.925 359.082 181.925 357.641C181.925 356.146 182.358 354.963 183.226 354.09C184.093 353.217 185.159 352.78 186.425 352.78C187.737 352.78 188.751 353.17 189.466 353.949C190.187 354.729 190.547 355.786 190.547 357.122V358.291ZM187.972 356.586C187.972 355.297 187.45 354.652 186.407 354.652C185.962 354.652 185.575 354.837 185.247 355.206C184.925 355.575 184.729 356.035 184.658 356.586H187.972ZM198.07 355.505C197.736 355.323 197.347 355.232 196.901 355.232C196.298 355.232 195.826 355.455 195.486 355.9C195.146 356.34 194.977 356.94 194.977 357.702V362H192.199V353H194.977V354.67H195.012C195.451 353.451 196.242 352.842 197.385 352.842C197.678 352.842 197.906 352.877 198.07 352.947V355.505ZM113.335 386H105.776V373.396H113.045V375.708H108.615V378.512H112.737V380.814H108.615V383.697H113.335V386ZM123.776 386H121.008V380.999C121.008 379.604 120.51 378.907 119.514 378.907C119.033 378.907 118.638 379.092 118.327 379.461C118.017 379.83 117.861 380.299 117.861 380.867V386H115.084V377H117.861V378.424H117.896C118.559 377.328 119.522 376.78 120.788 376.78C122.78 376.78 123.776 378.017 123.776 380.489V386ZM134.807 384.972C134.807 386.642 134.323 387.934 133.356 388.848C132.39 389.768 130.989 390.228 129.155 390.228C127.942 390.228 126.981 390.055 126.272 389.709V387.371C127.198 387.91 128.133 388.18 129.076 388.18C130.014 388.18 130.74 387.931 131.256 387.433C131.771 386.94 132.029 386.27 132.029 385.42V384.708H131.994C131.361 385.716 130.427 386.22 129.19 386.22C128.042 386.22 127.131 385.815 126.457 385.007C125.783 384.198 125.446 383.114 125.446 381.755C125.446 380.231 125.821 379.021 126.571 378.125C127.321 377.229 128.309 376.78 129.533 376.78C130.629 376.78 131.449 377.202 131.994 378.046H132.029V377H134.807V384.972ZM132.064 381.676V380.964C132.064 380.396 131.895 379.912 131.555 379.514C131.221 379.109 130.784 378.907 130.245 378.907C129.63 378.907 129.146 379.147 128.795 379.628C128.443 380.108 128.268 380.785 128.268 381.658C128.268 382.408 128.435 383.003 128.769 383.442C129.103 383.876 129.56 384.093 130.14 384.093C130.714 384.093 131.177 383.873 131.528 383.434C131.886 382.988 132.064 382.402 132.064 381.676ZM144.615 386H141.987V384.708H141.952C141.349 385.716 140.455 386.22 139.271 386.22C138.398 386.22 137.71 385.974 137.206 385.481C136.708 384.983 136.459 384.321 136.459 383.495C136.459 381.749 137.493 380.741 139.562 380.472L142.005 380.146C142.005 379.162 141.472 378.67 140.405 378.67C139.333 378.67 138.313 378.989 137.347 379.628V377.536C137.733 377.337 138.261 377.161 138.929 377.009C139.603 376.856 140.215 376.78 140.766 376.78C143.332 376.78 144.615 378.061 144.615 380.621V386ZM142.005 382.344V381.737L140.37 381.948C139.468 382.065 139.017 382.473 139.017 383.17C139.017 383.486 139.125 383.747 139.342 383.952C139.564 384.151 139.863 384.251 140.238 384.251C140.76 384.251 141.185 384.072 141.513 383.715C141.841 383.352 142.005 382.895 142.005 382.344ZM155.637 384.972C155.637 386.642 155.153 387.934 154.187 388.848C153.22 389.768 151.819 390.228 149.985 390.228C148.772 390.228 147.812 390.055 147.103 389.709V387.371C148.028 387.91 148.963 388.18 149.906 388.18C150.844 388.18 151.57 387.931 152.086 387.433C152.602 386.94 152.859 386.27 152.859 385.42V384.708H152.824C152.191 385.716 151.257 386.22 150.021 386.22C148.872 386.22 147.961 385.815 147.287 385.007C146.613 384.198 146.276 383.114 146.276 381.755C146.276 380.231 146.651 379.021 147.401 378.125C148.151 377.229 149.139 376.78 150.363 376.78C151.459 376.78 152.279 377.202 152.824 378.046H152.859V377H155.637V384.972ZM152.895 381.676V380.964C152.895 380.396 152.725 379.912 152.385 379.514C152.051 379.109 151.614 378.907 151.075 378.907C150.46 378.907 149.977 379.147 149.625 379.628C149.273 380.108 149.098 380.785 149.098 381.658C149.098 382.408 149.265 383.003 149.599 383.442C149.933 383.876 150.39 384.093 150.97 384.093C151.544 384.093 152.007 383.873 152.358 383.434C152.716 382.988 152.895 382.402 152.895 381.676ZM166.043 382.291H160.172C160.266 383.598 161.089 384.251 162.642 384.251C163.632 384.251 164.502 384.017 165.252 383.548V385.552C164.42 385.997 163.339 386.22 162.009 386.22C160.556 386.22 159.428 385.818 158.625 385.016C157.822 384.207 157.421 383.082 157.421 381.641C157.421 380.146 157.854 378.963 158.722 378.09C159.589 377.217 160.655 376.78 161.921 376.78C163.233 376.78 164.247 377.17 164.962 377.949C165.683 378.729 166.043 379.786 166.043 381.122V382.291ZM163.468 380.586C163.468 379.297 162.946 378.652 161.903 378.652C161.458 378.652 161.071 378.837 160.743 379.206C160.421 379.575 160.225 380.035 160.154 380.586H163.468ZM181.986 386H179.218V380.867C179.218 379.561 178.737 378.907 177.776 378.907C177.319 378.907 176.947 379.104 176.66 379.496C176.373 379.889 176.229 380.378 176.229 380.964V386H173.452V380.814C173.452 379.543 172.98 378.907 172.037 378.907C171.562 378.907 171.182 379.095 170.895 379.47C170.613 379.845 170.473 380.354 170.473 380.999V386H167.695V377H170.473V378.406H170.508C170.795 377.926 171.196 377.536 171.712 377.237C172.233 376.933 172.802 376.78 173.417 376.78C174.688 376.78 175.559 377.34 176.027 378.459C176.713 377.34 177.721 376.78 179.051 376.78C181.008 376.78 181.986 377.987 181.986 380.401V386ZM192.27 382.291H186.398C186.492 383.598 187.315 384.251 188.868 384.251C189.858 384.251 190.729 384.017 191.479 383.548V385.552C190.646 385.997 189.565 386.22 188.235 386.22C186.782 386.22 185.654 385.818 184.852 385.016C184.049 384.207 183.647 383.082 183.647 381.641C183.647 380.146 184.081 378.963 184.948 378.09C185.815 377.217 186.882 376.78 188.147 376.78C189.46 376.78 190.474 377.17 191.188 377.949C191.909 378.729 192.27 379.786 192.27 381.122V382.291ZM189.694 380.586C189.694 379.297 189.173 378.652 188.13 378.652C187.685 378.652 187.298 378.837 186.97 379.206C186.647 379.575 186.451 380.035 186.381 380.586H189.694ZM202.614 386H199.846V380.999C199.846 379.604 199.348 378.907 198.352 378.907C197.871 378.907 197.476 379.092 197.165 379.461C196.854 379.83 196.699 380.299 196.699 380.867V386H193.922V377H196.699V378.424H196.734C197.396 377.328 198.36 376.78 199.626 376.78C201.618 376.78 202.614 378.017 202.614 380.489V386ZM210.261 385.895C209.851 386.111 209.232 386.22 208.406 386.22C206.449 386.22 205.471 385.203 205.471 383.17V379.048H204.012V377H205.471V375.058L208.239 374.267V377H210.261V379.048H208.239V382.687C208.239 383.624 208.611 384.093 209.355 384.093C209.648 384.093 209.95 384.008 210.261 383.838V385.895Z" fill="white"/>
<path d="M72.0977 114.517V111.704C72.6074 112.132 73.1611 112.454 73.7588 112.671C74.3564 112.882 74.96 112.987 75.5693 112.987C75.9268 112.987 76.2373 112.955 76.501 112.891C76.7705 112.826 76.9932 112.738 77.1689 112.627C77.3506 112.51 77.4854 112.375 77.5732 112.223C77.6611 112.064 77.7051 111.895 77.7051 111.713C77.7051 111.467 77.6348 111.247 77.4941 111.054C77.3535 110.86 77.1602 110.682 76.9141 110.518C76.6738 110.354 76.3867 110.195 76.0527 110.043C75.7188 109.891 75.3584 109.735 74.9717 109.577C73.9873 109.167 73.252 108.666 72.7656 108.074C72.2852 107.482 72.0449 106.768 72.0449 105.93C72.0449 105.273 72.1768 104.711 72.4404 104.242C72.7041 103.768 73.0615 103.378 73.5127 103.073C73.9697 102.769 74.4971 102.546 75.0947 102.405C75.6924 102.259 76.3252 102.186 76.9932 102.186C77.6494 102.186 78.2295 102.227 78.7334 102.309C79.2432 102.385 79.7119 102.505 80.1396 102.669V105.297C79.9287 105.15 79.6973 105.021 79.4453 104.91C79.1992 104.799 78.9443 104.708 78.6807 104.638C78.417 104.562 78.1533 104.506 77.8896 104.471C77.6318 104.436 77.3857 104.418 77.1514 104.418C76.8291 104.418 76.5361 104.45 76.2725 104.515C76.0088 104.573 75.7861 104.658 75.6045 104.77C75.4229 104.881 75.2822 105.016 75.1826 105.174C75.083 105.326 75.0332 105.499 75.0332 105.692C75.0332 105.903 75.0889 106.094 75.2002 106.264C75.3115 106.428 75.4697 106.586 75.6748 106.738C75.8799 106.885 76.1289 107.031 76.4219 107.178C76.7148 107.318 77.0459 107.465 77.415 107.617C77.9189 107.828 78.3701 108.054 78.7686 108.294C79.1729 108.528 79.5186 108.795 79.8057 109.094C80.0928 109.393 80.3125 109.735 80.4648 110.122C80.6172 110.503 80.6934 110.948 80.6934 111.458C80.6934 112.161 80.5586 112.753 80.2891 113.233C80.0254 113.708 79.665 114.095 79.208 114.394C78.751 114.687 78.2178 114.897 77.6084 115.026C77.0049 115.155 76.3662 115.22 75.6924 115.22C75.001 115.22 74.3418 115.161 73.7148 115.044C73.0938 114.927 72.5547 114.751 72.0977 114.517ZM87.4785 114.895C87.0684 115.111 86.4502 115.22 85.624 115.22C83.667 115.22 82.6885 114.203 82.6885 112.17V108.048H81.2295V106H82.6885V104.058L85.457 103.267V106H87.4785V108.048H85.457V111.687C85.457 112.624 85.8291 113.093 86.5732 113.093C86.8662 113.093 87.168 113.008 87.4785 112.838V114.895ZM94.9229 108.505C94.5889 108.323 94.1992 108.232 93.7539 108.232C93.1504 108.232 92.6787 108.455 92.3389 108.9C91.999 109.34 91.8291 109.94 91.8291 110.702V115H89.0518V106H91.8291V107.67H91.8643C92.3037 106.451 93.0947 105.842 94.2373 105.842C94.5303 105.842 94.7588 105.877 94.9229 105.947V108.505ZM104.239 111.291H98.3682C98.4619 112.598 99.2852 113.251 100.838 113.251C101.828 113.251 102.698 113.017 103.448 112.548V114.552C102.616 114.997 101.535 115.22 100.205 115.22C98.752 115.22 97.624 114.818 96.8213 114.016C96.0186 113.207 95.6172 112.082 95.6172 110.641C95.6172 109.146 96.0508 107.963 96.918 107.09C97.7852 106.217 98.8516 105.78 100.117 105.78C101.43 105.78 102.443 106.17 103.158 106.949C103.879 107.729 104.239 108.786 104.239 110.122V111.291ZM101.664 109.586C101.664 108.297 101.143 107.652 100.1 107.652C99.6543 107.652 99.2676 107.837 98.9395 108.206C98.6172 108.575 98.4209 109.035 98.3506 109.586H101.664ZM113.38 115H110.752V113.708H110.717C110.113 114.716 109.22 115.22 108.036 115.22C107.163 115.22 106.475 114.974 105.971 114.481C105.473 113.983 105.224 113.321 105.224 112.495C105.224 110.749 106.258 109.741 108.326 109.472L110.77 109.146C110.77 108.162 110.236 107.67 109.17 107.67C108.098 107.67 107.078 107.989 106.111 108.628V106.536C106.498 106.337 107.025 106.161 107.693 106.009C108.367 105.856 108.979 105.78 109.53 105.78C112.097 105.78 113.38 107.061 113.38 109.621V115ZM110.77 111.344V110.737L109.135 110.948C108.232 111.065 107.781 111.473 107.781 112.17C107.781 112.486 107.89 112.747 108.106 112.952C108.329 113.151 108.628 113.251 109.003 113.251C109.524 113.251 109.949 113.072 110.277 112.715C110.605 112.352 110.77 111.895 110.77 111.344ZM129.868 115H127.1V109.867C127.1 108.561 126.619 107.907 125.658 107.907C125.201 107.907 124.829 108.104 124.542 108.496C124.255 108.889 124.111 109.378 124.111 109.964V115H121.334V109.814C121.334 108.543 120.862 107.907 119.919 107.907C119.444 107.907 119.063 108.095 118.776 108.47C118.495 108.845 118.354 109.354 118.354 109.999V115H115.577V106H118.354V107.406H118.39C118.677 106.926 119.078 106.536 119.594 106.237C120.115 105.933 120.684 105.78 121.299 105.78C122.57 105.78 123.44 106.34 123.909 107.459C124.595 106.34 125.603 105.78 126.933 105.78C128.89 105.78 129.868 106.987 129.868 109.401V115ZM134.843 115H132.065V101.676H134.843V115ZM138.587 104.576C138.118 104.576 137.734 104.438 137.436 104.163C137.137 103.882 136.987 103.539 136.987 103.135C136.987 102.719 137.137 102.379 137.436 102.115C137.734 101.852 138.118 101.72 138.587 101.72C139.062 101.72 139.445 101.852 139.738 102.115C140.037 102.379 140.187 102.719 140.187 103.135C140.187 103.557 140.037 103.902 139.738 104.172C139.445 104.441 139.062 104.576 138.587 104.576ZM139.958 115H137.181V106H139.958V115ZM150.988 115H148.22V109.999C148.22 108.604 147.722 107.907 146.726 107.907C146.245 107.907 145.85 108.092 145.539 108.461C145.229 108.83 145.073 109.299 145.073 109.867V115H142.296V106H145.073V107.424H145.108C145.771 106.328 146.734 105.78 148 105.78C149.992 105.78 150.988 107.017 150.988 109.489V115ZM161.28 111.291H155.409C155.503 112.598 156.326 113.251 157.879 113.251C158.869 113.251 159.739 113.017 160.489 112.548V114.552C159.657 114.997 158.576 115.22 157.246 115.22C155.793 115.22 154.665 114.818 153.862 114.016C153.06 113.207 152.658 112.082 152.658 110.641C152.658 109.146 153.092 107.963 153.959 107.09C154.826 106.217 155.893 105.78 157.158 105.78C158.471 105.78 159.484 106.17 160.199 106.949C160.92 107.729 161.28 108.786 161.28 110.122V111.291ZM158.705 109.586C158.705 108.297 158.184 107.652 157.141 107.652C156.695 107.652 156.309 107.837 155.98 108.206C155.658 108.575 155.462 109.035 155.392 109.586H158.705ZM96.083 138.517V135.704C96.5928 136.132 97.1465 136.454 97.7441 136.671C98.3418 136.882 98.9453 136.987 99.5547 136.987C99.9121 136.987 100.223 136.955 100.486 136.891C100.756 136.826 100.979 136.738 101.154 136.627C101.336 136.51 101.471 136.375 101.559 136.223C101.646 136.064 101.69 135.895 101.69 135.713C101.69 135.467 101.62 135.247 101.479 135.054C101.339 134.86 101.146 134.682 100.899 134.518C100.659 134.354 100.372 134.195 100.038 134.043C99.7041 133.891 99.3438 133.735 98.957 133.577C97.9727 133.167 97.2373 132.666 96.751 132.074C96.2705 131.482 96.0303 130.768 96.0303 129.93C96.0303 129.273 96.1621 128.711 96.4258 128.242C96.6895 127.768 97.0469 127.378 97.498 127.073C97.9551 126.769 98.4824 126.546 99.0801 126.405C99.6777 126.259 100.311 126.186 100.979 126.186C101.635 126.186 102.215 126.227 102.719 126.309C103.229 126.385 103.697 126.505 104.125 126.669V129.297C103.914 129.15 103.683 129.021 103.431 128.91C103.185 128.799 102.93 128.708 102.666 128.638C102.402 128.562 102.139 128.506 101.875 128.471C101.617 128.436 101.371 128.418 101.137 128.418C100.814 128.418 100.521 128.45 100.258 128.515C99.9941 128.573 99.7715 128.658 99.5898 128.77C99.4082 128.881 99.2676 129.016 99.168 129.174C99.0684 129.326 99.0186 129.499 99.0186 129.692C99.0186 129.903 99.0742 130.094 99.1855 130.264C99.2969 130.428 99.4551 130.586 99.6602 130.738C99.8652 130.885 100.114 131.031 100.407 131.178C100.7 131.318 101.031 131.465 101.4 131.617C101.904 131.828 102.355 132.054 102.754 132.294C103.158 132.528 103.504 132.795 103.791 133.094C104.078 133.393 104.298 133.735 104.45 134.122C104.603 134.503 104.679 134.948 104.679 135.458C104.679 136.161 104.544 136.753 104.274 137.233C104.011 137.708 103.65 138.095 103.193 138.394C102.736 138.687 102.203 138.897 101.594 139.026C100.99 139.155 100.352 139.22 99.6777 139.22C98.9863 139.22 98.3271 139.161 97.7002 139.044C97.0791 138.927 96.54 138.751 96.083 138.517ZM113.969 139H111.341V137.708H111.306C110.702 138.716 109.809 139.22 108.625 139.22C107.752 139.22 107.063 138.974 106.56 138.481C106.062 137.983 105.812 137.321 105.812 136.495C105.812 134.749 106.847 133.741 108.915 133.472L111.358 133.146C111.358 132.162 110.825 131.67 109.759 131.67C108.687 131.67 107.667 131.989 106.7 132.628V130.536C107.087 130.337 107.614 130.161 108.282 130.009C108.956 129.856 109.568 129.78 110.119 129.78C112.686 129.78 113.969 131.061 113.969 133.621V139ZM111.358 135.344V134.737L109.724 134.948C108.821 135.065 108.37 135.473 108.37 136.17C108.37 136.486 108.479 136.747 108.695 136.952C108.918 137.151 109.217 137.251 109.592 137.251C110.113 137.251 110.538 137.072 110.866 136.715C111.194 136.352 111.358 135.895 111.358 135.344ZM118.943 139H116.166V125.676H118.943V139ZM129.367 135.291H123.496C123.59 136.598 124.413 137.251 125.966 137.251C126.956 137.251 127.826 137.017 128.576 136.548V138.552C127.744 138.997 126.663 139.22 125.333 139.22C123.88 139.22 122.752 138.818 121.949 138.016C121.146 137.207 120.745 136.082 120.745 134.641C120.745 133.146 121.179 131.963 122.046 131.09C122.913 130.217 123.979 129.78 125.245 129.78C126.558 129.78 127.571 130.17 128.286 130.949C129.007 131.729 129.367 132.786 129.367 134.122V135.291ZM126.792 133.586C126.792 132.297 126.271 131.652 125.228 131.652C124.782 131.652 124.396 131.837 124.067 132.206C123.745 132.575 123.549 133.035 123.479 133.586H126.792ZM130.431 138.763V136.513C130.888 136.788 131.342 136.993 131.793 137.128C132.25 137.263 132.681 137.33 133.085 137.33C133.577 137.33 133.964 137.263 134.245 137.128C134.532 136.993 134.676 136.788 134.676 136.513C134.676 136.337 134.611 136.19 134.482 136.073C134.354 135.956 134.187 135.854 133.981 135.766C133.782 135.678 133.562 135.599 133.322 135.528C133.082 135.458 132.851 135.379 132.628 135.291C132.271 135.156 131.954 135.013 131.679 134.86C131.409 134.702 131.181 134.521 130.993 134.315C130.812 134.11 130.671 133.873 130.571 133.604C130.478 133.334 130.431 133.015 130.431 132.646C130.431 132.142 130.539 131.708 130.756 131.345C130.979 130.981 131.271 130.686 131.635 130.457C132.004 130.223 132.423 130.053 132.892 129.947C133.366 129.836 133.858 129.78 134.368 129.78C134.767 129.78 135.171 129.812 135.581 129.877C135.991 129.936 136.396 130.023 136.794 130.141V132.285C136.442 132.08 136.064 131.928 135.66 131.828C135.262 131.723 134.869 131.67 134.482 131.67C134.301 131.67 134.128 131.688 133.964 131.723C133.806 131.752 133.665 131.799 133.542 131.863C133.419 131.922 133.322 132.001 133.252 132.101C133.182 132.194 133.146 132.303 133.146 132.426C133.146 132.59 133.199 132.73 133.305 132.848C133.41 132.965 133.548 133.067 133.718 133.155C133.888 133.237 134.075 133.313 134.28 133.384C134.491 133.448 134.699 133.516 134.904 133.586C135.273 133.715 135.607 133.855 135.906 134.008C136.205 134.16 136.46 134.339 136.671 134.544C136.888 134.749 137.052 134.989 137.163 135.265C137.28 135.54 137.339 135.868 137.339 136.249C137.339 136.782 137.222 137.239 136.987 137.62C136.759 137.995 136.451 138.303 136.064 138.543C135.684 138.777 135.241 138.947 134.737 139.053C134.239 139.164 133.721 139.22 133.182 139.22C132.191 139.22 131.274 139.067 130.431 138.763Z" fill="white"/>
<path d="M379.328 215H375.891L374.895 211.885H369.914L368.928 215H365.51L370.607 200.996H374.348L379.328 215ZM374.172 209.463L372.668 204.756C372.557 204.404 372.479 203.984 372.434 203.496H372.355C372.323 203.906 372.242 204.313 372.111 204.717L370.588 209.463H374.172ZM385.402 200.996V203.438H384.23V212.559H385.402V215H379.904V212.559H381.076V203.438H379.904V200.996H385.402ZM392.561 210.742H387.219V208.584H392.561V210.742ZM398.664 210.176V215H395.51V200.996H400.451C403.98 200.996 405.744 202.484 405.744 205.459C405.744 206.865 405.236 208.005 404.221 208.877C403.212 209.743 401.861 210.176 400.168 210.176H398.664ZM398.664 203.418V207.783H399.904C401.584 207.783 402.424 207.048 402.424 205.576C402.424 204.137 401.584 203.418 399.904 203.418H398.664ZM411.652 215.244C409.986 215.244 408.674 214.779 407.717 213.848C406.766 212.91 406.291 211.641 406.291 210.039C406.291 208.385 406.786 207.093 407.775 206.162C408.765 205.225 410.103 204.756 411.789 204.756C413.449 204.756 414.751 205.225 415.695 206.162C416.639 207.093 417.111 208.327 417.111 209.863C417.111 211.523 416.623 212.835 415.646 213.799C414.676 214.762 413.345 215.244 411.652 215.244ZM411.73 207.119C411.001 207.119 410.435 207.37 410.031 207.871C409.628 208.372 409.426 209.082 409.426 210C409.426 211.921 410.201 212.881 411.75 212.881C413.228 212.881 413.967 211.895 413.967 209.922C413.967 208.053 413.221 207.119 411.73 207.119ZM433.596 205L430.715 215H427.473L425.998 209.141C425.9 208.75 425.845 208.324 425.832 207.861H425.773C425.728 208.369 425.663 208.783 425.578 209.102L423.996 215H420.793L417.971 205H421.115L422.492 211.523C422.557 211.829 422.606 212.201 422.639 212.637H422.697C422.73 212.181 422.788 211.797 422.873 211.484L424.592 205H427.531L429.074 211.523C429.113 211.686 429.159 212.064 429.211 212.656H429.279C429.312 212.279 429.364 211.901 429.436 211.523L430.734 205H433.596ZM443.957 210.879H437.434C437.538 212.331 438.452 213.057 440.178 213.057C441.278 213.057 442.245 212.796 443.078 212.275V214.502C442.154 214.997 440.952 215.244 439.475 215.244C437.86 215.244 436.607 214.798 435.715 213.906C434.823 213.008 434.377 211.758 434.377 210.156C434.377 208.496 434.859 207.181 435.822 206.211C436.786 205.241 437.971 204.756 439.377 204.756C440.835 204.756 441.962 205.189 442.756 206.055C443.557 206.921 443.957 208.096 443.957 209.58V210.879ZM441.096 208.984C441.096 207.552 440.516 206.836 439.357 206.836C438.863 206.836 438.433 207.041 438.068 207.451C437.71 207.861 437.492 208.372 437.414 208.984H441.096ZM452.316 207.783C451.945 207.581 451.512 207.48 451.018 207.48C450.347 207.48 449.823 207.728 449.445 208.223C449.068 208.711 448.879 209.378 448.879 210.225V215H445.793V205H448.879V206.855H448.918C449.406 205.501 450.285 204.824 451.555 204.824C451.88 204.824 452.134 204.863 452.316 204.941V207.783ZM462.668 210.879H456.145C456.249 212.331 457.163 213.057 458.889 213.057C459.989 213.057 460.956 212.796 461.789 212.275V214.502C460.865 214.997 459.663 215.244 458.186 215.244C456.571 215.244 455.318 214.798 454.426 213.906C453.534 213.008 453.088 211.758 453.088 210.156C453.088 208.496 453.57 207.181 454.533 206.211C455.497 205.241 456.682 204.756 458.088 204.756C459.546 204.756 460.673 205.189 461.467 206.055C462.268 206.921 462.668 208.096 462.668 209.58V210.879ZM459.807 208.984C459.807 207.552 459.227 206.836 458.068 206.836C457.574 206.836 457.144 207.041 456.779 207.451C456.421 207.861 456.203 208.372 456.125 208.984H459.807ZM474.289 215H471.203V213.623H471.164C470.461 214.704 469.429 215.244 468.068 215.244C466.818 215.244 465.812 214.805 465.051 213.926C464.289 213.04 463.908 211.807 463.908 210.225C463.908 208.571 464.328 207.246 465.168 206.25C466.008 205.254 467.108 204.756 468.469 204.756C469.758 204.756 470.656 205.218 471.164 206.143H471.203V200.195H474.289V215ZM471.262 210.137V209.385C471.262 208.734 471.073 208.193 470.695 207.764C470.318 207.334 469.826 207.119 469.221 207.119C468.537 207.119 468.003 207.389 467.619 207.93C467.235 208.464 467.043 209.199 467.043 210.137C467.043 211.016 467.229 211.693 467.6 212.168C467.971 212.643 468.485 212.881 469.143 212.881C469.768 212.881 470.275 212.63 470.666 212.129C471.063 211.628 471.262 210.964 471.262 210.137ZM377.912 243H374.475L373.479 239.885H368.498L367.512 243H364.094L369.191 228.996H372.932L377.912 243ZM372.756 237.463L371.252 232.756C371.141 232.404 371.063 231.984 371.018 231.496H370.939C370.907 231.906 370.826 232.313 370.695 232.717L369.172 237.463H372.756ZM388.859 243H385.783V241.477H385.734C384.973 242.655 383.954 243.244 382.678 243.244C380.36 243.244 379.201 241.841 379.201 239.035V233H382.277V238.762C382.277 240.174 382.837 240.881 383.957 240.881C384.51 240.881 384.953 240.689 385.285 240.305C385.617 239.914 385.783 239.387 385.783 238.723V233H388.859V243ZM397.512 242.883C397.056 243.124 396.369 243.244 395.451 243.244C393.277 243.244 392.189 242.115 392.189 239.855V235.275H390.568V233H392.189V230.842L395.266 229.963V233H397.512V235.275H395.266V239.318C395.266 240.36 395.679 240.881 396.506 240.881C396.831 240.881 397.167 240.786 397.512 240.598V242.883ZM403.947 243.244C402.281 243.244 400.969 242.779 400.012 241.848C399.061 240.91 398.586 239.641 398.586 238.039C398.586 236.385 399.081 235.093 400.07 234.162C401.06 233.225 402.398 232.756 404.084 232.756C405.744 232.756 407.046 233.225 407.99 234.162C408.934 235.093 409.406 236.327 409.406 237.863C409.406 239.523 408.918 240.835 407.941 241.799C406.971 242.762 405.64 243.244 403.947 243.244ZM404.025 235.119C403.296 235.119 402.73 235.37 402.326 235.871C401.923 236.372 401.721 237.082 401.721 238C401.721 239.921 402.495 240.881 404.045 240.881C405.523 240.881 406.262 239.895 406.262 237.922C406.262 236.053 405.516 235.119 404.025 235.119ZM427.287 243H424.211V237.297C424.211 235.845 423.677 235.119 422.609 235.119C422.102 235.119 421.688 235.337 421.369 235.773C421.05 236.21 420.891 236.753 420.891 237.404V243H417.805V237.238C417.805 235.826 417.281 235.119 416.232 235.119C415.705 235.119 415.282 235.327 414.963 235.744C414.65 236.161 414.494 236.727 414.494 237.443V243H411.408V233H414.494V234.562H414.533C414.852 234.029 415.298 233.596 415.871 233.264C416.451 232.925 417.082 232.756 417.766 232.756C419.178 232.756 420.145 233.378 420.666 234.621C421.428 233.378 422.548 232.756 424.025 232.756C426.2 232.756 427.287 234.097 427.287 236.779V243ZM438.049 243H435.129V241.564H435.09C434.419 242.684 433.426 243.244 432.111 243.244C431.141 243.244 430.376 242.971 429.816 242.424C429.263 241.87 428.986 241.135 428.986 240.217C428.986 238.277 430.135 237.157 432.434 236.857L435.148 236.496C435.148 235.402 434.556 234.855 433.371 234.855C432.18 234.855 431.047 235.21 429.973 235.92V233.596C430.402 233.374 430.988 233.179 431.73 233.01C432.479 232.84 433.16 232.756 433.771 232.756C436.623 232.756 438.049 234.178 438.049 237.023V243ZM435.148 238.938V238.264L433.332 238.498C432.329 238.628 431.828 239.081 431.828 239.855C431.828 240.207 431.949 240.497 432.189 240.725C432.437 240.946 432.769 241.057 433.186 241.057C433.765 241.057 434.237 240.858 434.602 240.461C434.966 240.057 435.148 239.549 435.148 238.938ZM446.535 242.883C446.079 243.124 445.393 243.244 444.475 243.244C442.3 243.244 441.213 242.115 441.213 239.855V235.275H439.592V233H441.213V230.842L444.289 229.963V233H446.535V235.275H444.289V239.318C444.289 240.36 444.702 240.881 445.529 240.881C445.855 240.881 446.19 240.786 446.535 240.598V242.883ZM449.846 231.418C449.325 231.418 448.898 231.265 448.566 230.959C448.234 230.646 448.068 230.266 448.068 229.816C448.068 229.354 448.234 228.977 448.566 228.684C448.898 228.391 449.325 228.244 449.846 228.244C450.373 228.244 450.799 228.391 451.125 228.684C451.457 228.977 451.623 229.354 451.623 229.816C451.623 230.285 451.457 230.669 451.125 230.969C450.799 231.268 450.373 231.418 449.846 231.418ZM451.369 243H448.283V233H451.369V243ZM458.732 243.244C457.066 243.244 455.754 242.779 454.797 241.848C453.846 240.91 453.371 239.641 453.371 238.039C453.371 236.385 453.866 235.093 454.855 234.162C455.845 233.225 457.183 232.756 458.869 232.756C460.529 232.756 461.831 233.225 462.775 234.162C463.719 235.093 464.191 236.327 464.191 237.863C464.191 239.523 463.703 240.835 462.727 241.799C461.757 242.762 460.425 243.244 458.732 243.244ZM458.811 235.119C458.081 235.119 457.515 235.37 457.111 235.871C456.708 236.372 456.506 237.082 456.506 238C456.506 239.921 457.281 240.881 458.83 240.881C460.308 240.881 461.047 239.895 461.047 237.922C461.047 236.053 460.301 235.119 458.811 235.119ZM475.852 243H472.775V237.443C472.775 235.894 472.222 235.119 471.115 235.119C470.581 235.119 470.142 235.324 469.797 235.734C469.452 236.145 469.279 236.665 469.279 237.297V243H466.193V233H469.279V234.582H469.318C470.054 233.365 471.125 232.756 472.531 232.756C474.745 232.756 475.852 234.13 475.852 236.877V243Z" fill="#253E90"/>
</g>
<defs>
<filter id="filter0_d_642_7582" x="300.054" y="104.029" width="238.422" height="238.36" filterUnits="userSpaceOnUse" color-interpolation-filters="sRGB">
<feFlood flood-opacity="0" result="BackgroundImageFix"/>
<feColorMatrix in="SourceAlpha" type="matrix" values="0 0 0 0 0 0 0 0 0 0 0 0 0 0 0 0 0 0 127 0" result="hardAlpha"/>
<feOffset/>
<feGaussianBlur stdDeviation="6.97"/>
<feColorMatrix type="matrix" values="0 0 0 0 0.698039 0 0 0 0 0.698039 0 0 0 0 0.698039 0 0 0 0.75 0"/>
<feBlend mode="normal" in2="BackgroundImageFix" result="effect1_dropShadow_642_7582"/>
<feBlend mode="normal" in="SourceGraphic" in2="effect1_dropShadow_642_7582" result="shape"/>
</filter>
<filter id="filter1_d_642_7582" x="39.1968" y="40.0734" width="486.34" height="421.262" filterUnits="userSpaceOnUse" color-interpolation-filters="sRGB">
<feFlood flood-opacity="0" result="BackgroundImageFix"/>
<feColorMatrix in="SourceAlpha" type="matrix" values="0 0 0 0 0 0 0 0 0 0 0 0 0 0 0 0 0 0 127 0" result="hardAlpha"/>
<feOffset dx="10.5" dy="10.5"/>
<feGaussianBlur stdDeviation="5.25"/>
<feColorMatrix type="matrix" values="0 0 0 0 0.682353 0 0 0 0 0.807843 0 0 0 0 0.807843 0 0 0 0.75 0"/>
<feBlend mode="normal" in2="BackgroundImageFix" result="effect1_dropShadow_642_7582"/>
<feBlend mode="normal" in="SourceGraphic" in2="effect1_dropShadow_642_7582" result="shape"/>
</filter>
<filter id="filter2_d_642_7582" x="68.2609" y="264.605" width="178.126" height="178.08" filterUnits="userSpaceOnUse" color-interpolation-filters="sRGB">
<feFlood flood-opacity="0" result="BackgroundImageFix"/>
<feColorMatrix in="SourceAlpha" type="matrix" values="0 0 0 0 0 0 0 0 0 0 0 0 0 0 0 0 0 0 127 0" result="hardAlpha"/>
<feOffset/>
<feGaussianBlur stdDeviation="5.21"/>
<feColorMatrix type="matrix" values="0 0 0 0 0.698039 0 0 0 0 0.698039 0 0 0 0 0.698039 0 0 0 0.75 0"/>
<feBlend mode="normal" in2="BackgroundImageFix" result="effect1_dropShadow_642_7582"/>
<feBlend mode="normal" in="SourceGraphic" in2="effect1_dropShadow_642_7582" result="shape"/>
</filter>
<filter id="filter3_d_642_7582" x="72.2466" y="268.59" width="170.154" height="170.11" filterUnits="userSpaceOnUse" color-interpolation-filters="sRGB">
<feFlood flood-opacity="0" result="BackgroundImageFix"/>
<feColorMatrix in="SourceAlpha" type="matrix" values="0 0 0 0 0 0 0 0 0 0 0 0 0 0 0 0 0 0 127 0" result="hardAlpha"/>
<feOffset/>
<feGaussianBlur stdDeviation="4.88"/>
<feColorMatrix type="matrix" values="0 0 0 0 0.698039 0 0 0 0 0.698039 0 0 0 0 0.698039 0 0 0 0.75 0"/>
<feBlend mode="normal" in2="BackgroundImageFix" result="effect1_dropShadow_642_7582"/>
<feBlend mode="normal" in="SourceGraphic" in2="effect1_dropShadow_642_7582" result="shape"/>
</filter>
<filter id="filter4_d_642_7582" x="39.8903" y="40.75" width="152.058" height="152.02" filterUnits="userSpaceOnUse" color-interpolation-filters="sRGB">
<feFlood flood-opacity="0" result="BackgroundImageFix"/>
<feColorMatrix in="SourceAlpha" type="matrix" values="0 0 0 0 0 0 0 0 0 0 0 0 0 0 0 0 0 0 127 0" result="hardAlpha"/>
<feOffset/>
<feGaussianBlur stdDeviation="5.31"/>
<feColorMatrix type="matrix" values="0 0 0 0 0.698039 0 0 0 0 0.698039 0 0 0 0 0.698039 0 0 0 0.75 0"/>
<feBlend mode="normal" in2="BackgroundImageFix" result="effect1_dropShadow_642_7582"/>
<feBlend mode="normal" in="SourceGraphic" in2="effect1_dropShadow_642_7582" result="shape"/>
</filter>
<filter id="filter5_d_642_7582" x="329.17" y="133.135" width="180.195" height="180.15" filterUnits="userSpaceOnUse" color-interpolation-filters="sRGB">
<feFlood flood-opacity="0" result="BackgroundImageFix"/>
<feColorMatrix in="SourceAlpha" type="matrix" values="0 0 0 0 0 0 0 0 0 0 0 0 0 0 0 0 0 0 127 0" result="hardAlpha"/>
<feOffset/>
<feGaussianBlur stdDeviation="5.11"/>
<feColorMatrix type="matrix" values="0 0 0 0 0.698039 0 0 0 0 0.698039 0 0 0 0 0.698039 0 0 0 0.75 0"/>
<feBlend mode="normal" in2="BackgroundImageFix" result="effect1_dropShadow_642_7582"/>
<feBlend mode="normal" in="SourceGraphic" in2="effect1_dropShadow_642_7582" result="shape"/>
</filter>
<filter id="filter6_d_642_7582" x="48.0183" y="311.275" width="194.519" height="151.64" filterUnits="userSpaceOnUse" color-interpolation-filters="sRGB">
<feFlood flood-opacity="0" result="BackgroundImageFix"/>
<feColorMatrix in="SourceAlpha" type="matrix" values="0 0 0 0 0 0 0 0 0 0 0 0 0 0 0 0 0 0 127 0" result="hardAlpha"/>
<feOffset/>
<feGaussianBlur stdDeviation="6.36"/>
<feColorMatrix type="matrix" values="0 0 0 0 0.698039 0 0 0 0 0.698039 0 0 0 0 0.698039 0 0 0 0.75 0"/>
<feBlend mode="normal" in2="BackgroundImageFix" result="effect1_dropShadow_642_7582"/>
<feBlend mode="normal" in="SourceGraphic" in2="effect1_dropShadow_642_7582" result="shape"/>
</filter>
<filter id="filter7_d_642_7582" x="7.59723" y="8.47503" width="123.897" height="193.43" filterUnits="userSpaceOnUse" color-interpolation-filters="sRGB">
<feFlood flood-opacity="0" result="BackgroundImageFix"/>
<feColorMatrix in="SourceAlpha" type="matrix" values="0 0 0 0 0 0 0 0 0 0 0 0 0 0 0 0 0 0 127 0" result="hardAlpha"/>
<feOffset/>
<feGaussianBlur stdDeviation="7.53"/>
<feColorMatrix type="matrix" values="0 0 0 0 0.698039 0 0 0 0 0.698039 0 0 0 0 0.698039 0 0 0 0.75 0"/>
<feBlend mode="normal" in2="BackgroundImageFix" result="effect1_dropShadow_642_7582"/>
<feBlend mode="normal" in="SourceGraphic" in2="effect1_dropShadow_642_7582" result="shape"/>
</filter>
<filter id="filter8_d_642_7582" x="183.828" y="101.175" width="40.4027" height="71.5502" filterUnits="userSpaceOnUse" color-interpolation-filters="sRGB">
<feFlood flood-opacity="0" result="BackgroundImageFix"/>
<feColorMatrix in="SourceAlpha" type="matrix" values="0 0 0 0 0 0 0 0 0 0 0 0 0 0 0 0 0 0 127 0" result="hardAlpha"/>
<feOffset/>
<feGaussianBlur stdDeviation="7.53"/>
<feColorMatrix type="matrix" values="0 0 0 0 0.698039 0 0 0 0 0.698039 0 0 0 0 0.698039 0 0 0 0.75 0"/>
<feBlend mode="normal" in2="BackgroundImageFix" result="effect1_dropShadow_642_7582"/>
<feBlend mode="normal" in="SourceGraphic" in2="effect1_dropShadow_642_7582" result="shape"/>
</filter>
<filter id="filter9_d_642_7582" x="91.1912" y="176.935" width="93.7584" height="48.11" filterUnits="userSpaceOnUse" color-interpolation-filters="sRGB">
<feFlood flood-opacity="0" result="BackgroundImageFix"/>
<feColorMatrix in="SourceAlpha" type="matrix" values="0 0 0 0 0 0 0 0 0 0 0 0 0 0 0 0 0 0 127 0" result="hardAlpha"/>
<feOffset/>
<feGaussianBlur stdDeviation="7.53"/>
<feColorMatrix type="matrix" values="0 0 0 0 0.698039 0 0 0 0 0.698039 0 0 0 0 0.698039 0 0 0 0.75 0"/>
<feBlend mode="normal" in2="BackgroundImageFix" result="effect1_dropShadow_642_7582"/>
<feBlend mode="normal" in="SourceGraphic" in2="effect1_dropShadow_642_7582" result="shape"/>
</filter>
<filter id="filter10_d_642_7582" x="293.07" y="231.235" width="71.1419" height="95.9102" filterUnits="userSpaceOnUse" color-interpolation-filters="sRGB">
<feFlood flood-opacity="0" result="BackgroundImageFix"/>
<feColorMatrix in="SourceAlpha" type="matrix" values="0 0 0 0 0 0 0 0 0 0 0 0 0 0 0 0 0 0 127 0" result="hardAlpha"/>
<feOffset/>
<feGaussianBlur stdDeviation="7.49"/>
<feColorMatrix type="matrix" values="0 0 0 0 0.698039 0 0 0 0 0.698039 0 0 0 0 0.698039 0 0 0 0.75 0"/>
<feBlend mode="normal" in2="BackgroundImageFix" result="effect1_dropShadow_642_7582"/>
<feBlend mode="normal" in="SourceGraphic" in2="effect1_dropShadow_642_7582" result="shape"/>
</filter>
<filter id="filter11_d_642_7582" x="383.877" y="94.5851" width="164.049" height="257.25" filterUnits="userSpaceOnUse" color-interpolation-filters="sRGB">
<feFlood flood-opacity="0" result="BackgroundImageFix"/>
<feColorMatrix in="SourceAlpha" type="matrix" values="0 0 0 0 0 0 0 0 0 0 0 0 0 0 0 0 0 0 127 0" result="hardAlpha"/>
<feOffset/>
<feGaussianBlur stdDeviation="7.49"/>
<feColorMatrix type="matrix" values="0 0 0 0 0.698039 0 0 0 0 0.698039 0 0 0 0 0.698039 0 0 0 0.75 0"/>
<feBlend mode="normal" in2="BackgroundImageFix" result="effect1_dropShadow_642_7582"/>
<feBlend mode="normal" in="SourceGraphic" in2="effect1_dropShadow_642_7582" result="shape"/>
</filter>
<linearGradient id="paint0_linear_642_7582" x1="379.106" y1="322" x2="474.273" y2="94.0159" gradientUnits="userSpaceOnUse">
<stop stop-color="#2BAAE2"/>
<stop offset="1" stop-color="#253E90"/>
</linearGradient>
<linearGradient id="paint1_linear_642_7582" x1="59.2329" y1="60.51" x2="383.083" y2="384.455" gradientUnits="userSpaceOnUse">
<stop stop-color="white"/>
<stop offset="1" stop-color="#E6E7E8"/>
</linearGradient>
<linearGradient id="paint2_linear_642_7582" x1="58.2426" y1="59.5201" x2="503.963" y2="505.37" gradientUnits="userSpaceOnUse">
<stop stop-color="white"/>
<stop offset="1" stop-color="#E6E7E8"/>
</linearGradient>
<linearGradient id="paint3_linear_642_7582" x1="105.246" y1="405.708" x2="142.25" y2="262.483" gradientUnits="userSpaceOnUse">
<stop stop-color="#2BAAE2"/>
<stop offset="1" stop-color="#253E90"/>
</linearGradient>
<linearGradient id="paint4_linear_642_7582" x1="210.577" y1="406.889" x2="104.097" y2="300.368" gradientUnits="userSpaceOnUse">
<stop stop-color="white"/>
<stop offset="1" stop-color="#E6E7E8"/>
</linearGradient>
<linearGradient id="paint5_linear_642_7582" x1="54.6632" y1="116.76" x2="160.676" y2="54.2713" gradientUnits="userSpaceOnUse">
<stop stop-color="#2BAAE2"/>
<stop offset="1" stop-color="#253E90"/>
</linearGradient>
<linearGradient id="paint6_linear_642_7582" x1="346.92" y1="223.21" x2="472.129" y2="149.407" gradientUnits="userSpaceOnUse">
<stop stop-color="#2BAAE2"/>
<stop offset="1" stop-color="#253E90"/>
</linearGradient>
<linearGradient id="paint7_linear_642_7582" x1="60.743" y1="387.1" x2="229.822" y2="387.1" gradientUnits="userSpaceOnUse">
<stop stop-color="#808285"/>
<stop offset="1" stop-color="#58595B"/>
</linearGradient>
<linearGradient id="paint8_linear_642_7582" x1="62.6536" y1="324.53" x2="68.6953" y2="324.53" gradientUnits="userSpaceOnUse">
<stop stop-color="#808285"/>
<stop offset="1" stop-color="#58595B"/>
</linearGradient>
<linearGradient id="paint9_linear_642_7582" x1="22.662" y1="105.19" x2="116.449" y2="105.19" gradientUnits="userSpaceOnUse">
<stop stop-color="#808285"/>
<stop offset="1" stop-color="#58595B"/>
</linearGradient>
<linearGradient id="paint10_linear_642_7582" x1="198.883" y1="136.95" x2="209.176" y2="136.95" gradientUnits="userSpaceOnUse">
<stop stop-color="#808285"/>
<stop offset="1" stop-color="#58595B"/>
</linearGradient>
<linearGradient id="paint11_linear_642_7582" x1="106.256" y1="200.99" x2="169.895" y2="200.99" gradientUnits="userSpaceOnUse">
<stop stop-color="#808285"/>
<stop offset="1" stop-color="#58595B"/>
</linearGradient>
<linearGradient id="paint12_linear_642_7582" x1="112.898" y1="24.06" x2="118.94" y2="24.06" gradientUnits="userSpaceOnUse">
<stop stop-color="#808285"/>
<stop offset="1" stop-color="#58595B"/>
</linearGradient>
<linearGradient id="paint13_linear_642_7582" x1="205.625" y1="116.76" x2="211.667" y2="116.76" gradientUnits="userSpaceOnUse">
<stop stop-color="#808285"/>
<stop offset="1" stop-color="#58595B"/>
</linearGradient>
<linearGradient id="paint14_linear_642_7582" x1="308.045" y1="279.19" x2="349.227" y2="279.19" gradientUnits="userSpaceOnUse">
<stop stop-color="#808285"/>
<stop offset="1" stop-color="#58595B"/>
</linearGradient>
<linearGradient id="paint15_linear_642_7582" x1="398.862" y1="223.21" x2="532.941" y2="223.21" gradientUnits="userSpaceOnUse">
<stop stop-color="#808285"/>
<stop offset="1" stop-color="#58595B"/>
</linearGradient>
<linearGradient id="paint16_linear_642_7582" x1="416.227" y1="336.32" x2="422.269" y2="336.32" gradientUnits="userSpaceOnUse">
<stop stop-color="#808285"/>
<stop offset="1" stop-color="#58595B"/>
</linearGradient>
<clipPath id="clip0_642_7582">
<rect width="556.12" height="470.51" fill="white"/>
</clipPath>
</defs>
</svg>
