<svg width="557" height="471" viewBox="0 0 557 471" fill="none" xmlns="http://www.w3.org/2000/svg">
<mask id="mask0_4_41" style="mask-type:luminance" maskUnits="userSpaceOnUse" x="0" y="0" width="557" height="471">
<path d="M556.12 0H0V470.51H556.12V0Z" fill="white"/>
</mask>
<g mask="url(#mask0_4_41)">
<g filter="url(#filter0_d_4_41)">
<path d="M493.702 297.625C534.813 256.527 534.813 189.892 493.702 148.794C452.592 107.695 385.938 107.695 344.827 148.794C303.716 189.892 303.716 256.527 344.827 297.625C385.938 338.724 452.592 338.724 493.702 297.625Z" fill="url(#paint0_linear_4_41)"/>
</g>
<path d="M418.948 137.92C380.316 138.06 347.747 163.88 337.394 199.19C334.693 208.4 326.361 214.8 316.758 214.8H316.698C304.504 214.8 293.331 208.25 287.099 197.77C278.847 183.88 264.063 174.24 247.078 173.23C237.975 172.69 229.352 174.58 221.81 178.32C213.248 182.57 202.895 180.69 196.133 173.94L195.723 173.53C187.34 165.15 184.699 152.75 188.531 141.53C191.591 132.57 193.032 122.85 192.522 112.74C190.571 74.58 156.821 41.44 118.62 40.12C74.1772 38.59 37.8166 74.87 39.237 119.28C40.4774 158.16 74.3673 192.1 113.249 193.41C128.813 193.94 143.387 189.82 155.681 182.35C165.154 176.59 177.187 177.26 185.71 184.34L186.31 184.84C194.112 191.33 197.643 201.68 195.283 211.55C194.142 216.32 193.682 221.35 194.022 226.54C194.722 237.37 198.934 247.32 205.536 255.23C208.897 259.25 208.907 265.1 205.606 269.17L205.135 269.75C201.554 274.17 195.503 275.63 190.241 273.47C179.718 269.14 168.155 266.82 156.021 267C108.617 267.68 70.2461 306.92 70.5862 354.31C70.9363 402.43 110.518 441.23 158.942 440.32C205.235 439.46 243.026 401.74 243.967 355.46C244.477 330.45 234.374 307.81 217.869 291.69C213.788 287.7 212.708 281.57 215.358 276.51L215.498 276.25C217.989 271.5 223.531 269.24 228.642 270.89C232.093 272 235.704 272.75 239.425 273.08C259.641 274.87 277.647 264.64 287.079 248.73C293.321 238.22 304.494 231.62 316.728 231.62C326.351 231.62 334.673 238.06 337.374 247.29C347.767 282.67 380.477 308.51 419.228 308.51C467.032 308.51 505.643 269.21 504.513 221.17C503.422 175.02 465.081 137.78 418.908 137.95L418.948 137.92Z" stroke="url(#paint1_linear_4_41)" stroke-width="6.3" stroke-miterlimit="10"/>
<g filter="url(#filter1_d_4_41)">
<path d="M418.948 137.92C380.316 138.06 347.747 163.88 337.394 199.19C334.693 208.4 326.361 214.8 316.758 214.8H316.698C304.504 214.8 293.331 208.25 287.099 197.77C278.847 183.88 264.063 174.24 247.078 173.23C237.975 172.69 229.352 174.58 221.81 178.32C213.248 182.57 202.895 180.69 196.133 173.94L195.723 173.53C187.34 165.15 184.699 152.75 188.531 141.53C191.591 132.57 193.032 122.85 192.522 112.74C190.571 74.58 156.821 41.44 118.62 40.12C74.1772 38.59 37.8166 74.87 39.237 119.28C40.4774 158.16 74.3673 192.1 113.249 193.41C128.813 193.94 143.387 189.82 155.681 182.35C165.154 176.59 177.187 177.26 185.71 184.34L186.31 184.84C194.112 191.33 197.643 201.68 195.283 211.55C194.142 216.32 193.682 221.35 194.022 226.54C194.722 237.37 198.934 247.32 205.536 255.23C208.896 259.25 208.907 265.1 205.606 269.17L205.135 269.75C201.554 274.17 195.503 275.63 190.241 273.47C179.718 269.14 168.155 266.82 156.021 267C108.617 267.68 70.2461 306.92 70.5862 354.31C70.9363 402.43 110.518 441.23 158.942 440.32C205.235 439.46 243.026 401.74 243.967 355.46C244.477 330.45 234.374 307.81 217.869 291.69C213.788 287.7 212.708 281.57 215.358 276.51L215.498 276.25C217.989 271.5 223.531 269.24 228.642 270.89C232.093 272 235.704 272.75 239.425 273.08C259.641 274.87 277.647 264.64 287.079 248.73C293.321 238.22 304.494 231.62 316.728 231.62C326.351 231.62 334.673 238.06 337.374 247.29C347.767 282.67 380.477 308.51 419.228 308.51C467.032 308.51 505.643 269.21 504.513 221.17C503.422 175.02 465.081 137.78 418.908 137.95L418.948 137.92Z" fill="url(#paint2_linear_4_41)"/>
</g>
<g filter="url(#filter2_d_4_41)">
<path d="M212.933 409.237C243.645 378.534 243.645 328.755 212.933 298.052C182.221 267.349 132.427 267.349 101.715 298.052C71.0029 328.755 71.0029 378.534 101.715 409.237C132.427 439.94 182.221 439.94 212.933 409.237Z" fill="url(#paint3_linear_4_41)"/>
</g>
<g filter="url(#filter3_d_4_41)">
<path d="M209.466 405.772C238.264 376.983 238.264 330.306 209.466 301.517C180.669 272.727 133.978 272.727 105.18 301.517C76.3824 330.306 76.3824 376.983 105.18 405.772C133.978 434.562 180.669 434.562 209.466 405.772Z" stroke="url(#paint4_linear_4_41)" stroke-width="3.15" stroke-miterlimit="10"/>
</g>
<g filter="url(#filter4_d_4_41)">
<path d="M115.919 182.15C152.044 182.15 181.328 152.874 181.328 116.76C181.328 80.6461 152.044 51.37 115.919 51.37C79.7949 51.37 50.5103 80.6461 50.5103 116.76C50.5103 152.874 79.7949 182.15 115.919 182.15Z" fill="url(#paint5_linear_4_41)"/>
</g>
<g filter="url(#filter5_d_4_41)">
<path d="M419.268 300.44C461.933 300.44 496.52 265.863 496.52 223.21C496.52 180.557 461.933 145.98 419.268 145.98C376.602 145.98 342.015 180.557 342.015 223.21C342.015 265.863 376.602 300.44 419.268 300.44Z" stroke="url(#paint6_linear_4_41)" stroke-width="5.25" stroke-miterlimit="10"/>
</g>
<g filter="url(#filter6_d_4_41)">
<path d="M229.292 417.24C211.697 437.13 185.97 449.67 157.321 449.67C104.276 449.67 61.2632 406.68 61.2632 353.64C61.2632 343.49 62.8336 333.71 65.7545 324.52" stroke="url(#paint7_linear_4_41)" stroke-width="1.05" stroke-miterlimit="10" stroke-linecap="round"/>
</g>
<path d="M65.6744 327.55C67.3428 327.55 68.6953 326.198 68.6953 324.53C68.6953 322.862 67.3428 321.51 65.6744 321.51C64.0061 321.51 62.6536 322.862 62.6536 324.53C62.6536 326.198 64.0061 327.55 65.6744 327.55Z" fill="url(#paint8_linear_4_41)"/>
<g filter="url(#filter7_d_4_41)">
<path d="M54.6213 186.32C35.3457 169.33 23.1821 144.46 23.1821 116.76C23.1821 65.5601 64.6942 24.0601 115.909 24.0601" stroke="url(#paint9_linear_4_41)" stroke-width="1.05" stroke-miterlimit="10" stroke-linecap="round"/>
</g>
<g filter="url(#filter8_d_4_41)">
<path d="M208.646 116.76C208.646 131.24 205.325 144.94 199.413 157.14" stroke="url(#paint10_linear_4_41)" stroke-width="1.05" stroke-miterlimit="10" stroke-linecap="round"/>
</g>
<g filter="url(#filter9_d_4_41)">
<path d="M169.365 192.52C154.26 203.19 135.815 209.46 115.919 209.46C112.838 209.46 109.787 209.31 106.776 209.02" stroke="url(#paint11_linear_4_41)" stroke-width="1.05" stroke-miterlimit="10" stroke-linecap="round"/>
</g>
<path d="M115.919 27.08C117.587 27.08 118.94 25.7279 118.94 24.06C118.94 22.3921 117.587 21.04 115.919 21.04C114.251 21.04 112.898 22.3921 112.898 24.06C112.898 25.7279 114.251 27.08 115.919 27.08Z" fill="url(#paint12_linear_4_41)"/>
<path d="M211.667 116.76C211.667 118.43 210.317 119.78 208.646 119.78C206.976 119.78 205.625 118.43 205.625 116.76C205.625 115.09 206.976 113.74 208.646 113.74C210.317 113.74 211.667 115.09 211.667 116.76Z" fill="url(#paint13_linear_4_41)"/>
<g filter="url(#filter10_d_4_41)">
<path d="M348.707 311.64C328.601 295.59 314.097 272.82 308.575 246.74" stroke="url(#paint14_linear_4_41)" stroke-width="1.05" stroke-miterlimit="10" stroke-linecap="round"/>
</g>
<g filter="url(#filter11_d_4_41)">
<path d="M399.382 111.83C405.834 110.69 412.476 110.09 419.268 110.09C481.756 110.09 532.421 160.73 532.421 223.21C532.421 285.69 481.766 336.33 419.268 336.33" stroke="url(#paint15_linear_4_41)" stroke-width="1.05" stroke-miterlimit="10" stroke-linecap="round"/>
</g>
<path d="M422.269 336.32C422.269 337.99 420.918 339.34 419.248 339.34C417.577 339.34 416.227 337.99 416.227 336.32C416.227 334.65 417.577 333.3 419.248 333.3C420.918 333.3 422.269 334.65 422.269 336.32Z" fill="url(#paint16_linear_4_41)"/>
</g>
<defs>
<filter id="filter0_d_4_41" x="300.054" y="104.03" width="238.422" height="238.359" filterUnits="userSpaceOnUse" color-interpolation-filters="sRGB">
<feFlood flood-opacity="0" result="BackgroundImageFix"/>
<feColorMatrix in="SourceAlpha" type="matrix" values="0 0 0 0 0 0 0 0 0 0 0 0 0 0 0 0 0 0 127 0" result="hardAlpha"/>
<feOffset/>
<feGaussianBlur stdDeviation="6.97"/>
<feColorMatrix type="matrix" values="0 0 0 0 0.698039 0 0 0 0 0.698039 0 0 0 0 0.698039 0 0 0 0.75 0"/>
<feBlend mode="normal" in2="BackgroundImageFix" result="effect1_dropShadow_4_41"/>
<feBlend mode="normal" in="SourceGraphic" in2="effect1_dropShadow_4_41" result="shape"/>
</filter>
<filter id="filter1_d_4_41" x="39.1967" y="40.0733" width="486.34" height="421.262" filterUnits="userSpaceOnUse" color-interpolation-filters="sRGB">
<feFlood flood-opacity="0" result="BackgroundImageFix"/>
<feColorMatrix in="SourceAlpha" type="matrix" values="0 0 0 0 0 0 0 0 0 0 0 0 0 0 0 0 0 0 127 0" result="hardAlpha"/>
<feOffset dx="10.5" dy="10.5"/>
<feGaussianBlur stdDeviation="5.25"/>
<feColorMatrix type="matrix" values="0 0 0 0 0.682353 0 0 0 0 0.807843 0 0 0 0 0.807843 0 0 0 0.75 0"/>
<feBlend mode="normal" in2="BackgroundImageFix" result="effect1_dropShadow_4_41"/>
<feBlend mode="normal" in="SourceGraphic" in2="effect1_dropShadow_4_41" result="shape"/>
</filter>
<filter id="filter2_d_4_41" x="68.2609" y="264.605" width="178.126" height="178.08" filterUnits="userSpaceOnUse" color-interpolation-filters="sRGB">
<feFlood flood-opacity="0" result="BackgroundImageFix"/>
<feColorMatrix in="SourceAlpha" type="matrix" values="0 0 0 0 0 0 0 0 0 0 0 0 0 0 0 0 0 0 127 0" result="hardAlpha"/>
<feOffset/>
<feGaussianBlur stdDeviation="5.21"/>
<feColorMatrix type="matrix" values="0 0 0 0 0.698039 0 0 0 0 0.698039 0 0 0 0 0.698039 0 0 0 0.75 0"/>
<feBlend mode="normal" in2="BackgroundImageFix" result="effect1_dropShadow_4_41"/>
<feBlend mode="normal" in="SourceGraphic" in2="effect1_dropShadow_4_41" result="shape"/>
</filter>
<filter id="filter3_d_4_41" x="72.2468" y="268.589" width="170.153" height="170.11" filterUnits="userSpaceOnUse" color-interpolation-filters="sRGB">
<feFlood flood-opacity="0" result="BackgroundImageFix"/>
<feColorMatrix in="SourceAlpha" type="matrix" values="0 0 0 0 0 0 0 0 0 0 0 0 0 0 0 0 0 0 127 0" result="hardAlpha"/>
<feOffset/>
<feGaussianBlur stdDeviation="4.88"/>
<feColorMatrix type="matrix" values="0 0 0 0 0.698039 0 0 0 0 0.698039 0 0 0 0 0.698039 0 0 0 0.75 0"/>
<feBlend mode="normal" in2="BackgroundImageFix" result="effect1_dropShadow_4_41"/>
<feBlend mode="normal" in="SourceGraphic" in2="effect1_dropShadow_4_41" result="shape"/>
</filter>
<filter id="filter4_d_4_41" x="39.8903" y="40.75" width="152.058" height="152.02" filterUnits="userSpaceOnUse" color-interpolation-filters="sRGB">
<feFlood flood-opacity="0" result="BackgroundImageFix"/>
<feColorMatrix in="SourceAlpha" type="matrix" values="0 0 0 0 0 0 0 0 0 0 0 0 0 0 0 0 0 0 127 0" result="hardAlpha"/>
<feOffset/>
<feGaussianBlur stdDeviation="5.31"/>
<feColorMatrix type="matrix" values="0 0 0 0 0.698039 0 0 0 0 0.698039 0 0 0 0 0.698039 0 0 0 0.75 0"/>
<feBlend mode="normal" in2="BackgroundImageFix" result="effect1_dropShadow_4_41"/>
<feBlend mode="normal" in="SourceGraphic" in2="effect1_dropShadow_4_41" result="shape"/>
</filter>
<filter id="filter5_d_4_41" x="329.17" y="133.135" width="180.195" height="180.15" filterUnits="userSpaceOnUse" color-interpolation-filters="sRGB">
<feFlood flood-opacity="0" result="BackgroundImageFix"/>
<feColorMatrix in="SourceAlpha" type="matrix" values="0 0 0 0 0 0 0 0 0 0 0 0 0 0 0 0 0 0 127 0" result="hardAlpha"/>
<feOffset/>
<feGaussianBlur stdDeviation="5.11"/>
<feColorMatrix type="matrix" values="0 0 0 0 0.698039 0 0 0 0 0.698039 0 0 0 0 0.698039 0 0 0 0.75 0"/>
<feBlend mode="normal" in2="BackgroundImageFix" result="effect1_dropShadow_4_41"/>
<feBlend mode="normal" in="SourceGraphic" in2="effect1_dropShadow_4_41" result="shape"/>
</filter>
<filter id="filter6_d_4_41" x="48.0182" y="311.275" width="194.519" height="151.64" filterUnits="userSpaceOnUse" color-interpolation-filters="sRGB">
<feFlood flood-opacity="0" result="BackgroundImageFix"/>
<feColorMatrix in="SourceAlpha" type="matrix" values="0 0 0 0 0 0 0 0 0 0 0 0 0 0 0 0 0 0 127 0" result="hardAlpha"/>
<feOffset/>
<feGaussianBlur stdDeviation="6.36"/>
<feColorMatrix type="matrix" values="0 0 0 0 0.698039 0 0 0 0 0.698039 0 0 0 0 0.698039 0 0 0 0.75 0"/>
<feBlend mode="normal" in2="BackgroundImageFix" result="effect1_dropShadow_4_41"/>
<feBlend mode="normal" in="SourceGraphic" in2="effect1_dropShadow_4_41" result="shape"/>
</filter>
<filter id="filter7_d_4_41" x="7.5971" y="8.47503" width="123.897" height="193.43" filterUnits="userSpaceOnUse" color-interpolation-filters="sRGB">
<feFlood flood-opacity="0" result="BackgroundImageFix"/>
<feColorMatrix in="SourceAlpha" type="matrix" values="0 0 0 0 0 0 0 0 0 0 0 0 0 0 0 0 0 0 127 0" result="hardAlpha"/>
<feOffset/>
<feGaussianBlur stdDeviation="7.53"/>
<feColorMatrix type="matrix" values="0 0 0 0 0.698039 0 0 0 0 0.698039 0 0 0 0 0.698039 0 0 0 0.75 0"/>
<feBlend mode="normal" in2="BackgroundImageFix" result="effect1_dropShadow_4_41"/>
<feBlend mode="normal" in="SourceGraphic" in2="effect1_dropShadow_4_41" result="shape"/>
</filter>
<filter id="filter8_d_4_41" x="183.828" y="101.175" width="40.4031" height="71.5501" filterUnits="userSpaceOnUse" color-interpolation-filters="sRGB">
<feFlood flood-opacity="0" result="BackgroundImageFix"/>
<feColorMatrix in="SourceAlpha" type="matrix" values="0 0 0 0 0 0 0 0 0 0 0 0 0 0 0 0 0 0 127 0" result="hardAlpha"/>
<feOffset/>
<feGaussianBlur stdDeviation="7.53"/>
<feColorMatrix type="matrix" values="0 0 0 0 0.698039 0 0 0 0 0.698039 0 0 0 0 0.698039 0 0 0 0.75 0"/>
<feBlend mode="normal" in2="BackgroundImageFix" result="effect1_dropShadow_4_41"/>
<feBlend mode="normal" in="SourceGraphic" in2="effect1_dropShadow_4_41" result="shape"/>
</filter>
<filter id="filter9_d_4_41" x="91.191" y="176.935" width="93.7591" height="48.1101" filterUnits="userSpaceOnUse" color-interpolation-filters="sRGB">
<feFlood flood-opacity="0" result="BackgroundImageFix"/>
<feColorMatrix in="SourceAlpha" type="matrix" values="0 0 0 0 0 0 0 0 0 0 0 0 0 0 0 0 0 0 127 0" result="hardAlpha"/>
<feOffset/>
<feGaussianBlur stdDeviation="7.53"/>
<feColorMatrix type="matrix" values="0 0 0 0 0.698039 0 0 0 0 0.698039 0 0 0 0 0.698039 0 0 0 0.75 0"/>
<feBlend mode="normal" in2="BackgroundImageFix" result="effect1_dropShadow_4_41"/>
<feBlend mode="normal" in="SourceGraphic" in2="effect1_dropShadow_4_41" result="shape"/>
</filter>
<filter id="filter10_d_4_41" x="293.07" y="231.235" width="71.1421" height="95.9101" filterUnits="userSpaceOnUse" color-interpolation-filters="sRGB">
<feFlood flood-opacity="0" result="BackgroundImageFix"/>
<feColorMatrix in="SourceAlpha" type="matrix" values="0 0 0 0 0 0 0 0 0 0 0 0 0 0 0 0 0 0 127 0" result="hardAlpha"/>
<feOffset/>
<feGaussianBlur stdDeviation="7.49"/>
<feColorMatrix type="matrix" values="0 0 0 0 0.698039 0 0 0 0 0.698039 0 0 0 0 0.698039 0 0 0 0.75 0"/>
<feBlend mode="normal" in2="BackgroundImageFix" result="effect1_dropShadow_4_41"/>
<feBlend mode="normal" in="SourceGraphic" in2="effect1_dropShadow_4_41" result="shape"/>
</filter>
<filter id="filter11_d_4_41" x="383.877" y="94.5849" width="164.049" height="257.25" filterUnits="userSpaceOnUse" color-interpolation-filters="sRGB">
<feFlood flood-opacity="0" result="BackgroundImageFix"/>
<feColorMatrix in="SourceAlpha" type="matrix" values="0 0 0 0 0 0 0 0 0 0 0 0 0 0 0 0 0 0 127 0" result="hardAlpha"/>
<feOffset/>
<feGaussianBlur stdDeviation="7.49"/>
<feColorMatrix type="matrix" values="0 0 0 0 0.698039 0 0 0 0 0.698039 0 0 0 0 0.698039 0 0 0 0.75 0"/>
<feBlend mode="normal" in2="BackgroundImageFix" result="effect1_dropShadow_4_41"/>
<feBlend mode="normal" in="SourceGraphic" in2="effect1_dropShadow_4_41" result="shape"/>
</filter>
<linearGradient id="paint0_linear_4_41" x1="379.106" y1="322" x2="474.273" y2="94.0159" gradientUnits="userSpaceOnUse">
<stop stop-color="#2BAAE2"/>
<stop offset="1" stop-color="#253E90"/>
</linearGradient>
<linearGradient id="paint1_linear_4_41" x1="59.2329" y1="60.51" x2="383.083" y2="384.455" gradientUnits="userSpaceOnUse">
<stop stop-color="white"/>
<stop offset="1" stop-color="#E6E7E8"/>
</linearGradient>
<linearGradient id="paint2_linear_4_41" x1="58.2426" y1="59.5201" x2="503.963" y2="505.37" gradientUnits="userSpaceOnUse">
<stop stop-color="white"/>
<stop offset="1" stop-color="#E6E7E8"/>
</linearGradient>
<linearGradient id="paint3_linear_4_41" x1="105.246" y1="405.708" x2="142.25" y2="262.483" gradientUnits="userSpaceOnUse">
<stop stop-color="#2BAAE2"/>
<stop offset="1" stop-color="#253E90"/>
</linearGradient>
<linearGradient id="paint4_linear_4_41" x1="210.577" y1="406.889" x2="104.097" y2="300.368" gradientUnits="userSpaceOnUse">
<stop stop-color="white"/>
<stop offset="1" stop-color="#E6E7E8"/>
</linearGradient>
<linearGradient id="paint5_linear_4_41" x1="54.6632" y1="116.76" x2="160.676" y2="54.2713" gradientUnits="userSpaceOnUse">
<stop stop-color="#2BAAE2"/>
<stop offset="1" stop-color="#253E90"/>
</linearGradient>
<linearGradient id="paint6_linear_4_41" x1="346.92" y1="223.21" x2="472.129" y2="149.407" gradientUnits="userSpaceOnUse">
<stop stop-color="#2BAAE2"/>
<stop offset="1" stop-color="#253E90"/>
</linearGradient>
<linearGradient id="paint7_linear_4_41" x1="60.743" y1="387.1" x2="229.822" y2="387.1" gradientUnits="userSpaceOnUse">
<stop stop-color="#808285"/>
<stop offset="1" stop-color="#58595B"/>
</linearGradient>
<linearGradient id="paint8_linear_4_41" x1="62.6536" y1="324.53" x2="68.6953" y2="324.53" gradientUnits="userSpaceOnUse">
<stop stop-color="#808285"/>
<stop offset="1" stop-color="#58595B"/>
</linearGradient>
<linearGradient id="paint9_linear_4_41" x1="22.662" y1="105.19" x2="116.449" y2="105.19" gradientUnits="userSpaceOnUse">
<stop stop-color="#808285"/>
<stop offset="1" stop-color="#58595B"/>
</linearGradient>
<linearGradient id="paint10_linear_4_41" x1="198.883" y1="136.95" x2="209.176" y2="136.95" gradientUnits="userSpaceOnUse">
<stop stop-color="#808285"/>
<stop offset="1" stop-color="#58595B"/>
</linearGradient>
<linearGradient id="paint11_linear_4_41" x1="106.256" y1="200.99" x2="169.895" y2="200.99" gradientUnits="userSpaceOnUse">
<stop stop-color="#808285"/>
<stop offset="1" stop-color="#58595B"/>
</linearGradient>
<linearGradient id="paint12_linear_4_41" x1="112.898" y1="24.06" x2="118.94" y2="24.06" gradientUnits="userSpaceOnUse">
<stop stop-color="#808285"/>
<stop offset="1" stop-color="#58595B"/>
</linearGradient>
<linearGradient id="paint13_linear_4_41" x1="205.625" y1="116.76" x2="211.667" y2="116.76" gradientUnits="userSpaceOnUse">
<stop stop-color="#808285"/>
<stop offset="1" stop-color="#58595B"/>
</linearGradient>
<linearGradient id="paint14_linear_4_41" x1="308.045" y1="279.19" x2="349.227" y2="279.19" gradientUnits="userSpaceOnUse">
<stop stop-color="#808285"/>
<stop offset="1" stop-color="#58595B"/>
</linearGradient>
<linearGradient id="paint15_linear_4_41" x1="398.862" y1="223.21" x2="532.941" y2="223.21" gradientUnits="userSpaceOnUse">
<stop stop-color="#808285"/>
<stop offset="1" stop-color="#58595B"/>
</linearGradient>
<linearGradient id="paint16_linear_4_41" x1="416.227" y1="336.32" x2="422.269" y2="336.32" gradientUnits="userSpaceOnUse">
<stop stop-color="#808285"/>
<stop offset="1" stop-color="#58595B"/>
</linearGradient>
</defs>
</svg>
