<svg width="81" height="80" viewBox="0 0 81 80" fill="none" xmlns="http://www.w3.org/2000/svg">
<path d="M26.4876 62C26.3433 61.9999 26.2029 61.9531 26.0875 61.8664C25.9721 61.7797 25.8879 61.658 25.8476 61.5194C25.8074 61.3808 25.8131 61.2329 25.8641 61.0979C25.9151 60.9629 26.0084 60.848 26.1302 60.7706L41.7303 50.832L26.1769 59.8106C26.0252 59.9019 25.8435 59.9291 25.6717 59.8864C25.4999 59.8436 25.3521 59.7344 25.2609 59.5826C25.1697 59.4309 25.1424 59.2492 25.1852 59.0774C25.228 58.9056 25.3372 58.7579 25.4889 58.6666L36.8676 51.532L25.9342 57.8453C25.7837 57.931 25.6057 57.9547 25.4379 57.9115C25.2701 57.8682 25.1258 57.7613 25.0355 57.6134C24.9452 57.4656 24.916 57.2884 24.9541 57.1194C24.9922 56.9503 25.0946 56.8028 25.2396 56.708L45.5063 43.6293L25.1969 55.3626C25.045 55.4551 24.8626 55.4835 24.6899 55.4415C24.5171 55.3995 24.3681 55.2905 24.2756 55.1386C24.1831 54.9868 24.1548 54.8044 24.1968 54.6316C24.2388 54.4588 24.3477 54.3098 24.4996 54.2173L38.7343 45.2506L24.3169 53.576C24.1656 53.6633 23.986 53.6876 23.8168 53.6438C23.6477 53.6 23.5025 53.4916 23.4125 53.3418C23.3225 53.1921 23.2949 53.013 23.3356 52.843C23.3763 52.6731 23.4821 52.526 23.6302 52.4333L37.0969 43.9853L23.2502 51.9853C23.0997 52.071 22.9217 52.0947 22.7539 52.0515C22.5861 52.0082 22.4418 51.9013 22.3515 51.7534C22.2612 51.6056 22.232 51.4284 22.2701 51.2594C22.3082 51.0904 22.4106 50.9428 22.5556 50.848L43.8889 37.128L21.4676 50.0653C21.3162 50.1526 21.1366 50.177 20.9675 50.1332C20.7983 50.0894 20.6531 49.9809 20.5631 49.8312C20.4731 49.6814 20.4455 49.5023 20.4863 49.3324C20.527 49.1625 20.6328 49.0153 20.7809 48.9226L34.3983 40.4133L20.1076 48.6666C19.9557 48.7572 19.7741 48.7837 19.6027 48.7403C19.4313 48.6969 19.2841 48.5872 19.1936 48.4353C19.1031 48.2834 19.0766 48.1018 19.12 47.9304C19.1633 47.759 19.273 47.6118 19.4249 47.5213L23.0543 45.2973L19.1476 47.552C18.9964 47.6352 18.8189 47.6566 18.6523 47.6117C18.4857 47.5667 18.343 47.4589 18.2542 47.3109C18.1655 47.1629 18.1376 46.9863 18.1764 46.8182C18.2152 46.65 18.3176 46.5035 18.4623 46.4093L31.6756 38.18L18.0169 46.0613C17.8654 46.1451 17.6872 46.1666 17.52 46.1214C17.3529 46.0761 17.2099 45.9675 17.1214 45.8187C17.0329 45.6699 17.0057 45.4925 17.0457 45.324C17.0857 45.1555 17.1896 45.0092 17.3356 44.916L20.6036 42.916L17.2169 44.8693C17.0654 44.9531 16.8872 44.9746 16.72 44.9294C16.5529 44.8841 16.4099 44.7755 16.3214 44.6267C16.2329 44.4779 16.2057 44.3005 16.2457 44.132C16.2857 43.9635 16.3896 43.8172 16.5356 43.724L19.8209 41.7133L16.4796 43.6413C16.3292 43.724 16.1526 43.7456 15.9868 43.7014C15.8209 43.6572 15.6784 43.5507 15.5891 43.4042C15.4997 43.2576 15.4704 43.0822 15.5071 42.9145C15.5438 42.7468 15.6438 42.5998 15.7863 42.504L38.8996 27.6653L15.2876 41.2986C15.1355 41.389 14.9538 41.4152 14.7824 41.3716C14.611 41.328 14.4639 41.218 14.3736 41.066C14.2832 40.9139 14.257 40.7322 14.3006 40.5608C14.3443 40.3894 14.4542 40.2423 14.6063 40.152L15.8436 39.3973L14.7569 40.024C14.6055 40.1093 14.4267 40.1321 14.2587 40.0875C14.0907 40.0429 13.9467 39.9344 13.8575 39.7853C13.7683 39.6361 13.7409 39.4579 13.7811 39.2888C13.8214 39.1197 13.9261 38.973 14.0729 38.88L26.2849 31.28L14.1516 38.284C14.0005 38.3686 13.8225 38.3912 13.6551 38.3468C13.4877 38.3025 13.3441 38.1948 13.2548 38.0466C13.1654 37.8983 13.1372 37.721 13.1762 37.5523C13.2151 37.3836 13.3182 37.2367 13.4636 37.1426L30.7663 26.2186L13.5756 36.1413C13.4241 36.2266 13.2454 36.2494 13.0773 36.2048C12.9093 36.1602 12.7654 36.0518 12.6762 35.9026C12.587 35.7534 12.5596 35.5753 12.5998 35.4061C12.64 35.237 12.7447 35.0903 12.8916 34.9973L20.0169 30.5973L13.2503 34.504C13.0996 34.5845 12.9238 34.6041 12.7592 34.5588C12.5945 34.5135 12.4535 34.4067 12.3652 34.2605C12.277 34.1143 12.2482 33.9397 12.2849 33.7729C12.3215 33.6061 12.4208 33.4597 12.5623 33.364L27.2289 24.1173L12.9849 32.3333C12.8341 32.4162 12.6571 32.4376 12.4909 32.393C12.3248 32.3485 12.1822 32.2413 12.0932 32.0941C12.0042 31.9469 11.9755 31.7709 12.0132 31.603C12.0509 31.4351 12.1521 31.2883 12.2956 31.1933L26.0649 22.4906L12.8783 30.104C12.7281 30.1855 12.5523 30.2062 12.3873 30.1619C12.2223 30.1176 12.0806 30.0116 11.9915 29.8658C11.9023 29.7201 11.8726 29.5456 11.9083 29.3786C11.9441 29.2115 12.0426 29.0645 12.1836 28.968L29.7262 17.6133L13.0023 27.268C12.8511 27.3512 12.6736 27.3726 12.507 27.3277C12.3403 27.2827 12.1977 27.1749 12.1089 27.0269C12.0202 26.8789 11.9922 26.7023 12.031 26.5341C12.0698 26.366 12.1723 26.2194 12.3169 26.1253L13.8209 25.192L13.2116 25.5426C13.0618 25.6242 12.8864 25.6452 12.7215 25.6013C12.5567 25.5575 12.415 25.4521 12.3254 25.3069C12.2359 25.1617 12.2055 24.9877 12.2404 24.8208C12.2752 24.6538 12.3728 24.5065 12.5129 24.4093L27.3516 14.6893L13.8769 22.4693C13.7264 22.5568 13.5477 22.582 13.3789 22.5395C13.2101 22.497 13.0647 22.3901 12.9736 22.2418C12.8826 22.0934 12.8531 21.9153 12.8916 21.7456C12.9301 21.5758 13.0335 21.4279 13.1796 21.3333L23.8329 14.3746L14.8583 19.5573C14.7085 19.6441 14.5309 19.6692 14.363 19.6274C14.195 19.5857 14.0499 19.4802 13.9583 19.3334C13.8667 19.1865 13.8358 19.0098 13.8721 18.8406C13.9084 18.6714 14.0091 18.523 14.1529 18.4266L23.9289 11.8666L16.4809 16.1666C16.3307 16.252 16.1532 16.2758 15.9859 16.2329C15.8185 16.19 15.6743 16.0837 15.5838 15.9366C15.4932 15.7895 15.4632 15.613 15.5003 15.4442C15.5373 15.2754 15.6384 15.1277 15.7823 15.032L18.1316 13.488C17.982 13.5419 17.818 13.5406 17.6693 13.4842C17.5205 13.4278 17.3969 13.3202 17.3206 13.1806C17.2443 13.0411 17.2204 12.8788 17.2532 12.7232C17.286 12.5676 17.3734 12.4288 17.4996 12.332L22.9156 8.16797C22.7804 8.14496 22.6555 8.0808 22.5581 7.98423C22.4607 7.88767 22.3954 7.7634 22.3712 7.62838C22.347 7.49337 22.365 7.35417 22.4229 7.22978C22.4807 7.10538 22.5754 7.00185 22.6943 6.9333L30.0636 2.67863C30.21 2.59457 30.3829 2.56921 30.5474 2.60769C30.7118 2.64617 30.8555 2.74561 30.9494 2.88594C31.0434 3.02627 31.0806 3.19702 31.0535 3.3637C31.0264 3.53039 30.9371 3.68059 30.8036 3.78397L26.3102 7.23864L37.2063 0.950634C37.3562 0.866762 37.5327 0.844021 37.6991 0.887154C37.8654 0.930287 38.0086 1.03596 38.0989 1.18214C38.1892 1.32832 38.2195 1.50371 38.1836 1.67174C38.1478 1.83976 38.0484 1.98744 37.9063 2.08397L35.6996 3.53863L40.4356 0.799968C40.5849 0.719256 40.7593 0.698502 40.9233 0.741936C41.0874 0.785369 41.2287 0.88972 41.3184 1.03372C41.4082 1.17772 41.4397 1.35054 41.4064 1.51694C41.3732 1.68335 41.2778 1.83082 41.1396 1.9293L31.3769 8.47997L44.1769 1.09063C44.3274 1.00313 44.5061 0.977949 44.6749 1.02047C44.8437 1.06298 44.9892 1.16983 45.0802 1.31817C45.1713 1.46652 45.2007 1.64459 45.1622 1.81434C45.1237 1.9841 45.0204 2.13207 44.8742 2.22663L34.2169 9.18664L47.1823 1.7013C47.3325 1.61591 47.5099 1.59217 47.6773 1.63508C47.8447 1.67798 47.9888 1.78419 48.0794 1.93131C48.17 2.07843 48.1999 2.25498 48.1629 2.42374C48.1259 2.5925 48.0248 2.74029 47.8809 2.83597L33.0422 12.556L50.1676 2.66663C50.3187 2.58339 50.4963 2.56199 50.6629 2.60694C50.8295 2.6519 50.9722 2.75971 51.0609 2.90769C51.1497 3.05568 51.1776 3.23231 51.1388 3.40046C51.1 3.5686 50.9975 3.71516 50.8529 3.8093L49.3409 4.74263L51.7716 3.34663C51.9219 3.26265 52.0989 3.24008 52.2654 3.28364C52.432 3.3272 52.5753 3.43352 52.6652 3.58034C52.7552 3.72715 52.7848 3.90307 52.748 4.07126C52.7111 4.23945 52.6107 4.38686 52.4676 4.48264L34.9289 15.8333L54.2743 4.66664C54.4252 4.58037 54.6039 4.55648 54.7722 4.60008C54.9405 4.64368 55.0851 4.7513 55.1752 4.9C55.2653 5.04871 55.2937 5.22672 55.2545 5.39609C55.2152 5.56546 55.1113 5.71278 54.9649 5.80664L41.1876 14.5133L56.1382 5.87997C56.2896 5.78856 56.4711 5.76101 56.6427 5.8034C56.8144 5.84578 56.9622 5.95462 57.0536 6.10597C57.145 6.25732 57.1725 6.43878 57.1301 6.61044C57.0878 6.7821 56.9789 6.92989 56.8276 7.0213L42.1689 16.2666L57.8742 7.19997C58.0261 7.10926 58.2078 7.08261 58.3794 7.12587C58.5509 7.16913 58.6982 7.27875 58.7889 7.43064C58.8796 7.58252 58.9063 7.76421 58.863 7.93574C58.8198 8.10728 58.7101 8.2546 58.5582 8.3453L51.4329 12.7453L59.1329 8.3013C59.2835 8.2208 59.4593 8.20118 59.624 8.24648C59.7887 8.29179 59.9297 8.39857 60.0179 8.5448C60.1062 8.69102 60.1349 8.86554 60.0983 9.03235C60.0616 9.19917 59.9623 9.34555 59.8209 9.4413L42.5076 20.3746L60.6942 9.87597C60.8457 9.79065 61.0245 9.76785 61.1925 9.81245C61.3605 9.85704 61.5045 9.9655 61.5937 10.1147C61.6829 10.2639 61.7103 10.442 61.67 10.6111C61.6298 10.7802 61.5251 10.9269 61.3782 11.02L49.1849 18.6053L61.8982 11.272C62.0503 11.1816 62.232 11.1554 62.4034 11.199C62.5748 11.2426 62.7219 11.3526 62.8122 11.5046C62.9026 11.6567 62.9288 11.8384 62.8852 12.0098C62.8416 12.1812 62.7316 12.3283 62.5796 12.4186L61.3636 13.1586L62.7382 12.3666C62.8891 12.2782 63.0687 12.2526 63.2382 12.2954C63.4078 12.3381 63.5538 12.4457 63.6447 12.5951C63.7357 12.7445 63.7643 12.9236 63.7244 13.0938C63.6846 13.2641 63.5794 13.4119 63.4316 13.5053L40.3143 28.3413L64.1889 14.5586C64.3403 14.4777 64.517 14.4583 64.6823 14.5045C64.8476 14.5506 64.9888 14.6587 65.0764 14.8063C65.164 14.9538 65.1913 15.1295 65.1527 15.2967C65.114 15.4639 65.0124 15.6098 64.8689 15.704L61.5662 17.724L64.8862 15.8066C64.9615 15.7619 65.0449 15.7324 65.1316 15.7199C65.2183 15.7074 65.3066 15.7121 65.3914 15.7337C65.4763 15.7553 65.5561 15.7934 65.6262 15.8458C65.6964 15.8983 65.7555 15.964 65.8002 16.0393C65.845 16.1146 65.8745 16.198 65.887 16.2846C65.8995 16.3713 65.8948 16.4596 65.8732 16.5445C65.8516 16.6294 65.8135 16.7092 65.7611 16.7793C65.7086 16.8494 65.6429 16.9086 65.5676 16.9533L62.2996 18.9533L65.5249 17.0866C65.6766 16.9956 65.8583 16.9685 66.0299 17.0114C66.2016 17.0543 66.3492 17.1636 66.4402 17.3153C66.5313 17.467 66.5584 17.6487 66.5155 17.8203C66.4726 17.992 66.3633 18.1396 66.2116 18.2306L53.0116 26.4533L66.2649 18.8C66.417 18.7094 66.5988 18.683 66.7703 18.7265C66.9418 18.77 67.0891 18.8799 67.1796 19.032C67.2701 19.184 67.2965 19.3658 67.253 19.5374C67.2095 19.7089 67.0996 19.8561 66.9476 19.9466L63.3076 22.176L66.7582 20.1853C66.9091 20.1036 67.0857 20.0832 67.2513 20.1283C67.4168 20.1735 67.5586 20.2808 67.647 20.4278C67.7355 20.5748 67.7639 20.7503 67.7262 20.9178C67.6886 21.0852 67.5878 21.2316 67.4449 21.3266L53.8196 29.848L67.2996 22.0653C67.45 21.9826 67.6265 21.9611 67.7924 22.0052C67.9583 22.0494 68.1007 22.1559 68.1901 22.3024C68.2794 22.449 68.3088 22.6244 68.2721 22.7921C68.2353 22.9598 68.1354 23.1068 67.9929 23.2026L46.6702 36.9173L67.8329 24.7013C67.9844 24.6101 68.166 24.5828 68.3377 24.6254C68.5093 24.668 68.657 24.7771 68.7482 24.9286C68.8395 25.0802 68.8668 25.2617 68.8242 25.4334C68.7815 25.605 68.6724 25.7527 68.5209 25.844L55.0329 34.304L68.0489 26.7893C68.1997 26.7064 68.3767 26.685 68.5429 26.7296C68.7091 26.7742 68.8516 26.8813 68.9406 27.0285C69.0297 27.1758 69.0583 27.3517 69.0206 27.5196C68.9829 27.6875 68.8817 27.8343 68.7382 27.9293L54.5169 36.888L68.1169 29.0346C68.2675 28.9489 68.4455 28.9252 68.6133 28.9685C68.781 29.0118 68.9253 29.1187 69.0156 29.2665C69.106 29.4144 69.1352 29.5916 69.0971 29.7606C69.059 29.9296 68.9566 30.0772 68.8116 30.172L48.5529 43.2506L67.9249 32.0653C68.076 31.9807 68.254 31.9581 68.4214 32.0024C68.5888 32.0467 68.7323 32.1544 68.8217 32.3027C68.9111 32.451 68.9393 32.6283 68.9003 32.797C68.8614 32.9657 68.7583 33.1126 68.6129 33.2066L57.2276 40.3453L67.5502 34.3853C67.6251 34.3399 67.7082 34.3096 67.7947 34.2963C67.8813 34.283 67.9696 34.2868 68.0546 34.3076C68.1397 34.3284 68.2198 34.3657 68.2904 34.4175C68.3611 34.4693 68.4208 34.5345 68.4662 34.6093C68.5117 34.6842 68.5419 34.7672 68.5553 34.8538C68.5686 34.9403 68.5648 35.0286 68.544 35.1137C68.5232 35.1988 68.4858 35.2789 68.434 35.3495C68.3823 35.4201 68.3171 35.4799 68.2422 35.5253L52.6329 45.4666L66.7889 37.2946C66.9391 37.2131 67.1148 37.1924 67.2798 37.2367C67.4449 37.281 67.5866 37.387 67.6757 37.5328C67.7648 37.6785 67.7946 37.853 67.7589 38.0201C67.7231 38.1871 67.6246 38.3341 67.4836 38.4306L53.7422 47.304L65.5422 40.4893C65.6932 40.3972 65.8746 40.3688 66.0466 40.4105C66.2185 40.4521 66.3668 40.5603 66.4589 40.7113C66.551 40.8623 66.5794 41.0437 66.5378 41.2156C66.4961 41.3875 66.3879 41.5359 66.2369 41.628L58.0876 46.868L63.9302 43.496C64.0802 43.4069 64.2592 43.3801 64.4287 43.4215C64.5982 43.4628 64.7447 43.5689 64.8368 43.7171C64.929 43.8652 64.9594 44.0436 64.9215 44.2139C64.8836 44.3842 64.7805 44.5328 64.6343 44.628L56.0222 50.3613L60.8102 47.6C60.9602 47.5063 61.1412 47.476 61.3135 47.5157C61.4858 47.5555 61.6352 47.662 61.7289 47.812C61.8226 47.9619 61.8529 48.1429 61.8132 48.3152C61.7734 48.4875 61.6669 48.6369 61.5169 48.7306L57.5396 51.4106C57.6654 51.3888 57.7949 51.4041 57.9122 51.4548C58.0294 51.5055 58.1293 51.5893 58.1996 51.696C58.294 51.8366 58.3314 52.0078 58.3042 52.175C58.2769 52.3421 58.1871 52.4927 58.0529 52.596L54.0036 55.716L55.6036 54.7933C55.7404 54.7149 55.9007 54.6875 56.0558 54.716C56.211 54.7445 56.3509 54.8272 56.4509 54.9492C56.5509 55.0712 56.6043 55.2248 56.6018 55.3825C56.5992 55.5402 56.5408 55.6919 56.4369 55.8106L53.9036 58.6827L54.8609 58.1306C54.9911 58.0552 55.143 58.026 55.2918 58.0478C55.4407 58.0695 55.5778 58.141 55.6809 58.2506C55.784 58.3605 55.8468 58.502 55.8591 58.6521C55.8715 58.8022 55.8326 58.9521 55.7489 59.0773L55.3382 59.692C55.4617 59.7308 55.5712 59.8047 55.6534 59.9047C55.7355 60.0047 55.7868 60.1265 55.801 60.2551C55.8151 60.3838 55.7915 60.5138 55.733 60.6292C55.6745 60.7447 55.5837 60.8406 55.4716 60.9053L53.7956 61.872C53.6654 61.947 53.5136 61.9758 53.3649 61.9537C53.2163 61.9317 53.0794 61.86 52.9766 61.7504C52.8738 61.6408 52.811 61.4996 52.7985 61.3499C52.786 61.2001 52.8244 61.0505 52.9076 60.9253L53.0489 60.7133L51.0329 61.876C50.8961 61.9544 50.7358 61.9818 50.5807 61.9533C50.4255 61.9248 50.2855 61.8421 50.1856 61.7201C50.0856 61.5981 50.0322 61.4445 50.0347 61.2868C50.0373 61.1291 50.0957 60.9774 50.1996 60.8587L52.7329 57.9866L45.9836 61.8826C45.8372 61.965 45.6651 61.9891 45.5017 61.9501C45.3383 61.911 45.1957 61.8118 45.1023 61.6721C45.009 61.5324 44.9718 61.3627 44.9983 61.1968C45.0247 61.0309 45.1128 60.8811 45.2449 60.7773L49.2996 57.6586L41.9663 61.888C41.892 61.9344 41.8094 61.9657 41.723 61.9802C41.6367 61.9946 41.5483 61.9919 41.463 61.9722C41.2907 61.9325 41.1413 61.8259 41.0476 61.676C40.9539 61.526 40.9236 61.345 40.9633 61.1727C41.0031 61.0005 41.1096 60.851 41.2596 60.7573L44.7103 58.4346L38.7249 61.8933C38.5751 61.9785 38.398 62.0024 38.231 61.9599C38.0639 61.9174 37.9198 61.8119 37.8289 61.6654C37.738 61.519 37.7073 61.343 37.7434 61.1744C37.7794 61.0058 37.8794 60.8578 38.0223 60.7613L46.6409 55.0173L34.7209 61.8986C34.5701 61.9871 34.3905 62.0127 34.2209 61.9699C34.0514 61.9272 33.9054 61.8195 33.8144 61.6702C33.7235 61.5208 33.6949 61.3417 33.7347 61.1715C33.7746 61.0012 33.8798 60.8534 34.0276 60.76L42.1609 55.5306L31.1236 61.904C30.9728 61.9963 30.7915 62.0249 30.6195 61.9835C30.4476 61.9421 30.2992 61.8341 30.2069 61.6833C30.1146 61.5325 30.086 61.3512 30.1274 61.1793C30.1688 61.0074 30.2768 60.8589 30.4276 60.7667L44.1876 51.8853L26.8209 61.9093C26.7198 61.9687 26.6048 62 26.4876 62Z" fill="#F9C32F"/>
<path d="M41.6502 47.256C41.5083 47.2558 41.3701 47.2103 41.2558 47.1261C41.1415 47.0418 41.057 46.9233 41.0148 46.7878C40.9725 46.6522 40.9746 46.5067 41.0208 46.3725C41.067 46.2382 41.1549 46.1222 41.2716 46.0414L54.2489 37.0747L37.2316 46.8987C37.1572 46.9448 37.0744 46.9758 36.988 46.99C36.9016 47.0041 36.8132 47.0011 36.728 46.9811C36.6427 46.9611 36.5623 46.9246 36.4912 46.8735C36.4201 46.8224 36.3597 46.7578 36.3136 46.6834C36.2674 46.6089 36.2364 46.5262 36.2223 46.4398C36.2081 46.3533 36.2111 46.265 36.2311 46.1798C36.2511 46.0945 36.2877 46.014 36.3388 45.9429C36.3899 45.8718 36.4545 45.8115 36.5289 45.7654L48.3316 37.944L34.0649 46.1787C33.9137 46.2705 33.7323 46.2984 33.5605 46.2564C33.3887 46.2144 33.2407 46.1059 33.1489 45.9547C33.0571 45.8035 33.0292 45.6221 33.0712 45.4503C33.1132 45.2785 33.2217 45.1305 33.3729 45.0387L39.4569 41.1627L32.0049 45.4667C31.8535 45.554 31.674 45.5783 31.5048 45.5345C31.3357 45.4908 31.1905 45.3823 31.1005 45.2325C31.0105 45.0828 30.9829 44.9037 31.0236 44.7338C31.0643 44.5638 31.1701 44.4167 31.3182 44.324L31.9422 43.9334L30.4236 44.8093C30.2731 44.8909 30.0969 44.9115 29.9317 44.8667C29.7664 44.822 29.6247 44.7153 29.5359 44.569C29.4471 44.4226 29.4181 44.2477 29.4547 44.0804C29.4914 43.9132 29.591 43.7665 29.7329 43.6707L36.8876 39.1174L28.5729 43.9174C28.4228 44 28.2467 44.0217 28.0811 43.978C27.9155 43.9342 27.773 43.8284 27.6833 43.6825C27.5936 43.5365 27.5636 43.3616 27.5993 43.1941C27.6351 43.0266 27.7341 42.8792 27.8756 42.7827L39.9662 34.9334L26.4676 42.7267C26.3173 42.8199 26.1361 42.8495 25.964 42.8091C25.7918 42.7688 25.6428 42.6616 25.5496 42.5114C25.4564 42.3611 25.4267 42.1799 25.4671 42.0078C25.5075 41.8356 25.6146 41.6865 25.7649 41.5934L41.5116 31.1414L24.1089 41.1894C23.9576 41.2809 23.776 41.3087 23.6042 41.2664C23.4325 41.2241 23.2845 41.1154 23.1929 40.964C23.1013 40.8127 23.0736 40.6311 23.1159 40.4594C23.1581 40.2876 23.2669 40.1396 23.4182 40.048L29.9996 35.8867L22.6502 40.1334C22.5003 40.2172 22.3237 40.24 22.1574 40.1968C21.9911 40.1537 21.8479 40.048 21.7576 39.9018C21.6673 39.7557 21.6369 39.5803 21.6728 39.4123C21.7087 39.2442 21.8081 39.0965 21.9502 39L37.2676 28.876L20.6009 38.4974C20.4506 38.5778 20.2752 38.5976 20.1108 38.5528C19.9463 38.5079 19.8053 38.4018 19.7167 38.2561C19.6281 38.1105 19.5987 37.9365 19.6344 37.7698C19.6702 37.6031 19.7684 37.4565 19.9089 37.36L29.5262 31.2L19.1182 37.2C18.9674 37.2818 18.7908 37.3022 18.6252 37.257C18.4597 37.2118 18.3179 37.1046 18.2294 36.9575C18.141 36.8105 18.1126 36.635 18.1503 36.4676C18.1879 36.3002 18.2887 36.1537 18.4316 36.0587L19.8649 35.1627L18.0489 36.2107C17.8986 36.2911 17.7232 36.311 17.5588 36.2661C17.3943 36.2212 17.2533 36.1151 17.1647 35.9695C17.0761 35.8238 17.0467 35.6498 17.0824 35.4832C17.1182 35.3165 17.2164 35.1698 17.3569 35.0734L25.8329 29.656L16.7249 34.9147C16.5739 35.0068 16.3925 35.0352 16.2206 34.9935C16.0487 34.9519 15.9004 34.8437 15.8082 34.6927C15.7161 34.5417 15.6878 34.3603 15.7294 34.1884C15.771 34.0165 15.8792 33.8681 16.0302 33.776L25.1662 27.8907L15.3929 33.532C15.2423 33.6177 15.0643 33.6415 14.8966 33.5982C14.7288 33.5549 14.5845 33.448 14.4942 33.3001C14.4039 33.1523 14.3747 32.9751 14.4127 32.8061C14.4508 32.6371 14.5532 32.4895 14.6982 32.3947L22.4316 27.4214L14.1742 32.1894C14.0241 32.2764 13.846 32.3015 13.6777 32.2593C13.5095 32.2171 13.3642 32.111 13.2729 31.9634C13.1816 31.8159 13.1515 31.6386 13.1888 31.4691C13.2261 31.2997 13.328 31.1515 13.4729 31.056L24.2929 23.9134L12.9596 30.4627C12.8086 30.5548 12.6272 30.5832 12.4553 30.5415C12.2833 30.4999 12.135 30.3917 12.0429 30.2407C11.9508 30.0897 11.9224 29.9083 11.9641 29.7364C12.0057 29.5645 12.1139 29.4161 12.2649 29.324L16.2049 26.7907L13.6276 28.284C13.4766 28.3761 13.2952 28.4045 13.1233 28.3629C12.9513 28.3212 12.803 28.213 12.7109 28.062C12.6188 27.911 12.5904 27.7296 12.6321 27.5577C12.6737 27.3858 12.7819 27.2375 12.9329 27.1454L16.2329 25.0214C16.1037 24.998 15.9843 24.937 15.8896 24.846C15.795 24.755 15.7293 24.6381 15.7008 24.51C15.6723 24.3818 15.6823 24.2481 15.7296 24.1256C15.7768 24.0031 15.8591 23.8972 15.9662 23.8214L22.0782 19.5387C21.9881 19.4735 21.9158 19.3868 21.8678 19.2865C21.8198 19.1862 21.7976 19.0755 21.8033 18.9644C21.809 18.8534 21.8424 18.7455 21.9004 18.6507C21.9584 18.5558 22.0393 18.477 22.1356 18.4214L30.8996 13.3667C31.0482 13.2824 31.2235 13.2583 31.3893 13.2995C31.5551 13.3407 31.6988 13.444 31.7906 13.5881C31.8825 13.7321 31.9156 13.9059 31.883 14.0736C31.8504 14.2414 31.7547 14.3902 31.6156 14.4894L29.2009 16.1814L36.9476 11.7094C37.0986 11.6172 37.28 11.5889 37.4519 11.6305C37.6238 11.6721 37.7721 11.7804 37.8642 11.9314C37.9564 12.0823 37.9847 12.2638 37.9431 12.4357C37.9015 12.6076 37.7932 12.7559 37.6422 12.848L37.0689 13.216L40.0996 11.4667C40.2501 11.381 40.4282 11.3573 40.5959 11.4005C40.7637 11.4438 40.908 11.5507 40.9983 11.6986C41.0886 11.8464 41.1178 12.0236 41.0797 12.1926C41.0416 12.3617 40.9392 12.5092 40.7942 12.604L36.8729 15.116L42.8996 11.636C43.0492 11.5555 43.2239 11.5351 43.388 11.579C43.5522 11.6229 43.6933 11.7278 43.7827 11.8724C43.8721 12.0169 43.9029 12.19 43.8688 12.3565C43.8348 12.523 43.7385 12.6702 43.5996 12.768L32.7716 19.9174L46.0516 12.2507C46.2026 12.1586 46.384 12.1302 46.5559 12.1718C46.7278 12.2135 46.8761 12.3217 46.9682 12.4727C47.0604 12.6237 47.0887 12.8051 47.0471 12.977C47.0055 13.1489 46.8972 13.2972 46.7462 13.3894L39.0022 18.364L48.3662 12.9614C48.5168 12.8756 48.6948 12.8519 48.8626 12.8952C49.0303 12.9385 49.1747 13.0454 49.265 13.1932C49.3553 13.3411 49.3845 13.5183 49.3464 13.6873C49.3083 13.8563 49.2059 14.0039 49.0609 14.0987L39.9222 19.9814L50.5516 13.848C50.702 13.7653 50.8785 13.7438 51.0444 13.788C51.2103 13.8321 51.3527 13.9386 51.4421 14.0852C51.5314 14.2317 51.5608 14.4071 51.5241 14.5748C51.4873 14.7425 51.3873 14.8895 51.2449 14.9854L42.7782 20.4L52.4996 14.7867C52.6505 14.705 52.827 14.6845 52.9926 14.7297C53.1581 14.7749 53.2999 14.8821 53.3884 15.0292C53.4768 15.1762 53.5052 15.3517 53.4675 15.5191C53.4299 15.6866 53.3291 15.833 53.1862 15.928L51.7409 16.832L53.9209 15.5734C54.0713 15.4906 54.2479 15.4691 54.4137 15.5133C54.5796 15.5575 54.7221 15.6639 54.8114 15.8105C54.9008 15.9571 54.9301 16.1325 54.8934 16.3001C54.8567 16.4678 54.7567 16.6149 54.6142 16.7107L44.9916 22.8747L55.7156 16.684C55.8653 16.6014 56.041 16.5794 56.2065 16.6227C56.3719 16.666 56.5144 16.7712 56.6045 16.9165C56.6946 17.0619 56.7253 17.2363 56.6904 17.4038C56.6555 17.5712 56.5576 17.7188 56.4169 17.816L41.0902 27.9494L57.9302 18.228C58.0812 18.1417 58.2599 18.1179 58.4282 18.1615C58.5965 18.2051 58.7411 18.3127 58.8312 18.4614C58.9213 18.6101 58.9497 18.7881 58.9104 18.9575C58.8712 19.1268 58.7673 19.2742 58.6209 19.368L52.0556 23.5214L59.3422 19.3134C59.4923 19.2263 59.6704 19.2012 59.8387 19.2434C60.007 19.2856 60.1522 19.3917 60.2435 19.5393C60.3348 19.6868 60.365 19.8641 60.3277 20.0336C60.2903 20.203 60.1884 20.3512 60.0436 20.4467L44.3102 30.8934L61.3929 21.0267C61.5428 20.9462 61.7179 20.9261 61.8822 20.9705C62.0464 21.0149 62.1875 21.1205 62.2765 21.2655C62.3654 21.4106 62.3956 21.5841 62.3607 21.7507C62.3258 21.9173 62.2286 22.0642 62.0889 22.1614L49.9929 30.016L63.0076 22.5027C63.1582 22.4185 63.3357 22.396 63.5026 22.4399C63.6696 22.4839 63.8129 22.5909 63.9026 22.7384C63.9922 22.8859 64.0212 23.0624 63.9833 23.2308C63.9454 23.3992 63.8437 23.5464 63.6996 23.6414L56.5476 28.1934L64.2596 23.7334C64.4105 23.6516 64.5871 23.6312 64.7526 23.6764C64.9181 23.7216 65.0599 23.8288 65.1484 23.9759C65.2368 24.1229 65.2652 24.2984 65.2275 24.4658C65.1899 24.6332 65.0891 24.7797 64.9462 24.8747L64.2929 25.284L65.2369 24.74C65.3874 24.6584 65.5636 24.6379 65.7288 24.6827C65.8941 24.7274 66.0358 24.834 66.1246 24.9804C66.2133 25.1268 66.2424 25.3017 66.2057 25.4689C66.1691 25.6362 66.0695 25.7829 65.9276 25.8787L59.8396 29.7574L66.3729 25.9827C66.4473 25.9365 66.5301 25.9055 66.6165 25.8914C66.7029 25.8772 66.7913 25.8802 66.8765 25.9002C66.9618 25.9202 67.0422 25.9568 67.1133 26.0079C67.1844 26.059 67.2448 26.1236 67.2909 26.198C67.337 26.2724 67.3681 26.3552 67.3822 26.4416C67.3964 26.528 67.3934 26.6164 67.3734 26.7016C67.3534 26.7869 67.3168 26.8673 67.2657 26.9384C67.2146 27.0095 67.15 27.0699 67.0756 27.116L55.2849 34.9334L67.8182 27.6974C67.9672 27.6133 68.1427 27.5896 68.3086 27.6313C68.4745 27.673 68.618 27.7769 68.7094 27.9214C68.8009 28.066 68.8332 28.2401 68.7999 28.4079C68.7666 28.5756 68.67 28.7241 68.5302 28.8227L55.5516 37.792L66.3516 31.56C66.5008 31.4761 66.6767 31.4528 66.8427 31.495C67.0086 31.5372 67.152 31.6416 67.243 31.7867C67.3341 31.9317 67.3658 32.1062 67.3316 32.2741C67.2975 32.4419 67.2001 32.5901 67.0596 32.688L61.5542 36.436C61.7094 36.4024 61.8715 36.4253 62.0114 36.5006C62.1512 36.5759 62.2595 36.6986 62.3169 36.8466C62.3743 36.9947 62.377 37.1584 62.3244 37.3082C62.2719 37.4581 62.1675 37.5842 62.0302 37.664L47.0089 46.3307C46.8596 46.4146 46.6838 46.4379 46.5178 46.3957C46.3519 46.3535 46.2085 46.2491 46.1175 46.104C46.0264 45.959 45.9947 45.7845 46.0289 45.6166C46.063 45.4488 46.1604 45.3006 46.3009 45.2027L51.4516 41.6947L41.9849 47.1614C41.8838 47.2223 41.7683 47.255 41.6502 47.256Z" fill="white"/>
<path d="M40.0682 47.2786C39.9282 47.2786 39.7919 47.2346 39.6784 47.1528C39.5648 47.071 39.48 46.9555 39.4357 46.8228C39.3915 46.69 39.3901 46.5467 39.4318 46.4132C39.4735 46.2796 39.5562 46.1626 39.6682 46.0786L48.6015 39.5173L36.1508 46.704C36.0023 46.7862 35.828 46.8087 35.6635 46.7668C35.499 46.725 35.3567 46.6219 35.2655 46.4787C35.1743 46.3355 35.1412 46.1629 35.173 45.9962C35.2047 45.8294 35.2988 45.681 35.4362 45.5813L46.0148 38.1946L32.8628 45.7866C32.712 45.875 32.5324 45.9006 32.3628 45.8579C32.1933 45.8152 32.0473 45.7075 31.9563 45.5582C31.8654 45.4088 31.8368 45.2297 31.8767 45.0594C31.9165 44.8892 32.0217 44.7414 32.1695 44.648L34.8535 42.9333L31.0855 45.108C30.9355 45.1874 30.7607 45.2067 30.597 45.1617C30.4333 45.1168 30.2928 45.0111 30.2044 44.8661C30.1159 44.7212 30.0861 44.548 30.121 44.3818C30.1559 44.2156 30.2529 44.0691 30.3922 43.972L35.7495 40.5173L29.2575 44.2626C29.1081 44.3454 28.9327 44.3676 28.7674 44.3248C28.6021 44.282 28.4595 44.1774 28.369 44.0326C28.2786 43.8878 28.2472 43.7137 28.2812 43.5464C28.3153 43.3791 28.4123 43.2312 28.5522 43.1333L41.7722 34.244L27.2468 42.6253C27.1726 42.6717 27.0899 42.703 27.0036 42.7175C26.9172 42.7319 26.8289 42.7292 26.7436 42.7095C26.5713 42.6698 26.4219 42.5632 26.3282 42.4133C26.2345 42.2633 26.2041 42.0823 26.2439 41.91C26.2837 41.7378 26.3902 41.5883 26.5402 41.4946L40.9188 31.8226L25.6295 40.6493C25.4802 40.7332 25.3044 40.7565 25.1384 40.7143C24.9725 40.6721 24.8291 40.5677 24.7381 40.4226C24.647 40.2776 24.6153 40.1031 24.6494 39.9352C24.6836 39.7674 24.781 39.6192 24.9215 39.5213L40.1002 29.2653L24.2668 38.4093C24.1173 38.4945 23.9407 38.5186 23.7738 38.4765C23.607 38.4345 23.4629 38.3296 23.3716 38.1837C23.2803 38.0378 23.249 37.8623 23.2841 37.6939C23.3193 37.5255 23.4182 37.3771 23.5602 37.28L38.5362 27.1626L23.2362 36C23.0869 36.0839 22.9111 36.1072 22.7451 36.065C22.5791 36.0228 22.4358 35.9183 22.3447 35.7733C22.2537 35.6282 22.222 35.4537 22.2561 35.2859C22.2903 35.1181 22.3877 34.9699 22.5282 34.872L37.2308 24.872L22.5362 33.3533C22.3873 33.43 22.215 33.4479 22.0536 33.4035C21.8921 33.359 21.7533 33.2554 21.6648 33.1132C21.5762 32.9711 21.5444 32.8008 21.5757 32.6363C21.607 32.4718 21.699 32.3251 21.8335 32.2253L34.6335 23.4973L22.2335 30.6586C22.0834 30.7413 21.9073 30.763 21.7417 30.7192C21.5761 30.6755 21.4336 30.5697 21.3439 30.4237C21.2542 30.2778 21.2241 30.1029 21.2599 29.9354C21.2957 29.7678 21.3947 29.6205 21.5362 29.524L26.3362 26.4L22.2375 28.7653C22.0877 28.8505 21.9106 28.8744 21.7436 28.8319C21.5765 28.7894 21.4324 28.6839 21.3415 28.5374C21.2505 28.3909 21.2199 28.2149 21.256 28.0464C21.292 27.8778 21.392 27.7297 21.5348 27.6333L27.2788 23.8186L22.5042 26.576C22.3548 26.6626 22.1776 26.688 22.0099 26.6466C21.8422 26.6053 21.6971 26.5005 21.6052 26.3542C21.5132 26.208 21.4816 26.0319 21.517 25.8628C21.5524 25.6937 21.652 25.545 21.7948 25.448L27.7002 21.4133L23.1668 24.032C23.0177 24.1137 22.8429 24.1354 22.6783 24.0925C22.5137 24.0496 22.3717 23.9454 22.2814 23.8013C22.1911 23.6571 22.1593 23.4839 22.1925 23.3171C22.2258 23.1503 22.3215 23.0025 22.4602 22.904L23.9095 21.924C23.766 21.9682 23.6119 21.9626 23.4719 21.9083C23.332 21.854 23.2145 21.754 23.1384 21.6246C23.0624 21.4952 23.0322 21.3439 23.0529 21.1952C23.0735 21.0465 23.1437 20.9091 23.2522 20.8053L27.2335 16.9826C27.1134 16.979 26.9959 16.9468 26.8907 16.8889C26.7854 16.8309 26.6955 16.7488 26.6282 16.6493C26.5401 16.4964 26.5161 16.3149 26.5616 16.1445C26.6071 15.974 26.7183 15.8286 26.8708 15.74L31.0975 13.3C31.2385 13.215 31.406 13.1853 31.5676 13.2165C31.7293 13.2477 31.8737 13.3376 31.973 13.4688C32.0723 13.6001 32.1196 13.7635 32.1056 13.9275C32.0917 14.0916 32.0176 14.2446 31.8975 14.3573L28.1428 17.9573L39.3522 11.4853C39.5017 11.4001 39.6783 11.376 39.8451 11.418C40.012 11.4601 40.1561 11.565 40.2474 11.7109C40.3387 11.8567 40.37 12.0322 40.3349 12.2007C40.2997 12.3691 40.2008 12.5174 40.0588 12.6146L38.8108 13.4586L42.1002 11.5586C42.2495 11.4719 42.4267 11.4466 42.5944 11.4879C42.7621 11.5293 42.9072 11.6341 42.9992 11.7803C43.0911 11.9265 43.1227 12.1027 43.0873 12.2718C43.052 12.4408 42.9523 12.5895 42.8095 12.6866L36.9135 16.7213L45.0655 12.016C45.2152 11.9333 45.391 11.9113 45.5564 11.9546C45.7219 11.9979 45.8643 12.1031 45.9544 12.2485C46.0445 12.3939 46.0752 12.5683 46.0403 12.7357C46.0054 12.9031 45.9075 13.0507 45.7668 13.148L40.0188 16.9653L47.4722 12.6666C47.6225 12.5826 47.7994 12.5601 47.966 12.6036C48.1326 12.6472 48.2759 12.7535 48.3658 12.9003C48.4557 13.0471 48.4854 13.2231 48.4486 13.3912C48.4117 13.5594 48.3112 13.7068 48.1682 13.8026L43.3775 16.9186L49.4775 13.396C49.6269 13.3093 49.8041 13.2839 49.9718 13.3253C50.1395 13.3666 50.2845 13.4715 50.3765 13.6177C50.4684 13.7639 50.5 13.9401 50.4647 14.1091C50.4293 14.2782 50.3297 14.4269 50.1868 14.524L37.3722 23.2546L52.2495 14.6666C52.3988 14.5827 52.5746 14.5594 52.7406 14.6016C52.9065 14.6438 53.0499 14.7482 53.1409 14.8933C53.232 15.0383 53.2637 15.2128 53.2296 15.3807C53.1954 15.5485 53.098 15.6967 52.9575 15.7946L38.2495 25.7946L54.2335 16.56C54.383 16.4748 54.5596 16.4507 54.7265 16.4927C54.8933 16.5347 55.0375 16.6397 55.1287 16.7855C55.22 16.9314 55.2513 17.1069 55.2162 17.2753C55.1811 17.4438 55.0822 17.5921 54.9402 17.6893L39.9735 27.8013L55.8162 18.6546C55.9658 18.566 56.1441 18.5393 56.3131 18.5803C56.4822 18.6213 56.6285 18.7267 56.7208 18.8741C56.8132 19.0214 56.8443 19.199 56.8076 19.369C56.7709 19.539 56.6692 19.6879 56.5242 19.784L41.3428 30.0373L57.0842 20.9506C57.2339 20.8638 57.4115 20.8387 57.5794 20.8805C57.7474 20.9223 57.8925 21.0277 57.9841 21.1746C58.0757 21.3214 58.1066 21.4981 58.0703 21.6673C58.034 21.8365 57.9333 21.985 57.7895 22.0813L43.4082 31.7546L57.9908 23.3333C58.1406 23.2465 58.3182 23.2214 58.4861 23.2631C58.654 23.3049 58.7992 23.4104 58.8908 23.5572C58.9824 23.7041 59.0133 23.8808 58.977 24.05C58.9406 24.2192 58.8399 24.3676 58.6962 24.464L45.4762 33.3533L58.5548 25.8026C58.705 25.7211 58.8807 25.7004 59.0458 25.7447C59.2108 25.789 59.3525 25.895 59.4416 26.0407C59.5308 26.1865 59.5605 26.3609 59.5248 26.528C59.489 26.6951 59.3905 26.8421 59.2495 26.9386L53.8828 30.4053L58.7508 27.5946C58.9018 27.5025 59.0832 27.4741 59.2551 27.5158C59.4271 27.5574 59.5754 27.6656 59.6675 27.8166C59.7596 27.9676 59.788 28.149 59.7463 28.3209C59.7047 28.4928 59.5965 28.6412 59.4455 28.7333L56.7922 30.4346L58.7762 29.2906C58.925 29.2052 59.101 29.1805 59.2676 29.2215C59.4342 29.2626 59.5785 29.3663 59.6706 29.5111C59.7626 29.6559 59.7953 29.8306 59.7618 29.9989C59.7284 30.1672 59.6313 30.3161 59.4908 30.4146L48.9122 37.8L58.4588 32.288C58.6065 32.2027 58.7812 32.1772 58.947 32.2167C59.1129 32.2563 59.2573 32.3579 59.3505 32.5007C59.4437 32.6434 59.4787 32.8165 59.4483 32.9842C59.4178 33.152 59.3243 33.3017 59.1868 33.4026L50.2535 39.9666L57.3988 35.8413C57.5432 35.7599 57.7127 35.7352 57.8742 35.772C58.0358 35.8087 58.1779 35.9044 58.2728 36.0402C58.3677 36.1761 58.4086 36.3424 58.3875 36.5068C58.3665 36.6711 58.2849 36.8218 58.1588 36.9293L52.8362 41.3653L54.8562 40.2C55.0092 40.1129 55.1904 40.09 55.3603 40.1361C55.5302 40.1822 55.675 40.2937 55.763 40.4462C55.851 40.5986 55.8752 40.7797 55.8302 40.9499C55.7852 41.1201 55.6747 41.2656 55.5228 41.3546L46.7668 46.4066C46.6223 46.4897 46.4518 46.5157 46.2891 46.4793C46.1264 46.4429 45.9832 46.3469 45.8878 46.2101C45.7924 46.0734 45.7517 45.9058 45.7737 45.7406C45.7958 45.5753 45.8789 45.4243 46.0068 45.3173L51.3322 40.88L40.3988 47.1893C40.2985 47.2479 40.1844 47.2787 40.0682 47.2786Z" fill="#25A9FE"/>
<path d="M41.1788 40.596C41.0422 40.5958 40.909 40.5537 40.7972 40.4754C40.6853 40.397 40.6002 40.2862 40.5534 40.1579C40.5065 40.0296 40.5002 39.8901 40.5353 39.7581C40.5704 39.6261 40.6451 39.5081 40.7495 39.42L44.6481 36.1333L37.7961 40.088C37.6475 40.1691 37.4736 40.1907 37.3096 40.1483C37.1457 40.1059 37.004 40.0027 36.9134 39.8596C36.8228 39.7166 36.79 39.5444 36.8217 39.378C36.8534 39.2117 36.9472 39.0637 37.0841 38.964L37.1481 38.9173L36.1948 39.4693C36.0475 39.553 35.8739 39.5775 35.7093 39.5379C35.5446 39.4982 35.4012 39.3974 35.3082 39.2558C35.2151 39.1143 35.1795 38.9426 35.2085 38.7757C35.2374 38.6088 35.3288 38.4592 35.4641 38.3573L41.3001 34.0253L34.1415 38.1586C33.9945 38.24 33.8222 38.2629 33.659 38.2227C33.4959 38.1825 33.354 38.0821 33.2616 37.9418C33.1693 37.8014 33.1333 37.6314 33.161 37.4656C33.1887 37.2999 33.2779 37.1507 33.4108 37.048L40.8108 31.528L32.4108 36.376C32.2632 36.4613 32.0885 36.4867 31.9226 36.4472C31.7568 36.4076 31.6124 36.306 31.5191 36.1632C31.4259 36.0205 31.3909 35.8474 31.4214 35.6797C31.4518 35.5119 31.5454 35.3622 31.6828 35.2613L38.9735 29.9146L31.2015 34.4C31.0528 34.4868 30.8762 34.5128 30.7088 34.4724C30.5414 34.432 30.3962 34.3284 30.3034 34.1833C30.2107 34.0381 30.1777 33.8628 30.2114 33.6939C30.2451 33.525 30.3428 33.3757 30.4841 33.2773L35.5148 29.7333L30.5548 32.596C30.4056 32.6777 30.2309 32.6994 30.0663 32.6565C29.9017 32.6136 29.7597 32.5095 29.6694 32.3653C29.5791 32.2212 29.5473 32.0479 29.5805 31.8811C29.6137 31.7143 29.7095 31.5665 29.8481 31.468L30.9055 30.752L30.2815 31.112C30.1323 31.1972 29.956 31.2216 29.7893 31.18C29.6226 31.1385 29.4784 31.0342 29.3868 30.8889C29.2951 30.7435 29.2631 30.5685 29.2974 30.4001C29.3317 30.2318 29.4296 30.0832 29.5708 29.9853L30.9175 29.0613L30.2268 29.4613C30.0818 29.5441 29.911 29.5695 29.7482 29.5324C29.5853 29.4954 29.4424 29.3985 29.3475 29.2611C29.2526 29.1237 29.2128 28.9557 29.2359 28.7903C29.259 28.6249 29.3433 28.4742 29.4721 28.368L35.4041 23.508L30.9161 26.0973C30.7743 26.1754 30.6088 26.1991 30.4507 26.1641C30.2926 26.1291 30.1526 26.0378 30.0569 25.9072C29.9613 25.7765 29.9164 25.6155 29.9307 25.4542C29.945 25.2929 30.0176 25.1424 30.1348 25.0306L33.0335 22.3893C32.8922 22.377 32.7585 22.3201 32.6519 22.2266C32.5452 22.1332 32.4711 22.0082 32.4403 21.8698C32.4096 21.7314 32.4237 21.5868 32.4808 21.457C32.5378 21.3272 32.6347 21.2189 32.7575 21.148L37.3081 18.5213C37.45 18.4432 37.6154 18.4195 37.7736 18.4545C37.9317 18.4895 38.0716 18.5808 38.1673 18.7114C38.263 18.8421 38.3079 19.0031 38.2936 19.1644C38.2792 19.3257 38.2067 19.4762 38.0895 19.588L35.6068 21.8466L41.8135 18.2666C41.9585 18.1823 42.13 18.1557 42.2938 18.1923C42.4576 18.2288 42.6015 18.3258 42.6969 18.4638C42.7924 18.6018 42.8323 18.7707 42.8086 18.9368C42.785 19.1029 42.6996 19.254 42.5695 19.36L36.6335 24.2186L45.0788 19.344C45.2279 19.2587 45.4043 19.2343 45.5709 19.2759C45.7376 19.3175 45.8819 19.4218 45.9735 19.5671C46.0652 19.7124 46.0972 19.8875 46.0629 20.0558C46.0286 20.2241 45.9307 20.3728 45.7895 20.4706L44.4415 21.3946L46.4788 20.2186C46.6284 20.13 46.8068 20.1033 46.9758 20.1443C47.1448 20.1853 47.2911 20.2907 47.3835 20.4381C47.4758 20.5854 47.507 20.763 47.4702 20.933C47.4335 21.103 47.3318 21.2519 47.1868 21.348L46.1415 22.0546L47.6281 21.196C47.7768 21.1091 47.9534 21.0832 48.1208 21.1236C48.2882 21.1639 48.4334 21.2676 48.5262 21.4127C48.6189 21.5578 48.6519 21.7331 48.6182 21.902C48.5845 22.0709 48.4868 22.2202 48.3455 22.3186L43.3175 25.8666L48.8695 22.6666C49.0171 22.5813 49.1918 22.5559 49.3577 22.5954C49.5235 22.635 49.6679 22.7366 49.7611 22.8793C49.8544 23.0221 49.8894 23.1951 49.8589 23.3629C49.8285 23.5307 49.7349 23.6804 49.5975 23.7813L42.3041 29.1306L49.9775 24.7013C50.1245 24.6183 50.2976 24.5941 50.4618 24.6338C50.626 24.6734 50.769 24.7739 50.8619 24.9149C50.9548 25.056 50.9908 25.227 50.9625 25.3935C50.9342 25.56 50.8438 25.7096 50.7095 25.812L43.3001 31.3333L50.6495 27.0906C50.7967 27.0069 50.9703 26.9824 51.135 27.022C51.2997 27.0617 51.4431 27.1625 51.5361 27.3041C51.6291 27.4457 51.6648 27.6173 51.6358 27.7842C51.6068 27.9511 51.5154 28.1007 51.3801 28.2026L45.5521 32.5306L50.7521 29.528C50.9008 29.4449 51.0757 29.4219 51.2409 29.4636C51.406 29.5054 51.5489 29.6089 51.6402 29.7527C51.7315 29.8965 51.7643 30.0699 51.7318 30.2371C51.6993 30.4043 51.604 30.5528 51.4655 30.652L50.7641 31.1373C50.8807 31.1282 50.9977 31.1493 51.1037 31.1986C51.2097 31.2479 51.3013 31.3236 51.3695 31.4186C51.465 31.555 51.506 31.7221 51.4846 31.8871C51.4631 32.0522 51.3807 32.2033 51.2535 32.3106L47.3548 35.5973L49.0015 34.6466C49.1545 34.5596 49.3357 34.5367 49.5056 34.5828C49.6755 34.6289 49.8203 34.7404 49.9083 34.8928C49.9963 35.0453 50.0205 35.2264 49.9755 35.3966C49.9305 35.5668 49.82 35.7123 49.6681 35.8013L41.5121 40.5066C41.411 40.5657 41.2959 40.5965 41.1788 40.596Z" fill="#315287"/>
<path d="M53.1595 71.3107C53.0131 71.3102 52.871 71.2615 52.7551 71.1723C52.6391 71.083 52.5558 70.9581 52.5179 70.8168C52.48 70.6754 52.4896 70.5255 52.5453 70.3902C52.601 70.2549 52.6997 70.1417 52.8261 70.068L55.9968 68.2374C56.0727 68.1891 56.1575 68.1567 56.2462 68.1421C56.335 68.1275 56.4257 68.1311 56.5131 68.1524C56.6004 68.1738 56.6825 68.2127 56.7544 68.2666C56.8264 68.3206 56.8866 68.3885 56.9316 68.4663C56.9766 68.5442 57.0054 68.6303 57.0162 68.7196C57.0271 68.8088 57.0198 68.8994 56.9947 68.9857C56.9697 69.0721 56.9274 69.1525 56.8705 69.2221C56.8135 69.2917 56.7431 69.349 56.6635 69.3907L53.4928 71.2214C53.3916 71.2802 53.2765 71.3111 53.1595 71.3107Z" fill="#ABBAD3"/>
<path d="M54.4996 65.96C54.3529 65.96 54.2102 65.9116 54.0938 65.8222C53.9774 65.7329 53.8937 65.6076 53.8557 65.4659C53.8177 65.3241 53.8276 65.1738 53.8837 65.0382C53.9399 64.9026 54.0392 64.7894 54.1663 64.716L57.3343 62.888C57.4102 62.8398 57.495 62.8074 57.5838 62.7928C57.6725 62.7782 57.7632 62.7817 57.8506 62.8031C57.9379 62.8245 58.02 62.8633 58.0919 62.9173C58.1639 62.9712 58.2241 63.0391 58.2691 63.117C58.3141 63.1948 58.3429 63.281 58.3538 63.3702C58.3646 63.4595 58.3573 63.55 58.3322 63.6364C58.3072 63.7227 58.2649 63.8031 58.208 63.8727C58.1511 63.9423 58.0806 63.9996 58.001 64.0413L54.833 65.8667C54.732 65.9266 54.617 65.9588 54.4996 65.96Z" fill="#ABBAD3"/>
<path d="M41.3916 79.2627C41.2516 79.2627 41.1153 79.2186 41.0018 79.1368C40.8883 79.055 40.8034 78.9396 40.7591 78.8068C40.7149 78.6741 40.7135 78.5308 40.7552 78.3972C40.7969 78.2637 40.8796 78.1466 40.9916 78.0627L46.5089 73.9867L37.8956 78.9587C37.7475 79.0424 37.573 79.0663 37.4079 79.0255C37.2428 78.9848 37.0994 78.8825 37.0073 78.7396C36.9151 78.5966 36.8811 78.4238 36.9121 78.2566C36.9431 78.0894 37.0369 77.9404 37.1742 77.84L43.6609 73.2L35.0089 78.196C34.8605 78.2794 34.6858 78.3028 34.5207 78.2615C34.3556 78.2203 34.2125 78.1174 34.1208 77.974C34.0291 77.8307 33.9957 77.6576 34.0274 77.4904C34.0592 77.3232 34.1537 77.1744 34.2916 77.0747L45.1462 69.416L32.3062 76.8267C32.1567 76.9083 31.9817 76.9296 31.817 76.8862C31.6523 76.8428 31.5104 76.7381 31.4205 76.5934C31.3306 76.4488 31.2995 76.2752 31.3335 76.1083C31.3676 75.9414 31.4642 75.7939 31.6036 75.696L38.1662 71.3333L30.8116 75.58C30.6635 75.6637 30.489 75.6876 30.3239 75.6469C30.1588 75.6061 30.0154 75.5038 29.9233 75.3609C29.8311 75.2179 29.7971 75.0452 29.8281 74.878C29.8591 74.7107 29.9529 74.5617 30.0902 74.4613L39.9769 67.368L29.3636 73.4947C29.2164 73.5766 29.0436 73.5998 28.88 73.5596C28.7165 73.5194 28.5742 73.4187 28.4818 73.2778C28.3894 73.137 28.3537 72.9664 28.382 72.8003C28.4103 72.6342 28.5004 72.485 28.6342 72.3827L36.6676 66.4213L28.3796 71.2C28.2313 71.2846 28.0562 71.3091 27.8904 71.2684C27.7246 71.2277 27.5808 71.125 27.4885 70.9814C27.3961 70.8378 27.3624 70.6643 27.3943 70.4966C27.4261 70.3289 27.5211 70.1798 27.6596 70.08L31.2116 67.5467L25.8782 70.6293C25.7302 70.713 25.5557 70.7369 25.3906 70.6962C25.2254 70.6555 25.0821 70.5532 24.9899 70.4102C24.8978 70.2673 24.8637 70.0945 24.8948 69.9273C24.9258 69.7601 25.0196 69.611 25.1569 69.5107L28.0396 67.448L24.9729 69.22C24.8264 69.3041 24.6535 69.3294 24.4891 69.2909C24.3247 69.2525 24.181 69.153 24.087 69.0127C23.9931 68.8724 23.9559 68.7016 23.983 68.5349C24.01 68.3682 24.0994 68.218 24.2329 68.1147L27.3582 65.7147L25.7049 66.6693C25.5674 66.7495 25.4057 66.7777 25.2491 66.749C25.0926 66.7203 24.9514 66.6366 24.8512 66.5129C24.7511 66.3892 24.6984 66.2337 24.7029 66.0746C24.7074 65.9155 24.7686 65.7632 24.8756 65.6453L27.5129 62.724L24.0249 64.7373C23.9001 64.8125 23.7541 64.8447 23.6093 64.8291C23.4644 64.8134 23.3287 64.7507 23.2229 64.6506C23.117 64.5505 23.0469 64.4185 23.0232 64.2748C22.9995 64.131 23.0235 63.9835 23.0916 63.8547L24.1756 61.744L23.9249 61.888C23.7725 61.9677 23.5953 61.9855 23.4301 61.9375C23.265 61.8896 23.1248 61.7798 23.0387 61.6309C22.9527 61.482 22.9275 61.3057 22.9684 61.1387C23.0093 60.9717 23.1131 60.8269 23.2582 60.7347L25.4676 59.46C25.592 59.3881 25.7363 59.3584 25.8791 59.3752C26.0218 59.392 26.1552 59.4545 26.2596 59.5533C26.364 59.6526 26.4334 59.7831 26.4574 59.9251C26.4814 60.0672 26.4588 60.2132 26.3929 60.3413L25.2996 62.4587L30.4996 59.4667C30.6369 59.3883 30.7977 59.3613 30.9531 59.3906C31.1086 59.4198 31.2485 59.5033 31.348 59.6262C31.4476 59.7491 31.5001 59.9034 31.4964 60.0615C31.4926 60.2197 31.4328 60.3713 31.3276 60.4893L28.6862 63.4093L35.5209 59.4667C35.6673 59.3843 35.8394 59.3602 36.0028 59.3992C36.1662 59.4383 36.3088 59.5376 36.4022 59.6772C36.4955 59.8169 36.5327 59.9867 36.5062 60.1526C36.4798 60.3185 36.3917 60.4683 36.2596 60.572L33.1329 62.972L39.2009 59.4667C39.349 59.383 39.5234 59.3591 39.6886 59.3998C39.8537 59.4405 39.997 59.5428 40.0892 59.6858C40.1814 59.8287 40.2154 60.0015 40.1844 60.1687C40.1533 60.3359 40.0596 60.485 39.9222 60.5853L37.0409 62.6467L42.5516 59.4667C42.6998 59.3821 42.8749 59.3576 43.0407 59.3983C43.2065 59.4389 43.3504 59.5416 43.4427 59.6852C43.535 59.8288 43.5687 60.0024 43.5369 60.1701C43.505 60.3378 43.4101 60.4869 43.2716 60.5867L39.7182 63.12L46.0502 59.4667C46.1975 59.3829 46.3711 59.3584 46.5358 59.3981C46.7004 59.4377 46.8439 59.5386 46.9369 59.6801C47.0299 59.8217 47.0655 59.9934 47.0366 60.1602C47.0076 60.3271 46.9162 60.4767 46.7809 60.5787L38.7502 66.5333L50.9982 59.4667C51.1463 59.383 51.3208 59.3591 51.4859 59.3998C51.651 59.4405 51.7944 59.5428 51.8865 59.6858C51.9787 59.8287 52.0128 60.0015 51.9817 60.1687C51.9507 60.3359 51.8569 60.485 51.7196 60.5853L41.8329 67.6733L55.7529 59.6373C55.9025 59.5535 56.0787 59.5305 56.2448 59.5732C56.4109 59.6158 56.5542 59.7209 56.6448 59.8665C56.7355 60.0121 56.7665 60.187 56.7315 60.3549C56.6965 60.5228 56.5982 60.6708 56.4569 60.768L49.8889 65.136L57.1822 60.9253C57.3306 60.842 57.5053 60.8185 57.6704 60.8598C57.8355 60.9011 57.9786 61.0039 58.0703 61.1473C58.1621 61.2907 58.1955 61.4637 58.1637 61.6309C58.132 61.7981 58.0375 61.9469 57.8996 62.0467L47.0462 69.704L54.8662 65.1907C55.014 65.1096 55.1871 65.0874 55.3505 65.1288C55.5139 65.1701 55.6557 65.2719 55.7471 65.4135C55.8385 65.5551 55.8729 65.7262 55.8433 65.8921C55.8137 66.0581 55.7223 66.2067 55.5876 66.308L49.0996 70.948L56.0716 66.924C56.219 66.8395 56.3931 66.8146 56.5584 66.8542C56.7236 66.8938 56.8675 66.995 56.9606 67.1372C57.0537 67.2793 57.089 67.4516 57.0594 67.6189C57.0297 67.7862 56.9372 67.9359 56.8009 68.0373L51.2889 72.1093L51.8369 71.7947C51.9811 71.7136 52.1503 71.689 52.3116 71.7257C52.4729 71.7624 52.6148 71.8577 52.7097 71.9932C52.8046 72.1287 52.8458 72.2946 52.8252 72.4588C52.8046 72.6229 52.7237 72.7735 52.5982 72.8813L50.7182 74.4587C50.8483 74.5152 50.9565 74.6125 51.0262 74.736C51.1143 74.8888 51.1382 75.0704 51.0928 75.2408C51.0473 75.4112 50.9361 75.5567 50.7836 75.6453L45.9836 78.4173C45.8398 78.4955 45.6723 78.5181 45.513 78.4807C45.3536 78.4434 45.2136 78.3488 45.1195 78.2148C45.0255 78.0809 44.984 77.9171 45.0029 77.7545C45.0218 77.592 45.0999 77.442 45.2222 77.3333L45.8969 76.768L41.7249 79.1733C41.6238 79.2324 41.5087 79.2632 41.3916 79.2627Z" fill="#ABBAD3"/>
<path d="M43.9177 71.2934C43.7823 71.2935 43.65 71.2523 43.5385 71.1753C43.4271 71.0984 43.3417 70.9893 43.2938 70.8626C43.2459 70.7359 43.2377 70.5976 43.2703 70.4662C43.3029 70.3347 43.3748 70.2163 43.4764 70.1267L44.4444 69.272L41.0977 71.2C40.9628 71.2777 40.805 71.3057 40.6516 71.2792C40.4982 71.2527 40.3589 71.1733 40.2579 71.0549C40.1569 70.9364 40.1005 70.7864 40.0985 70.6308C40.0965 70.4751 40.1491 70.3237 40.247 70.2027L42.2377 67.7494L36.2577 71.2C36.1209 71.2785 35.9606 71.3059 35.8055 71.2774C35.6503 71.2488 35.5103 71.1662 35.4104 71.0442C35.3104 70.9221 35.257 70.7686 35.2595 70.6109C35.2621 70.4531 35.3205 70.3014 35.4244 70.1827L37.3617 67.9894L31.799 71.2C31.6671 71.2758 31.5133 71.3041 31.363 71.2804C31.2128 71.2567 31.0752 71.1823 30.973 71.0695C30.8709 70.9568 30.8104 70.8126 30.8015 70.6607C30.7927 70.5088 30.836 70.3585 30.9244 70.2347L32.8937 67.5014L26.7017 71.076C26.5617 71.1539 26.3983 71.1787 26.2414 71.1459C26.0846 71.1131 25.9448 71.0249 25.8477 70.8975C25.7505 70.7701 25.7025 70.612 25.7125 70.452C25.7224 70.2921 25.7896 70.1411 25.9017 70.0267L27.4337 68.492L25.167 69.7987C25.0392 69.8728 24.8905 69.9023 24.7441 69.8827C24.5977 69.8631 24.4619 69.7954 24.3582 69.6902C24.2544 69.5851 24.1885 69.4485 24.1708 69.3019C24.1531 69.1552 24.1846 69.0068 24.2604 68.88L25.2417 67.232C25.0882 67.3204 24.9059 67.3443 24.7349 67.2983C24.5639 67.2522 24.4181 67.1402 24.3297 66.9867C24.2413 66.8332 24.2175 66.6509 24.2635 66.4799C24.3095 66.3089 24.4216 66.1631 24.575 66.0747L26.783 64.8C26.9101 64.7248 27.0588 64.6946 27.2051 64.7142C27.3514 64.7338 27.4869 64.8021 27.5897 64.908C27.6934 65.013 27.7593 65.1494 27.7772 65.2959C27.795 65.4423 27.7638 65.5906 27.6884 65.7174L26.707 67.3667L31.1604 64.7974C31.3002 64.7205 31.463 64.6964 31.6192 64.7294C31.7753 64.7624 31.9145 64.8503 32.0113 64.9771C32.1082 65.104 32.1563 65.2614 32.1469 65.4207C32.1376 65.58 32.0714 65.7307 31.9604 65.8454L30.4204 67.3827L34.9164 64.8C35.0483 64.7243 35.2021 64.6959 35.3524 64.7197C35.5026 64.7434 35.6402 64.8178 35.7424 64.9305C35.8445 65.0433 35.905 65.1875 35.9139 65.3394C35.9227 65.4912 35.8794 65.6416 35.791 65.7654L33.8217 68.4987L40.2337 64.8C40.3706 64.7216 40.5308 64.6942 40.6859 64.7227C40.8411 64.7513 40.9811 64.8339 41.081 64.9559C41.181 65.078 41.2344 65.2315 41.2319 65.3892C41.2293 65.5469 41.1709 65.6987 41.067 65.8174L39.127 68.0094L44.6924 64.8C44.8273 64.7224 44.9851 64.6944 45.1385 64.7209C45.2919 64.7474 45.4311 64.8268 45.5322 64.9452C45.6332 65.0636 45.6896 65.2137 45.6915 65.3693C45.6935 65.525 45.641 65.6764 45.543 65.7974L43.5524 68.2507L49.5297 64.8C49.6727 64.7173 49.8414 64.6906 50.003 64.7252C50.1646 64.7597 50.3076 64.8531 50.4043 64.9871C50.5009 65.1212 50.5444 65.2863 50.5262 65.4506C50.5079 65.6148 50.4294 65.7664 50.3057 65.876L49.3377 66.7307L52.6844 64.8C52.8227 64.7217 52.9844 64.6954 53.1404 64.7258C53.2964 64.7562 53.4364 64.8413 53.5352 64.9658C53.634 65.0903 53.685 65.246 53.6791 65.4049C53.6732 65.5637 53.6108 65.7152 53.503 65.832L51.659 67.7974L55.4124 65.632C55.5414 65.5592 55.691 65.5315 55.8375 65.5532C55.984 65.5748 56.1192 65.6447 56.2216 65.7517C56.324 65.8587 56.3879 65.9968 56.4031 66.1441C56.4184 66.2915 56.3841 66.4397 56.3057 66.5654L54.947 68.6667L56.047 68.032C56.2001 67.945 56.3813 67.9221 56.5512 67.9682C56.7211 68.0143 56.8659 68.1258 56.9539 68.2782C57.0419 68.4307 57.0661 68.6118 57.0211 68.782C56.9761 68.9522 56.8656 69.0977 56.7137 69.1867L53.219 71.2C53.0896 71.2748 52.9387 71.3039 52.7907 71.2826C52.6427 71.2613 52.5062 71.1909 52.403 71.0827C52.2998 70.9743 52.2361 70.8344 52.2221 70.6854C52.208 70.5365 52.2445 70.3871 52.3257 70.2614L53.6844 68.1627L48.4204 71.2C48.2821 71.2784 48.1203 71.3047 47.9643 71.2743C47.8083 71.2439 47.6683 71.1588 47.5695 71.0343C47.4708 70.9098 47.4197 70.754 47.4256 70.5952C47.4315 70.4364 47.494 70.2849 47.6017 70.168L49.4457 68.2027L44.2457 71.2C44.1465 71.2595 44.0333 71.2917 43.9177 71.2934Z" fill="#D5DFF7"/>
<path d="M46.5411 27.02C46.4089 27.0202 46.2796 26.9812 46.1697 26.9078C46.0598 26.8344 45.9741 26.7299 45.9237 26.6077C45.8732 26.4856 45.8603 26.3511 45.8864 26.2216C45.9125 26.092 45.9766 25.9731 46.0704 25.88L46.7824 25.172L45.5371 25.8893C45.3991 25.9676 45.2376 25.9942 45.0818 25.9641C44.926 25.934 44.786 25.8494 44.687 25.7253C44.588 25.6013 44.5365 25.446 44.5418 25.2873C44.5471 25.1287 44.6088 24.9772 44.7158 24.86L46.1118 23.3547L44.8851 24.0613C44.748 24.1406 44.5871 24.1685 44.4313 24.1399C44.2755 24.1114 44.1349 24.0283 44.0348 23.9056C43.9347 23.7828 43.8816 23.6284 43.8849 23.4701C43.8883 23.3117 43.9479 23.1597 44.0531 23.0413L44.8771 22.108C44.7322 22.0546 44.6108 21.9516 44.5344 21.8173C44.4465 21.6643 44.4227 21.4827 44.4685 21.3122C44.5142 21.1418 44.6257 20.9964 44.7784 20.908L47.2558 19.4773C47.3929 19.3981 47.5538 19.3702 47.7096 19.3987C47.8654 19.4273 48.0059 19.5104 48.106 19.6331C48.2062 19.7558 48.2593 19.9102 48.256 20.0686C48.2526 20.2269 48.193 20.3789 48.0878 20.4973L47.7784 20.8467L49.2704 19.9853C49.4086 19.9061 49.5706 19.879 49.7271 19.9089C49.8835 19.9387 50.0241 20.0236 50.1234 20.1482C50.2226 20.2728 50.274 20.4288 50.2682 20.588C50.2624 20.7471 50.1998 20.899 50.0918 21.016L48.6958 22.5333L50.5238 21.4787C50.664 21.3998 50.828 21.3743 50.9855 21.4069C51.1431 21.4395 51.2835 21.5279 51.381 21.6559C51.4784 21.7839 51.5263 21.9428 51.5158 22.1033C51.5053 22.2638 51.4371 22.4151 51.3238 22.5293L50.6131 23.2373L50.7571 23.1533C50.9101 23.0663 51.0914 23.0434 51.2613 23.0895C51.4312 23.1356 51.5759 23.2471 51.664 23.3995C51.752 23.552 51.7761 23.7331 51.7311 23.9033C51.6861 24.0735 51.5756 24.219 51.4238 24.308L46.8744 26.9333C46.7731 26.9915 46.658 27.0214 46.5411 27.02Z" fill="white"/>
<path d="M69.4415 28.9333C67.1668 4.76801 48.2641 -2.52399 32.7801 1.77868C15.8921 6.47201 2.97346 24.8333 17.5575 46.968C20.8908 50.568 24.8348 54.1907 24.8161 59.5107C21.8828 60.544 20.9828 64.7987 24.5735 65.904C22.0695 68.14 24.4921 71.7547 27.5721 71.2867C29.6241 82.1467 50.8535 81.484 53.3801 71.2427C56.2508 71.4827 58.9468 67.98 56.5415 65.7094C57.2199 65.4744 57.8026 65.0236 58.2003 64.4258C58.5981 63.8281 58.7888 63.1164 58.7434 62.3999C58.6981 61.6833 58.419 61.0014 57.949 60.4587C57.4791 59.9159 56.8441 59.5421 56.1415 59.3947C57.7575 48.1013 71.1961 41.9387 69.4415 28.9333ZM13.8788 30.232C13.4175 25.6613 21.2121 21.4413 24.3828 18.4813C22.1767 21.5805 20.9558 25.2726 20.8795 29.076C20.8031 32.8794 21.8748 36.6175 23.9548 39.8027C20.2113 37.0453 16.8264 33.8316 13.8788 30.236V30.232ZM29.0628 42.9107C11.6641 26.3227 33.0508 3.86668 52.1841 15.948C69.0481 32.6373 48.2001 54.4427 29.0628 42.9147V42.9107ZM58.2175 37.408C59.6288 34.5126 60.2719 31.3029 60.0851 28.0872C59.8983 24.8715 58.8879 21.7579 57.1508 19.0453C70.9348 29.4453 69.2841 30.432 56.3281 40.368C57.0576 39.4501 57.6907 38.4595 58.2175 37.412V37.408ZM33.9988 2.54268C49.1815 -1.37466 65.3001 10.3013 67.2268 25.6293C52.5121 7.12534 28.1735 7.38134 13.6681 25.988C14.2701 20.476 16.5387 15.2787 20.1712 11.0897C23.8038 6.90056 28.6276 3.91894 33.9988 2.54268ZM39.9455 78.2253C35.8441 77.9587 30.2668 75.8027 29.5455 71.244C36.8646 71.244 44.1828 71.244 51.5001 71.244C51.1108 76.5947 44.4121 78.512 39.9455 78.2253ZM53.9961 70.092C48.9735 69.0254 25.8455 72.632 25.4628 67.8907C26.2841 64.0347 34.9775 66.9147 38.2721 66.068C41.3241 66.6814 61.1588 63.6854 53.9961 70.092ZM55.2455 64.6C50.3441 63.5334 23.6641 67.1654 24.1641 62.3867C25.4975 58.6774 40.3935 61.6293 44.6668 60.7347C48.0615 60.756 51.4668 60.7053 54.8535 60.7347C56.9628 60.9333 57.8108 64.3934 55.2455 64.6ZM62.0308 46.1187C58.6668 50.004 54.3655 53.688 54.2721 59.2533C45.1028 59.2853 35.9401 59.2533 26.7721 59.2533C25.8841 49.0307 13.8135 43.8974 13.7521 32.98C28.3055 51.7934 52.7868 51.0907 67.3108 32.7253C66.7647 37.5774 64.9429 42.1995 62.0308 46.1187Z" fill="#262626"/>
<path d="M47.4336 38.1707C49.4151 36.7534 50.878 34.7264 51.5989 32.3993C52.3198 30.0723 52.2589 27.5732 51.4256 25.284C53.7776 22.176 49.9923 18.2973 46.6256 19.704C22.475 10.5933 24.1336 50.3467 47.4336 38.1707ZM47.391 20.5333C50.0763 20.4653 51.2376 24.516 48.943 25.9093C48.8342 25.9677 48.722 26.0193 48.607 26.064C48.8736 25.9613 48.2403 26.1293 48.5163 26.0867C45.8336 26.4653 44.3923 22.5333 46.475 20.9333L46.7243 20.7587C46.7883 20.6773 47.3976 20.5307 47.151 20.5813C47.2296 20.5627 47.3256 20.5547 47.391 20.5333ZM33.4696 22.1933C34.911 20.6341 36.8467 19.6206 38.9493 19.3245C41.052 19.0283 43.1923 19.4676 45.0083 20.568C41.0643 23.6853 45.7816 29.072 49.755 26.672C53.1243 48.0213 21.3843 39.0267 33.4696 22.1933Z" fill="#262626"/>
</svg>
