<svg width="84" height="84" viewBox="0 0 84 84" fill="none" xmlns="http://www.w3.org/2000/svg">
<g clip-path="url(#clip0_823_412)">
<path d="M34.972 73.5C34.8251 73.5 34.6819 73.4538 34.5627 73.3679C34.4435 73.282 34.3544 73.1608 34.3079 73.0214C34.2614 72.882 34.26 72.7315 34.3038 72.5913C34.3476 72.4511 34.4344 72.3282 34.552 72.24L41.72 66.8976L32.592 72.1672C32.4351 72.2582 32.2491 72.2848 32.073 72.2414C31.8969 72.198 31.7446 72.0879 31.648 71.9344C31.5515 71.7809 31.5183 71.5959 31.5554 71.4184C31.5926 71.2409 31.6972 71.0847 31.8472 70.9828L36.0654 68.1044L32.592 70.1078C32.435 70.1973 32.2495 70.2226 32.0743 70.1784C31.8991 70.1343 31.7478 70.0241 31.652 69.871C31.5561 69.7178 31.5232 69.5335 31.5601 69.3567C31.597 69.1798 31.7009 69.0241 31.85 68.922L35.3402 66.556L32.592 68.1422C32.4368 68.2305 32.2538 68.2561 32.0804 68.2139C31.907 68.1717 31.7562 68.0649 31.6589 67.9152C31.5617 67.7656 31.5253 67.5844 31.5571 67.4088C31.589 67.2332 31.6867 67.0764 31.8304 66.9704L40.46 60.704L32.592 65.2498C32.4366 65.3357 32.2544 65.3593 32.0822 65.3159C31.9101 65.2725 31.7608 65.1653 31.6647 65.016C31.5687 64.8667 31.5329 64.6865 31.5647 64.5118C31.5965 64.3371 31.6934 64.1811 31.836 64.0752L39.2196 58.8L32.592 62.6304C32.4349 62.7185 32.2499 62.7426 32.0755 62.6978C31.9011 62.653 31.7506 62.5427 31.6555 62.3898C31.5603 62.2369 31.5277 62.0533 31.5644 61.877C31.6012 61.7007 31.7044 61.5453 31.8528 61.4432L32.9532 60.7068L32.592 60.9154C32.4349 61.0085 32.2476 61.0365 32.0701 60.9935C31.8927 60.9504 31.7391 60.8397 31.6421 60.685C31.5451 60.5303 31.5124 60.3438 31.551 60.1653C31.5895 59.9868 31.6963 59.8305 31.8486 59.7296L33.9556 58.3016L32.592 59.087C32.4367 59.174 32.2541 59.1987 32.0813 59.1558C31.9086 59.113 31.7586 59.006 31.6619 58.8566C31.5653 58.7071 31.5292 58.5264 31.561 58.3513C31.5928 58.1762 31.6901 58.0197 31.8332 57.9138L37.3576 53.9308L32.5976 56.6804C32.4428 56.7671 32.2609 56.7919 32.0887 56.7496C31.9164 56.7074 31.7666 56.6013 31.6695 56.4529C31.5724 56.3044 31.5353 56.1246 31.5657 55.9499C31.5961 55.7751 31.6917 55.6184 31.8332 55.5114L36.645 51.9722L32.5962 54.3102C32.4408 54.3994 32.2572 54.4256 32.0831 54.3835C31.909 54.3413 31.7577 54.2341 31.6603 54.0837C31.5629 53.9334 31.5268 53.7515 31.5595 53.5754C31.5922 53.3993 31.6911 53.2424 31.836 53.137L34.0578 51.52L32.7978 52.2452C32.6434 52.3324 32.4616 52.3577 32.2892 52.3161C32.1168 52.2745 31.9667 52.169 31.8691 52.0209C31.7715 51.8728 31.7338 51.6932 31.7635 51.5184C31.7932 51.3436 31.8881 51.1865 32.0292 51.079L33.327 50.1102C33.1739 50.171 33.0043 50.1758 32.848 50.1239C32.6917 50.0719 32.5588 49.9666 32.4725 49.8263C32.3862 49.686 32.3522 49.5198 32.3763 49.3569C32.4005 49.194 32.4813 49.0448 32.6046 48.9356L34.811 46.9756C34.6632 46.9171 34.5395 46.8106 34.4596 46.6732C34.3668 46.5124 34.3416 46.3214 34.3896 46.1421C34.4377 45.9627 34.555 45.8098 34.7158 45.717L39.144 43.162C39.2941 43.0764 39.4706 43.0494 39.6395 43.0862C39.8084 43.123 39.9577 43.2209 40.0587 43.3612C40.1596 43.5014 40.2052 43.6741 40.1865 43.8459C40.1678 44.0177 40.0862 44.1766 39.9574 44.2918L38.7408 45.3684L42.8638 42.9884C43.0182 42.9012 43.1999 42.8759 43.3723 42.9175C43.5447 42.9592 43.6949 43.0647 43.7924 43.2127C43.89 43.3608 43.9278 43.5404 43.8981 43.7152C43.8684 43.8901 43.7734 44.0471 43.6324 44.1546L42.3808 45.0884L45.0884 43.54C45.2437 43.4509 45.4273 43.4246 45.6014 43.4668C45.7755 43.5089 45.9269 43.6162 46.0243 43.7665C46.1217 43.9168 46.1577 44.0987 46.1251 44.2749C46.0924 44.451 45.9934 44.6078 45.8486 44.7132L43.6254 46.3232L46.9126 44.4248C47.0673 44.3381 47.2492 44.3134 47.4215 44.3556C47.5938 44.3978 47.7436 44.5039 47.8407 44.6524C47.9377 44.8008 47.9748 44.9806 47.9444 45.1554C47.9141 45.3301 47.8185 45.4868 47.677 45.5938L42.861 49.1358L48.636 45.8024C48.7912 45.7154 48.9738 45.6908 49.1466 45.7336C49.3194 45.7764 49.4693 45.8834 49.566 46.0329C49.6627 46.1823 49.6988 46.363 49.667 46.5381C49.6352 46.7133 49.5378 46.8697 49.3948 46.9756L43.8704 50.96L49.9226 47.46C50.0797 47.3669 50.2669 47.3389 50.4444 47.382C50.6219 47.425 50.7755 47.5357 50.8725 47.6904C50.9695 47.8451 51.0022 48.0316 50.9636 48.2101C50.925 48.3886 50.8182 48.545 50.666 48.6458L48.566 50.0682L50.596 48.8978C50.7531 48.8098 50.938 48.7856 51.1125 48.8304C51.2869 48.8752 51.4373 48.9856 51.5325 49.1384C51.6277 49.2913 51.6603 49.475 51.6235 49.6513C51.5868 49.8276 51.4835 49.9829 51.3352 50.085L50.225 50.8284L51.1014 50.3216C51.2571 50.2328 51.4409 50.2071 51.615 50.2498C51.7891 50.2925 51.9401 50.4003 52.037 50.5511C52.134 50.7019 52.1694 50.8841 52.1359 51.0602C52.1025 51.2363 52.0028 51.3928 51.8574 51.4976L44.4766 56.7658L51.4066 52.7646C51.5617 52.6764 51.7447 52.6507 51.9181 52.6929C52.0916 52.7351 52.2423 52.8419 52.3396 52.9916C52.4369 53.1413 52.4733 53.3224 52.4414 53.498C52.4096 53.6737 52.3118 53.8305 52.1682 53.9364L43.54 60.2098L51.4206 55.6598C51.5775 55.5704 51.763 55.5451 51.9382 55.5892C52.1134 55.6333 52.2647 55.7435 52.3606 55.8967C52.4564 56.0498 52.4893 56.2341 52.4524 56.411C52.4155 56.5878 52.3117 56.7436 52.1626 56.8456L48.6752 59.2088L51.4248 57.6226C51.5816 57.5316 51.7677 57.505 51.9438 57.5484C52.1198 57.5918 52.2722 57.7019 52.3687 57.8554C52.4653 58.0089 52.4984 58.1939 52.4613 58.3714C52.4242 58.5489 52.3196 58.7051 52.1696 58.807L47.943 61.691L51.4276 59.6806C51.5823 59.5906 51.7655 59.5633 51.9398 59.6042C52.114 59.6452 52.2659 59.7513 52.3643 59.9008C52.4627 60.0502 52.5001 60.2317 52.4688 60.408C52.4376 60.5842 52.34 60.7417 52.1962 60.8482L45.0352 66.1794L51.4346 62.4848C51.5864 62.3975 51.7653 62.3703 51.9362 62.4085C52.1071 62.4467 52.2574 62.5475 52.3576 62.6911C52.4578 62.8347 52.5005 63.0106 52.4774 63.1842C52.4542 63.3577 52.3669 63.5163 52.2326 63.6286L46.893 68.0666L51.4402 65.4416C51.5881 65.3539 51.7631 65.3237 51.9319 65.3568C52.1007 65.3899 52.2513 65.4839 52.3552 65.621C52.459 65.7581 52.5088 65.9286 52.4949 66.1C52.4811 66.2714 52.4047 66.4318 52.2802 66.5504L49.4018 69.3406L51.45 68.1604C51.5855 68.082 51.7434 68.0513 51.8984 68.0732C52.0534 68.0951 52.1966 68.1683 52.3051 68.2812C52.4136 68.394 52.4812 68.54 52.497 68.6958C52.5127 68.8515 52.4758 69.0081 52.3922 69.1404L51.38 70.7392L51.4542 70.6972C51.5338 70.6466 51.6229 70.6126 51.7161 70.5972C51.8093 70.5819 51.9045 70.5856 51.9962 70.6081C52.0879 70.6305 52.1741 70.6713 52.2497 70.7279C52.3252 70.7846 52.3885 70.8559 52.4357 70.9376C52.483 71.0194 52.5132 71.1098 52.5246 71.2035C52.536 71.2973 52.5283 71.3923 52.502 71.483C52.4757 71.5737 52.4313 71.6581 52.3715 71.7311C52.3118 71.8042 52.2378 71.8645 52.1542 71.9082L49.6244 73.3684C49.4889 73.4462 49.3313 73.4763 49.1766 73.4542C49.022 73.432 48.8792 73.3587 48.771 73.246C48.6629 73.1333 48.5955 72.9877 48.5796 72.8323C48.5638 72.6769 48.6004 72.5206 48.6836 72.3884L49.693 70.7868L45.206 73.3768C45.0581 73.4645 44.883 73.4947 44.7143 73.4616C44.5455 73.4285 44.3948 73.3345 44.291 73.1974C44.1871 73.0603 44.1374 72.8898 44.1512 72.7184C44.165 72.547 44.2415 72.3867 44.366 72.268L47.2416 69.4792L40.4726 73.388C40.3208 73.4738 40.1425 73.4999 39.9726 73.4612C39.8026 73.4225 39.6532 73.3218 39.5536 73.1787C39.454 73.0357 39.4113 72.8606 39.4339 72.6878C39.4566 72.515 39.5429 72.3568 39.676 72.2442L45.0142 67.8062L35.3262 73.4062C35.2188 73.469 35.0964 73.5014 34.972 73.5Z" fill="#A9725E"/>
<path d="M60.0081 59.4735C59.8578 59.4737 59.7115 59.4255 59.5907 59.336C59.4699 59.2466 59.3811 59.1206 59.3375 58.9768C59.2938 58.8329 59.2976 58.6789 59.3483 58.5374C59.399 58.3959 59.4939 58.2745 59.6189 58.1911L59.6847 58.1491L58.7691 58.6769C58.612 58.77 58.4248 58.798 58.2473 58.7549C58.0699 58.7119 57.9162 58.6012 57.8192 58.4465C57.7222 58.2918 57.6895 58.1053 57.7281 57.9268C57.7667 57.7483 57.8735 57.5919 58.0257 57.4911L58.9861 56.8443L58.2791 57.2517C58.1219 57.3428 57.9354 57.3692 57.7591 57.3253C57.5828 57.2815 57.4304 57.1707 57.3342 57.0165C57.238 56.8624 57.2056 56.6768 57.2437 56.4992C57.2818 56.3215 57.3876 56.1656 57.5385 56.0645L57.8913 55.8279C57.743 55.8749 57.5833 55.8719 57.4368 55.8193C57.2904 55.7667 57.1652 55.6674 57.0807 55.5367C56.9838 55.3841 56.9496 55.2 56.9854 55.0228C57.0211 54.8456 57.124 54.6891 57.2725 54.5861L58.9091 53.4535L57.8759 54.0485C57.7206 54.1344 57.5383 54.158 57.3662 54.1146C57.194 54.0712 57.0448 53.964 56.9487 53.8147C56.8526 53.6654 56.8169 53.4852 56.8486 53.3105C56.8804 53.1358 56.9774 52.9797 57.1199 52.8739L58.8223 51.6601L57.7919 52.2551C57.6445 52.339 57.4717 52.3666 57.3055 52.3326C57.1393 52.2986 56.9911 52.2055 56.8884 52.0705C56.7857 51.9355 56.7356 51.7678 56.7473 51.5985C56.759 51.4293 56.8317 51.2701 56.9519 51.1505L60.9447 47.2305L58.7047 48.5255C58.6251 48.5761 58.536 48.6101 58.4428 48.6255C58.3497 48.6408 58.2544 48.6371 58.1627 48.6146C58.071 48.5922 57.9848 48.5514 57.9092 48.4948C57.8337 48.4381 57.7704 48.3668 57.7232 48.2851C57.6759 48.2033 57.6457 48.1129 57.6343 48.0192C57.6229 47.9254 57.6306 47.8304 57.6569 47.7397C57.6832 47.649 57.7276 47.5646 57.7874 47.4916C57.8472 47.4185 57.9211 47.3582 58.0047 47.3145L65.0047 43.2699C65.1521 43.186 65.325 43.1584 65.4912 43.1924C65.6574 43.2263 65.8056 43.3195 65.9083 43.4545C66.0109 43.5895 66.0611 43.7572 66.0494 43.9264C66.0377 44.0956 65.965 44.2549 65.8447 44.3745L61.8533 48.2945L70.8679 43.0893C71.0236 43.0005 71.2075 42.9748 71.3815 43.0175C71.5556 43.0602 71.7067 43.168 71.8036 43.3188C71.9005 43.4696 71.9359 43.6518 71.9025 43.8279C71.8691 44.004 71.7694 44.1605 71.6239 44.2653L69.9285 45.4721L72.9077 43.7529C73.0642 43.6618 73.2499 43.6349 73.4258 43.6779C73.6017 43.7208 73.7541 43.8302 73.851 43.9831C73.948 44.1361 73.9819 44.3206 73.9457 44.498C73.9094 44.6754 73.8059 44.8318 73.6567 44.9345L72.0145 46.0713L74.3945 44.6965C74.5514 44.6096 74.7356 44.5862 74.9092 44.6312C75.0827 44.6761 75.2324 44.7859 75.3274 44.938C75.4224 45.0901 75.4554 45.2728 75.4196 45.4485C75.3839 45.6242 75.282 45.7795 75.1351 45.8823L74.9657 45.9971L75.5005 45.6891C75.6572 45.6032 75.8407 45.5805 76.0135 45.6255C76.1863 45.6705 76.3354 45.7799 76.4302 45.9313C76.5251 46.0826 76.5584 46.2645 76.5235 46.4397C76.4887 46.6148 76.3881 46.77 76.2425 46.8735L75.2793 47.5231L77.3793 46.3121C77.537 46.2139 77.7271 46.1823 77.908 46.2243C78.0889 46.2663 78.2457 46.3785 78.3439 46.5361C78.4422 46.6937 78.4737 46.8839 78.4317 47.0648C78.3897 47.2457 78.2776 47.4025 78.1199 47.5007L78.0555 47.5413L78.4755 47.2963C78.6288 47.208 78.8098 47.1811 78.9822 47.2208C79.1545 47.2606 79.3055 47.3641 79.4046 47.5106C79.5037 47.657 79.5437 47.8356 79.5166 48.0104C79.4894 48.1852 79.3971 48.3432 79.2581 48.4527L73.1737 53.2267L79.3799 49.6511C79.5291 49.5645 79.7049 49.536 79.8737 49.571C80.0425 49.606 80.1925 49.7022 80.2948 49.8409C80.3972 49.9797 80.4447 50.1514 80.4283 50.323C80.4119 50.4947 80.3327 50.6542 80.2059 50.7711L75.5999 55.0201L79.3365 52.8641C79.474 52.7848 79.6344 52.7547 79.7913 52.7785C79.9482 52.8024 80.0923 52.8788 80.2 52.9954C80.3078 53.1119 80.3727 53.2616 80.3842 53.4198C80.3957 53.5781 80.3531 53.7356 80.2633 53.8665L78.3817 56.6035L78.8199 56.3515C78.9799 56.2678 79.166 56.2492 79.3394 56.2995C79.5128 56.3498 79.6601 56.4651 79.7504 56.6214C79.8408 56.7777 79.8673 56.9629 79.8243 57.1383C79.7814 57.3136 79.6723 57.4656 79.5199 57.5625L76.4049 59.3601C76.2674 59.4393 76.1071 59.4695 75.9502 59.4456C75.7933 59.4218 75.6492 59.3453 75.5415 59.2288C75.4337 59.1123 75.3688 58.9626 75.3573 58.8043C75.3458 58.6461 75.3884 58.4886 75.4781 58.3577L77.3597 55.6193L70.8735 59.3643C70.7244 59.4509 70.5486 59.4794 70.3798 59.4444C70.2109 59.4093 70.061 59.3132 69.9586 59.1744C69.8563 59.0357 69.8088 58.864 69.8252 58.6924C69.8416 58.5207 69.9208 58.3612 70.0475 58.2443L74.6493 53.9911L65.3351 59.3699C65.1819 59.4582 65.0008 59.4851 64.8285 59.4454C64.6561 59.4056 64.5052 59.3021 64.4061 59.1556C64.307 59.0091 64.267 58.8305 64.2941 58.6558C64.3213 58.481 64.4136 58.323 64.5525 58.2135L70.6397 53.4381L60.3581 59.3741C60.2524 59.4379 60.1316 59.4722 60.0081 59.4735Z" fill="#A9725E"/>
<path d="M56.942 83.3001C56.7951 83.3001 56.6519 83.2538 56.5327 83.1679C56.4135 83.082 56.3244 82.9608 56.2779 82.8214C56.2314 82.6821 56.23 82.5316 56.2738 82.3914C56.3176 82.2511 56.4045 82.1282 56.522 82.0401L63.802 76.5801L55.1752 81.5599C55.0211 81.6476 54.8394 81.6736 54.6669 81.6325C54.4944 81.5915 54.3439 81.4865 54.2458 81.3388C54.1477 81.1911 54.1093 81.0117 54.1384 80.8368C54.1674 80.6619 54.2618 80.5045 54.4024 80.3965L59.8386 76.2847L55.4734 78.8047C55.3184 78.8942 55.1349 78.921 54.9608 78.8794C54.7866 78.8379 54.635 78.7312 54.5371 78.5813C54.4393 78.4314 54.4025 78.2497 54.4345 78.0736C54.4664 77.8974 54.5647 77.7402 54.709 77.6343L55.612 76.9721C55.4597 77.0404 55.288 77.0521 55.1279 77.005C54.9678 76.9579 54.8298 76.8552 54.7387 76.7153C54.6477 76.5755 54.6096 76.4077 54.6313 76.2422C54.6531 76.0767 54.7333 75.9245 54.8574 75.8129L57.46 73.4651C57.3393 73.415 57.2351 73.3321 57.159 73.2259C57.083 73.1196 57.0382 72.9942 57.0298 72.8638C57.0213 72.7334 57.0496 72.6033 57.1112 72.4881C57.1729 72.3729 57.2656 72.2773 57.3788 72.2121L61.5214 69.8195C61.6703 69.7386 61.8435 69.7144 62.0089 69.7516C62.1743 69.7887 62.3206 69.8846 62.4206 70.0214C62.5206 70.1582 62.5677 70.3266 62.5529 70.4955C62.5381 70.6643 62.4626 70.8221 62.3404 70.9395L60.7108 72.4095L65.8768 69.4401C66.0318 69.3505 66.2152 69.3238 66.3894 69.3653C66.5635 69.4068 66.7151 69.5135 66.813 69.6634C66.9109 69.8133 66.9477 69.995 66.9157 70.1712C66.8837 70.3473 66.7855 70.5045 66.6412 70.6105L65.769 71.2517L68.9064 69.4401C69.0605 69.3524 69.2421 69.3264 69.4146 69.3674C69.5871 69.4084 69.7376 69.5134 69.8357 69.6611C69.9339 69.8088 69.9723 69.9882 69.9432 70.1631C69.9141 70.3381 69.8198 70.4954 69.6792 70.6035L64.243 74.7139L73.203 69.5409C73.3575 69.4517 73.5402 69.4249 73.7138 69.4659C73.8874 69.5069 74.0388 69.6126 74.137 69.7614C74.2353 69.9103 74.2731 70.0911 74.2426 70.2668C74.2121 70.4425 74.1157 70.6 73.973 70.7071L66.7 76.1671L76.6036 70.4495C76.7607 70.3564 76.948 70.3284 77.1254 70.3714C77.3029 70.4145 77.4565 70.5252 77.5535 70.6799C77.6505 70.8346 77.6832 71.0211 77.6446 71.1996C77.606 71.3781 77.4992 71.5344 77.347 71.6353L76.227 72.3927L78.0778 71.3231C78.2303 71.234 78.4108 71.2059 78.5831 71.2443C78.7555 71.2827 78.9069 71.3848 79.0072 71.5302C79.1074 71.6756 79.149 71.8535 79.1236 72.0282C79.0982 72.203 79.0077 72.3616 78.8702 72.4725L72.5534 77.6147L80.0896 73.2635C80.2436 73.1745 80.4256 73.1475 80.5988 73.1879C80.7719 73.2283 80.9232 73.3331 81.0219 73.481C81.1207 73.6289 81.1594 73.8088 81.1303 73.9842C81.1012 74.1596 81.0064 74.3174 80.8652 74.4255L78.0876 76.5465L81.0962 74.8105C81.2462 74.7251 81.4224 74.6982 81.5911 74.7349C81.7597 74.7715 81.9088 74.8692 82.0099 75.0091C82.1109 75.149 82.1567 75.3213 82.1384 75.4929C82.1202 75.6645 82.0392 75.8233 81.911 75.9389L79.0046 78.5135L81.8858 76.8517C82.0244 76.7723 82.186 76.7427 82.3438 76.7678C82.5016 76.793 82.646 76.8713 82.7531 76.9898C82.8602 77.1084 82.9235 77.26 82.9326 77.4195C82.9416 77.579 82.8958 77.7368 82.8028 77.8667L81.0234 80.3293L82.2036 79.6489C82.3636 79.5652 82.5497 79.5465 82.7231 79.5969C82.8965 79.6472 83.0437 79.7625 83.1341 79.9188C83.2244 80.0751 83.2509 80.2603 83.208 80.4357C83.165 80.611 83.056 80.763 82.9036 80.8599L78.8884 83.1783C78.7497 83.2584 78.5878 83.2886 78.4296 83.2638C78.2714 83.2389 78.1265 83.1606 78.0191 83.0419C77.9116 82.9231 77.8481 82.7711 77.8392 82.6112C77.8303 82.4514 77.8764 82.2932 77.97 82.1633L79.7508 79.6993L73.7084 83.1867C73.5582 83.2736 73.3811 83.3016 73.2114 83.2653C73.0417 83.229 72.8916 83.131 72.7901 82.9902C72.6886 82.8495 72.643 82.6761 72.6621 82.5036C72.6812 82.3312 72.7637 82.1719 72.8936 82.0569L75.7972 79.4865L69.3726 83.1951C69.2186 83.284 69.0366 83.311 68.8634 83.2706C68.6902 83.2302 68.5389 83.1254 68.4402 82.9775C68.3415 82.8297 68.3028 82.6497 68.3319 82.4743C68.361 82.2989 68.4558 82.1411 68.597 82.0331L71.3746 79.9107L65.6752 83.2021C65.523 83.2875 65.3443 83.3131 65.1743 83.2736C65.0042 83.2342 64.8551 83.1326 64.756 82.9889C64.657 82.8451 64.6152 82.6696 64.6389 82.4966C64.6626 82.3237 64.7501 82.1659 64.8842 82.0541L71.1996 76.9119L60.2866 83.2119C60.1295 83.305 59.9422 83.333 59.7648 83.2899C59.5873 83.2469 59.4337 83.1362 59.3367 82.9815C59.2397 82.8267 59.207 82.6402 59.2456 82.4618C59.2842 82.2833 59.391 82.1269 59.5432 82.0261L60.6632 81.2645L57.2836 83.2161C57.1789 83.2732 57.0612 83.3022 56.942 83.3001Z" fill="#4B95FF"/>
<path d="M69.1489 74.7501C69.0135 74.7501 68.881 74.7108 68.7675 74.637C68.654 74.5632 68.5644 74.4581 68.5094 74.3344C68.4544 74.2106 68.4365 74.0736 68.4578 73.94C68.4791 73.8063 68.5388 73.6816 68.6295 73.5811L69.2665 72.8741L66.9719 74.1999C66.8206 74.2848 66.6433 74.3105 66.4742 74.272C66.3051 74.2336 66.1563 74.1338 66.0566 73.9919C65.9569 73.85 65.9134 73.6762 65.9346 73.5041C65.9557 73.332 66.04 73.1739 66.1711 73.0603L66.2915 72.9567L65.8001 73.2367C65.6478 73.3253 65.4677 73.3532 65.2957 73.3148C65.1238 73.2764 64.9726 73.1746 64.8724 73.0297C64.7722 72.8848 64.7303 72.7075 64.7551 72.533C64.78 72.3586 64.8696 72.2 65.0063 72.0887L65.7329 71.4909L65.0511 71.8857C64.9099 71.9676 64.7446 71.9976 64.5837 71.9705C64.4228 71.9435 64.2764 71.8611 64.1698 71.7376C64.0633 71.614 64.0032 71.4571 63.9999 71.294C63.9967 71.1309 64.0506 70.9718 64.1523 70.8441L66.2033 68.2667L64.7921 69.0801C64.6722 69.1493 64.5345 69.1814 64.3965 69.1723C64.2584 69.1633 64.1261 69.1136 64.0163 69.0294C63.9065 68.9452 63.8241 68.8303 63.7795 68.6993C63.7349 68.5683 63.7302 68.427 63.7659 68.2933L64.1439 66.8779C64.0283 66.8234 63.9299 66.7383 63.8593 66.6319C63.7887 66.5255 63.7485 66.4017 63.7432 66.2741C63.7378 66.1465 63.7675 66.0198 63.829 65.9079C63.8905 65.7959 63.9815 65.7029 64.0921 65.6389L64.7921 65.2315C64.9118 65.1621 65.0495 65.1297 65.1876 65.1385C65.3258 65.1473 65.4582 65.1969 65.5682 65.281C65.6782 65.365 65.7608 65.4798 65.8056 65.6108C65.8503 65.7418 65.8552 65.8831 65.8197 66.0169L65.5495 67.0235L68.6883 65.2119C68.8294 65.1301 68.9947 65.1001 69.1556 65.1271C69.3165 65.1542 69.4629 65.2366 69.5695 65.3601C69.6761 65.4836 69.7362 65.6405 69.7394 65.8037C69.7426 65.9668 69.6887 66.1259 69.5871 66.2535L67.5375 68.8295L72.4025 66.0211C72.5548 65.9326 72.7349 65.9047 72.9068 65.9431C73.0788 65.9814 73.2299 66.0832 73.3301 66.2281C73.4303 66.373 73.4722 66.5504 73.4474 66.7248C73.4226 66.8993 73.3329 67.0579 73.1963 67.1691L72.4529 67.7795C72.6063 67.7075 72.7806 67.6936 72.9436 67.7403C73.1065 67.7871 73.2469 67.8914 73.3387 68.0339C73.4306 68.1763 73.4676 68.3473 73.4429 68.515C73.4183 68.6827 73.3336 68.8357 73.2047 68.9457L72.7203 69.3545C72.8271 69.3534 72.9329 69.3761 73.0298 69.4212C73.1267 69.4663 73.2123 69.5325 73.2803 69.6149C73.3849 69.7446 73.4398 69.9073 73.4352 70.0739C73.4306 70.2404 73.3667 70.3999 73.2551 70.5235L72.0763 71.8325C72.2004 71.8788 72.3088 71.9593 72.3889 72.0647C72.4691 72.1701 72.5177 72.2961 72.5292 72.428C72.5406 72.56 72.5144 72.6924 72.4535 72.81C72.3927 72.9277 72.2997 73.0256 72.1855 73.0925L69.4877 74.6507C69.3853 74.7127 69.2685 74.7469 69.1489 74.7501Z" fill="#EABEA3"/>
<path d="M70.1288 69.0201C69.9907 69.0203 69.8556 68.9797 69.7405 68.9033C69.6254 68.8269 69.5355 68.7182 69.482 68.5909C69.4286 68.4635 69.414 68.3231 69.4402 68.1875C69.4663 68.0519 69.532 67.927 69.629 67.8287L71.2096 66.2229L66.7618 68.7961C66.6077 68.8838 66.4261 68.9097 66.2536 68.8687C66.0811 68.8277 65.9305 68.7227 65.8324 68.575C65.7343 68.4273 65.6959 68.2479 65.725 68.073C65.754 67.8981 65.8484 67.7407 65.989 67.6327L68.894 65.4319L64.834 67.7741C64.6819 67.8606 64.5029 67.8871 64.3323 67.8482C64.1617 67.8094 64.0118 67.708 63.9122 67.5641C63.8126 67.4203 63.7705 67.2443 63.7942 67.0709C63.8179 66.8976 63.9057 66.7393 64.0402 66.6275L70.1876 61.6001L63.0364 65.7301C62.8837 65.8168 62.7039 65.8429 62.5328 65.8033C62.3617 65.7637 62.2117 65.6611 62.1127 65.5161C62.0136 65.371 61.9727 65.1941 61.9981 65.0203C62.0235 64.8465 62.1132 64.6886 62.2496 64.5779L67.7684 60.1595L62.16 63.3963C62.0046 63.4854 61.821 63.5116 61.6469 63.4695C61.4728 63.4274 61.3215 63.3201 61.2241 63.1698C61.1267 63.0195 61.0906 62.8375 61.1233 62.6614C61.156 62.4853 61.2549 62.3284 61.3998 62.2231L63.294 60.8567L61.257 62.0327C61.104 62.1216 60.9231 62.1493 60.7505 62.1102C60.578 62.0711 60.4266 61.9681 60.3269 61.8219C60.2272 61.6757 60.1866 61.4972 60.2132 61.3223C60.2397 61.1474 60.3316 60.989 60.4702 60.8791L65.5956 56.7897L59.4202 60.3541C59.2711 60.4407 59.0953 60.4692 58.9264 60.4341C58.7576 60.3991 58.6076 60.303 58.5053 60.1642C58.4029 60.0254 58.3554 59.8538 58.3718 59.6821C58.3882 59.5105 58.4674 59.3509 58.5942 59.2341L62.7508 55.3491L62.1082 55.7201C61.963 55.8033 61.7927 55.8317 61.6283 55.8001C61.464 55.7686 61.3163 55.6792 61.2122 55.5481C61.1081 55.4171 61.0544 55.2531 61.0608 55.0858C61.0672 54.9186 61.1333 54.7591 61.2472 54.6365L62.7872 52.9817C62.6602 52.9378 62.5486 52.8583 62.4656 52.7527C62.3825 52.6472 62.3316 52.5199 62.3189 52.3862C62.3063 52.2525 62.3323 52.1179 62.394 51.9986C62.4557 51.8793 62.5504 51.7802 62.6668 51.7133L65.5788 50.0333C65.724 49.9501 65.8943 49.9217 66.0587 49.9532C66.223 49.9848 66.3707 50.0742 66.4748 50.2052C66.5789 50.3362 66.6326 50.5003 66.6262 50.6675C66.6198 50.8348 66.5537 50.9942 66.4398 51.1169L65.4598 52.1655L67.347 51.0749C67.4961 50.987 67.6725 50.9575 67.8422 50.992C68.0118 51.0266 68.1626 51.1228 68.2654 51.262C68.3683 51.4012 68.4159 51.5736 68.3991 51.7459C68.3823 51.9182 68.3022 52.0781 68.1744 52.1949L64.0164 56.0799L72.9638 50.9139C73.1165 50.8271 73.2963 50.801 73.4674 50.8406C73.6385 50.8803 73.7885 50.9828 73.8875 51.1278C73.9866 51.2729 74.0275 51.4499 74.0021 51.6237C73.9767 51.7975 73.887 51.9554 73.7506 52.0661L68.6252 56.1555L74.4926 52.7689C74.648 52.6797 74.8316 52.6535 75.0057 52.6956C75.1798 52.7378 75.3311 52.845 75.4285 52.9953C75.5259 53.1457 75.562 53.3276 75.5293 53.5037C75.4966 53.6798 75.3976 53.8367 75.2528 53.9421L73.3558 55.3113L75.0484 54.3313C75.2012 54.2429 75.3817 54.2155 75.5538 54.2546C75.726 54.2937 75.877 54.3963 75.9766 54.542C76.0763 54.6877 76.1172 54.8656 76.0913 55.0402C76.0653 55.2148 75.9743 55.3731 75.8366 55.4835L70.322 59.9075L76.9678 56.0729C77.1198 55.9878 77.2981 55.9624 77.4679 56.0018C77.6376 56.0411 77.7865 56.1424 77.8856 56.2857C77.9846 56.429 78.0267 56.6042 78.0035 56.7768C77.9803 56.9495 77.8936 57.1073 77.7602 57.2195L71.6142 62.2441L77.9142 58.6111C78.0683 58.5234 78.2499 58.4974 78.4224 58.5384C78.5949 58.5794 78.7455 58.6844 78.8436 58.8321C78.9417 58.9798 78.9801 59.1592 78.951 59.3341C78.922 59.5091 78.8276 59.6664 78.687 59.7745L75.3004 62.3407C75.4141 62.33 75.5285 62.3495 75.6322 62.3972C75.736 62.4449 75.8253 62.5191 75.8912 62.6123C75.9946 62.7461 76.046 62.9129 76.036 63.0817C76.0259 63.2505 75.9551 63.41 75.8366 63.5307L73.8234 65.5775C73.9239 65.5947 74.0194 65.6341 74.1029 65.6927C74.1864 65.7512 74.2559 65.8276 74.3064 65.9163C74.3993 66.0769 74.4247 66.2678 74.3769 66.4471C74.3292 66.6264 74.2121 66.7794 74.0516 66.8725L70.4858 68.9291C70.3773 68.9914 70.2539 69.0229 70.1288 69.0201Z" fill="#F9D2B6"/>
<path d="M7.44097 59.472C7.29405 59.472 7.15086 59.4258 7.03167 59.3399C6.91248 59.254 6.82335 59.1328 6.77689 58.9934C6.73043 58.854 6.729 58.7036 6.77281 58.5633C6.81661 58.4231 6.90343 58.3002 7.02097 58.212L14.4004 52.5952L5.27657 57.8662C5.11963 57.9571 4.93357 57.9835 4.75756 57.9398C4.58156 57.8962 4.42934 57.786 4.33297 57.6324C4.23641 57.4788 4.20332 57.2936 4.24067 57.116C4.27802 56.9384 4.38289 56.7822 4.53317 56.6804L5.59997 55.9594L4.92517 56.3486C4.76903 56.4398 4.58367 56.4671 4.4079 56.4247C4.23213 56.3822 4.07959 56.2735 3.98223 56.1211C3.88488 55.9687 3.85026 55.7846 3.88562 55.6073C3.92099 55.4299 4.0236 55.2732 4.17197 55.1698L7.34857 52.9298L4.69557 54.46C4.5424 54.5451 4.36293 54.5695 4.19259 54.5287C4.02225 54.4878 3.87341 54.3846 3.77547 54.2394C3.67753 54.0941 3.63761 53.9174 3.66358 53.7442C3.68956 53.571 3.77954 53.4138 3.91577 53.3036L9.14897 49.2114L4.59057 51.8434C4.44143 51.9313 4.26503 51.9608 4.09541 51.9263C3.92579 51.8917 3.77499 51.7955 3.67213 51.6563C3.56927 51.5171 3.52165 51.3447 3.53847 51.1724C3.55528 51.0001 3.63533 50.8401 3.76317 50.7234L7.16517 47.5594L5.50197 48.5184C5.42229 48.5691 5.3332 48.6031 5.24004 48.6184C5.14689 48.6337 5.05159 48.6301 4.9599 48.6076C4.8682 48.5851 4.78199 48.5444 4.70646 48.4877C4.63093 48.4311 4.56764 48.3597 4.5204 48.278C4.47315 48.1963 4.44293 48.1058 4.43154 48.0121C4.42016 47.9184 4.42785 47.8233 4.45415 47.7327C4.48046 47.642 4.52483 47.5576 4.5846 47.4845C4.64438 47.4114 4.71831 47.3512 4.80197 47.3074L11.802 43.2628C11.9511 43.1762 12.1269 43.1477 12.2957 43.1828C12.4646 43.2178 12.6145 43.3139 12.7169 43.4527C12.8192 43.5914 12.8667 43.7631 12.8503 43.9348C12.8339 44.1064 12.7547 44.266 12.628 44.3828L9.23997 47.5468L17.101 43.008C17.2542 42.9215 17.4344 42.8958 17.6057 42.9361C17.777 42.9764 17.9268 43.0798 18.0254 43.2256C18.1239 43.3715 18.1638 43.5491 18.1373 43.723C18.1108 43.897 18.0197 44.0546 17.8822 44.1644L12.6448 48.2566L20.097 43.96C20.2529 43.8701 20.4374 43.8437 20.6123 43.8863C20.7871 43.9289 20.9389 44.0372 21.036 44.1887C21.1331 44.3402 21.1681 44.5233 21.1338 44.7C21.0994 44.8767 20.9984 45.0333 20.8516 45.1374L17.6722 47.3774L21.616 45.094C21.7731 45.0009 21.9603 44.9729 22.1378 45.016C22.3153 45.059 22.4689 45.1697 22.5659 45.3244C22.6629 45.4792 22.6956 45.6657 22.657 45.8442C22.6184 46.0226 22.5116 46.179 22.3594 46.2798L21.287 47.0064L23.247 45.8766C23.4009 45.7895 23.582 45.7639 23.7541 45.805C23.9261 45.846 24.0762 45.9506 24.1742 46.0977C24.2723 46.2449 24.311 46.4237 24.2826 46.5983C24.2542 46.7728 24.1608 46.9301 24.0212 47.0386L16.639 52.654L25.466 47.5594C25.6205 47.4703 25.8032 47.4435 25.9767 47.4844C26.1503 47.5254 26.3017 47.6312 26.4 47.78C26.4983 47.9289 26.5361 48.1096 26.5056 48.2854C26.4751 48.4611 26.3786 48.6186 26.236 48.7256L21.4984 52.269L26.1632 49.5754C26.316 49.4871 26.4965 49.4597 26.6686 49.4987C26.8407 49.5378 26.9917 49.6405 27.0914 49.7861C27.191 49.9318 27.232 50.1098 27.206 50.2843C27.1801 50.4589 27.0891 50.6173 26.9514 50.7276L23.4514 53.5206L26.18 51.9498C26.3311 51.8625 26.5094 51.8349 26.6799 51.8722C26.8504 51.9096 27.0008 52.0093 27.1016 52.1518C27.2024 52.2943 27.2463 52.4693 27.2247 52.6425C27.2031 52.8157 27.1176 52.9746 26.985 53.088L25.508 54.348L26.054 54.033C26.186 53.9566 26.3394 53.9255 26.4907 53.9443C26.6421 53.963 26.7832 54.0308 26.8925 54.1371C27.0019 54.2434 27.0735 54.3826 27.0965 54.5334C27.1195 54.6842 27.0926 54.8383 27.02 54.9724L25.8034 57.2124C25.9417 57.2421 26.0678 57.313 26.1651 57.4158C26.2623 57.5185 26.3261 57.6484 26.3481 57.7881C26.3701 57.9279 26.3492 58.071 26.2882 58.1987C26.2272 58.3264 26.1289 58.4325 26.0064 58.5032L24.5168 59.3642C24.3847 59.4406 24.2314 59.4718 24.08 59.453C23.9286 59.4342 23.7875 59.3665 23.6782 59.2602C23.5688 59.1538 23.4972 59.0147 23.4742 58.8639C23.4512 58.7131 23.4781 58.5589 23.5508 58.4248L24.6036 56.49L19.6154 59.3684C19.4644 59.454 19.2871 59.4805 19.1177 59.4427C18.9484 59.405 18.7991 59.3057 18.6988 59.1641C18.5985 59.0224 18.5544 58.8486 18.575 58.6764C18.5957 58.5041 18.6795 58.3456 18.8104 58.2316L20.2888 56.9716L16.1252 59.3754C15.9724 59.4638 15.7919 59.4912 15.6197 59.4521C15.4476 59.413 15.2966 59.3104 15.1969 59.1647C15.0973 59.019 15.0563 58.8411 15.0823 58.6665C15.1083 58.4919 15.1992 58.3336 15.337 58.2232L18.837 55.4316L11.9966 59.3796C11.8421 59.4668 11.6604 59.4922 11.488 59.4505C11.3156 59.4089 11.1655 59.3034 11.0679 59.1553C10.9703 59.0072 10.9326 58.8276 10.9623 58.6528C10.992 58.478 11.0869 58.321 11.228 58.2134L15.96 54.6644L7.79097 59.3782C7.68479 59.4402 7.56392 59.4726 7.44097 59.472Z" fill="#7A4E43"/>
<path d="M12.3984 83.2595C12.2495 83.2594 12.1044 83.2119 11.9844 83.1237C11.8643 83.0356 11.7755 82.9114 11.7309 82.7694C11.6862 82.6273 11.688 82.4746 11.7361 82.3337C11.7841 82.1927 11.8759 82.0707 11.998 81.9855L12.698 81.4969L9.80701 83.1601C9.65252 83.2492 9.46983 83.2761 9.29623 83.2351C9.12264 83.1941 8.97124 83.0883 8.87296 82.9395C8.77468 82.7906 8.73693 82.6099 8.76742 82.4341C8.79791 82.2584 8.89433 82.1009 9.03701 81.9939L14.6048 77.8275L5.36481 83.1601C5.20946 83.2492 5.02584 83.2754 4.85175 83.2333C4.67765 83.1912 4.52633 83.0839 4.42893 82.9336C4.33153 82.7833 4.29545 82.6013 4.32813 82.4252C4.36081 82.2491 4.45976 82.0922 4.60461 81.9869L10.4118 77.7869L2.08741 82.6001C1.93369 82.6866 1.75298 82.7119 1.58142 82.6709C1.40986 82.6299 1.2601 82.5256 1.1621 82.379C1.06409 82.2323 1.02506 82.0541 1.05282 81.8799C1.08058 81.7057 1.17308 81.5484 1.31181 81.4395L8.44061 75.9627L1.88021 79.7427C1.72839 79.8315 1.54869 79.8599 1.37686 79.8223C1.20503 79.7847 1.05367 79.6837 0.952903 79.5395C0.852135 79.3953 0.809344 79.2185 0.833045 79.0442C0.856747 78.8699 0.945202 78.7109 1.08081 78.5989L5.75541 74.6971L2.70481 76.4681C2.55417 76.5544 2.3768 76.5817 2.20716 76.5446C2.03752 76.5076 1.88772 76.4087 1.78686 76.2674C1.686 76.126 1.64127 75.9523 1.66137 75.7798C1.68147 75.6073 1.76495 75.4484 1.89561 75.3341L3.94941 73.5575C3.82809 73.4947 3.72819 73.3972 3.66241 73.2775C3.56959 73.1167 3.54444 72.9256 3.59248 72.7463C3.64053 72.567 3.75784 72.4141 3.91861 72.3213L8.34681 69.7663C8.49742 69.6812 8.67417 69.655 8.843 69.6925C9.01183 69.7301 9.16078 69.8288 9.26113 69.9697C9.36148 70.1106 9.40612 70.2836 9.38645 70.4554C9.36678 70.6273 9.2842 70.7857 9.15461 70.9003L8.38601 71.5653L12.0876 69.4401C12.2392 69.3546 12.4171 69.3287 12.5868 69.3673C12.7565 69.4059 12.9057 69.5063 13.0053 69.649C13.1049 69.7916 13.1479 69.9662 13.1258 70.1388C13.1036 70.3114 13.018 70.4696 12.8856 70.5825L8.21381 74.4801L16.9484 69.4401C17.1022 69.3518 17.2837 69.3252 17.4564 69.3656C17.629 69.406 17.7799 69.5104 17.8786 69.6577C17.9772 69.8051 18.0163 69.9844 17.9878 70.1594C17.9594 70.3344 17.8656 70.4921 17.7254 70.6007L10.5952 76.0747L21.5978 69.7201C21.7532 69.6309 21.9368 69.6047 22.1109 69.6468C22.285 69.689 22.4363 69.7962 22.5337 69.9465C22.6311 70.0969 22.6672 70.2788 22.6345 70.4549C22.6018 70.631 22.5029 70.7879 22.358 70.8933L16.5508 75.0933L24.0758 70.7533C24.2303 70.6641 24.413 70.6373 24.5866 70.6783C24.7602 70.7193 24.9116 70.825 25.0099 70.9739C25.1081 71.1227 25.1459 71.3035 25.1154 71.4792C25.0849 71.655 24.9885 71.8124 24.8458 71.9195L19.2794 76.0873L25.9994 72.2079C26.1557 72.1182 26.3405 72.0922 26.5154 72.1354C26.6903 72.1785 26.8419 72.2874 26.9385 72.4394C27.0352 72.5914 27.0695 72.7749 27.0344 72.9516C26.9992 73.1283 26.8973 73.2846 26.7498 73.3881L26.0498 73.8753L27.0018 73.3265C27.1552 73.2394 27.3359 73.2134 27.5076 73.2538C27.6793 73.2941 27.8295 73.3979 27.928 73.5442C28.0265 73.6905 28.0662 73.8686 28.0391 74.0429C28.0119 74.2172 27.92 74.3749 27.7816 74.4843L24.7268 76.8643L27.9818 74.9855C28.1336 74.8982 28.3126 74.871 28.4834 74.9092C28.6543 74.9474 28.8046 75.0482 28.9048 75.1918C29.005 75.3354 29.0477 75.5113 29.0246 75.6848C29.0014 75.8584 28.9141 76.017 28.7798 76.1293L26.6938 77.8639L28.4536 76.8489C28.6005 76.7682 28.7714 76.7428 28.9354 76.7775C29.0993 76.8121 29.2454 76.9044 29.3471 77.0376C29.4488 77.1708 29.4993 77.3361 29.4895 77.5034C29.4797 77.6707 29.4102 77.8289 29.2936 77.9493L27.937 79.3059L28.6832 78.8747C28.8176 78.7973 28.9739 78.7667 29.1276 78.7877C29.2813 78.8088 29.4236 78.8803 29.5322 78.991C29.6408 79.1017 29.7096 79.2454 29.7278 79.3994C29.7459 79.5535 29.7124 79.7092 29.6324 79.8421L29.1298 80.6737C29.2711 80.6504 29.4162 80.6703 29.5461 80.7308C29.6759 80.7912 29.7846 80.8894 29.8578 81.0125C29.9506 81.1733 29.9758 81.3643 29.9277 81.5436C29.8797 81.723 29.7624 81.8758 29.6016 81.9687L27.5114 83.1755C27.377 83.2522 27.221 83.2823 27.0677 83.261C26.9144 83.2396 26.7725 83.1681 26.6642 83.0575C26.5559 82.947 26.4872 82.8037 26.469 82.65C26.4508 82.4963 26.4841 82.3409 26.5636 82.2081L27.0214 81.4507L24.038 83.1601C23.8911 83.2408 23.7202 83.2661 23.5562 83.2315C23.3923 83.1968 23.2462 83.1045 23.1445 82.9713C23.0428 82.8381 22.9923 82.6729 23.0021 82.5056C23.0119 82.3383 23.0814 82.1801 23.198 82.0597L24.5546 80.7031L20.3 83.1601C20.1483 83.2459 19.97 83.272 19.8 83.2333C19.6301 83.1946 19.4806 83.0939 19.381 82.9508C19.2814 82.8078 19.2387 82.6327 19.2614 82.4599C19.284 82.287 19.3703 82.1288 19.5034 82.0163L21.5908 80.2789L16.5928 83.1601C16.4394 83.2472 16.2588 83.2731 16.087 83.2328C15.9153 83.1924 15.7652 83.0887 15.6666 82.9424C15.5681 82.7961 15.5284 82.6179 15.5555 82.4436C15.5827 82.2693 15.6746 82.1117 15.813 82.0023L18.8664 79.6223L12.7484 83.1601C12.6425 83.2235 12.5218 83.2578 12.3984 83.2595Z" fill="#4B95FF"/>
<path d="M41.1416 32.6873C41.0078 32.6885 40.8763 32.6513 40.763 32.5801C40.6496 32.5089 40.559 32.4066 40.502 32.2855C40.445 32.1644 40.4239 32.0294 40.4412 31.8967C40.4586 31.7639 40.5136 31.6389 40.5998 31.5365L43.0764 28.5769L38.9954 30.9401C38.8516 31.0234 38.6828 31.0527 38.5193 31.023C38.3558 30.9932 38.2082 30.9062 38.103 30.7775C37.9977 30.6489 37.9417 30.487 37.9449 30.3208C37.9481 30.1546 38.0103 29.995 38.1204 29.8705L39.8004 27.9693L38.2436 28.8667C38.1263 28.9341 37.9921 28.966 37.857 28.9587C37.722 28.9513 37.5919 28.905 37.4826 28.8254C37.3733 28.7457 37.2895 28.6361 37.2412 28.5097C37.1929 28.3834 37.1822 28.2458 37.2104 28.1135L37.601 26.3061C37.4769 26.2599 37.3685 26.1794 37.2884 26.074C37.2082 25.9685 37.1596 25.8426 37.1481 25.7106C37.1367 25.5787 37.1629 25.4462 37.2238 25.3286C37.2846 25.211 37.3775 25.113 37.4918 25.0461L38.1918 24.6387C38.3091 24.5714 38.4434 24.5394 38.5784 24.5467C38.7135 24.5541 38.8435 24.6004 38.9528 24.6801C39.0621 24.7597 39.146 24.8694 39.1943 24.9957C39.2426 25.122 39.2533 25.2596 39.225 25.3919L38.9198 26.8633L42.8216 24.6093C42.9655 24.526 43.1343 24.4967 43.2978 24.5265C43.4613 24.5563 43.6089 24.6433 43.7141 24.7719C43.8194 24.9006 43.8754 25.0624 43.8722 25.2286C43.869 25.3948 43.8067 25.5544 43.6966 25.6789L42.0166 27.5801L45.8148 25.3877C45.9573 25.3049 46.1244 25.275 46.2868 25.3033C46.4491 25.3316 46.5963 25.4163 46.7023 25.5424C46.8084 25.6686 46.8665 25.8281 46.8666 25.9929C46.8666 26.1576 46.8085 26.3172 46.7024 26.4433L44.2174 29.4001L45.5614 28.6245C45.7221 28.5332 45.9124 28.5091 46.0908 28.5575C46.2692 28.6059 46.4212 28.7229 46.5136 28.883C46.606 29.0431 46.6314 29.2332 46.5842 29.412C46.5369 29.5907 46.4209 29.7434 46.2614 29.8369L41.4916 32.5921C41.3856 32.6547 41.2647 32.6876 41.1416 32.6873Z" fill="#E1EFFF"/>
<path d="M15.7176 74.7964C15.5865 74.7964 15.4581 74.7597 15.3468 74.6904C15.2356 74.621 15.146 74.5218 15.0884 74.4041C15.0308 74.2864 15.0074 74.1548 15.0208 74.0244C15.0343 73.894 15.0841 73.77 15.1646 73.6666L16.8068 71.5568L13.0604 73.7184C12.9139 73.8018 12.7422 73.8296 12.5768 73.7966C12.4114 73.7636 12.2635 73.672 12.1603 73.5386C12.0571 73.4052 12.0055 73.2391 12.015 73.0707C12.0245 72.9023 12.0945 72.7431 12.212 72.6222L15.4544 69.3224L11.7598 71.4518C11.6108 71.5359 11.436 71.5626 11.2687 71.5267C11.1013 71.4908 10.9529 71.3948 10.8515 71.2568C10.7502 71.1189 10.7028 70.9486 10.7185 70.7781C10.7342 70.6077 10.8118 70.4489 10.9366 70.3318L11.7178 69.6164L11.589 69.6892C11.4716 69.7567 11.3372 69.7887 11.2019 69.7813C11.0667 69.7739 10.9365 69.7275 10.8272 69.6476C10.7178 69.5678 10.634 69.4579 10.5858 69.3313C10.5376 69.2047 10.5272 69.0669 10.5558 68.9346L10.9968 66.9032C10.8432 66.8475 10.7146 66.7387 10.6342 66.5966C10.5417 66.4361 10.5166 66.2455 10.5644 66.0665C10.6121 65.8876 10.7289 65.7348 10.889 65.6418L11.589 65.2344C11.7064 65.1668 11.8409 65.1348 11.9761 65.1422C12.1113 65.1496 12.2415 65.196 12.3509 65.2759C12.4602 65.3557 12.5441 65.4656 12.5922 65.5922C12.6404 65.7188 12.6508 65.8566 12.6222 65.989L12.254 67.6872L16.545 65.2092C16.6941 65.125 16.8688 65.0983 17.0362 65.1342C17.2035 65.1702 17.3519 65.2662 17.4533 65.4041C17.5547 65.542 17.602 65.7123 17.5863 65.8828C17.5707 66.0532 17.4931 66.212 17.3682 66.3292L16.587 67.0474L19.1994 65.5382C19.3461 65.4536 19.5185 65.425 19.6846 65.4578C19.8508 65.4906 19.9994 65.5825 20.1029 65.7165C20.2065 65.8504 20.258 66.0174 20.2478 66.1865C20.2377 66.3555 20.1666 66.5151 20.0478 66.6358L16.8138 69.9356L19.2092 68.5538C19.3497 68.4738 19.5134 68.4449 19.6728 68.4719C19.8321 68.499 19.9772 68.5803 20.0833 68.7022C20.1895 68.824 20.2503 68.9788 20.2553 69.1403C20.2603 69.3019 20.2092 69.4602 20.1108 69.5884L18.4616 71.708C18.6254 71.6373 18.8099 71.6318 18.9776 71.6926C19.1453 71.7534 19.2835 71.8759 19.3639 72.0351C19.4443 72.1943 19.4609 72.3782 19.4103 72.5492C19.3597 72.7202 19.2457 72.8655 19.0916 72.9554L16.0676 74.7012C15.9613 74.7631 15.8406 74.7959 15.7176 74.7964Z" fill="#925C4C"/>
<path d="M32.7472 83.2594C32.5972 83.2599 32.451 83.2122 32.3301 83.1233C32.2093 83.0345 32.1202 82.9091 32.076 82.7658C32.0318 82.6225 32.0347 82.4687 32.0845 82.3272C32.1343 82.1857 32.2282 82.0639 32.3524 81.9798L33.6908 81.0712L30.0648 83.16C29.9094 83.2492 29.7258 83.2754 29.5517 83.2333C29.3776 83.1911 29.2263 83.0839 29.1289 82.9336C29.0315 82.7832 28.9954 82.6013 29.0281 82.4252C29.0608 82.2491 29.1597 82.0922 29.3046 81.9868L35.3722 77.6062L28.3918 81.6382C28.235 81.7264 28.0504 81.7508 27.8761 81.7065C27.7019 81.6622 27.5513 81.5525 27.4557 81.4002C27.3602 81.2479 27.3268 81.0647 27.3627 80.8885C27.3986 80.7123 27.5008 80.5566 27.6484 80.4538L28.2812 80.024C28.1241 80.0659 27.9574 80.0518 27.8096 79.9843C27.6618 79.9167 27.5422 79.7997 27.4711 79.6536C27.4001 79.5074 27.3822 79.3411 27.4204 79.1831C27.4586 79.0251 27.5506 78.8854 27.6806 78.7878L30.8166 76.433L28.8426 77.5712C28.6946 77.6589 28.5196 77.6891 28.3508 77.656C28.1821 77.623 28.0314 77.5289 27.9276 77.3918C27.8237 77.2547 27.774 77.0842 27.7878 76.9128C27.8016 76.7414 27.8781 76.5811 28.0026 76.4624L30.93 73.64C30.798 73.648 30.6664 73.6198 30.5493 73.5587C30.4321 73.4975 30.3338 73.4056 30.265 73.2928C30.1721 73.1321 30.147 72.941 30.195 72.7617C30.2431 72.5823 30.3604 72.4295 30.5212 72.3366L34.9508 69.7802C35.0987 69.6925 35.2737 69.6623 35.4425 69.6954C35.6112 69.7285 35.7619 69.8226 35.8658 69.9596C35.9696 70.0967 36.0194 70.2672 36.0055 70.4386C35.9917 70.61 35.9152 70.7704 35.7908 70.889L33.065 73.5266L40.1336 69.44C40.2879 69.3509 40.4705 69.324 40.644 69.3648C40.8176 69.4057 40.969 69.5112 41.0674 69.6598C41.1656 69.8084 41.2035 69.9889 41.1734 70.1645C41.1432 70.3401 41.0472 70.4976 40.905 70.6048L37.7704 72.9596L43.8716 69.44C44.0283 69.3519 44.2129 69.3274 44.3872 69.3718C44.5615 69.4161 44.712 69.5257 44.8076 69.678C44.9032 69.8303 44.9365 70.0136 44.9006 70.1898C44.8648 70.366 44.7625 70.5216 44.615 70.6244L44.2608 70.8652L46.5624 69.5366C46.7177 69.4475 46.9013 69.4213 47.0754 69.4634C47.2495 69.5055 47.4008 69.6128 47.4982 69.7631C47.5956 69.9134 47.6317 70.0954 47.599 70.2715C47.5664 70.4476 47.4674 70.6045 47.3226 70.7098L41.248 75.096L49.599 70.2758C49.7561 70.1827 49.9433 70.1547 50.1208 70.1978C50.2982 70.2408 50.4519 70.3515 50.5489 70.5062C50.6459 70.661 50.6786 70.8475 50.64 71.0259C50.6014 71.2044 50.4946 71.3608 50.3424 71.4616L49.0208 72.359L51.1992 71.099C51.3529 71.0108 51.5345 70.9841 51.7071 71.0245C51.8798 71.0649 52.0307 71.1694 52.1293 71.3167C52.228 71.464 52.267 71.6433 52.2386 71.8184C52.2102 71.9934 52.1164 72.1511 51.9762 72.2596L46.2768 76.6374L53.0724 72.7174C53.2223 72.6333 53.398 72.6073 53.5659 72.6444C53.7338 72.6815 53.8821 72.7791 53.9827 72.9186C54.0832 73.0581 54.1289 73.2297 54.111 73.4007C54.0931 73.5717 54.013 73.7302 53.8858 73.8458L48.6442 78.4896L54.5998 75.04C54.7525 74.9533 54.9323 74.9272 55.1034 74.9668C55.2745 75.0064 55.4244 75.1089 55.5235 75.254C55.6225 75.399 55.6634 75.576 55.6381 75.7498C55.6127 75.9236 55.5229 76.0815 55.3866 76.1922L53.9726 77.322L55.2536 76.5842C55.3918 76.5044 55.5532 76.4743 55.711 76.4988C55.8687 76.5233 56.0133 76.601 56.1209 76.719C56.2284 76.837 56.2924 76.9882 56.3022 77.1475C56.312 77.3068 56.267 77.4647 56.1748 77.595L54.2288 80.36L55.6092 79.5648C55.7691 79.4811 55.9553 79.4625 56.1287 79.5128C56.3021 79.5631 56.4493 79.6785 56.5397 79.8348C56.63 79.9911 56.6565 80.1763 56.6135 80.3516C56.5706 80.527 56.4615 80.679 56.3092 80.7758L52.1666 83.16C52.0284 83.2393 51.8674 83.269 51.7101 83.2444C51.5528 83.2198 51.4086 83.1423 51.3012 83.0247C51.1939 82.9071 51.1299 82.7564 51.1197 82.5975C51.1096 82.4386 51.1539 82.281 51.2454 82.1506L53.1928 79.3954L46.6674 83.16C46.5146 83.2484 46.334 83.2758 46.1619 83.2367C45.9898 83.1976 45.8388 83.095 45.7391 82.9493C45.6395 82.8036 45.5985 82.6257 45.6245 82.4511C45.6505 82.2765 45.7414 82.1182 45.8792 82.0078L47.296 80.8752L43.3368 83.16C43.1868 83.2441 43.0111 83.2701 42.8432 83.233C42.6754 83.1959 42.527 83.0983 42.4265 82.9588C42.3259 82.8194 42.2802 82.6478 42.2981 82.4768C42.316 82.3058 42.3962 82.1473 42.5234 82.0316L47.765 77.3878L37.7676 83.16C37.6138 83.2483 37.4322 83.2749 37.2596 83.2345C37.0869 83.1941 36.936 83.0897 36.8374 82.9424C36.7388 82.795 36.6997 82.6157 36.7281 82.4407C36.7566 82.2657 36.8504 82.108 36.9906 81.9994L42.6872 77.623L33.0972 83.16C32.9913 83.2234 32.8705 83.2577 32.7472 83.2594Z" fill="#AEA8FB"/>
<path d="M37.9049 27.2593C37.758 27.2593 37.6148 27.2131 37.4956 27.1272C37.3764 27.0413 37.2873 26.9201 37.2408 26.7807C37.1943 26.6413 37.1929 26.4909 37.2367 26.3506C37.2805 26.2104 37.3673 26.0875 37.4849 25.9993L42.4927 22.2795L36.7877 25.5737C36.6325 25.6643 36.4483 25.6917 36.2735 25.6502C36.0986 25.6088 35.9464 25.5017 35.8483 25.3511C35.7503 25.2005 35.7139 25.0179 35.7467 24.8412C35.7796 24.6646 35.8791 24.5073 36.0247 24.4019L42.0881 19.9765L36.3831 23.2679C36.2291 23.3539 36.0482 23.3785 35.8768 23.3369C35.7054 23.2953 35.556 23.1905 35.4586 23.0435C35.3611 22.8965 35.3227 22.7181 35.3511 22.544C35.3795 22.3699 35.4725 22.213 35.6117 22.1045L43.3383 16.2637L34.7269 21.2351C34.5725 21.3223 34.3907 21.3477 34.2183 21.306C34.046 21.2644 33.8958 21.1589 33.7982 21.0108C33.7006 20.8627 33.6629 20.6832 33.6926 20.5083C33.7223 20.3335 33.8173 20.1765 33.9583 20.0689L41.9075 14.1399L33.0147 19.2723C32.8581 19.3619 32.673 19.3875 32.4979 19.3438C32.3229 19.3002 32.1715 19.1906 32.0752 19.0381C31.979 18.8855 31.9454 18.7017 31.9814 18.5249C32.0174 18.3482 32.1202 18.1921 32.2685 18.0893L36.1115 15.4405L32.2461 17.6721C32.0902 17.762 31.9056 17.7884 31.7308 17.7459C31.5559 17.7033 31.4042 17.595 31.3071 17.4434C31.21 17.2919 31.1749 17.1088 31.2093 16.9322C31.2436 16.7555 31.3447 16.5988 31.4915 16.4947L36.8437 12.7049L31.5769 15.7499C31.4198 15.843 31.2325 15.871 31.0551 15.828C30.8776 15.7849 30.724 15.6742 30.627 15.5195C30.53 15.3648 30.4973 15.1783 30.5359 14.9998C30.5744 14.8213 30.6812 14.665 30.8335 14.5641L31.5909 14.0531L31.3417 14.1931C31.1869 14.2723 31.0081 14.2911 30.8402 14.2457C30.6723 14.2003 30.5273 14.0941 30.4335 13.9476C30.3397 13.8012 30.3037 13.6251 30.3326 13.4536C30.3615 13.2821 30.4532 13.1275 30.5899 13.0199L33.3521 11.0795L31.3081 12.2597C31.1526 12.3476 30.9694 12.3727 30.796 12.33C30.6226 12.2872 30.4722 12.1798 30.3754 12.0297C30.2786 11.8796 30.2428 11.6982 30.2754 11.5226C30.308 11.347 30.4065 11.1905 30.5507 11.0851L32.5443 9.65994L31.6399 10.1779C31.4928 10.2597 31.3213 10.2857 31.1566 10.2513C30.9919 10.2168 30.8452 10.1243 30.7432 9.99048C30.6412 9.8567 30.5908 9.69065 30.6012 9.52274C30.6116 9.35484 30.6821 9.19629 30.7999 9.07614L34.6569 5.22334H34.6485C34.5688 5.27399 34.4797 5.30799 34.3866 5.32332C34.2934 5.33864 34.1981 5.33496 34.1064 5.3125C34.0147 5.29004 33.9285 5.24926 33.853 5.19262C33.7774 5.13598 33.7142 5.06464 33.6669 4.98291C33.6197 4.90117 33.5894 4.81072 33.5781 4.71701C33.5667 4.62329 33.5744 4.52823 33.6007 4.43756C33.627 4.34689 33.6713 4.26248 33.7311 4.1894C33.7909 4.11633 33.8648 4.0561 33.9485 4.01234L38.5685 1.34534C38.7153 1.26464 38.8863 1.23931 39.0502 1.27394C39.2142 1.30858 39.3603 1.40088 39.462 1.53409C39.5637 1.66729 39.6142 1.83255 39.6044 1.99984C39.5946 2.16713 39.525 2.32534 39.4085 2.44574L35.5599 6.29994L44.3043 1.25994C44.4595 1.17477 44.6412 1.15155 44.8128 1.19496C44.9844 1.23838 45.1332 1.3452 45.2292 1.49392C45.3252 1.64264 45.3613 1.82221 45.3302 1.99648C45.2991 2.17075 45.2032 2.32678 45.0617 2.43314L43.0639 3.85554L46.3539 1.95994C46.5099 1.87142 46.694 1.84618 46.8681 1.88943C47.0422 1.93268 47.193 2.04112 47.2895 2.19237C47.386 2.34363 47.4207 2.52614 47.3865 2.70224C47.3523 2.87834 47.2517 3.03459 47.1057 3.13874L44.3491 5.07074L48.0913 2.91054C48.2483 2.82108 48.4337 2.79578 48.6089 2.83992C48.7841 2.88407 48.9354 2.99424 49.0313 3.14739C49.1271 3.30055 49.16 3.48483 49.1231 3.66169C49.0862 3.83854 48.9824 3.99429 48.8333 4.09634L48.0647 4.61574L49.2323 3.94094C49.3882 3.85104 49.5727 3.82464 49.7476 3.86723C49.9224 3.90981 50.0742 4.01811 50.1713 4.16963C50.2684 4.32115 50.3034 4.50426 50.2691 4.68092C50.2347 4.85758 50.1337 5.01423 49.9869 5.11834L44.6403 8.89834L50.6127 5.45994C50.7694 5.36706 50.9562 5.33894 51.1333 5.38156C51.3104 5.42418 51.464 5.53418 51.5613 5.68819C51.6586 5.8422 51.6921 6.02808 51.6545 6.20635C51.617 6.38463 51.5114 6.54125 51.3603 6.64294L47.5089 9.30294L51.5563 6.96634C51.711 6.87633 51.8943 6.84899 52.0685 6.88994C52.2427 6.93088 52.3946 7.037 52.493 7.18648C52.5914 7.33597 52.6288 7.51747 52.5976 7.69368C52.5663 7.8699 52.4687 8.02744 52.3249 8.13394L44.3799 14.0461L52.4327 9.39814C52.5865 9.31664 52.7652 9.29537 52.9338 9.33848C53.1024 9.38159 53.249 9.48599 53.3448 9.63131C53.4406 9.77662 53.4789 9.95243 53.4521 10.1244C53.4253 10.2964 53.3354 10.4523 53.1999 10.5615L45.4733 16.4023L52.7099 12.2233C52.8651 12.1328 53.0492 12.1054 53.2241 12.1469C53.3989 12.1883 53.5512 12.2954 53.6492 12.446C53.7473 12.5966 53.7837 12.7792 53.7508 12.9558C53.718 13.1325 53.6185 13.2898 53.4729 13.3951L47.4109 17.8205L52.2997 14.9981C52.4543 14.9102 52.6366 14.8845 52.8095 14.9261C52.9824 14.9677 53.133 15.0736 53.2307 15.2223C53.3283 15.3709 53.3657 15.5512 53.3353 15.7264C53.3049 15.9016 53.2089 16.0587 53.0669 16.1657L48.0535 19.8897L50.8199 18.2979C50.9689 18.2138 51.1437 18.1871 51.311 18.223C51.4784 18.2589 51.6268 18.3549 51.7282 18.4929C51.8296 18.6308 51.8769 18.8011 51.8612 18.9716C51.8455 19.142 51.7679 19.3008 51.6431 19.4179L47.6825 23.0579C47.8765 23.0707 48.0601 23.1504 48.2019 23.2833C48.3098 23.4004 48.3745 23.5507 48.3854 23.7096C48.3964 23.8684 48.3529 24.0262 48.2621 24.1569L47.6755 24.9969C47.7966 25.0605 47.8968 25.1577 47.9639 25.2769C48.0563 25.4376 48.0812 25.6283 48.0331 25.8073C47.9851 25.9863 47.8681 26.1389 47.7077 26.2317L46.0935 27.1641C45.9559 27.2432 45.7955 27.2732 45.6386 27.2491C45.4817 27.2251 45.3376 27.1484 45.23 27.0317C45.1224 26.915 45.0577 26.7652 45.0465 26.6069C45.0352 26.4485 45.0781 26.2911 45.1681 26.1603L45.3305 25.9265L43.1829 27.1655C43.0338 27.2497 42.8591 27.2764 42.6917 27.2405C42.5244 27.2045 42.376 27.1085 42.2746 26.9706C42.1732 26.8327 42.1259 26.6624 42.1416 26.4919C42.1572 26.3215 42.2348 26.1627 42.3597 26.0455L46.0109 22.6855L38.2591 27.1655C38.1516 27.2281 38.0292 27.2606 37.9049 27.2593Z" fill="#FDE05E"/>
<path d="M14.913 69.1837C14.7685 69.1838 14.6276 69.1393 14.5094 69.0561C14.3913 68.973 14.3018 68.8553 14.2532 68.7193C14.2046 68.5833 14.1993 68.4355 14.2379 68.2964C14.2766 68.1572 14.3574 68.0334 14.4692 67.9419L15.2056 67.3385L13.0846 68.5635C12.9314 68.653 12.75 68.681 12.577 68.6419C12.404 68.6028 12.2522 68.4995 12.1525 68.3528C12.0528 68.2061 12.0124 68.027 12.0396 67.8517C12.0669 67.6764 12.1596 67.518 12.2992 67.4085L17.0774 63.6285L10.9636 67.1565C10.8111 67.2439 10.6314 67.2708 10.4601 67.2318C10.2887 67.1928 10.1383 67.0908 10.0387 66.9461C9.93912 66.8013 9.89759 66.6244 9.92238 66.4505C9.94717 66.2765 10.0365 66.1183 10.1726 66.0071L16.0106 61.2639L9.43755 65.0579C9.28339 65.1476 9.10081 65.175 8.92709 65.1347C8.75337 65.0943 8.60161 64.9891 8.50281 64.8407C8.404 64.6922 8.36559 64.5116 8.39543 64.3357C8.42527 64.1599 8.5211 64.0021 8.66335 63.8945L12.8634 60.7039L8.86775 63.0111C8.71359 63.1008 8.53101 63.1282 8.35729 63.0879C8.18357 63.0475 8.03181 62.9423 7.93301 62.7938C7.8342 62.6454 7.79579 62.4648 7.82563 62.2889C7.85547 62.1131 7.9513 61.9553 8.09355 61.8477L11.9828 58.8937L7.19755 61.6573C7.04143 61.7564 6.85245 61.7897 6.67188 61.7499C6.49131 61.7101 6.33381 61.6005 6.23377 61.445C6.13374 61.2895 6.09929 61.1007 6.13796 60.9199C6.17663 60.7391 6.28527 60.5809 6.44015 60.4799L8.58215 58.9399L6.20215 60.3091C6.05105 60.395 5.8734 60.4216 5.70377 60.3837C5.53414 60.3459 5.38466 60.2463 5.28441 60.1043C5.18417 59.9623 5.14033 59.7881 5.16143 59.6156C5.18253 59.4431 5.26705 59.2846 5.39855 59.1709L8.82015 56.2687L7.00015 57.3131C6.85329 57.3938 6.68234 57.4191 6.51839 57.3845C6.35443 57.3499 6.20833 57.2576 6.10665 57.1244C6.00497 56.9912 5.95445 56.8259 5.96427 56.6586C5.97409 56.4913 6.04359 56.3331 6.16015 56.2127L9.45715 52.9199C9.35709 52.8581 9.27389 52.7725 9.21495 52.6707C9.12213 52.5099 9.09698 52.3189 9.14503 52.1395C9.19307 51.9602 9.31038 51.8073 9.47115 51.7145L12.3832 50.0345C12.53 49.9538 12.701 49.9285 12.8649 49.9631C13.0289 49.9978 13.175 50.0901 13.2767 50.2233C13.3783 50.3565 13.4289 50.5217 13.419 50.689C13.4092 50.8563 13.3397 51.0145 13.2232 51.1349L10.93 53.4309L14.8066 51.1909C14.9578 51.1047 15.1358 51.078 15.3057 51.1159C15.4756 51.1539 15.6253 51.2538 15.7255 51.3962C15.8257 51.5385 15.8693 51.7131 15.8477 51.8859C15.8261 52.0587 15.7409 52.2172 15.6088 52.3305L12.2012 55.2285L19.7402 50.8801C19.8955 50.791 20.0791 50.7647 20.2532 50.8069C20.4273 50.849 20.5786 50.9563 20.676 51.1066C20.7734 51.2569 20.8095 51.4388 20.7768 51.6149C20.7442 51.7911 20.6452 51.9479 20.5004 52.0533L18.3626 53.5933L20.9036 52.1275C21.0577 52.0398 21.2393 52.0138 21.4118 52.0549C21.5843 52.0959 21.7348 52.2008 21.8329 52.3485C21.931 52.4962 21.9694 52.6757 21.9404 52.8506C21.9113 53.0255 21.8169 53.1829 21.6764 53.2909L17.7802 56.2519L21.773 53.9475C21.9271 53.8578 22.1097 53.8304 22.2834 53.8708C22.4571 53.9111 22.6089 54.0163 22.7077 54.1648C22.8065 54.3132 22.8449 54.4938 22.8151 54.6697C22.7852 54.8455 22.6894 55.0033 22.5472 55.1109L18.3472 58.3015L22.935 55.6527C23.0872 55.5672 23.2658 55.5417 23.4359 55.5812C23.6059 55.6206 23.7551 55.7221 23.8541 55.8659C23.9532 56.0096 23.9949 56.1852 23.9712 56.3581C23.9475 56.5311 23.86 56.6889 23.726 56.8007L17.8922 61.5411L24.6752 57.6211C24.8281 57.5339 25.0082 57.5075 25.1797 57.5472C25.3512 57.5869 25.5015 57.6897 25.6005 57.8352C25.6996 57.9808 25.7402 58.1582 25.7143 58.3324C25.6883 58.5065 25.5977 58.6644 25.4606 58.7747L20.6796 62.5547L21.9242 61.8365C22.0763 61.7484 22.256 61.7208 22.4276 61.7591C22.5991 61.7974 22.75 61.8989 22.8502 62.0433C22.9504 62.1878 22.9925 62.3647 22.9683 62.5388C22.944 62.7129 22.8552 62.8715 22.7194 62.9831L21.5994 63.9043C21.726 63.9021 21.8511 63.9334 21.9619 63.9948C22.0727 64.0562 22.1655 64.1457 22.2308 64.2543C22.3236 64.4151 22.3487 64.6061 22.3007 64.7855C22.2526 64.9648 22.1353 65.1177 21.9746 65.2105L15.2602 69.0899C15.1548 69.1514 15.035 69.1838 14.913 69.1837Z" fill="#A9725E"/>
<path d="M41.681 74.7936C41.5459 74.7936 41.4137 74.7546 41.3004 74.6811C41.187 74.6077 41.0973 74.503 41.0421 74.3797C40.9869 74.2564 40.9685 74.1198 40.9893 73.9863C41.01 73.8528 41.0688 73.7282 41.1588 73.6274L42.7198 71.8858L39.6048 73.682C39.4557 73.7686 39.2799 73.7971 39.111 73.7621C38.9422 73.7271 38.7922 73.631 38.6899 73.4922C38.5876 73.3534 38.54 73.1818 38.5564 73.0101C38.5728 72.8385 38.652 72.6789 38.7788 72.562L40.5428 70.9296L38.496 72.1112C38.3491 72.1919 38.1782 72.2173 38.0142 72.1826C37.8503 72.148 37.7042 72.0557 37.6025 71.9225C37.5008 71.7893 37.4503 71.624 37.4601 71.4567C37.4699 71.2894 37.5394 71.1312 37.656 71.0108L38.1768 70.4914C38.0578 70.5537 37.9235 70.5808 37.7897 70.5697C37.6558 70.5585 37.5279 70.5095 37.4208 70.4284C37.3109 70.3442 37.2284 70.2293 37.1838 70.0982C37.1392 69.9672 37.1345 69.8258 37.1702 69.692L37.5482 68.2794C37.4327 68.2249 37.3343 68.1398 37.2636 68.0334C37.193 67.927 37.1529 67.8032 37.1475 67.6756C37.1422 67.548 37.1719 67.4213 37.2334 67.3094C37.2949 67.1974 37.3858 67.1044 37.4964 67.0404L38.1964 66.633C38.3162 66.5636 38.4538 66.5312 38.592 66.54C38.7301 66.5488 38.8626 66.5984 38.9726 66.6825C39.0826 66.7665 39.1652 66.8813 39.2099 67.0123C39.2547 67.1433 39.2596 67.2846 39.224 67.4184L38.9538 68.4222L42.087 66.6134C42.2339 66.5327 42.4048 66.5074 42.5688 66.542C42.7327 66.5767 42.8788 66.669 42.9805 66.8022C43.0822 66.9354 43.1327 67.1006 43.1229 67.2679C43.1131 67.4352 43.0436 67.5934 42.927 67.7138L42.409 68.2304L45.2398 66.5966C45.3889 66.51 45.5647 66.4815 45.7336 66.5166C45.9024 66.5516 46.0524 66.6477 46.1547 66.7865C46.2571 66.9252 46.3046 67.0969 46.2882 67.2686C46.2718 67.4402 46.1926 67.5998 46.0658 67.7166L44.299 69.3518L45.8026 68.4852C45.9467 68.402 46.1158 68.3729 46.2795 68.403C46.4431 68.4332 46.5907 68.5206 46.6957 68.6497C46.8007 68.7789 46.8563 68.9412 46.8525 69.1075C46.8486 69.2739 46.7857 69.4335 46.6748 69.5576L45.1138 71.3006L45.3938 71.141C45.5545 71.0497 45.7448 71.0256 45.9232 71.074C46.1016 71.1224 46.2536 71.2395 46.346 71.3995C46.4384 71.5596 46.4638 71.7498 46.4165 71.9285C46.3693 72.1072 46.2533 72.2599 46.0938 72.3534L42.0338 74.6984C41.927 74.7615 41.8051 74.7944 41.681 74.7936Z" fill="#EABEA3"/>
<path d="M43.5288 69.02C43.3888 69.0203 43.2519 68.9786 43.1358 68.9003C43.0198 68.822 42.9298 68.7107 42.8777 68.5808C42.8255 68.4508 42.8135 68.3082 42.8432 68.1714C42.873 68.0346 42.9431 67.9098 43.0444 67.8132L43.9488 66.9494L40.5888 68.8912C40.4371 68.977 40.2588 69.0031 40.0888 68.9644C39.9189 68.9257 39.7695 68.825 39.6698 68.6819C39.5702 68.5389 39.5276 68.3638 39.5502 68.191C39.5728 68.0181 39.6591 67.86 39.7922 67.7474L44.9722 63.448L37.954 67.508C37.7986 67.5959 37.6154 67.621 37.442 67.5782C37.2686 67.5354 37.1181 67.428 37.0213 67.2779C36.9245 67.1278 36.8888 66.9464 36.9214 66.7709C36.954 66.5953 37.0524 66.4388 37.1966 66.3334L39.2 64.89L36.7738 66.29C36.6177 66.3812 36.4323 66.4085 36.2566 66.366C36.0808 66.3236 35.9283 66.2148 35.8309 66.0625C35.7335 65.9101 35.6989 65.726 35.7343 65.5486C35.7697 65.3713 35.8723 65.2146 36.0206 65.1112L36.6562 64.6632L36.0262 65.0272C35.8714 65.1159 35.6886 65.1421 35.5151 65.1005C35.3416 65.0589 35.1905 64.9526 35.0928 64.8034C34.995 64.6541 34.9579 64.4732 34.9891 64.2975C35.0202 64.1219 35.1173 63.9647 35.2604 63.8582L36.9292 62.6234L35.5684 63.4088C35.4194 63.4942 35.2441 63.5217 35.076 63.4862C34.9079 63.4508 34.7587 63.3547 34.6569 63.2164C34.555 63.078 34.5076 62.9071 34.5237 62.736C34.5397 62.565 34.618 62.4058 34.7438 62.2888L38.871 58.4878L33.6252 61.516C33.473 61.603 33.2936 61.6296 33.1227 61.5907C32.9517 61.5518 32.8016 61.4501 32.702 61.3058C32.6024 61.1615 32.5605 60.9851 32.5848 60.8114C32.609 60.6378 32.6975 60.4795 32.8328 60.368L35.238 58.408L32.7068 59.8682C32.5587 59.9527 32.3848 59.9801 32.2178 59.9455C32.0508 59.9108 31.9023 59.8163 31.8 59.6799C31.6977 59.5434 31.6488 59.3743 31.6624 59.2043C31.676 59.0343 31.7512 58.8751 31.8738 58.7566L35.9548 54.852C35.8316 54.8042 35.7243 54.7225 35.6456 54.6164C35.5668 54.5102 35.5197 54.3839 35.5098 54.252C35.4998 54.1202 35.5274 53.9883 35.5893 53.8715C35.6512 53.7546 35.7449 53.6578 35.8596 53.592L39.48 51.506C39.6283 51.4153 39.805 51.383 39.9757 51.4153C40.1465 51.4477 40.2991 51.5424 40.4039 51.6811C40.5087 51.8197 40.5581 51.9924 40.5426 52.1655C40.5271 52.3386 40.4478 52.4998 40.32 52.6176L37.0426 55.7536L42.133 52.8136C42.2852 52.7281 42.4639 52.7026 42.6339 52.7421C42.804 52.7815 42.9532 52.883 43.0522 53.0268C43.1512 53.1705 43.193 53.3461 43.1693 53.519C43.1456 53.692 43.0581 53.8498 42.924 53.9616L40.5202 55.9216L43.6422 54.1198C43.7913 54.0344 43.9666 54.0069 44.1347 54.0424C44.3027 54.0779 44.4519 54.1739 44.5538 54.3122C44.6556 54.4506 44.703 54.6215 44.687 54.7926C44.671 54.9636 44.5926 55.1228 44.4668 55.2398L40.3424 59.0394L46.9308 55.2356C47.0856 55.1469 47.2685 55.1207 47.442 55.1623C47.6155 55.2039 47.7665 55.3102 47.8643 55.4594C47.9621 55.6087 47.9992 55.7896 47.968 55.9653C47.9368 56.141 47.8398 56.2981 47.6966 56.4046L46.0166 57.6436L49.4634 55.6542C49.6196 55.563 49.8049 55.5358 49.9807 55.5782C50.1565 55.6206 50.309 55.7294 50.4064 55.8817C50.5037 56.0341 50.5383 56.2182 50.503 56.3956C50.4676 56.5729 50.365 56.7297 50.2166 56.833L49.574 57.2838L50.8074 56.5726C50.9629 56.4847 51.1461 56.4596 51.3195 56.5024C51.4929 56.5452 51.6434 56.6526 51.7401 56.8027C51.8369 56.9528 51.8727 57.1342 51.8401 57.3098C51.8075 57.4854 51.709 57.6418 51.5648 57.7472L49.56 59.185L51.3982 58.1252C51.55 58.0394 51.7283 58.0133 51.8982 58.052C52.0682 58.0907 52.2176 58.1914 52.3172 58.3345C52.4168 58.4775 52.4595 58.6526 52.4369 58.8254C52.4142 58.9983 52.3279 59.1564 52.1948 59.269L47.0204 63.56L48.2804 62.8306C48.4287 62.7399 48.6054 62.7076 48.7761 62.7399C48.9469 62.7723 49.0995 62.867 49.2043 63.0057C49.3091 63.1443 49.3585 63.317 49.343 63.4901C49.3275 63.6632 49.2482 63.8244 49.1204 63.9422L47.3676 65.6222C47.4878 65.6727 47.5914 65.7558 47.6669 65.8621C47.7424 65.9684 47.7867 66.0936 47.7949 66.2237C47.803 66.3538 47.7747 66.4836 47.7131 66.5984C47.6514 66.7133 47.5589 66.8087 47.446 66.8738L43.8802 68.9304C43.7733 68.9913 43.6519 69.0222 43.5288 69.02Z" fill="#F9D2B6"/>
<path d="M73.8135 69.3197C73.8135 68.6384 73.8135 67.9566 73.8135 67.2743C73.9353 67.1749 74.0655 67.0881 74.1803 66.9817C75.4606 65.7446 76.2997 64.1216 76.5687 62.3617C76.5169 62.6235 76.6765 61.9417 76.5211 62.1013C76.7606 61.9849 77.0104 61.8912 77.2673 61.8213C77.6484 61.6407 77.9988 61.4016 78.3061 61.1129C78.9746 60.4909 79.3735 59.6323 79.4177 58.7203C80.7309 57.0809 80.7715 54.1983 80.8093 52.3027C80.9992 50.8781 80.8204 49.4286 80.2899 48.0929C79.8982 47.3921 79.338 46.7999 78.6599 46.3699C77.9818 45.94 77.2073 45.6858 76.4063 45.6303C75.0805 43.5499 72.0411 42.9073 69.6191 42.8163C69.6429 40.4629 69.7353 37.7231 66.7533 37.2429C65.9831 37.1647 65.2079 37.1474 64.4349 37.1911H43.0149V32.5515C43.8663 32.3755 44.6636 31.9997 45.341 31.4549C46.0184 30.9101 46.5566 30.212 46.9111 29.4183C47.1723 28.6372 47.2769 27.8123 47.2191 26.9907C47.6174 26.8056 47.958 26.516 48.2045 26.1525C48.4511 25.7891 48.5944 25.3656 48.6191 24.9271C48.5778 24.2288 48.667 23.529 48.8823 22.8635C49.4102 22.011 50.0874 21.2608 50.8815 20.6487C52.1589 19.3118 53.1104 17.698 53.6618 15.9331C54.2133 14.1682 54.3499 12.2998 54.0609 10.4735C53.4866 7.49897 51.8141 4.84941 49.376 3.05138C46.9378 1.25335 43.9123 0.438471 40.9009 0.768691C38.06 1.05004 35.4036 2.30481 33.3819 4.32043C31.3601 6.33606 30.0973 8.9886 29.8073 11.8287C29.6823 13.4567 29.8991 15.0929 30.444 16.6321C30.9889 18.1714 31.8498 19.5796 32.9713 20.7663C34.1599 22.0053 35.3107 22.7683 35.3737 24.6457C35.4101 25.7531 35.5137 26.7359 36.7345 27.1559C36.7471 27.1559 36.7653 27.1559 36.7793 27.1657C36.725 27.9161 36.7783 28.6704 36.9375 29.4057C37.1207 30.0342 37.4373 30.6158 37.8656 31.1108C38.294 31.6059 38.8241 32.0027 39.4197 32.2743C39.9152 32.4908 40.4423 32.626 40.9807 32.6747V37.1897H21.1133C20.2733 37.1897 19.4333 37.1617 18.5933 37.1897C17.7644 37.1612 16.9455 37.3773 16.2385 37.811C15.5315 38.2446 14.9677 38.8767 14.6173 39.6285C14.3281 40.6658 14.2439 41.7496 14.3695 42.8191C12.0399 43.0053 9.14473 43.7459 7.78113 45.6723C6.31991 45.8744 4.9971 46.644 4.09913 47.8143C3.31828 49.1048 2.99752 50.6218 3.18913 52.1179C3.13077 53.993 3.36698 55.8656 3.88913 57.6675C4.03387 58.1894 4.27095 58.6811 4.58913 59.1193C4.62796 59.6957 4.81232 60.2528 5.12498 60.7386C5.43764 61.2243 5.86838 61.6229 6.37693 61.8969C6.63033 62.0369 7.20573 62.1377 7.35693 62.3533C7.48781 62.7283 7.56465 63.12 7.58513 63.5167C7.78764 64.3369 8.12547 65.1176 8.58473 65.8267C9.01974 66.4978 9.56061 67.094 10.1863 67.5921C10.1863 68.266 10.1863 68.9398 10.1863 69.6137C8.08881 69.8271 6.09556 70.6339 4.44021 71.9397C2.78485 73.2454 1.53597 74.996 0.839933 76.9861C0.439532 78.2545 -0.249268 81.4381 0.859532 82.5665C1.18495 82.8075 1.55566 82.9803 1.94946 83.0746C2.34327 83.1689 2.75205 83.1828 3.15133 83.1153H28.4871C28.8459 83.2197 29.2182 83.2697 29.5917 83.2637H53.0039H54.0595C54.2032 83.3128 54.3543 83.3365 54.5061 83.3337H79.6907C80.1569 83.3337 80.6399 83.3673 81.1061 83.3337C83.4749 83.1587 83.6891 81.2449 83.6261 79.3395C83.5053 76.7562 82.4385 74.3076 80.629 72.4599C78.8196 70.6122 76.3938 69.4945 73.8135 69.3197ZM34.2243 19.2081C33.2764 18.0364 32.5865 16.6777 32.1999 15.2209C31.5109 12.6847 31.7961 9.98243 32.9994 7.64591C34.2026 5.3094 36.2368 3.50781 38.7015 2.59569C44.7453 0.560091 50.9599 4.96869 52.0365 11.0181C52.2817 12.5593 52.1892 14.1353 51.7652 15.6372C51.3412 17.1391 50.5959 18.5309 49.5809 19.7163C48.6761 20.5023 47.8563 21.3812 47.1351 22.3385C46.8213 22.8977 46.634 23.519 46.5863 24.1585C46.6239 24.5963 46.6108 25.0369 46.5471 25.4717C46.2489 26.3565 43.9543 25.8917 43.2025 25.8917H38.4579C37.7649 25.8917 37.5129 25.6761 37.4233 24.8711C37.442 23.9425 37.268 23.0201 36.9123 22.1621C36.1133 21.0934 35.2131 20.1042 34.2243 19.2081ZM38.9549 28.8093C38.8452 28.3467 38.7949 27.872 38.8051 27.3967C39.7095 27.3841 40.6349 27.2945 41.4035 27.2945C42.6565 27.2945 43.9235 27.3379 45.1919 27.3099C45.2204 27.8382 45.1974 28.368 45.1233 28.8919C45.042 29.4084 44.8498 29.9011 44.5597 30.3362C44.2697 30.7712 43.8888 31.1382 43.4433 31.4119C43.3101 31.487 43.1693 31.548 43.0233 31.5939C42.9255 31.6225 42.8259 31.6445 42.7251 31.6597C42.4816 31.573 42.2186 31.557 41.9663 31.6135C41.6173 31.5618 41.278 31.458 40.9597 31.3055C40.4684 31.0544 40.0357 30.7022 39.6901 30.272C39.3446 29.8418 39.0941 29.3433 38.9549 28.8093ZM70.4353 73.1025C70.2324 73.2671 70.0046 73.3984 69.7605 73.4917C69.5363 73.576 69.2999 73.6233 69.0605 73.6317C68.377 73.6376 67.7079 73.435 67.1425 73.0507C66.5969 72.6705 66.1539 72.1611 65.8532 71.5679C65.5525 70.9748 65.4033 70.3163 65.4191 69.6515V68.7191C67.4943 69.491 69.7897 69.4161 71.8101 68.5105C71.8493 70.1947 71.8577 71.9601 70.4353 73.1025ZM76.6233 60.6425C76.0969 61.0625 75.3731 60.9911 74.9013 61.5357C74.6114 61.998 74.4523 62.5302 74.4407 63.0757C74.2972 63.7806 74.0365 64.4563 73.6693 65.0749C73.0073 66.2254 71.9604 67.1054 70.7132 67.5598C69.4659 68.0141 68.0983 68.0137 66.8513 67.5585C65.6063 67.0905 64.5354 66.2508 63.7839 65.1533C63.425 64.6374 63.1443 64.0713 62.9509 63.4733C62.8585 62.8188 62.7105 62.1734 62.5085 61.5441C62.2061 60.9841 61.6769 60.9981 61.1519 60.7587C60.8188 60.5957 60.5287 60.3565 60.3051 60.0605C60.0816 59.7645 59.9309 59.42 59.8653 59.0549C59.8424 58.9128 59.8321 58.769 59.8345 58.6251C59.8352 58.6153 59.8352 58.6055 59.8345 58.5957C59.8336 58.0534 60.033 57.5299 60.3945 57.1257C60.8761 56.6077 61.6055 56.6679 62.1361 56.2227C62.8571 55.6179 62.7941 54.4167 63.1819 53.5893C63.63 52.6187 64.3832 51.8212 65.3267 51.3185C66.1925 52.0417 67.2825 52.4419 68.4106 52.4509C69.5386 52.4598 70.6348 52.0769 71.5119 51.3675C72.232 51.7293 72.8647 52.2435 73.3659 52.8745C73.8671 53.5056 74.2248 54.2382 74.4141 55.0215C74.5947 55.7537 74.6115 56.2815 75.3941 56.6217C75.9653 56.8695 76.3741 56.9017 76.8109 57.4085C77.168 57.844 77.3709 58.3855 77.3877 58.9485C77.3895 59.2702 77.3222 59.5886 77.1903 59.882C77.0585 60.1755 76.8651 60.4372 76.6233 60.6495V60.6425ZM74.3525 46.1651C74.4309 46.2603 74.6843 46.6635 74.5863 46.4717C74.648 46.5802 74.7398 46.6685 74.8506 46.7259C74.9614 46.7833 75.0865 46.8073 75.2107 46.7951C76.0353 46.8318 76.8241 47.1424 77.4524 47.6776C78.0807 48.2128 78.5126 48.9423 78.6799 49.7505C78.87 51.0572 78.8861 52.3834 78.7275 53.6943C78.6816 54.5733 78.5721 55.4477 78.3999 56.3109C78.168 56.0839 77.9038 55.8923 77.6159 55.7425C77.1049 55.4793 76.6849 55.5591 76.5323 54.9627C76.4525 54.6463 76.3993 54.3299 76.2985 54.0177C75.9663 53.0225 75.404 52.1198 74.6571 51.3829C73.9103 50.6461 73.0001 50.0959 72.0005 49.7771C71.7154 49.7024 71.4143 49.7148 71.1363 49.8129C70.8583 49.911 70.6161 50.0902 70.4409 50.3273C70.1966 50.5923 69.8943 50.7973 69.5576 50.9262C69.221 51.0551 68.8591 51.1045 68.5002 51.0705C68.1414 51.0365 67.7952 50.92 67.4888 50.7301C67.1823 50.5402 66.9239 50.2821 66.7337 49.9759C66.4677 49.5643 65.7117 49.7631 65.3715 49.8849C63.8845 50.3867 62.6 51.3568 61.7105 52.6499C61.3887 53.1396 61.1317 53.669 60.9461 54.2249C60.8708 54.6496 60.7736 55.0702 60.6549 55.4849C60.6409 55.4583 60.5275 55.5353 60.4491 55.5731C60.2475 55.6683 60.0291 55.7299 59.8331 55.8321C59.4942 56.0028 59.1809 56.22 58.9021 56.4775C58.8867 56.4915 58.8755 56.5097 58.8601 56.5237C58.6874 55.6884 58.5728 54.8422 58.5171 53.9911C58.3183 51.8197 57.8017 46.7965 61.2093 46.7965C61.6293 46.7965 62.3293 46.6565 62.5463 46.2365C63.4969 44.3941 66.1989 44.0147 68.1183 43.9965C68.2789 44.021 68.4422 44.021 68.6027 43.9965C70.2917 43.9653 71.9544 44.4175 73.3949 45.2999C73.7533 45.5418 74.0756 45.8331 74.3525 46.1651ZM61.6909 38.4077C62.8333 38.4077 64.0037 38.3321 65.1447 38.4077C67.7179 38.5785 67.6367 40.8871 67.5933 42.8611C65.2623 43.0487 62.3279 43.7837 60.9685 45.7157C59.5169 45.924 58.2018 46.6848 57.2977 47.8395C56.5131 49.1244 56.191 50.6389 56.3849 52.1319C56.3265 54.0033 56.5628 55.8723 57.0849 57.6703C57.2305 58.1867 57.4676 58.6727 57.7849 59.1053C57.8251 59.7564 58.0558 60.3813 58.4483 60.9023C58.8409 61.4233 59.378 61.8174 59.9927 62.0355C60.3693 62.1755 60.4519 62.1167 60.6115 62.4681C60.7051 62.8557 60.7729 63.249 60.8145 63.6455C61.0188 64.4097 61.3424 65.1369 61.7735 65.8001C62.2099 66.472 62.7549 67.0667 63.3863 67.5599C63.3863 68.2132 63.3863 68.8694 63.3863 69.5283C61.8114 69.7116 60.2922 70.2223 58.9263 71.0276C57.5605 71.8329 56.3782 72.9149 55.4553 74.2043C55.4385 74.1763 55.4259 74.1469 55.4091 74.1189C54.7241 73.0563 53.8433 72.1336 52.8135 71.4001V60.1175C52.8135 56.0785 53.5401 51.1085 51.2189 47.5609C50.3077 46.2128 49.0884 45.1013 47.6619 44.3186C46.2354 43.5358 44.6429 43.1043 43.0163 43.0599V38.4077H61.6909ZM43.8325 73.2201C43.6342 73.3751 43.4208 73.5097 43.1955 73.6219L43.0177 73.6863C43.0723 73.6625 42.8147 73.7297 42.9813 73.6989C42.8358 73.7322 42.6868 73.7481 42.5375 73.7465C41.8309 73.7347 41.1443 73.5097 40.5677 73.1011C40.0155 72.7131 39.5669 72.1956 39.2611 71.5939C38.9553 70.9923 38.8016 70.3249 38.8135 69.6501V68.6561C39.4513 68.9056 40.1185 69.0722 40.7987 69.1517C42.3045 69.2962 43.8219 69.0462 45.2017 68.4265C45.2451 70.1639 45.2717 72.0245 43.8325 73.2201ZM36.7863 69.4177C35.5492 69.5617 34.3431 69.9025 33.2135 70.4271V61.8339C33.4731 61.8997 33.7159 62.0194 33.9261 62.1853C34.1235 62.4191 34.1081 63.2157 34.1809 63.5195C34.2827 63.9413 34.4233 64.3528 34.6009 64.7487C34.9711 65.5755 35.4881 66.3282 36.1269 66.9705C36.3356 67.165 36.5553 67.3473 36.7849 67.5165C36.7863 68.1493 36.7849 68.7835 36.7863 69.4177ZM33.5173 50.5289C34.4119 47.0947 37.3533 43.9489 41.0521 43.8089C41.0643 43.8096 41.0764 43.8096 41.0885 43.8089C41.3349 44.0973 41.9691 44.0707 42.4465 43.8719C43.9924 44.0839 45.4639 44.6676 46.7347 45.5729C48.0056 46.4783 49.0379 47.6783 49.7433 49.0701C50.6398 51.1731 51.0306 53.4569 50.8843 55.7383C50.3384 55.5274 49.76 55.4133 49.1749 55.4009C48.3166 55.3446 47.4664 55.1992 46.6381 54.9669C44.9007 54.4909 43.0877 53.5445 43.0135 51.5327C43.0023 51.2261 42.5837 51.1505 42.1301 51.2233C39.0865 51.3325 35.6117 52.6443 34.2523 55.5633C33.8926 55.6473 33.5439 55.7733 33.2135 55.9385V54.9991C33.1227 53.5022 33.2248 51.9998 33.5173 50.5289ZM44.4233 67.5599C42.9634 68.0995 41.3531 68.0654 39.9174 67.4645C38.4816 66.8635 37.3272 65.7404 36.6869 64.3217C36.3827 63.5493 36.1653 62.7454 36.0387 61.9249C35.8301 61.0387 35.1175 61.1199 34.4497 60.7419C32.8957 59.8613 32.6829 56.6917 34.8697 56.5881C35.1069 56.5833 35.3385 56.515 35.5403 56.3904C35.7422 56.2659 35.907 56.0895 36.0177 55.8797C36.456 54.8953 37.1596 54.0523 38.0497 53.4451C38.9398 52.8378 39.9813 52.4903 41.0577 52.4413C41.4105 54.8325 44.1293 55.8573 46.2377 56.2983C47.3857 56.5391 49.0279 56.3249 49.9519 57.1383C50.2565 57.3902 50.4906 57.7166 50.6316 58.0858C50.7725 58.455 50.8155 58.8544 50.7563 59.2451C50.6971 59.6358 50.5377 60.0046 50.2937 60.3155C50.0497 60.6263 49.7294 60.8688 49.3639 61.0191C49.0528 61.0834 48.7632 61.226 48.5226 61.4335C48.282 61.6411 48.0984 61.9066 47.9891 62.2049C47.8617 62.9325 47.6897 63.6516 47.4739 64.3581C46.8934 65.7694 45.8049 66.9118 44.4233 67.5599ZM47.2163 67.2001C48.1567 66.4388 48.9045 65.4666 49.3989 64.3623C49.5743 63.9655 49.7148 63.5542 49.8189 63.1331C49.8553 62.9833 49.9099 62.0229 49.9001 62.0355C50.1684 61.853 50.4685 61.7224 50.7849 61.6505V70.2619C49.6508 69.7777 48.4447 69.4835 47.2149 69.3911C47.2261 68.6561 47.2191 67.9239 47.2163 67.2001ZM18.0277 38.4077C18.9431 38.3419 19.862 38.3419 20.7773 38.4077H40.9835V43.1383C38.3479 43.4235 35.8908 44.6075 34.0255 46.4913C30.6977 49.9395 31.1863 54.4125 31.1863 58.7917V58.9177C31.1863 58.9634 31.1863 59.0101 31.1863 59.0577V71.6451C30.6372 72.0548 30.129 72.5166 29.6687 73.0241C29.3532 73.3827 29.0627 73.7625 28.7993 74.1609C28.0525 72.9554 27.0656 71.9165 25.8999 71.1089C24.3263 70.066 22.5072 69.453 20.6233 69.3309C20.6317 68.6757 20.6233 68.0191 20.6233 67.3639C20.7479 67.2575 20.8851 67.1651 21.0041 67.0517C21.6449 66.4438 22.1809 65.7343 22.5903 64.9517C22.9295 64.1253 23.1942 63.2702 23.3813 62.3967C23.4177 62.2833 23.4975 62.0887 23.3533 62.2091C23.5937 62.0947 23.8433 62.001 24.0995 61.9291C24.4795 61.7404 24.8273 61.4928 25.1299 61.1955C25.7931 60.5546 26.1866 59.6849 26.2303 58.7637C27.5407 57.1257 27.5799 54.2123 27.6177 52.3237C27.8038 50.8947 27.6242 49.4419 27.0955 48.1013C26.7038 47.392 26.141 46.7917 25.4584 46.3551C24.7758 45.9184 23.995 45.6592 23.1867 45.6009C21.8399 43.5317 18.8285 42.8863 16.4079 42.7911C16.3393 41.1601 16.0999 38.6989 18.0277 38.4077ZM16.5199 73.6401C16.5106 73.6389 16.5012 73.6389 16.4919 73.6401C16.4667 73.6485 16.3519 73.6779 16.3337 73.6835C16.1867 73.7163 16.0363 73.7309 15.8857 73.7269C15.1993 73.7111 14.533 73.4913 13.9719 73.0955C13.4192 72.709 12.9699 72.1927 12.6633 71.592C12.3567 70.9913 12.2023 70.3244 12.2135 69.6501V68.7765C13.2366 69.1746 14.3286 69.3653 15.426 69.3374C16.5235 69.3096 17.6044 69.0637 18.6059 68.6141C18.6171 69.0887 18.6171 69.5675 18.5891 70.0407C18.5891 70.0547 18.5751 70.0645 18.5723 70.0785C18.5695 70.0925 18.5835 70.1079 18.5821 70.1275C18.5876 70.701 18.4724 71.2692 18.244 71.7952C18.0156 72.3212 17.6791 72.7934 17.2563 73.1809C17.0529 73.3485 16.8289 73.4897 16.5899 73.6009C16.5409 73.6205 16.5339 73.6247 16.5199 73.6401ZM8.02053 46.8329C8.27327 46.8551 8.52756 46.8139 8.76031 46.7129C8.99306 46.612 9.19691 46.4544 9.35333 46.2547C10.3557 44.3129 13.4959 43.9937 15.4139 44.0371C17.0998 44.0036 18.7604 44.4503 20.2019 45.3251C20.559 45.5615 20.8802 45.8482 21.1553 46.1763C21.2351 46.2743 21.4983 46.6901 21.3863 46.4717C21.4456 46.5869 21.5371 46.6825 21.6497 46.7466C21.7623 46.8107 21.8912 46.8407 22.0205 46.8329C22.8406 46.8616 23.6273 47.1647 24.2545 47.6937C24.8818 48.2228 25.3133 48.947 25.4799 49.7505C25.6684 51.0536 25.6835 52.376 25.5247 53.6831C25.4788 54.5587 25.3703 55.4298 25.1999 56.2899C25.0273 56.1113 24.8352 55.9526 24.6273 55.8167C24.1989 55.5465 23.5563 55.5213 23.3491 55.0817C23.254 54.7599 23.1782 54.4326 23.1223 54.1017C22.7988 53.078 22.2366 52.146 21.482 51.3824C20.7274 50.6188 19.8021 50.0455 18.7823 49.7099C18.4969 49.6181 18.1889 49.6243 17.9073 49.7276C17.6258 49.8308 17.3868 50.0251 17.2283 50.2797C17.4341 49.9605 17.0379 50.4743 16.9189 50.5737C16.6963 50.7552 16.4388 50.8891 16.1624 50.9671C15.8859 51.0451 15.5964 51.0656 15.3117 51.0273C14.9543 50.9879 14.6097 50.8713 14.3018 50.6857C13.9938 50.5 13.7299 50.2497 13.5281 49.9521C13.3859 49.8061 13.2046 49.7042 13.006 49.6586C12.8074 49.6129 12.5998 49.6254 12.4081 49.6945C10.852 50.1824 9.49926 51.1682 8.55813 52.5001C8.24371 52.9665 7.98836 53.4702 7.79793 53.9995C7.71113 54.2431 7.32753 55.1195 7.43113 55.3995C7.27044 55.4439 7.11322 55.5001 6.96073 55.5675C6.64061 55.6989 6.33782 55.8691 6.05913 56.0743C5.91038 56.1872 5.77001 56.3107 5.63913 56.4439C5.47933 55.6337 5.3727 54.8138 5.31993 53.9897C5.11973 51.8141 4.61993 46.8329 8.02053 46.8329ZM9.34493 61.6141C9.09433 61.0401 8.64493 60.9617 8.11153 60.7629C7.78403 60.6471 7.48827 60.456 7.24803 60.2051C7.0078 59.9541 6.8298 59.6503 6.72833 59.3181C6.66596 59.0955 6.6381 58.8646 6.64573 58.6335C6.64573 58.6335 6.64573 58.6223 6.64573 58.6153C6.64644 58.1353 6.81424 57.6705 7.12033 57.3007C7.57813 56.7701 8.24033 56.8177 8.79193 56.4453C9.60953 55.8853 9.54093 54.6659 9.91193 53.8217C10.3622 52.7786 11.161 51.9244 12.1715 51.4053C13.0294 52.1332 14.1164 52.5354 15.2415 52.5413C16.3665 52.5472 17.4577 52.1564 18.3231 51.4375C19.0282 51.7799 19.6502 52.2719 20.1456 52.8793C20.6411 53.4866 20.9981 54.1948 21.1917 54.9543C21.3681 55.6389 21.3653 56.3207 22.1045 56.6637C22.5668 56.7866 23.0063 56.9828 23.4065 57.2447C23.6382 57.4502 23.8258 57.7006 23.9579 57.9807C24.09 58.2608 24.1639 58.5648 24.1751 58.8743C24.1832 59.1959 24.1181 59.5151 23.9847 59.8079C23.8514 60.1006 23.6532 60.3592 23.4051 60.5641C22.8591 60.9659 22.1451 60.9015 21.6873 61.4727C21.4075 61.9571 21.253 62.5038 21.2379 63.0631C21.0936 63.7613 20.8303 64.4295 20.4595 65.0385C19.7911 66.1524 18.7646 67.0067 17.5478 67.4616C16.331 67.9166 14.9958 67.9453 13.7605 67.5431C12.5082 67.1213 11.4206 66.3154 10.6525 65.2401C10.2883 64.7396 10.0009 64.1875 9.79993 63.6021C9.57593 62.9679 9.60673 62.2133 9.34493 61.6141ZM16.0915 82.0849H6.90613C5.52713 82.0849 2.65853 82.7555 2.41353 80.8683C2.08662 78.4648 2.72637 76.0297 4.19244 74.0973C5.65851 72.1648 7.83121 70.8928 10.2339 70.5601C10.2818 71.2523 10.4939 71.9231 10.8525 72.5172C11.2111 73.1112 11.7059 73.6113 12.2961 73.9761C13.0277 74.3747 13.8373 74.6093 14.6686 74.6636C15.5 74.7178 16.3332 74.5905 17.1103 74.2903C17.8875 73.9902 18.59 73.5245 19.1691 72.9255C19.7482 72.3266 20.19 71.6088 20.4637 70.8219C22.0487 71.0413 23.5484 71.6729 24.8127 72.6537C26.077 73.6345 27.0616 74.93 27.6681 76.4107C27.193 77.8003 26.9595 79.2612 26.9779 80.7297C26.9654 81.1974 27.0612 81.6617 27.2579 82.0863L16.0915 82.0849ZM53.3315 81.9365H32.2153C31.4303 82.0205 30.6386 82.0205 29.8535 81.9365C28.2295 81.5417 29.0247 78.1117 29.6323 76.3729C29.7019 76.2845 29.7412 76.176 29.7443 76.0635C29.8227 75.8563 29.8955 75.6827 29.9543 75.5637C30.5943 74.2346 31.5649 73.0923 32.7733 72.2463C33.9817 71.4003 35.3872 70.8789 36.8549 70.7323C36.9258 71.3914 37.1465 72.0256 37.5 72.5863C37.8535 73.1471 38.3306 73.6196 38.8947 73.9677C39.6297 74.3656 40.4425 74.5986 41.2766 74.6505C42.1108 74.7023 42.9462 74.5718 43.7248 74.268C44.5034 73.9642 45.2064 73.4944 45.785 72.8913C46.3635 72.2882 46.8037 71.5662 47.0749 70.7757C48.2728 70.9453 49.4251 71.3511 50.4648 71.9697C51.5044 72.5884 52.4109 73.4074 53.1313 74.3793C54.5061 76.3908 55.1572 78.8095 54.9779 81.2393C54.9779 81.6173 54.9919 81.7993 54.9877 81.8721H54.6937C54.5501 81.8733 54.4078 81.9004 54.2737 81.9519C53.9545 81.9631 53.6199 81.9365 53.3315 81.9365ZM81.2937 81.8721C81.2223 81.9169 81.0361 81.8553 80.9563 81.8721C80.184 81.947 79.4061 81.947 78.6337 81.8721H56.7937C57.0941 80.9294 57.1651 79.9287 57.0009 78.9531C56.9318 77.9424 56.709 76.9482 56.3401 76.0047C56.9756 74.4282 58.0432 73.0631 59.4201 72.0665C60.6018 71.2188 61.9969 70.7184 63.4479 70.6217C63.5116 71.3145 63.7342 71.9832 64.0984 72.5759C64.4627 73.1686 64.9587 73.6693 65.5479 74.0391C66.2772 74.4501 67.0889 74.6934 67.924 74.7513C68.7591 74.8092 69.5966 74.6803 70.3757 74.3739C71.1547 74.0675 71.8557 73.5914 72.4276 72.9801C72.9995 72.3688 73.428 71.6378 73.6819 70.8401C75.8559 71.1675 77.8429 72.2566 79.2884 73.9131C80.7339 75.5696 81.5438 77.6858 81.5737 79.8841C81.5835 80.3139 81.7599 81.5851 81.2937 81.8721Z" fill="#262626"/>
<path d="M37.4134 12.3286C37.4255 11.6582 37.5623 10.9959 37.8166 10.3756C37.9352 10.0808 38.0844 9.79921 38.2618 9.53557C38.357 9.39557 38.4578 9.25557 38.5656 9.11557C38.6118 9.05817 38.6594 9.00217 38.7056 8.94617L38.7994 8.84117C39.023 8.61191 39.2662 8.40252 39.526 8.21537L39.6086 8.16077C39.6912 8.10757 39.7752 8.05577 39.8606 8.00677C39.925 7.97037 39.9908 7.93677 40.0566 7.90177C39.8312 8.02357 40.0776 7.89337 40.1294 7.86957C40.2078 7.83457 40.289 7.80097 40.3702 7.77017L40.4066 7.75337C40.5651 7.69121 40.7292 7.64433 40.8966 7.61337H40.905C40.911 7.61462 40.9172 7.61462 40.9232 7.61337C41.024 7.59937 41.1248 7.58257 41.227 7.57137L41.367 7.55877H41.598C41.848 7.57205 42.0978 7.53 42.3296 7.43562C42.5615 7.34124 42.7696 7.19686 42.9392 7.01277C43.2052 6.62357 42.711 6.45277 42.3988 6.45277C40.5031 6.44141 38.6743 7.1528 37.2846 8.44217C36.6862 9.01462 36.2096 9.70206 35.8834 10.4632C35.5572 11.2244 35.3881 12.0436 35.3862 12.8718C35.3862 13.0258 35.6788 13.114 35.774 13.1336C36.0262 13.1738 36.2841 13.1565 36.5286 13.0832C36.8954 12.9768 37.4106 12.7724 37.4134 12.3286Z" fill="#262626"/>
</g>
<defs>
<clipPath id="clip0_823_412">
<rect width="84" height="84" fill="white"/>
</clipPath>
</defs>
</svg>
