<svg width="60" height="60" viewBox="0 0 60 60" fill="none" xmlns="http://www.w3.org/2000/svg">
<path fill-rule="evenodd" clip-rule="evenodd" d="M32.9248 2.02641C34.3894 2.17852 35.5149 3.31617 35.6512 4.78242L36.029 8.84742C36.235 11.0646 38.8377 12.1304 40.5396 10.6947L43.6588 8.06367C44.7843 7.11434 46.3841 7.09266 47.5348 8.01129C49.1215 9.27785 50.5682 10.7128 51.8477 12.2886C52.7759 13.4319 52.7672 15.0322 51.8268 16.1654L49.2203 19.3059C47.7984 21.0195 48.8849 23.6133 51.1036 23.8017L55.1728 24.147C56.6406 24.2715 57.7878 25.3888 57.9509 26.8529C58.1751 28.8649 58.1833 30.9094 57.9739 32.9246C57.8216 34.3893 56.6841 35.5147 55.2178 35.651L54.4088 35.7262C52.1215 33.8592 49.2007 32.739 46.018 32.739C44.6866 32.739 43.4011 32.9359 42.1885 33.3006C44.3444 25.3214 38.354 17.3747 30 17.3747C23.0273 17.3747 17.3748 23.0272 17.3748 29.9999C17.3748 38.3537 25.3212 44.3441 33.3007 42.1883C31.9885 46.5504 33.0109 51.2205 35.9002 54.6169L35.853 55.1727C35.7284 56.6406 34.6111 57.7876 33.147 57.9507C31.135 58.1749 29.0905 58.1831 27.0753 57.9737C25.6105 57.8216 24.4852 56.6839 24.3489 55.2177L23.9711 51.1527C23.7651 48.9355 21.1623 47.8697 19.4604 49.3055L16.3412 51.9364C15.2158 52.8858 13.6159 52.9075 12.4653 51.9888C10.8785 50.7223 9.43187 49.2874 8.15253 47.7115C7.22429 46.5682 7.23285 44.9679 8.17339 43.8347L10.7799 40.6942C12.2018 38.9807 11.1153 36.3868 8.89656 36.1984L4.82734 35.8532C3.35945 35.7286 2.21242 34.6113 2.04929 33.1472C1.82511 31.1348 1.81691 29.0911 2.02632 27.0755C2.17855 25.6109 3.31609 24.4854 4.78234 24.3491L8.84734 23.9713C11.0645 23.7653 12.1303 21.1625 10.6946 19.4606L8.06359 16.3414C7.11425 15.216 7.09257 13.6161 8.01121 12.4655C9.27777 10.8788 10.7126 9.43207 12.2885 8.15262C13.4318 7.22438 15.0321 7.23293 16.1653 8.17348L19.3059 10.78C21.0194 12.2019 23.6133 11.1154 23.8016 8.89664L24.1469 4.82742C24.2714 3.35953 25.3887 2.2125 26.8528 2.04938C28.8672 1.82496 30.9087 1.81699 32.9246 2.02641H32.9248ZM46.018 33.911C39.3316 33.911 33.911 39.3315 33.911 46.0181C33.911 52.7047 39.3316 58.1251 46.018 58.1251C52.7045 58.1251 58.125 52.7046 58.125 46.0181C58.125 39.3316 52.7045 33.911 46.018 33.911ZM53.2272 43.4763L44.3052 52.1293C43.5222 52.8882 42.2477 52.796 41.5848 51.9223L37.5183 46.5679C36.911 45.7673 37.0676 44.6261 37.8681 44.0188C38.6686 43.4115 39.8099 43.5682 40.4172 44.3686L43.2394 48.0845L50.6854 40.8629C51.407 40.1611 52.5611 40.177 53.263 40.8987C53.9649 41.6203 53.9489 42.7744 53.2273 43.4762L53.2272 43.4763ZM21.7732 37.9678C24.8573 41.1516 29.5443 42.3047 33.8012 40.8073C34.5632 39.0233 35.7043 37.4401 37.1235 36.1589C35.4617 34.0276 32.8866 32.6387 30.0003 32.5952C26.361 32.6501 23.216 34.8436 21.7732 37.9678ZM30.0002 21.5766C27.6596 21.5766 25.7621 23.4741 25.7621 25.8147C25.7621 28.1552 27.6596 30.0527 30.0002 30.0527C32.3407 30.0527 34.2382 28.1552 34.2382 25.8147C34.2382 23.4741 32.3407 21.5766 30.0002 21.5766Z" fill="#253E90"/>
</svg>
