<svg width="60" height="60" viewBox="0 0 60 60" fill="none" xmlns="http://www.w3.org/2000/svg">
<path d="M52.1323 12.8647L39.6353 0.367734C39.409 0.140742 39.0962 0 38.75 0H12.5C9.74367 0 7.5 2.24238 7.5 5.00004V55.0001C7.5 57.7576 9.74367 60 12.5 60H47.5001C50.2563 60 52.5 57.7576 52.5 55V13.75C52.5 13.4038 52.3593 13.091 52.1323 12.8647ZM16.25 12.5H31.25C31.941 12.5 32.5001 13.0591 32.5001 13.7501C32.5001 14.441 31.941 15.0001 31.25 15.0001H16.25C15.5591 15.0001 15 14.441 15 13.7501C15 13.0591 15.5591 12.5 16.25 12.5ZM34.6264 47.1411C29.1846 52.5 27.9175 52.5 27.5 52.5C25.9473 52.5 25.3907 50.7178 24.8145 48.8086C23.9428 50.5774 22.9395 52.5 21.25 52.5C20.3808 52.5 19.3407 51.9275 18.3618 51.0559C17.8955 51.5197 17.4315 51.9263 16.9995 52.2498C16.7748 52.4183 16.5111 52.5 16.2499 52.5C15.8715 52.5 15.4955 52.3279 15.2489 51.9995C14.8363 51.4478 14.9486 50.664 15.5004 50.2502C15.8959 49.9523 16.2988 49.5935 16.6943 49.198C15.7007 47.8271 15 46.2647 15 45C15 42.1472 17.2754 40 18.75 40C20.2002 40 22.5 41.0181 22.5 43.75C22.5 45.3417 21.394 47.4011 20.017 49.1796C20.5273 49.6557 20.9912 49.9718 21.2621 49.9999C21.538 49.8059 22.2973 48.2604 22.6635 47.5182C23.4105 46.0021 23.9037 44.9999 25 44.9999C26.2818 44.9999 26.6796 46.3293 27.1875 48.0125C27.3364 48.5118 27.583 49.3345 27.8003 49.8265C28.7182 49.2063 31.0351 47.1677 32.8736 45.3587C33.3667 44.8765 34.1577 44.8789 34.6411 45.3734C35.1245 45.8654 35.1197 46.6564 34.6264 47.1411ZM43.75 37.5H26.25C25.5591 37.5 25 36.9409 25 36.25C25 35.559 25.5591 34.9999 26.25 34.9999H43.75C44.4409 34.9999 45 35.559 45 36.25C45 36.9409 44.4409 37.5 43.75 37.5ZM43.75 30H16.25C15.5591 30 15 29.4409 15 28.75C15 28.059 15.5591 27.4999 16.25 27.4999H43.7501C44.441 27.4999 45.0001 28.059 45.0001 28.75C45 29.4409 44.4409 30 43.75 30ZM43.75 22.5H16.25C15.5591 22.5 15 21.9409 15 21.25C15 20.559 15.5591 19.9999 16.25 19.9999H43.7501C44.441 19.9999 45.0001 20.559 45.0001 21.25C45 21.9409 44.4409 22.5 43.75 22.5ZM42.5 12.5C41.1206 12.5 40.0001 11.3782 40.0001 10.0001V4.26762L48.2325 12.5H42.5Z" fill="#253E90"/>
<path d="M18.75 42.5C18.6182 42.583 17.5 43.4754 17.5 45C17.5 45.6396 17.8613 46.4429 18.3692 47.2168C19.3263 45.8923 20.0001 44.5472 20.0001 43.75C20.0001 42.5598 18.9576 42.5 18.75 42.5Z" fill="#181818"/>
</svg>
