<svg width="85" height="84" viewBox="0 0 85 84" fill="none" xmlns="http://www.w3.org/2000/svg">
<path d="M42.3076 83.2566C42.1573 83.2568 42.0109 83.2086 41.8901 83.1192C41.7693 83.0297 41.6806 82.9037 41.6369 82.7599C41.5933 82.6161 41.5971 82.462 41.6477 82.3205C41.6984 82.179 41.7933 82.0576 41.9184 81.9742L52.1384 75.1422L38.3344 83.111C38.1771 83.2005 37.9912 83.2256 37.8158 83.181C37.6403 83.1364 37.489 83.0255 37.3936 82.8717C37.2981 82.718 37.2659 82.5332 37.3038 82.3562C37.3416 82.1792 37.4466 82.0237 37.5966 81.9224L48.3038 74.83L34.1904 82.9752C34.0329 83.0688 33.845 83.0969 33.667 83.0535C33.4891 83.0101 33.3352 82.8986 33.2385 82.7431C33.1417 82.5875 33.1098 82.4002 33.1496 82.2214C33.1894 82.0426 33.2976 81.8865 33.4512 81.7866L45.9602 73.437L29.87 82.7246C29.7129 82.8177 29.5256 82.8457 29.3482 82.8027C29.1707 82.7596 29.0171 82.6489 28.9201 82.4942C28.8231 82.3395 28.7904 82.153 28.829 81.9745C28.8676 81.796 28.9744 81.6397 29.1266 81.5388L43.3156 71.9166L25.313 82.3116C25.1552 82.4095 24.965 82.4406 24.7842 82.3982C24.6034 82.3558 24.4469 82.2433 24.3491 82.0855C24.2513 81.9277 24.2201 81.7375 24.2625 81.5568C24.3049 81.376 24.4174 81.2195 24.5752 81.1216L36.17 73.4216L21.61 81.83C21.4528 81.9168 21.2682 81.9399 21.0945 81.8944C20.9208 81.849 20.7712 81.7385 20.6766 81.5859C20.5821 81.4332 20.5498 81.2501 20.5864 81.0743C20.6231 80.8985 20.7259 80.7435 20.8736 80.6414L31.5962 73.5294L18.2332 81.242C18.0753 81.3289 17.8899 81.3515 17.7157 81.3051C17.5416 81.2587 17.392 81.1469 17.2982 80.993C17.2043 80.8391 17.1735 80.655 17.2121 80.4789C17.2506 80.3028 17.3556 80.1484 17.5052 80.0478L21.687 77.3682L15.884 80.717C15.7263 80.8026 15.5418 80.8244 15.3685 80.7779C15.1953 80.7313 15.0465 80.6201 14.9529 80.467C14.8593 80.3139 14.828 80.1308 14.8656 79.9553C14.9031 79.7799 15.0066 79.6256 15.1546 79.5242L20.2884 76.2062L13.77 79.9694C13.6121 80.0563 13.4267 80.0789 13.2525 80.0325C13.0784 79.9861 12.9288 79.8743 12.835 79.7204C12.7411 79.5665 12.7103 79.3824 12.7489 79.2063C12.7874 79.0302 12.8924 78.8758 13.042 78.7752L15.282 77.3374L12.4736 78.96C12.3159 79.0497 12.1295 79.0746 11.9538 79.0296C11.7781 78.9845 11.6267 78.873 11.5316 78.7185C11.4365 78.564 11.405 78.3787 11.4439 78.2015C11.4828 78.0243 11.5889 77.8691 11.74 77.7686L16.024 74.9686L11.516 77.5712C11.359 77.6569 11.1752 77.6793 11.0023 77.6338C10.8293 77.5882 10.6804 77.4782 10.586 77.3263C10.4916 77.1744 10.4589 76.9922 10.4947 76.8169C10.5304 76.6417 10.6319 76.4868 10.7782 76.384L15.5186 73.2284L10.9882 75.8422C10.8325 75.931 10.6487 75.9567 10.4746 75.914C10.3005 75.8714 10.1494 75.7635 10.0525 75.6127C9.9556 75.462 9.9202 75.2797 9.95363 75.1037C9.98705 74.9276 10.0868 74.771 10.2322 74.6662L17.3344 69.6122L10.942 73.3012C10.7875 73.3904 10.6048 73.4172 10.4312 73.3762C10.2576 73.3352 10.1062 73.2295 10.0079 73.0806C9.90966 72.9318 9.87191 72.751 9.90239 72.5753C9.93288 72.3996 10.0293 72.2421 10.172 72.135L15.4612 68.187L11.2094 70.6412C11.0631 70.7256 10.8913 70.7543 10.7255 70.722C10.5598 70.6897 10.4113 70.5986 10.3075 70.4654C10.2036 70.3322 10.1514 70.166 10.1605 69.9974C10.1696 69.8288 10.2393 69.6691 10.3568 69.5478L13.8372 65.9666L13.7658 66.0058C13.6861 66.0565 13.597 66.0905 13.5039 66.1058C13.4107 66.1211 13.3154 66.1174 13.2237 66.095C13.132 66.0725 13.0458 66.0317 12.9703 65.9751C12.8948 65.9185 12.8315 65.8471 12.7842 65.7654C12.737 65.6837 12.7067 65.5932 12.6954 65.4995C12.684 65.4058 12.6917 65.3107 12.718 65.2201C12.7443 65.1294 12.7887 65.045 12.8484 64.9719C12.9082 64.8988 12.9821 64.8386 13.0658 64.7948L17.4982 62.2356C17.6444 62.1512 17.8163 62.1225 17.982 62.1548C18.1478 62.1872 18.2963 62.2783 18.4001 62.4115C18.5039 62.5446 18.5561 62.7108 18.5471 62.8795C18.538 63.0481 18.4683 63.2078 18.3508 63.329L14.8704 66.9116L25.047 61.0316C25.2014 60.9444 25.3832 60.9191 25.5555 60.9607C25.7279 61.0024 25.8781 61.1079 25.9757 61.256C26.0732 61.404 26.111 61.5836 26.0813 61.7584C26.0516 61.9333 25.9566 62.0903 25.8156 62.1978L20.5236 66.1486L29.3898 61.04C29.5455 60.9512 29.7293 60.9255 29.9034 60.9682C30.0775 61.0109 30.2285 61.1188 30.3255 61.2695C30.4224 61.4203 30.4578 61.6025 30.4244 61.7786C30.3909 61.9547 30.2912 62.1113 30.1458 62.216L23.0478 67.2672L33.8362 61.04C33.9932 60.9543 34.177 60.932 34.3499 60.9775C34.5228 61.023 34.6718 61.133 34.7662 61.2849C34.8606 61.4368 34.8932 61.6191 34.8575 61.7943C34.8218 61.9695 34.7203 62.1244 34.574 62.2272L29.849 65.373L37.3572 61.033C37.5149 60.9434 37.7013 60.9184 37.877 60.9635C38.0527 61.0085 38.2041 61.1201 38.2992 61.2745C38.3943 61.429 38.4258 61.6144 38.3869 61.7916C38.348 61.9688 38.2418 62.124 38.0908 62.2244L33.8026 65.0244L40.7186 61.0316C40.8765 60.9448 41.0619 60.9222 41.2361 60.9686C41.4102 61.0149 41.5598 61.1267 41.6536 61.2806C41.7474 61.4345 41.7783 61.6187 41.7397 61.7948C41.7011 61.9708 41.5962 62.1252 41.4466 62.2258L39.194 63.6734L43.7664 61.04C43.9241 60.9544 44.1086 60.9327 44.2819 60.9792C44.4551 61.0257 44.6039 61.137 44.6975 61.2901C44.7911 61.4431 44.8224 61.6263 44.7848 61.8017C44.7473 61.9771 44.6438 62.1315 44.4958 62.2328L39.369 65.5452L47.1754 61.04C47.3333 60.9532 47.5187 60.9306 47.6929 60.977C47.867 61.0233 48.0166 61.1351 48.1104 61.289C48.2042 61.4429 48.2351 61.6271 48.1965 61.8032C48.1579 61.9792 48.053 62.1336 47.9034 62.2342L43.7216 64.9138L50.4332 61.04C50.5905 60.9505 50.7764 60.9255 50.9518 60.9701C51.1272 61.0147 51.2786 61.1255 51.374 61.2793C51.4695 61.4331 51.5017 61.6179 51.4638 61.7949C51.4259 61.9719 51.321 62.1273 51.171 62.2286L40.4512 69.3378L54.825 61.04C54.9822 60.9532 55.1667 60.9302 55.3405 60.9756C55.5142 61.0211 55.6638 61.1315 55.7584 61.2842C55.8529 61.4368 55.8852 61.62 55.8486 61.7958C55.8119 61.9715 55.7091 62.1265 55.5614 62.2286L43.9624 69.9286L59.3624 61.0372C59.519 60.9514 59.7025 60.9286 59.8753 60.9737C60.0482 61.0187 60.1973 61.1281 60.2921 61.2794C60.3869 61.4308 60.4203 61.6126 60.3854 61.7878C60.3505 61.963 60.25 62.1182 60.1044 62.2216L45.9196 71.8438L63.904 61.46C64.0615 61.3665 64.2494 61.3384 64.4273 61.3818C64.6053 61.4252 64.7592 61.5366 64.8559 61.6922C64.9526 61.8477 64.9846 62.035 64.9448 62.2138C64.905 62.3926 64.7967 62.5487 64.6432 62.6486L52.13 71.0038L67.313 62.2384C67.4706 62.1471 67.6576 62.1207 67.8343 62.165C68.011 62.2093 68.1635 62.3207 68.2593 62.4756C68.3552 62.6306 68.3869 62.8167 68.3477 62.9946C68.3085 63.1725 68.2015 63.3282 68.0494 63.4284L57.3548 70.5124L69.8372 63.3066C69.9943 63.2186 70.1793 63.1944 70.3537 63.2392C70.5281 63.2841 70.6785 63.3944 70.7737 63.5472C70.8689 63.7001 70.9015 63.8838 70.8648 64.0601C70.828 64.2364 70.7247 64.3917 70.5764 64.4938L60.3564 71.3244L71.7076 64.7724C71.8631 64.6876 72.045 64.6649 72.2165 64.7089C72.3881 64.7529 72.5366 64.8603 72.6322 65.0095C72.7277 65.1586 72.7631 65.3384 72.7313 65.5127C72.6995 65.6869 72.6028 65.8426 72.4608 65.9484L60.789 74.1818L73.3344 66.9396C73.4897 66.8526 73.6722 66.828 73.845 66.8708C74.0178 66.9136 74.1678 67.0206 74.2644 67.1701C74.3611 67.3195 74.3972 67.5002 74.3654 67.6753C74.3336 67.8505 74.2362 68.0069 74.0932 68.1128L64.87 74.7698L74.2738 69.3406C74.4275 69.2541 74.6082 69.2288 74.7798 69.2698C74.9513 69.3108 75.1011 69.4151 75.1991 69.5617C75.2971 69.7084 75.3361 69.8866 75.3084 70.0608C75.2806 70.235 75.1881 70.3923 75.0494 70.5012L67.964 75.9528L74.5622 72.1434C74.7146 72.056 74.8943 72.0292 75.0657 72.0681C75.237 72.1071 75.3874 72.2091 75.487 72.3539C75.5866 72.4986 75.6282 72.6755 75.6034 72.8495C75.5786 73.0234 75.4893 73.1817 75.3532 73.2928L71.8 76.1782L74.5118 74.62C74.6577 74.5367 74.8288 74.5087 74.9937 74.5411C75.1586 74.5735 75.3063 74.6641 75.4099 74.7964C75.5136 74.9287 75.5661 75.0939 75.558 75.2617C75.5499 75.4296 75.4817 75.5889 75.3658 75.7106L73.7362 77.4018C73.8773 77.4274 74.0071 77.4956 74.1082 77.5973C74.2092 77.6991 74.2766 77.8294 74.3012 77.9706C74.3258 78.1119 74.3064 78.2573 74.2456 78.3871C74.1849 78.517 74.0858 78.6251 73.9616 78.6968L70.5554 80.6568C70.4094 80.7401 70.2384 80.7682 70.0735 80.7358C69.9086 80.7034 69.7608 80.6128 69.6572 80.4805C69.5536 80.3482 69.5011 80.183 69.5092 80.0151C69.5173 79.8473 69.5855 79.6879 69.7014 79.5662L70.9152 78.3062L64.8868 81.7852C64.7346 81.8707 64.5559 81.8962 64.3859 81.8568C64.2158 81.8173 64.0667 81.7158 63.9676 81.572C63.8686 81.4283 63.8268 81.2527 63.8505 81.0798C63.8742 80.9069 63.9617 80.749 64.0958 80.6372L67.6476 77.749L59.4954 82.46C59.3416 82.5483 59.1601 82.5749 58.9874 82.5345C58.8148 82.4941 58.6639 82.3897 58.5652 82.2424C58.4666 82.095 58.4275 81.9157 58.456 81.7407C58.4844 81.5657 58.5782 81.408 58.7184 81.2994L65.801 75.852L53.5874 82.9038C53.4321 82.9909 53.2495 83.0155 53.0768 82.9727C52.904 82.9299 52.754 82.8228 52.6574 82.6734C52.5607 82.5239 52.5246 82.3432 52.5564 82.1681C52.5882 81.993 52.6855 81.8365 52.8286 81.7306L62.0616 75.0708L48.1386 83.104C47.9831 83.1888 47.8012 83.2115 47.6296 83.1675C47.4581 83.1235 47.3096 83.0161 47.214 82.867C47.1185 82.7178 47.0831 82.538 47.1149 82.3638C47.1467 82.1895 47.2433 82.0338 47.3854 81.928L59.0544 73.696L42.6576 83.16C42.5514 83.2225 42.4307 83.2558 42.3076 83.2566Z" fill="#36A5F7"/>
<path d="M48.2743 72.9244C48.1274 72.9244 47.9842 72.8781 47.865 72.7922C47.7458 72.7063 47.6567 72.5851 47.6102 72.4457C47.5638 72.3063 47.5623 72.1559 47.6061 72.0156C47.6499 71.8754 47.7368 71.7525 47.8543 71.6644L51.7099 68.8112L47.6499 71.1548C47.4949 71.2443 47.3114 71.2711 47.1373 71.2295C46.9632 71.188 46.8115 71.0813 46.7137 70.9314C46.6158 70.7815 46.579 70.5998 46.611 70.4237C46.6429 70.2475 46.7412 70.0903 46.8855 69.9844L49.9557 67.736L46.6293 69.6568C46.477 69.7437 46.2977 69.7704 46.1267 69.7314C45.9558 69.6925 45.8056 69.5909 45.706 69.4466C45.6064 69.3023 45.5646 69.1258 45.5888 68.9522C45.6131 68.7785 45.7016 68.6203 45.8369 68.5088L51.0771 64.25L44.9297 67.799C44.776 67.8885 44.5941 67.9162 44.4208 67.8764C44.2474 67.8366 44.0957 67.7324 43.9965 67.5848C43.8972 67.4373 43.8578 67.2575 43.8863 67.082C43.9148 66.9064 44.0091 66.7483 44.1499 66.6398L46.9009 64.572L43.3939 66.595C43.3142 66.6456 43.2251 66.6796 43.132 66.6949C43.0388 66.7103 42.9435 66.7066 42.8518 66.6841C42.7601 66.6617 42.6739 66.6209 42.5984 66.5642C42.5229 66.5076 42.4596 66.4363 42.4123 66.3545C42.3651 66.2728 42.3349 66.1823 42.3235 66.0886C42.3121 65.9949 42.3198 65.8999 42.3461 65.8092C42.3724 65.7185 42.4168 65.6341 42.4765 65.561C42.5363 65.4879 42.6102 65.4277 42.6939 65.384L56.2137 57.579C56.368 57.4906 56.5501 57.4642 56.7232 57.5052C56.8962 57.5462 57.0471 57.6516 57.1453 57.7998C57.2435 57.9481 57.2816 58.1281 57.2518 58.3035C57.2221 58.4788 57.1267 58.6362 56.9851 58.7438L54.2355 60.8102L57.9889 58.6444C58.1411 58.5589 58.3197 58.5334 58.4898 58.5728C58.6598 58.6122 58.809 58.7138 58.9081 58.8575C59.0071 59.0013 59.0489 59.1768 59.0252 59.3498C59.0014 59.5227 58.914 59.6806 58.7799 59.7924L53.5397 64.0512L60.3997 60.092C60.5547 60.0024 60.7382 59.9756 60.9123 60.0172C61.0864 60.0587 61.238 60.1654 61.3359 60.3153C61.4338 60.4652 61.4706 60.6469 61.4386 60.8231C61.4066 60.9992 61.3084 61.1564 61.1641 61.2624L58.0925 63.5122L61.6051 61.485C61.7597 61.3971 61.942 61.3713 62.1149 61.4129C62.2878 61.4546 62.4384 61.5605 62.5361 61.7091C62.6337 61.8577 62.6712 62.038 62.6407 62.2132C62.6103 62.3884 62.5143 62.5455 62.3723 62.6526L57.9077 65.9608C58.033 65.9568 58.157 65.9874 58.2661 66.0491C58.3752 66.1109 58.4653 66.2014 58.5265 66.3108C58.6193 66.4715 58.6445 66.6626 58.5964 66.8419C58.5484 67.0212 58.4311 67.1741 58.2703 67.267L48.6299 72.8292C48.5222 72.8925 48.3993 72.9254 48.2743 72.9244Z" fill="#E3E4ED"/>
<path d="M36.2288 73.1193C36.0939 73.1193 35.9618 73.0804 35.8485 73.0071C35.7352 72.9338 35.6455 72.8294 35.5902 72.7063C35.5349 72.5832 35.5163 72.4468 35.5367 72.3134C35.5571 72.18 35.6157 72.0554 35.7052 71.9545L35.8242 71.8145L34.973 72.3045C34.8169 72.3887 34.6346 72.4104 34.463 72.3653C34.2914 72.3202 34.1434 72.2116 34.0488 72.0616C33.9542 71.9115 33.9201 71.7311 33.9534 71.5568C33.9867 71.3826 34.085 71.2275 34.2282 71.1229L40.0746 67.1133L32.9808 71.2083C32.825 71.2958 32.6416 71.3205 32.4683 71.2771C32.2949 71.2338 32.1446 71.1258 32.0483 70.9752C31.952 70.8247 31.9169 70.643 31.9503 70.4674C31.9836 70.2919 32.0829 70.1357 32.2276 70.0309L38.3148 65.7357L31.0768 69.9133C30.9227 70.001 30.7411 70.027 30.5686 69.986C30.3961 69.9449 30.2456 69.84 30.1475 69.6923C30.0494 69.5446 30.011 69.3652 30.04 69.1902C30.0691 69.0153 30.1634 68.8579 30.304 68.7499L37.024 63.6665L29.044 68.2739C28.8907 68.3641 28.7088 68.3925 28.5353 68.3533C28.3618 68.3142 28.2097 68.2105 28.1099 68.0633C28.01 67.9161 27.97 67.7364 27.9979 67.5607C28.0258 67.385 28.1195 67.2266 28.26 67.1175L33.6206 62.8923L27.2408 66.5757C27.0856 66.6663 26.9015 66.6937 26.7267 66.6522C26.5518 66.6107 26.3996 66.5036 26.3015 66.353C26.2035 66.2024 26.1671 66.0199 26.1999 65.8432C26.2327 65.6665 26.3322 65.5092 26.4778 65.4039L27.5152 64.6493L26.1572 65.4319C26.0082 65.515 25.834 65.5407 25.6673 65.5044C25.5007 65.4681 25.353 65.3721 25.2521 65.2346C25.1512 65.097 25.1039 64.9274 25.1193 64.7575C25.1346 64.5876 25.2115 64.4291 25.3354 64.3119L28.68 61.2529L24.6018 63.6077C24.4502 63.6961 24.2709 63.7243 24.0994 63.6868C23.9279 63.6492 23.7768 63.5485 23.6761 63.4048C23.5753 63.261 23.5322 63.0847 23.5554 62.9107C23.5785 62.7367 23.6662 62.5777 23.801 62.4653L24.3344 62.0173L23.6834 62.3911C23.6038 62.4418 23.5147 62.4758 23.4215 62.4911C23.3284 62.5064 23.2331 62.5027 23.1414 62.4803C23.0497 62.4578 22.9635 62.417 22.8879 62.3604C22.8124 62.3037 22.7491 62.2324 22.7019 62.1507C22.6546 62.0689 22.6244 61.9785 22.613 61.8848C22.6016 61.7911 22.6093 61.696 22.6356 61.6053C22.6619 61.5147 22.7063 61.4303 22.7661 61.3572C22.8259 61.2841 22.8998 61.2239 22.9834 61.1801L30.5126 56.8401C30.6641 56.7536 30.8424 56.7267 31.0126 56.7647C31.1828 56.8028 31.3327 56.903 31.4329 57.0458C31.5331 57.1885 31.5764 57.3635 31.5543 57.5366C31.5322 57.7096 31.4463 57.8681 31.3134 57.9811L30.78 58.4291L33.538 56.8387C33.6871 56.7557 33.8613 56.7299 34.0279 56.7662C34.1946 56.8026 34.3423 56.8985 34.4432 57.036C34.5441 57.1736 34.5913 57.3432 34.576 57.5131C34.5606 57.683 34.4838 57.8415 34.3598 57.9587L31.018 61.0163L38.2588 56.8401C38.414 56.7519 38.597 56.7262 38.7704 56.7684C38.9438 56.8106 39.0946 56.9174 39.1919 57.0671C39.2891 57.2168 39.3256 57.3979 39.2937 57.5735C39.2618 57.7492 39.1641 57.906 39.0204 58.0119L37.9718 58.7749L41.3248 56.8401C41.4779 56.7524 41.6585 56.7257 41.8304 56.7655C42.0023 56.8052 42.1529 56.9084 42.252 57.0544C42.3511 57.2003 42.3914 57.3784 42.3649 57.5528C42.3383 57.7272 42.2469 57.8852 42.1088 57.9951L36.7496 62.2189L46.0708 56.8401C46.2249 56.7524 46.4066 56.7264 46.5791 56.7675C46.7516 56.8085 46.9021 56.9134 47.0002 57.0611C47.0983 57.2088 47.1367 57.3883 47.1077 57.5632C47.0786 57.7381 46.9842 57.8955 46.8436 58.0035L40.1236 63.0841L50.9414 56.8387C51.0974 56.7488 51.2819 56.7224 51.4568 56.765C51.6316 56.8076 51.7834 56.9159 51.8805 57.0674C51.9776 57.2189 52.0126 57.402 51.9783 57.5787C51.9439 57.7554 51.8428 57.912 51.696 58.0161L45.6116 62.3001L55.035 56.8597C55.1918 56.7668 55.3785 56.7387 55.5557 56.7813C55.7328 56.824 55.8863 56.934 55.9837 57.088C56.081 57.242 56.1144 57.4278 56.0769 57.6061C56.0394 57.7844 55.9338 57.941 55.7826 58.0427L39.9234 68.9207C39.9417 69.0247 39.9362 69.1315 39.9074 69.2331C39.8785 69.3347 39.8271 69.4284 39.7568 69.5073L38.2168 71.2433L38.2308 71.2657C38.2767 71.3454 38.3065 71.4334 38.3184 71.5246C38.3303 71.6157 38.3241 71.7084 38.3002 71.7972C38.2763 71.886 38.2351 71.9692 38.179 72.0421C38.1229 72.115 38.053 72.1761 37.9732 72.2219L36.583 73.0241C36.4755 73.0868 36.3533 73.1196 36.2288 73.1193Z" fill="#E3E4ED"/>
<path d="M22.2944 30.1001C22.1441 30.1003 21.9977 30.0521 21.8769 29.9626C21.7561 29.8732 21.6673 29.7472 21.6237 29.6034C21.58 29.4596 21.5838 29.3055 21.6345 29.164C21.6852 29.0225 21.7801 28.9011 21.9052 28.8177L37.826 18.2225L22.146 27.2763C21.9878 27.3647 21.8014 27.3884 21.6262 27.3422C21.4509 27.296 21.3004 27.1837 21.2062 27.0288C21.1121 26.8739 21.0817 26.6886 21.1215 26.5118C21.1612 26.3349 21.268 26.1804 21.4194 26.0807L27.2098 22.3917L22.1418 25.3205C21.9847 25.4136 21.7974 25.4416 21.62 25.3985C21.4425 25.3555 21.2889 25.2448 21.1919 25.0901C21.0949 24.9354 21.0622 24.7489 21.1008 24.5704C21.1393 24.3919 21.2461 24.2356 21.3984 24.1347L36.1698 14.1107L22.1698 22.1957C22.0124 22.2852 21.8266 22.3103 21.6511 22.2657C21.4757 22.221 21.3244 22.1102 21.2289 21.9564C21.1335 21.8026 21.1013 21.6179 21.1392 21.4408C21.177 21.2638 21.282 21.1084 21.432 21.0071L31.5946 14.2311L22.4498 19.5133C22.2941 19.5988 22.1116 19.622 21.9395 19.578C21.7674 19.534 21.6184 19.4262 21.5228 19.2765C21.4272 19.1267 21.3921 18.9463 21.4246 18.7716C21.4572 18.5969 21.5549 18.4412 21.698 18.3359L33.2158 10.2341L23.3794 15.9111C23.2229 16.0022 23.0372 16.0291 22.8613 15.9861C22.6854 15.9432 22.533 15.8338 22.4361 15.6809C22.3391 15.5279 22.3052 15.3434 22.3415 15.166C22.3777 14.9886 22.4812 14.8322 22.6304 14.7295L28.6504 10.5589L24.8144 12.7737C24.6631 12.8585 24.4858 12.8842 24.3167 12.8458C24.1476 12.8074 23.9988 12.7076 23.8991 12.5657C23.7994 12.4238 23.756 12.25 23.7771 12.0779C23.7982 11.9058 23.8825 11.7476 24.0136 11.6341L29.3784 7.1023C29.2144 7.14686 29.0398 7.13025 28.8872 7.05558C28.7346 6.98091 28.6143 6.85327 28.5489 6.69648C28.4834 6.53968 28.4772 6.36443 28.5314 6.2034C28.5857 6.04237 28.6966 5.90656 28.8436 5.8213L35.3928 2.0413C35.544 1.95646 35.7213 1.93077 35.8904 1.9692C36.0595 2.00763 36.2083 2.10745 36.308 2.24933C36.4077 2.3912 36.4512 2.56503 36.4301 2.73714C36.4089 2.90924 36.3246 3.06738 36.1936 3.1809L30.9212 7.6329L42.677 0.840102C42.8335 0.749039 43.0191 0.722151 43.195 0.765084C43.3709 0.808016 43.5233 0.91743 43.6203 1.07035C43.7172 1.22327 43.7511 1.4078 43.7149 1.58519C43.6787 1.76258 43.5751 1.91904 43.426 2.0217L37.406 6.1881L46.1098 1.1747C46.2659 1.0835 46.4513 1.05626 46.627 1.09867C46.8028 1.14109 46.9554 1.24987 47.0527 1.40224C47.1501 1.55461 47.1847 1.73874 47.1493 1.91606C47.114 2.09339 47.0113 2.25014 46.863 2.3535L35.3298 10.4553L49.7092 2.1561C49.8665 2.06661 50.0524 2.04154 50.2278 2.08615C50.4032 2.13077 50.5546 2.2416 50.65 2.39539C50.7455 2.54917 50.7777 2.73396 50.7398 2.91096C50.7019 3.08796 50.597 3.24342 50.447 3.3447L40.29 10.1165L52.169 3.2565C52.3259 3.16705 52.5114 3.14174 52.6866 3.18589C52.8618 3.23003 53.0131 3.3402 53.109 3.49336C53.2048 3.64651 53.2377 3.83079 53.2008 4.00765C53.1639 4.18451 53.0601 4.34025 52.911 4.4423L38.1298 14.4705L54.7478 4.8749C54.9065 4.77855 55.097 4.7492 55.2774 4.79331C55.4578 4.83742 55.6132 4.95137 55.7096 5.1101C55.8059 5.26884 55.8353 5.45934 55.7912 5.63971C55.7471 5.82009 55.6331 5.97555 55.4744 6.0719L49.684 9.7581L56.1814 6.0075C56.3387 5.91801 56.5246 5.89294 56.7 5.93755C56.8754 5.98217 57.0268 6.093 57.1222 6.24679C57.2177 6.40057 57.2499 6.58536 57.212 6.76236C57.1741 6.93936 57.0692 7.09482 56.9192 7.1961L40.9914 17.7969L58.1036 7.9171C58.261 7.82904 58.4464 7.80516 58.621 7.85045C58.7956 7.89574 58.946 8.0067 59.0408 8.16019C59.1357 8.31367 59.1675 8.49783 59.1298 8.67426C59.0922 8.85068 58.9878 9.00574 58.8386 9.1071L46.779 17.0647L59.519 9.7133C59.6753 9.62723 59.8585 9.60408 60.0313 9.64857C60.204 9.69306 60.3533 9.80184 60.4486 9.95268C60.5438 10.1035 60.5779 10.2851 60.5438 10.4602C60.5097 10.6353 60.4101 10.7908 60.2652 10.8949L47.1332 19.9291L60.912 11.9757C61.0698 11.8912 61.2539 11.8704 61.4266 11.9175C61.5993 11.9646 61.7473 12.0761 61.8404 12.229C61.9334 12.3819 61.9643 12.5646 61.9268 12.7396C61.8893 12.9146 61.7861 13.0686 61.6386 13.1699L61.5658 13.2161C61.7258 13.1324 61.9119 13.1138 62.0853 13.1641C62.2587 13.2144 62.4059 13.3297 62.4963 13.4861C62.5866 13.6424 62.6131 13.8275 62.5701 14.0029C62.5272 14.1783 62.4181 14.3302 62.2658 14.4271L57.8796 17.3307L62.1804 14.8471C62.3371 14.759 62.5217 14.7345 62.696 14.7788C62.8703 14.8231 63.0208 14.9328 63.1164 15.0851C63.212 15.2374 63.2453 15.4206 63.2094 15.5968C63.1736 15.773 63.0713 15.9287 62.9238 16.0315L57.9202 19.4447L62.7208 16.6741C62.8776 16.5831 63.0637 16.5565 63.2398 16.5999C63.4158 16.6433 63.5682 16.7534 63.6647 16.9069C63.7613 17.0604 63.7944 17.2454 63.7573 17.4229C63.7202 17.6004 63.6156 17.7566 63.4656 17.8585L61.0156 19.5301L63.0638 18.3471C63.2187 18.2597 63.4011 18.2345 63.574 18.2767C63.7468 18.3189 63.8971 18.4254 63.9942 18.5744C64.0914 18.7235 64.1282 18.9039 64.097 19.0791C64.0659 19.2543 63.9693 19.411 63.8268 19.5175L60.0902 22.2489L63.3102 20.3883C63.4647 20.2991 63.6474 20.2723 63.821 20.3133C63.9946 20.3543 64.146 20.46 64.2442 20.6089C64.3425 20.7577 64.3803 20.9385 64.3498 21.1142C64.3193 21.29 64.2229 21.4475 64.0802 21.5545L62.179 22.9825L63.3606 22.3021C63.504 22.2205 63.6716 22.1922 63.8338 22.2222C63.9961 22.2521 64.1425 22.3384 64.2473 22.4658C64.3521 22.5933 64.4086 22.7536 64.4067 22.9186C64.4048 23.0835 64.3447 23.2425 64.237 23.3675L61.3698 26.6449L63.3788 25.4857C63.5217 25.4031 63.6891 25.3736 63.8517 25.4024C64.0142 25.4313 64.1613 25.5167 64.2669 25.6435C64.3726 25.7702 64.4301 25.9303 64.4292 26.0953C64.4284 26.2604 64.3692 26.4198 64.2622 26.5455L63.8282 27.0551C63.9734 27.0738 64.1092 27.1376 64.2162 27.2375C64.3233 27.3374 64.3964 27.4683 64.4252 27.6119C64.4539 27.7555 64.4369 27.9045 64.3765 28.038C64.3161 28.1714 64.2154 28.2825 64.0886 28.3557L61.2998 29.9601C61.1569 30.0427 60.9894 30.0722 60.8269 30.0434C60.6644 30.0145 60.5173 29.9291 60.4116 29.8024C60.3059 29.6756 60.2485 29.5155 60.2493 29.3505C60.2502 29.1854 60.3094 29.026 60.4164 28.9003L60.5732 28.7169L58.413 29.9629C58.2696 30.0445 58.102 30.0728 57.9397 30.0428C57.7775 30.0129 57.6311 29.9266 57.5262 29.7992C57.4214 29.6718 57.365 29.5114 57.3669 29.3464C57.3688 29.1815 57.4289 29.0225 57.5366 28.8975L60.4024 25.6215L52.8676 29.9699C52.7133 30.0583 52.5311 30.0847 52.3581 30.0436C52.1851 30.0026 52.0342 29.8973 51.936 29.749C51.8378 29.6008 51.7997 29.4207 51.8295 29.2454C51.8592 29.0701 51.9546 28.9127 52.0962 28.8051L53.9974 27.3757L49.4978 29.9783C49.3428 30.0657 49.1604 30.0909 48.9876 30.0487C48.8148 30.0065 48.6645 29.9 48.5673 29.751C48.4702 29.6019 48.4334 29.4215 48.4645 29.2463C48.4956 29.0711 48.5923 28.9144 48.7348 28.8079L52.4644 26.0835L45.7108 29.9825C45.5539 30.0735 45.3679 30.1001 45.1918 30.0567C45.0157 30.0133 44.8634 29.9032 44.7668 29.7497C44.6703 29.5962 44.6371 29.4112 44.6743 29.2337C44.7114 29.0562 44.816 28.9 44.966 28.7981L47.4286 27.1181L42.4586 29.9867C42.3017 30.0777 42.1157 30.1043 41.9396 30.0609C41.7635 30.0175 41.6112 29.9074 41.5146 29.7539C41.4181 29.6004 41.3849 29.4154 41.4221 29.2379C41.4592 29.0604 41.5638 28.9042 41.7138 28.8023L46.7062 25.3989L38.7514 29.9909C38.5938 30.0823 38.4068 30.1086 38.2301 30.0643C38.0534 30.02 37.9009 29.9086 37.805 29.7537C37.7092 29.5988 37.6775 29.4126 37.7167 29.2347C37.7559 29.0568 37.8629 28.9012 38.015 28.8009L42.4068 25.8931L35.3046 29.9937C35.1464 30.0821 34.96 30.1058 34.7848 30.0596C34.6095 30.0134 34.459 29.9011 34.3648 29.7462C34.2707 29.5913 34.2403 29.406 34.2801 29.2292C34.3198 29.0523 34.4266 28.8978 34.578 28.7981L34.6298 28.7645L32.4962 29.9965C32.3396 30.086 32.1544 30.1116 31.9794 30.068C31.8044 30.0243 31.653 29.9148 31.5567 29.7622C31.4605 29.6097 31.4269 29.4258 31.4629 29.2491C31.4989 29.0723 31.6017 28.9163 31.75 28.8135L44.8806 19.7793L27.1748 29.9993C27.0172 30.0907 26.8302 30.117 26.6535 30.0727C26.4768 30.0284 26.3243 29.917 26.2284 29.7621C26.1326 29.6072 26.1009 29.421 26.1401 29.2431C26.1793 29.0652 26.2863 28.9096 26.4384 28.8093L38.498 20.8601L22.643 30.0063C22.5373 30.0683 22.4169 30.1007 22.2944 30.1001Z" fill="#D8D9E5"/>
<path d="M42.8269 66.4453C42.68 66.4453 42.5368 66.3991 42.4176 66.3132C42.2984 66.2273 42.2093 66.1061 42.1628 65.9667C42.1164 65.8273 42.1149 65.6768 42.1587 65.5366C42.2025 65.3964 42.2894 65.2735 42.4069 65.1853L45.9615 62.4609L40.4007 65.6711C40.2478 65.7583 40.0676 65.7847 39.8961 65.745C39.7246 65.7053 39.5744 65.6025 39.4753 65.457C39.3762 65.3115 39.3356 65.134 39.3616 64.9599C39.3875 64.7858 39.4781 64.6278 39.6153 64.5175L46.0763 59.3753L37.4299 64.3663C37.2754 64.4555 37.0927 64.4823 36.9191 64.4413C36.7455 64.4003 36.5941 64.2946 36.4958 64.1457C36.3976 63.9969 36.3598 63.8161 36.3903 63.6404C36.4208 63.4646 36.5172 63.3072 36.6599 63.2001L43.2007 58.2917L35.1955 62.9117C35.0394 63.0029 34.854 63.0302 34.6782 62.9877C34.5025 62.9453 34.3499 62.8365 34.2526 62.6842C34.1552 62.5318 34.1206 62.3477 34.156 62.1704C34.1913 61.993 34.2939 61.8363 34.4423 61.7329L39.0091 58.5129L33.6499 61.6167C33.4962 61.7032 33.3155 61.7285 33.1439 61.6875C32.9723 61.6465 32.8226 61.5423 32.7246 61.3956C32.6266 61.249 32.5875 61.0707 32.6153 60.8965C32.6431 60.7223 32.7356 60.565 32.8743 60.4561L38.4855 56.1567L31.9867 59.9059C31.8341 59.9922 31.6548 60.0181 31.484 59.9785C31.3133 59.939 31.1636 59.8368 31.0646 59.6922C30.9655 59.5476 30.9243 59.3711 30.9491 59.1976C30.9739 59.0241 31.0629 58.8662 31.1985 58.7551L35.4405 55.3461L30.6259 58.1265C30.4754 58.214 30.2977 58.2422 30.1275 58.2057C29.9573 58.1692 29.8068 58.0706 29.7053 57.9291C29.6039 57.7877 29.5588 57.6135 29.5789 57.4405C29.599 57.2676 29.6828 57.1084 29.8139 56.9939L32.8365 54.3437L31.8775 54.9037C31.7432 54.9807 31.5872 55.011 31.4339 54.9898C31.2806 54.9687 31.1386 54.8974 31.0301 54.787C30.9217 54.6766 30.8528 54.5334 30.8344 54.3797C30.816 54.2261 30.849 54.0706 30.9283 53.9377L32.5551 51.2231C32.5136 51.1813 32.4779 51.1343 32.4487 51.0831C32.3559 50.9223 32.3307 50.7313 32.3788 50.552C32.4268 50.3726 32.5441 50.2197 32.7049 50.1269L33.6373 49.5893C33.7716 49.5124 33.9276 49.4821 34.0809 49.5032C34.2342 49.5243 34.3762 49.5956 34.4847 49.706C34.5931 49.8164 34.662 49.9596 34.6804 50.1133C34.6988 50.267 34.6658 50.4224 34.5865 50.5553L33.5169 52.3417L38.2937 49.5837C38.4442 49.4963 38.6219 49.468 38.7921 49.5045C38.9623 49.541 39.1128 49.6396 39.2143 49.7811C39.3157 49.9226 39.3608 50.0968 39.3407 50.2697C39.3206 50.4426 39.2368 50.6018 39.1057 50.7163L36.0817 53.3665L42.6463 49.5781C42.7989 49.4918 42.9782 49.4659 43.149 49.5055C43.3197 49.5451 43.4694 49.6473 43.5684 49.7919C43.6675 49.9365 43.7086 50.113 43.6839 50.2865C43.6591 50.46 43.5701 50.6179 43.4345 50.7289L39.1953 54.1337L47.0899 49.5599C47.2436 49.4734 47.4243 49.4481 47.5959 49.4891C47.7674 49.5301 47.9172 49.6344 48.0152 49.781C48.1132 49.9277 48.1522 50.1059 48.1245 50.2801C48.0967 50.4543 48.0042 50.6116 47.8655 50.7205L42.2515 55.0227L51.7281 49.5599C51.8842 49.4687 52.0696 49.4415 52.2454 49.4839C52.4211 49.5263 52.5737 49.6351 52.671 49.7875C52.7684 49.9398 52.803 50.124 52.7676 50.3013C52.7323 50.4786 52.6297 50.6354 52.4813 50.7387L47.9131 53.9587L52.5793 51.2651C52.7338 51.176 52.9165 51.1491 53.0901 51.1901C53.2637 51.2311 53.4151 51.3369 53.5133 51.4857C53.6116 51.6346 53.6494 51.8153 53.6189 51.991C53.5884 52.1668 53.492 52.3243 53.3493 52.4313L46.8099 57.3355L53.5173 53.4631C53.6705 53.3716 53.8529 53.342 54.0271 53.3805C54.2014 53.4189 54.3544 53.5225 54.4548 53.6699C54.5553 53.8174 54.5957 53.9977 54.5676 54.1739C54.5396 54.3502 54.4453 54.5091 54.3041 54.6181L47.8431 59.7589L54.5505 55.8865C54.7042 55.8016 54.8841 55.7775 55.0547 55.8191C55.2252 55.8606 55.374 55.9647 55.4714 56.1108C55.5688 56.2568 55.6078 56.4341 55.5806 56.6075C55.5534 56.781 55.4621 56.9379 55.3247 57.0471L51.7701 59.7715L53.3899 58.8377C53.5506 58.7464 53.7409 58.7223 53.9193 58.7707C54.0977 58.8191 54.2497 58.9362 54.3421 59.0962C54.4345 59.2563 54.4599 59.4465 54.4126 59.6252C54.3654 59.8039 54.2494 59.9566 54.0899 60.0501L43.1699 66.3501C43.0657 66.4109 42.9475 66.4437 42.8269 66.4453Z" fill="#EA9D88"/>
<path d="M43.73 55.2581C43.5823 55.2598 43.4379 55.2149 43.3174 55.1297C43.1968 55.0444 43.1063 54.9232 43.0588 54.7834C43.0112 54.6437 43.0091 54.4924 43.0527 54.3513C43.0964 54.2103 43.1835 54.0866 43.3016 53.9981L48.5166 49.9801L39.7358 55.0481C39.5806 55.1363 39.3976 55.162 39.2242 55.1198C39.0508 55.0776 38.9 54.9707 38.8028 54.8211C38.7055 54.6714 38.6691 54.4903 38.7009 54.3146C38.7328 54.139 38.8305 53.9822 38.9742 53.8763L46.8604 48.1503L36.8434 53.9323C36.6883 54.0185 36.5063 54.0427 36.3341 53.9999C36.1619 53.957 36.0124 53.8504 35.9158 53.7015C35.8192 53.5527 35.7828 53.3727 35.8139 53.198C35.8449 53.0233 35.9412 52.8669 36.0832 52.7605L46.5902 45.1683L34.749 52.0045C34.5923 52.0926 34.4076 52.117 34.2334 52.0727C34.0591 52.0284 33.9086 51.9188 33.813 51.7665C33.7174 51.6142 33.6841 51.4309 33.7199 51.2547C33.7558 51.0785 33.8581 50.9229 34.0056 50.8201L44.5896 43.6353L33.188 50.2153C33.0304 50.302 32.8455 50.3248 32.6716 50.2789C32.4977 50.233 32.3481 50.1219 32.2539 49.9686C32.1597 49.8154 32.1282 49.6317 32.1658 49.4558C32.2033 49.2799 32.3072 49.1252 32.4558 49.0239L38.956 44.7833L31.97 48.8223C31.8134 48.9118 31.6283 48.9374 31.4532 48.8937C31.2782 48.8501 31.1268 48.7406 31.0305 48.588C30.9343 48.4354 30.9007 48.2516 30.9367 48.0748C30.9727 47.8981 31.0755 47.742 31.2238 47.6393L44.85 38.2747L30.1626 46.7601C30.0049 46.8456 29.8204 46.8674 29.6471 46.8209C29.4738 46.7744 29.3251 46.6631 29.2315 46.51C29.1379 46.357 29.1066 46.1738 29.1441 45.9984C29.1817 45.8229 29.2852 45.6686 29.4332 45.5673L34.6636 42.1807L29.044 45.4189C28.8863 45.5044 28.7018 45.5262 28.5285 45.4797C28.3552 45.4332 28.2065 45.3219 28.1129 45.1688C28.0193 45.0158 27.988 44.8326 28.0255 44.6572C28.0631 44.4817 28.1666 44.3274 28.3146 44.2261L34.4018 40.2893L28.197 43.8719C28.0395 43.9654 27.8516 43.9935 27.6736 43.9501C27.4957 43.9067 27.3418 43.7953 27.2451 43.6397C27.1483 43.4841 27.1164 43.2969 27.1562 43.1181C27.196 42.9392 27.3042 42.7831 27.4578 42.6833L39.4978 34.6361L27.742 41.4219C27.5843 41.5115 27.3979 41.5364 27.2222 41.4914C27.0465 41.4463 26.8951 41.3348 26.8 41.1803C26.7048 41.0259 26.6734 40.8405 26.7123 40.6633C26.7512 40.4861 26.8573 40.3309 27.0084 40.2305L35.778 34.4905L27.7224 39.1399C27.5647 39.2295 27.3783 39.2544 27.2026 39.2094C27.0269 39.1643 26.8755 39.0528 26.7804 38.8983C26.6852 38.7439 26.6538 38.5585 26.6927 38.3813C26.7316 38.2041 26.8377 38.0489 26.9888 37.9485L35.1424 32.6131L27.6146 36.9531C27.4579 37.0378 27.2747 37.0596 27.1025 37.014C26.9302 36.9684 26.7819 36.8588 26.6876 36.7076C26.5934 36.5564 26.5603 36.375 26.5952 36.2002C26.6301 36.0255 26.7303 35.8707 26.8754 35.7673L38.3554 28.0533L25.3214 35.5783C25.1636 35.6664 24.9777 35.6901 24.8028 35.6444C24.6279 35.5987 24.4775 35.487 24.3831 35.3329C24.2886 35.1787 24.2575 34.994 24.2962 34.8174C24.3348 34.6408 24.4403 34.486 24.5906 34.3855L31.9784 29.5975L24.9434 33.6575C24.7848 33.7542 24.5944 33.784 24.4139 33.7402C24.2334 33.6965 24.0776 33.5829 23.9809 33.4244C23.8842 33.2658 23.8544 33.0753 23.8981 32.8948C23.9418 32.7143 24.0554 32.5586 24.214 32.4619L27.1428 30.5803L24.9434 31.8487C24.7865 31.9397 24.6005 31.9663 24.4244 31.9229C24.2483 31.8794 24.096 31.7694 23.9994 31.6159C23.9029 31.4623 23.8697 31.2774 23.9069 31.0998C23.944 30.9223 24.0486 30.7662 24.1986 30.6643L32.0106 25.3401L27.742 27.7999C27.5863 27.8854 27.4039 27.9085 27.2317 27.8645C27.0596 27.8205 26.9106 27.7128 26.815 27.563C26.7194 27.4133 26.6843 27.2328 26.7168 27.0581C26.7494 26.8835 26.8471 26.7277 26.9902 26.6225L30.801 23.9401L27.777 25.6873C27.6235 25.7761 27.442 25.8034 27.2692 25.7637C27.0964 25.7239 26.9451 25.62 26.8459 25.473C26.7467 25.326 26.707 25.1468 26.7349 24.9717C26.7627 24.7965 26.8559 24.6385 26.9958 24.5295L31.4758 21.0295L28.6352 22.6675C28.4891 22.7518 28.3174 22.7806 28.1518 22.7484C27.9862 22.7163 27.8377 22.6254 27.7338 22.4925C27.6298 22.3596 27.5774 22.1936 27.5861 22.0251C27.5948 21.8566 27.6641 21.6969 27.7812 21.5755L30.7212 18.5431L29.639 19.1661C29.5082 19.2442 29.3555 19.2775 29.204 19.261C29.0525 19.2445 28.9106 19.179 28.7998 19.0744C28.6889 18.9699 28.6152 18.8321 28.5898 18.6819C28.5644 18.5316 28.5887 18.3772 28.659 18.2421L29.5732 16.4543C29.5171 16.4036 29.4698 16.344 29.4332 16.2779C29.3404 16.1171 29.3152 15.926 29.3633 15.7467C29.4113 15.5674 29.5286 15.4145 29.6894 15.3217L30.5294 14.8373C30.6602 14.7591 30.8129 14.7258 30.9644 14.7423C31.1158 14.7588 31.2578 14.8243 31.3686 14.9289C31.4795 15.0334 31.5532 15.1712 31.5786 15.3214C31.604 15.4717 31.5797 15.6261 31.5094 15.7613L30.9942 16.7721L34.35 14.8317C34.4961 14.7473 34.6678 14.7185 34.8334 14.7507C34.999 14.7829 35.1475 14.8737 35.2514 15.0066C35.3553 15.1395 35.4078 15.3055 35.3991 15.474C35.3903 15.6425 35.3211 15.8022 35.204 15.9237L32.271 18.9547L39.425 14.8247C39.5782 14.7381 39.7584 14.7124 39.9297 14.7527C40.101 14.7931 40.2509 14.8964 40.3494 15.0423C40.4479 15.1881 40.4879 15.3657 40.4613 15.5396C40.4348 15.7136 40.3437 15.8712 40.2062 15.9811L35.7262 19.4895L43.8154 14.8191C43.9714 14.7305 44.1555 14.7053 44.3296 14.7485C44.5037 14.7918 44.6545 14.9002 44.751 15.0515C44.8475 15.2027 44.8822 15.3853 44.848 15.5614C44.8138 15.7375 44.7133 15.8937 44.5672 15.9979L40.748 18.6789L47.4414 14.8149C47.5982 14.7238 47.7843 14.6972 47.9604 14.7406C48.1364 14.7841 48.2888 14.8941 48.3853 15.0476C48.4819 15.2012 48.5151 15.3862 48.4779 15.5637C48.4408 15.7412 48.3362 15.8973 48.1862 15.9993L40.37 21.3291L51.6652 14.8093C51.7437 14.7614 51.8309 14.7294 51.9217 14.7152C52.0126 14.701 52.1053 14.7048 52.1947 14.7265C52.2841 14.7481 52.3683 14.7871 52.4426 14.8413C52.5169 14.8955 52.5798 14.9638 52.6277 15.0424C52.6756 15.1209 52.7075 15.208 52.7217 15.2989C52.736 15.3897 52.7321 15.4825 52.7105 15.5719C52.6888 15.6613 52.6498 15.7455 52.5956 15.8198C52.5414 15.8941 52.4731 15.957 52.3946 16.0049L49.4546 17.8935L54.8026 14.8135C54.9609 14.7165 55.1513 14.6865 55.3318 14.73C55.5123 14.7734 55.6682 14.8868 55.7651 15.0452C55.862 15.2035 55.892 15.3939 55.8486 15.5744C55.8051 15.7549 55.6917 15.9107 55.5334 16.0077L48.1484 20.7943L55.4648 16.5705C55.622 16.4793 55.8085 16.4529 55.9848 16.4968C56.1612 16.5407 56.3135 16.6514 56.4097 16.8056C56.5059 16.9598 56.5383 17.1453 56.5002 17.323C56.4621 17.5006 56.3564 17.6565 56.2054 17.7577L44.7254 25.4689L56.1242 18.8889C56.2818 18.8021 56.4667 18.7793 56.6406 18.8252C56.8145 18.8711 56.9641 18.9822 57.0583 19.1355C57.1524 19.2887 57.184 19.4724 57.1464 19.6483C57.1088 19.8242 57.005 19.9789 56.8564 20.0803L48.707 25.4143L56.673 20.8153C56.8307 20.7256 57.0171 20.7007 57.1928 20.7457C57.3685 20.7908 57.5199 20.9023 57.615 21.0568C57.7101 21.2112 57.7416 21.3966 57.7027 21.5738C57.6638 21.751 57.5576 21.9062 57.4066 22.0067L48.63 27.7467L57.24 22.7781C57.3971 22.69 57.5821 22.6659 57.7565 22.7107C57.9309 22.7555 58.0813 22.8658 58.1765 23.0187C58.2717 23.1715 58.3043 23.3552 58.2675 23.5315C58.2308 23.7078 58.1275 23.8631 57.9792 23.9653L45.9532 32.0041L57.7678 25.1833C57.9259 25.0933 58.1128 25.0683 58.289 25.1138C58.4651 25.1592 58.6166 25.2715 58.7115 25.4267C58.8063 25.582 58.8369 25.768 58.7969 25.9455C58.7569 26.123 58.6494 26.2779 58.4972 26.3775L52.4016 30.3199L57.7944 27.2063C57.9522 27.1181 58.138 27.0944 58.3129 27.1401C58.4878 27.1859 58.6383 27.2975 58.7327 27.4516C58.8271 27.6058 58.8583 27.7905 58.8196 27.9671C58.7809 28.1437 58.6754 28.2985 58.5252 28.3991L53.2948 31.7801L59.6144 28.1401C59.7707 28.054 59.9539 28.0308 60.1267 28.0753C60.2994 28.1198 60.4487 28.2286 60.544 28.3794C60.6392 28.5303 60.6733 28.7118 60.6392 28.8869C60.6051 29.062 60.5055 29.2175 60.3606 29.3217L46.7288 38.6891L60.558 30.7091C60.7156 30.6223 60.9005 30.5995 61.0744 30.6454C61.2483 30.6913 61.3979 30.8025 61.4921 30.9557C61.5862 31.1089 61.6178 31.2926 61.5802 31.4685C61.5426 31.6444 61.4388 31.7991 61.2902 31.9005L54.7984 36.1355L60.558 32.8021C60.7147 32.7139 60.8993 32.6895 61.0736 32.7338C61.2479 32.7781 61.3984 32.8878 61.494 33.0401C61.5896 33.1924 61.6229 33.3756 61.587 33.5518C61.5512 33.728 61.4489 33.8836 61.3014 33.9865L50.7174 41.1685L57.758 37.1085C57.9133 37.0193 58.097 36.9931 58.2711 37.0352C58.4451 37.0773 58.5965 37.1846 58.6939 37.3349C58.7913 37.4852 58.8273 37.6672 58.7947 37.8433C58.762 38.0194 58.663 38.1763 58.5182 38.2817L48.0084 45.8753L57.7566 40.2473C57.9117 40.159 58.0947 40.1334 58.2682 40.1755C58.4416 40.2177 58.5923 40.3246 58.6896 40.4742C58.7869 40.6239 58.8233 40.8051 58.7914 40.9807C58.7596 41.1563 58.6618 41.3131 58.5182 41.4191L50.632 47.1437L56.8998 43.5247C57.0534 43.437 57.2345 43.4107 57.4066 43.4511C57.5788 43.4915 57.7293 43.5956 57.8279 43.7424C57.9265 43.8892 57.9658 44.0679 57.9381 44.2425C57.9103 44.4172 57.8175 44.5749 57.6782 44.6839L52.4562 48.7117L52.6886 48.5717C52.8486 48.488 53.0347 48.4693 53.2081 48.5196C53.3815 48.5699 53.5287 48.6853 53.6191 48.8416C53.7094 48.9979 53.7359 49.1831 53.693 49.3585C53.65 49.5338 53.541 49.6858 53.3886 49.7827L44.0772 55.1601C43.9723 55.2232 43.8524 55.257 43.73 55.2581Z" fill="#F2A78E"/>
<path d="M57.471 25.8468C57.3151 25.8473 57.1636 25.795 57.0412 25.6984C56.9312 25.6131 56.8491 25.4969 56.8055 25.3648C56.7619 25.2326 56.7586 25.0904 56.7962 24.9564L56.9754 24.3208L54.748 25.606C54.6078 25.6862 54.4442 25.7154 54.2849 25.6888C54.1256 25.6621 53.9805 25.5812 53.874 25.4598C53.7676 25.3383 53.7064 25.1838 53.7008 25.0224C53.6953 24.861 53.7457 24.7027 53.8436 24.5742L55.2604 22.7318L51.1262 25.1118C50.9804 25.1951 50.8095 25.2232 50.6447 25.191C50.4799 25.1587 50.3322 25.0684 50.2285 24.9363C50.1248 24.8043 50.072 24.6393 50.0797 24.4716C50.0875 24.3039 50.1553 24.1445 50.2708 24.0226L53.4502 20.706L47.496 24.1472C47.3453 24.2336 47.168 24.2609 46.9983 24.2238C46.8287 24.1867 46.6789 24.0879 46.578 23.9465C46.4772 23.8052 46.4324 23.6314 46.4525 23.4589C46.4726 23.2864 46.5561 23.1276 46.6868 23.0132L50.4416 19.7624L44.85 22.9908C44.6964 23.0768 44.5162 23.1018 44.345 23.0608C44.1739 23.0199 44.0245 22.916 43.9265 22.7698C43.8285 22.6236 43.7892 22.4459 43.8163 22.2721C43.8435 22.0982 43.9351 21.9409 44.073 21.8316L46.803 19.7316L43.0832 21.8778C42.9323 21.9621 42.7555 21.9876 42.587 21.9493C42.4184 21.9111 42.27 21.8119 42.1702 21.6707C42.0704 21.5296 42.0264 21.3566 42.0466 21.1849C42.0668 21.0132 42.1498 20.8551 42.2796 20.741L47.5996 16.1994L41.0826 19.9612C40.9271 20.0529 40.7423 20.0811 40.5666 20.0398C40.3909 19.9984 40.238 19.8909 40.1397 19.7395C40.0414 19.5881 40.0054 19.4046 40.0392 19.2273C40.073 19.05 40.1739 18.8926 40.321 18.788L41.35 18.0278L40.0606 18.7712C39.9052 18.8604 39.7216 18.8866 39.5475 18.8444C39.3734 18.8023 39.2221 18.6951 39.1247 18.5447C39.0273 18.3944 38.9912 18.2125 39.0239 18.0364C39.0566 17.8603 39.1555 17.7034 39.3004 17.598L39.9262 17.1458L35.974 19.4278C35.8943 19.4785 35.8052 19.5125 35.712 19.5278C35.6189 19.5431 35.5236 19.5394 35.4319 19.517C35.3402 19.4945 35.254 19.4537 35.1785 19.3971C35.1029 19.3404 35.0396 19.2691 34.9924 19.1874C34.9452 19.1056 34.9149 19.0152 34.9035 18.9215C34.8922 18.8278 34.8999 18.7327 34.9262 18.642C34.9525 18.5514 34.9968 18.4669 35.0566 18.3939C35.1164 18.3208 35.1903 18.2606 35.274 18.2168L51.0408 9.1168C51.1961 9.02765 51.3797 9.00144 51.5538 9.04356C51.7279 9.08569 51.8792 9.19295 51.9766 9.34327C52.0741 9.49359 52.1101 9.67553 52.0774 9.85164C52.0448 10.0278 51.9458 10.1846 51.801 10.29L51.164 10.7506L52.326 10.08C52.4814 9.98828 52.6663 9.96014 52.842 10.0014C53.0176 10.0428 53.1706 10.1503 53.2689 10.3017C53.3671 10.4531 53.4031 10.6366 53.3694 10.8139C53.3356 10.9912 53.2346 11.1486 53.0876 11.2532L52.0446 12.0092L53.4838 11.1776C53.6349 11.0903 53.8132 11.0626 53.9837 11.1C54.1542 11.1373 54.3046 11.2371 54.4054 11.3796C54.5062 11.5221 54.5501 11.6971 54.5285 11.8703C54.5069 12.0435 54.4214 12.2024 54.2888 12.3158L48.9758 16.8546L55.1694 13.279C55.3232 13.1888 55.5057 13.1606 55.6796 13.2004C55.8534 13.2401 56.0056 13.3447 56.1049 13.4929C56.2043 13.641 56.2433 13.8215 56.2141 13.9974C56.1849 14.1734 56.0896 14.3315 55.9478 14.4396L53.2192 16.5396L56.1088 14.8722C56.2596 14.7855 56.4373 14.7581 56.6072 14.7953C56.7771 14.8325 56.9271 14.9316 57.0279 15.0733C57.1287 15.2151 57.1732 15.3893 57.1526 15.562C57.132 15.7347 57.0479 15.8935 56.9166 16.0076L53.1632 19.257L57.0048 17.0394C57.1506 16.9561 57.3215 16.928 57.4862 16.9602C57.651 16.9925 57.7988 17.0828 57.9025 17.2149C58.0062 17.3469 58.059 17.5119 58.0512 17.6796C58.0434 17.8473 57.9756 18.0067 57.8602 18.1286L54.6794 21.4466L57.6124 19.754C57.7517 19.6708 57.9158 19.6393 58.076 19.6649C58.2362 19.6905 58.3823 19.7716 58.4888 19.894C58.5956 20.0157 58.6569 20.1707 58.6622 20.3325C58.6676 20.4944 58.6167 20.6531 58.5182 20.7816L57.1014 22.6226L57.765 22.2418C57.8855 22.1724 58.0239 22.1405 58.1626 22.1501C58.3013 22.1597 58.434 22.2104 58.5437 22.2957C58.6535 22.381 58.7354 22.4971 58.779 22.6291C58.8226 22.7611 58.8258 22.9031 58.7884 23.037L58.479 24.1332C58.5923 24.1951 58.6863 24.2872 58.7506 24.3992C58.8429 24.5599 58.8679 24.7506 58.8198 24.9296C58.7718 25.1085 58.6548 25.2612 58.4944 25.354L57.821 25.7446C57.7152 25.8086 57.5946 25.8439 57.471 25.8468Z" fill="#7A4040"/>
<path d="M27.3922 24.9761C27.2434 24.9758 27.0985 24.928 26.9787 24.8397C26.8589 24.7515 26.7703 24.6273 26.7258 24.4853C26.6814 24.3433 26.6833 24.1908 26.7314 24.05C26.7795 23.9091 26.8712 23.7873 26.9932 23.7021L35.662 17.6737L27.906 22.1537C27.7504 22.2439 27.5661 22.2708 27.3913 22.2288C27.2164 22.1867 27.0645 22.079 26.9669 21.928C26.8693 21.7769 26.8336 21.5941 26.8672 21.4175C26.9008 21.2408 27.001 21.0838 27.1472 20.9791L35.1692 15.2055L28.683 18.9505C28.5263 19.0387 28.3416 19.0631 28.1674 19.0188C27.9931 18.9745 27.8426 18.8648 27.747 18.7125C27.6514 18.5602 27.6181 18.377 27.6539 18.2008C27.6898 18.0246 27.7921 17.8689 27.9396 17.7661L29.2752 16.8603C29.1619 16.8573 29.0505 16.8299 28.9488 16.7799C28.8471 16.7298 28.7574 16.6584 28.6858 16.5705C28.5842 16.4297 28.5385 16.2562 28.5577 16.0837C28.5768 15.9111 28.6594 15.7518 28.7894 15.6367L33.3996 11.5431C33.2381 11.5671 33.0733 11.5339 32.9337 11.4492C32.7941 11.3645 32.6885 11.2337 32.6351 11.0793C32.5818 10.925 32.5841 10.7569 32.6416 10.6041C32.6992 10.4512 32.8083 10.3234 32.9502 10.2425L38.4984 7.03931C38.6486 6.95242 38.8257 6.9244 38.9954 6.9607C39.1651 6.997 39.3152 7.09502 39.4167 7.23576C39.5182 7.37649 39.5638 7.54991 39.5447 7.72237C39.5256 7.89482 39.4431 8.05404 39.3132 8.16911L34.8724 12.1045L44.4386 6.58011C44.5956 6.49066 44.781 6.46536 44.9562 6.5095C45.1314 6.55364 45.2828 6.66381 45.3786 6.81697C45.4744 6.97012 45.5073 7.1544 45.4704 7.33126C45.4335 7.50812 45.3297 7.66386 45.1806 7.76591L44.7858 8.03331L46.5512 7.01551C46.7068 6.92532 46.8911 6.89845 47.0659 6.94048C47.2408 6.9825 47.3927 7.0902 47.4903 7.24125C47.5879 7.39229 47.6236 7.5751 47.59 7.75176C47.5564 7.92842 47.4562 8.08538 47.31 8.19011L39.2866 13.9651L49.403 8.12011C49.5588 8.03566 49.7409 8.01347 49.9125 8.05802C50.084 8.10257 50.2323 8.21055 50.3273 8.36015C50.4224 8.50975 50.4572 8.68984 50.4246 8.86408C50.3921 9.03831 50.2946 9.19371 50.152 9.29891L29.0876 23.9499C29.0271 24.0861 28.9252 24.1998 28.7964 24.2747L27.7422 24.8823C27.6358 24.9438 27.5151 24.9761 27.3922 24.9761Z" fill="#7A4040"/>
<path d="M23.5029 39.858C23.3668 39.8581 23.2336 39.8186 23.1197 39.7442C23.0057 39.6698 22.9159 39.5638 22.8612 39.4392C22.8066 39.3146 22.7894 39.1767 22.8119 39.0425C22.8343 38.9082 22.8955 38.7835 22.9877 38.6834L23.6751 37.9372L20.8527 39.5668C20.7069 39.6511 20.5356 39.68 20.3702 39.6481C20.2048 39.6163 20.0564 39.5259 19.9523 39.3935C19.8482 39.2612 19.7952 39.0957 19.8033 38.9274C19.8113 38.7592 19.8797 38.5995 19.9959 38.4776L23.4413 34.8656L18.5133 37.7104C18.3633 37.7971 18.1865 37.825 18.017 37.7888C17.8476 37.7526 17.6976 37.6549 17.5961 37.5145C17.4946 37.3741 17.4487 37.2011 17.4674 37.0288C17.486 36.8566 17.5679 36.6974 17.6971 36.582L21.7501 32.9658L17.9421 35.1652C17.7911 35.2498 17.614 35.2754 17.4452 35.237C17.2764 35.1987 17.1278 35.0992 17.0281 34.9577C16.9283 34.8162 16.8846 34.6427 16.9052 34.4709C16.9259 34.299 17.0095 34.1409 17.1399 34.027L20.5629 31.1206L17.9421 32.6354C17.793 32.7233 17.6166 32.7528 17.447 32.7183C17.2773 32.6837 17.1266 32.5875 17.0237 32.4483C16.9208 32.3091 16.8732 32.1367 16.89 31.9644C16.9068 31.7921 16.9869 31.6321 17.1147 31.5154L19.8615 28.9618L17.9421 30.0692C17.7984 30.1525 17.6298 30.182 17.4663 30.1524C17.3029 30.1228 17.1553 30.036 17.0499 29.9076C16.9446 29.7792 16.8883 29.6175 16.8912 29.4514C16.8941 29.2853 16.956 29.1257 17.0657 29.001L18.2837 27.6192C18.184 27.6003 18.0894 27.5602 18.0065 27.5015C17.9237 27.4428 17.8544 27.3669 17.8035 27.279C17.7112 27.1184 17.6862 26.9276 17.7343 26.7487C17.7823 26.5697 17.8993 26.417 18.0597 26.3242L20.9311 24.6666C21.0748 24.5842 21.2431 24.5555 21.406 24.5854C21.5689 24.6154 21.7159 24.7022 21.8208 24.8303C21.9258 24.9584 21.9819 25.1196 21.9792 25.2853C21.9765 25.4509 21.9152 25.6102 21.8061 25.7348L20.9339 26.7246L24.5123 24.6596C24.6614 24.573 24.8373 24.5445 25.0061 24.5795C25.1749 24.6146 25.3249 24.7107 25.4272 24.8495C25.5296 24.9882 25.5771 25.1599 25.5607 25.3315C25.5443 25.5032 25.4651 25.6627 25.3383 25.7796L22.5901 28.3332L26.5843 26.0274C26.7354 25.9429 26.9124 25.9173 27.0812 25.9556C27.2501 25.9939 27.3987 26.0935 27.4984 26.235C27.5981 26.3765 27.6419 26.5499 27.6212 26.7218C27.6006 26.8937 27.517 27.0518 27.3865 27.1656L23.9621 30.0706L26.9539 28.3444C27.104 28.2578 27.2808 28.2299 27.4502 28.2661C27.6196 28.3022 27.7696 28.4 27.8712 28.5404C27.9727 28.6807 28.0186 28.8538 27.9999 29.026C27.9812 29.1982 27.8994 29.3574 27.7701 29.4728L23.7101 33.0904L26.9581 31.22C27.1038 31.1368 27.2745 31.1086 27.4392 31.1407C27.6039 31.1727 27.7516 31.2628 27.8554 31.3946C27.9592 31.5264 28.0122 31.6911 28.0048 31.8587C27.9974 32.0264 27.93 32.1857 27.8149 32.3078L24.3709 35.9184L26.9581 34.426C27.1029 34.3428 27.2727 34.3142 27.4368 34.3452C27.6009 34.3762 27.7485 34.4649 27.853 34.5952C27.9574 34.7255 28.0118 34.8889 28.0064 35.0558C28.001 35.2227 27.936 35.3822 27.8233 35.5054L27.0687 36.323C27.2324 36.2831 27.405 36.3037 27.5548 36.3808C27.7046 36.4579 27.8216 36.5865 27.8842 36.7429C27.9469 36.8993 27.951 37.0731 27.8958 37.2323C27.8407 37.3915 27.7299 37.5255 27.5839 37.6096L23.8501 39.76C23.7452 39.8231 23.6253 39.857 23.5029 39.858Z" fill="#3284B5"/>
<path d="M63.5331 39.858C63.398 39.858 63.2658 39.819 63.1524 39.7455C63.0391 39.6721 62.9494 39.5674 62.8942 39.4441C62.839 39.3208 62.8206 39.1842 62.8413 39.0507C62.862 38.9172 62.9209 38.7926 63.0109 38.6918L64.4837 37.0398L60.1857 39.5206C60.0328 39.6078 59.8526 39.6342 59.6811 39.5945C59.5096 39.5548 59.3594 39.452 59.2603 39.3065C59.1612 39.161 59.1206 38.9835 59.1466 38.8094C59.1725 38.6353 59.2631 38.4773 59.4003 38.367L60.0751 37.8308L58.9705 38.4692C58.818 38.5583 58.6375 38.5864 58.4651 38.548C58.2928 38.5096 58.1413 38.4075 58.0411 38.2621C57.9409 38.1167 57.8993 37.9388 57.9247 37.7641C57.9501 37.5893 58.0406 37.4306 58.1781 37.3198L60.7205 35.2478L58.5421 36.5078C58.3905 36.5947 58.2118 36.6218 58.0413 36.5836C57.8708 36.5455 57.7207 36.445 57.6205 36.3018C57.5203 36.1587 57.4773 35.9832 57.4999 35.8099C57.5225 35.6366 57.6091 35.4781 57.7427 35.3654L61.0117 32.6326L58.5421 34.0522C58.3885 34.1399 58.2074 34.1662 58.0352 34.1258C57.8631 34.0854 57.7126 33.9813 57.614 33.8345C57.5154 33.6877 57.476 33.509 57.5038 33.3343C57.5316 33.1597 57.6244 33.002 57.7637 32.893L58.4049 32.3974C58.2573 32.4445 58.0982 32.4413 57.9527 32.3883C57.8071 32.3353 57.6832 32.2355 57.6005 32.1045C57.5177 31.9735 57.4807 31.8188 57.4953 31.6646C57.5099 31.5104 57.5752 31.3653 57.6811 31.2522L60.5063 28.2254L58.5463 29.3594C58.4057 29.4409 58.2411 29.4709 58.0808 29.4443C57.9205 29.4177 57.7745 29.3361 57.6677 29.2136C57.561 29.0912 57.5001 28.9353 57.4957 28.7729C57.4912 28.6105 57.5434 28.4516 57.6433 28.3234L58.4609 27.2706C58.3213 27.243 58.1934 27.1736 58.0943 27.0715C57.9952 26.9693 57.9295 26.8395 57.9061 26.6991C57.8827 26.5587 57.9026 26.4146 57.9632 26.2858C58.0238 26.1571 58.1222 26.0498 58.2453 25.9784L60.5651 24.64C60.7055 24.5593 60.8696 24.5297 61.0294 24.5565C61.1892 24.5832 61.3348 24.6645 61.4413 24.7866C61.5479 24.9086 61.6088 25.0639 61.6137 25.2258C61.6185 25.3878 61.5671 25.5464 61.4681 25.6746L60.9305 26.3662L63.8705 24.668C64.0157 24.5848 64.1859 24.5564 64.3503 24.588C64.5147 24.6195 64.6623 24.7089 64.7665 24.84C64.8706 24.971 64.9243 25.135 64.9179 25.3023C64.9115 25.4695 64.8453 25.6289 64.7315 25.7516L61.9105 28.7756L66.5501 26.0946C66.7037 26.0051 66.8857 25.9774 67.059 26.0172C67.2323 26.0569 67.384 26.1612 67.4833 26.3087C67.5826 26.4563 67.6219 26.6361 67.5934 26.8116C67.5649 26.9871 67.4707 27.1452 67.3299 27.2538L66.7699 27.6822L67.2963 27.3798C67.4479 27.2929 67.6265 27.2659 67.797 27.304C67.9676 27.3421 68.1177 27.4426 68.2179 27.5858C68.3181 27.729 68.3611 27.9045 68.3385 28.0777C68.3159 28.251 68.2292 28.4096 68.0957 28.5222L64.8267 31.255L67.5581 29.68C67.7103 29.5931 67.8897 29.5664 68.0606 29.6053C68.2316 29.6443 68.3817 29.7459 68.4813 29.8902C68.5809 30.0345 68.6228 30.2109 68.5985 30.3846C68.5743 30.5583 68.4858 30.7165 68.3505 30.828L65.8067 32.9L67.5581 31.8892C67.711 31.802 67.8911 31.7756 68.0626 31.8153C68.2341 31.855 68.3844 31.9578 68.4835 32.1034C68.5825 32.2489 68.6231 32.4264 68.5972 32.6005C68.5712 32.7746 68.4807 32.9325 68.3435 33.0428L67.6435 33.6028C67.7901 33.5411 67.9534 33.5311 68.1065 33.5745C68.2595 33.618 68.3932 33.7123 68.4855 33.8419C68.5778 33.9715 68.6231 34.1287 68.6141 34.2876C68.6051 34.4464 68.5422 34.5975 68.4359 34.7158L66.9603 36.3678L67.1003 36.2922C67.2603 36.2085 67.4464 36.1899 67.6198 36.2402C67.7932 36.2905 67.9404 36.4059 68.0308 36.5622C68.1211 36.7185 68.1476 36.9037 68.1046 37.079C68.0617 37.2544 67.9526 37.4064 67.8003 37.5032L63.8901 39.76C63.7823 39.8248 63.6588 39.8587 63.5331 39.858Z" fill="#3284B5"/>
<path d="M46.2302 49.1624C46.1082 49.1623 45.9883 49.1303 45.8825 49.0696C45.7766 49.0089 45.6885 48.9216 45.6268 48.8163C45.5651 48.7111 45.532 48.5915 45.5308 48.4695C45.5296 48.3475 45.5602 48.2273 45.6198 48.1208L46.66 46.2658L43.1964 48.265C43.0617 48.3427 42.905 48.3733 42.751 48.3521C42.597 48.3309 42.4545 48.259 42.3459 48.1478C42.2372 48.0366 42.1687 47.8924 42.1511 47.738C42.1335 47.5835 42.1678 47.4276 42.2486 47.2948L43.8376 44.6838L40.5994 46.5528C40.4639 46.6312 40.306 46.6619 40.151 46.64C39.9959 46.6181 39.8527 46.5449 39.7442 46.432C39.6357 46.3192 39.5682 46.1732 39.5524 46.0174C39.5366 45.8617 39.5735 45.7051 39.6572 45.5728L40.6176 44.0496C40.4639 44.1021 40.2968 44.0995 40.1448 44.0422C39.9929 43.985 39.8655 43.8768 39.7846 43.736C39.6922 43.5753 39.6673 43.3846 39.7153 43.2056C39.7633 43.0267 39.8804 42.874 40.0408 42.7812L42.3536 41.4442C42.4891 41.3658 42.647 41.3351 42.802 41.357C42.957 41.3789 43.1002 41.4521 43.2087 41.5649C43.3172 41.6778 43.3848 41.8238 43.4006 41.9796C43.4163 42.1353 43.3794 42.2919 43.2958 42.4242L42.3508 43.9236L45.5092 42.1036C45.6438 42.0266 45.8002 41.9964 45.9538 42.0179C46.1075 42.0394 46.2496 42.1113 46.3579 42.2224C46.4662 42.3334 46.5346 42.4773 46.5523 42.6314C46.57 42.7855 46.5359 42.9411 46.4556 43.0738L44.868 45.6848L48.1664 43.7808C48.2991 43.7038 48.4535 43.6726 48.6057 43.6919C48.7579 43.7112 48.8996 43.78 49.0089 43.8877C49.1182 43.9954 49.1891 44.1361 49.2106 44.288C49.2322 44.4399 49.2032 44.5947 49.1282 44.7286L47.9214 46.8776C48.0197 46.8975 48.1127 46.938 48.1942 46.9964C48.2758 47.0548 48.3441 47.1298 48.3946 47.2164C48.4874 47.3772 48.5126 47.5682 48.4645 47.7476C48.4165 47.9269 48.2992 48.0798 48.1384 48.1726L46.5802 49.0714C46.4735 49.1319 46.3528 49.1632 46.2302 49.1624Z" fill="#4A4F60"/>
<path d="M29.6573 56.4116C29.5929 56.56 29.4487 56.8064 29.3297 57.05C27.0099 58.59 24.3289 59.7646 22.1897 61.4936C13.7869 61.74 5.8895 70.4802 11.3985 79.1574C13.4467 82.3774 26.8489 83.5828 42.8719 83.0382C50.8967 82.7582 61.7131 81.6116 67.8115 80.9382C82.6207 79.1938 75.6501 60.704 63.3301 61.2528C61.1531 59.6316 58.5967 58.4024 56.2923 56.9128C55.4915 54.5608 54.2525 52.4818 53.3873 50.1648C53.8283 49.6538 54.2721 49.1498 54.7089 48.6346C55.9922 49.0242 57.3537 49.0804 58.6648 48.7977C59.9759 48.515 61.1933 47.9029 62.2021 47.0191C63.2109 46.1353 63.9778 45.0089 64.4304 43.7464C64.883 42.4839 65.0064 41.1268 64.7889 39.8034C70.8089 38.8234 70.9713 25.2826 64.7735 24.5112C66.7181 -7.0224 18.6897 -6.1908 20.7477 24.9424C15.6587 25.851 16.5197 31.3824 16.5477 35.2674C16.6877 40.0974 22.8799 40.4054 26.3351 39.0922C25.7247 43.8998 29.2583 47.1744 32.2151 50.4546L29.6573 56.4116ZM55.5195 58.5452L61.0943 61.8912C58.0978 66.1204 54.0496 69.4945 49.3497 71.68C47.6697 69.8502 46.5567 67.2406 44.2775 65.8C48.6727 64.5753 52.5928 62.0456 55.5195 58.5452ZM30.5365 59.5378C33.2556 62.8232 36.9753 65.1283 41.1275 66.101C39.0093 67.4324 37.9635 70.049 36.2975 71.589C31.5452 69.3784 27.4595 65.9542 24.4521 61.6616L29.6461 58.5452C29.9569 58.9316 30.3335 59.3012 30.5365 59.5378ZM73.9365 73.1766C74.9753 81.5766 58.9439 81.1216 41.6553 82.3312C31.4143 83.048 23.3881 80.8864 19.6165 80.479C6.17649 79.9288 10.7811 61.859 22.2555 62.0886C25.8465 66.4202 31.6439 74.0152 37.7955 72.7832C39.4237 70.8736 40.3855 68.3032 42.6101 66.8612C44.9187 68.3004 45.9519 70.9604 47.5941 72.9134C53.7667 73.3698 59.2141 66.7184 62.9087 62.2552C68.8979 62.7116 74.2319 66.8024 73.9365 73.1766ZM62.7211 42.7336C62.7183 43.5806 62.5093 44.4143 62.112 45.1624C61.7147 45.9105 61.1412 46.5506 60.4411 47.0273C59.7409 47.504 58.9351 47.8029 58.0935 47.8983C57.2518 47.9937 56.3996 47.8827 55.6105 47.5748C57.6881 45.2956 59.4325 42.9044 59.1791 39.6242C60.3255 40.0062 61.5425 40.1286 62.7421 39.9826C62.7533 40.8996 62.7827 41.8222 62.7211 42.7336ZM28.4701 22.722C28.8411 15.4 34.5139 7.511 42.3959 7.4354L42.3245 7.4606C51.4021 7.4186 57.9387 16.0188 57.1295 24.7072C51.3363 24.4608 44.1291 23.3394 40.9637 17.9284C36.6377 17.2564 31.6453 19.6602 28.4701 22.722ZM66.6761 28.2058C67.4587 32.7908 67.7765 39.9658 61.1083 38.4412C58.0633 38.402 58.7983 28.0182 59.9169 26.2612C62.1317 25.5612 65.7101 25.5794 66.6733 28.2058H66.6761ZM24.5851 13.7508C33.3729 -6.888 64.9975 2.6908 62.7197 24.3908C61.5019 24.2804 60.2757 24.4758 59.1525 24.9592C61.4401 0.462001 25.5553 1.4 26.3519 24.9774C25.1823 24.6824 23.9689 24.6023 22.7707 24.7408C22.5729 20.9893 23.1919 17.2396 24.5851 13.7508ZM25.3313 38.6708C22.6713 39.2 18.9711 38.6148 18.6029 35.3108C18.8605 32.2686 17.2183 27.0242 20.9409 25.6998C23.0227 25.746 26.2833 25.0824 26.3225 28.3388C25.8101 31.5798 27.5279 36.0654 25.3313 38.6638V38.6708ZM28.3763 39.809C28.3553 34.8908 28.4183 29.953 28.3553 25.0446C29.5063 23.2151 31.0766 21.6861 32.9362 20.5842C34.7957 19.4823 36.891 18.8392 39.0485 18.7082C42.7669 24.5882 50.7385 25.4954 57.1239 25.6564C56.2489 32.7642 59.6439 41.5968 53.8409 47.1086L49.2209 45.8752C51.1137 41.6374 43.3087 40.9094 40.7173 42.1582C34.2171 46.4478 46.9627 52.1066 48.9255 47.1086C50.2527 47.4642 51.5799 47.8189 52.9071 48.1726C45.6313 60.438 29.9107 51.0916 28.3763 39.802V39.809ZM42.7963 47.0498L42.6829 47.0134C40.7103 46.4716 40.3869 43.3398 42.1229 42.5334C42.1448 42.528 42.1664 42.521 42.1873 42.5124C46.2151 43.2628 48.8555 43.1186 46.7023 47.9808L42.7963 47.0498ZM42.7963 47.0498C42.7767 47.0498 42.6927 47.019 42.7697 47.0414L42.7963 47.0498ZM31.5809 56.2128C32.1997 54.7652 32.8194 53.3185 33.4401 51.8728C37.8557 56.7896 47.4093 56.7952 51.8487 51.8728C52.5053 53.8076 53.9977 55.8418 54.2497 57.7598C51.7858 61.4976 48.0413 64.2065 43.7203 65.3772C43.5285 65.2085 43.288 65.1052 43.0336 65.082C42.7792 65.0589 42.524 65.1171 42.3049 65.2484C37.7426 63.9644 33.7918 61.0874 31.1693 57.1396C31.1679 57.141 31.4885 56.42 31.5795 56.2058L31.5809 56.2128Z" fill="#262626"/>
</svg>
