<svg width="81" height="80" viewBox="0 0 81 80" fill="none" xmlns="http://www.w3.org/2000/svg">
<path d="M40.5567 61.9559C40.2645 61.9563 40.0061 61.7664 39.9193 61.4875C39.8324 61.2085 39.9373 60.9055 40.1781 60.7399L45.8874 56.8186L37.6821 61.5559C37.3738 61.7266 36.986 61.6279 36.7967 61.3307C36.6075 61.0335 36.6823 60.6403 36.9674 60.4333L48.4274 52.4119L34.0994 60.6839C33.7872 60.8614 33.3905 60.7597 33.2022 60.4539C33.0139 60.1481 33.1017 59.7481 33.4007 59.5493L41.3554 54.3426L31.8634 59.8213C31.5536 59.9813 31.1728 59.8755 30.9899 59.5786C30.807 59.2817 30.8838 58.894 31.1661 58.6893L43.1981 50.7226L29.5714 58.5893C29.2589 58.7611 28.8665 58.6566 28.6809 58.3521C28.4953 58.0476 28.5821 57.651 28.8781 57.4519L37.0661 52.2026L27.9847 57.4453C27.6714 57.6175 27.278 57.512 27.093 57.206C26.908 56.9001 26.9973 56.5027 27.2954 56.3053L31.7127 53.5199L26.7074 56.4093C26.3953 56.5902 25.9959 56.4901 25.8061 56.1833C25.6163 55.8766 25.7049 55.4745 26.0061 55.2759L42.0127 44.6866L24.8994 54.5639C24.5865 54.7459 24.1855 54.6449 23.9961 54.3364C23.8067 54.0279 23.8981 53.6246 24.2021 53.4279L38.5727 44.0693L23.4327 52.8119C23.1207 52.979 22.7325 52.8731 22.5485 52.5707C22.3646 52.2683 22.449 51.8749 22.7407 51.6746L33.9661 44.4933L22.4581 51.1373C22.144 51.3132 21.7471 51.2081 21.5612 50.8998C21.3754 50.5916 21.4678 50.1914 21.7701 49.9959L28.8474 45.5293L21.6474 49.6866C21.3326 49.8777 20.9225 49.7774 20.7314 49.4626C20.5403 49.1478 20.6406 48.7377 20.9554 48.5466L31.2994 41.9413L20.9354 47.9239C20.629 48.0722 20.2601 47.9658 20.0797 47.6772C19.8993 47.3886 19.9652 47.0104 20.2327 46.7999L37.2674 35.4533L20.0994 45.3559C19.8962 45.4802 19.6422 45.4867 19.4329 45.373C19.2237 45.2592 19.091 45.0424 19.0849 44.8043C19.0788 44.5662 19.2002 44.3429 19.4034 44.2186L31.3287 36.4853L19.7981 43.1413C19.4854 43.3107 19.0948 43.2049 18.9104 42.9009C18.726 42.5968 18.8127 42.2016 19.1074 42.0026L24.6274 38.4986L19.6021 41.3999C19.3996 41.5254 19.1456 41.5334 18.9356 41.4209C18.7257 41.3083 18.5918 41.0923 18.5843 40.8542C18.5768 40.6161 18.6969 40.3921 18.8994 40.2666L32.3954 31.2199L19.7141 38.5399C19.403 38.7092 19.0138 38.6057 18.8279 38.3042C18.6421 38.0027 18.7244 37.6085 19.0154 37.4066L26.8234 32.2946L20.0034 36.2319C19.6953 36.405 19.3057 36.3076 19.1153 36.0099C18.9249 35.7123 18.9998 35.3177 19.2861 35.1106L30.9514 26.8799L21.1167 32.5573C20.806 32.7315 20.4131 32.6305 20.2248 32.3281C20.0365 32.0257 20.1193 31.6286 20.4127 31.4266L23.8794 29.0986L22.4714 29.9119C22.1723 30.0857 21.79 30.0019 21.5911 29.7189C21.3921 29.436 21.4427 29.0479 21.7074 28.8253L27.0701 24.2919C26.7966 24.3361 26.5243 24.2066 26.3861 23.9666C26.2096 23.6495 26.3192 23.2494 26.6327 23.0666L32.6927 19.5679C32.9911 19.4005 33.3677 19.4861 33.5644 19.766C33.7611 20.0459 33.714 20.4293 33.4554 20.6533L28.2794 25.0279L40.2154 18.1333C40.5256 17.9614 40.916 18.0625 41.1039 18.3633C41.2917 18.664 41.2112 19.0592 40.9207 19.2626L37.4674 21.5826L42.9941 18.3919C43.3021 18.2188 43.6918 18.3162 43.8822 18.6139C44.0726 18.9116 43.9977 19.3061 43.7114 19.5133L32.0447 27.7453L46.7661 19.2426C47.0772 19.0733 47.4663 19.1768 47.6522 19.4783C47.8381 19.7798 47.7557 20.174 47.4647 20.3759L39.6367 25.5013L48.9701 20.1133C49.2813 19.9329 49.6796 20.032 49.87 20.3372C50.0604 20.6424 49.9743 21.0437 49.6754 21.2439L36.1941 30.2813L51.5007 21.4439C51.8146 21.2645 52.2144 21.3681 52.4017 21.6773C52.5891 21.9865 52.4958 22.3887 52.1914 22.5839L46.6461 26.1026L52.9354 22.4719C53.2495 22.2794 53.6602 22.3779 53.8527 22.6919C54.0453 23.006 53.9468 23.4167 53.6327 23.6093L41.7047 31.3426L54.6381 23.8759C54.9495 23.6988 55.3452 23.7994 55.5341 24.1038C55.723 24.4082 55.6376 24.8075 55.3407 25.0079L38.3061 36.3559L56.5447 25.8226C56.7484 25.699 57.0025 25.6934 57.2114 25.8079C57.4202 25.9225 57.5521 26.1398 57.5574 26.3779C57.5626 26.6161 57.4404 26.839 57.2367 26.9626L46.8994 33.5679L57.6327 27.3706C57.9467 27.1946 58.3437 27.2997 58.5296 27.608C58.7154 27.9163 58.623 28.3164 58.3207 28.5119L51.2407 32.9786L58.5901 28.7359C58.9025 28.5641 59.2949 28.6686 59.4806 28.9731C59.6662 29.2776 59.5793 29.6742 59.2834 29.8733L48.0501 37.0666L59.4167 30.5039C59.7297 30.3219 60.1306 30.4229 60.32 30.7315C60.5094 31.04 60.418 31.4432 60.1141 31.6399L45.7474 40.9893L60.2954 32.5893C60.6075 32.4083 61.0069 32.5084 61.1967 32.8152C61.3865 33.1219 61.2979 33.524 60.9967 33.7226L44.9861 44.3159L60.9754 35.0853C61.2906 34.8949 61.7004 34.9961 61.8907 35.3113C62.0811 35.6264 61.9799 36.0362 61.6647 36.2266L57.2487 39.0079L61.2181 36.7173C61.532 36.5333 61.9353 36.635 62.1246 36.9457C62.3138 37.2564 62.2189 37.6615 61.9114 37.8559L53.7207 43.1066L61.3941 38.6773C61.705 38.5056 62.0959 38.6079 62.283 38.9098C62.47 39.2117 62.3875 39.6073 62.0954 39.8093L50.0607 47.7759L61.2994 41.2933C61.6101 41.1281 61.9957 41.2329 62.1801 41.5326C62.3645 41.8323 62.2842 42.2237 61.9967 42.4266L54.0541 47.6266L61.0194 43.5999C61.328 43.4248 61.7197 43.5221 61.9105 43.8213C62.1012 44.1204 62.0243 44.5166 61.7354 44.7226L50.2687 52.7466L59.9874 47.1359C60.2963 46.9658 60.6844 47.0657 60.8727 47.3639C61.061 47.6621 60.9845 48.0554 60.6981 48.2613L54.9927 52.1853L58.5767 50.1159C58.8785 49.9469 59.2595 50.0367 59.4539 50.3228C59.6484 50.6089 59.5917 50.9962 59.3234 51.2146L54.3727 55.1346L54.5701 55.0213C54.8866 54.8556 55.2775 54.969 55.4563 55.2783C55.6351 55.5877 55.5382 55.9829 55.2367 56.1746L47.1487 60.8413C46.8469 61.0103 46.466 60.9205 46.2715 60.6344C46.0771 60.3483 46.1338 59.961 46.4021 59.7426L51.3474 55.8279L40.8887 61.8666C40.788 61.9255 40.6734 61.9564 40.5567 61.9559Z" fill="#9ED26A"/>
<path d="M34.4208 52.628C34.1338 52.628 33.8791 52.4444 33.7883 52.1721C33.6976 51.8999 33.7912 51.6002 34.0208 51.428L40.4088 46.6493L32.1021 51.4493C31.7909 51.6337 31.3895 51.5363 31.1974 51.2299C31.0053 50.9234 31.0926 50.5197 31.3941 50.32L34.2608 48.3746L31.5461 49.9413C31.2377 50.1192 30.8439 50.0233 30.6518 49.7235C30.4597 49.4238 30.537 49.0259 30.8274 48.82L37.4394 44.1333L31.5394 47.536C31.2352 47.7058 30.8515 47.6126 30.6589 47.3222C30.4664 47.0318 30.5299 46.6422 30.8048 46.428L38.3568 40.72L31.5381 44.6547C31.2288 44.8293 30.8369 44.7308 30.6469 44.4306C30.457 44.1304 30.5358 43.734 30.8261 43.5293L31.3394 43.1733C31.0805 43.2293 30.8133 43.1241 30.6621 42.9067C30.4627 42.6267 30.5089 42.241 30.7688 42.016L34.5128 38.7706L31.5381 40.4866C31.2456 40.6657 30.865 40.5935 30.6582 40.3199C30.4515 40.0463 30.486 39.6605 30.7381 39.428L32.1888 38.0373L31.5328 38.416C31.2539 38.5759 30.9006 38.514 30.6927 38.2688C30.4848 38.0236 30.4814 37.665 30.6848 37.416L31.3514 36.6C31.111 36.5086 30.9446 36.2871 30.9238 36.0307C30.903 35.7744 31.0316 35.5289 31.2541 35.4L33.4234 34.1466C33.7023 33.9867 34.0556 34.0486 34.2635 34.2938C34.4714 34.539 34.4748 34.8976 34.2714 35.1466L34.0448 35.424L36.2914 34.128C36.5839 33.949 36.9645 34.0211 37.1713 34.2947C37.3781 34.5683 37.3435 34.9541 37.0914 35.1866L35.6394 36.5786L39.8874 34.1333C40.1847 33.9629 40.5627 34.0456 40.7617 34.3244C40.9607 34.6033 40.9159 34.9877 40.6581 35.2133L36.9114 38.4613L44.4088 34.1333C44.7172 33.9649 45.1034 34.0648 45.2915 34.3617C45.4795 34.6585 45.4048 35.0504 45.1208 35.2573L44.9354 35.3906L47.0181 34.1906C47.3224 34.0209 47.7061 34.114 47.8986 34.4044C48.0912 34.6948 48.0276 35.0845 47.7528 35.2987L40.2061 41.0027L49.1994 35.8106C49.507 35.6393 49.8948 35.7367 50.0849 36.033C50.275 36.3294 50.202 36.7224 49.9181 36.9306L43.2994 41.6107L49.4568 38.056C49.7679 37.8716 50.1693 37.969 50.3614 38.2754C50.5535 38.5819 50.4663 38.9856 50.1648 39.1853L47.2994 41.1253L49.4541 39.8827C49.7595 39.7064 50.1494 39.7985 50.3437 40.0927C50.538 40.387 50.4695 40.7817 50.1874 40.9933L43.7874 45.776L49.4474 42.5093C49.7511 42.3384 50.1351 42.4302 50.3287 42.7199C50.5223 43.0096 50.4601 43.3995 50.1861 43.6146L46.6674 46.3173L49.4474 44.7173C49.7475 44.5442 50.1301 44.6297 50.3279 44.9141C50.5257 45.1984 50.4728 45.5869 50.2061 45.808L48.2288 47.448L49.4474 46.7453C49.7333 46.5816 50.0958 46.6512 50.3008 46.9091C50.5057 47.167 50.4915 47.5359 50.2674 47.7773L48.9928 49.1387L49.4074 48.8987C49.6141 48.7673 49.8761 48.7598 50.09 48.8791C50.3038 48.9985 50.435 49.2254 50.4317 49.4703C50.4284 49.7151 50.2911 49.9385 50.0741 50.052L45.7781 52.5333C45.4923 52.697 45.1297 52.6275 44.9248 52.3696C44.7199 52.1117 44.734 51.7428 44.9581 51.5013L46.2328 50.14L42.0834 52.54C41.7842 52.7066 41.4073 52.6193 41.2118 52.338C41.0163 52.0568 41.0657 51.6732 41.3261 51.4507L43.2994 49.8053L38.5728 52.5333C38.2708 52.6955 37.8951 52.6023 37.7039 52.3178C37.5127 52.0333 37.5685 51.6502 37.8328 51.432L41.3541 48.728L34.7528 52.5333C34.6526 52.5941 34.5379 52.6268 34.4208 52.628Z" fill="#E4E8EB"/>
<path d="M40.5639 45.9466C40.3061 45.9467 40.0713 45.7983 39.961 45.5653C39.8506 45.3323 39.8845 45.0566 40.0479 44.8572L40.1732 44.7039L39.2399 45.2439C38.9552 45.4075 38.5938 45.3395 38.388 45.0836C38.1823 44.8277 38.1936 44.4601 38.4146 44.2172L38.9372 43.6452L38.4039 43.9559C38.1321 44.1119 37.7883 44.0576 37.5779 43.8254C37.3675 43.5931 37.3472 43.2457 37.5292 42.9906L38.2559 41.9759C37.9569 41.9694 37.6987 41.7646 37.6245 41.4748C37.5503 41.1851 37.6781 40.8813 37.9372 40.7319L40.1132 39.4666C40.3854 39.3078 40.7316 39.3613 40.9431 39.5948C41.1547 39.8282 41.1739 40.178 40.9892 40.4332L40.4012 41.2532L42.0012 40.3279C42.2859 40.1642 42.6474 40.2322 42.8531 40.4882C43.0588 40.7441 43.0476 41.1117 42.8266 41.3546L42.3052 41.9239L42.6879 41.7039C42.9667 41.5456 43.3187 41.6082 43.5258 41.8529C43.733 42.0975 43.7367 42.455 43.5346 42.7039L42.9626 43.4026C43.1051 43.4565 43.2243 43.5583 43.2999 43.6906C43.4842 44.0091 43.3756 44.4167 43.0572 44.6012L40.8906 45.8519C40.7917 45.9112 40.6792 45.9438 40.5639 45.9466Z" fill="#A9B0BB"/>
<path d="M12.3352 9.65994C12.0691 9.6584 11.8295 9.49883 11.7254 9.25397C11.6214 9.00911 11.6729 8.72584 11.8565 8.53328L13.5818 6.75994L11.0325 8.22528C10.7385 8.39605 10.363 8.31814 10.1612 8.04447C9.95934 7.7708 9.99582 7.38909 10.2458 7.15861L11.6152 5.88261L10.3445 6.61594C10.0716 6.77241 9.72649 6.71683 9.51651 6.48261C9.30577 6.24914 9.28688 5.90014 9.47117 5.64528L10.9618 3.59994C10.6413 3.7045 10.2931 3.55321 10.1508 3.2475C10.0084 2.9418 10.1168 2.57797 10.4032 2.39994L12.9858 0.89861C13.2579 0.742815 13.6017 0.797588 13.8118 1.0302C14.022 1.26281 14.0417 1.61041 13.8592 1.86528L12.3858 3.90128L16.0312 1.79728C16.3254 1.6239 16.703 1.70084 16.9059 1.97549C17.1088 2.25014 17.0713 2.6337 16.8192 2.86394L15.4498 4.13328L17.0792 3.19994C17.3675 3.03361 17.7343 3.10542 17.9386 3.3682C18.1429 3.63098 18.1221 4.00419 17.8898 4.24261L16.1632 6.01461L17.3632 5.32261C17.5698 5.19124 17.8319 5.18374 18.0457 5.30308C18.2596 5.42242 18.3907 5.64938 18.3874 5.89424C18.3841 6.1391 18.2468 6.36243 18.0298 6.47594L12.6672 9.57061C12.5665 9.62962 12.4518 9.66047 12.3352 9.65994Z" fill="#B4DF80"/>
<path d="M66.413 9.80133C66.146 9.80192 65.9044 9.64314 65.799 9.39781C65.6936 9.15248 65.7448 8.86793 65.929 8.67467L67.2743 7.26L64.753 8.71467C64.4716 8.87523 64.1155 8.81024 63.909 8.56062C63.7024 8.311 63.7053 7.94903 63.9157 7.70267L66.449 4.76933L63.6237 6.4C63.3486 6.55921 62.9994 6.50209 62.7893 6.26355C62.5793 6.025 62.5669 5.67136 62.7597 5.41867L64.137 3.61866C63.8758 3.64555 63.6231 3.51662 63.4917 3.28933C63.3076 2.97048 63.4168 2.56277 63.7357 2.37866L66.269 0.911998C66.5428 0.748526 66.8944 0.804691 67.1037 1.04533C67.3138 1.28404 67.3261 1.63796 67.133 1.89066L65.849 3.56933L69.1823 1.64266C69.467 1.45958 69.8437 1.51888 70.0584 1.78057C70.273 2.04226 70.2575 2.42327 70.0223 2.66666L67.489 5.6L70.597 3.808C70.8837 3.64413 71.2472 3.71487 71.4515 3.9743C71.6559 4.23372 71.6395 4.60365 71.413 4.844L70.0703 6.25733L70.545 5.98267C70.8636 5.80154 71.2686 5.9115 71.4518 6.22887C71.6351 6.54623 71.5278 6.952 71.2117 7.13733L66.7463 9.71067C66.6453 9.77007 66.5302 9.80137 66.413 9.80133Z" fill="#B4DF80"/>
<path d="M13.1115 79.1479C12.837 79.1482 12.5905 78.9802 12.4903 78.7247C12.3901 78.4691 12.4567 78.1783 12.6582 77.9919L12.8928 77.7759L11.8528 78.3746C11.5595 78.534 11.1935 78.4518 10.9964 78.1823C10.7994 77.9128 10.832 77.5391 11.0728 77.3079L12.0302 76.4439L10.7715 77.1706C10.4862 77.3343 10.1242 77.2655 9.91892 77.0086C9.71359 76.7517 9.72629 76.3834 9.94882 76.1413L12.0368 73.8853L10.2755 74.9026C9.98818 75.0666 9.62406 74.9951 9.4201 74.7346C9.21614 74.4742 9.23404 74.1035 9.46215 73.8639L10.4048 72.8813C10.1986 72.7622 10.0715 72.5421 10.0715 72.3039C10.0715 72.0658 10.1986 71.8457 10.4048 71.7266L12.9875 70.2359C13.2748 70.0719 13.6389 70.1434 13.8429 70.4039C14.0468 70.6644 14.0289 71.035 13.8008 71.2746L13.6848 71.3946L15.1915 70.5266C15.4766 70.3648 15.8371 70.4344 16.0416 70.6906C16.2461 70.9469 16.2339 71.3138 16.0128 71.5559L13.9235 73.8119L16.8408 72.1293C17.1342 71.9699 17.5002 72.0521 17.6972 72.3215C17.8943 72.591 17.8616 72.9647 17.6208 73.1959L16.6622 74.0613L17.3848 73.6439C17.6787 73.4756 18.0521 73.5545 18.2529 73.8272C18.4538 74.0999 18.4181 74.4799 18.1702 74.7106L17.6035 75.2346C17.9004 75.2448 18.1548 75.4503 18.2271 75.7385C18.2995 76.0267 18.1724 76.328 17.9155 76.4773L13.4435 79.0586C13.3428 79.1176 13.2282 79.1485 13.1115 79.1479Z" fill="#B4DF80"/>
<path d="M66.9463 79.2466C66.6735 79.2472 66.4278 79.0815 66.3262 78.8283C66.2245 78.5751 66.2875 78.2855 66.485 78.0973L66.6743 77.9173L65.505 78.584C65.2221 78.7459 64.8636 78.6796 64.6574 78.4271C64.4512 78.1747 64.4578 77.8101 64.673 77.5653L67.0303 74.8986L63.877 76.7186C63.5803 76.8906 63.2016 76.8095 63.0014 76.5311C62.8012 76.2527 62.8448 75.8678 63.1023 75.6413L63.6543 75.1546L63.5423 75.2186C63.2591 75.3824 62.8989 75.3164 62.6921 75.0629C62.4853 74.8093 62.493 74.4432 62.7103 74.1986L63.8557 72.9066C63.7019 72.8557 63.5723 72.7498 63.4917 72.6093C63.3076 72.2904 63.4168 71.8827 63.7357 71.6986L66.269 70.232C66.5519 70.07 66.9104 70.1363 67.1166 70.3888C67.3228 70.6413 67.3162 71.0058 67.101 71.2506L66.4343 72.008L68.7503 70.6746C69.0465 70.5058 69.4223 70.5877 69.6215 70.8643C69.8206 71.141 69.779 71.5233 69.525 71.7506L68.9717 72.2386L69.921 71.6906C70.2043 71.525 70.5661 71.5902 70.7737 71.8444C70.9813 72.0985 70.9731 72.466 70.7543 72.7106L68.397 75.3773L70.7837 74C71.0762 73.821 71.4568 73.8931 71.6635 74.1667C71.8703 74.4403 71.8357 74.8261 71.5837 75.0586L70.8357 75.776C71.0996 75.8411 71.2975 76.0599 71.3359 76.329C71.3743 76.5981 71.2455 76.8636 71.0103 77L67.2903 79.148C67.1871 79.2122 67.0679 79.2464 66.9463 79.2466Z" fill="#B4DF80"/>
<path d="M6.40577 57.8399C6.14237 57.8398 5.90372 57.6846 5.79677 57.4439C5.68982 57.2032 5.73462 56.9221 5.9111 56.7266L6.44444 56.1412L4.33243 57.3612C4.04337 57.52 3.68161 57.4436 3.48148 57.1815C3.28135 56.9193 3.30301 56.5502 3.53243 56.3132L5.24977 54.5879L2.85777 55.9626C2.57367 56.1262 2.21273 56.059 2.00657 55.8041C1.80041 55.5491 1.81025 55.1821 2.02977 54.9386L4.23243 52.4999L2.25643 53.6386C1.97002 53.8024 1.60685 53.732 1.40232 53.4731C1.19779 53.2142 1.21343 52.8446 1.4391 52.6039L2.4271 51.5586C2.21063 51.4467 2.07239 51.2258 2.06655 50.9822C2.06072 50.7386 2.18823 50.5113 2.3991 50.3892L4.98177 48.8986C5.26819 48.7347 5.63135 48.8051 5.83588 49.064C6.04041 49.3229 6.02477 49.6925 5.7991 49.9332L5.54443 50.1999L7.23643 49.2239C7.52054 49.0602 7.88148 49.1274 8.08763 49.3824C8.29379 49.6373 8.28395 50.0043 8.06443 50.2479L5.86444 52.6879L8.91777 50.9239C9.20683 50.7651 9.56859 50.8415 9.76872 51.1036C9.96885 51.3658 9.94719 51.7349 9.71777 51.9719L7.9991 53.7052L9.43377 52.8772C9.71787 52.7135 10.0788 52.7807 10.285 53.0357C10.4911 53.2907 10.4813 53.6577 10.2618 53.9012L9.17243 55.1012C9.41111 55.1958 9.57425 55.419 9.5919 55.6752C9.60954 55.9313 9.47855 56.1748 9.2551 56.3012L6.7391 57.7506C6.63776 57.8091 6.52279 57.8399 6.40577 57.8399Z" fill="#B4DF80"/>
<path d="M6.40618 31.1733C6.15699 31.1707 5.93003 31.0294 5.8178 30.8069C5.70557 30.5844 5.7268 30.3179 5.87285 30.1159L7.29952 28.1333L3.65018 30.2399C3.35279 30.4131 2.97243 30.3315 2.7723 30.0515C2.57216 29.7716 2.61804 29.3853 2.87818 29.1599L3.48618 28.6266L2.71152 29.0733C2.419 29.2523 2.0384 29.1802 1.83165 28.9065C1.62489 28.6329 1.65944 28.2471 1.91152 28.0146L3.35952 26.6279L2.21018 27.2946C1.92758 27.4566 1.56927 27.3907 1.36285 27.1387C1.15643 26.8867 1.16235 26.5224 1.37685 26.2773L2.55152 24.9439C2.29376 24.871 2.10471 24.6508 2.07156 24.385C2.0384 24.1192 2.16758 23.8593 2.39952 23.7253L4.98218 22.2346C5.26478 22.0726 5.62309 22.1385 5.82951 22.3905C6.03594 22.6425 6.03002 23.0068 5.81552 23.2519L5.05418 24.1173L7.46485 22.7266C7.75736 22.5476 8.13796 22.6197 8.34472 22.8933C8.55147 23.1669 8.51692 23.5527 8.26485 23.7853L6.81685 25.1679L8.78485 24.0319C9.08224 23.8587 9.4626 23.9403 9.66273 24.2203C9.86287 24.5003 9.81699 24.8866 9.55685 25.1119L8.95018 25.6453L9.34218 25.4199C9.61421 25.2641 9.95803 25.3189 10.1682 25.5515C10.3783 25.7841 10.398 26.1317 10.2155 26.3866L8.74885 28.4146C9.04176 28.3299 9.35452 28.4573 9.50485 28.7226C9.68894 29.0414 9.57969 29.4492 9.26085 29.6333L6.73952 31.0839C6.63817 31.1424 6.52321 31.1733 6.40618 31.1733Z" fill="#B4DF80"/>
<path d="M73.5418 57.6159C73.2784 57.6159 73.0397 57.4607 72.9328 57.22C72.8258 56.9793 72.8706 56.6981 73.0471 56.5026L75.2325 54.0799L72.1485 55.8586C71.8553 56.0159 71.491 55.933 71.2948 55.6643C71.0986 55.3955 71.1306 55.0233 71.3698 54.7919L72.2871 53.9693L71.6205 54.3559C71.3442 54.5175 70.9921 54.46 70.7816 54.2189C70.5712 53.9778 70.5617 53.6212 70.7591 53.3693L72.1125 51.6266C71.8601 51.6448 71.62 51.5154 71.4965 51.2946C71.3124 50.9758 71.4216 50.568 71.7405 50.3839L74.2738 48.9173C74.5497 48.7571 74.9004 48.8149 75.1104 49.0551C75.3204 49.2953 75.3307 49.6506 75.1351 49.9026L73.8965 51.5026L77.1458 49.6279C77.439 49.4706 77.8033 49.5536 77.9995 49.8223C78.1956 50.0911 78.1636 50.4633 77.9245 50.6946L77.0058 51.5199L78.2231 50.8173C78.5072 50.6536 78.8682 50.7208 79.0743 50.9758C79.2805 51.2307 79.2706 51.5977 79.0511 51.8413L76.8618 54.2666L78.7031 53.1999C78.9095 53.079 79.1649 53.0778 79.3723 53.197C79.5798 53.3161 79.7075 53.5373 79.7069 53.7765C79.7064 54.0158 79.5778 54.2364 79.3698 54.3546L73.8751 57.5279C73.7736 57.586 73.6587 57.6163 73.5418 57.6159Z" fill="#B4DF80"/>
<path d="M75.6877 31.1906C75.4219 31.1913 75.1812 31.0342 75.0749 30.7906C74.9686 30.5471 75.0171 30.2636 75.1983 30.0693L75.569 29.6693L73.7143 30.736C73.4253 30.8948 73.0635 30.8184 72.8634 30.5562C72.6632 30.294 72.6849 29.9249 72.9143 29.688L74.6477 27.9346L72.233 29.3333C71.9495 29.497 71.589 29.4306 71.3824 29.1766C71.1758 28.9226 71.1843 28.5562 71.4023 28.312L73.637 25.816L71.581 27.0026C71.295 27.1703 70.9292 27.1023 70.7225 26.8431C70.5158 26.5838 70.5311 26.2121 70.7583 25.9706L71.7717 24.8826C71.5515 24.7735 71.4092 24.5521 71.4014 24.3065C71.3936 24.0609 71.5215 23.8309 71.7343 23.708L74.2677 22.2413C74.5532 22.0776 74.9155 22.1468 75.1206 22.4042C75.3257 22.6616 75.3123 23.0302 75.089 23.272L74.765 23.62L76.5823 22.572C76.8655 22.41 77.2242 22.4768 77.4302 22.7297C77.6362 22.9826 77.6289 23.3475 77.413 23.592L75.177 26.0893L78.3103 24.2813C78.5996 24.1145 78.9676 24.1875 79.1714 24.4519C79.3752 24.7163 79.3519 25.0907 79.117 25.328L77.3757 27.08L78.7503 26.288C79.036 26.1223 79.3998 26.1907 79.6058 26.4488C79.8118 26.7069 79.7978 27.0768 79.573 27.3186L78.541 28.4266C78.7661 28.5319 78.9139 28.7537 78.9246 29.0019C78.9352 29.2502 78.8069 29.4838 78.5917 29.608L76.021 31.092C75.9208 31.1542 75.8056 31.1883 75.6877 31.1906Z" fill="#B4DF80"/>
<path d="M31.0733 51.5773C32.6147 53.1773 35.9853 52.5546 37.944 52.5546H46.5987C46.7447 52.5727 46.8927 52.5682 47.0373 52.5413C52.6547 51.6359 50.8 43.9733 50.8 39.8119C50.8 37.7506 51.148 35.2479 48.7773 34.3319C48.1433 34.1105 47.4781 33.9917 46.8067 33.9799C47.0011 32.224 46.907 30.4481 46.528 28.7226C45.5708 26.1072 42.9397 24.4943 40.1747 24.8279C37.4985 25.0139 35.208 26.8169 34.3987 29.3746C34.0999 30.9248 34.0258 32.5099 34.1787 34.0813C32.144 34.4599 30.516 35.3933 30.2 37.5079C30.0167 40.078 30.0167 42.6579 30.2 45.2279C30.2 47.0879 29.6467 50.1013 31.0733 51.5773ZM41.492 26.1253C45.0613 27.2893 44.9307 30.9133 44.8773 34.0079C44.1053 34.0519 43.356 34.1119 42.7053 34.1119C41.1053 34.1119 38.5387 33.7706 36.132 33.8719C36.1307 30.3999 36.252 24.4133 41.492 26.1253ZM32.8253 36.2173C33.283 35.6681 33.9264 35.3061 34.6333 35.1999C34.9057 35.2127 35.1779 35.1701 35.4333 35.0746C36.9987 34.9413 38.8267 35.2159 40.1213 35.2159C41.5 35.2159 43.3107 34.9626 44.9373 35.0826C45.1678 35.2186 45.4441 35.2537 45.7013 35.1799C46.4352 35.2683 47.134 35.5437 47.7307 35.9799C49.6387 37.5106 48.8613 41.1239 48.8613 43.4466C48.8613 44.8573 49.7733 50.9773 47.3293 51.4466H41.244C39.2027 51.4466 36.2493 51.9919 34.2613 51.4466C31.1613 50.5973 32.128 45.9373 32.128 43.5799C32.1333 41.3559 31.448 38.0719 32.8227 36.2173H32.8253Z" fill="#262626"/>
<path d="M39.5339 45.7493V46.9253C39.5339 47.2599 41.4646 46.9799 41.4646 46.4079V45.5733C42.9141 45.2369 43.9872 44.013 44.1313 42.5319C44.1313 42.5106 44.1166 42.4986 44.1139 42.4786C44.1113 42.4586 44.1366 42.4333 44.1339 42.4079C43.9059 38.1533 36.8926 38.8959 36.8713 42.8626C36.8119 44.3941 38.0026 45.685 39.5339 45.7493ZM40.6966 40.6293C41.6033 41.0141 42.1926 41.903 42.1939 42.8879C42.1166 43.8213 41.5793 45.1039 40.4313 44.7546C39.4576 44.4194 38.8063 43.5004 38.8126 42.4706C38.8086 41.4359 39.5153 40.1933 40.6966 40.6293Z" fill="#262626"/>
<path d="M18.1914 40.0892C18.3239 52.2474 28.2392 62.0222 40.3981 61.9812C52.5908 61.8553 62.4958 52.0999 62.8074 39.9105C62.2927 27.8119 53.0314 17.9492 40.6007 18.0186C28.3881 18.0965 18.4554 27.8792 18.1914 40.0892ZM41.9914 19.3946C52.8714 20.3279 60.4101 29.5492 60.8581 40.0892C60.3647 51.7105 51.2301 61.6492 39.0074 60.6052C28.3639 59.5225 20.2373 50.6086 20.1407 39.9105C20.1594 28.2412 30.1261 18.3826 41.9914 19.3946Z" fill="#262626"/>
<path d="M62.2942 74.0426H59.1248C57.4075 74.0426 54.8235 74.5439 53.1755 74.0426C51.5275 73.5412 52.1382 70.8826 52.1382 69.4999V64.6812C55.1831 63.2429 57.9578 61.2913 60.3408 58.9119C61.1795 58.0759 59.3062 57.8599 58.7408 58.4212C56.4357 60.7308 53.727 62.5985 50.7488 63.9319C50.7368 63.9319 50.7315 63.9439 50.7195 63.9506C50.6096 63.9975 50.5076 64.0609 50.4168 64.1386C50.4051 64.1486 50.394 64.1592 50.3835 64.1706C50.3262 64.2261 50.2808 64.2928 50.2502 64.3666C50.245 64.3791 50.2409 64.392 50.2382 64.4052C50.2169 64.4471 50.2025 64.4921 50.1955 64.5386V70.6159C50.1955 72.2159 49.6742 74.6506 51.6622 75.2026C53.4318 75.4558 55.2263 75.4858 57.0035 75.2919H62.2622C62.5756 77.6943 64.6592 79.4677 67.0808 79.3932C69.7755 79.3903 71.999 77.2838 72.1475 74.5932C72.2155 68.5959 63.3102 68.7292 62.2942 74.0426ZM67.3715 77.9212C65.5795 77.8563 64.1571 76.3904 64.1462 74.5972C64.1013 73.7496 64.4139 72.922 65.008 72.3158C65.6021 71.7095 66.4231 71.3802 67.2715 71.4079C68.9323 71.6479 70.1699 73.0633 70.1862 74.7412C70.2644 76.3887 69.0163 77.7988 67.3715 77.9212Z" fill="#262626"/>
<path d="M10.6835 53.992H17.0741C17.4835 53.992 18.1741 53.88 18.3368 53.4186C18.3713 53.3207 18.3796 53.2154 18.3608 53.1133C18.3608 53.1013 18.3728 53.0866 18.3608 53.0746C16.9476 50.5783 15.9247 47.8804 15.3275 45.0746C15.2288 44.6173 13.2861 45.0853 13.3955 45.592C13.9272 48.057 14.7883 50.4392 15.9555 52.6746H10.7368C9.99946 47.0653 0.858129 47.8039 0.870129 53.5133C0.871462 59.3586 9.6008 59.0453 10.6835 53.992ZM5.55146 56.6586C3.93438 56.2694 2.80229 54.8124 2.8248 53.1493C2.75428 52.2358 3.11586 51.342 3.80171 50.7344C4.48756 50.1269 5.41844 49.8757 6.3168 50.056C7.8128 50.5302 8.83475 51.912 8.85013 53.4813C8.73946 55.2146 7.54613 57.0666 5.55146 56.6666V56.6586Z" fill="#262626"/>
<path d="M0.870236 26.8666C0.832902 32.6399 9.63957 32.1679 10.6796 27.2239H17.0462C17.453 27.1816 17.8336 27.003 18.1262 26.7173C18.2189 26.6696 18.2986 26.6 18.3582 26.5146C20.1352 23.5046 22.4757 20.8654 25.2516 18.7413C26.0596 18.1226 24.1409 18.2853 23.7476 18.5879C21.0396 20.6692 18.7239 23.2161 16.9089 26.1093H10.7516C10.1156 20.4813 0.899569 21.3026 0.870236 26.8666ZM6.5129 23.3759C7.92466 23.9724 8.84762 25.3501 8.86224 26.8826C8.7289 28.6786 7.45824 30.7226 5.34757 30.0333C3.82875 29.5065 2.81138 28.0742 2.81424 26.4666C2.8129 24.5253 4.40224 22.5666 6.5129 23.3759Z" fill="#262626"/>
<path d="M70.3494 52.6813H64.812C66.0909 50.3255 67.0266 47.7991 67.5907 45.1786C67.7027 44.6546 65.7907 44.9559 65.676 45.4879C65.1165 48.0906 64.1899 50.6006 62.924 52.9426C62.804 53.0141 62.7104 53.1227 62.6574 53.2519C62.5834 53.429 62.6104 53.6322 62.7279 53.7839C62.8454 53.9357 63.0354 54.0125 63.2254 53.9853H70.256C70.9907 59.5039 80.1627 58.5733 80.1227 53.0746C80.1 47.3773 71.5814 47.9479 70.3494 52.6813ZM74.3667 56.5839C73.0046 55.9455 72.1328 54.5789 72.128 53.0746C72.2427 50.9573 74.044 48.9493 76.276 50.2239C77.4691 50.9257 78.2005 52.2077 78.1974 53.5919C78.192 55.5999 76.444 57.4813 74.3667 56.5839Z" fill="#262626"/>
<path d="M70.264 26.2666H64.416C63.8666 25.9052 62.38 26.4666 62.6333 26.9212C64.9189 30.9974 66.1456 35.5817 66.2013 40.2546C66.2013 40.6159 66.9853 40.6012 67.552 40.3572H78.532C78.9066 40.3572 80.7 39.6346 79.8013 39.6346H68.128C68.0547 35.2498 66.9487 30.944 64.9 27.0666H70.2333C70.8866 32.8772 80.068 32.5212 80.1386 26.5932C80.2173 20.5332 71.0733 20.7812 70.264 26.2666ZM75.38 29.9452C73.5789 29.8651 72.1564 28.388 72.144 26.5852C72.0949 25.7356 72.405 24.9045 72.9986 24.2947C73.5922 23.6849 74.4147 23.3525 75.2653 23.3786C76.9316 23.6318 78.1692 25.0546 78.1893 26.7399C78.2805 28.3953 77.0329 29.8206 75.38 29.9492V29.9452Z" fill="#262626"/>
<path d="M14.1985 31.7693C13.4271 34.2156 12.9903 36.7551 12.8998 39.3186H1.92518C0.841182 39.3186 0.426516 40.6813 1.74118 40.6813H13.7412C14.1225 40.6958 14.4793 40.4934 14.6625 40.1586C14.7395 40.0862 14.787 39.9879 14.7959 39.8826C14.8224 37.0491 15.2718 34.2354 16.1292 31.5346C16.3492 30.8506 14.4105 31.1039 14.1985 31.7693Z" fill="#262626"/>
<path d="M46.0133 65.776C44.4818 66.0606 42.9283 66.2109 41.3706 66.2253C41.0488 66.0832 40.6831 66.078 40.3573 66.2107C38.8809 66.1782 37.4095 66.027 35.9573 65.7587C35.504 65.6733 33.844 66.408 34.3706 66.508C36.0736 66.8224 37.8004 66.9896 39.532 67.008V78.9253C39.532 79.5147 41.4626 79.1547 41.4626 78.408V66.9587C42.8676 66.8978 44.2669 66.7414 45.6506 66.4907C46.4186 66.3467 47.3706 65.5213 46.0133 65.776Z" fill="#262626"/>
<path d="M29.3573 4.75458C27.5738 4.47252 25.7601 4.43574 23.9666 4.64525H18.7319C17.9666 -0.865419 8.89061 -0.0454191 8.86528 5.52658C8.84261 11.2866 17.5173 10.9052 18.6626 6.01991H25.7786C26.5435 5.90923 27.3204 5.90923 28.0853 6.01991C29.3906 6.52125 28.8533 9.28258 28.8533 10.4812V15.6386C28.8533 16.6012 30.6933 16.3319 30.7906 15.5412C32.1476 14.9804 33.5524 14.543 34.9879 14.2346C35.2159 14.1866 36.0973 14.0212 36.1173 13.7012C36.1373 13.3812 35.5413 13.4572 35.3399 13.4999C33.799 13.8232 32.2838 14.2591 30.8066 14.8039V9.17991C30.8106 7.61458 31.2693 5.34125 29.3573 4.75458ZM13.5666 8.73591C11.9341 8.3065 10.8013 6.82388 10.8159 5.13591C10.8159 3.25058 12.3519 1.32258 14.3986 2.03325C15.8618 2.57663 16.8385 3.96585 16.8546 5.52658C16.7399 7.24791 15.5893 9.19058 13.5666 8.73591Z" fill="#262626"/>
<path d="M52.6506 6.04796C53.4425 5.91658 54.2507 5.91658 55.0426 6.04796H62.272C63.064 11.528 72.1106 10.7146 72.132 5.13996C72.1533 -0.608044 63.5066 -0.248044 62.3386 4.61862H57.4466C55.748 4.61862 53.456 4.19729 51.8026 4.76929C49.8333 5.44929 50.188 7.46662 50.188 9.11729V15.632C50.188 16.084 50.576 16.268 51.0053 16.268C53.8352 17.6262 56.4144 19.4543 58.6333 21.6746C59.016 22.056 60.808 21.3506 60.4466 20.9906C58.0441 18.5958 55.2316 16.6512 52.1426 15.2493V10.096C52.1453 9.08529 51.6893 6.57862 52.6506 6.04796ZM67.4333 1.93329C69.0634 2.36177 70.1953 3.8412 70.1826 5.52662C70.1826 7.43462 68.648 9.30129 66.6 8.62796C65.1332 8.09004 64.1532 6.69953 64.14 5.13729C64.26 3.41996 65.412 1.48129 67.4333 1.93329Z" fill="#262626"/>
<path d="M30.7978 64.3186C30.835 64.2272 30.8079 64.1221 30.7311 64.06C30.7156 64.0441 30.6981 64.0302 30.6791 64.0186C30.6484 63.996 30.6378 63.9693 30.5924 63.9493C26.968 62.3234 23.7385 59.9322 21.1258 56.94C20.6391 56.3853 18.7898 57.1013 19.3404 57.728C21.9777 60.7447 25.2241 63.1686 28.8658 64.84V69.6213C28.8658 70.5866 29.2658 73.7453 28.5658 74.172C28.1484 74.4266 26.7444 74.172 26.2604 74.172H18.7658C18.1924 68.428 8.88445 69.1826 8.87112 74.856C8.85512 80.7066 17.7498 80.264 18.7031 75.1613H23.4831C25.2058 75.1613 27.4538 75.548 29.1338 74.984C31.1058 74.3173 30.8018 72.5973 30.8018 70.9093L30.7978 64.3186ZM13.5658 78.0493C11.9378 77.6325 10.8049 76.1578 10.8218 74.4773C10.7276 73.5396 11.0967 72.6149 11.8106 71.9998C12.5245 71.3846 13.4936 71.1562 14.4071 71.388C15.8682 71.9179 16.8456 73.3005 16.8578 74.8546C16.7391 76.588 15.5778 78.472 13.5658 78.0493Z" fill="#262626"/>
<path d="M39.5293 1.43461V13.4346C39.5297 13.5713 39.5938 13.6999 39.7026 13.7826C39.8804 13.9943 40.1498 14.1067 40.4253 14.0839C42.1326 14.0995 43.8347 14.275 45.5093 14.6079C46.5093 14.8026 47.4413 13.3773 46.1573 13.1253C44.6108 12.8352 43.0436 12.6689 41.4706 12.6279V1.23194C41.4706 0.337278 39.5293 0.701278 39.5293 1.43461Z" fill="#262626"/>
</svg>
