<svg width="95" height="95" viewBox="0 0 95 95" fill="none" xmlns="http://www.w3.org/2000/svg">
<rect width="95" height="95" rx="47.5" fill="white"/>
<g clip-path="url(#clip0_838_18831)">
<path fill-rule="evenodd" clip-rule="evenodd" d="M53.3511 15.5C49.8133 15.5 46.9681 18.3527 46.9681 21.9V39.6625C47.6832 38.8681 50.338 36.3186 54.498 36.9208C55.0791 37.0056 55.4817 37.5465 55.3976 38.1292C55.3136 38.7126 54.7744 39.1176 54.1925 39.0333C51.1724 38.5963 47.5288 40.5195 46.9681 44.4646V64.5667H55.4975C55.5385 62.2495 56.6359 59.7324 58.1466 58.1312C59.2442 56.9677 59.7403 55.5035 59.7403 53.9C59.7403 50.3527 56.8951 47.5 53.3574 47.5C52.7698 47.5 52.2935 47.0225 52.2935 46.4333C52.2935 45.8442 52.7698 45.3666 53.3574 45.3667C58.0431 45.3687 61.8638 49.2012 61.8638 53.9C65.4004 53.899 68.2447 51.0466 68.2447 47.5C68.2447 43.138 64.3111 40.6792 60.9496 41.1667C60.3678 41.251 59.8279 40.8461 59.7444 40.2625C59.6604 39.6791 60.0642 39.138 60.6461 39.0542C63.6195 38.6246 67.3878 39.8517 69.3355 43.425C71.2748 42.2911 72.5 40.202 72.5 37.9C72.5 32.2204 65.6335 29.4186 61.6518 33.3272C61.2324 33.7396 60.559 33.7331 60.1476 33.3126C59.7364 32.8919 59.743 32.2167 60.1626 31.8043C63.287 28.7347 67.0512 29.3575 68.0953 29.6085C68.8761 25.9081 66.1965 21.9001 61.8619 21.9001C61.8619 26.6003 58.0389 30.4335 53.3513 30.4335C52.7638 30.4335 52.2874 29.9559 52.2874 29.3668C52.2874 28.7777 52.7638 28.3001 53.3513 28.3001C56.8891 28.3001 59.7343 25.4474 59.7343 21.9001C59.7343 18.3529 56.8889 15.5 53.3511 15.5ZM44.1008 15.5688C32.0135 16.4922 22.5 26.6027 22.5 38.9667C22.5 45.4129 25.4321 53.6252 32.7561 58.5125C34.6689 59.789 36.2604 62.1185 36.3153 64.5667H44.8405V16.325C44.8405 15.8575 44.5191 15.5368 44.1008 15.5688ZM36.3298 66.7V69.9C36.3298 70.5017 36.7936 70.9667 37.3937 70.9667H39.5213H52.2872H54.4149C55.015 70.9667 55.4787 70.5017 55.4787 69.9V66.7H36.3298ZM40.5851 73.1V78.0604C40.5851 78.8678 41.2157 79.5 42.0209 79.5H49.7877C50.5928 79.5 51.2234 78.8678 51.2234 78.0604V73.1H40.5851Z" fill="url(#paint0_linear_838_18831)"/>
</g>
<defs>
<linearGradient id="paint0_linear_838_18831" x1="24.0873" y1="47.5" x2="69.137" y2="26.7606" gradientUnits="userSpaceOnUse">
<stop stop-color="#2BAAE2"/>
<stop offset="1" stop-color="#253E90"/>
</linearGradient>
<clipPath id="clip0_838_18831">
<rect width="64" height="64" fill="white" transform="translate(15.5 15.5)"/>
</clipPath>
</defs>
</svg>
