<svg width="24" height="25" viewBox="0 0 24 25" fill="none" xmlns="http://www.w3.org/2000/svg">
<path fill-rule="evenodd" clip-rule="evenodd" d="M12 7.23584C12 8.89269 13.3431 10.2358 15 10.2358C16.6569 10.2358 18 8.89269 18 7.23584C18 5.57899 16.6569 4.23584 15 4.23584C13.3431 4.23584 12 5.57899 12 7.23584ZM10 7.23584C10 9.99726 12.2386 12.2358 15 12.2358C17.7614 12.2358 20 9.99726 20 7.23584C20 4.47442 17.7614 2.23584 15 2.23584C12.2386 2.23584 10 4.47442 10 7.23584ZM9 4.23584C9 3.68356 8.55229 3.23584 8 3.23584C5.79086 3.23584 4 5.0267 4 7.23584C4 9.44498 5.79086 11.2358 8 11.2358C8.55229 11.2358 9 10.7881 9 10.2358C9 9.68356 8.55229 9.23584 8 9.23584C6.89543 9.23584 6 8.34041 6 7.23584C6 6.13127 6.89543 5.23584 8 5.23584C8.55229 5.23584 9 4.78812 9 4.23584ZM19 13.2358C20.6569 13.2358 22 14.579 22 16.2358V21.2358C22 21.7881 21.5523 22.2358 21 22.2358C20.4477 22.2358 20 21.7881 20 21.2358V16.2358C20 15.6836 19.5523 15.2358 19 15.2358H11C10.4477 15.2358 10 15.6836 10 16.2358L10 21.2358C10 21.7881 9.55229 22.2358 9 22.2358C8.44771 22.2358 8 21.7881 8 21.2358L8 16.2358C8 14.579 9.34315 13.2358 11 13.2358H19ZM7 13.2358C7.55229 13.2358 8 13.6836 8 14.2358C8 14.7881 7.55229 15.2358 7 15.2358L5 15.2358C4.44772 15.2358 4 15.6836 4 16.2358V21.2358C4 21.7881 3.55228 22.2358 3 22.2358C2.44772 22.2358 2 21.7881 2 21.2358V16.2358C2 14.579 3.34315 13.2358 5 13.2358L7 13.2358Z" fill="#333333"/>
</svg>
