<svg width="24" height="25" viewBox="0 0 24 25" fill="none" xmlns="http://www.w3.org/2000/svg">
<path fill-rule="evenodd" clip-rule="evenodd" d="M17.2187 9.42139H6.75807L11.388 12.7499C11.7423 13.0046 12.2276 13.0031 12.5891 12.7375C13.8875 11.7834 15.3414 10.7451 16.474 9.9454C16.742 9.75615 16.9924 9.58005 17.2187 9.42139ZM19 16.0072L19 10.617C18.6578 10.8546 18.1815 11.1881 17.6276 11.5792C17.0876 11.9604 16.4751 12.3956 15.8422 12.8494L19 16.0072ZM17.5857 17.4214H6.41425L9.77915 14.0565L10.2206 14.3738C11.2885 15.1415 12.7233 15.1207 13.7733 14.3492C13.9141 14.2458 14.0567 14.1413 14.2006 14.0362L17.5857 17.4214ZM8.13367 12.8735L5 16.0072V10.6207L8.13367 12.8735ZM19 7.42139C20.1046 7.42139 21 8.31682 21 9.42139V17.4214C21 18.526 20.1046 19.4214 19 19.4214H5C3.89543 19.4214 3 18.526 3 17.4214V9.42139C3 8.31682 3.89543 7.42139 5 7.42139L19 7.42139Z" fill="#333333"/>
</svg>
