<svg width="14" height="22" viewBox="0 0 14 22" fill="none" xmlns="http://www.w3.org/2000/svg">
<path d="M13.8295 8.44C13.7378 8.30429 13.6141 8.19319 13.4694 8.11647C13.3247 8.03975 13.1633 7.99975 12.9995 8H9.99951V6H12.1995C12.4647 6 12.7191 5.89464 12.9066 5.70711C13.0942 5.51957 13.1995 5.26522 13.1995 5V1C13.1995 0.734784 13.0942 0.48043 12.9066 0.292893C12.7191 0.105357 12.4647 0 12.1995 0H8.99951C7.46126 0 5.986 0.61107 4.89829 1.69878C3.81058 2.78649 3.19951 4.26174 3.19951 5.8V8H0.999512C0.734295 8 0.479941 8.10536 0.292405 8.29289C0.104869 8.48043 -0.000488281 8.73478 -0.000488281 9V13C-0.000488281 13.2652 0.104869 13.5196 0.292405 13.7071C0.479941 13.8946 0.734295 14 0.999512 14H3.19951V21C3.19951 21.2652 3.30487 21.5196 3.4924 21.7071C3.67994 21.8946 3.93429 22 4.19951 22H8.99951C9.26473 22 9.51908 21.8946 9.70662 21.7071C9.89415 21.5196 9.99951 21.2652 9.99951 21V14H11.3995C11.5998 14.0002 11.7955 13.9402 11.9613 13.8279C12.1271 13.7156 12.2554 13.5561 12.3295 13.37L13.9295 9.37C13.9899 9.21858 14.0124 9.05468 13.9949 8.89259C13.9775 8.7305 13.9207 8.57512 13.8295 8.44ZM10.7195 12H8.99951C8.73429 12 8.47994 12.1054 8.29241 12.2929C8.10487 12.4804 7.99951 12.7348 7.99951 13V20H5.19951V13C5.19951 12.7348 5.09415 12.4804 4.90662 12.2929C4.71908 12.1054 4.46473 12 4.19951 12H1.99951V10H4.19951C4.46473 10 4.71908 9.89464 4.90662 9.70711C5.09415 9.51957 5.19951 9.26522 5.19951 9V5.8C5.20215 4.79299 5.60336 3.82798 6.31542 3.11591C7.02749 2.40384 7.9925 2.00264 8.99951 2H11.1995V4H10.3995C10.0609 3.95067 9.71583 3.97137 9.38557 4.06082C9.05531 4.15026 8.74693 4.30655 8.47951 4.52C8.31723 4.6899 8.19104 4.8909 8.10854 5.11089C8.02605 5.33087 7.98896 5.56529 7.99951 5.8V9C7.99951 9.26522 8.10487 9.51957 8.29241 9.70711C8.47994 9.89464 8.73429 10 8.99951 10H11.5195L10.7195 12Z" fill="url(#paint0_linear_417_969)"/>
<defs>
<linearGradient id="paint0_linear_417_969" x1="0.443994" y1="11" x2="13.8475" y2="5.9734" gradientUnits="userSpaceOnUse">
<stop stop-color="#2BAAE2"/>
<stop offset="1" stop-color="#253E90"/>
</linearGradient>
</defs>
</svg>
