<svg width="77" height="77" viewBox="0 0 77 77" fill="none" xmlns="http://www.w3.org/2000/svg">
<rect width="77" height="77" rx="38.5" fill="white"/>
<g clip-path="url(#clip0_494_36771)">
<path d="M54.4802 24.3806L52.51 22.4104V16.5L46.3807 22.8483L45.9429 27.8831L39.5947 34.2314C39.1568 34.2314 38.9379 34.2314 38.5002 34.2314C36.0922 34.2314 34.1221 36.2015 34.1221 38.6095C34.1221 41.0175 36.0922 42.9876 38.5002 42.9876C40.9081 42.9876 42.8782 41.0175 42.8782 38.6095C42.8782 38.1717 42.8782 37.9527 42.6594 37.515L49.0076 31.1667L54.0425 30.7288L60.3908 24.3806H54.4802Z" fill="url(#paint0_linear_494_36771)"/>
<path d="M50.3209 33.1368H50.1021L47.0374 36.4204C47.2562 37.0772 47.2562 37.9528 47.2562 38.6095C47.2562 43.4254 43.3159 47.3658 38.5 47.3658C33.684 47.3658 29.7437 43.4254 29.7437 38.6095C29.7437 33.7936 33.6841 29.8532 38.5001 29.8532C39.3757 29.8532 40.0324 30.0721 40.6892 30.0721L43.9727 26.7885V26.5697C42.2215 25.9129 40.4703 25.4752 38.5001 25.4752C31.2762 25.4752 25.3657 31.3856 25.3657 38.6095C25.3657 45.8334 31.2762 51.7438 38.5001 51.7438C45.724 51.7438 51.6344 45.8333 51.6344 38.6094C51.6344 36.6393 51.1966 34.8881 50.3209 33.1368Z" fill="url(#paint1_linear_494_36771)"/>
<path d="M58.4203 29.6343L55.1367 32.699C55.5746 34.4503 56.0123 36.4205 56.0123 38.6095C56.0123 48.2413 48.1318 56.1219 38.4999 56.1219C28.868 56.1219 20.9875 48.2413 20.9875 38.6095C20.9875 28.9777 28.868 21.097 38.4999 21.097C40.47 21.097 42.4402 21.5349 44.4103 22.1915V21.9727L47.6939 18.6891C44.8482 17.3756 41.7835 16.7189 38.4999 16.7189C26.46 16.7189 16.6094 26.5696 16.6094 38.6095C16.6094 50.6493 26.46 60.5 38.4999 60.5C50.5397 60.5 60.3904 50.6492 60.3904 38.6095C60.3904 35.3259 59.7338 32.2612 58.4203 29.6343Z" fill="url(#paint2_linear_494_36771)"/>
</g>
<defs>
<linearGradient id="paint0_linear_494_36771" x1="34.956" y1="29.7438" x2="56.3377" y2="17.2483" gradientUnits="userSpaceOnUse">
<stop stop-color="#2BAAE2"/>
<stop offset="1" stop-color="#253E90"/>
</linearGradient>
<linearGradient id="paint1_linear_494_36771" x1="26.1996" y1="38.6095" x2="47.4906" y2="26.0633" gradientUnits="userSpaceOnUse">
<stop stop-color="#2BAAE2"/>
<stop offset="1" stop-color="#253E90"/>
</linearGradient>
<linearGradient id="paint2_linear_494_36771" x1="17.9992" y1="38.6094" x2="53.4841" y2="17.6992" gradientUnits="userSpaceOnUse">
<stop stop-color="#2BAAE2"/>
<stop offset="1" stop-color="#253E90"/>
</linearGradient>
<clipPath id="clip0_494_36771">
<rect width="44" height="44" fill="white" transform="translate(16.5 16.5)"/>
</clipPath>
</defs>
</svg>
