<svg width="158" height="168" viewBox="0 0 158 168" fill="none" xmlns="http://www.w3.org/2000/svg">
<g clip-path="url(#clip0_974_7488)">
<path d="M122.966 0C126.026 3.64808 126.038 8.95545 123.031 12.6506L122.605 13.1743C119.343 17.1872 113.83 18.5111 109.032 16.5517C99.4419 12.6212 88.9062 10.5147 77.8505 10.6795C34.6559 11.2973 -0.307454 46.9131 -0.000187421 89.9252C0.318897 133.596 36.3873 168.812 80.5096 167.988C122.694 167.206 157.125 132.973 157.982 90.9725C158.449 68.2721 149.243 47.7251 134.204 33.0975C130.488 29.4788 129.501 23.9126 131.918 19.3231L132.048 19.0877C134.317 14.7747 139.369 12.7271 144.025 14.2216" fill="url(#paint0_linear_974_7488)"/>
<path d="M129.673 139.315C157.657 111.449 157.657 66.2715 129.673 38.4049C101.688 10.5382 56.3185 10.5382 28.3336 38.4049C0.348755 66.2715 0.348755 111.455 28.3277 139.315C56.3126 167.182 101.682 167.182 129.667 139.315H129.673Z" fill="url(#paint1_linear_974_7488)"/>
<path d="M126.511 136.173C152.753 110.043 152.753 67.6837 126.511 41.5528C100.269 15.422 57.7248 15.422 31.4889 41.5528C5.24718 67.6837 5.24718 110.043 31.4889 136.173C57.7307 162.304 100.269 162.304 126.511 136.173Z" stroke="url(#paint2_linear_974_7488)" stroke-width="4.86" stroke-miterlimit="10"/>
<path d="M53.3525 72H45.7939V59.3965H53.0625V61.708H48.6328V64.5117H52.7549V66.8145H48.6328V69.6973H53.3525V72ZM63.7939 72H61.0254V66.999C61.0254 65.6045 60.5273 64.9072 59.5312 64.9072C59.0508 64.9072 58.6553 65.0918 58.3447 65.4609C58.0342 65.8301 57.8789 66.2988 57.8789 66.8672V72H55.1016V63H57.8789V64.4238H57.9141C58.5762 63.3281 59.54 62.7803 60.8057 62.7803C62.7979 62.7803 63.7939 64.0166 63.7939 66.4893V72ZM74.6396 72H71.8711V66.8848C71.8711 65.5664 71.3906 64.9072 70.4297 64.9072C69.9375 64.9072 69.5391 65.0918 69.2344 65.4609C68.9297 65.8301 68.7773 66.2988 68.7773 66.8672V72H66V58.6758H68.7773V64.3359H68.8125C69.4922 63.2988 70.415 62.7803 71.5811 62.7803C73.6201 62.7803 74.6396 64.0107 74.6396 66.4717V72ZM84.334 72H81.7061V70.708H81.6709C81.0674 71.7158 80.1738 72.2197 78.9902 72.2197C78.1172 72.2197 77.4287 71.9736 76.9248 71.4814C76.4268 70.9834 76.1777 70.3213 76.1777 69.4951C76.1777 67.749 77.2119 66.7412 79.2803 66.4717L81.7236 66.1465C81.7236 65.1621 81.1904 64.6699 80.124 64.6699C79.0518 64.6699 78.0322 64.9893 77.0654 65.6279V63.5361C77.4521 63.3369 77.9795 63.1611 78.6475 63.0088C79.3213 62.8564 79.9336 62.7803 80.4844 62.7803C83.0508 62.7803 84.334 64.0605 84.334 66.6211V72ZM81.7236 68.3438V67.7373L80.0889 67.9482C79.1865 68.0654 78.7354 68.4727 78.7354 69.1699C78.7354 69.4863 78.8438 69.7471 79.0605 69.9521C79.2832 70.1514 79.582 70.251 79.957 70.251C80.4785 70.251 80.9033 70.0723 81.2314 69.7148C81.5596 69.3516 81.7236 68.8945 81.7236 68.3438ZM95.2236 72H92.4551V66.999C92.4551 65.6045 91.957 64.9072 90.9609 64.9072C90.4805 64.9072 90.085 65.0918 89.7744 65.4609C89.4639 65.8301 89.3086 66.2988 89.3086 66.8672V72H86.5312V63H89.3086V64.4238H89.3438C90.0059 63.3281 90.9697 62.7803 92.2354 62.7803C94.2275 62.7803 95.2236 64.0166 95.2236 66.4893V72ZM104.25 71.6748C103.623 72.0381 102.718 72.2197 101.534 72.2197C100.151 72.2197 99.0322 71.8008 98.1768 70.9629C97.3213 70.125 96.8936 69.0439 96.8936 67.7197C96.8936 66.1904 97.3506 64.9863 98.2646 64.1074C99.1846 63.2227 100.412 62.7803 101.947 62.7803C103.008 62.7803 103.775 62.9209 104.25 63.2021V65.5576C103.67 65.124 103.022 64.9072 102.308 64.9072C101.511 64.9072 100.878 65.1416 100.409 65.6104C99.9463 66.0732 99.7148 66.7148 99.7148 67.5352C99.7148 68.332 99.9375 68.959 100.383 69.416C100.828 69.8672 101.44 70.0928 102.22 70.0928C102.911 70.0928 103.588 69.876 104.25 69.4424V71.6748ZM114.164 68.291H108.293C108.387 69.5977 109.21 70.251 110.763 70.251C111.753 70.251 112.623 70.0166 113.373 69.5479V71.5518C112.541 71.9971 111.46 72.2197 110.13 72.2197C108.677 72.2197 107.549 71.8184 106.746 71.0156C105.943 70.207 105.542 69.082 105.542 67.6406C105.542 66.1465 105.976 64.9629 106.843 64.0898C107.71 63.2168 108.776 62.7803 110.042 62.7803C111.354 62.7803 112.368 63.1699 113.083 63.9492C113.804 64.7285 114.164 65.7861 114.164 67.1221V68.291ZM111.589 66.5859C111.589 65.2969 111.067 64.6523 110.024 64.6523C109.579 64.6523 109.192 64.8369 108.864 65.2061C108.542 65.5752 108.346 66.0352 108.275 66.5859H111.589ZM49.2744 95.5518C48.3545 95.9971 47.1533 96.2197 45.6709 96.2197C43.7373 96.2197 42.2168 95.6514 41.1094 94.5146C40.002 93.3779 39.4482 91.8633 39.4482 89.9707C39.4482 87.9551 40.0693 86.3203 41.3115 85.0664C42.5596 83.8125 44.1768 83.1855 46.1631 83.1855C47.3936 83.1855 48.4307 83.3408 49.2744 83.6514V86.3848C48.4307 85.8809 47.4697 85.6289 46.3916 85.6289C45.208 85.6289 44.2529 86.001 43.5264 86.7451C42.7998 87.4893 42.4365 88.4971 42.4365 89.7686C42.4365 90.9873 42.7793 91.96 43.4648 92.6865C44.1504 93.4072 45.0732 93.7676 46.2334 93.7676C47.3408 93.7676 48.3545 93.498 49.2744 92.959V95.5518ZM59.751 96H56.9824V94.6289H56.9385C56.2529 95.6895 55.3359 96.2197 54.1875 96.2197C52.1016 96.2197 51.0586 94.957 51.0586 92.4316V87H53.8271V92.1855C53.8271 93.457 54.3311 94.0928 55.3389 94.0928C55.8369 94.0928 56.2354 93.9199 56.5342 93.5742C56.833 93.2227 56.9824 92.748 56.9824 92.1504V87H59.751V96ZM61.5088 95.7627V93.5127C61.9658 93.7881 62.4199 93.9932 62.8711 94.1279C63.3281 94.2627 63.7588 94.3301 64.1631 94.3301C64.6553 94.3301 65.042 94.2627 65.3232 94.1279C65.6104 93.9932 65.7539 93.7881 65.7539 93.5127C65.7539 93.3369 65.6895 93.1904 65.5605 93.0732C65.4316 92.9561 65.2646 92.8535 65.0596 92.7656C64.8604 92.6777 64.6406 92.5986 64.4004 92.5283C64.1602 92.458 63.9287 92.3789 63.7061 92.291C63.3486 92.1562 63.0322 92.0127 62.7568 91.8604C62.4873 91.7021 62.2588 91.5205 62.0713 91.3154C61.8896 91.1104 61.749 90.873 61.6494 90.6035C61.5557 90.334 61.5088 90.0146 61.5088 89.6455C61.5088 89.1416 61.6172 88.708 61.834 88.3447C62.0566 87.9814 62.3496 87.6855 62.7129 87.457C63.082 87.2227 63.501 87.0527 63.9697 86.9473C64.4443 86.8359 64.9365 86.7803 65.4463 86.7803C65.8447 86.7803 66.249 86.8125 66.6592 86.877C67.0693 86.9355 67.4736 87.0234 67.8721 87.1406V89.2852C67.5205 89.0801 67.1426 88.9277 66.7383 88.8281C66.3398 88.7227 65.9473 88.6699 65.5605 88.6699C65.3789 88.6699 65.2061 88.6875 65.042 88.7227C64.8838 88.752 64.7432 88.7988 64.6201 88.8633C64.4971 88.9219 64.4004 89.001 64.3301 89.1006C64.2598 89.1943 64.2246 89.3027 64.2246 89.4258C64.2246 89.5898 64.2773 89.7305 64.3828 89.8477C64.4883 89.9648 64.626 90.0674 64.7959 90.1553C64.9658 90.2373 65.1533 90.3135 65.3584 90.3838C65.5693 90.4482 65.7773 90.5156 65.9824 90.5859C66.3516 90.7148 66.6855 90.8555 66.9844 91.0078C67.2832 91.1602 67.5381 91.3389 67.749 91.5439C67.9658 91.749 68.1299 91.9893 68.2412 92.2646C68.3584 92.54 68.417 92.8682 68.417 93.249C68.417 93.7822 68.2998 94.2393 68.0654 94.6201C67.8369 94.9951 67.5293 95.3027 67.1426 95.543C66.7617 95.7773 66.3193 95.9473 65.8154 96.0527C65.3174 96.1641 64.7988 96.2197 64.2598 96.2197C63.2695 96.2197 62.3525 96.0674 61.5088 95.7627ZM75.4658 95.8945C75.0557 96.1113 74.4375 96.2197 73.6113 96.2197C71.6543 96.2197 70.6758 95.2031 70.6758 93.1699V89.0479H69.2168V87H70.6758V85.0576L73.4443 84.2666V87H75.4658V89.0479H73.4443V92.6865C73.4443 93.624 73.8164 94.0928 74.5605 94.0928C74.8535 94.0928 75.1553 94.0078 75.4658 93.8379V95.8945ZM81.2578 96.2197C79.7578 96.2197 78.5771 95.8008 77.7158 94.9629C76.8604 94.1191 76.4326 92.9766 76.4326 91.5352C76.4326 90.0469 76.8779 88.8838 77.7686 88.0459C78.6592 87.2021 79.8633 86.7803 81.3809 86.7803C82.875 86.7803 84.0469 87.2021 84.8965 88.0459C85.7461 88.8838 86.1709 89.9941 86.1709 91.377C86.1709 92.8711 85.7314 94.0518 84.8525 94.9189C83.9795 95.7861 82.7812 96.2197 81.2578 96.2197ZM81.3281 88.9072C80.6719 88.9072 80.1621 89.1328 79.7988 89.584C79.4355 90.0352 79.2539 90.6738 79.2539 91.5C79.2539 93.2285 79.9512 94.0928 81.3457 94.0928C82.6758 94.0928 83.3408 93.2051 83.3408 91.4297C83.3408 89.748 82.6699 88.9072 81.3281 88.9072ZM102.264 96H99.4951V90.8672C99.4951 89.5605 99.0146 88.9072 98.0537 88.9072C97.5967 88.9072 97.2246 89.1035 96.9375 89.4961C96.6504 89.8887 96.5068 90.3779 96.5068 90.9639V96H93.7295V90.8145C93.7295 89.543 93.2578 88.9072 92.3145 88.9072C91.8398 88.9072 91.459 89.0947 91.1719 89.4697C90.8906 89.8447 90.75 90.3545 90.75 90.999V96H87.9727V87H90.75V88.4062H90.7852C91.0723 87.9258 91.4736 87.5361 91.9893 87.2373C92.5107 86.9326 93.0791 86.7803 93.6943 86.7803C94.9658 86.7803 95.8359 87.3398 96.3047 88.459C96.9902 87.3398 97.998 86.7803 99.3281 86.7803C101.285 86.7803 102.264 87.9873 102.264 90.4014V96ZM112.547 92.291H106.676C106.77 93.5977 107.593 94.251 109.146 94.251C110.136 94.251 111.006 94.0166 111.756 93.5479V95.5518C110.924 95.9971 109.843 96.2197 108.513 96.2197C107.06 96.2197 105.932 95.8184 105.129 95.0156C104.326 94.207 103.925 93.082 103.925 91.6406C103.925 90.1465 104.358 88.9629 105.226 88.0898C106.093 87.2168 107.159 86.7803 108.425 86.7803C109.737 86.7803 110.751 87.1699 111.466 87.9492C112.187 88.7285 112.547 89.7861 112.547 91.1221V92.291ZM109.972 90.5859C109.972 89.2969 109.45 88.6523 108.407 88.6523C107.962 88.6523 107.575 88.8369 107.247 89.2061C106.925 89.5752 106.729 90.0352 106.658 90.5859H109.972ZM120.07 89.5049C119.736 89.3232 119.347 89.2324 118.901 89.2324C118.298 89.2324 117.826 89.4551 117.486 89.9004C117.146 90.3398 116.977 90.9404 116.977 91.7021V96H114.199V87H116.977V88.6699H117.012C117.451 87.4512 118.242 86.8418 119.385 86.8418C119.678 86.8418 119.906 86.877 120.07 86.9473V89.5049ZM35.335 120H27.7764V107.396H35.0449V109.708H30.6152V112.512H34.7373V114.814H30.6152V117.697H35.335V120ZM45.7764 120H43.0078V114.999C43.0078 113.604 42.5098 112.907 41.5137 112.907C41.0332 112.907 40.6377 113.092 40.3271 113.461C40.0166 113.83 39.8613 114.299 39.8613 114.867V120H37.084V111H39.8613V112.424H39.8965C40.5586 111.328 41.5225 110.78 42.7881 110.78C44.7803 110.78 45.7764 112.017 45.7764 114.489V120ZM56.8066 118.972C56.8066 120.642 56.3232 121.934 55.3564 122.848C54.3896 123.768 52.9893 124.228 51.1553 124.228C49.9424 124.228 48.9814 124.055 48.2725 123.709V121.371C49.1982 121.91 50.1328 122.18 51.0762 122.18C52.0137 122.18 52.7402 121.931 53.2559 121.433C53.7715 120.94 54.0293 120.27 54.0293 119.42V118.708H53.9941C53.3613 119.716 52.4268 120.22 51.1904 120.22C50.042 120.22 49.1309 119.815 48.457 119.007C47.7832 118.198 47.4463 117.114 47.4463 115.755C47.4463 114.231 47.8213 113.021 48.5713 112.125C49.3213 111.229 50.3086 110.78 51.5332 110.78C52.6289 110.78 53.4492 111.202 53.9941 112.046H54.0293V111H56.8066V118.972ZM54.0645 115.676V114.964C54.0645 114.396 53.8945 113.912 53.5547 113.514C53.2207 113.109 52.7842 112.907 52.2451 112.907C51.6299 112.907 51.1465 113.147 50.7949 113.628C50.4434 114.108 50.2676 114.785 50.2676 115.658C50.2676 116.408 50.4346 117.003 50.7686 117.442C51.1025 117.876 51.5596 118.093 52.1396 118.093C52.7139 118.093 53.1768 117.873 53.5283 117.434C53.8857 116.988 54.0645 116.402 54.0645 115.676ZM66.6152 120H63.9873V118.708H63.9521C63.3486 119.716 62.4551 120.22 61.2715 120.22C60.3984 120.22 59.71 119.974 59.2061 119.481C58.708 118.983 58.459 118.321 58.459 117.495C58.459 115.749 59.4932 114.741 61.5615 114.472L64.0049 114.146C64.0049 113.162 63.4717 112.67 62.4053 112.67C61.333 112.67 60.3135 112.989 59.3467 113.628V111.536C59.7334 111.337 60.2607 111.161 60.9287 111.009C61.6025 110.856 62.2148 110.78 62.7656 110.78C65.332 110.78 66.6152 112.061 66.6152 114.621V120ZM64.0049 116.344V115.737L62.3701 115.948C61.4678 116.065 61.0166 116.473 61.0166 117.17C61.0166 117.486 61.125 117.747 61.3418 117.952C61.5645 118.151 61.8633 118.251 62.2383 118.251C62.7598 118.251 63.1846 118.072 63.5127 117.715C63.8408 117.352 64.0049 116.895 64.0049 116.344ZM77.6367 118.972C77.6367 120.642 77.1533 121.934 76.1865 122.848C75.2197 123.768 73.8193 124.228 71.9854 124.228C70.7725 124.228 69.8115 124.055 69.1025 123.709V121.371C70.0283 121.91 70.9629 122.18 71.9062 122.18C72.8438 122.18 73.5703 121.931 74.0859 121.433C74.6016 120.94 74.8594 120.27 74.8594 119.42V118.708H74.8242C74.1914 119.716 73.2568 120.22 72.0205 120.22C70.8721 120.22 69.9609 119.815 69.2871 119.007C68.6133 118.198 68.2764 117.114 68.2764 115.755C68.2764 114.231 68.6514 113.021 69.4014 112.125C70.1514 111.229 71.1387 110.78 72.3633 110.78C73.459 110.78 74.2793 111.202 74.8242 112.046H74.8594V111H77.6367V118.972ZM74.8945 115.676V114.964C74.8945 114.396 74.7246 113.912 74.3848 113.514C74.0508 113.109 73.6143 112.907 73.0752 112.907C72.46 112.907 71.9766 113.147 71.625 113.628C71.2734 114.108 71.0977 114.785 71.0977 115.658C71.0977 116.408 71.2646 117.003 71.5986 117.442C71.9326 117.876 72.3896 118.093 72.9697 118.093C73.5439 118.093 74.0068 117.873 74.3584 117.434C74.7158 116.988 74.8945 116.402 74.8945 115.676ZM88.043 116.291H82.1719C82.2656 117.598 83.0889 118.251 84.6416 118.251C85.6318 118.251 86.502 118.017 87.252 117.548V119.552C86.4199 119.997 85.3389 120.22 84.0088 120.22C82.5557 120.22 81.4277 119.818 80.625 119.016C79.8223 118.207 79.4209 117.082 79.4209 115.641C79.4209 114.146 79.8545 112.963 80.7217 112.09C81.5889 111.217 82.6553 110.78 83.9209 110.78C85.2334 110.78 86.2471 111.17 86.9619 111.949C87.6826 112.729 88.043 113.786 88.043 115.122V116.291ZM85.4678 114.586C85.4678 113.297 84.9463 112.652 83.9033 112.652C83.458 112.652 83.0713 112.837 82.7432 113.206C82.4209 113.575 82.2246 114.035 82.1543 114.586H85.4678ZM103.986 120H101.218V114.867C101.218 113.561 100.737 112.907 99.7764 112.907C99.3193 112.907 98.9473 113.104 98.6602 113.496C98.373 113.889 98.2295 114.378 98.2295 114.964V120H95.4521V114.814C95.4521 113.543 94.9805 112.907 94.0371 112.907C93.5625 112.907 93.1816 113.095 92.8945 113.47C92.6133 113.845 92.4727 114.354 92.4727 114.999V120H89.6953V111H92.4727V112.406H92.5078C92.7949 111.926 93.1963 111.536 93.7119 111.237C94.2334 110.933 94.8018 110.78 95.417 110.78C96.6885 110.78 97.5586 111.34 98.0273 112.459C98.7129 111.34 99.7207 110.78 101.051 110.78C103.008 110.78 103.986 111.987 103.986 114.401V120ZM114.27 116.291H108.398C108.492 117.598 109.315 118.251 110.868 118.251C111.858 118.251 112.729 118.017 113.479 117.548V119.552C112.646 119.997 111.565 120.22 110.235 120.22C108.782 120.22 107.654 119.818 106.852 119.016C106.049 118.207 105.647 117.082 105.647 115.641C105.647 114.146 106.081 112.963 106.948 112.09C107.815 111.217 108.882 110.78 110.147 110.78C111.46 110.78 112.474 111.17 113.188 111.949C113.909 112.729 114.27 113.786 114.27 115.122V116.291ZM111.694 114.586C111.694 113.297 111.173 112.652 110.13 112.652C109.685 112.652 109.298 112.837 108.97 113.206C108.647 113.575 108.451 114.035 108.381 114.586H111.694ZM124.614 120H121.846V114.999C121.846 113.604 121.348 112.907 120.352 112.907C119.871 112.907 119.476 113.092 119.165 113.461C118.854 113.83 118.699 114.299 118.699 114.867V120H115.922V111H118.699V112.424H118.734C119.396 111.328 120.36 110.78 121.626 110.78C123.618 110.78 124.614 112.017 124.614 114.489V120ZM132.261 119.895C131.851 120.111 131.232 120.22 130.406 120.22C128.449 120.22 127.471 119.203 127.471 117.17V113.048H126.012V111H127.471V109.058L130.239 108.267V111H132.261V113.048H130.239V116.687C130.239 117.624 130.611 118.093 131.355 118.093C131.648 118.093 131.95 118.008 132.261 117.838V119.895Z" fill="white"/>
</g>
<defs>
<linearGradient id="paint0_linear_974_7488" x1="29.2788" y1="25.5189" x2="184.327" y2="181.219" gradientUnits="userSpaceOnUse">
<stop stop-color="white"/>
<stop offset="1" stop-color="#E6E7E7"/>
</linearGradient>
<linearGradient id="paint1_linear_974_7488" x1="64.532" y1="144.605" x2="98.0053" y2="14.5472" gradientUnits="userSpaceOnUse">
<stop stop-color="#30A9E0"/>
<stop offset="1" stop-color="#234090"/>
</linearGradient>
<linearGradient id="paint2_linear_974_7488" x1="127.522" y1="137.186" x2="30.8836" y2="40.1316" gradientUnits="userSpaceOnUse">
<stop stop-color="white"/>
<stop offset="1" stop-color="#E6E7E7"/>
</linearGradient>
<clipPath id="clip0_974_7488">
<rect width="158" height="168" fill="white"/>
</clipPath>
</defs>
</svg>
