<svg width="80" height="93" viewBox="0 0 80 93" fill="none" xmlns="http://www.w3.org/2000/svg">
<g filter="url(#filter0_d_953_10755)">
<path d="M60.9002 20C64.2669 27.2333 63.5002 35.7666 59.8002 42.7C56.6669 48.3333 52.1669 53.1 48.3335 58.3333C46.6669 60.6666 45.0002 63.1666 43.7669 65.8666C43.3335 66.7666 43.0335 67.7 42.7002 68.6333C42.3668 69.5666 42.0668 70.5 41.7668 71.4333C41.4668 72.3 41.1002 73.3333 40.0002 73.3333C38.7002 73.3333 38.3335 71.8666 38.0668 70.8666C37.2668 68.4333 36.4668 66.1 35.2335 63.8666C33.8335 61.2333 32.0668 58.8 30.2668 56.4333L60.9002 20ZM30.4002 28.0666L19.4002 41.1333C21.4335 45.4333 24.4668 49.1 27.3668 52.7666C28.0668 53.6 28.7668 54.4666 29.4335 55.3666L43.3335 38.9L43.2002 38.9333C38.3335 40.6 32.9335 38.1333 31.0002 33.3333C30.7335 32.7666 30.5335 32.1 30.4002 31.4333C30.2335 30.2 30.2002 29.3 30.4002 28.1V28.0666ZM21.9335 15.4L21.9002 15.4333C16.5002 22.2666 15.5668 31.7666 18.8002 39.8L32.1002 24L31.9335 23.8333L21.9335 15.4ZM47.4002 7.86663L36.6668 20.5666L36.8002 20.5333C41.2668 19 46.2669 20.9333 48.5335 25C49.0335 25.9333 49.4335 26.9333 49.5668 27.9333C49.7668 29.2 49.8335 30.1 49.6002 31.3333V31.3666L60.2668 18.7C57.4669 13.6333 52.9002 9.76663 47.4335 7.89996L47.4002 7.86663ZM32.9669 22.9666L46.0002 7.46663L45.8669 7.43329C43.9335 6.93329 41.9668 6.66663 40.0002 6.66663C33.4335 6.66663 27.2335 9.49996 22.8335 14.3666L22.7668 14.4L32.9669 22.9666Z" fill="#FFFF1A"/>
</g>
<defs>
<filter id="filter0_d_953_10755" x="-12.3" y="-5.3" width="104.6" height="104.6" filterUnits="userSpaceOnUse" color-interpolation-filters="sRGB">
<feFlood flood-opacity="0" result="BackgroundImageFix"/>
<feColorMatrix in="SourceAlpha" type="matrix" values="0 0 0 0 0 0 0 0 0 0 0 0 0 0 0 0 0 0 127 0" result="hardAlpha"/>
<feOffset dy="7"/>
<feGaussianBlur stdDeviation="6.15"/>
<feComposite in2="hardAlpha" operator="out"/>
<feColorMatrix type="matrix" values="0 0 0 0 0 0 0 0 0 0 0 0 0 0 0 0 0 0 0.4 0"/>
<feBlend mode="normal" in2="BackgroundImageFix" result="effect1_dropShadow_953_10755"/>
<feBlend mode="normal" in="SourceGraphic" in2="effect1_dropShadow_953_10755" result="shape"/>
</filter>
</defs>
</svg>
