<svg width="183" height="183" viewBox="0 0 183 183" fill="none" xmlns="http://www.w3.org/2000/svg">
<g filter="url(#filter0_d_480_10535)">
<path d="M91.5 172C135.959 172 172 135.959 172 91.5C172 47.0411 135.959 11 91.5 11C47.0411 11 11 47.0411 11 91.5C11 135.959 47.0411 172 91.5 172Z" fill="white"/>
</g>
<g filter="url(#filter1_d_480_10535)">
<path d="M91 161C129.66 161 161 129.66 161 91C161 52.3401 129.66 21 91 21C52.3401 21 21 52.3401 21 91C21 129.66 52.3401 161 91 161Z" fill="white"/>
<path d="M159.5 91C159.5 128.832 128.832 159.5 91 159.5C53.1685 159.5 22.5 128.832 22.5 91C22.5 53.1685 53.1685 22.5 91 22.5C128.832 22.5 159.5 53.1685 159.5 91Z" stroke="url(#paint0_linear_480_10535)" stroke-width="3"/>
</g>
<path d="M105.355 85.2906C97.4311 77.3664 84.585 77.3664 76.6608 85.2906C68.7366 93.2148 68.7366 106.061 76.6608 113.985C84.585 121.909 97.4311 121.909 105.355 113.985C113.263 106.061 113.263 93.2148 105.355 85.2906ZM82.0913 120.613C78.9413 119.268 76.1358 117.234 73.9046 114.691L68.7694 123.583L73.9866 122.762C74.4296 122.68 74.8889 122.828 75.1842 123.205L78.3671 127.11L82.0913 120.613ZM108.112 114.691C105.864 117.234 103.075 119.268 99.9085 120.613L103.649 127.094L106.832 123.189C107.127 122.828 107.587 122.664 108.03 122.746L113.247 123.566L108.112 114.691ZM99.0881 91.5578C94.6256 87.0953 87.3905 87.0953 82.928 91.5578C78.4655 96.0203 78.4655 103.255 82.928 107.718C87.3905 112.18 94.6256 112.18 99.0881 107.718C103.551 103.255 103.551 96.0203 99.0881 91.5578ZM90.9999 85.7007C98.6944 85.7007 104.945 91.9351 104.945 99.6461C104.945 107.341 98.7108 113.591 90.9999 113.591C83.3053 113.591 77.0546 107.357 77.0546 99.6461C77.071 91.9351 83.3053 85.7007 90.9999 85.7007ZM84.503 100.565C84.1585 99.9578 84.3553 99.2031 84.9624 98.8586C85.5694 98.514 86.3241 98.7109 86.6686 99.3179L88.6702 102.78L95.528 95.9218C96.0202 95.4296 96.8241 95.4296 97.2999 95.9218C97.792 96.414 97.792 97.2015 97.2999 97.6937L89.2936 105.7C88.7194 106.274 87.735 106.159 87.3249 105.437L84.503 100.565ZM119.957 67.4406L122.434 72.5757L128.078 73.3468C129.046 73.4781 129.39 74.6593 128.718 75.3156L124.6 79.2531L125.617 84.864C125.781 85.8156 124.78 86.5211 123.944 86.0781L118.923 83.3875L113.903 86.0781C113.083 86.5211 112.016 85.832 112.246 84.7984L113.247 79.2531L109.129 75.3156C108.44 74.6593 108.817 73.4781 109.785 73.3468L115.412 72.5757L117.89 67.4406C118.3 66.5711 119.53 66.5875 119.957 67.4406ZM64.11 67.4406L66.5874 72.5757L72.2311 73.3468C73.1827 73.4781 73.5436 74.6593 72.871 75.3156L68.753 79.2531L69.7702 84.864C69.9342 85.8156 68.9335 86.5211 68.1131 86.0781L63.0928 83.3875L58.0725 86.0781C57.2522 86.5211 56.2022 85.832 56.4155 84.7984L57.4163 79.2531L53.2983 75.3156C52.6092 74.6593 52.9866 73.4781 53.9546 73.3468L59.5819 72.5757L62.0592 67.4406C62.4694 66.5711 63.6999 66.5875 64.11 67.4406ZM92.0335 55.5461L94.5108 60.6812L100.155 61.4523C101.106 61.5836 101.467 62.7648 100.794 63.4211L96.6764 67.3586L97.6936 72.9695C97.8577 73.9211 96.8569 74.6265 96.0202 74.1836L90.9999 71.4765L85.9795 74.1671C85.1592 74.6101 84.1092 73.9211 84.3225 72.8875L85.3233 67.3421L81.2053 63.4046C80.5163 62.7484 80.8936 61.5671 81.8616 61.4359L87.4889 60.6648L89.9663 55.5296C90.3928 54.6765 91.6233 54.6929 92.0335 55.5461Z" fill="url(#paint1_linear_480_10535)"/>
<defs>
<filter id="filter0_d_480_10535" x="0.38" y="0.38" width="182.24" height="182.24" filterUnits="userSpaceOnUse" color-interpolation-filters="sRGB">
<feFlood flood-opacity="0" result="BackgroundImageFix"/>
<feColorMatrix in="SourceAlpha" type="matrix" values="0 0 0 0 0 0 0 0 0 0 0 0 0 0 0 0 0 0 127 0" result="hardAlpha"/>
<feOffset/>
<feGaussianBlur stdDeviation="5.31"/>
<feColorMatrix type="matrix" values="0 0 0 0 0.698039 0 0 0 0 0.698039 0 0 0 0 0.698039 0 0 0 0.75 0"/>
<feBlend mode="normal" in2="BackgroundImageFix" result="effect1_dropShadow_480_10535"/>
<feBlend mode="normal" in="SourceGraphic" in2="effect1_dropShadow_480_10535" result="shape"/>
</filter>
<filter id="filter1_d_480_10535" x="10.38" y="10.38" width="161.24" height="161.24" filterUnits="userSpaceOnUse" color-interpolation-filters="sRGB">
<feFlood flood-opacity="0" result="BackgroundImageFix"/>
<feColorMatrix in="SourceAlpha" type="matrix" values="0 0 0 0 0 0 0 0 0 0 0 0 0 0 0 0 0 0 127 0" result="hardAlpha"/>
<feOffset/>
<feGaussianBlur stdDeviation="5.31"/>
<feColorMatrix type="matrix" values="0 0 0 0 0.698039 0 0 0 0 0.698039 0 0 0 0 0.698039 0 0 0 0.75 0"/>
<feBlend mode="normal" in2="BackgroundImageFix" result="effect1_dropShadow_480_10535"/>
<feBlend mode="normal" in="SourceGraphic" in2="effect1_dropShadow_480_10535" result="shape"/>
</filter>
<linearGradient id="paint0_linear_480_10535" x1="25.4444" y1="91" x2="138.916" y2="24.1348" gradientUnits="userSpaceOnUse">
<stop stop-color="#2BAAE2"/>
<stop offset="1" stop-color="#253E90"/>
</linearGradient>
<linearGradient id="paint1_linear_480_10535" x1="55.3628" y1="91.004" x2="115.341" y2="53.7478" gradientUnits="userSpaceOnUse">
<stop stop-color="#2BAAE2"/>
<stop offset="1" stop-color="#253E90"/>
</linearGradient>
</defs>
</svg>
