<svg width="142" height="141" viewBox="0 0 142 141" fill="none" xmlns="http://www.w3.org/2000/svg">
<path d="M70.9819 140.785C39.1504 140.785 11.2703 119.306 3.18643 88.5566C1.65857 82.7537 0.884766 76.7368 0.884766 70.6771C0.884766 64.6174 1.65857 58.5972 3.18973 52.7943C11.2736 22.0445 39.1537 0.56543 70.9852 0.56543C102.817 0.56543 130.697 22.0445 138.781 52.7943C140.309 58.5939 141.086 64.6108 141.086 70.6738C141.086 76.7368 140.312 82.7537 138.781 88.5566C130.697 119.306 102.817 140.785 70.9852 140.785H70.9819ZM70.9819 7.42871C42.2621 7.42871 17.1117 26.8034 9.82143 54.5431C8.44175 59.7762 7.74366 65.2069 7.74366 70.6771C7.74366 76.1473 8.44175 81.578 9.82143 86.8111C17.115 114.551 42.2654 133.925 70.9819 133.925C99.6985 133.925 124.849 114.551 132.142 86.8111C133.522 81.5747 134.22 76.1473 134.22 70.6738C134.22 65.2003 133.522 59.7729 132.142 54.5398C124.849 26.8001 99.6985 7.42544 70.9819 7.42544V7.42871Z" fill="url(#paint0_linear_830_3487)"/>
<path d="M56.9793 53.1458V48.2292C56.9793 47.5507 57.5288 47 58.2085 47H63.1252C63.8049 47 64.3543 47.5507 64.3543 48.2292V53.1458C64.3543 53.8243 63.8049 54.375 63.1252 54.375H58.2085C57.5288 54.375 56.9793 53.8243 56.9793 53.1458ZM77.8752 54.375H82.7918C83.4716 54.375 84.021 53.8243 84.021 53.1458V48.2292C84.021 47.5507 83.4716 47 82.7918 47H77.8752C77.1954 47 76.646 47.5507 76.646 48.2292V53.1458C76.646 53.8243 77.1954 54.375 77.8752 54.375ZM48.3752 54.375H53.2918C53.9716 54.375 54.521 53.8243 54.521 53.1458V48.2292C54.521 47.5507 53.9716 47 53.2918 47H48.3752C47.6954 47 47.146 47.5507 47.146 48.2292V53.1458C47.146 53.8243 47.6954 54.375 48.3752 54.375ZM68.0418 54.375H72.9585C73.6382 54.375 74.1877 53.8243 74.1877 53.1458V48.2292C74.1877 47.5507 73.6382 47 72.9585 47H68.0418C67.3621 47 66.8127 47.5507 66.8127 48.2292V53.1458C66.8127 53.8243 67.3621 54.375 68.0418 54.375ZM58.2085 64.2083H82.7918C83.4716 64.2083 84.021 63.6577 84.021 62.9792V58.0625C84.021 57.384 83.4716 56.8333 82.7918 56.8333H58.2085C57.5288 56.8333 56.9793 57.384 56.9793 58.0625V62.9792C56.9793 63.6577 57.5288 64.2083 58.2085 64.2083ZM92.6252 56.8333H87.7085C87.0288 56.8333 86.4793 57.384 86.4793 58.0625V62.9792C86.4793 63.6577 87.0288 64.2083 87.7085 64.2083H92.6252C93.3049 64.2083 93.8543 63.6577 93.8543 62.9792V58.0625C93.8543 57.384 93.3049 56.8333 92.6252 56.8333ZM92.6252 47H87.7085C87.0288 47 86.4793 47.5507 86.4793 48.2292V53.1458C86.4793 53.8243 87.0288 54.375 87.7085 54.375H92.6252C93.3049 54.375 93.8543 53.8243 93.8543 53.1458V48.2292C93.8543 47.5507 93.3049 47 92.6252 47ZM87.7085 66.6667H53.2918C52.6121 66.6667 52.0627 67.2173 52.0627 67.8958V90.0208C52.0627 90.6993 52.6121 91.25 53.2918 91.25H59.4377V89.0817C59.4377 87.2073 60.4788 85.5221 62.1554 84.6838L65.5835 82.9703V74.6562C65.5835 72.284 67.5133 70.3542 69.8856 70.3542C72.2579 70.3542 74.1877 72.284 74.1877 74.6562V81.4167H81.5627C84.2742 81.4167 86.4793 83.6218 86.4793 86.3333V91.25H87.7085C88.3882 91.25 88.9377 90.6993 88.9377 90.0208V67.8958C88.9377 67.2173 88.3882 66.6667 87.7085 66.6667ZM54.521 62.9792V58.0625C54.521 57.384 53.9716 56.8333 53.2918 56.8333H48.3752C47.6954 56.8333 47.146 57.384 47.146 58.0625V62.9792C47.146 63.6577 47.6954 64.2083 48.3752 64.2083H53.2918C53.9716 64.2083 54.521 63.6577 54.521 62.9792ZM81.5627 83.875H71.7293V74.6562C71.7293 73.6385 70.9033 72.8125 69.8856 72.8125C68.8678 72.8125 68.0418 73.6385 68.0418 74.6562V90.0208C68.0418 90.6993 67.4924 91.25 66.8127 91.25C66.1329 91.25 65.5835 90.6993 65.5835 90.0208V85.7188L63.2555 86.8828C62.4221 87.2995 61.896 88.1513 61.896 89.0817V96.7431C61.896 97.1709 62.0079 97.5913 62.2193 97.9625L66.4587 105.38C66.6775 105.764 67.0855 106 67.5268 106H80.7317C81.2345 106 81.6868 105.694 81.8724 105.227L83.8465 100.293C83.962 100.003 84.021 99.6931 84.021 99.3809V86.3333C84.021 84.9751 82.9209 83.875 81.5627 83.875Z" fill="white"/>
<defs>
<linearGradient id="paint0_linear_830_3487" x1="5.33559" y1="70.6754" x2="118.977" y2="3.71869" gradientUnits="userSpaceOnUse">
<stop stop-color="#2BAAE2"/>
<stop offset="1" stop-color="#253E90"/>
</linearGradient>
</defs>
</svg>
