<svg width="352" height="73" viewBox="0 0 352 73" fill="none" xmlns="http://www.w3.org/2000/svg">
<path d="M55.8985 50.3569C55.8985 54.5587 54.7981 58.3282 52.6074 61.6756C50.4167 65.023 47.207 67.6365 42.9887 69.5364C38.7703 71.4262 33.7571 72.3811 27.9696 72.3811C21.0307 72.3811 15.3043 71.0844 10.7905 68.501C7.59103 66.6414 4.99276 64.1585 2.99566 61.0423C0.998554 57.9362 0 54.9105 0 51.9753C0 50.2664 0.601173 48.8088 1.80351 47.5925C3.00585 46.3762 4.53424 45.7731 6.3887 45.7731C7.89671 45.7731 9.16018 46.2456 10.1995 47.1905C11.2388 48.1354 12.1253 49.5427 12.8589 51.4023C13.7556 53.6138 14.7235 55.4533 15.7628 56.941C16.8022 58.4288 18.2694 59.6451 20.1544 60.6101C22.0395 61.5751 24.5256 62.0576 27.5926 62.0576C31.811 62.0576 35.2448 61.0825 37.8838 59.1425C40.5228 57.2024 41.8475 54.7798 41.8475 51.8748C41.8475 49.5728 41.1342 47.7031 39.7077 46.2657C38.2812 44.8282 36.4471 43.7325 34.1851 42.9786C31.9333 42.2247 28.9172 41.4205 25.137 40.5661C20.0831 39.4 15.8546 38.0329 12.4411 36.4749C9.03792 34.9168 6.32756 32.7857 4.33045 30.0817C2.33335 27.3877 1.3348 24.0303 1.3348 20.0195C1.3348 16.0087 2.39448 12.8121 4.50367 9.83665C6.61285 6.87127 9.66964 4.58943 13.674 2.99114C17.6682 1.4029 22.3757 0.598724 27.7862 0.598724C32.1065 0.598724 35.8358 1.13149 38.9945 2.18697C42.143 3.24244 44.7616 4.64974 46.8402 6.39882C48.9188 8.14789 50.437 9.98744 51.3948 11.9174C52.3526 13.8475 52.8315 15.7172 52.8315 17.5467C52.8315 19.2153 52.2304 20.7231 51.028 22.0701C49.8257 23.4071 48.3278 24.0806 46.5447 24.0806C44.9144 24.0806 43.6713 23.6785 42.8256 22.8743C41.9799 22.0701 41.0527 20.7533 40.0643 18.9238C38.7805 16.3002 37.2521 14.2596 35.4588 12.792C33.6655 11.3244 30.7921 10.5906 26.8182 10.5906C23.1399 10.5906 20.1748 11.3847 17.9128 12.983C15.661 14.5813 14.5299 16.4912 14.5299 18.7328C14.5299 20.12 14.9171 21.3162 15.6813 22.3315C16.4455 23.3467 17.5052 24.2112 18.8502 24.935C20.1952 25.6587 21.5504 26.2317 22.9259 26.6439C24.3015 27.056 26.5737 27.6591 29.7426 28.4432C33.7062 29.3579 37.303 30.3732 40.5127 31.4689C43.7223 32.5646 46.4632 33.9116 48.715 35.4897C50.9669 37.0679 52.7296 39.0683 53.9931 41.4808C55.2566 43.8933 55.8883 46.8587 55.8883 50.3569H55.8985Z" fill="white"/>
<path d="M75.8996 63.8066V41.7924L58.7204 15.5161C57.2124 13.1438 56.1527 11.3042 55.5312 9.97734C54.9096 8.65046 54.5938 7.50451 54.5938 6.5194C54.5938 4.91106 55.2255 3.52386 56.489 2.35781C57.7524 1.19176 59.3114 0.608734 61.1658 0.608734C63.112 0.608734 64.5996 1.15155 65.6084 2.23718C66.6171 3.32282 68.1251 5.49408 70.1426 8.75098L83.2868 29.8203L96.5839 8.75098C97.3786 7.45425 98.0511 6.36862 98.6013 5.48403C99.1414 4.59944 99.7426 3.77516 100.405 3.00115C101.057 2.22713 101.791 1.63405 102.585 1.22192C103.38 0.809778 104.358 0.608734 105.51 0.608734C107.303 0.608734 108.801 1.18171 109.993 2.3377C111.195 3.4937 111.796 4.82059 111.796 6.33846C111.796 7.56482 111.491 8.80124 110.89 10.0276C110.278 11.254 109.239 12.9628 107.772 15.1441L90.1646 41.8025V63.8167C90.1646 66.6916 89.4921 68.8327 88.1471 70.2601C86.8021 71.6775 85.0903 72.3912 83.0117 72.3912C80.9331 72.3912 79.1907 71.6875 77.8763 70.2802C76.5619 68.8729 75.9098 66.7217 75.9098 63.8167L75.8996 63.8066Z" fill="white"/>
<path d="M133.397 9.03244L160.796 49.9346V8.65046C160.796 5.96653 161.377 3.9561 162.549 2.61916C163.72 1.28223 165.29 0.608734 167.277 0.608734C169.263 0.608734 170.934 1.28223 172.127 2.61916C173.309 3.9561 173.9 5.97658 173.9 8.65046V63.2336C173.9 69.3252 171.342 72.371 166.227 72.371C164.943 72.371 163.792 72.1901 162.773 71.8282C161.754 71.4663 160.786 70.8934 159.889 70.0993C158.993 69.3152 158.157 68.3904 157.393 67.3249C156.629 66.2694 155.854 65.1838 155.09 64.078L128.364 23.6483V64.3193C128.364 66.973 127.742 68.9734 126.489 70.3305C125.246 71.6875 123.646 72.371 121.69 72.371C119.733 72.371 118.062 71.6875 116.84 70.3104C115.627 68.9332 115.016 66.9429 115.016 64.3193V10.7815C115.016 8.50973 115.27 6.73049 115.78 5.43377C116.391 4.01641 117.39 2.85036 118.806 1.95572C120.212 1.06108 121.73 0.608734 123.361 0.608734C124.645 0.608734 125.735 0.809778 126.652 1.22192C127.559 1.63405 128.364 2.18692 129.046 2.88052C129.729 3.57412 130.442 4.47881 131.155 5.5745C131.879 6.68023 132.623 7.83623 133.387 9.03244H133.397Z" fill="white"/>
<path d="M226.02 12.7417H193.974V29.75H223.472C225.643 29.75 227.263 30.2325 228.333 31.1874C229.402 32.1525 229.932 33.419 229.932 34.9872C229.932 36.5553 229.402 37.842 228.353 38.8371C227.303 39.8323 225.673 40.3249 223.472 40.3249H193.974V60.0271H227.12C229.352 60.0271 231.043 60.5397 232.174 61.565C233.305 62.5904 233.876 63.9474 233.876 65.6563C233.876 67.3651 233.305 68.6217 232.174 69.647C231.043 70.6723 229.352 71.185 227.12 71.185H188.472C185.374 71.185 183.153 70.5115 181.788 69.1544C180.433 67.7974 179.75 65.606 179.75 62.5904V10.5202C179.75 8.49974 180.056 6.86124 180.657 5.58461C181.258 4.30799 182.216 3.38319 183.51 2.80017C184.804 2.21714 186.455 1.92563 188.472 1.92563H226.02C228.282 1.92563 229.973 2.41818 231.074 3.41335C232.174 4.40851 232.724 5.70524 232.724 7.31358C232.724 8.92193 232.174 10.2689 231.074 11.254C229.973 12.2492 228.292 12.7417 226.02 12.7417Z" fill="white"/>
<path d="M240.642 57.7251L256.354 35.0877L243.138 14.9633C241.895 13.0131 240.958 11.3344 240.336 9.92714C239.715 8.52989 239.399 7.1829 239.399 5.88617C239.399 4.58945 240 3.37313 241.192 2.31766C242.394 1.26218 243.851 0.739471 245.573 0.739471C247.55 0.739471 249.089 1.31244 250.199 2.46844C251.3 3.61439 252.828 5.75549 254.774 8.87166L265.31 25.6889L276.569 8.87166C277.497 7.45431 278.281 6.238 278.943 5.23278C279.596 4.22757 280.227 3.39324 280.839 2.7298C281.44 2.06636 282.122 1.5738 282.876 1.24208C283.63 0.910358 284.497 0.749524 285.485 0.749524C287.268 0.749524 288.735 1.27224 289.866 2.32771C290.997 3.38319 291.568 4.63971 291.568 6.08722C291.568 8.19817 290.335 11.063 287.879 14.6919L274.042 35.1078L288.939 57.7452C290.284 59.7255 291.252 61.374 291.863 62.6808C292.475 63.9876 292.77 65.224 292.77 66.3901C292.77 67.4958 292.495 68.501 291.955 69.4158C291.415 70.3305 290.651 71.0543 289.652 71.587C288.664 72.1198 287.543 72.3912 286.3 72.3912C284.955 72.3912 283.824 72.1198 282.897 71.5669C281.97 71.0141 281.216 70.3305 280.645 69.5163C280.074 68.7021 279.005 67.1038 277.435 64.7415L265.076 45.562L251.952 65.3145C250.933 66.8927 250.199 67.9884 249.771 68.6216C249.343 69.2549 248.824 69.8681 248.212 70.4612C247.601 71.0543 246.888 71.5368 246.052 71.8785C245.227 72.2203 244.249 72.4013 243.128 72.4013C241.406 72.4013 239.98 71.8785 238.838 70.8432C237.707 69.8078 237.137 68.2899 237.137 66.3097C237.137 63.9776 238.298 61.1328 240.632 57.7553L240.642 57.7251Z" fill="white"/>
<path d="M351.98 49.3115C351.98 51.5129 351.429 53.9053 350.329 56.4686C349.228 59.0319 347.496 61.555 345.132 64.0278C342.768 66.5007 339.752 68.5111 336.084 70.0491C332.416 71.587 328.137 72.3611 323.246 72.3611C319.537 72.3611 316.174 72.0193 313.138 71.3257C310.102 70.6321 307.35 69.5565 304.874 68.0889C302.398 66.6213 300.126 64.6913 298.048 62.2989C296.193 60.1276 294.614 57.695 293.31 55.001C291.995 52.307 291.017 49.4321 290.365 46.3762C289.713 43.3204 289.387 40.0735 289.387 36.6458C289.387 31.0668 290.212 26.0809 291.853 21.6681C293.493 17.2552 295.857 13.4856 298.914 10.3493C301.981 7.21306 305.567 4.8307 309.694 3.1922C313.81 1.5537 318.202 0.739471 322.869 0.739471C328.554 0.739471 333.608 1.85526 338.051 4.09689C342.493 6.33852 345.886 9.10286 348.25 12.3899C350.614 15.677 351.796 18.7931 351.796 21.7183C351.796 23.3267 351.226 24.744 350.074 25.9704C348.923 27.1967 347.537 27.8099 345.907 27.8099C344.083 27.8099 342.717 27.3877 341.811 26.5333C340.904 25.6789 339.885 24.2213 338.774 22.1405C336.92 18.7027 334.739 16.1394 332.233 14.4406C329.726 12.7417 326.639 11.8873 322.96 11.8873C317.122 11.8873 312.465 14.0787 309.001 18.4514C305.537 22.8341 303.805 29.0463 303.805 37.1182C303.805 42.5062 304.569 46.9894 306.107 50.5579C307.636 54.1365 309.816 56.8003 312.618 58.5695C315.431 60.3387 318.722 61.2132 322.482 61.2132C326.567 61.2132 330.022 60.2181 332.854 58.2177C335.677 56.2173 337.816 53.2821 339.253 49.4019C339.854 47.5725 340.608 46.0847 341.505 44.9388C342.402 43.7928 343.838 43.2098 345.815 43.2098C347.506 43.2098 348.964 43.7928 350.176 44.9589C351.389 46.1249 352 47.5725 352 49.3014L351.98 49.3115Z" fill="white"/>
</svg>
