<svg width="503" height="462" viewBox="0 0 503 462" fill="none" xmlns="http://www.w3.org/2000/svg">
<g filter="url(#filter0_d_980_5321)">
<path d="M246 50.8517C245.43 50.1808 212.651 34.9722 182.966 57.6277C155.674 78.4585 146.198 117.604 149.822 118.54C154.258 119.687 166.418 101.005 189.758 90.742C198.035 87.103 211.212 90.7388 211.212 90.7388L246 50.8517Z" fill="url(#paint0_linear_980_5321)"/>
<path opacity="0.1" d="M211.216 90.738C211.216 90.738 205.502 89.1588 199.236 89.1269C204.38 78.3533 213.992 58.2548 220.23 45.2398C234.919 45.3745 245.676 50.4676 245.999 50.8485L211.216 90.738Z" fill="black"/>
<path d="M300.001 114.542C300.571 115.214 310.212 150.039 283.005 175.618C257.99 199.136 217.823 202.081 217.491 198.353C217.087 193.789 237.505 184.848 251.448 163.501C256.392 155.931 254.96 142.337 254.96 142.337L300.001 114.542Z" fill="url(#paint1_linear_980_5321)"/>
<path opacity="0.1" d="M301.296 141.061C287.321 145.131 265.887 151.368 254.558 154.658C255.598 148.385 254.965 142.337 254.965 142.337L300.002 114.541C300.327 114.923 303.621 126.468 301.296 141.061Z" fill="black"/>
<path d="M223.681 157.117L191.666 119.357C191.666 119.357 208.361 74.5861 248.048 44.5108C267.865 29.511 291.113 18.2808 311.926 10.8514C340.647 0.555957 364.683 -2.42807 368.405 1.96152C372.143 6.37102 365.251 29.5755 350.413 56.2453C339.663 75.5431 324.781 96.64 306.742 113.738C270.579 147.971 223.681 157.117 223.681 157.117Z" fill="#DEDEDE"/>
<path d="M301.454 97.5698C289.428 107.766 271.413 106.283 261.216 94.2567C251.02 82.2297 252.503 64.2156 264.529 54.019C276.555 43.8223 294.57 45.3059 304.767 57.3321C314.963 69.359 313.48 87.3731 301.454 97.5698Z" fill="white"/>
<path d="M303.014 94.9165C290.988 105.113 272.973 103.63 262.777 91.6034C252.58 79.5772 254.064 61.5615 266.091 51.3656C278.117 41.1689 296.132 42.6526 306.328 54.6787C316.524 66.7049 315.041 84.7198 303.014 94.9165Z" fill="url(#paint2_linear_980_5321)"/>
<path d="M297.367 88.2345C289.031 95.3125 276.536 94.2926 269.458 85.9565C262.38 77.6203 263.4 65.1256 271.736 58.0476C280.072 50.9696 292.566 51.9895 299.644 60.3257C306.723 68.6611 305.703 81.1565 297.367 88.2345Z" fill="white"/>
<path d="M297.372 88.2354C295.445 89.8712 293.29 91.0807 291.036 91.8568L275.131 90.5588C273.033 89.4274 271.103 87.8848 269.467 85.9581C268.277 84.5565 267.323 83.0394 266.593 81.449L300.939 84.2521C299.96 85.7023 298.772 87.0457 297.372 88.2354Z" fill="#EBEBEB"/>
<path d="M301.362 62.6826L269.66 60.0954C270.289 59.3751 270.983 58.6867 271.733 58.05C280.074 50.9672 292.566 51.9872 299.648 60.3281C300.284 61.0779 300.857 61.8699 301.362 62.6826Z" fill="#EBEBEB"/>
<path d="M303.076 80.143L265.149 77.0474C265.025 76.4666 264.936 75.8889 264.876 75.2865L303.631 78.4498C303.476 79.0163 303.285 79.5805 303.076 80.143Z" fill="#EBEBEB"/>
<path d="M350.413 56.2461L311.926 10.8523C340.647 0.556811 364.683 -2.42722 368.405 1.96237C372.143 6.37188 365.251 29.5764 350.413 56.2461Z" fill="url(#paint3_linear_980_5321)"/>
<path d="M323.237 14.6905C322.535 15.2857 321.484 15.1988 320.888 14.4968C320.293 13.7949 320.38 12.7431 321.082 12.1479C321.784 11.5527 322.836 11.6395 323.431 12.3415C324.025 13.0435 323.939 14.0953 323.237 14.6905Z" fill="white"/>
<path d="M330.083 22.766C329.381 23.3613 328.329 23.2752 327.734 22.5724C327.139 21.8704 327.226 20.8187 327.928 20.2235C328.63 19.6282 329.682 19.7143 330.277 20.4171C330.872 21.1191 330.785 22.1708 330.083 22.766Z" fill="white"/>
<path d="M336.93 30.8409C336.228 31.4361 335.176 31.3492 334.581 30.6472C333.986 29.9453 334.073 28.8935 334.774 28.2983C335.476 27.7031 336.528 27.7899 337.123 28.4919C337.718 29.1947 337.632 30.2457 336.93 30.8409Z" fill="white"/>
<path d="M343.777 38.9165C343.076 39.5117 342.024 39.4248 341.429 38.7229C340.833 38.0209 340.92 36.9691 341.622 36.3739C342.324 35.7787 343.376 35.8655 343.971 36.5675C344.566 37.2695 344.479 38.3213 343.777 38.9165Z" fill="white"/>
<path d="M350.624 46.992C349.922 47.5873 348.87 47.5004 348.275 46.7984C347.68 46.0964 347.767 45.0447 348.469 44.4495C349.171 43.8542 350.223 43.9411 350.817 44.6431C351.412 45.3451 351.326 46.3968 350.624 46.992Z" fill="white"/>
<path d="M200.9 118.474C200.198 119.069 199.146 118.982 198.551 118.28C197.955 117.578 198.042 116.527 198.744 115.931C199.446 115.336 200.498 115.423 201.092 116.125C201.688 116.827 201.602 117.879 200.9 118.474Z" fill="white"/>
<path d="M207.746 126.549C207.044 127.144 205.993 127.057 205.398 126.355C204.803 125.653 204.89 124.601 205.591 124.006C206.293 123.411 207.345 123.498 207.94 124.2C208.535 124.903 208.448 125.954 207.746 126.549Z" fill="white"/>
<path d="M214.594 134.624C213.892 135.22 212.84 135.134 212.245 134.432C211.65 133.73 211.737 132.678 212.439 132.083C213.141 131.487 214.192 131.574 214.788 132.276C215.382 132.977 215.296 134.029 214.594 134.624Z" fill="white"/>
<path d="M221.44 142.7C220.738 143.295 219.687 143.208 219.091 142.506C218.495 141.804 218.582 140.753 219.284 140.157C219.986 139.562 221.037 139.649 221.632 140.351C222.229 141.053 222.142 142.105 221.44 142.7Z" fill="white"/>
<path d="M228.287 150.775C227.585 151.37 226.533 151.283 225.938 150.581C225.342 149.879 225.428 148.827 226.13 148.232C226.832 147.637 227.884 147.724 228.479 148.426C229.075 149.129 228.989 150.179 228.287 150.775Z" fill="white"/>
<path opacity="0.2" d="M366.601 0.839581C344.434 2.41725 306.06 15.8513 265.654 47.5322C235.806 70.9343 214.029 111.89 203.878 133.762L191.663 119.356C191.663 119.356 208.356 74.5837 248.045 44.5123C267.861 29.5085 291.112 18.2816 311.925 10.8554C337.669 1.62045 359.637 -1.72612 366.601 0.839581Z" fill="white"/>
<path d="M209.38 163.267L183.347 132.558L193.472 121.493L221.953 155.086L209.38 163.267Z" fill="url(#paint4_linear_980_5321)"/>
<path opacity="0.1" d="M221.95 155.086L215.823 159.066L189.598 125.726L193.47 121.499L221.95 155.086Z" fill="black"/>
<path d="M350.002 60.3496L338.106 59.5568L332.517 70.8874L333.027 58.2636L322.201 53.2637L334.219 53.38L339.689 42.7252L339.395 54.6979L350.002 60.3496Z" fill="#FCFCFC"/>
<path d="M347.078 16.4123L340.428 15.9692L337.304 22.3022L337.59 15.2458L331.539 12.4514L338.256 12.5167L341.313 6.5614L341.149 13.253L347.078 16.4123Z" fill="#FCFCFC"/>
<path d="M293.283 151.485L286.633 151.042L283.509 157.374L283.795 150.318L277.744 147.523L284.461 147.588L287.518 141.634L287.354 148.325L293.283 151.485Z" fill="#FCFCFC"/>
<path d="M174.938 92.7189L168.288 92.2751L165.163 98.6081L165.449 91.5524L159.398 88.7572L166.115 88.8226L169.172 82.868L169.009 89.5596L174.938 92.7189Z" fill="#FCFCFC"/>
<path opacity="0.6" d="M203.852 156.509C189.403 166.254 176.643 178.691 167.327 193.538C158.008 208.328 152.224 225.564 151.69 243.39C151.46 252.285 152.536 261.275 154.947 269.996C157.349 278.718 161.086 287.159 165.977 294.991C170.863 302.829 176.891 310.05 183.734 316.505C190.577 322.968 198.223 328.668 206.358 333.658C197.705 329.646 189.352 324.831 181.598 319.052C173.847 313.28 166.701 306.535 160.557 298.841C154.41 291.156 149.281 282.523 145.51 273.224C141.732 263.932 139.321 253.989 138.4 243.843C136.609 223.514 140.902 202.64 149.795 184.026C158.665 165.339 171.977 148.884 187.677 135.399L203.852 156.509Z" fill="url(#paint5_linear_980_5321)"/>
<path d="M179.14 178.673L173.453 179.725L172.182 185.719L170.912 179.725L165.226 178.671L170.887 177.287L172.182 171.625L173.478 177.287L179.14 178.673Z" fill="white"/>
<path d="M158.212 290.915L155.034 291.502L154.324 294.852L153.614 291.502L150.436 290.913L153.6 290.139L154.324 286.975L155.048 290.139L158.212 290.915Z" fill="white"/>
<path d="M156.506 261.837L153.328 262.425L152.618 265.775L151.908 262.425L148.729 261.835L151.894 261.063L152.618 257.898L153.342 261.063L156.506 261.837Z" fill="white"/>
<path d="M174.936 159.991L171.758 160.579L171.047 163.928L170.337 160.579L167.159 159.989L170.324 159.216L171.047 156.051L171.771 159.216L174.936 159.991Z" fill="white"/>
<path d="M165.73 298.16C164.544 298.16 164.543 300.002 165.73 300.002C166.915 300.002 166.917 298.16 165.73 298.16Z" fill="white"/>
<path d="M192.026 155.5C190.84 155.5 190.838 157.342 192.026 157.342C193.211 157.342 193.214 155.5 192.026 155.5Z" fill="white"/>
<path d="M142.424 237.657C141.239 237.657 141.237 239.499 142.424 239.499C143.61 239.499 143.612 237.657 142.424 237.657Z" fill="white"/>
<path d="M164.091 293.366C163.253 293.366 163.252 294.67 164.091 294.67C164.93 294.67 164.932 293.366 164.091 293.366Z" fill="white"/>
<path d="M142.09 205.467C141.251 205.467 141.249 206.77 142.09 206.77C142.928 206.77 142.93 205.467 142.09 205.467Z" fill="white"/>
<path d="M148.73 272.126C146.458 272.126 146.454 275.659 148.73 275.659C151.003 275.659 151.007 272.126 148.73 272.126Z" fill="white"/>
<path d="M150.435 199.474C148.163 199.474 148.159 203.007 150.435 203.007C152.709 203.006 152.713 199.474 150.435 199.474Z" fill="white"/>
</g>
<g filter="url(#filter1_d_980_5321)">
<rect x="148" y="215.481" width="203" height="203" rx="101.5" fill="white" shape-rendering="crispEdges"/>
<path d="M239.234 343.508C231.812 342.342 216.312 339.14 206.525 334.641C207.478 334.772 208.447 334.855 209.432 334.855C211.599 334.855 213.849 334.526 216.098 333.853C221.254 332.342 239.957 322.342 259.743 311.768C282.928 299.371 311.794 283.936 316.556 283.706C318.592 283.607 320.185 283.41 321.367 283.246C320.727 283.952 319.922 284.855 318.97 286.005C313.404 289.24 300.908 298.632 286.458 309.469C270.071 321.768 251.5 335.708 239.234 343.508Z" fill="url(#paint6_linear_980_5321)"/>
<path d="M239.463 344.674C237.837 345.757 236.244 346.743 234.685 347.629C236.13 346.759 237.739 345.774 239.463 344.674Z" fill="black"/>
<path d="M264.617 355.741C258.411 355.741 252.122 354.378 246.342 351.784C249.724 348.171 255.274 344.937 261.136 341.538C271.645 335.429 282.499 329.108 283.172 319.223C283.599 312.934 281.941 307.581 278.345 303.739C275.061 300.225 270.332 298.303 265.028 298.303C262.434 298.303 259.741 298.747 256.999 299.65C251.941 301.489 244.207 307.023 236.014 312.885C226.687 319.567 217.049 326.48 212.237 327.137C211.728 327.203 211.236 327.236 210.727 327.236C206.556 327.236 202.993 324.723 201.646 320.815C200.415 317.252 201.072 311.916 206.573 307.581C217.41 299.075 249.363 279.207 261.399 278.353C262.434 278.287 263.468 278.238 264.503 278.238C280.578 278.238 294.387 287.483 300.561 302.359C306.669 317.088 303.385 333.311 291.99 344.723C284.88 351.833 275.159 355.757 264.617 355.757V355.741Z" fill="#253E90"/>
<g filter="url(#filter2_d_980_5321)">
<path d="M208.889 355.101C205.49 355.101 202.173 354.674 198.987 353.803H198.938L198.856 353.771C194.882 352.588 191.122 350.766 187.658 348.368C187.543 348.27 187.477 348.237 187.444 348.204C172.83 337.925 164.604 316.727 177.182 296.152C183.75 285.414 197.001 278.205 210.153 278.205C216.721 278.205 222.764 280.012 227.755 283.443C225.407 284.97 222.304 286.727 218.806 288.698C207.394 295.134 193.191 303.131 191.434 311.653C190.038 318.385 191.434 324.904 195.293 329.518C195.736 330.043 196.147 330.585 196.557 331.127L197.214 331.981C203.47 339.928 227.805 344.854 236.343 346.365C235.555 346.858 234.8 347.317 234.077 347.744C225.506 352.621 217 355.101 208.856 355.101H208.889Z" fill="url(#paint7_linear_980_5321)"/>
</g>
<path d="M311.893 288.058L297.378 281.079L328.001 279.733L309.233 303.821L311.893 288.058Z" fill="#253E90"/>
</g>
<path d="M64.2692 245.257H88.5173L97.0923 253.853V272.493H54.1553V255.371H64.2692V245.257Z" fill="#2BAAE2"/>
<path d="M0 258.293H55.3202V268.501H0V258.293ZM54.1553 259.458H1.16493V267.336H54.1553V259.458Z" fill="#2BAAE2"/>
<path d="M95.9268 258.293H178.322V268.501H95.9268V258.293ZM177.157 259.458H97.0917V267.336H177.157V259.458Z" fill="#2BAAE2"/>
<path d="M70.5391 227.85H79.8993L88.7726 236.811V246.422H70.5391V227.85ZM87.6076 237.29L79.4123 229.014H71.704V245.257H87.6076V237.29Z" fill="#2BAAE2"/>
<path d="M177.314 258.465L168.288 267.49L169.135 268.337L178.16 259.312L177.314 258.465Z" fill="#2BAAE2"/>
<path d="M173.982 259.458L178.323 258.293L79.8983 227.85L79.1865 230.137L173.982 259.458Z" fill="#2BAAE2"/>
<path d="M4.3417 259.458L0 258.293L70.5389 227.85H79.8991L79.1874 230.137H71.2507L4.3417 259.458Z" fill="#2BAAE2"/>
<path d="M80.2552 228.432H79.0576V245.84H80.2552V228.432Z" fill="#2BAAE2"/>
<path d="M169.163 258.453L168.316 259.3L177.342 268.326L178.189 267.48L169.163 258.453Z" fill="#2BAAE2"/>
<path d="M168.301 258.45L159.274 267.476L160.098 268.3L169.124 259.274L168.301 258.45Z" fill="#2BAAE2"/>
<path d="M160.097 258.463L159.273 259.286L168.3 268.313L169.124 267.489L160.097 258.463Z" fill="#2BAAE2"/>
<path d="M159.272 258.476L150.246 267.501L151.07 268.325L160.095 259.299L159.272 258.476Z" fill="#2BAAE2"/>
<path d="M151.071 258.462L150.247 259.286L159.273 268.312L160.096 267.488L151.071 258.462Z" fill="#2BAAE2"/>
<path d="M150.247 258.475L141.222 267.501L142.045 268.325L151.071 259.299L150.247 258.475Z" fill="#2BAAE2"/>
<path d="M142.046 258.462L141.223 259.286L150.248 268.312L151.072 267.488L142.046 258.462Z" fill="#2BAAE2"/>
<path d="M141.222 258.475L132.196 267.5L133.02 268.324L142.046 259.299L141.222 258.475Z" fill="#2BAAE2"/>
<path d="M133.021 258.463L132.197 259.287L141.223 268.312L142.047 267.488L133.021 258.463Z" fill="#2BAAE2"/>
<path d="M132.198 258.451L123.172 267.477L123.996 268.301L133.022 259.274L132.198 258.451Z" fill="#2BAAE2"/>
<path d="M123.995 258.46L123.171 259.284L132.197 268.311L133.021 267.487L123.995 258.46Z" fill="#2BAAE2"/>
<path d="M123.169 258.474L114.144 267.5L114.967 268.323L123.993 259.298L123.169 258.474Z" fill="#2BAAE2"/>
<path d="M114.968 258.463L114.145 259.286L123.17 268.312L123.994 267.488L114.968 258.463Z" fill="#2BAAE2"/>
<path d="M114.144 258.474L105.118 267.5L105.942 268.323L114.967 259.298L114.144 258.474Z" fill="#2BAAE2"/>
<path d="M105.944 258.462L105.12 259.286L114.146 268.311L114.969 267.488L105.944 258.462Z" fill="#2BAAE2"/>
<path d="M105.117 258.474L96.0918 267.5L96.9155 268.324L105.941 259.298L105.117 258.474Z" fill="#2BAAE2"/>
<path d="M96.9175 258.462L96.0938 259.286L105.119 268.312L105.943 267.488L96.9175 258.462Z" fill="#2BAAE2"/>
<path d="M54.3262 258.452L45.2998 267.478L46.1235 268.302L55.1499 259.275L54.3262 258.452Z" fill="#2BAAE2"/>
<path d="M46.1206 258.462L45.2969 259.285L54.3232 268.312L55.147 267.488L46.1206 258.462Z" fill="#2BAAE2"/>
<path d="M45.2931 258.472L36.2676 267.498L37.0913 268.321L46.1168 259.296L45.2931 258.472Z" fill="#2BAAE2"/>
<path d="M37.0942 258.461L36.2705 259.285L45.296 268.311L46.1198 267.487L37.0942 258.461Z" fill="#2BAAE2"/>
<path d="M36.2667 258.472L27.2412 267.498L28.0649 268.321L37.0905 259.296L36.2667 258.472Z" fill="#2BAAE2"/>
<path d="M28.0688 258.462L27.2451 259.285L36.2706 268.311L37.0944 267.487L28.0688 258.462Z" fill="#2BAAE2"/>
<path d="M27.2414 258.471L18.2158 267.497L19.0395 268.321L28.0651 259.295L27.2414 258.471Z" fill="#2BAAE2"/>
<path d="M19.0425 258.462L18.2188 259.286L27.2443 268.311L28.068 267.488L19.0425 258.462Z" fill="#2BAAE2"/>
<path d="M18.2246 258.453L9.19824 267.479L10.022 268.303L19.0483 259.277L18.2246 258.453Z" fill="#2BAAE2"/>
<path d="M10.0171 258.463L9.19336 259.287L18.2197 268.313L19.0434 267.49L10.0171 258.463Z" fill="#2BAAE2"/>
<path d="M9.18959 258.472L0.164062 267.497L0.987785 268.321L10.0133 259.295L9.18959 258.472Z" fill="#2BAAE2"/>
<path d="M0.992668 258.462L0.168945 259.286L9.19448 268.311L10.0182 267.487L0.992668 258.462Z" fill="#2BAAE2"/>
<path d="M70.624 271.328V374.604H88.8575V271.328H70.624ZM79.1583 364.131L72.0301 357.003L79.1583 349.875V364.131ZM80.3232 349.925L87.4014 357.003L80.3232 364.081V349.925ZM79.1583 347.113L72.0301 339.985L79.1583 332.856V347.113ZM80.3232 332.906L87.4014 339.985L80.3232 347.063V332.906ZM79.1583 330.094L72.0301 322.966L79.1583 315.838V330.094ZM80.3232 315.888L87.4014 322.966L80.3232 330.044V315.888ZM79.1583 313.076L72.0301 305.948L79.1583 298.819V313.076ZM80.3232 298.87L87.4014 305.948L80.3232 313.026V298.87ZM79.1583 296.057L72.0301 288.929L79.1583 281.801V296.057ZM80.3232 281.851L87.4014 288.929L80.3232 296.007V281.851ZM80.3232 272.493H86.8189L80.3232 278.989V272.493ZM79.1583 279.039L72.6126 272.493H79.1583V279.039ZM87.6926 273.267V287.574L80.5387 280.421L87.6926 273.267ZM87.6926 290.285V304.593L80.5387 297.439L87.6926 290.285ZM87.6926 307.304V321.61L80.5387 314.456L87.6926 307.304ZM87.6926 324.322V338.63L80.5387 331.476L87.6926 324.322ZM87.6926 341.341V355.648L80.5387 348.494L87.6926 341.341ZM87.6926 358.359V372.666L80.5387 365.512L87.6926 358.359ZM86.8189 373.439H80.3232V366.943L86.8189 373.439ZM79.1583 373.439H72.6126L79.1583 366.893V373.439ZM71.7901 372.616V358.409L78.8927 365.512L71.7901 372.616ZM71.7901 355.597V341.391L78.8927 348.494L71.7901 355.597ZM71.7901 338.579V324.372L78.8927 331.476L71.7901 338.579ZM71.7901 321.56V307.354L78.8927 314.456L71.7901 321.56ZM71.7901 304.542V290.335L78.8927 297.439L71.7901 304.542ZM71.7901 287.523V273.317L78.8927 280.421L71.7901 287.523Z" fill="#2BAAE2"/>
<path d="M177.74 262.814H96.5098V263.979H177.74V262.814Z" fill="#2BAAE2"/>
<path d="M54.7373 262.814H0.582031V263.979H54.7373V262.814Z" fill="#2BAAE2"/>
<path d="M79.5005 237.634H88.1898V236.468H79.9816L71.5336 228.02L70.71 228.843L79.5005 237.634Z" fill="#2BAAE2"/>
<path d="M71.4486 246.166L81.1467 236.468H71.0374V237.634H78.3345L70.625 245.343L71.4486 246.166Z" fill="#2BAAE2"/>
<path d="M80.1509 236.638L79.3271 237.461L87.9458 246.08L88.7695 245.256L80.1509 236.638Z" fill="#2BAAE2"/>
<path d="M155.413 271.452H154.216V280.585H155.413V271.452Z" fill="#2BAAE2"/>
<path d="M149.531 285.228V279.986H160.101V285.228L154.815 287.776L149.531 285.228Z" fill="#2BAAE2"/>
<path d="M159.501 268.19H150.129V271.453H159.501V268.19Z" fill="#2BAAE2"/>
<path d="M154.815 295.491C157.291 295.491 159.305 293.477 159.305 291.002H158.107C158.107 292.817 156.631 294.294 154.815 294.294C152.999 294.294 151.522 292.817 151.522 291.002C151.522 289.187 152.999 287.709 154.815 287.709V286.512C152.338 286.512 150.324 288.526 150.324 291.002C150.325 293.478 152.34 295.491 154.815 295.491Z" fill="#2BAAE2"/>
<path d="M422.278 155.557H398.03L389.455 164.153V182.795H432.392V165.672H422.278V155.557Z" fill="#E9E9E9" fill-opacity="0.1"/>
<path d="M486.547 178.802H431.227V168.594H486.547V178.802ZM432.391 177.637H485.382V169.759H432.391V177.637Z" fill="#E9E9E9" fill-opacity="0.1"/>
<path d="M390.619 178.802H308.224V168.594H390.619V178.802ZM309.387 177.637H389.453V169.759H309.387V177.637Z" fill="#E9E9E9" fill-opacity="0.1"/>
<path d="M416.008 156.722H397.774V147.112L406.648 138.15H416.008V156.722ZM398.939 155.557H414.843V139.315H407.135L398.939 147.59V155.557Z" fill="#E9E9E9" fill-opacity="0.1"/>
<path d="M309.222 168.744L308.375 169.591L317.401 178.616L318.247 177.769L309.222 168.744Z" fill="#E9E9E9" fill-opacity="0.1"/>
<path d="M312.564 169.758L308.223 168.593L406.648 138.15L407.358 140.438L312.564 169.758Z" fill="#E9E9E9" fill-opacity="0.1"/>
<path d="M482.206 169.758L486.548 168.593L416.009 138.15H406.648L407.359 140.438H415.297L482.206 169.758Z" fill="#E9E9E9" fill-opacity="0.1"/>
<path d="M407.49 138.732H406.292V156.14H407.49V138.732Z" fill="#E9E9E9" fill-opacity="0.1"/>
<path d="M317.404 168.753L308.379 177.779L309.226 178.626L318.251 169.6L317.404 168.753Z" fill="#E9E9E9" fill-opacity="0.1"/>
<path d="M318.244 168.775L317.42 169.599L326.446 178.626L327.27 177.802L318.244 168.775Z" fill="#E9E9E9" fill-opacity="0.1"/>
<path d="M326.443 168.766L317.417 177.792L318.241 178.616L327.267 169.59L326.443 168.766Z" fill="#E9E9E9" fill-opacity="0.1"/>
<path d="M327.261 168.755L326.438 169.579L335.463 178.605L336.287 177.781L327.261 168.755Z" fill="#E9E9E9" fill-opacity="0.1"/>
<path d="M335.47 168.768L326.444 177.794L327.268 178.618L336.294 169.592L335.47 168.768Z" fill="#E9E9E9" fill-opacity="0.1"/>
<path d="M336.287 168.755L335.463 169.579L344.488 178.604L345.312 177.78L336.287 168.755Z" fill="#E9E9E9" fill-opacity="0.1"/>
<path d="M344.493 168.767L335.468 177.792L336.291 178.616L345.317 169.59L344.493 168.767Z" fill="#E9E9E9" fill-opacity="0.1"/>
<path d="M345.313 168.754L344.489 169.578L353.515 178.604L354.339 177.78L345.313 168.754Z" fill="#E9E9E9" fill-opacity="0.1"/>
<path d="M353.52 168.766L344.494 177.792L345.318 178.615L354.343 169.59L353.52 168.766Z" fill="#E9E9E9" fill-opacity="0.1"/>
<path d="M354.348 168.776L353.524 169.6L362.551 178.626L363.374 177.802L354.348 168.776Z" fill="#E9E9E9" fill-opacity="0.1"/>
<path d="M362.546 168.766L353.52 177.792L354.343 178.616L363.37 169.589L362.546 168.766Z" fill="#E9E9E9" fill-opacity="0.1"/>
<path d="M363.364 168.754L362.54 169.578L371.566 178.604L372.389 177.78L363.364 168.754Z" fill="#E9E9E9" fill-opacity="0.1"/>
<path d="M371.571 168.767L362.546 177.792L363.37 178.616L372.395 169.59L371.571 168.767Z" fill="#E9E9E9" fill-opacity="0.1"/>
<path d="M372.389 168.755L371.565 169.578L380.591 178.604L381.415 177.78L372.389 168.755Z" fill="#E9E9E9" fill-opacity="0.1"/>
<path d="M380.599 168.769L371.573 177.795L372.397 178.619L381.422 169.593L380.599 168.769Z" fill="#E9E9E9" fill-opacity="0.1"/>
<path d="M381.415 168.754L380.591 169.578L389.616 178.603L390.44 177.78L381.415 168.754Z" fill="#E9E9E9" fill-opacity="0.1"/>
<path d="M389.622 168.767L380.597 177.792L381.42 178.616L390.446 169.591L389.622 168.767Z" fill="#E9E9E9" fill-opacity="0.1"/>
<path d="M432.223 168.779L431.399 169.603L440.426 178.629L441.249 177.805L432.223 168.779Z" fill="#E9E9E9" fill-opacity="0.1"/>
<path d="M440.449 168.751L431.421 177.778L432.245 178.602L441.272 169.575L440.449 168.751Z" fill="#E9E9E9" fill-opacity="0.1"/>
<path d="M441.237 168.753L440.413 169.576L449.439 178.602L450.262 177.778L441.237 168.753Z" fill="#E9E9E9" fill-opacity="0.1"/>
<path d="M449.477 168.755L440.45 177.78L441.274 178.604L450.301 169.579L449.477 168.755Z" fill="#E9E9E9" fill-opacity="0.1"/>
<path d="M450.261 168.753L449.438 169.577L458.463 178.602L459.287 177.779L450.261 168.753Z" fill="#E9E9E9" fill-opacity="0.1"/>
<path d="M458.5 168.751L449.474 177.777L450.297 178.6L459.324 169.575L458.5 168.751Z" fill="#E9E9E9" fill-opacity="0.1"/>
<path d="M459.288 168.753L458.464 169.577L467.489 178.602L468.313 177.778L459.288 168.753Z" fill="#E9E9E9" fill-opacity="0.1"/>
<path d="M467.527 168.75L458.5 177.776L459.324 178.6L468.351 169.574L467.527 168.75Z" fill="#E9E9E9" fill-opacity="0.1"/>
<path d="M468.328 168.779L467.504 169.603L476.53 178.629L477.354 177.805L468.328 168.779Z" fill="#E9E9E9" fill-opacity="0.1"/>
<path d="M476.539 168.793L467.512 177.818L468.335 178.642L477.363 169.617L476.539 168.793Z" fill="#E9E9E9" fill-opacity="0.1"/>
<path d="M477.338 168.753L476.515 169.576L485.54 178.602L486.364 177.778L477.338 168.753Z" fill="#E9E9E9" fill-opacity="0.1"/>
<path d="M485.548 168.767L476.522 177.793L477.346 178.617L486.372 169.591L485.548 168.767Z" fill="#E9E9E9" fill-opacity="0.1"/>
<path d="M397.688 181.63V284.906H415.922V181.63H397.688ZM407.388 260.175L414.516 267.303L407.388 274.432V260.175ZM406.223 274.382L399.145 267.303L406.223 260.225V274.382ZM407.388 243.157L414.516 250.285L407.388 257.413V243.157ZM406.223 257.363L399.145 250.285L406.223 243.207V257.363ZM407.388 226.138L414.516 233.266L407.388 240.395V226.138ZM406.223 240.345L399.145 233.266L406.223 226.188V240.345ZM407.388 209.12L414.516 216.248L407.388 223.376V209.12ZM406.223 223.327L399.145 216.249L406.223 209.171V223.327ZM407.388 192.101L414.516 199.229L407.388 206.358V192.101ZM406.223 206.309L399.145 199.231L406.223 192.153V206.309ZM406.223 189.29L399.727 182.795H406.223V189.29ZM407.388 182.795H413.933L407.388 189.34V182.795ZM406.007 190.721L398.853 197.875V183.567L406.007 190.721ZM406.007 207.739L398.853 214.893V200.585L406.007 207.739ZM406.007 224.758L398.853 231.912V217.605L406.007 224.758ZM406.007 241.776L398.853 248.93V234.622L406.007 241.776ZM406.007 258.795L398.853 265.949V251.641L406.007 258.795ZM406.007 275.813L398.853 282.967V268.661L406.007 275.813ZM406.223 277.244V283.739H399.727L406.223 277.244ZM407.388 277.194L413.933 283.739H407.388V277.194ZM407.654 275.813L414.757 268.711V282.917L407.654 275.813ZM407.654 258.795L414.757 251.691V265.897L407.654 258.795ZM407.654 241.776L414.757 234.673V248.879L407.654 241.776ZM407.654 224.758L414.757 217.655V231.862L407.654 224.758ZM407.654 207.739L414.757 200.636V214.842L407.654 207.739ZM407.654 190.721L414.757 183.617V197.823L407.654 190.721Z" fill="#E9E9E9" fill-opacity="0.1"/>
<path d="M397.688 283.74V387.015H415.922V283.74H397.688ZM407.388 362.286L414.516 369.414L407.388 376.543V362.286ZM406.223 376.492L399.145 369.414L406.223 362.336V376.492ZM407.388 345.268L414.516 352.396L407.388 359.524V345.268ZM406.223 359.474L399.145 352.396L406.223 345.318V359.474ZM407.388 328.249L414.516 335.377L407.388 342.506V328.249ZM406.223 342.456L399.145 335.377L406.223 328.299V342.456ZM407.388 311.231L414.516 318.359L407.388 325.487V311.231ZM406.223 325.437L399.145 318.359L406.223 311.281V325.437ZM407.388 294.212L414.516 301.34L407.388 308.469V294.212ZM406.223 308.419L399.145 301.34L406.223 294.262V308.419ZM406.223 291.4L399.727 284.904H406.223V291.4ZM407.388 284.904H413.933L407.388 291.45V284.904ZM406.007 292.832L398.853 299.986V285.678L406.007 292.832ZM406.007 309.85L398.853 317.004V302.696L406.007 309.85ZM406.007 326.869L398.853 334.023V319.716L406.007 326.869ZM406.007 343.886L398.853 351.04V336.732L406.007 343.886ZM406.007 360.905L398.853 368.058V353.751L406.007 360.905ZM406.007 377.923L398.853 385.077V370.77L406.007 377.923ZM406.223 379.355V385.85H399.727L406.223 379.355ZM407.388 379.305L413.933 385.85H407.388V379.305ZM407.654 377.923L414.757 370.82V385.027L407.654 377.923ZM407.654 360.905L414.757 353.801V368.007L407.654 360.905ZM407.654 343.886L414.757 336.782V350.99L407.654 343.886ZM407.654 326.869L414.757 319.766V333.972L407.654 326.869ZM407.654 309.85L414.757 302.747V316.953L407.654 309.85ZM407.654 292.832L414.757 285.728V299.934L407.654 292.832Z" fill="#E9E9E9" fill-opacity="0.1"/>
<path d="M390.035 173.115H308.805V174.28H390.035V173.115Z" fill="#E9E9E9" fill-opacity="0.1"/>
<path d="M485.964 173.115H431.809V174.28H485.964V173.115Z" fill="#E9E9E9" fill-opacity="0.1"/>
<path d="M407.046 147.934H398.356V146.769H406.565L415.013 138.321L415.836 139.145L407.046 147.934Z" fill="#E9E9E9" fill-opacity="0.1"/>
<path d="M415.096 156.467L405.398 146.769H415.509V147.934H408.211L415.92 155.644L415.096 156.467Z" fill="#E9E9E9" fill-opacity="0.1"/>
<path d="M406.39 146.941L397.771 155.56L398.595 156.384L407.214 147.765L406.39 146.941Z" fill="#E9E9E9" fill-opacity="0.1"/>
<path d="M332.329 181.753H331.132V190.886H332.329V181.753Z" fill="#E9E9E9" fill-opacity="0.1"/>
<path d="M331.732 198.077L326.446 195.53V190.287H337.016V195.53L331.732 198.077Z" fill="#E9E9E9" fill-opacity="0.1"/>
<path d="M336.418 178.49H327.046V181.753H336.418V178.49Z" fill="#E9E9E9" fill-opacity="0.1"/>
<path d="M331.732 205.793C329.256 205.793 327.242 203.779 327.242 201.303H328.44C328.44 203.118 329.916 204.595 331.732 204.595C333.547 204.595 335.025 203.118 335.025 201.303C335.025 199.488 333.548 198.011 331.732 198.011V196.813C334.208 196.813 336.223 198.828 336.223 201.303C336.221 203.779 334.207 205.793 331.732 205.793Z" fill="#E9E9E9" fill-opacity="0.1"/>
<path d="M75.965 333.253C107.258 333.253 134.304 351.505 147.116 377.981C155.417 371.976 165.603 368.431 176.617 368.431C196.523 368.431 213.738 379.992 221.969 396.787C227.013 394.853 232.488 393.794 238.21 393.794C259.372 393.794 277.163 408.289 282.266 427.927C280.868 423.537 280.113 418.858 280.113 414.002C280.113 388.764 300.496 368.304 325.639 368.304C331.714 368.304 337.509 369.497 342.808 371.665C350.49 353.436 369.178 338.786 390.132 339.265C408.146 339.677 420.81 349.665 420.81 349.665C429.788 341.503 441.697 336.531 454.766 336.531V454.253H31.7656V346.807C44.3828 338.25 59.5933 333.253 75.965 333.253Z" fill="url(#paint8_linear_980_5321)"/>
<path d="M448 251.127C449.198 247.432 451.708 244.105 455.006 241.839C458.286 239.544 462.376 238.345 466.437 238.494C468.468 238.564 470.501 238.933 472.426 239.631C474.347 240.336 476.16 241.341 477.781 242.598C481.03 245.107 483.439 248.684 484.593 252.624L482.84 252.001C484.901 250.645 487.365 249.892 489.792 249.859C492.224 249.824 494.655 250.458 496.732 251.667C498.782 252.915 500.513 254.67 501.582 256.773C502.717 258.838 503.122 261.226 502.969 263.481C502.742 261.221 502.025 259.052 500.775 257.259C499.559 255.446 497.868 254.016 495.976 253.076C494.062 252.175 491.961 251.739 489.878 251.909C487.798 252.045 485.805 252.731 484.134 253.926L482.866 254.833L482.381 253.303C481.283 249.839 479.112 246.762 476.283 244.523C473.455 242.278 469.947 240.925 466.328 240.657C464.516 240.532 462.68 240.65 460.893 241.052C459.11 241.463 457.374 242.129 455.758 243.043C452.529 244.878 449.805 247.694 448 251.127Z" fill="#4F8CBA"/>
<path d="M113.364 163.307C112.834 157.427 110.749 151.78 107.033 147.401C103.388 143.018 98.4114 139.747 92.8962 138.436C87.4184 136.998 81.4847 137.434 76.1861 139.557C73.5502 140.653 71.057 142.141 68.8307 143.992C66.6132 145.855 64.6846 148.079 63.0479 150.545C64.2604 147.843 66.0074 145.363 68.1064 143.204C70.2476 141.088 72.7505 139.306 75.5032 137.999C78.2584 136.696 81.2617 135.92 84.3056 135.603C85.0663 135.515 85.8344 135.522 86.5992 135.481L88.8961 135.584C89.2806 135.588 89.661 135.631 90.0397 135.696L91.1784 135.863C91.5572 135.924 91.94 135.965 92.3147 136.043L93.4315 136.323C96.3927 137.102 99.2727 138.299 101.797 140.045C104.316 141.784 106.573 143.902 108.371 146.359C112.072 151.215 113.751 157.419 113.364 163.307Z" fill="#4F8CBA"/>
<path d="M70.7915 158.912C69.1897 155.88 66.7735 153.393 63.9089 151.771C62.4758 150.964 60.9356 150.375 59.3532 150.012C57.7684 149.657 56.1382 149.553 54.5323 149.663C51.3213 149.899 48.2093 151.095 45.7007 153.078C43.1913 155.056 41.2643 157.772 40.291 160.832L39.8612 162.183L38.7362 161.382C37.2536 160.327 35.4855 159.72 33.6404 159.6C31.7928 159.45 29.929 159.836 28.2307 160.631C26.5526 161.462 25.0521 162.725 23.9742 164.326C22.8655 165.91 22.2289 167.825 22.0277 169.821C21.8915 167.829 22.2508 165.72 23.2581 163.897C24.2062 162.039 25.7423 160.489 27.5607 159.387C29.4026 158.319 31.56 157.759 33.7166 157.79C35.87 157.819 38.0558 158.484 39.8839 159.682L38.3291 160.233C39.3526 156.754 41.4898 153.595 44.3722 151.378C45.8102 150.268 47.4186 149.38 49.1226 148.757C50.8298 148.141 52.6344 147.816 54.435 147.753C58.0385 147.622 61.6655 148.681 64.5756 150.708C67.5019 152.71 69.729 155.648 70.7915 158.912Z" fill="#4F8CBA"/>
<path d="M341.766 372.253C343.067 368.797 344.802 365.465 346.915 362.341C349.022 359.208 351.585 356.36 354.38 353.728C360.029 348.529 366.954 344.417 374.615 342.215C378.416 341.029 382.428 340.458 386.434 340.337C390.449 340.183 394.449 340.531 398.352 341.333C402.252 342.125 406.063 343.28 409.685 344.827C413.316 346.403 416.745 348.186 420.017 350.549L418.108 350.612C420.507 348.652 423.091 346.907 425.815 345.403C428.536 343.891 431.427 342.677 434.385 341.697C440.316 339.768 446.611 338.944 452.766 339.358C449.691 339.563 446.652 339.993 443.689 340.667C440.721 341.315 437.842 342.247 435.063 343.366C432.282 344.483 429.64 345.869 427.124 347.416C424.611 348.97 422.257 350.741 420.094 352.692L419.234 353.467L418.185 352.755C415.239 350.758 411.802 349.071 408.363 347.711C404.905 346.325 401.314 345.24 397.646 344.543C390.308 343.155 382.705 343.174 375.528 345.162C371.938 346.111 368.441 347.447 365.161 349.187C361.876 350.909 358.724 352.913 355.867 355.274C353.013 357.628 350.325 360.204 347.971 363.059C345.641 365.925 343.547 368.988 341.766 372.253Z" fill="#4F8CBA"/>
<path d="M366.766 395.362C364.296 390.42 360.99 385.887 356.881 382.141C352.771 378.408 348.004 375.334 342.77 373.306C332.377 369.056 320.345 368.981 309.892 372.607C304.669 374.453 299.796 377.182 295.66 380.706C291.523 384.222 288.104 388.474 285.612 393.164C283.116 397.858 281.642 403.011 281.172 408.249C280.608 413.491 281.276 418.829 282.893 423.878L283.626 426.168L281.202 425.651C276.991 424.752 272.625 424.489 268.299 424.79C263.979 425.1 259.661 425.908 255.589 427.406C251.515 428.882 247.617 430.867 244.11 433.387C240.606 435.908 237.456 438.898 234.766 442.253C237.11 438.674 240.041 435.412 243.431 432.602C246.845 429.822 250.719 427.512 254.884 425.781C259.047 424.042 263.523 422.95 268.072 422.469C272.625 422.004 277.26 422.131 281.788 422.944L280.098 424.716C276.272 414.018 277.177 401.887 282.498 391.718C287.744 381.506 297.432 373.427 308.778 369.709C320.101 365.981 332.963 366.465 343.68 371.386C354.478 376.117 362.906 385.053 366.766 395.362Z" fill="#4F8CBA"/>
<path d="M281.766 424.253C279.814 418.575 276.829 413.244 272.752 408.78C268.631 404.381 263.748 400.597 258.152 398.121C252.62 395.568 246.559 394.06 240.433 393.897C234.319 393.568 228.165 394.579 222.498 396.668L221.076 397.193L220.39 395.887C216.084 387.686 209.085 380.848 200.714 376.295C192.328 371.73 182.475 369.68 172.777 370.321C167.936 370.689 163.133 371.662 158.584 373.325C154.038 374.99 149.727 377.267 145.847 380.105C141.984 382.958 138.492 386.308 135.608 390.112C132.725 393.916 130.429 398.137 128.766 402.601C129.973 398.005 131.997 393.582 134.685 389.531C137.367 385.48 140.691 381.765 144.59 378.65C152.334 372.357 162.241 368.39 172.524 367.451C177.665 367.034 182.877 367.265 187.951 368.26C193.016 369.282 197.909 371.052 202.42 373.455C211.478 378.23 218.839 385.724 223.405 394.488L221.298 393.706C227.453 391.565 234.08 390.62 240.595 391.089C247.123 391.454 253.51 393.262 259.226 396.155C264.966 399.024 269.92 403.165 273.808 407.979C277.673 412.82 280.397 418.421 281.766 424.253Z" fill="#4F8CBA"/>
<path d="M147.766 378.253C144.908 373.604 141.735 369.192 138.143 365.125C134.548 361.057 130.48 357.424 126.184 354.108C121.871 350.799 117.151 348.015 112.251 345.632C107.37 343.194 102.168 341.383 96.8638 340.027C91.5779 338.567 86.0954 337.835 80.6076 337.51C75.1119 337.096 69.573 337.406 64.1009 338.104C53.1476 339.575 42.4932 343.208 32.7656 348.645C41.6751 342.033 52.4016 337.518 63.6525 335.511C66.4633 334.996 69.3081 334.619 72.17 334.449C73.599 334.33 75.0332 334.302 76.4662 334.254C77.9004 334.246 79.3346 334.302 80.7701 334.324C86.4992 334.564 92.236 335.304 97.7802 336.775C108.892 339.613 119.292 344.92 127.934 352.091C132.233 355.699 136.148 359.709 139.499 364.108C142.784 368.547 145.605 373.276 147.766 378.253Z" fill="#4F8CBA"/>
<path d="M467.323 86.2117C466.147 83.3649 463.364 81.3632 460.117 81.3632C459.154 81.3632 458.236 81.5479 457.384 81.8698C455.342 79.5003 452.335 78 448.978 78C444.613 78 440.837 80.5359 439.01 84.2255C438.632 84.148 438.24 84.1067 437.84 84.1067C434.615 84.1067 432 86.7453 432 90H437.868H443.679H452.348H460.088H462.641H467.884H472C471.524 87.8342 469.613 86.2129 467.323 86.2117Z" fill="#FFFEF7" fill-opacity="0.5"/>
<path d="M124.245 32.8254C122.605 28.8924 118.726 26.1274 114.199 26.1274C112.856 26.1274 111.576 26.3824 110.389 26.8264C107.541 23.5534 103.349 21.4814 98.67 21.4814C92.584 21.4814 87.319 24.9844 84.773 30.0824C84.246 29.9754 83.7 29.9184 83.141 29.9184C78.645 29.9184 75 33.5634 75 38.0594H83.18H91.282H103.369H114.16H117.719H125.029H130.767C130.102 35.0664 127.437 32.8274 124.245 32.8254Z" fill="#FFFEF7"/>
<defs>
<filter id="filter0_d_980_5321" x="134" y="0" width="239.406" height="341.658" filterUnits="userSpaceOnUse" color-interpolation-filters="sRGB">
<feFlood flood-opacity="0" result="BackgroundImageFix"/>
<feColorMatrix in="SourceAlpha" type="matrix" values="0 0 0 0 0 0 0 0 0 0 0 0 0 0 0 0 0 0 127 0" result="hardAlpha"/>
<feOffset dy="4"/>
<feGaussianBlur stdDeviation="2"/>
<feComposite in2="hardAlpha" operator="out"/>
<feColorMatrix type="matrix" values="0 0 0 0 0 0 0 0 0 0 0 0 0 0 0 0 0 0 0.25 0"/>
<feBlend mode="normal" in2="BackgroundImageFix" result="effect1_dropShadow_980_5321"/>
<feBlend mode="normal" in="SourceGraphic" in2="effect1_dropShadow_980_5321" result="shape"/>
</filter>
<filter id="filter1_d_980_5321" x="117" y="196.481" width="265" height="265" filterUnits="userSpaceOnUse" color-interpolation-filters="sRGB">
<feFlood flood-opacity="0" result="BackgroundImageFix"/>
<feColorMatrix in="SourceAlpha" type="matrix" values="0 0 0 0 0 0 0 0 0 0 0 0 0 0 0 0 0 0 127 0" result="hardAlpha"/>
<feOffset dy="12"/>
<feGaussianBlur stdDeviation="15.5"/>
<feComposite in2="hardAlpha" operator="out"/>
<feColorMatrix type="matrix" values="0 0 0 0 0.15 0 0 0 0 0.15 0 0 0 0 0.15 0 0 0 0.1 0"/>
<feBlend mode="normal" in2="BackgroundImageFix" result="effect1_dropShadow_980_5321"/>
<feBlend mode="normal" in="SourceGraphic" in2="effect1_dropShadow_980_5321" result="shape"/>
</filter>
<filter id="filter2_d_980_5321" x="167.08" y="272.985" width="75.7828" height="87.3353" filterUnits="userSpaceOnUse" color-interpolation-filters="sRGB">
<feFlood flood-opacity="0" result="BackgroundImageFix"/>
<feColorMatrix in="SourceAlpha" type="matrix" values="0 0 0 0 0 0 0 0 0 0 0 0 0 0 0 0 0 0 127 0" result="hardAlpha"/>
<feOffset dx="1.3"/>
<feGaussianBlur stdDeviation="2.61"/>
<feColorMatrix type="matrix" values="0 0 0 0 0.137255 0 0 0 0 0.121569 0 0 0 0 0.12549 0 0 0 0.15 0"/>
<feBlend mode="normal" in2="BackgroundImageFix" result="effect1_dropShadow_980_5321"/>
<feBlend mode="normal" in="SourceGraphic" in2="effect1_dropShadow_980_5321" result="shape"/>
</filter>
<linearGradient id="paint0_linear_980_5321" x1="152.159" y1="81.9136" x2="218.048" y2="30.6143" gradientUnits="userSpaceOnUse">
<stop stop-color="#2BAAE2"/>
<stop offset="1" stop-color="#253E90"/>
</linearGradient>
<linearGradient id="paint1_linear_980_5321" x1="220.172" y1="157.12" x2="288.985" y2="116.819" gradientUnits="userSpaceOnUse">
<stop stop-color="#2BAAE2"/>
<stop offset="1" stop-color="#253E90"/>
</linearGradient>
<linearGradient id="paint2_linear_980_5321" x1="257.816" y1="73.1411" x2="304.094" y2="45.8702" gradientUnits="userSpaceOnUse">
<stop stop-color="#2BAAE2"/>
<stop offset="1" stop-color="#253E90"/>
</linearGradient>
<linearGradient id="paint3_linear_980_5321" x1="313.751" y1="28.1235" x2="359.812" y2="0.385138" gradientUnits="userSpaceOnUse">
<stop stop-color="#2BAAE2"/>
<stop offset="1" stop-color="#253E90"/>
</linearGradient>
<linearGradient id="paint4_linear_980_5321" x1="184.572" y1="142.38" x2="217.086" y2="124.673" gradientUnits="userSpaceOnUse">
<stop stop-color="#2BAAE2"/>
<stop offset="1" stop-color="#253E90"/>
</linearGradient>
<linearGradient id="paint5_linear_980_5321" x1="140.17" y1="234.528" x2="211.855" y2="219.964" gradientUnits="userSpaceOnUse">
<stop stop-color="#2BAAE2"/>
<stop offset="1" stop-color="#253E90"/>
</linearGradient>
<linearGradient id="paint6_linear_980_5321" x1="306.934" y1="289.486" x2="216.64" y2="342.753" gradientUnits="userSpaceOnUse">
<stop offset="0.06" stop-color="#2BAAE2"/>
<stop offset="1" stop-color="#3C59A8"/>
</linearGradient>
<linearGradient id="paint7_linear_980_5321" x1="200.153" y1="293.148" x2="214.603" y2="454.13" gradientUnits="userSpaceOnUse">
<stop offset="0.06" stop-color="#2BAAE2"/>
<stop offset="1" stop-color="#3C59A8"/>
</linearGradient>
<linearGradient id="paint8_linear_980_5321" x1="260.594" y1="717.393" x2="289.167" y2="-528.952" gradientUnits="userSpaceOnUse">
<stop stop-color="#0B122A"/>
<stop offset="1" stop-color="#3457C6"/>
</linearGradient>
</defs>
</svg>
