<svg width="14" height="15" viewBox="0 0 14 15" fill="none" xmlns="http://www.w3.org/2000/svg">
<path fill-rule="evenodd" clip-rule="evenodd" d="M7 0.89183C6.44772 0.89183 6 1.33955 6 1.89183C6 2.44412 6.44772 2.89183 7 2.89183L13 2.89183C13.5523 2.89183 14 2.44412 14 1.89183C14 1.33955 13.5523 0.89183 13 0.89183L7 0.89183ZM1 4.89183C0.447715 4.89183 0 5.33955 0 5.89183C0 6.44412 0.447715 6.89183 1 6.89183L13 6.89183C13.5523 6.89183 14 6.44412 14 5.89183C14 5.33955 13.5523 4.89183 13 4.89183L1 4.89183ZM0 9.89183C0 9.33955 0.447715 8.89183 1 8.89183H13C13.5523 8.89183 14 9.33955 14 9.89183C14 10.4441 13.5523 10.8918 13 10.8918H1C0.447715 10.8918 0 10.4441 0 9.89183ZM4 12.8918C3.44772 12.8918 3 13.3395 3 13.8918C3 14.4441 3.44772 14.8918 4 14.8918H13C13.5523 14.8918 14 14.4441 14 13.8918C14 13.3395 13.5523 12.8918 13 12.8918H4Z" fill="white"/>
</svg>
