<svg width="85" height="85" viewBox="0 0 85 85" fill="none" xmlns="http://www.w3.org/2000/svg">
<rect width="85" height="85" rx="42.5" fill="white"/>
<g clip-path="url(#clip0_994_16185)">
<path d="M67.9863 39.4563C67.131 43.8399 65.2548 48.0607 62.5841 51.6974C62.2794 52.1123 61.6322 52.0198 61.4543 51.5368C61.1148 50.615 61.3272 51.0322 54.0841 40.6997C53.8218 40.3255 54.0183 39.8089 54.461 39.6953C55.7484 39.3645 56.8801 38.754 57.8246 37.8679C58.1746 37.5407 58.1919 36.9925 57.8647 36.6425C57.5375 36.2937 56.9893 36.2763 56.6393 36.6035C55.6071 37.5714 54.3009 38.1151 52.7387 38.2327C52.5114 38.2498 52.292 38.1434 52.1611 37.9568L49.5178 34.1853C48.9205 33.3297 47.7312 34.019 47.7583 34.9762C47.7667 35.274 47.5988 35.562 47.3216 35.7205C38.9974 40.4809 39.5889 40.1492 39.4222 40.2309C38.1794 40.8391 36.7288 40.9344 35.4069 40.5007C31.7085 39.2758 30.596 34.7561 33.0753 31.8732C33.3696 31.5318 32.7144 32.1298 41.2186 24.7105C42.1521 23.8961 42.8696 23.2334 44.171 22.4082C54.805 15.5816 71.6593 20.6018 67.9863 39.4563Z" fill="url(#paint0_linear_994_16185)"/>
<path d="M58.0084 56.7888C57.6964 56.9588 57.3106 56.9149 57.0393 56.6854L43.0591 44.8638C42.6906 44.553 42.1668 44.619 41.8705 44.9288C41.5444 45.2696 41.5507 45.8618 41.9388 46.1877C44.6105 48.4312 36.9141 41.9384 54.3757 56.7037C54.6386 56.9259 54.7479 57.2839 54.6481 57.6133C54.3285 58.6677 53.5787 59.5458 52.6317 60.0407C52.3303 60.1983 51.9637 60.1591 51.6975 59.9475C47.8229 56.8674 38.4377 49.385 38.2465 49.28C37.922 49.1014 37.4982 49.1508 37.2216 49.4274C36.8479 49.8015 36.8932 50.4033 37.2931 50.721C50.0121 60.8266 49.4509 60.3698 49.4461 60.3886C49.268 61.5332 48.5331 62.5892 47.5459 63.182C47.2291 63.3722 46.8262 63.3426 46.5419 63.1065L34.6179 53.203C34.4501 53.0634 34.2357 52.9914 34.0112 53.0058C33.9781 53.0058 33.8917 53.0182 33.8519 53.0307C33.1802 53.1723 32.9587 54.0773 33.5095 54.5367L43.2607 62.6344C43.567 62.8887 43.6625 63.3199 43.4885 63.678C42.7049 65.2906 40.6745 66.1811 38.7708 64.8501C33.2917 61.0183 20.4744 54.4029 17.1397 39.4789C13.1115 21.4491 28.9906 15.7876 40.0497 21.8836C40.5779 22.1747 40.6575 22.9016 40.2028 23.2977C37.9444 25.2646 32.226 30.2509 32.1261 30.3508C29.4846 32.9923 29.3005 37.2481 31.7057 40.0401C33.8986 42.5862 37.6326 43.266 40.5987 41.5678C48.8535 36.8416 48.2448 37.1947 48.3906 37.0923C48.7795 36.8189 49.3177 36.9204 49.5906 37.3096C60.027 52.202 59.6085 51.4997 59.8559 52.1932C60.5102 54.0002 59.5708 55.9377 58.0084 56.7888Z" fill="url(#paint1_linear_994_16185)"/>
</g>
<defs>
<linearGradient id="paint0_linear_994_16185" x1="32.9138" y1="35.7321" x2="60.6823" y2="17.2029" gradientUnits="userSpaceOnUse">
<stop stop-color="#2BAAE2"/>
<stop offset="1" stop-color="#253E90"/>
</linearGradient>
<linearGradient id="paint1_linear_994_16185" x1="17.8831" y1="42.5099" x2="54.1469" y2="22.259" gradientUnits="userSpaceOnUse">
<stop stop-color="#2BAAE2"/>
<stop offset="1" stop-color="#253E90"/>
</linearGradient>
<clipPath id="clip0_994_16185">
<rect width="52" height="52" fill="white" transform="translate(16.5 16.5)"/>
</clipPath>
</defs>
</svg>
