<svg width="85" height="84" viewBox="0 0 85 84" fill="none" xmlns="http://www.w3.org/2000/svg">
<g clip-path="url(#clip0_823_1251)">
<path d="M28.9359 9.22612C28.8312 9.2264 28.7278 9.2032 28.6333 9.15823C28.5387 9.11326 28.4555 9.04765 28.3897 8.96625C28.3238 8.88484 28.2771 8.78971 28.2529 8.68786C28.2287 8.586 28.2277 8.48002 28.2499 8.37772L28.3171 8.06552L26.4691 9.13092C26.3268 9.21208 26.1605 9.24076 25.9992 9.21196C25.838 9.18316 25.6919 9.0987 25.5865 8.9733C25.481 8.84789 25.4229 8.68948 25.4223 8.52565C25.4216 8.36183 25.4785 8.20296 25.5829 8.07672L25.7033 7.93672L23.6299 9.12952C23.4922 9.20915 23.3315 9.23951 23.1742 9.21559C23.0169 9.19167 22.8725 9.1149 22.7647 8.99792C22.657 8.88068 22.5925 8.73026 22.5818 8.57144C22.5712 8.41263 22.6149 8.25492 22.7059 8.12432L24.5483 5.48392L18.2357 9.12392C18.0907 9.20709 17.9208 9.23566 17.7566 9.20446C17.5924 9.17326 17.4448 9.08435 17.3405 8.9538C17.2362 8.82325 17.182 8.65967 17.1877 8.49265C17.1935 8.32562 17.2588 8.16617 17.3719 8.04312L20.4099 4.76012L13.2489 8.88732C13.1043 8.97145 12.9344 9.00104 12.7699 8.97074C12.6055 8.94043 12.4573 8.85223 12.3522 8.72211C12.2471 8.59198 12.1921 8.42854 12.1971 8.26136C12.2021 8.09418 12.2668 7.93432 12.3795 7.81072L15.2957 4.59072L14.9793 4.77272C14.8193 4.8564 14.6332 4.87504 14.4598 4.82474C14.2864 4.77443 14.1391 4.65908 14.0488 4.50277C13.9584 4.34646 13.932 4.16128 13.9749 3.98592C14.0179 3.81056 14.1269 3.65857 14.2793 3.56172L18.4499 1.15092C18.5944 1.06678 18.7643 1.03719 18.9288 1.0675C19.0933 1.0978 19.2415 1.186 19.3466 1.31612C19.4517 1.44625 19.5067 1.6097 19.5017 1.77688C19.4967 1.94406 19.432 2.10392 19.3193 2.22752L16.4045 5.44752L23.6845 1.24752C23.8293 1.16528 23.9986 1.13735 24.1622 1.16875C24.3257 1.20014 24.4727 1.28881 24.5767 1.41882C24.6808 1.54883 24.7351 1.71167 24.7299 1.87811C24.7246 2.04454 24.6603 2.20367 24.5483 2.32692L21.5159 5.61832L26.5699 2.69792C26.7078 2.61841 26.8686 2.58826 27.0259 2.61245C27.1832 2.63663 27.3276 2.7137 27.4353 2.83095C27.5429 2.9482 27.6073 3.09863 27.618 3.25744C27.6287 3.41624 27.5849 3.57393 27.4939 3.70452L25.6543 6.34492L28.4081 4.76012C28.5504 4.67811 28.7171 4.64877 28.8788 4.67723C29.0406 4.70569 29.1872 4.79013 29.293 4.91579C29.3988 5.04145 29.4571 5.20031 29.4576 5.36457C29.458 5.52883 29.4007 5.68804 29.2957 5.81432L29.1375 6.00472C29.254 5.97012 29.3776 5.96647 29.4959 5.99412C29.6143 6.02178 29.7235 6.07979 29.8126 6.16244C29.9018 6.24509 29.9678 6.34953 30.0044 6.46548C30.0409 6.58143 30.0466 6.7049 30.0209 6.82372L29.8725 7.51112C30.0099 7.57026 30.1244 7.67246 30.1987 7.80232C30.2915 7.96309 30.3167 8.15415 30.2686 8.33348C30.2206 8.5128 30.1033 8.66569 29.9425 8.75852L29.2859 9.13652C29.1791 9.19649 29.0584 9.22739 28.9359 9.22612Z" fill="#6D4E45"/>
<path d="M10.642 27.2735C10.4937 27.2734 10.3493 27.2262 10.2296 27.1387C10.1098 27.0512 10.021 26.9279 9.97583 26.7867C9.93067 26.6454 9.93153 26.4935 9.97828 26.3528C10.025 26.2121 10.1153 26.0898 10.236 26.0037L20.6044 18.6201L6.10877 26.9921C5.95239 27.0804 5.76806 27.1052 5.5939 27.0614C5.41974 27.0176 5.26907 26.9086 5.17305 26.7568C5.07703 26.6051 5.04301 26.4222 5.07803 26.2461C5.11304 26.0699 5.21441 25.914 5.36117 25.8105L15.8122 18.6201L4.84177 24.9523C4.68538 25.0373 4.5025 25.0595 4.33033 25.0144C4.15816 24.9693 4.00962 24.8603 3.91493 24.7097C3.82023 24.559 3.78649 24.3779 3.82057 24.2032C3.85465 24.0285 3.95398 23.8734 4.09837 23.7693L12.2646 18.2141L4.84457 22.4981C4.68796 22.584 4.50445 22.6067 4.33161 22.5617C4.15878 22.5167 4.00969 22.4073 3.91487 22.2559C3.82005 22.1046 3.78667 21.9227 3.82157 21.7475C3.85646 21.5724 3.95699 21.4172 4.10257 21.3137L9.37077 17.7423L4.94817 20.2917C4.79452 20.3766 4.61457 20.4007 4.44401 20.3591C4.27344 20.3176 4.12471 20.2135 4.02729 20.0675C3.92987 19.9214 3.89088 19.7441 3.91805 19.5707C3.94522 19.3973 4.03656 19.2404 4.17397 19.1311L12.154 13.0117L5.93517 16.6027C5.78612 16.6869 5.61139 16.7135 5.44403 16.6776C5.27666 16.6417 5.12826 16.5457 5.02688 16.4078C4.9255 16.2698 4.87818 16.0995 4.89386 15.9291C4.90954 15.7586 4.98713 15.5998 5.11197 15.4827L9.11877 11.8035C8.95168 11.885 8.75906 11.8968 8.58329 11.8363C8.40751 11.7758 8.26297 11.6479 8.18147 11.4808C8.09997 11.3137 8.08818 11.1211 8.1487 10.9453C8.20922 10.7695 8.33708 10.625 8.50417 10.5435L13.9166 7.4201C14.0656 7.33592 14.2403 7.30926 14.4077 7.34518C14.5751 7.3811 14.7235 7.4771 14.8249 7.61503C14.9262 7.75296 14.9736 7.92326 14.9579 8.09372C14.9422 8.26417 14.8646 8.42298 14.7398 8.5401L10.7498 12.2095L20.7458 6.4401C20.8994 6.3552 21.0794 6.33112 21.2499 6.37266C21.4205 6.41419 21.5692 6.51829 21.6666 6.66433C21.7641 6.81037 21.8031 6.98768 21.7759 7.16112C21.7487 7.33455 21.6574 7.49145 21.52 7.6007L13.54 13.7201L25.44 6.8517C25.5966 6.76585 25.7801 6.7431 25.9529 6.78813C26.1258 6.83315 26.2748 6.94254 26.3697 7.09389C26.4645 7.24524 26.4979 7.42712 26.463 7.60228C26.4281 7.77744 26.3276 7.93264 26.182 8.0361L20.9194 11.6005L28.009 7.5069C28.1657 7.41876 28.3503 7.39431 28.5246 7.43862C28.6989 7.48294 28.8494 7.59261 28.945 7.7449C29.0406 7.8972 29.0739 8.08044 29.038 8.25664C29.0022 8.43284 28.8999 8.58848 28.7524 8.6913L20.5848 14.2479L30.4408 8.5569C30.5975 8.46402 30.7843 8.43591 30.9614 8.47853C31.1385 8.52115 31.2921 8.63114 31.3894 8.78515C31.4867 8.93916 31.5202 9.12504 31.4826 9.30332C31.4451 9.48159 31.3395 9.63821 31.1884 9.7399L20.7388 16.9303L32.6584 10.0479C32.8141 9.95909 32.9979 9.93338 33.172 9.97608C33.346 10.0188 33.4971 10.1266 33.594 10.2774C33.691 10.4282 33.7264 10.6104 33.6929 10.7865C33.6595 10.9626 33.5598 11.1191 33.4144 11.2239L23.0446 18.6047L34.5498 11.9631C34.7051 11.8739 34.8887 11.8477 35.0628 11.8899C35.2369 11.932 35.3882 12.0393 35.4857 12.1896C35.5831 12.3399 35.6191 12.5218 35.5864 12.6979C35.5538 12.8741 35.4548 13.0309 35.31 13.1363L27.0934 19.0639L35.8882 13.9861C36.0442 13.8976 36.2283 13.8723 36.4024 13.9156C36.5765 13.9588 36.7273 14.0673 36.8238 14.2185C36.9202 14.3698 36.955 14.5523 36.9207 14.7284C36.8865 14.9045 36.786 15.0608 36.64 15.1649L32.4498 18.1119L36.668 15.6759C36.823 15.5863 37.0064 15.5596 37.1806 15.6011C37.3547 15.6427 37.5063 15.7494 37.6042 15.8993C37.7021 16.0491 37.7388 16.2308 37.7069 16.407C37.6749 16.5831 37.5767 16.7404 37.4324 16.8463L33.7196 19.5707L37.2518 17.5309C37.4045 17.4442 37.5843 17.418 37.7554 17.4577C37.9265 17.4973 38.0764 17.5998 38.1755 17.7449C38.2745 17.8899 38.3154 18.0669 38.2901 18.2407C38.2647 18.4145 38.1749 18.5724 38.0386 18.6831L34.6898 21.3697L37.6172 19.6799C37.7688 19.593 37.9474 19.566 38.1179 19.6041C38.2885 19.6422 38.4386 19.7427 38.5388 19.8859C38.639 20.0291 38.682 20.2045 38.6594 20.3778C38.6367 20.5511 38.5501 20.7096 38.4166 20.8223L37.1566 21.8667L37.655 21.5797C37.7923 21.5003 37.9526 21.47 38.1095 21.4936C38.2664 21.5172 38.4106 21.5935 38.5185 21.7098C38.6264 21.8262 38.6915 21.9757 38.7033 22.1339C38.715 22.2922 38.6727 22.4497 38.5832 22.5807L37.3232 24.4217C37.4859 24.3446 37.6721 24.3331 37.843 24.3897C38.014 24.4463 38.1566 24.5666 38.2411 24.7256C38.3256 24.8846 38.3457 25.07 38.297 25.2434C38.2483 25.4168 38.1347 25.5647 37.9798 25.6565L35.3758 27.1601C35.2384 27.2395 35.0781 27.2698 34.9212 27.2462C34.7643 27.2226 34.6201 27.1463 34.5122 27.03C34.4044 26.9136 34.3392 26.7641 34.3275 26.6059C34.3157 26.4476 34.3581 26.2901 34.4476 26.1591L35.7006 24.3223L30.781 27.1629C30.6294 27.2498 30.4507 27.2768 30.2802 27.2387C30.1097 27.2006 29.9596 27.1001 29.8594 26.9569C29.7592 26.8137 29.7162 26.6383 29.7388 26.465C29.7614 26.2917 29.848 26.1332 29.9816 26.0205L31.2416 24.9775L27.4504 27.1657C27.2978 27.252 27.1184 27.2779 26.9477 27.2383C26.777 27.1987 26.6273 27.0966 26.5282 26.952C26.4292 26.8074 26.388 26.6309 26.4128 26.4574C26.4376 26.2839 26.5266 26.126 26.6622 26.0149L30.0152 23.3255L23.3498 27.1713C23.1948 27.2609 23.0113 27.2876 22.8372 27.2461C22.663 27.2045 22.5114 27.0978 22.4135 26.948C22.3156 26.7981 22.2789 26.6164 22.3109 26.4402C22.3428 26.2641 22.4411 26.1068 22.5854 26.0009L26.294 23.2807L19.5516 27.1741C19.3955 27.2626 19.2115 27.2879 19.0374 27.2446C18.8633 27.2014 18.7124 27.0929 18.616 26.9417C18.5195 26.7904 18.4848 26.6079 18.519 26.4318C18.5532 26.2557 18.6537 26.0994 18.7998 25.9953L22.99 23.0553L15.8416 27.1825C15.6862 27.2717 15.5026 27.2979 15.3285 27.2557C15.1544 27.2136 15.0031 27.1064 14.9057 26.956C14.8083 26.8057 14.7722 26.6238 14.8049 26.4477C14.8376 26.2716 14.9365 26.1147 15.0814 26.0093L23.3022 20.0789L10.992 27.1797C10.8858 27.2417 10.7649 27.2741 10.642 27.2735Z" fill="#6D4E45"/>
<path d="M58.71 83.2581C58.5588 83.2583 58.4116 83.2096 58.2904 83.1192C58.1692 83.0288 58.0806 82.9016 58.0377 82.7566C57.9948 82.6116 58 82.4566 58.0526 82.3149C58.1051 82.1731 58.2022 82.0522 58.3292 81.9701L58.6092 81.7951L56.2292 83.1629C56.0716 83.2497 55.8867 83.2725 55.7128 83.2266C55.5388 83.1806 55.3893 83.0695 55.2951 82.9163C55.2009 82.763 55.1693 82.5794 55.2069 82.4035C55.2445 82.2276 55.3484 82.0729 55.497 81.9715L60.7512 78.5401L52.9266 83.0579C52.7685 83.1479 52.5815 83.1728 52.4054 83.1274C52.2292 83.0819 52.0777 82.9697 51.9829 82.8144C51.8881 82.6592 51.8574 82.4731 51.8974 82.2957C51.9374 82.1182 52.0449 81.9633 52.1972 81.8637L57.9302 78.1831L51.0702 82.1381C50.9124 82.2278 50.7261 82.2527 50.5504 82.2077C50.3746 82.1626 50.2233 82.0511 50.1281 81.8966C50.033 81.7421 50.0016 81.5568 50.0405 81.3796C50.0793 81.2024 50.1855 81.0472 50.3366 80.9467L61.0102 73.9635L49.8858 80.3881C49.7287 80.4762 49.5437 80.5003 49.3693 80.4555C49.1949 80.4107 49.0444 80.3004 48.9492 80.1475C48.854 79.9946 48.8214 79.811 48.8582 79.6347C48.8949 79.4584 48.9982 79.303 49.1466 79.2009L64.044 69.1937L49.6422 77.5069C49.4842 77.5903 49.3004 77.6103 49.1283 77.5626C48.9562 77.5149 48.8088 77.4033 48.7163 77.2505C48.6238 77.0977 48.5932 76.9154 48.6308 76.7408C48.6684 76.5662 48.7712 76.4125 48.9184 76.3113L52.0236 74.3401L49.6436 75.7135C49.4858 75.8032 49.2995 75.8281 49.1238 75.7831C48.948 75.738 48.7967 75.6265 48.7015 75.472C48.6064 75.3175 48.575 75.1322 48.6139 74.955C48.6527 74.7778 48.7589 74.6226 48.91 74.5221L59.0502 67.8595L49.6408 73.2915C49.4835 73.3826 49.297 73.409 49.1207 73.3652C48.9444 73.3213 48.792 73.2106 48.6958 73.0564C48.5997 72.9022 48.5672 72.7167 48.6053 72.539C48.6435 72.3613 48.7492 72.2054 48.9002 72.1043L60.7792 64.1117L49.6422 70.5419C49.4841 70.6319 49.2971 70.6568 49.121 70.6114C48.9448 70.5659 48.7933 70.4537 48.6985 70.2984C48.6037 70.1432 48.573 69.9571 48.613 69.7797C48.653 69.6022 48.7605 69.4473 48.9128 69.3477L53.5328 66.3545L49.6422 68.6001C49.486 68.6874 49.3024 68.7115 49.129 68.6677C48.9556 68.6238 48.8055 68.5152 48.7097 68.3641C48.6138 68.2131 48.5794 68.0311 48.6136 67.8555C48.6477 67.6799 48.7477 67.5241 48.8932 67.4199L60.1996 59.5547L49.6422 65.6489C49.4844 65.7386 49.2981 65.7635 49.1224 65.7185C48.9466 65.6734 48.7953 65.5619 48.7001 65.4074C48.605 65.2529 48.5736 65.0676 48.6125 64.8904C48.6513 64.7132 48.7575 64.558 48.9086 64.4575L51.5686 62.7117L49.6436 63.8233C49.4885 63.9129 49.3051 63.9396 49.131 63.8981C48.9568 63.8565 48.8052 63.7499 48.7073 63.6C48.6094 63.4501 48.5727 63.2684 48.6046 63.0922C48.6366 62.9161 48.7348 62.7589 48.8792 62.6529L57.8182 56.0967L49.6422 60.8161C49.4879 60.9045 49.3057 60.9309 49.1327 60.8899C48.9597 60.8488 48.8087 60.7435 48.7105 60.5952C48.6124 60.447 48.5743 60.2669 48.604 60.0916C48.6338 59.9163 48.7292 59.7589 48.8708 59.6513L54.552 55.3715L47.6346 59.3601C47.4838 59.4454 47.3067 59.4718 47.1377 59.4341C46.9686 59.3965 46.8194 59.2974 46.7191 59.1562C46.6188 59.015 46.5745 58.8416 46.5946 58.6695C46.6147 58.4974 46.6979 58.339 46.8282 58.2247L52.4604 53.3793L42.0906 59.3643C41.9366 59.4533 41.7545 59.4803 41.5814 59.4399C41.4082 59.3995 41.2569 59.2947 41.1582 59.1468C41.0595 58.9989 41.0207 58.819 41.0499 58.6436C41.079 58.4681 41.1738 58.3104 41.315 58.2023L45.375 55.0999L38.235 59.2243C38.0807 59.3109 37.8995 59.3358 37.7276 59.2942C37.5557 59.2526 37.406 59.1474 37.3084 58.9999C37.2109 58.8524 37.1728 58.6734 37.2019 58.4989C37.2309 58.3245 37.3249 58.1675 37.465 58.0595L40.9356 55.4527L36.6068 57.9601C36.4557 58.046 36.278 58.0726 36.1084 58.0347C35.9387 57.9969 35.7893 57.8973 35.689 57.7553C35.5888 57.6133 35.5449 57.4391 35.566 57.2666C35.5871 57.0941 35.6716 56.9356 35.8032 56.8219L39.705 53.5039L34.637 56.4201C34.4904 56.5046 34.3182 56.5332 34.1522 56.5006C33.9862 56.468 33.8376 56.3763 33.734 56.2426C33.6303 56.1089 33.5786 55.9422 33.5884 55.7733C33.5982 55.6044 33.6688 55.4448 33.7872 55.3239L36.8546 52.1837L32.4502 54.7289C32.3147 54.8053 32.1576 54.8345 32.0038 54.8117C31.8499 54.789 31.708 54.7157 31.6005 54.6033C31.4929 54.4909 31.4259 54.346 31.4099 54.1912C31.3939 54.0365 31.4299 53.8809 31.5122 53.7489L33.223 51.1001L30.101 52.9019C29.9677 52.9779 29.8131 53.008 29.661 52.9875C29.5089 52.9671 29.3678 52.8973 29.2593 52.7888C29.1508 52.6803 29.081 52.5391 29.0605 52.3871C29.0401 52.235 29.0702 52.0804 29.1462 51.9471L29.716 50.9587L28.5022 51.6587C28.3652 51.7381 28.2053 51.7688 28.0487 51.7457C27.8921 51.7225 27.7479 51.647 27.6398 51.5313L26.1362 49.9213C25.9691 50.0026 25.7765 50.0142 25.6009 49.9536C25.4252 49.8929 25.2809 49.765 25.1996 49.5979C25.1182 49.4308 25.1066 49.2383 25.1673 49.0626C25.2279 48.887 25.3559 48.7426 25.523 48.6613L25.9248 48.4303C26.0614 48.3516 26.2207 48.3214 26.3767 48.3445C26.5327 48.3676 26.6764 48.4427 26.7844 48.5577L28.2824 50.1579L31.277 48.4401C31.4103 48.3635 31.5651 48.3329 31.7175 48.3531C31.87 48.3733 32.0115 48.4431 32.1203 48.5517C32.2291 48.6604 32.2991 48.8018 32.3195 48.9542C32.3399 49.1066 32.3096 49.2615 32.2332 49.3949L31.662 50.3749L35.0304 48.4401C35.1658 48.3637 35.3229 48.3345 35.4767 48.3573C35.6306 48.38 35.7725 48.4534 35.88 48.5657C35.9876 48.6781 36.0547 48.8231 36.0706 48.9778C36.0866 49.1325 36.0506 49.2881 35.9684 49.4201L34.2618 52.0675L40.5618 48.4359C40.7081 48.3525 40.8797 48.3246 41.0449 48.3575C41.2102 48.3904 41.3581 48.4817 41.4614 48.6148C41.5647 48.7479 41.6165 48.9138 41.6074 49.0821C41.5982 49.2503 41.5287 49.4096 41.4116 49.5307L38.3456 52.6723L45.6774 48.4401C45.8285 48.3542 46.0061 48.3276 46.1757 48.3655C46.3454 48.4033 46.4949 48.503 46.5951 48.6449C46.6953 48.7869 46.7392 48.9611 46.7181 49.1337C46.697 49.3062 46.6125 49.4647 46.481 49.5783L42.5806 52.8921L50.3002 48.4401C50.4544 48.3536 50.6356 48.3286 50.8075 48.3702C50.9794 48.4119 51.1292 48.517 51.2267 48.6645C51.3242 48.8121 51.3623 48.991 51.3332 49.1655C51.3042 49.3399 51.2102 49.4969 51.0702 49.6049L47.5996 52.2103L54.132 48.4401C54.2859 48.3512 54.468 48.3242 54.6411 48.3646C54.8143 48.405 54.9656 48.5097 55.0643 48.6576C55.163 48.8055 55.2018 48.9855 55.1726 49.1609C55.1435 49.3363 55.0488 49.494 54.9076 49.6021L50.8476 52.7045L58.2284 48.4401C58.3791 48.3548 58.5562 48.3284 58.7253 48.3661C58.8943 48.4038 59.0435 48.5028 59.1438 48.644C59.2441 48.7853 59.2885 48.9587 59.2683 49.1307C59.2482 49.3028 59.165 49.4613 59.0348 49.5755L53.404 54.4181L63.764 48.4373C63.9182 48.3489 64.1004 48.3226 64.2734 48.3636C64.4465 48.4046 64.5974 48.5099 64.6956 48.6582C64.7938 48.8064 64.8318 48.9865 64.8021 49.1618C64.7723 49.3371 64.677 49.4946 64.5354 49.6021L58.857 53.8805L68.2104 48.4807C68.3654 48.3912 68.5488 48.3644 68.723 48.4059C68.8971 48.4475 69.0487 48.5542 69.1466 48.7041C69.2445 48.854 69.2812 49.0357 69.2493 49.2118C69.2173 49.388 69.1191 49.5452 68.9748 49.6511L60.0372 56.2045L72.0674 49.2605C72.2247 49.1749 72.4088 49.1529 72.5819 49.1989C72.755 49.245 72.9038 49.3556 72.9978 49.508C73.0918 49.6605 73.1238 49.8432 73.0872 50.0185C73.0505 50.1938 72.9481 50.3484 72.801 50.4505L70.141 52.1991L73.9028 50.0263C74.059 49.9366 74.2438 49.9107 74.4187 49.9538C74.5937 49.9969 74.7452 50.1058 74.8419 50.2579C74.9386 50.4099 74.9729 50.5933 74.9377 50.77C74.9026 50.9467 74.8006 51.1031 74.6532 51.2065L63.3412 59.0801L76.3682 51.5593C76.5265 51.4624 76.7169 51.4324 76.8974 51.4758C77.0779 51.5193 77.2337 51.6327 77.3307 51.791C77.4276 51.9494 77.4576 52.1397 77.4141 52.3203C77.3707 52.5008 77.2573 52.6566 77.099 52.7535L72.479 55.7453L77.7206 52.7185C77.8778 52.6274 78.0643 52.601 78.2406 52.6449C78.4169 52.6887 78.5693 52.7995 78.6655 52.9537C78.7617 53.1078 78.7941 53.2934 78.756 53.471C78.7178 53.6487 78.6121 53.8046 78.4612 53.9057L66.5822 61.8955L79.3502 54.5273C79.5081 54.4328 79.6969 54.4042 79.8757 54.4478C80.0545 54.4914 80.2089 54.6037 80.3055 54.7603C80.4022 54.917 80.4332 55.1054 80.392 55.2847C80.3507 55.4641 80.2405 55.62 80.0852 55.7187L69.9338 62.3841L80.4912 56.2885C80.6497 56.1979 80.8373 56.1729 81.014 56.2186C81.1907 56.2644 81.3426 56.3774 81.4372 56.5336C81.5318 56.6897 81.5616 56.8766 81.5204 57.0544C81.4791 57.2323 81.37 57.387 81.2164 57.4855L78.1 59.4623L81.1884 57.6801C81.3458 57.5817 81.5359 57.5499 81.7168 57.5916C81.8977 57.6334 82.0546 57.7453 82.153 57.9027C82.2514 58.0601 82.2832 58.2502 82.2414 58.4311C82.1997 58.612 82.0878 58.7689 81.9304 58.8673L67.0302 68.8801L82.0396 60.2169C82.1968 60.1334 82.3799 60.1128 82.5517 60.1595C82.7234 60.2062 82.871 60.3166 82.9643 60.4682C83.0576 60.6198 83.0896 60.8013 83.0538 60.9757C83.0181 61.15 82.9172 61.3043 82.7718 61.4069L72.1108 68.3845L82.4008 62.4443C82.5587 62.3575 82.744 62.3349 82.9182 62.3812C83.0924 62.4276 83.242 62.5394 83.3358 62.6933C83.4296 62.8472 83.4604 63.0314 83.4219 63.2074C83.3833 63.3835 83.2783 63.5379 83.1288 63.6385L77.4084 67.3121L82.4582 64.4001C82.6161 64.3082 82.8038 64.2818 82.981 64.3264C83.1583 64.3711 83.311 64.4833 83.4066 64.639C83.5022 64.7948 83.5331 64.9818 83.4927 65.16C83.4523 65.3383 83.3438 65.4936 83.1904 65.5929L77.9362 69.0201L82.4582 66.4105C82.6158 66.3249 82.8004 66.3032 82.9736 66.3497C83.1469 66.3962 83.2957 66.5075 83.3893 66.6605C83.4829 66.8136 83.5141 66.9968 83.4766 67.1722C83.4391 67.3476 83.3356 67.502 83.1876 67.6033L82.601 67.9827C82.7457 67.937 82.9015 67.9396 83.0446 67.9901C83.1878 68.0406 83.3107 68.1363 83.3948 68.2627C83.4927 68.4129 83.5293 68.5949 83.497 68.7712C83.4647 68.9476 83.366 69.1048 83.2212 69.2105L74.7526 75.3845L82.4526 70.9367C82.6087 70.8455 82.7941 70.8183 82.9698 70.8607C83.1456 70.9031 83.2981 71.0119 83.3955 71.1643C83.4928 71.3166 83.5275 71.5008 83.4921 71.6781C83.4567 71.8554 83.3541 72.0122 83.2058 72.1155L80.3428 74.1273L82.4526 72.9107C82.6032 72.8244 82.7806 72.7971 82.9502 72.8342C83.1198 72.8712 83.2696 72.9701 83.3705 73.1114C83.4714 73.2528 83.5161 73.4265 83.496 73.599C83.4759 73.7715 83.3924 73.9303 83.2618 74.0447L78.3422 78.3343L82.4582 75.9543C82.6083 75.8687 82.7848 75.8417 82.9537 75.8785C83.1226 75.9153 83.2719 76.0132 83.3728 76.1535C83.4738 76.2937 83.5194 76.4664 83.5007 76.6382C83.482 76.81 83.4003 76.9689 83.2716 77.0841L81.7204 78.4533L82.4414 78.0333C82.5869 77.9501 82.7574 77.9218 82.922 77.9537C83.0866 77.9856 83.2343 78.0755 83.3382 78.207C83.4421 78.3386 83.4953 78.5031 83.4883 78.6705C83.4812 78.838 83.4142 78.9974 83.2996 79.1197L82.2636 80.2159C82.4043 80.2747 82.5215 80.3786 82.5968 80.5113C82.6893 80.6718 82.7144 80.8624 82.6666 81.0414C82.6189 81.2203 82.5021 81.3731 82.342 81.4661L79.4748 83.1321C79.3292 83.2153 79.1587 83.2436 78.9941 83.2117C78.8295 83.1798 78.6819 83.0899 78.5779 82.9584C78.474 82.8268 78.4208 82.6624 78.4279 82.4949C78.4349 82.3274 78.5019 82.168 78.6166 82.0457L78.9862 81.6537L76.3696 83.1601C76.2194 83.2457 76.0429 83.2727 75.874 83.2359C75.7051 83.1992 75.5558 83.1012 75.4549 82.9609C75.3539 82.8207 75.3084 82.648 75.3271 82.4762C75.3458 82.3044 75.4274 82.1456 75.5562 82.0303L77.1046 80.6625L72.7786 83.1601C72.6281 83.2449 72.4516 83.2711 72.2831 83.2336C72.1145 83.1962 71.9657 83.0977 71.8653 82.9572C71.7649 82.8167 71.72 82.6441 71.7392 82.4724C71.7584 82.3008 71.8404 82.1424 71.9694 82.0275L76.8918 77.7379L67.5006 83.1601C67.3447 83.2477 67.1614 83.2723 66.988 83.2289C66.8146 83.1856 66.6643 83.0776 66.568 82.927C66.4717 82.7765 66.4366 82.5948 66.47 82.4192C66.5033 82.2437 66.6026 82.0875 66.7474 81.9827L69.6146 79.9653L64.0804 83.1601C63.9251 83.2507 63.741 83.2781 63.5662 83.2366C63.3913 83.1952 63.2391 83.088 63.141 82.9374C63.043 82.7868 63.0066 82.6043 63.0394 82.4276C63.0722 82.2509 63.1717 82.0936 63.3174 81.9883L71.786 75.8143L59.06 83.1601C58.954 83.223 58.8332 83.2568 58.71 83.2581Z" fill="#CD4C60"/>
<path d="M8.53502 83.258C8.38366 83.2581 8.23635 83.2091 8.11518 83.1184C7.99401 83.0277 7.9055 82.9002 7.86292 82.755C7.82034 82.6097 7.82598 82.4546 7.87901 82.3128C7.93203 82.171 8.02957 82.0503 8.15701 81.9686L14.2008 78.1046L5.53622 83.1054C5.3779 83.1925 5.19205 83.215 5.01755 83.1682C4.84304 83.1213 4.69339 83.0089 4.59991 82.8543C4.50642 82.6997 4.47633 82.5149 4.51594 82.3386C4.55554 82.1623 4.66178 82.0082 4.81242 81.9084L10.9178 78.043L3.60982 82.2584C3.45088 82.3501 3.26232 82.3757 3.08471 82.3297C2.90711 82.2837 2.75465 82.1698 2.66015 82.0126C2.56565 81.8553 2.53667 81.6673 2.57943 81.4889C2.6222 81.3104 2.73329 81.156 2.88882 81.0586L7.31282 78.281L2.56822 81.0236C2.40979 81.1095 2.22437 81.1309 2.05054 81.0835C1.87672 81.036 1.72788 80.9234 1.63499 80.769C1.5421 80.6146 1.51232 80.4304 1.55185 80.2546C1.59138 80.0788 1.69718 79.925 1.84722 79.8252L6.28802 77.0392L2.06982 79.4724C1.91191 79.567 1.72312 79.5956 1.54431 79.552C1.3655 79.5083 1.21106 79.3961 1.11442 79.2394C1.01779 79.0828 0.986731 78.8944 1.02798 78.715C1.06923 78.5356 1.17946 78.3797 1.33482 78.281L17.0834 67.9322L2.04182 76.6206C1.88331 76.7112 1.6957 76.7363 1.51897 76.6905C1.34224 76.6447 1.19039 76.5317 1.0958 76.3756C1.0012 76.2195 0.971344 76.0325 1.0126 75.8547C1.05385 75.6769 1.16294 75.5222 1.31662 75.4236L8.75062 70.7L2.04182 74.5668C1.88437 74.6549 1.699 74.6788 1.52437 74.6335C1.34974 74.5882 1.19935 74.4772 1.10455 74.3237C1.00974 74.1703 0.977862 73.9861 1.01555 73.8097C1.05323 73.6333 1.15758 73.4782 1.30682 73.3768L14.9176 64.3846L2.04182 71.82C1.88509 71.9082 1.70045 71.9326 1.52619 71.8883C1.35192 71.844 1.20139 71.7343 1.1058 71.582C1.01021 71.4297 0.976893 71.2465 1.01275 71.0703C1.04861 70.8941 1.1509 70.7385 1.29842 70.6356L16.06 60.585L2.04182 68.677C1.88308 68.7741 1.69228 68.8042 1.51138 68.7606C1.33049 68.717 1.17431 68.6034 1.07722 68.4446C0.98012 68.2859 0.950057 68.0951 0.99364 67.9142C1.03722 67.7333 1.15088 67.5771 1.30962 67.48L7.80002 63.2506L2.04182 66.5784C1.88485 66.6679 1.69937 66.6932 1.52418 66.649C1.34899 66.6049 1.19765 66.4947 1.10182 66.3416C1.00598 66.1884 0.973072 66.0041 1.00997 65.8273C1.04688 65.6504 1.15073 65.4947 1.29982 65.3926L10.0498 59.4678L2.07962 64.0696C1.92262 64.1655 1.73419 64.1957 1.55508 64.1538C1.37597 64.1118 1.22059 64.001 1.12253 63.8454C1.02447 63.6897 0.991619 63.5017 1.03108 63.322C1.07055 63.1424 1.17916 62.9855 1.33342 62.8852L7.24982 58.8364L2.42402 61.6266C2.26776 61.7163 2.08295 61.7423 1.90803 61.6992C1.73311 61.656 1.58155 61.5471 1.48489 61.3951C1.38822 61.2431 1.3539 61.0596 1.38905 60.8829C1.4242 60.7062 1.52612 60.5499 1.67362 60.4464L5.57822 57.7164L3.23182 59.0688C3.08277 59.153 2.90804 59.1797 2.74067 59.1438C2.57331 59.1078 2.4249 59.0118 2.32353 58.8739C2.22215 58.736 2.17482 58.5657 2.1905 58.3952C2.20618 58.2248 2.28378 58.066 2.40862 57.9488L7.17842 53.5808L7.09162 53.6326C7.01198 53.6793 6.92389 53.7098 6.83242 53.7223C6.74096 53.7348 6.64792 53.7291 6.55867 53.7055C6.46942 53.6819 6.38572 53.6409 6.31239 53.5848C6.23906 53.5287 6.17754 53.4587 6.13138 53.3788C6.08522 53.2988 6.05533 53.2105 6.04343 53.119C6.03153 53.0274 6.03786 52.9344 6.06205 52.8453C6.08624 52.7563 6.12781 52.6728 6.18437 52.5999C6.24093 52.5269 6.31136 52.4659 6.39162 52.4202L12.0266 49.1666C12.1757 49.0824 12.3504 49.0558 12.5178 49.0917C12.6851 49.1276 12.8335 49.2236 12.9349 49.3616C13.0363 49.4995 13.0836 49.6698 13.0679 49.8403C13.0522 50.0107 12.9747 50.1695 12.8498 50.2866L8.08002 54.6546L18.8488 48.44C19.0047 48.3537 19.1877 48.3301 19.3605 48.374C19.5332 48.418 19.6827 48.5262 19.7784 48.6765C19.8741 48.8269 19.9089 49.0081 19.8756 49.1832C19.8423 49.3583 19.7434 49.5141 19.5992 49.6188L15.6904 52.3544L22.4706 48.4344C22.6271 48.3474 22.811 48.3237 22.9845 48.3681C23.158 48.4125 23.3078 48.5217 23.4032 48.6732C23.4986 48.8248 23.5323 49.0071 23.4974 49.1827C23.4625 49.3584 23.3615 49.5139 23.2154 49.6174L17.3018 53.6648L26.2758 48.4848C26.4328 48.3954 26.6183 48.3701 26.7934 48.4142C26.9686 48.4584 27.12 48.5685 27.2158 48.7217C27.3117 48.8748 27.3446 49.0591 27.3077 49.236C27.2708 49.4128 27.1669 49.5686 27.0178 49.6706L18.2678 55.594L29.5252 49.0938C29.6834 48.9966 29.8737 48.9661 30.0544 49.0091C30.235 49.0522 30.3911 49.1653 30.4884 49.3234C30.5857 49.4816 30.6162 49.672 30.5731 49.8526C30.53 50.0332 30.417 50.1894 30.2588 50.2866L23.7698 54.5188L31.7106 49.9352C31.8673 49.8471 32.052 49.8226 32.2262 49.867C32.4005 49.9113 32.551 50.0209 32.6466 50.1732C32.7422 50.3255 32.7755 50.5088 32.7397 50.685C32.7038 50.8612 32.6015 51.0168 32.454 51.1196L17.6896 61.1674L34.358 51.5438C34.5156 51.4525 34.7026 51.4261 34.8793 51.4704C35.056 51.5147 35.2085 51.6261 35.3044 51.7811C35.4002 51.936 35.4319 52.1221 35.3927 52.3001C35.3535 52.478 35.2465 52.6336 35.0944 52.7338L21.4822 61.7274L36.2242 53.2154C36.3824 53.127 36.5688 53.1034 36.744 53.1495C36.9193 53.1957 37.0698 53.308 37.164 53.4629C37.2581 53.6178 37.2885 53.8032 37.2487 53.98C37.209 54.1568 37.1022 54.3113 36.9508 54.411L29.5098 59.1444L37.3932 54.593C37.5511 54.4985 37.7399 54.4699 37.9187 54.5135C38.0975 54.5571 38.252 54.6694 38.3486 54.8261C38.4452 54.9827 38.4763 55.1711 38.4351 55.3505C38.3938 55.5298 38.2836 55.6857 38.1282 55.7844L22.3796 66.1304L38.7232 56.7C38.8823 56.6042 39.073 56.5756 39.2532 56.6203C39.4334 56.6651 39.5885 56.7796 39.6843 56.9387C39.7801 57.0978 39.8088 57.2885 39.764 57.4687C39.7192 57.649 39.6047 57.804 39.4456 57.8998L35.0006 60.6872L39.3798 58.1588C39.5389 58.063 39.7296 58.0344 39.9098 58.0791C39.9991 58.1013 40.0831 58.1408 40.157 58.1955C40.231 58.2501 40.2935 58.3188 40.3409 58.3975C40.3883 58.4763 40.4198 58.5637 40.4335 58.6546C40.4472 58.7455 40.4428 58.8383 40.4206 58.9275C40.3984 59.0168 40.3589 59.1008 40.3043 59.1747C40.2497 59.2487 40.181 59.3112 40.1022 59.3586L35.6698 62.1376L39.8964 59.6974C40.0549 59.6069 40.2425 59.5818 40.4193 59.6276C40.596 59.6733 40.7478 59.7863 40.8424 59.9425C40.937 60.0986 40.9669 60.2855 40.9256 60.4634C40.8844 60.6412 40.7753 60.7959 40.6216 60.8944L34.5316 64.7486L40.2716 61.4348C40.4294 61.3504 40.6136 61.3295 40.7862 61.3766C40.9589 61.4237 41.107 61.5352 41.2 61.6881C41.293 61.841 41.324 62.0237 41.2864 62.1987C41.2489 62.3737 41.1458 62.5277 40.9982 62.629L34.9292 66.5112L40.4382 63.3304C40.5949 63.2423 40.7796 63.2178 40.9538 63.2622C41.1281 63.3065 41.2786 63.4161 41.3742 63.5684C41.4698 63.7207 41.5031 63.904 41.4673 64.0802C41.4314 64.2564 41.3291 64.412 41.1816 64.5148L29.346 72.583L40.4564 66.1696C40.614 66.0829 40.7989 66.0601 40.9728 66.106C41.1467 66.1519 41.2963 66.263 41.3905 66.4163C41.4847 66.5695 41.5162 66.7532 41.4786 66.9291C41.4411 67.105 41.3372 67.2597 41.1886 67.361L38.4096 69.181L40.4564 67.9994C40.611 67.9115 40.7933 67.8858 40.9662 67.9274C41.1391 67.969 41.2897 68.0749 41.3874 68.2236C41.4851 68.3722 41.5225 68.5525 41.4921 68.7277C41.4616 68.9029 41.3657 69.06 41.2236 69.167L32.2314 75.831L40.4578 71.078C40.6137 70.9917 40.7967 70.9681 40.9695 71.012C41.1422 71.056 41.2917 71.1642 41.3874 71.3145C41.4831 71.4649 41.5179 71.6461 41.4846 71.8212C41.4513 71.9963 41.3524 72.1521 41.2082 72.2568L38.8982 73.8724L40.4578 72.9722C40.6112 72.8868 40.791 72.862 40.9618 72.9029C41.1325 72.9438 41.2816 73.0474 41.3796 73.1931C41.4775 73.3388 41.5171 73.516 41.4906 73.6895C41.464 73.8631 41.3732 74.0203 41.2362 74.13L37.7362 76.846L40.4522 75.2794C40.6012 75.1964 40.7754 75.1706 40.9421 75.2069C41.1088 75.2433 41.2565 75.3392 41.3574 75.4768C41.4583 75.6143 41.5055 75.784 41.4902 75.9539C41.4748 76.1238 41.398 76.2822 41.274 76.3994L38.719 78.7332L40.4522 77.7336C40.5959 77.6512 40.7642 77.6225 40.9271 77.6525C41.09 77.6824 41.237 77.7692 41.3419 77.8973C41.4469 78.0255 41.503 78.1867 41.5003 78.3523C41.4976 78.5179 41.4363 78.6772 41.3272 78.8018L40.1148 80.1794C40.2551 80.2061 40.3839 80.275 40.4839 80.377C40.5839 80.479 40.6503 80.6091 40.6742 80.7499C40.6981 80.8907 40.6784 81.0354 40.6177 81.1647C40.557 81.2939 40.4582 81.4015 40.3346 81.473L37.4646 83.1306C37.3209 83.213 37.1527 83.2418 36.9898 83.2118C36.8269 83.1818 36.6799 83.0951 36.5749 82.9669C36.47 82.8388 36.4138 82.6776 36.4165 82.512C36.4192 82.3464 36.4805 82.1871 36.5896 82.0624L37.4534 81.0824L33.8498 83.16C33.7008 83.2431 33.5266 83.2689 33.3599 83.2325C33.1932 83.1962 33.0456 83.1002 32.9447 82.9627C32.8437 82.8252 32.7965 82.6555 32.8119 82.4856C32.8272 82.3157 32.9041 82.1573 33.028 82.04L35.5802 79.7076L29.5994 83.16C29.446 83.2471 29.2654 83.2731 29.0936 83.2327C28.9219 83.1924 28.7718 83.0887 28.6732 82.9423C28.5747 82.796 28.535 82.6179 28.5622 82.4436C28.5893 82.2693 28.6812 82.1117 28.8196 82.0022L32.3196 79.2848L25.5996 83.16C25.4437 83.2464 25.2607 83.27 25.0879 83.226C24.9152 83.1821 24.7657 83.0739 24.67 82.9235C24.5743 82.7732 24.5396 82.592 24.5729 82.4169C24.6062 82.2418 24.705 82.086 24.8492 81.9812L27.155 80.3684L22.3222 83.16C22.1676 83.2479 21.9853 83.2737 21.8124 83.2321C21.6395 83.1904 21.4889 83.0845 21.3912 82.9359C21.2936 82.7873 21.2562 82.607 21.2866 82.4318C21.317 82.2565 21.413 82.0995 21.555 81.9924L30.5472 75.3298L16.9812 83.16C16.8237 83.2468 16.6387 83.2696 16.4648 83.2237C16.2909 83.1778 16.1413 83.0666 16.0472 82.9134C15.953 82.7601 15.9214 82.5765 15.959 82.4006C15.9966 82.2247 16.1004 82.07 16.249 81.9686L19.0252 80.1486L13.82 83.16C13.6636 83.245 13.4808 83.2672 13.3086 83.2221C13.1364 83.177 12.9879 83.0681 12.8932 82.9174C12.7985 82.7667 12.7647 82.5856 12.7988 82.4109C12.8329 82.2362 12.9322 82.0811 13.0766 81.977L24.9178 73.9046L8.88502 83.16C8.77901 83.2229 8.65828 83.2568 8.53502 83.258Z" fill="#CE7BBE"/>
<path d="M47.7451 24.4707C47.5941 24.471 47.447 24.4225 47.3258 24.3324C47.2046 24.2423 47.1158 24.1154 47.0726 23.9707C47.0295 23.8259 47.0343 23.6711 47.0864 23.5294C47.1384 23.3876 47.2349 23.2665 47.3615 23.1841L51.4439 20.5241L45.1901 24.1319C45.0328 24.2175 44.8486 24.2395 44.6756 24.1935C44.5025 24.1474 44.3536 24.0368 44.2596 23.8843C44.1657 23.7319 44.1337 23.5492 44.1703 23.3739C44.2069 23.1986 44.3093 23.0439 44.4565 22.9419L49.1353 19.8801L44.0421 22.8201C43.8851 22.9095 43.6996 22.9348 43.5245 22.8907C43.3493 22.8465 43.1979 22.7364 43.1021 22.5832C43.0063 22.43 42.9733 22.2458 43.0102 22.0689C43.0472 21.8921 43.151 21.7363 43.3001 21.6343L56.0135 13.0425L44.0421 19.9459C43.8852 20.0369 43.6992 20.0635 43.5231 20.0201C43.347 19.9766 43.1947 19.8666 43.0982 19.7131C43.0016 19.5595 42.9684 19.3746 43.0056 19.197C43.0427 19.0195 43.1473 18.8634 43.2973 18.7615L54.3783 11.1777L44.0421 17.1445C43.8849 17.2312 43.7004 17.2543 43.5266 17.2089C43.3529 17.1634 43.2033 17.0529 43.1087 16.9003C43.0142 16.7477 42.9819 16.5645 43.0185 16.3887C43.0552 16.2129 43.158 16.058 43.3057 15.9559L47.5239 13.1559L44.0771 15.1439C43.9213 15.2314 43.7379 15.256 43.5645 15.2127C43.3911 15.1693 43.2409 15.0613 43.1446 14.9108C43.0483 14.7602 43.0132 14.5786 43.0465 14.403C43.0799 14.2274 43.1791 14.0712 43.3239 13.9665L49.2193 9.81266L44.4789 12.5469C44.3247 12.6365 44.1421 12.664 43.9684 12.6236C43.7947 12.5832 43.6429 12.4781 43.5441 12.3296C43.4453 12.1811 43.4069 12.0005 43.4368 11.8247C43.4666 11.6488 43.5624 11.491 43.7047 11.3835L48.6999 7.58806L45.7837 9.26805C45.6315 9.35353 45.4528 9.37905 45.2828 9.33961C45.1127 9.30017 44.9636 9.19862 44.8645 9.05488C44.7655 8.91113 44.7237 8.73557 44.7474 8.56262C44.7711 8.38968 44.8586 8.23184 44.9927 8.12006L47.8655 5.78205C47.7445 5.72155 47.6441 5.62655 47.5771 5.50905C47.4842 5.34845 47.4588 5.15751 47.5066 4.97821C47.5543 4.79891 47.6714 4.64592 47.8319 4.55285L53.1911 1.45885C53.3433 1.37189 53.5227 1.34524 53.6937 1.38416C53.8646 1.42309 54.0147 1.52475 54.1144 1.66906C54.214 1.81336 54.2558 1.98978 54.2315 2.16344C54.2073 2.33709 54.1188 2.49533 53.9835 2.60685L52.6675 3.67785L57.5955 0.840054C57.7497 0.750372 57.9322 0.722916 58.106 0.763294C58.2797 0.803671 58.4314 0.908835 58.5302 1.05731C58.629 1.20579 58.6675 1.38639 58.6376 1.56223C58.6078 1.73806 58.5119 1.89588 58.3697 2.00345L53.3759 5.79745L61.9621 0.840054C62.1179 0.75252 62.3013 0.727896 62.4747 0.771231C62.6481 0.814565 62.7983 0.922576 62.8946 1.07312C62.9909 1.22367 63.026 1.40535 62.9927 1.58093C62.9593 1.75651 62.8601 1.91269 62.7153 2.01745L56.8101 6.17265L66.0571 0.840054C66.2139 0.756356 66.3968 0.735471 66.5684 0.781639C66.7401 0.827807 66.8878 0.937568 66.9815 1.08864C67.0752 1.23972 67.1079 1.42079 67.073 1.59511C67.0381 1.76943 66.9382 1.92393 66.7935 2.02725L62.5809 4.82725L69.4913 0.840054C69.6478 0.753021 69.8317 0.729273 70.0052 0.773693C70.1786 0.818114 70.3285 0.927326 70.4239 1.07886C70.5193 1.2304 70.553 1.41274 70.5181 1.58837C70.4831 1.76399 70.3822 1.91956 70.2361 2.02305L59.1593 9.60126L72.4425 1.93345C72.5996 1.84037 72.7869 1.81237 72.9643 1.85541C73.1418 1.89846 73.2954 2.00915 73.3924 2.16387C73.4894 2.31859 73.5221 2.50509 73.4835 2.68357C73.4449 2.86206 73.3381 3.01841 73.1859 3.11925L60.4725 11.7111L70.0583 6.17686C70.216 6.0872 70.4024 6.06227 70.5781 6.10732C70.7538 6.15237 70.9052 6.26389 71.0003 6.41837C71.0954 6.57284 71.1269 6.75821 71.088 6.93541C71.0491 7.11261 70.943 7.26779 70.7919 7.36826L66.1201 10.4273L72.7897 6.58005C72.9479 6.48277 73.1382 6.45231 73.3188 6.49537C73.4995 6.53843 73.6556 6.65148 73.7529 6.80965C73.8502 6.96783 73.8806 7.15817 73.8376 7.33881C73.7945 7.51944 73.6815 7.67557 73.5233 7.77286L69.4297 10.4413L74.9205 7.27165C75.0762 7.18284 75.26 7.15714 75.4341 7.19984C75.6082 7.24253 75.7592 7.35038 75.8562 7.50115C75.9531 7.65193 75.9885 7.83414 75.9551 8.01023C75.9216 8.18632 75.8219 8.34289 75.6765 8.44766L65.4075 15.7459L77.2361 8.91806C77.3914 8.8289 77.5751 8.80269 77.7492 8.84482C77.9233 8.88694 78.0746 8.99421 78.172 9.14452C78.2694 9.29484 78.3055 9.47678 78.2728 9.65289C78.2401 9.82901 78.1411 9.98589 77.9963 10.0913L69.3163 16.3787L78.7187 10.9509C78.8728 10.8631 79.0544 10.8372 79.2269 10.8782C79.3994 10.9192 79.5499 11.0242 79.6481 11.1719C79.7462 11.3196 79.7846 11.499 79.7555 11.6739C79.7264 11.8488 79.6321 12.0062 79.4915 12.1143L72.3515 17.5113L79.5279 13.3687C79.6818 13.2816 79.863 13.256 80.035 13.297C80.207 13.338 80.3571 13.4426 80.4552 13.5898C80.5532 13.7369 80.5919 13.9157 80.5635 14.0903C80.5351 14.2648 80.4417 14.4222 80.3021 14.5307L76.1707 17.6793L79.6609 15.6647C79.8153 15.5775 79.9971 15.5521 80.1694 15.5938C80.3418 15.6354 80.492 15.7409 80.5896 15.889C80.6871 16.0371 80.7249 16.2166 80.6952 16.3915C80.6655 16.5663 80.5705 16.7233 80.4295 16.8309L79.7841 17.3139C79.9366 17.2606 80.1029 17.2618 80.2546 17.3172C80.4064 17.3726 80.5343 17.4788 80.6167 17.6177C80.6991 17.7566 80.731 17.9198 80.7068 18.0795C80.6826 18.2393 80.6039 18.3857 80.4841 18.4941L78.9917 19.8409L79.6707 19.4489C79.8132 19.3669 79.9799 19.3377 80.1417 19.3664C80.3036 19.395 80.4502 19.4797 80.5558 19.6056C80.6615 19.7314 80.7195 19.8905 80.7197 20.0548C80.7199 20.2192 80.6623 20.3783 80.5569 20.5045L79.9157 21.2675C80.0557 21.247 80.1987 21.2687 80.3263 21.3298C80.454 21.3909 80.5606 21.4886 80.6325 21.6105C80.7249 21.7711 80.7498 21.9618 80.7018 22.1408C80.6537 22.3198 80.5367 22.4724 80.3763 22.5653L77.2641 24.3601C77.1216 24.442 76.9549 24.4712 76.793 24.4426C76.6312 24.4139 76.4846 24.3292 76.379 24.2034C76.2733 24.0775 76.2153 23.9184 76.2151 23.7541C76.2149 23.5898 76.2725 23.4306 76.3779 23.3045L76.9379 22.6437L73.9545 24.3601C73.8056 24.4399 73.6329 24.4633 73.4681 24.4258C73.3034 24.3883 73.1578 24.2924 73.0581 24.156C72.9585 24.0195 72.9116 23.8516 72.9261 23.6833C72.9406 23.5149 73.0154 23.3575 73.1369 23.2401L74.6293 21.8933L70.3425 24.3601C70.1881 24.4473 70.0063 24.4726 69.8339 24.431C69.6616 24.3893 69.5114 24.2838 69.4138 24.1357C69.3162 23.9877 69.2785 23.8081 69.3082 23.6332C69.3379 23.4584 69.4329 23.3014 69.5739 23.1939L70.1339 22.7739L67.3871 24.3587C67.2332 24.4457 67.052 24.4714 66.88 24.4303C66.708 24.3893 66.5579 24.2847 66.4598 24.1376C66.3618 23.9904 66.3231 23.8116 66.3515 23.637C66.3798 23.4625 66.4733 23.3052 66.6129 23.1967L70.7471 20.0453L63.2725 24.3601C63.1184 24.4478 62.9368 24.4737 62.7642 24.4327C62.5917 24.3917 62.4412 24.2867 62.3431 24.139C62.245 23.9913 62.2066 23.8119 62.2357 23.637C62.2647 23.4621 62.3591 23.3047 62.4997 23.1967L69.6327 17.8053L58.2703 24.3629C58.1149 24.452 57.9313 24.4782 57.7572 24.4361C57.5831 24.394 57.4318 24.2867 57.3344 24.1364C57.237 23.9861 57.2009 23.8041 57.2336 23.628C57.2663 23.4519 57.3652 23.295 57.5101 23.1897L66.1901 16.9009L53.2597 24.3643C53.104 24.4531 52.9202 24.4788 52.7461 24.4361C52.572 24.3934 52.421 24.2855 52.324 24.1348C52.2271 23.984 52.1917 23.8018 52.2251 23.6257C52.2586 23.4496 52.3583 23.293 52.5037 23.1883L62.7699 15.8915L48.0951 24.3755C47.9888 24.4374 47.8681 24.4702 47.7451 24.4707Z" fill="#684740"/>
<path d="M61.9899 53.8496C61.8562 53.8496 61.7253 53.8114 61.6127 53.7394C61.5001 53.6674 61.4104 53.5647 61.3543 53.4433C61.2982 53.322 61.278 53.1872 61.2961 53.0547C61.3142 52.9223 61.3699 52.7978 61.4565 52.696L62.8565 51.0482L59.6575 52.8948C59.512 52.978 59.3414 53.0062 59.1769 52.9743C59.0123 52.9425 58.8646 52.8526 58.7607 52.721C58.6568 52.5895 58.6035 52.425 58.6106 52.2575C58.6177 52.09 58.6847 51.9307 58.7993 51.8084L62.1761 48.2496L58.1623 50.5666C58.0207 50.6473 57.8553 50.676 57.6948 50.6479C57.5342 50.6197 57.3885 50.5363 57.2828 50.4122C57.1771 50.2881 57.118 50.131 57.1158 49.968C57.1136 49.805 57.1683 49.6463 57.2705 49.5194L59.5791 46.6774L58.0391 47.5622C57.9198 47.6309 57.7829 47.6629 57.6455 47.6542C57.5081 47.6455 57.3763 47.5964 57.2666 47.5132C57.1569 47.43 57.0742 47.3162 57.0288 47.1863C56.9835 47.0563 56.9774 46.9158 57.0115 46.7824L57.4049 45.2424C57.2695 45.1831 57.1569 45.0814 57.0843 44.9526C56.9918 44.7921 56.9667 44.6015 57.0145 44.4225C57.0622 44.2436 57.179 44.0908 57.3391 43.9978L58.0391 43.5904C58.1583 43.5214 58.2953 43.4891 58.4327 43.4976C58.5702 43.506 58.7022 43.5549 58.812 43.638C58.9219 43.7211 59.0048 43.8347 59.0503 43.9647C59.0959 44.0947 59.1021 44.2353 59.0681 44.3688L58.7741 45.521L62.1537 43.5694C62.2954 43.4887 62.4607 43.4599 62.6213 43.4881C62.7818 43.5162 62.9275 43.5996 63.0332 43.7237C63.1389 43.8478 63.198 44.0049 63.2002 44.1679C63.2025 44.3309 63.1478 44.4896 63.0455 44.6166L60.7453 47.46L65.6579 44.625C65.8036 44.5417 65.9743 44.5135 66.139 44.5456C66.3037 44.5776 66.4514 44.6678 66.5552 44.7996C66.659 44.9314 66.712 45.0961 66.7046 45.2637C66.6972 45.4313 66.6298 45.5907 66.5147 45.7128L63.1379 49.2674L65.6579 47.8128C65.8008 47.7301 65.9683 47.7006 66.1308 47.7295C66.2933 47.7584 66.4404 47.8437 66.5461 47.9705C66.6518 48.0973 66.7092 48.2574 66.7084 48.4224C66.7075 48.5875 66.6483 48.7469 66.5413 48.8726L65.1259 50.54C65.2912 50.4722 65.4761 50.4701 65.6428 50.5342C65.8095 50.5982 65.9454 50.7236 66.0227 50.8847C66.1 51.0457 66.1128 51.2302 66.0585 51.4003C66.0043 51.5705 65.887 51.7134 65.7307 51.8L62.3371 53.76C62.2314 53.8201 62.1115 53.851 61.9899 53.8496Z" fill="#925C4C"/>
<path d="M74.8924 21.6817C74.7387 21.6812 74.5895 21.6301 74.4678 21.5364C74.3461 21.4427 74.2585 21.3115 74.2187 21.1631C74.1789 21.0147 74.189 20.8573 74.2475 20.7153C74.306 20.5732 74.4096 20.4543 74.5424 20.3769L76.8608 19.0399C77.0208 18.9563 77.2069 18.9376 77.3803 18.9879C77.5537 19.0382 77.7009 19.1536 77.7913 19.3099C77.8816 19.4662 77.9081 19.6514 77.8652 19.8267C77.8222 20.0021 77.7132 20.1541 77.5608 20.2509L75.2424 21.5879C75.1361 21.6498 75.0153 21.6821 74.8924 21.6817Z" fill="#A9725E"/>
<path d="M49.3172 22.68C49.1799 22.68 49.0455 22.6396 48.931 22.5638C48.8164 22.488 48.7267 22.3802 48.673 22.2538C48.6192 22.1274 48.6039 21.988 48.6288 21.8529C48.6538 21.7178 48.7179 21.5931 48.8132 21.4942L49.9542 20.314C49.8105 20.2557 49.6906 20.1506 49.614 20.0158C49.5211 19.8552 49.4957 19.6642 49.5435 19.4849C49.5913 19.3056 49.7083 19.1526 49.8688 19.0596L52.89 17.318C53.0361 17.2346 53.2073 17.2067 53.3723 17.2392C53.5373 17.2718 53.6851 17.3626 53.7886 17.4952C53.8921 17.6278 53.9445 17.7932 53.936 17.9612C53.9276 18.1291 53.8589 18.2885 53.7426 18.41L53.2862 18.8832L61.5462 14.1232C61.6259 14.0725 61.715 14.0385 61.8081 14.0232C61.9013 14.0079 61.9966 14.0116 62.0883 14.034C62.18 14.0565 62.2662 14.0973 62.3417 14.1539C62.4172 14.2105 62.4805 14.2819 62.5278 14.3636C62.575 14.4453 62.6052 14.5358 62.6166 14.6295C62.628 14.7232 62.6203 14.8183 62.594 14.909C62.5677 14.9996 62.5233 15.084 62.4636 15.1571C62.4038 15.2302 62.3299 15.2904 62.2462 15.3342L49.67 22.5848C49.5632 22.6479 49.4413 22.6808 49.3172 22.68Z" fill="#A9725E"/>
<path d="M62.361 45.4369C62.2141 45.4369 62.0709 45.3907 61.9517 45.3048C61.8325 45.2189 61.7434 45.0976 61.6969 44.9583C61.6505 44.8189 61.649 44.6684 61.6929 44.5282C61.7367 44.388 61.8235 44.2651 61.941 44.1769L66.281 40.8449L59.0836 45.0001C58.9281 45.088 58.745 45.1131 58.5716 45.0703C58.3982 45.0275 58.2477 44.9201 58.1509 44.77C58.0541 44.6199 58.0184 44.4385 58.051 44.263C58.0835 44.0874 58.182 43.9309 58.3262 43.8255L63.208 40.3563L56.586 44.1825C56.4303 44.2713 56.2465 44.297 56.0724 44.2543C55.8983 44.2116 55.7473 44.1038 55.6503 43.953C55.5534 43.8022 55.518 43.62 55.5514 43.4439C55.5849 43.2678 55.6846 43.1113 55.83 43.0065L67.6768 34.5631L53.8168 42.5627C53.6596 42.6495 53.4751 42.6725 53.3014 42.6271C53.1276 42.5817 52.978 42.4712 52.8835 42.3186C52.7889 42.1659 52.7566 41.9828 52.7932 41.807C52.8299 41.6312 52.9327 41.4762 53.0804 41.3741L60.3422 36.5721L52.281 41.2257C52.1244 41.3116 51.9409 41.3343 51.7681 41.2893C51.5952 41.2443 51.4461 41.1349 51.3513 40.9835C51.2565 40.8322 51.2231 40.6503 51.258 40.4751C51.2929 40.3 51.3934 40.1448 51.539 40.0413L63.565 31.8793L50.699 39.3063C50.5428 39.396 50.3579 39.422 50.183 39.3788C50.0081 39.3357 49.8565 39.2268 49.7599 39.0748C49.6632 38.9227 49.6289 38.7393 49.664 38.5626C49.6992 38.3859 49.8011 38.2296 49.9486 38.1261L60.6236 30.6725L49.4642 37.1125C49.3081 37.1998 49.1244 37.2239 48.951 37.18C48.7776 37.1362 48.6276 37.0275 48.5317 36.8765C48.4359 36.7255 48.4015 36.5435 48.4356 36.3679C48.4697 36.1923 48.5698 36.0364 48.7152 35.9323L59.3552 28.5277L48.6396 34.7199C48.4837 34.8098 48.2992 34.8362 48.1243 34.7936C47.9494 34.751 47.7977 34.6427 47.7006 34.4912C47.6035 34.3397 47.5685 34.1566 47.6028 33.9799C47.6371 33.8033 47.7382 33.6466 47.885 33.5425L58.224 26.2275L48.2476 31.9899C48.0906 32.0794 47.9052 32.1047 47.73 32.0605C47.5548 32.0164 47.4034 31.9062 47.3076 31.753C47.2118 31.5999 47.1789 31.4156 47.2158 31.2388C47.2527 31.0619 47.3565 30.9062 47.5056 30.8041L51.5488 28.0727L46.492 30.9917C46.3352 31.0827 46.1491 31.1093 45.973 31.0659C45.797 31.0225 45.6446 30.9124 45.5481 30.7589C45.4515 30.6054 45.4183 30.4204 45.4555 30.2429C45.4926 30.0654 45.5972 29.9092 45.7472 29.8073L50.4498 26.5873L44.9324 29.7723C44.7751 29.8618 44.5892 29.8869 44.4138 29.8423C44.2384 29.7976 44.087 29.6868 43.9916 29.533C43.8961 29.3792 43.8639 29.1944 43.9018 29.0174C43.9397 28.8404 44.0446 28.685 44.1946 28.5837L45.9474 27.4133L44.224 28.4073C44.0782 28.4906 43.9073 28.5187 43.7425 28.4865C43.5777 28.4542 43.43 28.3639 43.3263 28.2318C43.2226 28.0998 43.1698 27.9348 43.1776 27.7671C43.1853 27.5994 43.2531 27.44 43.3686 27.3181L45.2908 25.3119L44.042 26.0329C43.8939 26.1221 43.7181 26.1533 43.5484 26.1205C43.3786 26.0878 43.227 25.9934 43.1227 25.8556C43.0184 25.7177 42.9688 25.5462 42.9835 25.3739C42.9981 25.2017 43.076 25.041 43.202 24.9227L43.9818 24.1723C43.8421 24.2375 43.6848 24.2548 43.5343 24.2215C43.3838 24.1882 43.2485 24.1061 43.1494 23.988C43.0504 23.8699 42.993 23.7224 42.9863 23.5684C42.9796 23.4144 43.0239 23.2625 43.1124 23.1363L44.1302 21.6789C44.0004 21.6857 43.8712 21.6568 43.7567 21.5953C43.6422 21.5339 43.5467 21.4422 43.4806 21.3303C43.3881 21.1698 43.363 20.9792 43.4108 20.8003C43.4585 20.6213 43.5753 20.4686 43.7354 20.3755L46.0566 19.0371C46.1943 18.9575 46.355 18.9271 46.5123 18.951C46.6696 18.9749 46.814 19.0517 46.9218 19.1687C47.0295 19.2859 47.094 19.4364 47.1047 19.5952C47.1153 19.754 47.0716 19.9117 46.9806 20.0423L46.0636 21.3569L48.2588 20.0969C48.4069 20.0077 48.5827 19.9765 48.7525 20.0093C48.9222 20.042 49.0738 20.1364 49.1781 20.2742C49.2824 20.4121 49.332 20.5836 49.3174 20.7559C49.3027 20.9281 49.2249 21.0888 49.0988 21.2071L48.3246 21.9505L48.844 21.6509C48.9898 21.5676 49.1607 21.5395 49.3255 21.5717C49.4903 21.604 49.638 21.6943 49.7417 21.8264C49.8454 21.9584 49.8982 22.1234 49.8904 22.2911C49.8827 22.4588 49.8149 22.6182 49.6994 22.7401L47.7772 24.7463L63.8478 15.4685C64.0051 15.379 64.191 15.3539 64.3664 15.3986C64.5419 15.4432 64.6932 15.554 64.7886 15.7078C64.8841 15.8616 64.9163 16.0464 64.8784 16.2234C64.8406 16.4004 64.7356 16.5558 64.5856 16.6571L62.8272 17.8303L65.581 16.2399C65.7375 16.1529 65.9214 16.1291 66.0949 16.1735C66.2683 16.218 66.4182 16.3272 66.5136 16.4787C66.609 16.6302 66.6427 16.8126 66.6078 16.9882C66.5728 17.1638 66.4719 17.3194 66.3258 17.4229L61.6246 20.6429L68.031 16.9399C68.1876 16.854 68.3711 16.8313 68.544 16.8763C68.7168 16.9214 68.8659 17.0307 68.9607 17.1821C69.0555 17.3334 69.0889 17.5153 69.054 17.6905C69.0191 17.8656 68.9186 18.0208 68.773 18.1243L64.7354 20.8599L70.67 17.4313C70.8259 17.3414 71.0105 17.315 71.1853 17.3576C71.3602 17.4002 71.5119 17.5085 71.609 17.66C71.7061 17.8115 71.7412 17.9946 71.7068 18.1713C71.6725 18.3479 71.5714 18.5046 71.4246 18.6087L61.0884 25.9223L73.085 18.9951C73.2413 18.9054 73.4261 18.8795 73.601 18.9226C73.7759 18.9657 73.9275 19.0746 74.0241 19.2266C74.1208 19.3787 74.1551 19.5621 74.12 19.7388C74.0848 19.9155 73.9829 20.0718 73.8354 20.1753L63.18 27.5799L74.03 21.3219C74.1863 21.2322 74.3711 21.2063 74.546 21.2494C74.7209 21.2925 74.8725 21.4014 74.9691 21.5534C75.0658 21.7055 75.1001 21.8889 75.065 22.0656C75.0298 22.2423 74.9279 22.3986 74.7804 22.5021L64.09 29.9599L79.5446 21.0391C79.7017 20.946 79.889 20.918 80.0664 20.9611C80.2439 21.0041 80.3975 21.1148 80.4945 21.2695C80.5915 21.4242 80.6242 21.6107 80.5856 21.7892C80.547 21.9677 80.4402 22.1241 80.288 22.2249L68.2732 30.3799L79.658 23.8083C79.8151 23.7237 79.9985 23.7023 80.1709 23.7484C80.3432 23.7945 80.4914 23.9047 80.5853 24.0565C80.6791 24.2082 80.7115 24.39 80.6757 24.5648C80.64 24.7396 80.5389 24.8942 80.393 24.9969L73.127 29.8017L79.6552 26.0399C79.8109 25.9511 79.9947 25.9254 80.1688 25.9681C80.3429 26.0108 80.494 26.1186 80.5909 26.2694C80.6878 26.4202 80.7232 26.6024 80.6898 26.7785C80.6563 26.9546 80.5566 27.1111 80.4112 27.2159L68.57 35.6523L75.3712 31.7323C75.5269 31.6435 75.7107 31.6178 75.8848 31.6605C76.0589 31.7032 76.2099 31.811 76.3069 31.9618C76.4038 32.1126 76.4392 32.2948 76.4058 32.4709C76.3723 32.647 76.2726 32.8035 76.1272 32.9083L71.2482 36.3761L74.8364 34.2999C74.9902 34.2116 75.1717 34.185 75.3444 34.2254C75.517 34.2658 75.6679 34.3702 75.7666 34.5176C75.8652 34.6649 75.9043 34.8442 75.8758 35.0192C75.8474 35.1942 75.7536 35.352 75.6134 35.4605L71.2734 38.7897L73.3342 37.6011C73.4139 37.5505 73.503 37.5164 73.5961 37.5011C73.6893 37.4858 73.7846 37.4895 73.8763 37.5119C73.968 37.5344 74.0542 37.5752 74.1297 37.6318C74.2052 37.6885 74.2685 37.7598 74.3158 37.8415C74.363 37.9233 74.3933 38.0137 74.4046 38.1074C74.416 38.2012 74.4083 38.2962 74.382 38.3869C74.3557 38.4775 74.3113 38.562 74.2516 38.635C74.1918 38.7081 74.1179 38.7683 74.0342 38.8121L62.711 45.3501C62.6041 45.4097 62.4833 45.4396 62.361 45.4369Z" fill="#A9725E"/>
<path d="M19.9033 53.6269C19.7682 53.6269 19.636 53.5878 19.5226 53.5144C19.4093 53.4409 19.3196 53.3362 19.2644 53.213C19.2092 53.0897 19.1908 52.953 19.2115 52.8196C19.2322 52.6861 19.2911 52.5614 19.3811 52.4607L21.9711 49.5641L18.0791 51.8111C17.9262 51.8967 17.7468 51.9219 17.5763 51.8817C17.4058 51.8415 17.2565 51.7388 17.158 51.5938C17.0595 51.4489 17.019 51.2724 17.0444 51.099C17.0697 50.9256 17.1592 50.7681 17.2951 50.6575L17.5107 50.4853C17.358 50.5647 17.1814 50.585 17.0146 50.5425C16.8478 50.4999 16.7026 50.3974 16.6066 50.2545C16.5107 50.1116 16.4707 49.9383 16.4944 49.7678C16.5181 49.5974 16.6038 49.4416 16.7351 49.3303L18.5089 47.8155L17.4421 48.4315C17.2958 48.5159 17.124 48.5446 16.9582 48.5123C16.7925 48.48 16.644 48.3888 16.5402 48.2556C16.4363 48.1225 16.3841 47.9563 16.3932 47.7876C16.4023 47.619 16.472 47.4594 16.5895 47.3381L17.3763 46.5261C17.2546 46.58 17.12 46.598 16.9884 46.5781C16.8568 46.5582 16.7336 46.5012 16.6332 46.4138C16.5328 46.3263 16.4595 46.2121 16.4217 46.0845C16.384 45.9568 16.3834 45.821 16.4201 45.6931L16.7729 44.4695C16.6609 44.4121 16.5664 44.3256 16.4994 44.219C16.4325 44.1125 16.3955 43.9898 16.3923 43.864C16.3892 43.7382 16.42 43.6139 16.4815 43.5041C16.5431 43.3943 16.6331 43.3032 16.7421 43.2403L17.4421 42.8329C17.5629 42.7629 17.7019 42.7307 17.8412 42.7404C17.9805 42.75 18.1137 42.8011 18.2237 42.887C18.3337 42.973 18.4155 43.0899 18.4586 43.2227C18.5017 43.3555 18.5041 43.4981 18.4655 43.6323L18.2401 44.4135L21.0079 42.8147C21.154 42.7313 21.3252 42.7034 21.4902 42.7359C21.6552 42.7685 21.803 42.8593 21.9065 42.9919C22.01 43.1245 22.0623 43.2899 22.0539 43.4579C22.0454 43.6258 21.9768 43.7852 21.8605 43.9067L21.0835 44.7103L24.3959 42.7965C24.547 42.7092 24.7253 42.6815 24.8958 42.7189C25.0663 42.7562 25.2167 42.8559 25.3175 42.9984C25.4183 43.1409 25.4622 43.316 25.4406 43.4892C25.419 43.6624 25.3335 43.8213 25.2009 43.9347L23.4271 45.4509L25.0525 44.5129C25.2053 44.4272 25.3848 44.4021 25.5553 44.4423C25.7258 44.4825 25.8751 44.5852 25.9736 44.7301C26.072 44.875 26.1126 45.0516 26.0872 45.225C26.0618 45.3983 25.9724 45.5559 25.8365 45.6665L25.3185 46.0781C25.4358 46.0626 25.5551 46.0779 25.6648 46.1223C25.7745 46.1667 25.8708 46.2388 25.9443 46.3315C26.0493 46.4604 26.105 46.6225 26.1014 46.7887C26.0978 46.9549 26.0352 47.1144 25.9247 47.2387L23.3333 50.1353L24.9671 49.1931C25.0468 49.1424 25.1359 49.1084 25.229 49.0931C25.3222 49.0778 25.4175 49.0815 25.5092 49.1039C25.6009 49.1264 25.6871 49.1672 25.7626 49.2238C25.8381 49.2804 25.9014 49.3518 25.9487 49.4335C25.9959 49.5152 26.0261 49.6057 26.0375 49.6994C26.0489 49.7931 26.0412 49.8882 26.0149 49.9789C25.9886 50.0695 25.9442 50.1539 25.8844 50.227C25.8247 50.3001 25.7507 50.3603 25.6671 50.4041L20.2477 53.5317C20.1433 53.5933 20.0245 53.6261 19.9033 53.6269Z" fill="#DAAB94"/>
<path d="M34.1102 24.2956C33.9565 24.295 33.8073 24.244 33.6856 24.1502C33.5638 24.0565 33.4763 23.9253 33.4365 23.7769C33.3967 23.6285 33.4068 23.4712 33.4653 23.3291C33.5238 23.187 33.6274 23.0681 33.7602 22.9908L35.7356 21.8498C35.8963 21.7584 36.0866 21.7343 36.2649 21.7828C36.4433 21.8312 36.5953 21.9482 36.6878 22.1083C36.7802 22.2684 36.8055 22.4585 36.7583 22.6372C36.711 22.8159 36.595 22.9687 36.4356 23.0622L34.4602 24.2018C34.3538 24.2632 34.233 24.2956 34.1102 24.2956Z" fill="#EABEA3"/>
<path d="M16.0012 21.0491C15.8461 21.0505 15.6949 21.0003 15.5714 20.9065C15.4479 20.8126 15.3591 20.6804 15.3189 20.5306C15.2786 20.3808 15.2893 20.2218 15.3492 20.0788C15.4091 19.9357 15.5149 19.8165 15.6498 19.7401L21.6768 16.2597C21.8368 16.176 22.0229 16.1573 22.1963 16.2077C22.3697 16.258 22.517 16.3733 22.6073 16.5296C22.6977 16.6859 22.7242 16.8711 22.6812 17.0465C22.6383 17.2218 22.5292 17.3738 22.3768 17.4707L16.3568 20.9511C16.2494 21.0153 16.1265 21.0492 16.0012 21.0491Z" fill="#EABEA3"/>
<path d="M19.6752 45.3502C19.5293 45.3505 19.387 45.3053 19.2681 45.2208C19.1492 45.1363 19.0596 45.0167 19.012 44.8788C18.9643 44.741 18.9609 44.5917 19.0023 44.4518C19.0436 44.3119 19.1276 44.1884 19.2426 44.0986L25.5608 39.1356L16.5854 44.3156C16.4287 44.4037 16.244 44.4282 16.0698 44.3839C15.8955 44.3395 15.745 44.2299 15.6494 44.0776C15.5538 43.9253 15.5205 43.742 15.5563 43.5658C15.5922 43.3896 15.6945 43.234 15.842 43.1312L21.5526 39.256L14.638 43.2474C14.4822 43.3349 14.2988 43.3595 14.1254 43.3162C13.952 43.2729 13.8018 43.1649 13.7055 43.0143C13.6092 42.8638 13.5741 42.6821 13.6074 42.5065C13.6408 42.3309 13.74 42.1747 13.8848 42.07L25.0526 34.1852L12.4932 41.44C12.3352 41.5319 12.1475 41.5583 11.9703 41.5137C11.7931 41.469 11.6403 41.3568 11.5447 41.2011C11.4491 41.0453 11.4182 40.8583 11.4586 40.6801C11.499 40.5018 11.6075 40.3465 11.761 40.2472L15.961 37.5074L11.4082 40.1352C11.3302 40.1839 11.2434 40.2168 11.1528 40.232C11.0621 40.2471 10.9694 40.2443 10.8798 40.2236C10.7902 40.203 10.7056 40.1649 10.6307 40.1115C10.5559 40.0581 10.4923 39.9905 10.4436 39.9126C10.3949 39.8346 10.362 39.7478 10.3468 39.6572C10.3316 39.5665 10.3344 39.4737 10.3551 39.3842C10.3969 39.2033 10.5088 39.0464 10.6662 38.948L16.2312 35.2044L10.4394 38.5462C10.2825 38.633 10.0983 38.6564 9.92477 38.6115C9.75119 38.5665 9.60148 38.4567 9.5065 38.3046C9.41153 38.1526 9.37852 37.9698 9.4143 37.7942C9.45007 37.6185 9.5519 37.4632 9.69879 37.3604L15.3114 33.5804L9.71139 36.8144C9.55348 36.9089 9.36469 36.9375 9.18588 36.8939C9.00707 36.8503 8.85263 36.738 8.75599 36.5814C8.65936 36.4247 8.6283 36.2363 8.66955 36.0569C8.7108 35.8776 8.82103 35.7217 8.97639 35.623L10.9784 34.3098L9.29839 35.2786C9.14119 35.3654 8.95665 35.3884 8.78293 35.343C8.60921 35.2975 8.45959 35.1871 8.36502 35.0344C8.27045 34.8818 8.23816 34.6986 8.27482 34.5228C8.31148 34.3471 8.41429 34.1921 8.56199 34.09L11.0302 32.452L9.07019 33.5888C8.91299 33.6756 8.72845 33.6986 8.55473 33.6532C8.38101 33.6077 8.23139 33.4973 8.13682 33.3446C8.04225 33.192 8.00996 33.0088 8.04662 32.833C8.08328 32.6573 8.18609 32.5023 8.33379 32.4002L9.32779 31.7436L7.84799 32.5976C7.6909 32.6856 7.50592 32.7098 7.33151 32.665C7.15709 32.6201 7.00665 32.5098 6.91147 32.357C6.81628 32.2041 6.78368 32.0204 6.82042 31.8441C6.85717 31.6678 6.96045 31.5125 7.10879 31.4104L9.49019 29.82L6.23239 31.6988C6.07777 31.7867 5.89549 31.8124 5.72258 31.7708C5.54967 31.7292 5.39908 31.6233 5.30142 31.4746C5.20375 31.326 5.16632 31.1458 5.19674 30.9705C5.22716 30.7953 5.32314 30.6382 5.46519 30.5312L14.4616 23.8378L4.91639 29.3496C4.77087 29.4328 4.60031 29.461 4.43573 29.4292C4.27116 29.3973 4.12348 29.3074 4.01957 29.1758C3.91566 29.0443 3.8624 28.8798 3.86949 28.7123C3.87657 28.5449 3.94353 28.3855 4.05819 28.2632L4.79039 27.489C4.65889 27.5506 4.5115 27.5697 4.36863 27.5439C4.22575 27.518 4.09447 27.4483 3.99295 27.3445C3.89144 27.2406 3.82472 27.1078 3.80205 26.9644C3.77937 26.821 3.80185 26.674 3.86639 26.544L5.02279 24.22C4.86033 24.2984 4.67386 24.3111 4.50226 24.2554C4.33066 24.1998 4.18719 24.08 4.10178 23.9211C4.01637 23.7621 3.9956 23.5764 4.04382 23.4025C4.09204 23.2287 4.20552 23.0802 4.36059 22.988L6.33599 21.847C6.46629 21.7703 6.61791 21.7379 6.76817 21.7546C6.91842 21.7713 7.05924 21.8362 7.16955 21.9396C7.27986 22.0429 7.35374 22.1793 7.38013 22.3281C7.40653 22.477 7.38402 22.6304 7.31599 22.7654L6.16099 25.0838L8.26099 23.8714C8.40651 23.7881 8.57706 23.7599 8.74164 23.7918C8.90622 23.8237 9.05389 23.9136 9.1578 24.0451C9.26172 24.1766 9.31497 24.3411 9.30789 24.5086C9.3008 24.6761 9.23384 24.8355 9.11919 24.9578L8.39119 25.7278L24.2112 16.5928C24.3659 16.5028 24.5492 16.4754 24.7234 16.5164C24.8976 16.5573 25.0495 16.6634 25.1479 16.8129C25.2463 16.9624 25.2837 17.1439 25.2525 17.3201C25.2212 17.4963 25.1236 17.6539 24.9798 17.7604L15.9834 24.451L27.497 17.8038C27.6539 17.7181 27.8378 17.6957 28.0107 17.7412C28.1836 17.7868 28.3326 17.8968 28.427 18.0487C28.5214 18.2006 28.554 18.3828 28.5183 18.5581C28.4826 18.7333 28.3811 18.8882 28.2348 18.991L25.8352 20.594L29.002 18.76C29.1594 18.6719 29.3448 18.648 29.5194 18.6933C29.6941 18.7386 29.8445 18.8496 29.9393 19.0031C30.0341 19.1565 30.0659 19.3407 30.0283 19.5171C29.9906 19.6936 29.8862 19.8486 29.737 19.95L28.7374 20.6108L30.1976 19.7708C30.3545 19.6781 30.5416 19.6512 30.7183 19.6957C30.895 19.7403 31.047 19.8528 31.1412 20.0088C31.2371 20.1633 31.2691 20.3491 31.2304 20.5267C31.1917 20.7044 31.0854 20.8601 30.934 20.9608L28.4588 22.5974L31.3036 20.9566C31.4609 20.871 31.645 20.8489 31.8181 20.895C31.9912 20.941 32.1401 21.0516 32.234 21.2041C32.328 21.3566 32.36 21.5392 32.3234 21.7146C32.2868 21.8899 32.1843 22.0445 32.0372 22.1466L30.0198 23.4724L32.222 22.2012C32.3792 22.1101 32.5657 22.0836 32.742 22.1275C32.9184 22.1714 33.0707 22.2821 33.1669 22.4363C33.2631 22.5905 33.2955 22.776 33.2574 22.9537C33.2193 23.1314 33.1136 23.2872 32.9626 23.3884L27.3626 27.1586L33.1376 23.8266C33.2946 23.7371 33.48 23.7118 33.6552 23.756C33.8304 23.8001 33.9818 23.9103 34.0776 24.0634C34.1734 24.2166 34.2063 24.4009 34.1694 24.5777C34.1325 24.7546 34.0287 24.9103 33.8796 25.0124L28.3146 28.7574L37.5966 23.3996C37.7542 23.3128 37.9391 23.29 38.113 23.3359C38.2869 23.3819 38.4365 23.493 38.5307 23.6462C38.6248 23.7995 38.6564 23.9831 38.6188 24.159C38.5812 24.3349 38.4774 24.4896 38.3288 24.591L34.1302 27.328L37.654 25.2924C37.8098 25.2048 37.9932 25.1802 38.1666 25.2235C38.34 25.2669 38.4902 25.3749 38.5865 25.5254C38.6828 25.676 38.7179 25.8577 38.6846 26.0333C38.6512 26.2088 38.552 26.365 38.4072 26.4698L27.2352 34.3574L37.5266 28.42C37.6837 28.3269 37.871 28.2989 38.0484 28.3419C38.2259 28.385 38.3795 28.4957 38.4765 28.6504C38.5735 28.8051 38.6062 28.9916 38.5676 29.1701C38.529 29.3486 38.4222 29.5049 38.27 29.6058L32.5566 33.481L33.3686 33.0134C33.5219 32.9251 33.7029 32.8981 33.8752 32.9379C34.0476 32.9776 34.1985 33.0812 34.2976 33.2277C34.3968 33.3741 34.4368 33.5527 34.4096 33.7275C34.3824 33.9023 34.2901 34.0603 34.1512 34.1698L27.8302 39.1328L32.4838 36.4462C32.6361 36.3559 32.817 36.3266 32.9901 36.3644C33.1631 36.4022 33.3154 36.5041 33.4162 36.6497C33.5171 36.7953 33.559 36.9737 33.5335 37.149C33.5081 37.3242 33.4171 37.4833 33.279 37.5942L30.5378 39.8468C30.6983 39.826 30.8611 39.8615 30.9984 39.9472C31.1357 40.0329 31.239 40.1635 31.2908 40.3168C31.3427 40.4702 31.3398 40.6367 31.2826 40.7881C31.2255 40.9396 31.1176 41.0665 30.9774 41.1474L24.1342 45.0982C23.9821 45.1863 23.8024 45.2139 23.6308 45.1756C23.4592 45.1373 23.3083 45.0358 23.2082 44.8914C23.108 44.7469 23.0658 44.57 23.0901 44.3959C23.1143 44.2218 23.2032 44.0632 23.339 43.9516L25.8296 41.9048L20.0238 45.255C19.9181 45.3171 19.7978 45.35 19.6752 45.3502Z" fill="#EABEA3"/>
<path d="M81.5352 56.3695C78.325 50.9095 72.7488 48.5085 66.6574 48.3895C66.7484 47.0973 66.7078 45.7757 66.6966 44.6375C69.4289 43.6722 71.8131 41.9176 73.5472 39.596C75.2814 37.2744 76.2874 34.4904 76.4378 31.5965C80.8254 31.2087 80.8254 26.1183 80.6798 22.7191C81.5842 16.4723 80.747 5.66151 71.7674 6.54071C74.8152 3.93531 74.6514 0.956105 70.1742 0.767105C64.402 0.0475047 55.2768 -0.218495 50.0898 2.83071C42.744 7.18891 42.4276 15.4307 43.0142 22.8857C42.898 26.3241 43.0002 31.1457 47.2618 31.5937C47.4369 34.4939 48.4507 37.2808 50.18 39.6156C51.9094 41.9504 54.2798 43.7325 57.003 44.7453C56.9904 45.8289 56.9666 47.0483 57.0562 48.2453H26.1162C26.1372 47.0623 26.1162 45.8737 26.1078 44.6921C28.4785 43.7595 30.5271 42.1582 32.0045 40.0828C33.4819 38.0074 34.3243 35.5475 34.4294 33.0021C38.789 32.6493 38.7694 27.7171 38.684 24.3725C38.684 16.7467 35.9036 11.1327 30.3064 8.27251C31.0064 -1.9853 11.622 -1.5709 12.175 8.27251C6.52323 11.1999 3.81563 16.9581 3.81563 24.6301C3.70923 28.0153 3.97943 32.5359 8.09543 32.9867C8.29616 35.4997 9.17304 37.9115 10.6331 39.9665C12.0932 42.0216 14.0821 43.6434 16.389 44.6599C16.3694 45.8233 16.3316 47.1225 16.4324 48.3783C1.04083 49.8399 0.195232 64.5679 0.867232 77.0615C1.37963 86.6025 14.9246 83.2999 21.6838 83.2999C27.8928 83.2999 40.5936 86.2861 41.6324 77.6089C42.352 71.6043 42.3058 64.8969 40.3724 59.4089C44.7768 59.0337 49.5298 58.1671 48.4182 64.2291C48.4182 68.6839 47.5782 73.9843 48.4182 78.3691C49.989 86.5661 65.4114 83.2383 71.325 83.2383C73.943 83.2383 78.2242 83.9845 80.7694 82.7749C84.6026 80.9549 83.687 76.1543 83.687 72.7033C83.6898 67.2545 84.4178 61.2653 81.5352 56.3695ZM58.536 2.0327C62.5092 1.9627 66.8408 1.8675 70.751 2.0327C72.837 3.77851 71.2942 5.10431 70.1028 6.17391H66.0736C65.2784 6.17391 65.1216 7.82871 66.026 7.82871C67.5515 7.92627 69.0829 7.86998 70.597 7.66071C78.2172 7.91131 79.1104 13.8053 79.2056 19.6503C78.8731 19.3724 78.4882 19.1641 78.0736 19.0379C77.6591 18.9117 77.2234 18.8701 76.7925 18.9155C76.3615 18.961 75.9441 19.0926 75.565 19.3025C75.1859 19.5124 74.8528 19.7964 74.5856 20.1375C73.2444 16.8531 69.4504 16.9175 66.5118 16.1489C65.0446 15.6393 63.4024 13.8501 61.798 13.8389C60.4134 13.8305 58.9742 15.4321 57.7632 15.9109C54.7014 16.9161 50.4384 16.6235 49.0832 20.1991C48.559 19.519 47.7896 19.0709 46.9394 18.9505C46.0892 18.8302 45.2256 19.0472 44.5332 19.5551C44.837 10.5181 47.0434 2.8153 58.536 2.0327ZM48.4784 30.7593C48.4876 30.6618 48.4771 30.5635 48.4476 30.4702C48.4181 30.3768 48.3701 30.2904 48.3065 30.216C48.2429 30.1415 48.165 30.0806 48.0774 30.0369C47.9898 29.9931 47.8943 29.9674 47.7966 29.9613C43.7786 29.8927 44.2966 25.5289 44.2728 22.7317C44.5206 22.5287 44.4842 22.1941 44.4856 21.9015C45.3382 20.0997 48.3412 19.6615 48.6212 22.4405C48.6212 22.9851 48.9586 23.2175 49.2834 23.1741C49.6152 23.1741 49.9344 22.9081 49.8784 22.3593C50.0786 19.3185 53.853 18.6843 56.1182 18.1691C58.1804 17.6007 59.768 16.5171 61.896 16.5255C64.6484 16.5367 73.8212 19.2793 73.8212 22.4405C73.8212 22.9753 74.146 23.2105 74.4666 23.1797C74.7466 23.2315 75.0266 23.0789 75.07 22.5847C75.0811 22.085 75.2671 21.6051 75.5956 21.2284C75.9241 20.8518 76.3744 20.6023 76.868 20.5235C77.3615 20.4447 77.8671 20.5416 78.2965 20.7973C78.726 21.0529 79.0522 21.4511 79.2182 21.9225C79.2434 22.2655 79.102 22.7443 79.4632 22.9305C79.3596 25.7585 79.8412 29.9165 75.7966 29.9613C75.3598 29.9613 75.1974 30.4135 75.2212 30.8405C74.7018 47.9989 48.8298 48.0031 48.4784 30.7593ZM61.903 45.6399C63.0955 45.5717 64.2771 45.3741 65.4268 45.0505C65.5215 46.458 65.4708 47.8716 65.2756 49.2687C65.175 50.1522 64.7402 50.9637 64.0606 51.5369C63.3809 52.1102 62.5077 52.4019 61.6199 52.3521C60.7321 52.3023 59.897 51.915 59.2856 51.2693C58.6743 50.6237 58.333 49.7687 58.3316 48.8795C58.3548 48.806 58.3625 48.7286 58.3543 48.6519C58.3461 48.5753 58.3222 48.5013 58.284 48.4343C58.216 47.3397 58.2123 46.2421 58.2728 45.1471C59.4564 45.4683 60.6767 45.6339 61.903 45.6399ZM28.9498 7.65231C26.4521 6.67671 23.7912 6.18681 21.1098 6.20891V6.17391C18.5058 6.21724 15.9299 6.7201 13.5008 7.65931C13.596 0.495505 28.1938 0.485705 28.9498 7.65231ZM21.0692 7.83431C31.026 8.18711 36.381 13.3209 37.27 21.9617C36.961 21.7657 36.6129 21.6393 36.2501 21.5914C35.8872 21.5435 35.5183 21.5752 35.1689 21.6844C34.8196 21.7935 34.4982 21.9774 34.2271 22.2233C33.956 22.4692 33.7418 22.7712 33.5992 23.1083C26.0742 11.1523 17.6308 16.7845 9.12163 23.8909C9.06451 23.4635 8.90396 23.0565 8.65392 22.7052C8.40388 22.3539 8.0719 22.0689 7.68678 21.875C7.30166 21.6811 6.87503 21.584 6.44392 21.5923C6.01281 21.6006 5.59022 21.7139 5.21283 21.9225C6.02203 13.3279 11.2454 8.20951 21.0664 7.83991L21.0692 7.83431ZM9.27283 32.1061C9.23363 31.5251 8.91303 31.4299 8.52523 31.3697C4.93003 31.3403 4.95383 27.4175 5.08403 24.8247C5.72383 22.5161 8.17103 23.0369 8.10663 25.4645C8.22843 25.9531 8.61763 26.2611 9.01523 25.9209C12.4648 23.6095 15.85 20.9061 19.4956 18.9363C24.7596 16.0929 31.3648 20.1123 33.2828 25.5163C33.4382 25.9573 33.7224 26.0623 33.9744 25.9811C34.2446 25.9937 34.484 25.8145 34.484 25.3357C34.484 23.3757 36.7534 22.3957 37.4128 24.5643C37.4926 25.3257 37.4926 26.0933 37.4128 26.8547C37.4128 29.1787 36.4636 31.3753 33.7224 31.3753C33.3752 31.3753 33.2254 31.6777 33.2212 32.0235C33.2618 47.4599 10.1114 47.4599 9.27283 32.1061ZM21.3744 45.6301C22.5453 45.6173 23.709 45.4459 24.8338 45.1205C24.9094 47.7315 25.2678 51.5283 21.9428 52.2941C19.4816 52.8331 18.0466 51.1167 17.761 49.0251C17.8078 48.8784 17.7958 48.7193 17.7274 48.5813C17.663 47.4305 17.719 46.2713 17.7022 45.1163C18.8953 45.4631 20.132 45.6361 21.3744 45.6301ZM40.0672 77.0615C39.4344 80.5755 36.64 81.8313 33.2786 82.1925V67.3399C33.2786 66.4999 31.621 66.2563 31.621 67.0739V82.3087C23.76 81.7739 18.944 82.2121 10.775 82.3689V67.0389C8.20603 62.9383 9.68303 80.9059 9.32463 82.2317C0.212032 81.6199 1.92003 73.2367 2.43383 66.7379C2.55003 57.8787 7.02163 50.5511 16.613 49.7279C17.075 55.2621 25.314 55.4203 26.0182 49.7769C39.153 51.2399 42.0958 65.7873 40.0672 77.0615ZM82.0098 77.4199C80.7806 81.6381 78.2928 82.0399 75.1372 82.0189V66.9325C72.6956 63.2925 74.0858 80.6525 73.7512 81.9951C68.4424 81.9349 63.1112 81.9951 57.8038 81.9713C53.7774 81.9713 51.0838 81.2601 50.0786 76.8095C49.219 72.9791 50.0786 67.9713 50.0786 64.0401C50.0786 62.3965 50.6386 59.7995 49.1952 58.6249C47.2618 57.0667 42.1812 58.1671 39.8894 58.1811C38.4526 54.4363 35.5967 51.4093 31.9416 49.7573H57.2396C57.7632 55.4581 66.1702 55.4651 66.5104 49.6537C81.573 49.8245 83.7528 65.5633 82.0098 77.4199Z" fill="#262626"/>
<path d="M23.5686 37.394C23.2926 37.7227 22.9462 37.9851 22.5551 38.1618C22.1639 38.3385 21.7381 38.425 21.309 38.4149C20.8799 38.4048 20.4586 38.2984 20.0762 38.1035C19.6938 37.9086 19.3601 37.6303 19.0998 37.289C18.5258 36.589 17.2952 37.7006 17.7992 38.311C18.2051 38.8186 18.7218 39.2266 19.3097 39.5036C19.8976 39.7807 20.5411 39.9196 21.1909 39.9096C21.8408 39.8996 22.4797 39.741 23.0588 39.446C23.6379 39.1509 24.1417 38.7272 24.5318 38.2074C25.1954 37.401 24.2378 36.5834 23.5686 37.394Z" fill="#262626"/>
<path d="M64.1238 36.0235C63.8597 36.3552 63.5226 36.6215 63.1387 36.8014C62.7548 36.9814 62.3345 37.0702 61.9106 37.061C61.4867 37.0518 61.0707 36.9448 60.695 36.7483C60.3192 36.5518 59.994 36.2712 59.7446 35.9283C59.2084 35.2773 57.8266 36.2321 58.3544 36.8719C58.7711 37.3772 59.2961 37.7824 59.8905 38.0576C60.4848 38.3327 61.1334 38.4709 61.7883 38.4617C62.4432 38.4526 63.0877 38.2964 63.6742 38.0048C64.2607 37.7131 64.7741 37.2934 65.1766 36.7767C65.871 35.9353 64.7398 35.2801 64.1238 36.0235Z" fill="#262626"/>
</g>
<defs>
<clipPath id="clip0_823_1251">
<rect width="84" height="84" fill="white" transform="translate(0.25)"/>
</clipPath>
</defs>
</svg>
