<svg width="85" height="84" viewBox="0 0 85 84" fill="none" xmlns="http://www.w3.org/2000/svg">
<path d="M38.3142 83.2595C38.1629 83.2595 38.0156 83.2106 37.8944 83.1199C37.7732 83.0292 37.6847 82.9016 37.6421 82.7564C37.5996 82.6111 37.6052 82.456 37.6582 82.3143C37.7112 82.1725 37.8088 82.0517 37.9362 81.9701L42.1796 79.2485L35.3966 83.1685C35.2393 83.258 35.0534 83.283 34.878 83.2384C34.7026 83.1938 34.5513 83.083 34.4558 82.9292C34.3603 82.7754 34.3282 82.5906 34.366 82.4136C34.4039 82.2366 34.5088 82.0812 34.6588 81.9799L46.5588 74.0853L30.8214 83.1601C30.6648 83.2459 30.4813 83.2687 30.3085 83.2236C30.1356 83.1786 29.9866 83.0692 29.8917 82.9179C29.7969 82.7665 29.7635 82.5847 29.7984 82.4095C29.8333 82.2343 29.9338 82.0791 30.0794 81.9757L45.9512 71.2125L25.2578 83.1601C25.1004 83.2481 24.915 83.272 24.7404 83.2267C24.5658 83.1814 24.4154 83.0705 24.3206 82.917C24.2258 82.7635 24.1939 82.5793 24.2316 82.4029C24.2692 82.2265 24.3736 82.0714 24.5228 81.9701L37.6394 73.3783L20.6966 83.1601C20.5388 83.2483 20.353 83.2719 20.1781 83.2262C20.0032 83.1805 19.8528 83.0688 19.7583 82.9147C19.6639 82.7605 19.6327 82.5758 19.6714 82.3992C19.7101 82.2226 19.8156 82.0678 19.9658 81.9673L31.1 74.7699L16.5666 83.1601C16.409 83.2514 16.222 83.2778 16.0453 83.2335C15.8686 83.1892 15.7161 83.0778 15.6203 82.9228C15.5244 82.7679 15.4927 82.5818 15.5319 82.4039C15.5711 82.226 15.6781 82.0703 15.8302 81.9701L29.8162 72.7623L11.8836 83.1181C11.7263 83.2076 11.5404 83.2326 11.365 83.188C11.1896 83.1434 11.0383 83.0326 10.9428 82.8788C10.8473 82.725 10.8152 82.5402 10.853 82.3632C10.8909 82.1862 10.9958 82.0308 11.1458 81.9295L26.6522 71.5695L10.6922 80.7871C10.5355 80.8752 10.3509 80.8997 10.1766 80.8553C10.0023 80.811 9.8518 80.7014 9.75621 80.5491C9.66062 80.3968 9.6273 80.2135 9.66317 80.0373C9.69903 79.8611 9.80131 79.7055 9.94883 79.6027L23.5288 70.3711L10.6922 77.7813C10.5361 77.8725 10.3507 77.8997 10.175 77.8573C9.99919 77.8149 9.84665 77.7061 9.74929 77.5537C9.65194 77.4014 9.61732 77.2172 9.65268 77.0399C9.68805 76.8626 9.79066 76.7058 9.93903 76.6025L21.2426 68.6477L11.0002 74.5613C10.8431 74.6493 10.6582 74.6735 10.4837 74.6286C10.3093 74.5838 10.1589 74.4735 10.0637 74.3207C9.96852 74.1678 9.93592 73.9841 9.97267 73.8078C10.0094 73.6315 10.1127 73.4762 10.261 73.3741L13.2164 71.4001L11.6274 72.3171C11.4718 72.4037 11.289 72.4278 11.1163 72.3844C10.9436 72.3411 10.7939 72.2335 10.6977 72.0836C10.6015 71.9337 10.5661 71.7527 10.5986 71.5776C10.6311 71.4025 10.7292 71.2464 10.8728 71.1411L14.6752 68.4517L12.879 69.4877C12.7274 69.5746 12.5488 69.6016 12.3783 69.5635C12.2077 69.5254 12.0576 69.4248 11.9574 69.2817C11.8572 69.1385 11.8142 68.963 11.8368 68.7898C11.8595 68.6165 11.9461 68.4579 12.0796 68.3453L15.9268 65.1365C15.7922 65.1019 15.6709 65.028 15.5785 64.9242C15.486 64.8204 15.4265 64.6915 15.4076 64.5538C15.3887 64.4161 15.4112 64.2759 15.4722 64.151C15.5333 64.0262 15.6301 63.9223 15.7504 63.8527L21.3742 60.6047C21.526 60.5174 21.705 60.4902 21.8758 60.5284C22.0467 60.5666 22.1971 60.6674 22.2972 60.811C22.3974 60.9546 22.4401 61.1305 22.417 61.304C22.3939 61.4776 22.3065 61.6361 22.1722 61.7485L19.2238 64.2069L27.1296 59.6401C27.2853 59.5513 27.4691 59.5256 27.6432 59.5682C27.8173 59.6109 27.9684 59.7188 28.0653 59.8696C28.1622 60.0203 28.1976 60.2025 28.1642 60.3786C28.1308 60.5547 28.0311 60.7113 27.8856 60.8161L24.079 63.5083L30.7822 59.6401C30.939 59.5553 31.1221 59.5335 31.2943 59.5791C31.4666 59.6247 31.615 59.7343 31.7092 59.8855C31.8035 60.0367 31.8365 60.2182 31.8016 60.3929C31.7667 60.5676 31.6665 60.7225 31.5214 60.8259L28.5646 62.8041L34.0512 59.6401C34.207 59.5525 34.3904 59.5279 34.5638 59.5712C34.7372 59.6146 34.8874 59.7226 34.9837 59.8731C35.0801 60.0237 35.1151 60.2054 35.0818 60.3809C35.0485 60.5565 34.9492 60.7127 34.8044 60.8175L23.5022 68.7695L39.3222 59.6373C39.4787 59.5502 39.6626 59.5265 39.8361 59.5709C40.0096 59.6153 40.1594 59.7245 40.2548 59.8761C40.3502 60.0276 40.3839 60.2099 40.349 60.3856C40.3141 60.5612 40.2132 60.7168 40.067 60.8203L26.487 70.0533L44.5288 59.6401C44.6859 59.552 44.8709 59.5279 45.0453 59.5727C45.2197 59.6175 45.3702 59.7278 45.4654 59.8807C45.5605 60.0336 45.5931 60.2172 45.5564 60.3935C45.5196 60.5698 45.4164 60.7252 45.268 60.8273L29.7602 71.1803L49.7578 59.6401C49.9153 59.552 50.1007 59.5281 50.2753 59.5734C50.4499 59.6187 50.6003 59.7297 50.6951 59.8832C50.7899 60.0366 50.8218 60.2208 50.7841 60.3972C50.7464 60.5736 50.6421 60.7287 50.4928 60.8301L36.5068 70.0393L54.5206 59.6401C54.6783 59.5545 54.8628 59.5327 55.0361 59.5792C55.2094 59.6258 55.3582 59.737 55.4518 59.8901C55.5453 60.0432 55.5766 60.2263 55.5391 60.4017C55.5015 60.5772 55.3981 60.7315 55.25 60.8329L44.12 68.0275L58.4868 59.7339C58.6445 59.6442 58.8309 59.6193 59.0066 59.6643C59.1824 59.7094 59.3337 59.8209 59.4288 59.9754C59.524 60.1299 59.5554 60.3152 59.5165 60.4924C59.4776 60.6696 59.3715 60.8248 59.2204 60.9253L46.1052 69.5143L62.0288 60.3219C62.1858 60.2324 62.3713 60.2071 62.5465 60.2513C62.7217 60.2954 62.873 60.4056 62.9688 60.5587C63.0647 60.7119 63.0976 60.8962 63.0607 61.073C63.0238 61.2499 62.9199 61.4056 62.7708 61.5077L46.8962 72.2681L65.3216 61.6281C65.4792 61.5367 65.6662 61.5104 65.8429 61.5546C66.0196 61.5989 66.1721 61.7104 66.268 61.8653C66.3639 62.0202 66.3955 62.2064 66.3563 62.3843C66.3171 62.5622 66.2101 62.7178 66.058 62.8181L54.165 70.7099L67.5266 63.0001C67.685 62.9072 67.8736 62.8804 68.0516 62.9252C68.2297 62.9701 68.3829 63.0831 68.4784 63.2399C68.5739 63.3968 68.604 63.5848 68.5621 63.7636C68.5202 63.9424 68.4098 64.0975 68.2546 64.1957L64.0056 66.9201L68.872 64.1103C69.0304 64.0174 69.219 63.9906 69.397 64.0354C69.5751 64.0803 69.7284 64.1933 69.8238 64.3501C69.9193 64.507 69.9494 64.695 69.9075 64.8738C69.8657 65.0526 69.7552 65.2077 69.6 65.3059L66.8602 67.0601L69.992 65.2527C70.1486 65.1631 70.3338 65.1375 70.5088 65.1812C70.6838 65.2248 70.8352 65.3344 70.9315 65.4869C71.0277 65.6395 71.0613 65.8233 71.0253 66.0001C70.9893 66.1769 70.8865 66.3329 70.7382 66.4357L60.9718 73.1627L71.4802 67.0965C71.6367 67.0054 71.8224 66.9785 71.9983 67.0214C72.1742 67.0644 72.3266 67.1738 72.4235 67.3267C72.5205 67.4796 72.5544 67.6642 72.5181 67.8416C72.4819 68.0189 72.3784 68.1754 72.2292 68.2781L64.6356 73.5477L72.5134 69.0005C72.668 68.9126 72.8503 68.8868 73.0232 68.9284C73.1962 68.9701 73.3467 69.076 73.4444 69.2246C73.5421 69.3732 73.5795 69.5535 73.5491 69.7287C73.5187 69.904 73.4227 70.061 73.2806 70.1681L65.5652 75.9081L73.4472 71.3567C73.6 71.2699 73.7797 71.2438 73.9508 71.2834C74.1219 71.3231 74.2719 71.4256 74.3709 71.5706C74.47 71.7157 74.5109 71.8927 74.4855 72.0665C74.4602 72.2403 74.3704 72.3982 74.234 72.5089L68.2602 77.2801L74.066 73.9285C74.2205 73.8393 74.4032 73.8125 74.5768 73.8535C74.7504 73.8945 74.9018 74.0002 75.0001 74.149C75.0984 74.2979 75.1361 74.4787 75.1056 74.6544C75.0751 74.8301 74.9787 74.9876 74.836 75.0947L73.555 76.0523L74.241 75.6561C74.39 75.5752 74.5632 75.551 74.7286 75.5882C74.8939 75.6253 75.0402 75.7212 75.1402 75.858C75.2403 75.9948 75.2873 76.1632 75.2725 76.3321C75.2578 76.5009 75.1823 76.6587 75.06 76.7761L73.002 78.6311L74.3166 77.8737C74.4596 77.7911 74.6273 77.7617 74.7898 77.7908C74.9524 77.8198 75.0995 77.9054 75.205 78.0324C75.3106 78.1594 75.3679 78.3197 75.3667 78.4848C75.3655 78.65 75.306 78.8094 75.1986 78.9349L74.3586 79.9149C74.5215 79.8383 74.7076 79.8275 74.8782 79.8845C75.0489 79.9415 75.191 80.0621 75.2751 80.2211C75.3593 80.3802 75.3789 80.5655 75.33 80.7387C75.2811 80.9119 75.1674 81.0595 75.0124 81.1511L71.5264 83.1601C71.3836 83.241 71.2169 83.2691 71.0554 83.2396C70.8939 83.21 70.7479 83.1246 70.643 82.9984C70.5381 82.8721 70.4809 82.713 70.4814 82.5488C70.4819 82.3846 70.5401 82.2259 70.6458 82.1003L71.476 81.1203L67.9536 83.1601C67.8047 83.241 67.6315 83.2651 67.4661 83.228C67.3007 83.1908 67.1545 83.095 67.0544 82.9582C66.9544 82.8214 66.9074 82.6529 66.9221 82.4841C66.9369 82.3152 67.0124 82.1575 67.1346 82.0401L69.1912 80.1837L64.0266 83.1601C63.8721 83.2492 63.6894 83.276 63.5159 83.2351C63.3423 83.1941 63.1909 83.0883 63.0926 82.9395C62.9943 82.7906 62.9565 82.6099 62.987 82.4341C63.0175 82.2584 63.114 82.1009 63.2566 81.9939L64.5166 81.0489L60.8612 83.1601C60.7086 83.2453 60.5295 83.2703 60.3593 83.2301C60.1892 83.1899 60.0402 83.0876 59.9417 82.9431C59.8432 82.7986 59.8024 82.6225 59.8272 82.4494C59.852 82.2764 59.9407 82.1188 60.0758 82.0079L66.0636 77.2311L55.7932 83.1601C55.6386 83.248 55.4563 83.2737 55.2834 83.2321C55.1105 83.1905 54.9599 83.0846 54.8623 82.9359C54.7646 82.7873 54.7272 82.607 54.7576 82.4318C54.788 82.2566 54.884 82.0995 55.026 81.9925L62.7442 76.2525L50.784 83.1601C50.6279 83.2473 50.4442 83.2715 50.2708 83.2276C50.0974 83.1837 49.9474 83.0751 49.8516 82.9241C49.7557 82.7731 49.7213 82.5911 49.7554 82.4155C49.7896 82.2399 49.8896 82.084 50.035 81.9799L57.6328 76.7047L46.4496 83.1601C46.2934 83.2461 46.1101 83.2693 45.9374 83.2248C45.7646 83.1803 45.6153 83.0715 45.5201 82.9207C45.4248 82.7698 45.3907 82.5883 45.4248 82.4132C45.4589 82.2381 45.5585 82.0826 45.7034 81.9785L55.4628 75.2585L41.7708 83.1601C41.6127 83.2501 41.4258 83.275 41.2497 83.2295C41.0735 83.1841 40.922 83.0718 40.8272 82.9166C40.7323 82.7613 40.7017 82.5753 40.7417 82.3978C40.7817 82.2204 40.8892 82.0654 41.0414 81.9659L43.7966 80.1977L38.6642 83.1601C38.5584 83.2235 38.4376 83.2578 38.3142 83.2595Z" fill="#4C4C4C"/>
<path d="M40.3022 83.2622C40.1553 83.2622 40.0121 83.216 39.8929 83.1301C39.7737 83.0442 39.6846 82.923 39.6381 82.7836C39.5917 82.6442 39.5902 82.4937 39.634 82.3535C39.6778 82.2133 39.7647 82.0904 39.8822 82.0022L44.6002 78.5162L36.8862 82.9654C36.7308 83.0546 36.5472 83.0808 36.3731 83.0387C36.199 82.9965 36.0477 82.8893 35.9503 82.739C35.8529 82.5886 35.8168 82.4067 35.8495 82.2306C35.8822 82.0545 35.9812 81.8976 36.126 81.7922L44.0766 76.0522L34.677 81.48C34.5204 81.5659 34.3369 81.5886 34.164 81.5436C33.9912 81.4986 33.8421 81.3892 33.7473 81.2378C33.6525 81.0865 33.6191 80.9046 33.654 80.7294C33.6889 80.5543 33.7894 80.3991 33.935 80.2956L39.535 76.5016L33.4156 80.0338C33.258 80.1252 33.071 80.1515 32.8943 80.1072C32.7176 80.0629 32.5651 79.9515 32.4692 79.7966C32.3734 79.6417 32.3417 79.4555 32.3809 79.2776C32.4201 79.0997 32.5271 78.9441 32.6792 78.8438L36.3976 76.3896L32.5126 78.6296C32.3567 78.7195 32.1722 78.7459 31.9973 78.7033C31.8224 78.6608 31.6707 78.5525 31.5736 78.4009C31.4765 78.2494 31.4415 78.0663 31.4758 77.8896C31.5101 77.713 31.6112 77.5563 31.758 77.4522L43.7448 68.9612L31.3702 76.1012C31.2129 76.1907 31.027 76.2158 30.8516 76.1712C30.6761 76.1266 30.5248 76.0157 30.4294 75.8619C30.3339 75.7082 30.3017 75.5234 30.3396 75.3464C30.3774 75.1694 30.4824 75.0139 30.6324 74.9126L35.0116 72.0062L30.8312 74.4184C30.6746 74.5043 30.4911 74.527 30.3182 74.482C30.1454 74.437 29.9963 74.3276 29.9015 74.1762C29.8067 74.0249 29.7733 73.843 29.8082 73.6678C29.8431 73.4927 29.9436 73.3375 30.0892 73.234L34.1142 70.504L30.3496 72.6768C30.1966 72.7629 30.0168 72.7883 29.8459 72.7481C29.6749 72.7078 29.5254 72.6047 29.4269 72.4594C29.3284 72.314 29.2882 72.1369 29.3141 71.9633C29.3401 71.7896 29.4303 71.6321 29.567 71.5218L36.9688 65.6936L29.7602 69.86C29.6071 69.9477 29.4265 69.9744 29.2546 69.9347C29.0827 69.895 28.9321 69.7918 28.833 69.6458C28.7339 69.4998 28.6936 69.3218 28.7202 69.1473C28.7467 68.9729 28.8382 68.8149 28.9762 68.705L32.7926 65.6992L29.4144 67.648C29.2607 67.7345 29.08 67.7598 28.9084 67.7188C28.7369 67.6778 28.5871 67.5736 28.4891 67.4269C28.3911 67.2803 28.3521 67.102 28.3798 66.9278C28.4076 66.7536 28.5001 66.5964 28.6388 66.4874L29.1288 66.1108C28.9831 66.169 28.822 66.1764 28.6715 66.1321C28.521 66.0877 28.3898 65.9941 28.2989 65.8662C28.208 65.7383 28.1627 65.5836 28.1702 65.4269C28.1778 65.2702 28.2378 65.1206 28.3406 65.002L30.134 62.9426L29.014 63.5908C28.8967 63.6586 28.7622 63.6909 28.6269 63.6838C28.4916 63.6766 28.3613 63.6304 28.2518 63.5507C28.1422 63.4709 28.0582 63.3611 28.0099 63.2345C27.9615 63.108 27.9509 62.9701 27.9794 62.8376L28.3098 61.2976C28.1862 61.2505 28.0785 61.1692 27.9992 61.0634C27.9199 60.9575 27.8722 60.8313 27.8616 60.6994C27.8511 60.5676 27.8781 60.4354 27.9396 60.3183C28.0011 60.2012 28.0945 60.1038 28.209 60.0376L28.909 59.6358C29.0263 59.5676 29.161 59.535 29.2965 59.5419C29.4321 59.5488 29.5627 59.595 29.6725 59.6748C29.7822 59.7546 29.8665 59.8646 29.9148 59.9914C29.9632 60.1182 29.9737 60.2564 29.945 60.389L29.686 61.5874L33.081 59.6274C33.2244 59.545 33.3924 59.516 33.5552 59.5456C33.7179 59.5752 33.865 59.6615 33.9702 59.7892C34.0754 59.9168 34.1319 60.0776 34.1298 60.2431C34.1278 60.4085 34.0672 60.5678 33.9588 60.6928L32.164 62.7494L37.5862 59.6204C37.74 59.5321 37.9215 59.5055 38.0942 59.5459C38.2668 59.5863 38.4177 59.6907 38.5164 59.8381C38.615 59.9854 38.6541 60.1647 38.6256 60.3397C38.5972 60.5148 38.5034 60.6725 38.3632 60.781L37.911 61.1282L40.5318 59.6162C40.6849 59.5285 40.8655 59.5018 41.0374 59.5416C41.2093 59.5813 41.3599 59.6845 41.459 59.8305C41.5581 59.9764 41.5984 60.1545 41.5718 60.3289C41.5453 60.5033 41.4538 60.6613 41.3158 60.7712L37.4966 63.7798L44.7206 59.6092C44.8737 59.5215 45.0543 59.4948 45.2262 59.5346C45.3981 59.5743 45.5487 59.6775 45.6478 59.8235C45.7469 59.9695 45.7872 60.1475 45.7606 60.3219C45.7341 60.4963 45.6426 60.6543 45.5046 60.7642L38.1042 66.591L50.2002 59.6022C50.3572 59.5128 50.5426 59.4875 50.7178 59.5316C50.893 59.5758 51.0444 59.6859 51.1402 59.8391C51.236 59.9922 51.2689 60.1765 51.232 60.3534C51.1951 60.5302 51.0913 60.686 50.9422 60.788L46.92 63.5152L53.7002 59.5966C53.8578 59.5052 54.0448 59.4789 54.2215 59.5232C54.3982 59.5675 54.5507 59.6789 54.6466 59.8338C54.7424 59.9888 54.7741 60.1749 54.7349 60.3528C54.6957 60.5307 54.5887 60.6864 54.4366 60.7866L50.0602 63.7L56.097 60.2154C56.2529 60.1255 56.4375 60.0991 56.6123 60.1417C56.7872 60.1843 56.9389 60.2926 57.036 60.4441C57.1331 60.5956 57.1681 60.7787 57.1338 60.9554C57.0995 61.1321 56.9984 61.2887 56.8516 61.3928L44.8662 69.8824L55.8912 63.518C56.0488 63.4266 56.2358 63.4003 56.4125 63.4446C56.5892 63.4889 56.7417 63.6003 56.8376 63.7552C56.9334 63.9102 56.9651 64.0963 56.9259 64.2742C56.8867 64.4521 56.7797 64.6078 56.6276 64.708L52.9162 67.158L55.6602 65.5746C55.8172 65.4852 56.0026 65.4599 56.1778 65.504C56.353 65.5482 56.5044 65.6583 56.6002 65.8115C56.696 65.9646 56.7289 66.1489 56.692 66.3258C56.6551 66.5026 56.5513 66.6584 56.4022 66.7604L50.7798 70.56L55.2752 67.9672C55.4306 67.8781 55.6142 67.8519 55.7883 67.894C55.9624 67.9361 56.1137 68.0434 56.2111 68.1937C56.3085 68.344 56.3446 68.526 56.3119 68.7021C56.2792 68.8782 56.1803 69.0351 56.0354 69.1404L48.089 74.8804L54.5822 71.134C54.737 71.0453 54.9199 71.0191 55.0934 71.0607C55.2668 71.1023 55.4179 71.2086 55.5157 71.3578C55.6135 71.5071 55.6505 71.688 55.6194 71.8637C55.5882 72.0394 55.4911 72.1965 55.348 72.303L50.637 75.7862L53.675 74.0334C53.8284 73.9463 54.009 73.9204 54.1808 73.9607C54.3525 74.0011 54.5027 74.1048 54.6012 74.2511C54.6997 74.3974 54.7394 74.5756 54.7123 74.7499C54.6851 74.9242 54.5932 75.0818 54.4548 75.1912L52.3142 76.86L52.4654 76.7732C52.6143 76.6933 52.787 76.67 52.9518 76.7075C53.1165 76.745 53.2621 76.8408 53.3618 76.9773C53.4614 77.1138 53.5083 77.2817 53.4938 77.45C53.4793 77.6183 53.4045 77.7758 53.283 77.8932L51.134 79.821C51.2344 79.8861 51.3165 79.9759 51.3723 80.0817C51.4282 80.1876 51.456 80.306 51.453 80.4257C51.4501 80.5453 51.4165 80.6622 51.3555 80.7652C51.2945 80.8681 51.2081 80.9538 51.1046 81.0138L47.3848 83.16C47.2359 83.2399 47.0632 83.2633 46.8984 83.2258C46.7337 83.1882 46.5881 83.0924 46.4884 82.9559C46.3888 82.8195 46.3419 82.6516 46.3564 82.4832C46.3709 82.3149 46.4457 82.1575 46.5672 82.04L47.3428 81.34L44.1802 83.16C44.0268 83.2471 43.8462 83.2731 43.6744 83.2327C43.5027 83.1924 43.3526 83.0886 43.254 82.9423C43.1555 82.796 43.1158 82.6179 43.1429 82.4436C43.1701 82.2693 43.262 82.1117 43.4004 82.0022L45.5466 80.3348L40.6466 83.1614C40.5427 83.2248 40.4239 83.2596 40.3022 83.2622Z" fill="white"/>
<path d="M35.937 52.5616C35.7869 52.5612 35.6409 52.5125 35.5206 52.4229C35.4003 52.3332 35.312 52.2072 35.2687 52.0635C35.2254 51.9199 35.2294 51.7661 35.2802 51.6248C35.3309 51.4836 35.4257 51.3624 35.5506 51.2792L46.2606 44.1574L34.341 51.0398C34.1825 51.1304 33.9949 51.1554 33.8181 51.1097C33.6414 51.0639 33.4895 50.9509 33.3949 50.7948C33.3004 50.6386 33.2705 50.4517 33.3118 50.2739C33.353 50.096 33.4621 49.9413 33.6158 49.8428L35.7634 48.4862L33.8174 49.6062C33.7392 49.6546 33.6523 49.6872 33.5616 49.7021C33.4709 49.7169 33.3781 49.7138 33.2886 49.6928C33.1991 49.6718 33.1146 49.6334 33.0399 49.5797C32.9653 49.5261 32.9019 49.4582 32.8535 49.3801C32.805 49.3019 32.7724 49.215 32.7576 49.1243C32.7427 49.0336 32.7459 48.9408 32.7669 48.8513C32.8093 48.6705 32.9218 48.514 33.0796 48.4162L47.1202 39.1006L32.458 47.5608C32.2996 47.6536 32.111 47.6805 31.933 47.6356C31.7549 47.5908 31.6017 47.4777 31.5062 47.3209C31.4107 47.1641 31.3806 46.976 31.4225 46.7972C31.4643 46.6185 31.5748 46.4633 31.73 46.3652L41.3634 40.166L30.7934 46.2686C30.6357 46.3582 30.4493 46.3832 30.2736 46.3381C30.0978 46.2931 29.9465 46.1815 29.8514 46.0271C29.7562 45.8726 29.7248 45.6872 29.7637 45.51C29.8026 45.3328 29.9087 45.1777 30.0598 45.0772L44.7668 35.4466L28.6402 44.7566C28.5618 44.8048 28.4748 44.837 28.384 44.8516C28.2932 44.8661 28.2005 44.8626 28.111 44.8413C28.0216 44.82 27.9372 44.7812 27.8627 44.7273C27.7883 44.6734 27.7251 44.6053 27.677 44.527C27.6288 44.4487 27.5965 44.3616 27.582 44.2708C27.5675 44.18 27.571 44.0873 27.5923 43.9978C27.6136 43.9084 27.6523 43.824 27.7063 43.7496C27.7602 43.6751 27.8282 43.612 27.9066 43.5638L43.9674 33.0638L26.6396 43.0752C26.4805 43.1648 26.2928 43.1887 26.1164 43.1419C25.94 43.0951 25.7889 42.9812 25.6952 42.8245C25.6015 42.6679 25.5727 42.4808 25.615 42.3033C25.6573 42.1257 25.7672 41.9717 25.9214 41.874L26.0068 41.8208L25.6106 42.049C25.4519 42.1364 25.2654 42.1589 25.0905 42.1117C24.9156 42.0645 24.7658 41.9513 24.6726 41.7959C24.5794 41.6405 24.5501 41.455 24.5908 41.2785C24.6315 41.1019 24.7391 40.948 24.891 40.8492L28.1838 38.7996L24.5326 40.908C24.3738 41.0043 24.1833 41.0337 24.003 40.9896C23.8226 40.9455 23.6671 40.8315 23.5708 40.6728C23.4744 40.5141 23.4451 40.3235 23.4892 40.1432C23.5333 39.9628 23.6472 39.8073 23.806 39.711L36.0462 31.9284L23.3594 39.2504C23.2019 39.3349 23.0182 39.356 22.8457 39.3094C22.6732 39.2627 22.5251 39.1519 22.4316 38.9996C22.3382 38.8473 22.3066 38.6651 22.3432 38.4902C22.3798 38.3153 22.4819 38.161 22.6286 38.059L40.2602 26.586L22.0126 37.1196C21.8546 37.2115 21.6669 37.2379 21.4897 37.1933C21.3125 37.1486 21.1597 37.0364 21.0641 36.8807C20.9685 36.7249 20.9376 36.5379 20.978 36.3597C21.0184 36.1814 21.1269 36.0261 21.2804 35.9268L39.472 24.0478L20.8954 34.7718C20.7372 34.8602 20.5508 34.8838 20.3756 34.8377C20.2003 34.7915 20.0498 34.6792 19.9556 34.5243C19.8615 34.3694 19.8311 34.1841 19.8709 34.0072C19.9106 33.8304 20.0174 33.6759 20.1688 33.5762L33.8468 24.815L20.1926 32.6956C20.0344 32.7801 19.8498 32.8007 19.6769 32.7531C19.504 32.7056 19.356 32.5935 19.2633 32.4399C19.1706 32.2864 19.1404 32.1031 19.1789 31.928C19.2174 31.7528 19.3217 31.5991 19.4702 31.4986L27.7624 26.2696L19.7054 30.9204C19.5476 31.0182 19.3574 31.0494 19.1766 31.007C18.9958 30.9646 18.8393 30.8521 18.7415 30.6943C18.6436 30.5365 18.6125 30.3463 18.6549 30.1655C18.6973 29.9847 18.8098 29.8282 18.9676 29.7304L37.0276 17.7548L19.2882 28C19.131 28.0868 18.9464 28.1098 18.7727 28.0644C18.599 28.0189 18.4494 27.9085 18.3548 27.7558C18.2602 27.6032 18.2279 27.42 18.2646 27.2443C18.3013 27.0685 18.4041 26.9135 18.5518 26.8114L34.6518 16.1182L19.1622 25.06C19.0045 25.1496 18.8181 25.1746 18.6424 25.1295C18.4666 25.0845 18.3153 24.973 18.2201 24.8185C18.125 24.664 18.0936 24.4786 18.1325 24.3014C18.1714 24.1242 18.2775 23.969 18.4286 23.8686L30.7486 15.7668L19.424 22.3048C19.2659 22.3948 19.079 22.4197 18.9028 22.3742C18.7267 22.3288 18.5751 22.2166 18.4803 22.0613C18.3855 21.9061 18.3548 21.72 18.3948 21.5425C18.4348 21.3651 18.5423 21.2101 18.6946 21.1106L24.4108 17.4272L19.8958 20.0354C19.7389 20.1264 19.5529 20.153 19.3768 20.1096C19.2007 20.0662 19.0484 19.9561 18.9518 19.8026C18.8553 19.6491 18.8221 19.4641 18.8592 19.2866C18.8964 19.1091 19.001 18.9529 19.151 18.851L29.4802 11.8146L20.929 16.7524C20.7735 16.8441 20.5887 16.8723 20.413 16.8309C20.2373 16.7896 20.0844 16.6821 19.9861 16.5307C19.8878 16.3793 19.8518 16.1958 19.8856 16.0185C19.9194 15.8412 20.0203 15.6838 20.1674 15.5792L29.3136 8.94598L23.3202 12.4012C23.1673 12.4884 22.9871 12.5148 22.8156 12.4751C22.6441 12.4354 22.4938 12.3326 22.3948 12.1871C22.2957 12.0415 22.2551 11.8641 22.281 11.6899C22.307 11.5158 22.3976 11.3579 22.5348 11.2476L27.2066 7.55999C27.0766 7.51944 26.9612 7.44185 26.8746 7.33672C26.788 7.23159 26.734 7.10348 26.7191 6.9681C26.7043 6.83273 26.7292 6.69595 26.7909 6.57455C26.8527 6.45314 26.9484 6.35237 27.0666 6.28458L33.6116 2.50458C33.7645 2.41738 33.9446 2.391 34.1161 2.43068C34.2876 2.47037 34.4379 2.57321 34.537 2.71872C34.636 2.86423 34.6766 3.04172 34.6507 3.21583C34.6247 3.38994 34.5342 3.54788 34.397 3.65818L30.925 6.40778L40.2924 0.991185C40.4478 0.899461 40.6327 0.871318 40.8084 0.91263C40.984 0.953942 41.137 1.06152 41.2353 1.2129C41.3335 1.36428 41.3695 1.54777 41.3358 1.72506C41.302 1.90235 41.201 2.05974 41.054 2.16438L31.9036 8.79619L45.1952 1.11998C45.3516 1.03503 45.5344 1.01283 45.7066 1.0579C45.8788 1.10298 46.0273 1.21194 46.122 1.36263C46.2167 1.51332 46.2504 1.69443 46.2164 1.86911C46.1823 2.04379 46.083 2.19893 45.9386 2.30298L35.6122 9.33379L48.6392 1.81998C48.7967 1.73653 48.9802 1.71633 49.1521 1.76351C49.324 1.81069 49.4715 1.9217 49.5643 2.07388C49.6572 2.22606 49.6885 2.40795 49.6519 2.58242C49.6153 2.7569 49.5134 2.91083 49.3672 3.01278L43.6524 6.69479L50.8078 2.56478C50.9655 2.47513 51.1518 2.4502 51.3276 2.49525C51.5033 2.5403 51.6547 2.65182 51.7498 2.8063C51.8449 2.96077 51.8763 3.14614 51.8375 3.32334C51.7986 3.50054 51.6924 3.65572 51.5414 3.75618L39.2214 11.8608L53.2802 3.73798C53.4375 3.64849 53.6234 3.62342 53.7988 3.66804C53.9742 3.71265 54.1255 3.82348 54.221 3.97727C54.3165 4.13105 54.3486 4.31584 54.3108 4.49284C54.2729 4.66984 54.168 4.8253 54.018 4.92658L37.918 15.624L55.8408 5.27518C55.9981 5.18569 56.184 5.16062 56.3594 5.20524C56.5348 5.24985 56.6861 5.36068 56.7816 5.51447C56.8771 5.66825 56.9092 5.85304 56.8714 6.03004C56.8335 6.20704 56.7286 6.3625 56.5786 6.46379L38.534 18.4324L58.113 7.12878C58.2713 7.04172 58.4571 7.01925 58.6316 7.06606C58.8061 7.11287 58.9558 7.22534 59.0493 7.37995C59.1428 7.53456 59.1729 7.71933 59.1333 7.89561C59.0936 8.07189 58.9874 8.22603 58.8368 8.32579L50.5376 13.5604L59.4122 8.43639C59.5706 8.34355 59.7591 8.31667 59.9372 8.36155C60.1152 8.40642 60.2685 8.51944 60.364 8.67627C60.4595 8.83309 60.4895 9.02116 60.4477 9.19993C60.4058 9.3787 60.2954 9.53387 60.1402 9.63199L46.451 18.4016L60.8402 10.0926C60.9982 10.0007 61.1858 9.97427 61.3631 10.0189C61.5403 10.0636 61.693 10.1757 61.7886 10.3315C61.8842 10.4873 61.9151 10.6742 61.8747 10.8525C61.8343 11.0307 61.7258 11.1861 61.5724 11.2854L43.385 23.1644L62.306 12.2444C62.464 12.1525 62.6516 12.1261 62.8289 12.1707C63.0061 12.2154 63.1588 12.3275 63.2544 12.4833C63.35 12.6391 63.381 12.826 63.3405 13.0043C63.3001 13.1825 63.1916 13.3379 63.0382 13.4372L45.4066 24.906L63.594 14.406C63.7527 14.3096 63.9432 14.2803 64.1236 14.3244C64.304 14.3685 64.4594 14.4825 64.5558 14.6412C64.6521 14.7999 64.6815 14.9904 64.6374 15.1708C64.5933 15.3512 64.4793 15.5066 64.3206 15.603L52.086 23.38L64.3122 16.3212C64.4715 16.2258 64.6621 16.1975 64.8422 16.2427C65.0224 16.2878 65.1771 16.4027 65.2726 16.562C65.368 16.7213 65.3962 16.9119 65.3511 17.0921C65.3059 17.2722 65.1911 17.427 65.0318 17.5224L61.7586 19.558L64.8554 17.78C65.0142 17.6939 65.2002 17.6725 65.3744 17.7203C65.5486 17.7682 65.6976 17.8815 65.7901 18.0366C65.8827 18.1918 65.9117 18.3767 65.8711 18.5527C65.8305 18.7288 65.7234 18.8823 65.5722 18.9812L65.3034 19.1478C65.465 19.0791 65.6466 19.0737 65.8121 19.1326C65.9776 19.1916 66.1149 19.3106 66.1967 19.4661C66.2785 19.6216 66.2988 19.8021 66.2537 19.9719C66.2085 20.1417 66.1012 20.2883 65.953 20.3826L49.8908 30.8826L65.6702 21.763C65.8277 21.6762 66.0127 21.6534 66.1866 21.6993C66.3605 21.7453 66.5101 21.8564 66.6042 22.0096C66.6984 22.1629 66.73 22.3465 66.6924 22.5224C66.6548 22.6983 66.551 22.853 66.4024 22.9544L51.6954 32.5836L65.7962 24.444C65.9541 24.3571 66.1395 24.3345 66.3136 24.3809C66.4878 24.4273 66.6374 24.5391 66.7312 24.693C66.825 24.8469 66.8559 25.031 66.8173 25.2071C66.7787 25.3832 66.6737 25.5376 66.5242 25.6382L56.8852 31.8416L65.7612 26.7176C65.919 26.6197 66.1092 26.5886 66.2899 26.631C66.4707 26.6734 66.6272 26.7859 66.7251 26.9437C66.8229 27.1015 66.854 27.2917 66.8116 27.4725C66.7692 27.6532 66.6568 27.8097 66.499 27.9076L52.4738 37.2204L65.2138 29.8648C65.2925 29.8173 65.3797 29.7857 65.4706 29.7719C65.5615 29.7581 65.6542 29.7624 65.7435 29.7844C65.8327 29.8064 65.9167 29.8458 65.9908 29.9003C66.0648 29.9548 66.1273 30.0234 66.1749 30.1021C66.2224 30.1808 66.254 30.2681 66.2677 30.3589C66.2815 30.4498 66.2773 30.5425 66.2553 30.6318C66.2332 30.721 66.1938 30.8051 66.1393 30.8791C66.0848 30.9531 66.0163 31.0157 65.9376 31.0632L63.7998 32.4128L64.7672 31.8528C64.9245 31.7633 65.1104 31.7382 65.2858 31.7828C65.4612 31.8275 65.6125 31.9383 65.708 32.0921C65.8035 32.2459 65.8356 32.4306 65.7978 32.6076C65.7599 32.7846 65.655 32.9401 65.505 33.0414L54.788 40.166L63.3602 35.2254C63.5182 35.1335 63.7058 35.1071 63.883 35.1517C64.0603 35.1964 64.213 35.3085 64.3086 35.4643C64.4042 35.6201 64.4351 35.807 64.3947 35.9853C64.3543 36.1635 64.2458 36.3189 64.0924 36.4182L60.8724 38.5182L61.6004 38.0982C61.7559 38.0103 61.939 37.9852 62.1124 38.028C62.2858 38.0707 62.4363 38.1782 62.5331 38.3283C62.6299 38.4783 62.6656 38.6598 62.633 38.8353C62.6004 39.0109 62.502 39.1674 62.3578 39.2728L55.4362 44.2288C55.5911 44.1843 55.7567 44.1947 55.9049 44.2582C56.053 44.3217 56.1748 44.4344 56.2495 44.5772C56.3242 44.7201 56.3473 44.8843 56.3149 45.0422C56.2826 45.2002 56.1967 45.3421 56.0718 45.444L51.8942 48.8404C52.0007 48.9436 52.0716 49.0781 52.0968 49.2243C52.122 49.3705 52.1 49.5209 52.0342 49.6538L51.4224 50.9138C51.4658 50.9578 51.5034 51.0072 51.5344 51.0608C51.6267 51.2214 51.6517 51.4122 51.6036 51.5911C51.5556 51.7701 51.4386 51.9228 51.2782 52.0156L50.5432 52.4356C50.4134 52.5108 50.2628 52.5423 50.1137 52.5255C49.9646 52.5087 49.8249 52.4444 49.7151 52.3422C49.6053 52.2399 49.5313 52.1051 49.5039 51.9575C49.4766 51.81 49.4973 51.6576 49.5632 51.5228L49.769 51.1028L47.4422 52.4468C47.29 52.5323 47.1113 52.5578 46.9413 52.5183C46.7712 52.4789 46.622 52.3773 46.523 52.2336C46.424 52.0899 46.3822 51.9143 46.4059 51.7414C46.4296 51.5684 46.5171 51.4106 46.6512 51.2988L48.3634 49.8988L43.9492 52.4468C43.7937 52.5347 43.6105 52.5598 43.4371 52.517C43.2637 52.4742 43.1132 52.3668 43.0165 52.2167C42.9197 52.0666 42.8839 51.8852 42.9165 51.7096C42.9491 51.534 43.0476 51.3776 43.1918 51.2722L49.9328 46.4422L39.5126 52.4622C39.3546 52.5541 39.1669 52.5805 38.9897 52.5359C38.8125 52.4912 38.6597 52.379 38.5641 52.2233C38.4685 52.0675 38.4376 51.8805 38.478 51.7023C38.5184 51.524 38.6269 51.3687 38.7804 51.2694L41.9892 49.1694L36.2814 52.4636C36.177 52.5256 36.0583 52.5593 35.937 52.5616Z" fill="#FCCB55"/>
<path d="M37.1968 63.6917C37.0506 63.6929 36.9076 63.6483 36.788 63.5641C36.6684 63.4799 36.5782 63.3604 36.53 63.2223C36.4819 63.0843 36.4781 62.9346 36.5194 62.7943C36.5606 62.6539 36.6448 62.5301 36.76 62.4401L42.7128 57.7613L34.492 62.5101C34.3369 62.5963 34.1549 62.6205 33.9827 62.5777C33.8105 62.5348 33.661 62.4282 33.5644 62.2793C33.4678 62.1305 33.4314 61.9505 33.4625 61.7758C33.4936 61.6011 33.5898 61.4447 33.7318 61.3383L36.4534 59.3783L34.4934 60.5095C34.3416 60.5967 34.1627 60.6239 33.9918 60.5858C33.8209 60.5476 33.6706 60.4467 33.5704 60.3031C33.4702 60.1595 33.4275 59.9836 33.4506 59.8101C33.4738 59.6365 33.5611 59.478 33.6954 59.3657L37.0442 56.5657L34.492 58.0399C34.3509 58.1209 34.1859 58.1503 34.0255 58.1229C33.8651 58.0955 33.7192 58.0131 33.613 57.8898C33.5068 57.7665 33.4469 57.61 33.4435 57.4473C33.4401 57.2846 33.4936 57.1258 33.5946 56.9983L35.6946 54.3509L34.4878 55.0509C34.3676 55.1198 34.2295 55.1516 34.0912 55.142C33.9529 55.1325 33.8205 55.0821 33.7109 54.9972C33.6013 54.9123 33.5193 54.7968 33.4754 54.6653C33.4316 54.5337 33.4277 54.3922 33.4644 54.2585L33.8284 52.9467C33.7039 52.8853 33.6009 52.7877 33.533 52.6667C33.4405 52.5062 33.4154 52.3156 33.4632 52.1366C33.5109 51.9576 33.6277 51.8049 33.7878 51.7119L34.4878 51.3059C34.6082 51.2362 34.7466 51.204 34.8854 51.2134C35.0242 51.2227 35.157 51.2732 35.2669 51.3584C35.3769 51.4436 35.459 51.5596 35.5027 51.6916C35.5465 51.8236 35.5499 51.9657 35.5126 52.0997L35.269 52.9817L38.181 51.3017C38.3221 51.22 38.4873 51.1901 38.648 51.2172C38.8088 51.2443 38.9551 51.3266 39.0616 51.4501C39.1682 51.5735 39.2284 51.7303 39.2317 51.8934C39.235 52.0565 39.1813 52.2156 39.0798 52.3433L36.9798 54.9879L43.382 51.2919C43.5336 51.2064 43.7115 51.1804 43.8812 51.2191C44.0509 51.2577 44.2 51.3581 44.2997 51.5007C44.3993 51.6434 44.4423 51.818 44.4201 51.9906C44.398 52.1632 44.3124 52.3214 44.18 52.4343L40.834 55.2343L47.6618 51.2919C47.8172 51.2027 48.0008 51.1765 48.1749 51.2186C48.349 51.2607 48.5003 51.368 48.5977 51.5183C48.6951 51.6686 48.7312 51.8506 48.6985 52.0267C48.6658 52.2028 48.5669 52.3597 48.422 52.465L45.6948 54.4335L50.5066 51.6573C50.6598 51.5707 50.84 51.545 51.0113 51.5853C51.1827 51.6256 51.3325 51.729 51.431 51.8749C51.5295 52.0207 51.5695 52.1983 51.5429 52.3722C51.5164 52.5462 51.4253 52.7038 51.2878 52.8137L45.3364 57.4911L50.5164 54.5007C50.6683 54.4145 50.8469 54.3882 51.0172 54.427C51.1875 54.4658 51.3371 54.5668 51.4368 54.7103C51.5364 54.8537 51.5788 55.0292 51.5556 55.2023C51.5324 55.3754 51.4454 55.5336 51.3116 55.6459L48.2554 58.1659L50.5248 56.8569C50.6705 56.7726 50.8416 56.7437 51.0069 56.7753C51.1722 56.807 51.3205 56.8971 51.4248 57.0293C51.529 57.1614 51.5822 57.3266 51.5745 57.4947C51.5668 57.6629 51.4988 57.8226 51.383 57.9447L49.472 59.9481L50.5388 59.3335C50.6772 59.2538 50.8387 59.2238 50.9964 59.2485C51.1542 59.2733 51.2987 59.3512 51.4061 59.4693C51.5135 59.5875 51.5773 59.7389 51.5868 59.8982C51.5963 60.0576 51.5511 60.2155 51.4586 60.3457L50.9784 61.0191C51.125 61.0358 51.2626 61.0985 51.3714 61.1982C51.4803 61.2978 51.5549 61.4293 51.5845 61.5738C51.6142 61.7184 51.5974 61.8686 51.5366 62.0031C51.4757 62.1375 51.374 62.2493 51.2458 62.3225L49.0814 63.5699C48.943 63.6495 48.7816 63.6795 48.6238 63.6548C48.4661 63.63 48.3215 63.5521 48.2141 63.434C48.1067 63.3158 48.043 63.1645 48.0334 63.0051C48.0239 62.8457 48.0691 62.6878 48.1616 62.5577L48.4416 62.1559L45.986 63.5769C45.8403 63.6601 45.6696 63.6883 45.5049 63.6562C45.3403 63.6242 45.1926 63.534 45.0888 63.4022C44.9849 63.2704 44.9319 63.1057 44.9394 62.9381C44.9468 62.7705 45.0141 62.6112 45.1292 62.4891L47.043 60.4731L41.6488 63.5881C41.4969 63.6757 41.3175 63.7031 41.1463 63.6649C40.9751 63.6266 40.8245 63.5255 40.7243 63.3815C40.6242 63.2374 40.5817 63.0611 40.6054 62.8872C40.6291 62.7134 40.7172 62.5548 40.8522 62.4429L43.9084 59.9228L37.5468 63.5951C37.4409 63.658 37.32 63.6914 37.1968 63.6917Z" fill="#AFAFAF"/>
<path d="M40.9178 63.9043C40.7634 63.9045 40.6132 63.8536 40.4907 63.7597C40.3682 63.6657 40.2802 63.5338 40.2404 63.3846C40.2006 63.2354 40.2113 63.0772 40.2708 62.9347C40.3302 62.7922 40.4352 62.6733 40.5692 62.5967L41.2818 62.1865C41.4428 62.0936 41.634 62.0686 41.8135 62.1167C41.9929 62.1649 42.1459 62.2824 42.2387 62.4434C42.3315 62.6043 42.3566 62.7956 42.3084 62.975C42.2603 63.1545 42.1428 63.3074 41.9818 63.4003L41.2692 63.8105C41.1624 63.8721 41.0412 63.9045 40.9178 63.9043Z" fill="#F0F2F5"/>
<path d="M34.5199 68.7848C34.3869 68.785 34.2566 68.7474 34.1442 68.6763C34.0319 68.6052 33.9421 68.5035 33.8854 68.3832C33.8287 68.2629 33.8074 68.1289 33.8241 67.997C33.8408 67.8651 33.8947 67.7406 33.9795 67.6382L36.4323 64.6618L32.3289 67.0292C32.1859 67.1118 32.0183 67.1411 31.8557 67.1121C31.6932 67.083 31.5461 66.9974 31.4405 66.8704C31.335 66.7434 31.2777 66.5832 31.2789 66.418C31.2801 66.2529 31.3396 66.0935 31.4469 65.968L33.6869 63.3626L30.5411 65.1826C30.392 65.2705 30.2156 65.3 30.046 65.2654C29.8764 65.2309 29.7256 65.1347 29.6227 64.9955C29.5198 64.8562 29.4722 64.6838 29.489 64.5115C29.5059 64.3393 29.5859 64.1793 29.7137 64.0626L30.5817 63.2534L29.6661 63.7812C29.517 63.8751 29.3379 63.9094 29.1646 63.877C28.9913 63.8446 28.8366 63.7481 28.7314 63.6066C28.6262 63.4652 28.5782 63.2893 28.5971 63.114C28.6159 62.9387 28.7002 62.777 28.8331 62.6612L29.7767 61.761L29.0977 62.153C28.9531 62.2352 28.7839 62.2633 28.6204 62.232C28.457 62.2008 28.31 62.1124 28.2058 61.9826C28.1017 61.8528 28.0472 61.6902 28.0521 61.5239C28.057 61.3576 28.1209 61.1984 28.2325 61.075L28.9731 60.2672C28.8247 60.2546 28.6842 60.1949 28.572 60.0969C28.4598 59.9989 28.3818 59.8677 28.3493 59.7223C28.3168 59.577 28.3316 59.425 28.3914 59.2886C28.4512 59.1522 28.553 59.0384 28.6819 58.9638L31.9425 57.0808C32.0874 56.9976 32.2571 56.969 32.4212 57C32.5853 57.031 32.7329 57.1197 32.8374 57.25C32.9418 57.3803 32.9962 57.5437 32.9908 57.7106C32.9854 57.8775 32.9204 58.0369 32.8077 58.1602L32.3499 58.6586L34.1531 57.6184C34.3023 57.5244 34.4814 57.4902 34.6547 57.5226C34.828 57.5549 34.9827 57.6515 35.0879 57.7929C35.1931 57.9344 35.2411 58.1103 35.2222 58.2856C35.2033 58.4609 35.119 58.6226 34.9861 58.7384L34.0439 59.6372L35.2059 58.9652C35.3551 58.8773 35.5315 58.8478 35.7011 58.8823C35.8707 58.9169 36.0215 59.0131 36.1244 59.1523C36.2272 59.2915 36.2749 59.464 36.258 59.6362C36.2412 59.8085 36.1612 59.9685 36.0333 60.0852L35.1625 60.8972L36.5401 60.1034C36.6832 60.0208 36.8508 59.9914 37.0133 60.0205C37.1759 60.0495 37.323 60.1351 37.4285 60.2621C37.5341 60.3891 37.5914 60.5494 37.5902 60.7145C37.589 60.8797 37.5295 61.0391 37.4221 61.1646L35.1821 63.7714L39.0811 61.5202C39.2232 61.4389 39.3892 61.4099 39.5504 61.4383C39.7116 61.4668 39.8577 61.5508 39.9634 61.6757C40.0691 61.8007 40.1276 61.9588 40.1288 62.1224C40.1301 62.2861 40.0739 62.445 39.9701 62.5716L36.5331 66.745C36.5698 66.7832 36.6013 66.826 36.6269 66.8724C36.7193 67.033 36.7442 67.2238 36.6962 67.4027C36.6482 67.5817 36.5311 67.7344 36.3707 67.8272L34.8699 68.6938C34.7635 68.7549 34.6426 68.7863 34.5199 68.7848Z" fill="#F0F2F5"/>
<path d="M48.9766 67.876C48.8324 67.8758 48.6919 67.8311 48.5742 67.748C48.4564 67.6649 48.3672 67.5475 48.3186 67.4119C48.2701 67.2762 48.2646 67.1288 48.3029 66.9899C48.3412 66.851 48.4215 66.7272 48.5328 66.6356L49.2944 66.0098L48.5062 66.4648C48.357 66.5514 48.1812 66.5799 48.0124 66.5449C47.8436 66.5099 47.6936 66.4138 47.5912 66.275C47.4889 66.1362 47.4414 65.9646 47.4578 65.7929C47.4742 65.6213 47.5534 65.4617 47.6802 65.3448L50.4466 62.787L46.8262 64.8758C46.7088 64.9439 46.5743 64.9765 46.4388 64.9695C46.3034 64.9626 46.1729 64.9164 46.0632 64.8366L44.1032 63.403L43.6664 63.655C43.5867 63.7057 43.4976 63.7397 43.4044 63.755C43.3113 63.7703 43.216 63.7667 43.1243 63.7442C43.0326 63.7217 42.9464 63.681 42.8708 63.6243C42.7953 63.5677 42.732 63.4963 42.6848 63.4146C42.6375 63.3329 42.6073 63.2424 42.5959 63.1487C42.5845 63.055 42.5922 62.9599 42.6185 62.8693C42.6448 62.7786 42.6892 62.6942 42.749 62.6211C42.8088 62.548 42.8827 62.4878 42.9664 62.444L43.7966 61.9638C43.9139 61.8957 44.0484 61.8632 44.1839 61.8702C44.3193 61.8771 44.4498 61.9233 44.5596 62.003L46.5196 63.4366L55.1604 58.4484C55.3095 58.3618 55.4853 58.3333 55.6541 58.3684C55.823 58.4034 55.9729 58.4995 56.0753 58.6383C56.1776 58.7771 56.2251 58.9487 56.2087 59.1204C56.1923 59.292 56.1131 59.4516 55.9864 59.5684L53.2186 62.1276L55.9626 60.5442C56.1147 60.4561 56.2944 60.4285 56.466 60.4668C56.6375 60.5051 56.7884 60.6066 56.8886 60.7511C56.9888 60.8955 57.0309 61.0724 57.0067 61.2465C56.9824 61.4206 56.8936 61.5792 56.7578 61.6908L55.5916 62.6484C55.7173 62.643 55.8421 62.6729 55.9517 62.7347C56.0613 62.7966 56.1514 62.888 56.2118 62.9984C56.3046 63.1592 56.3297 63.3503 56.2817 63.5296C56.2336 63.7089 56.1163 63.8618 55.9556 63.9546L49.3266 67.7822C49.2204 67.8442 49.0995 67.8766 48.9766 67.876Z" fill="#F0F2F5"/>
<path d="M50.6356 58.7159C50.4819 58.7154 50.3327 58.6643 50.211 58.5706C50.0892 58.4769 50.0017 58.3457 49.9619 58.1973C49.9221 58.0489 49.9322 57.8915 49.9907 57.7494C50.0492 57.6074 50.1528 57.4885 50.2856 57.4111L51.1928 56.8861C51.2724 56.8355 51.3615 56.8015 51.4547 56.7861C51.5478 56.7708 51.6431 56.7745 51.7348 56.797C51.8265 56.8194 51.9127 56.8602 51.9883 56.9168C52.0638 56.9735 52.1271 57.0448 52.1743 57.1265C52.2216 57.2083 52.2518 57.2987 52.2632 57.3924C52.2746 57.4862 52.2669 57.5812 52.2406 57.6719C52.2143 57.7626 52.1699 57.847 52.1101 57.92C52.0503 57.9931 51.9764 58.0534 51.8928 58.0971L50.9856 58.6221C50.8793 58.6839 50.7585 58.7163 50.6356 58.7159Z" fill="#F0F2F5"/>
<path d="M42.8712 70.6636C42.7355 70.6635 42.6028 70.624 42.4892 70.5498C42.3756 70.4757 42.2859 70.3701 42.2312 70.246C42.1765 70.1218 42.159 69.9844 42.1809 69.8505C42.2028 69.7166 42.2632 69.592 42.3546 69.4918L43.8092 67.9L39.7492 70.2464C39.6013 70.3341 39.4263 70.3643 39.2575 70.3312C39.0887 70.2981 38.9381 70.2041 38.8342 70.067C38.7304 69.9299 38.6806 69.7594 38.6944 69.588C38.7083 69.4166 38.7847 69.2562 38.9092 69.1376L40.8888 67.228L38.2288 68.7582C38.0933 68.8366 37.9354 68.8673 37.7804 68.8454C37.6254 68.8235 37.4822 68.7503 37.3736 68.6374C37.2651 68.5246 37.1976 68.3786 37.1818 68.2228C37.166 68.0671 37.2029 67.9105 37.2866 67.7782L38.8476 65.303L37.6058 66.0184C37.5261 66.069 37.437 66.103 37.3439 66.1184C37.2507 66.1337 37.1554 66.13 37.0637 66.1075C36.972 66.0851 36.8858 66.0443 36.8103 65.9877C36.7348 65.931 36.6715 65.8597 36.6242 65.7779C36.577 65.6962 36.5468 65.6058 36.5354 65.512C36.524 65.4183 36.5317 65.3233 36.558 65.2326C36.5843 65.1419 36.6287 65.0575 36.6884 64.9844C36.7482 64.9114 36.8222 64.8511 36.9058 64.8074L40.599 62.6766C40.7342 62.5982 40.8917 62.5674 41.0465 62.589C41.2013 62.6105 41.3444 62.6833 41.453 62.7956C41.5616 62.9085 41.6291 63.0545 41.6448 63.2104C41.6606 63.3662 41.6236 63.5228 41.5398 63.6552L39.9802 66.129L45.128 63.1582C45.2759 63.0705 45.451 63.0403 45.6197 63.0734C45.7885 63.1064 45.9392 63.2005 46.043 63.3376C46.1468 63.4747 46.1966 63.6452 46.1828 63.8166C46.1689 63.988 46.0925 64.1483 45.968 64.267L43.9856 66.1794L47.0278 64.4238C47.1723 64.3415 47.3414 64.3134 47.5048 64.3444C47.6681 64.3755 47.8151 64.4637 47.9194 64.5932C48.0236 64.7227 48.0784 64.8852 48.0738 65.0514C48.0692 65.2176 48.0056 65.3768 47.8944 65.5004L46.4398 67.0936L48.215 66.0688C48.3757 65.9774 48.566 65.9533 48.7444 66.0018C48.9228 66.0502 49.0748 66.1672 49.1672 66.3273C49.2596 66.4874 49.285 66.6775 49.2377 66.8562C49.1905 67.0349 49.0745 67.1877 48.915 67.2812L43.2198 70.5684C43.1142 70.6307 42.9938 70.6636 42.8712 70.6636Z" fill="#EC3A48"/>
<path d="M37.9304 83.3C37.7856 83.3003 37.6442 83.2556 37.5258 83.1721C37.4074 83.0886 37.3178 82.9704 37.2694 82.8338C37.221 82.6973 37.2162 82.549 37.2556 82.4096C37.295 82.2702 37.3767 82.1464 37.4894 82.0554L39.2198 80.6554L37.6602 81.557C37.5085 81.6443 37.3295 81.6715 37.1586 81.6333C36.9878 81.5951 36.8374 81.4943 36.7372 81.3507C36.6371 81.2071 36.5943 81.0312 36.6175 80.8577C36.6406 80.6841 36.7279 80.5255 36.8622 80.4132L39.371 78.3216L38.2328 78.9782C38.0837 79.0675 37.9067 79.0981 37.7362 79.064C37.5658 79.0299 37.4141 78.9337 37.3107 78.794C37.2073 78.6542 37.1596 78.481 37.1769 78.3081C37.1941 78.1351 37.2751 77.9748 37.404 77.8582L40.624 74.8426L38.9356 75.8226C38.7855 75.9082 38.609 75.9352 38.4401 75.8984C38.2712 75.8617 38.1219 75.7637 38.021 75.6235C37.92 75.4832 37.8744 75.3105 37.8932 75.1387C37.9119 74.9669 37.9935 74.8081 38.1222 74.6928L39.07 73.8528C38.8881 73.8564 38.7114 73.792 38.5744 73.6722C38.4646 73.573 38.389 73.4415 38.3585 73.2966C38.3281 73.1517 38.3444 73.0009 38.405 72.8658L39.2128 71.0654C39.1202 70.9961 39.0461 70.9048 38.9974 70.7998C38.9486 70.6949 38.9267 70.5794 38.9335 70.4639C38.9403 70.3483 38.9756 70.2363 39.0363 70.1377C39.0971 70.0392 39.1813 69.9572 39.2814 69.8992L40.092 69.4302C40.2201 69.3565 40.3682 69.3253 40.5152 69.3409C40.6621 69.3565 40.8003 69.4183 40.91 69.5173C41.0197 69.6162 41.0953 69.7474 41.1259 69.892C41.1565 70.0365 41.1406 70.1871 41.0804 70.322L40.568 71.4644L44.1324 69.4064C44.2828 69.3193 44.4602 69.2911 44.6301 69.3275C44.8001 69.3639 44.9504 69.4623 45.0519 69.6034C45.1533 69.7445 45.1987 69.9183 45.1791 70.0909C45.1595 70.2636 45.0763 70.4228 44.9458 70.5376L44.3074 71.0976L45.181 70.5936C45.3302 70.5044 45.5072 70.4738 45.6777 70.5079C45.8481 70.5419 45.9998 70.6382 46.1032 70.7779C46.2066 70.9176 46.2543 71.0908 46.237 71.2638C46.2198 71.4367 46.1388 71.5971 46.0098 71.7136L42.7898 74.7292L45.7298 73.0324C45.8814 72.947 46.0594 72.921 46.229 72.9596C46.3987 72.9982 46.5479 73.0987 46.6475 73.2413C46.7472 73.3839 46.7901 73.5586 46.768 73.7312C46.7459 73.9038 46.6602 74.0619 46.5278 74.1748L44.019 76.2748L46.1792 75.0274C46.3317 74.94 46.5114 74.9131 46.6827 74.9521C46.8541 74.9911 47.0045 75.0931 47.1041 75.2379C47.2037 75.3826 47.2452 75.5595 47.2204 75.7335C47.1956 75.9074 47.1063 76.0657 46.9702 76.1768L45.2384 77.5768L46.5824 76.8012C46.7339 76.7132 46.9129 76.6852 47.084 76.7227C47.2552 76.7602 47.406 76.8605 47.5068 77.0039C47.6075 77.1472 47.6509 77.3231 47.6283 77.4968C47.6057 77.6705 47.5187 77.8295 47.3846 77.9422L47.0962 78.1872C47.1982 78.1615 47.3046 78.1594 47.4074 78.181C47.5103 78.2026 47.6069 78.2473 47.6898 78.3118C47.7998 78.3966 47.8821 78.5121 47.9262 78.6437C47.9703 78.7754 47.9743 78.9171 47.9376 79.051L47.3776 81.1118L47.54 81.018C47.7 80.9343 47.8862 80.9157 48.0595 80.966C48.2329 81.0163 48.3802 81.1317 48.4706 81.288C48.5609 81.4443 48.5874 81.6295 48.5444 81.8048C48.5015 81.9802 48.3924 82.1322 48.24 82.229L46.6062 83.1726C46.4862 83.2422 46.3481 83.2744 46.2097 83.2654C46.0712 83.2563 45.9386 83.2062 45.8286 83.1216C45.7186 83.037 45.6363 82.9216 45.592 82.7901C45.5478 82.6586 45.5436 82.5169 45.58 82.383L46.14 80.3222L41.1574 83.1992C41.006 83.2872 40.827 83.3153 40.6559 83.2777C40.4847 83.2402 40.3339 83.1399 40.2331 82.9966C40.1324 82.8533 40.089 82.6774 40.1116 82.5036C40.1342 82.3299 40.2212 82.171 40.3552 82.0582L40.5246 81.9182L38.2846 83.2146C38.1762 83.2739 38.054 83.3033 37.9304 83.3Z" fill="#D92936"/>
<path d="M31.4398 57.3999C30.5707 57.6579 29.7494 58.0556 29.008 58.5773C28.5965 58.8741 28.2272 59.2255 27.9104 59.6217C22.0612 59.8205 16.66 61.8057 12.9192 66.5965C10.7785 69.3417 9.52016 72.6712 9.30998 76.1459C9.07378 77.9875 9.07707 79.852 9.31978 81.6927C9.79018 83.7563 12.9472 83.2117 14.5208 83.2117H47.3508C47.5237 83.2933 47.7126 83.3356 47.9038 83.3356C48.095 83.3356 48.2838 83.2933 48.4568 83.2117H55.685C61.3914 83.2117 67.2042 83.5365 72.905 83.2117C75.8996 83.0409 75.7176 80.7939 75.7176 78.4909C75.8679 75.393 75.3021 72.302 74.0642 69.4581C70.868 62.8109 64.4238 59.7309 57.3524 59.6007C57.1928 59.3236 57 59.0669 56.7784 58.8363C56.2076 58.2468 55.5193 57.7837 54.7582 57.4769C53.8556 57.0968 52.899 56.8606 51.9232 56.7769C51.8616 53.3035 51.3338 49.1945 54.3494 46.8117C56.6091 45.2991 58.7486 43.6141 60.7488 41.7717C63.0373 39.3272 64.7973 36.4371 65.9188 33.2819C67.0403 30.1267 67.4993 26.7741 67.267 23.4336C67.0347 20.093 66.1162 16.8362 64.5688 13.8666C63.0215 10.8969 60.8784 8.27821 58.2736 6.17393C54.2301 2.94309 49.288 1.03905 44.1221 0.721834C38.9561 0.404615 33.8181 1.68967 29.4098 4.40153C24.9956 7.14757 21.5556 11.211 19.5759 16.0179C17.5961 20.8248 17.1765 26.1323 18.3764 31.1905C19.8707 37.1511 23.5479 42.3336 28.6804 45.7127C31.3264 47.4473 33.0204 49.1203 33.0708 52.4551C33.0946 53.9783 33.0708 55.5015 33.0708 57.0247C32.5188 57.1106 31.9738 57.236 31.4398 57.3999ZM40.663 51.3575L37.4598 41.1235C36.7262 38.7743 35.9921 36.4256 35.2576 34.0773C34.7885 33.01 34.4523 31.8891 34.2566 30.7397C34.2272 29.8157 34.622 30.1265 35.392 30.0887C36.1995 30.0563 36.9802 29.7897 37.639 29.3215C38.2858 28.8693 38.682 28.4633 39.4982 28.9197C40.0431 29.3472 40.6412 29.7021 41.2776 29.9753C42.0196 30.1616 42.7993 30.1335 43.526 29.8941C44.2442 29.6645 44.6894 29.0345 45.346 28.7741C46.13 28.4675 46.627 29.0695 47.2094 29.4601C47.7943 29.8557 48.4816 30.0727 49.1876 30.0845C49.8876 30.1125 50.757 29.9977 50.7626 31.0057C50.7438 31.179 50.7019 31.349 50.638 31.5111C50.4868 32.0571 50.2992 32.5947 50.1312 33.1365L48.1208 39.5653C46.8934 43.4965 45.6652 47.4277 44.436 51.3589L40.663 51.3575ZM38.7968 52.2311C39.1034 52.6091 39.8734 52.5391 40.3508 52.2311H44.3408C44.5676 52.5111 45.2606 52.4817 45.7772 52.2311H49.8652C49.749 53.8117 49.8428 55.4427 49.8652 57.0009H35.1344C35.154 55.4987 35.2744 53.8397 35.2002 52.2311H38.7968ZM34.6822 69.0451C35.1288 69.2243 36.3622 69.0101 36.5022 68.4459C36.5218 68.3731 36.547 68.3059 36.568 68.2331L37.7762 69.4399C38.0646 69.7297 38.346 70.0475 38.654 70.3219L36.2446 81.1999L36.2096 81.3581C33.5664 79.6123 32.1944 76.2061 31.3418 73.2843C30.6534 70.8527 30.1747 68.3665 29.911 65.8531C30.6813 66.6319 31.5424 67.3153 32.4758 67.8887C33.1759 68.3397 33.9142 68.7285 34.6822 69.0507V69.0451ZM40.355 71.4013L40.5146 70.6831H44.1056C44.191 70.6831 44.289 70.6831 44.3856 70.6901L46.7418 81.2951L46.8944 81.9825H38.003L40.355 71.4013ZM48.8866 81.2965C48.1399 77.9617 47.3988 74.6274 46.6634 71.2935L46.3834 70.0209C46.5094 69.8921 46.634 69.7619 46.7558 69.6401L48.2594 68.1365C48.3462 68.3745 48.4232 68.6167 48.489 68.8659C48.6402 69.4441 49.5684 69.2593 49.931 69.1137C51.8902 68.3084 53.6559 67.0958 55.111 65.5563C55.0788 65.8223 55.0606 66.0897 55.0256 66.3543C54.6445 70.2712 53.5534 74.0858 51.8056 77.6117C51.0879 79.0239 50.0955 80.2785 48.8866 81.3021V81.2965ZM44.891 69.3055H40.3746L37.3996 66.3305C37.9978 65.3149 38.8909 64.5053 39.9602 64.0093C40.2289 63.8795 40.5104 63.7781 40.8002 63.7069C41.0137 63.6379 41.2337 63.591 41.4568 63.5669L41.6766 63.5375C41.7104 63.5528 41.7456 63.565 41.7816 63.5739C41.8297 63.5977 41.8804 63.6156 41.9328 63.6271C41.9664 63.6363 42.0005 63.6433 42.035 63.6481C42.0658 63.6481 42.0938 63.6649 42.1246 63.6649C42.3933 63.6717 42.6613 63.696 42.9268 63.7377C43.014 63.745 43.1003 63.7609 43.1844 63.7853C43.3412 63.8189 43.498 63.8539 43.652 63.8959C44.0015 63.987 44.3439 64.103 44.6768 64.2431C45.8485 64.7476 46.8409 65.5936 47.5244 66.6707L44.891 69.3055ZM42.511 62.3363C40.2872 61.8795 38.2344 60.8131 36.582 59.2563C36.1365 58.8187 35.748 58.3267 35.4256 57.7919H49.721C49.686 57.8619 49.6524 57.9319 49.6132 58.0019C49.3183 58.5122 48.9546 58.9795 48.5324 59.3907C46.8548 60.9397 44.7616 61.9653 42.5096 62.3419L42.511 62.3363ZM31.2508 58.4261C31.7884 58.1856 32.3597 58.0288 32.9448 57.9613C33.0316 57.9487 33.1184 57.9403 33.2052 57.9305C33.5868 58.7416 34.1183 59.4731 34.7718 60.0865C36.2429 61.4659 38.0266 62.468 39.97 63.0069C38.2776 63.5879 36.8033 64.6723 35.7448 66.1149C35.49 66.2759 35.1638 66.6021 35.2758 66.8877C35.1652 67.0837 35.0448 67.2713 34.951 67.4771C33.9129 66.9009 32.9515 66.1963 32.0894 65.3799C31.0438 64.4263 30.2589 63.2216 29.8088 61.8799C29.6848 61.5125 29.5957 61.1343 29.5428 60.7501V60.6591C29.4945 60.2934 29.58 59.9225 29.7836 59.6147C30.1633 59.1019 30.6679 58.6946 31.2494 58.4317L31.2508 58.4261ZM19.4586 81.9881C17.2508 81.9881 14.938 82.1855 12.7386 81.9881C11.6018 81.8859 11.3204 81.2979 11.3204 80.0925C11.1628 77.4416 11.3848 74.7818 11.9798 72.1937C13.0377 68.5605 15.3416 65.4159 18.487 63.3121C21.1768 61.6231 24.3023 60.7588 27.4778 60.8257C27.4767 61.0274 27.4926 61.2288 27.5254 61.4277C27.5769 63.4276 27.7367 65.4232 28.0042 67.4057C28.3699 71.5347 29.5919 75.5422 31.5924 79.1727C32.2559 80.2614 33.1173 81.2163 34.132 81.9881H19.4586ZM71.4672 68.9289C72.9325 71.5099 73.6961 74.4297 73.682 77.3975C73.6904 78.3775 73.682 79.3477 73.682 80.3235C73.7437 80.8776 73.7306 81.4376 73.6428 81.9881C73.472 82.1505 72.3534 81.9881 72.1322 81.9881H50.2124C52.724 79.797 54.5361 76.9158 55.4232 73.7029C56.5492 70.0929 57.2194 66.3563 57.4182 62.5799C57.456 62.0199 57.47 61.4445 57.4882 60.8761C63.2632 61.2191 68.418 63.6901 71.4672 68.9289ZM54.5874 59.3781C54.866 59.614 55.1101 59.8878 55.3126 60.1915C55.4041 60.3201 55.4571 60.4721 55.4652 60.6297C55.4652 60.7221 55.4554 60.8159 55.454 60.9097C55.4456 60.9825 55.4358 61.0581 55.4246 61.1421C55.146 62.4443 54.5793 63.6674 53.766 64.7218C52.9527 65.7761 51.9135 66.6349 50.7248 67.2349C50.5848 67.3217 50.414 67.4127 50.253 67.5023C49.9155 66.5467 49.3885 65.6691 48.7036 64.9222C48.0187 64.1752 47.19 63.5742 46.2672 63.1553C45.9984 63.0349 45.7198 62.9243 45.4272 62.8235C47.1741 62.2128 48.7703 61.2357 50.1088 59.9577C50.6606 59.4253 51.136 58.8189 51.5214 58.1559C51.9437 58.2172 52.3608 58.3108 52.7688 58.4359C53.4304 58.629 54.0481 58.949 54.5874 59.3781ZM29.0108 43.6547C26.3575 41.6647 24.1616 39.1289 22.5713 36.2184C20.9809 33.3079 20.0331 30.0902 19.7916 26.7823C19.5502 23.4744 20.0207 20.1532 21.1715 17.0426C22.3223 13.932 24.1266 11.1042 26.4628 8.74993C30.1881 5.07974 35.0687 2.81177 40.2761 2.33099C45.4835 1.85021 50.6969 3.18626 55.0312 6.11233C59.4453 9.13438 62.6914 13.5769 64.2294 18.7005C65.7674 23.8241 65.5044 29.3199 63.4844 34.2733C62.3255 37.0339 60.6419 39.5434 58.527 41.6625C56.4802 43.7093 53.6032 44.8517 51.7412 47.0287C50.7335 48.2683 50.1153 49.7784 49.9646 51.3687H46.431C47.5846 47.6755 48.7386 43.9823 49.8932 40.2891L52.1402 33.1001C52.577 31.7001 53.515 29.7863 51.6698 28.9309C51.107 28.7437 50.5125 28.6709 49.9212 28.7167C49.0126 28.6663 48.6248 28.0937 47.8702 27.6933C47.1525 27.3759 46.359 27.2701 45.5832 27.3884C44.8073 27.5067 44.0815 27.8442 43.491 28.3611C42.6678 28.9127 42.175 28.6089 41.4442 28.0811C40.8474 27.6131 40.1175 27.3464 39.3596 27.3195C38.5396 27.2877 37.7298 27.5102 37.0412 27.9565C36.3902 28.3765 36.1116 28.7195 35.308 28.7195C33.8604 28.7195 31.9984 29.4083 32.1944 31.1975C32.2686 31.6021 32.3811 31.9987 32.5304 32.3819C33.1716 34.4353 33.8137 36.4886 34.4568 38.5419L38.4636 51.3659H35.1302C35.0497 50.4251 34.8171 49.5036 34.4414 48.6373C33.3004 46.1733 31.0702 45.1975 29.0108 43.6547Z" fill="#262626"/>
<path d="M43.4564 7.06591C43.6524 6.65291 43.287 6.34491 42.874 6.34771C39.0339 6.33887 35.2744 7.4487 32.0547 9.5416C28.8351 11.6345 26.2947 14.6198 24.744 18.1329C24.324 19.1199 26.3526 18.9799 26.6564 18.2729C27.9238 15.1912 30.0622 12.5459 32.8098 10.6609C35.5574 8.77581 38.7951 7.73279 42.1264 7.65951C42.5744 7.64971 43.2394 7.52651 43.4564 7.06591Z" fill="#262626"/>
<path d="M25.1625 23.3143C25.0678 23.2693 24.9649 23.244 24.8601 23.2401C24.7382 23.2198 24.6138 23.2198 24.4919 23.2401C24.2204 23.2719 23.9586 23.3601 23.7233 23.4991L23.5399 23.6321C23.4452 23.7066 23.3746 23.8074 23.3369 23.9219C23.2977 24.4343 23.2837 24.9481 23.2837 25.4619C23.2931 25.4985 23.3105 25.5326 23.3347 25.5617C23.359 25.5907 23.3893 25.614 23.4237 25.6299C23.4955 25.6888 23.5832 25.7249 23.6757 25.7335C23.9279 25.7764 24.1866 25.7606 24.4317 25.6873C24.6814 25.6296 24.9139 25.514 25.1107 25.3499L25.2423 25.2099C25.2742 25.17 25.297 25.1237 25.3091 25.0741C25.3211 25.0246 25.3223 24.9729 25.3123 24.9229V24.9523C25.3123 24.523 25.33 24.0932 25.3655 23.6629C25.378 23.629 25.3814 23.5923 25.3752 23.5567C25.3691 23.5211 25.3536 23.4877 25.3305 23.4599C25.3144 23.4251 25.2911 23.3941 25.2622 23.369C25.2332 23.3439 25.1992 23.3253 25.1625 23.3143Z" fill="#262626"/>
</svg>
