<svg width="213" height="213" viewBox="0 0 213 213" fill="none" xmlns="http://www.w3.org/2000/svg">
<path d="M118.68 179.275C118.302 179.275 117.933 179.155 117.628 178.931C117.323 178.707 117.098 178.391 116.985 178.03C116.872 177.669 116.878 177.281 117 176.923C117.123 176.566 117.357 176.256 117.668 176.041L148.39 154.805L107.494 178.409C107.095 178.646 106.618 178.717 106.167 178.607C105.716 178.497 105.326 178.215 105.08 177.82C104.835 177.426 104.754 176.951 104.855 176.497C104.956 176.044 105.23 175.648 105.62 175.395L132.039 157.719L107.494 171.887C107.098 172.109 106.632 172.17 106.193 172.059C105.753 171.947 105.373 171.672 105.129 171.289C104.886 170.906 104.799 170.445 104.886 169.999C104.972 169.554 105.226 169.159 105.595 168.895L129.784 152.082L107.494 164.951C107.098 165.175 106.632 165.239 106.19 165.13C105.749 165.02 105.366 164.745 105.122 164.361C104.877 163.978 104.789 163.515 104.876 163.069C104.962 162.622 105.217 162.226 105.588 161.962L121.431 150.825L107.902 158.635C107.513 158.861 107.053 158.93 106.615 158.829C106.176 158.728 105.793 158.465 105.541 158.092C105.29 157.719 105.189 157.265 105.26 156.821C105.33 156.377 105.567 155.976 105.921 155.699L121.456 143.551L110.135 150.083C109.754 150.3 109.307 150.369 108.879 150.276C108.45 150.182 108.072 149.934 107.816 149.578C107.56 149.223 107.444 148.785 107.492 148.349C107.539 147.913 107.746 147.511 108.073 147.219L116.273 139.977C115.958 139.975 115.648 139.893 115.374 139.738C115.1 139.582 114.87 139.359 114.708 139.089C114.472 138.682 114.408 138.198 114.529 137.743C114.65 137.288 114.947 136.9 115.354 136.664L128.975 128.801C129.356 128.58 129.806 128.509 130.237 128.601C130.668 128.693 131.049 128.943 131.306 129.3C131.564 129.658 131.679 130.099 131.629 130.537C131.579 130.975 131.368 131.378 131.038 131.67L123.686 138.166L141.602 127.821C141.991 127.606 142.446 127.544 142.878 127.647C143.31 127.751 143.687 128.013 143.935 128.381C144.184 128.749 144.285 129.197 144.219 129.636C144.153 130.076 143.925 130.474 143.58 130.754L128.045 142.905L154.173 127.821C154.569 127.597 155.035 127.533 155.477 127.643C155.918 127.752 156.301 128.027 156.545 128.411C156.79 128.794 156.878 129.257 156.791 129.704C156.705 130.15 156.45 130.546 156.079 130.81L140.225 141.947L164.72 127.825C165.116 127.604 165.582 127.542 166.021 127.654C166.461 127.765 166.841 128.04 167.084 128.423C167.328 128.806 167.415 129.268 167.328 129.713C167.242 130.158 166.988 130.553 166.619 130.818L142.415 147.637L176.737 127.825C177.135 127.594 177.608 127.527 178.055 127.638C178.503 127.749 178.889 128.03 179.133 128.421C179.377 128.812 179.459 129.283 179.362 129.733C179.266 130.184 178.998 130.579 178.615 130.835L152.188 148.518L184.529 129.848C184.926 129.624 185.393 129.562 185.835 129.673C186.276 129.784 186.658 130.06 186.902 130.445C187.145 130.83 187.231 131.293 187.143 131.74C187.054 132.187 186.797 132.582 186.425 132.845L155.692 154.07L191.345 133.48C191.741 133.259 192.207 133.197 192.646 133.309C193.086 133.42 193.466 133.695 193.709 134.078C193.953 134.461 194.04 134.923 193.953 135.368C193.867 135.813 193.613 136.209 193.244 136.473L168.039 153.868L196.24 137.584C196.637 137.36 197.104 137.297 197.546 137.408C197.988 137.519 198.37 137.796 198.613 138.18C198.857 138.565 198.943 139.029 198.854 139.476C198.765 139.922 198.508 140.318 198.136 140.58L180.031 153.005L199.556 141.734C199.955 141.514 200.423 141.455 200.863 141.57C201.304 141.686 201.683 141.966 201.923 142.353C202.163 142.74 202.245 143.204 202.152 143.65C202.059 144.096 201.798 144.489 201.423 144.748L197.38 147.432L201.42 145.099C201.811 144.877 202.271 144.811 202.709 144.915C203.146 145.019 203.528 145.285 203.776 145.66C204.025 146.034 204.123 146.489 204.049 146.933C203.975 147.376 203.736 147.775 203.38 148.049L185.487 161.582L203.592 151.116C203.981 150.888 204.443 150.816 204.883 150.915C205.323 151.014 205.708 151.277 205.961 151.65C206.214 152.024 206.316 152.479 206.245 152.925C206.174 153.37 205.937 153.772 205.58 154.049L193.542 163.52L204.64 157.13C205.015 156.904 205.461 156.825 205.891 156.908C206.322 156.991 206.706 157.23 206.971 157.58C207.235 157.929 207.361 158.364 207.324 158.801C207.287 159.238 207.089 159.645 206.77 159.945L197.76 168.625L204.927 164.489C205.291 164.28 205.717 164.207 206.13 164.282C206.542 164.357 206.915 164.576 207.182 164.899C207.449 165.223 207.592 165.631 207.587 166.05C207.582 166.47 207.428 166.874 207.153 167.191L204.224 170.553L204.97 170.123C205.278 169.945 205.632 169.864 205.987 169.89C206.342 169.915 206.681 170.047 206.96 170.268C207.239 170.489 207.445 170.788 207.552 171.128C207.658 171.467 207.66 171.831 207.558 172.171L206.756 174.82C207.036 174.978 207.268 175.209 207.43 175.487C207.664 175.895 207.727 176.378 207.606 176.832C207.484 177.286 207.187 177.673 206.78 177.908L205.005 178.931C204.697 179.108 204.344 179.188 203.989 179.162C203.635 179.135 203.297 179.003 203.019 178.783C202.741 178.562 202.535 178.263 202.428 177.924C202.322 177.585 202.319 177.223 202.421 176.882L202.858 175.437L196.791 178.938C196.427 179.145 196.003 179.217 195.592 179.141C195.18 179.066 194.809 178.848 194.543 178.525C194.277 178.203 194.133 177.796 194.137 177.378C194.141 176.96 194.293 176.557 194.565 176.24L197.486 172.878L186.971 178.948C186.596 179.174 186.15 179.254 185.72 179.171C185.289 179.088 184.905 178.848 184.64 178.499C184.376 178.149 184.25 177.714 184.287 177.277C184.324 176.841 184.522 176.433 184.841 176.133L193.862 167.436L173.893 178.963C173.505 179.181 173.049 179.245 172.616 179.143C172.182 179.041 171.803 178.78 171.554 178.411C171.304 178.043 171.202 177.594 171.267 177.153C171.333 176.713 171.562 176.313 171.909 176.034L183.933 166.57L162.441 178.977C162.05 179.199 161.59 179.265 161.152 179.161C160.715 179.057 160.333 178.791 160.084 178.416C159.836 178.042 159.738 177.587 159.812 177.143C159.886 176.7 160.125 176.301 160.481 176.027L178.377 162.494L149.81 178.991C149.41 179.223 148.936 179.29 148.488 179.177C148.04 179.065 147.653 178.782 147.41 178.389C147.167 177.997 147.087 177.525 147.186 177.073C147.286 176.622 147.557 176.228 147.943 175.974L151.968 173.304L142.103 178.984C141.706 179.211 141.236 179.276 140.793 179.165C140.349 179.055 139.965 178.777 139.721 178.39C139.477 178.003 139.391 177.537 139.483 177.089C139.574 176.64 139.835 176.245 140.211 175.984L158.316 163.559L131.584 178.991C131.188 179.215 130.72 179.278 130.279 179.167C129.837 179.056 129.455 178.779 129.212 178.394C128.968 178.01 128.882 177.546 128.971 177.099C129.059 176.653 129.316 176.257 129.689 175.995L154.915 158.6L119.553 179.012C119.291 179.175 118.989 179.266 118.68 179.275Z" fill="#D4DEE2"/>
<path d="M154.159 175.693C153.812 175.693 153.472 175.592 153.182 175.401C152.892 175.21 152.665 174.938 152.528 174.619C152.39 174.301 152.35 173.949 152.411 173.607C152.471 173.265 152.631 172.949 152.87 172.697L154.95 170.492L146.576 175.327C146.201 175.55 145.757 175.626 145.329 175.543C144.901 175.459 144.519 175.22 144.256 174.873C143.992 174.525 143.866 174.093 143.901 173.658C143.936 173.223 144.13 172.817 144.446 172.516L151.659 165.554L148.109 167.599C147.758 167.802 147.347 167.879 146.946 167.816C146.545 167.753 146.178 167.554 145.905 167.253C145.633 166.952 145.472 166.567 145.449 166.161C145.426 165.756 145.543 165.355 145.781 165.025L150.36 158.66L149.835 158.966C149.633 159.094 149.407 159.18 149.171 159.219C148.934 159.258 148.693 159.249 148.46 159.192C148.228 159.135 148.009 159.031 147.818 158.888C147.626 158.744 147.466 158.563 147.346 158.356C147.226 158.149 147.149 157.919 147.12 157.682C147.092 157.444 147.111 157.203 147.178 156.973C147.244 156.743 147.357 156.529 147.509 156.344C147.66 156.158 147.848 156.006 148.06 155.895L155.749 151.454C156.101 151.252 156.51 151.177 156.91 151.241C157.31 151.305 157.677 151.503 157.948 151.804C158.22 152.105 158.38 152.489 158.403 152.894C158.426 153.298 158.31 153.698 158.074 154.027L153.491 160.393L162.409 155.245C162.784 155.023 163.228 154.946 163.656 155.03C164.084 155.114 164.466 155.352 164.729 155.7C164.992 156.048 165.118 156.48 165.083 156.915C165.048 157.349 164.854 157.756 164.539 158.057L157.322 165.022L163.683 161.351C164.053 161.135 164.488 161.06 164.909 161.139C165.329 161.218 165.707 161.447 165.972 161.783C166.238 162.118 166.373 162.539 166.353 162.966C166.333 163.394 166.159 163.8 165.863 164.109L163.783 166.31L164.613 165.831C164.892 165.67 165.209 165.588 165.531 165.593C165.853 165.599 166.167 165.692 166.441 165.862C166.714 166.032 166.935 166.274 167.082 166.56C167.228 166.847 167.294 167.168 167.272 167.489L167.017 171.192C167.368 171.266 167.689 171.445 167.936 171.705C168.183 171.965 168.346 172.294 168.403 172.649C168.459 173.003 168.407 173.367 168.253 173.691C168.098 174.015 167.849 174.285 167.539 174.465L165.938 175.388C165.659 175.543 165.344 175.621 165.026 175.613C164.707 175.605 164.397 175.511 164.127 175.341C163.857 175.172 163.638 174.933 163.492 174.649C163.347 174.366 163.28 174.048 163.3 173.73L163.524 170.574L155.06 175.455C154.787 175.615 154.475 175.698 154.159 175.693Z" fill="#C43D3D"/>
<path d="M98.0513 211.225C97.6764 211.231 97.3091 211.118 97.0022 210.903C96.6954 210.687 96.4647 210.38 96.3432 210.025C96.2218 209.67 96.2159 209.286 96.3263 208.928C96.4367 208.569 96.6579 208.255 96.9579 208.03L104.015 202.549L89.7798 210.771C89.3904 210.993 88.9312 211.059 88.4946 210.957C88.058 210.855 87.6764 210.591 87.4264 210.219C87.1764 209.846 87.0766 209.393 87.147 208.95C87.2175 208.507 87.4529 208.108 87.806 207.831L94.054 203.007L90.7561 204.91C90.3784 205.115 89.9392 205.176 89.5199 205.082C89.1005 204.988 88.7296 204.744 88.4759 204.398C88.2223 204.051 88.1031 203.624 88.1405 203.195C88.1779 202.767 88.3693 202.367 88.6793 202.07L92.9855 198.165L91.7678 198.875C91.4536 199.054 91.0918 199.134 90.7311 199.102C90.3704 199.071 90.0279 198.929 89.7498 198.698C89.4716 198.466 89.271 198.154 89.1748 197.805C89.0786 197.456 89.0916 197.086 89.2118 196.745L91.3134 190.94C91.0435 190.787 90.8202 190.564 90.6673 190.294C90.432 189.887 90.3682 189.402 90.49 188.947C90.6118 188.493 90.9093 188.105 91.317 187.87L93.2801 186.734C93.5944 186.554 93.9562 186.474 94.3169 186.506C94.6776 186.537 95.02 186.679 95.2982 186.91C95.5764 187.142 95.777 187.454 95.8732 187.803C95.9693 188.152 95.9564 188.522 95.8361 188.864L94.2067 193.372L105.734 186.716C106.111 186.511 106.55 186.449 106.97 186.544C107.389 186.638 107.76 186.881 108.014 187.228C108.267 187.575 108.387 188.002 108.349 188.43C108.312 188.858 108.12 189.258 107.81 189.556L103.504 193.461L115.219 186.716C115.609 186.494 116.068 186.427 116.504 186.529C116.941 186.632 117.323 186.896 117.573 187.268C117.823 187.64 117.922 188.093 117.852 188.536C117.782 188.979 117.546 189.379 117.193 189.655L110.924 194.494L124.414 186.709C124.803 186.483 125.263 186.414 125.701 186.515C126.139 186.616 126.523 186.879 126.775 187.252C127.026 187.625 127.127 188.079 127.056 188.523C126.986 188.967 126.749 189.368 126.395 189.645L119.337 195.143L133.967 186.698C134.358 186.471 134.821 186.401 135.261 186.503C135.702 186.606 136.086 186.872 136.337 187.249C136.587 187.625 136.685 188.083 136.609 188.529C136.534 188.975 136.291 189.375 135.93 189.648L130.402 193.83L142.774 186.691C143.156 186.468 143.608 186.396 144.04 186.489C144.472 186.582 144.854 186.833 145.112 187.193C145.369 187.552 145.482 187.995 145.43 188.434C145.378 188.873 145.164 189.277 144.83 189.566L134.251 198.796L155.245 186.677C155.628 186.452 156.081 186.38 156.515 186.473C156.949 186.566 157.332 186.819 157.589 187.18C157.846 187.542 157.959 187.987 157.904 188.427C157.849 188.868 157.631 189.271 157.294 189.559L146.97 198.445L167.39 186.659C167.779 186.438 168.237 186.372 168.672 186.475C169.108 186.577 169.489 186.84 169.738 187.211C169.988 187.582 170.089 188.034 170.02 188.476C169.951 188.918 169.718 189.317 169.367 189.595L162.512 194.92L176.836 186.655C177.222 186.433 177.677 186.364 178.111 186.461C178.545 186.558 178.927 186.814 179.181 187.179C179.435 187.544 179.542 187.992 179.482 188.432C179.422 188.873 179.199 189.275 178.856 189.559L169.371 197.412L188.047 186.631C188.438 186.411 188.898 186.348 189.334 186.453C189.77 186.559 190.15 186.826 190.397 187.2C190.644 187.574 190.741 188.028 190.667 188.47C190.593 188.912 190.355 189.31 190 189.584L185.179 193.212L196.596 186.62C196.989 186.398 197.451 186.334 197.889 186.441C198.328 186.549 198.709 186.818 198.955 187.196C199.202 187.574 199.295 188.032 199.216 188.476C199.137 188.92 198.892 189.318 198.531 189.588L196.134 191.338L204.324 186.613C204.71 186.392 205.165 186.325 205.599 186.423C206.032 186.522 206.413 186.78 206.665 187.146C206.918 187.512 207.024 187.959 206.962 188.399C206.901 188.84 206.677 189.241 206.333 189.524L197.285 196.936L204.906 192.534C205.288 192.315 205.738 192.246 206.168 192.34C206.598 192.434 206.978 192.685 207.234 193.043C207.49 193.402 207.603 193.842 207.552 194.28C207.501 194.717 207.29 195.12 206.958 195.41L203.302 198.587L204.906 197.664C205.276 197.453 205.71 197.382 206.128 197.464C206.546 197.546 206.921 197.776 207.184 198.111C207.447 198.447 207.58 198.866 207.559 199.291C207.539 199.717 207.366 200.121 207.072 200.429L205.616 201.938C205.956 201.905 206.298 201.97 206.602 202.126C206.905 202.283 207.157 202.523 207.327 202.819C207.562 203.226 207.626 203.709 207.505 204.163C207.383 204.616 207.087 205.004 206.681 205.24L196.901 210.87C196.531 211.084 196.096 211.157 195.676 211.076C195.257 210.995 194.88 210.765 194.617 210.428C194.353 210.092 194.219 209.672 194.24 209.245C194.262 208.818 194.436 208.413 194.732 208.105L195.797 207.015L189.102 210.881C188.72 211.096 188.273 211.162 187.845 211.067C187.418 210.972 187.041 210.722 186.786 210.366C186.531 210.01 186.418 209.572 186.466 209.137C186.515 208.702 186.723 208.3 187.05 208.009L190.713 204.814L180.198 210.884C179.813 211.104 179.359 211.171 178.926 211.072C178.494 210.974 178.114 210.717 177.861 210.352C177.608 209.987 177.502 209.541 177.562 209.101C177.622 208.662 177.844 208.26 178.185 207.977L187.22 200.575L169.335 210.916C168.942 211.138 168.48 211.202 168.042 211.095C167.603 210.988 167.222 210.718 166.976 210.34C166.73 209.962 166.636 209.504 166.715 209.06C166.794 208.616 167.039 208.218 167.401 207.948L169.807 206.173L161.607 210.909C161.216 211.133 160.754 211.2 160.315 211.096C159.876 210.992 159.494 210.725 159.245 210.349C158.996 209.973 158.899 209.516 158.975 209.072C159.05 208.627 159.292 208.228 159.651 207.955L164.479 204.327L153.051 210.92C152.667 211.137 152.215 211.203 151.784 211.105C151.353 211.007 150.974 210.752 150.721 210.389C150.469 210.026 150.36 209.582 150.418 209.144C150.475 208.706 150.694 208.305 151.032 208.019L160.503 200.153L141.826 210.934C141.438 211.151 140.981 211.213 140.549 211.11C140.116 211.006 139.737 210.743 139.489 210.374C139.241 210.004 139.14 209.555 139.208 209.115C139.275 208.675 139.505 208.276 139.853 207.998L146.701 202.673L132.38 210.937C131.997 211.158 131.546 211.228 131.114 211.133C130.683 211.039 130.302 210.787 130.046 210.426C129.79 210.066 129.678 209.623 129.732 209.185C129.785 208.746 130 208.343 130.335 208.055L140.669 199.155L120.242 210.948C119.86 211.171 119.409 211.243 118.977 211.15C118.544 211.057 118.162 210.806 117.905 210.446C117.648 210.087 117.534 209.644 117.586 209.205C117.639 208.766 117.853 208.362 118.187 208.073L128.769 198.843L107.764 210.966C107.375 211.183 106.919 211.245 106.486 211.142C106.053 211.038 105.675 210.775 105.427 210.406C105.178 210.036 105.078 209.587 105.145 209.147C105.213 208.707 105.443 208.308 105.79 208.03L111.289 203.859L98.9388 210.994C98.6683 211.148 98.3623 211.227 98.0513 211.225Z" fill="#66534F"/>
<path d="M144.219 150.591C143.852 150.591 143.494 150.477 143.194 150.265C142.895 150.053 142.668 149.753 142.546 149.407C142.424 149.061 142.412 148.685 142.512 148.332C142.612 147.979 142.819 147.666 143.104 147.435L151.269 140.807L141.968 146.178C141.587 146.399 141.138 146.47 140.708 146.378C140.278 146.286 139.897 146.037 139.64 145.68C139.382 145.323 139.267 144.884 139.315 144.446C139.364 144.009 139.573 143.605 139.902 143.313L145.714 138.148L139.679 141.627C139.314 141.836 138.887 141.909 138.474 141.832C138.06 141.756 137.688 141.535 137.422 141.21C137.156 140.884 137.014 140.475 137.022 140.055C137.029 139.635 137.186 139.231 137.463 138.915L141.013 134.904L137.364 137.009C137.1 137.161 136.802 137.242 136.497 137.245C136.193 137.249 135.893 137.174 135.626 137.028C135.359 136.881 135.134 136.669 134.973 136.411C134.811 136.153 134.719 135.857 134.705 135.553L134.545 131.74C134.132 131.92 133.666 131.935 133.242 131.784C132.818 131.633 132.467 131.326 132.261 130.925C132.054 130.525 132.008 130.061 132.131 129.628C132.254 129.194 132.537 128.824 132.923 128.592L135.298 127.218C135.562 127.066 135.86 126.984 136.164 126.981C136.469 126.978 136.769 127.053 137.036 127.199C137.303 127.345 137.528 127.557 137.689 127.816C137.85 128.074 137.943 128.369 137.957 128.673L138.131 132.475L148.717 126.38C149.081 126.173 149.507 126.102 149.918 126.179C150.33 126.256 150.701 126.476 150.967 126.8C151.232 127.124 151.374 127.532 151.367 127.951C151.361 128.369 151.207 128.773 150.932 129.089L147.382 133.104L159.04 126.38C159.421 126.164 159.867 126.095 160.295 126.188C160.723 126.281 161.101 126.529 161.357 126.884C161.613 127.238 161.729 127.675 161.683 128.11C161.637 128.546 161.431 128.948 161.106 129.241L155.302 134.399L169.037 126.472C169.424 126.251 169.879 126.182 170.314 126.281C170.748 126.38 171.13 126.639 171.382 127.006C171.635 127.373 171.74 127.821 171.677 128.263C171.614 128.704 171.388 129.105 171.043 129.387L162.846 136.025L177.5 127.566C177.883 127.349 178.333 127.281 178.762 127.377C179.192 127.473 179.57 127.725 179.824 128.084C180.079 128.443 180.19 128.884 180.138 129.321C180.086 129.757 179.873 130.159 179.541 130.448L175.463 133.945C175.818 133.876 176.186 133.918 176.517 134.064C176.848 134.21 177.127 134.454 177.315 134.763C177.504 135.072 177.593 135.432 177.572 135.793C177.55 136.154 177.419 136.5 177.195 136.785L171.589 143.885C171.942 144.035 172.235 144.297 172.424 144.631C172.659 145.038 172.724 145.522 172.603 145.977C172.481 146.431 172.185 146.819 171.778 147.055L166.517 150.09C166.159 150.294 165.742 150.367 165.336 150.298C164.931 150.228 164.562 150.019 164.294 149.708C164.025 149.396 163.873 149.001 163.863 148.59C163.853 148.178 163.987 147.776 164.241 147.453L168.625 141.872L161.021 146.26C160.638 146.477 160.189 146.544 159.759 146.448C159.33 146.353 158.951 146.101 158.697 145.742C158.443 145.383 158.331 144.942 158.383 144.505C158.435 144.068 158.648 143.666 158.98 143.377L162.686 140.182L145.106 150.332C144.839 150.495 144.532 150.584 144.219 150.591Z" fill="#E7EDEF"/>
<path d="M128.332 90.525C127.953 90.5252 127.583 90.4037 127.278 90.1786C126.973 89.9534 126.748 89.6363 126.636 89.2739C126.524 88.9114 126.531 88.5226 126.656 88.1645C126.781 87.8063 127.018 87.4977 127.331 87.2839L142.195 77.1486L121.694 88.9701C121.298 89.1981 120.83 89.265 120.387 89.157C119.944 89.0491 119.559 88.7744 119.313 88.3902C119.066 88.006 118.978 87.5417 119.065 87.0938C119.152 86.6458 119.408 86.2486 119.78 85.9846L144.485 68.515L121.694 81.65C121.297 81.8707 120.83 81.9309 120.391 81.8183C119.951 81.7057 119.571 81.4287 119.329 81.0445C119.087 80.6602 119.001 80.1979 119.09 79.7525C119.179 79.3072 119.435 78.9127 119.805 78.6503L132.912 69.6688L121.694 76.144C121.299 76.3727 120.832 76.4408 120.388 76.3343C119.945 76.2277 119.56 75.9546 119.312 75.5716C119.065 75.1886 118.974 74.725 119.06 74.2771C119.145 73.8291 119.399 73.4311 119.77 73.1655L134.587 62.5155L122.386 69.58C121.998 69.8103 121.537 69.8842 121.096 69.7867C120.656 69.6892 120.269 69.4276 120.014 69.055C119.76 68.6825 119.657 68.227 119.726 67.7811C119.795 67.3353 120.032 66.9326 120.387 66.6548L133.771 55.9516L125.734 60.5985C125.347 60.8173 124.892 60.883 124.459 60.7827C124.026 60.6823 123.646 60.4232 123.395 60.0565C123.144 59.6899 123.04 59.2423 123.103 58.8024C123.165 58.3624 123.391 57.9621 123.735 57.6804L129.77 52.8382C129.571 52.6929 129.405 52.5064 129.284 52.2915C129.049 51.8842 128.986 51.4005 129.108 50.9467C129.23 50.4928 129.526 50.1058 129.933 49.8704L142.681 42.5077C143.068 42.2889 143.523 42.2232 143.956 42.3236C144.389 42.424 144.768 42.6831 145.019 43.0497C145.271 43.4164 145.375 43.8639 145.312 44.3039C145.249 44.7438 145.024 45.1442 144.68 45.4258L144.076 45.9122L152.295 41.18C152.682 40.956 153.14 40.8865 153.576 40.9856C154.013 41.0847 154.396 41.345 154.648 41.7143C154.901 42.0837 155.005 42.535 154.939 42.9776C154.873 43.4203 154.643 43.8218 154.293 44.1017L140.913 54.8049L163.836 41.5705C164.23 41.3418 164.698 41.2737 165.141 41.3803C165.584 41.4868 165.97 41.7599 166.217 42.1429C166.464 42.5259 166.555 42.9895 166.47 43.4374C166.385 43.8854 166.13 44.2834 165.76 44.549L150.931 55.199L171.032 43.594C171.428 43.3733 171.895 43.3131 172.335 43.4258C172.774 43.5384 173.154 43.8153 173.396 44.1996C173.638 44.5838 173.724 45.0462 173.635 45.4915C173.547 45.9369 173.291 46.3313 172.92 46.5938L159.824 55.5646L176.03 46.2139C176.424 45.9942 176.888 45.9331 177.326 46.0431C177.764 46.1531 178.144 46.4259 178.388 46.806C178.631 47.1861 178.721 47.6449 178.639 48.0889C178.556 48.533 178.308 48.9288 177.943 49.1959L153.253 66.6477L181.323 50.4455C181.721 50.2147 182.192 50.1472 182.639 50.2574C183.085 50.3675 183.472 50.6465 183.717 51.0358C183.961 51.4251 184.046 51.8942 183.951 52.3443C183.857 52.7944 183.592 53.1904 183.212 53.4488L168.348 63.5876L184.557 54.2298C184.949 54.0069 185.411 53.9416 185.85 54.0472C186.288 54.1528 186.67 54.4213 186.918 54.7982C187.165 55.1751 187.26 55.6321 187.183 56.0765C187.106 56.5208 186.863 56.9191 186.502 57.1905L167.052 71.5964L187.759 59.64C188.148 59.4245 188.603 59.3623 189.035 59.4659C189.466 59.5695 189.844 59.8313 190.092 60.1996C190.341 60.5679 190.442 61.0159 190.376 61.4552C190.31 61.8944 190.082 62.2931 189.736 62.5723L174.496 74.4826L189.822 65.6395C190.207 65.4161 190.663 65.346 191.098 65.4432C191.533 65.5404 191.916 65.7977 192.17 66.164C192.424 66.5303 192.531 66.9787 192.469 67.4203C192.408 67.8618 192.183 68.264 191.838 68.547L182.186 76.5167L190.635 71.6355C191.013 71.419 191.457 71.3491 191.883 71.4391C192.31 71.5291 192.688 71.7727 192.946 72.1235C193.204 72.4742 193.325 72.9078 193.284 73.3415C193.243 73.7752 193.045 74.1788 192.726 74.4755L187.656 79.165L190.738 77.39C191.077 77.1941 191.471 77.1157 191.859 77.1672C192.247 77.2186 192.607 77.397 192.884 77.6744C193.16 77.9519 193.337 78.3129 193.386 78.7013C193.436 79.0897 193.356 79.4836 193.159 79.8218L190.851 83.7658C191.261 83.5638 191.733 83.5274 192.169 83.6644C192.604 83.8014 192.971 84.1012 193.191 84.5013C193.411 84.9015 193.469 85.3712 193.352 85.8128C193.235 86.2543 192.952 86.6338 192.562 86.8721L186.815 90.1913C186.476 90.3873 186.082 90.4656 185.693 90.4142C185.305 90.3628 184.945 90.1844 184.669 89.9069C184.392 89.6294 184.216 89.2684 184.166 88.88C184.116 88.4916 184.196 88.0977 184.394 87.7596L186.705 83.8155L175.632 90.2055C175.254 90.422 174.81 90.4919 174.384 90.4019C173.957 90.3119 173.579 90.0683 173.321 89.7176C173.063 89.3668 172.942 88.9333 172.983 88.4995C173.024 88.0658 173.222 87.6622 173.541 87.3655L178.621 82.6724L165.55 90.2197C165.165 90.442 164.71 90.5116 164.276 90.4146C163.842 90.3175 163.46 90.0611 163.206 89.6959C162.952 89.3307 162.844 88.8834 162.905 88.4427C162.965 88.0019 163.188 87.5998 163.53 87.3158L173.179 79.3496L154.322 90.2375C153.933 90.457 153.476 90.5221 153.042 90.4199C152.607 90.3176 152.228 90.0555 151.978 89.6857C151.728 89.3159 151.627 88.8656 151.694 88.4245C151.761 87.9833 151.992 87.5837 152.341 87.3052L167.581 75.3878L141.833 90.2552C141.441 90.4781 140.979 90.5434 140.54 90.4379C140.102 90.3323 139.72 90.0638 139.472 89.6869C139.224 89.31 139.13 88.8529 139.207 88.4086C139.284 87.9642 139.527 87.5659 139.887 87.2945L159.348 72.8815L129.22 90.2765C128.951 90.437 128.645 90.5228 128.332 90.525Z" fill="#60697F"/>
<path d="M154.28 141.042C153.924 141.042 153.576 140.935 153.281 140.735C152.986 140.534 152.759 140.25 152.628 139.919C152.497 139.588 152.469 139.225 152.547 138.878C152.625 138.53 152.806 138.214 153.066 137.971L154.287 136.828L152.817 137.676C152.442 137.902 151.996 137.981 151.565 137.898C151.135 137.815 150.751 137.576 150.486 137.226C150.222 136.877 150.096 136.442 150.133 136.005C150.17 135.568 150.367 135.161 150.687 134.861L154.262 131.417L149.963 133.902C149.622 134.1 149.225 134.178 148.834 134.125C148.443 134.072 148.082 133.89 147.806 133.608C147.53 133.327 147.356 132.962 147.31 132.57C147.265 132.178 147.352 131.783 147.556 131.446L149.842 127.669L146.647 129.504C146.338 129.682 145.982 129.762 145.626 129.734C145.27 129.706 144.931 129.572 144.652 129.348C144.374 129.125 144.17 128.823 144.066 128.481C143.962 128.14 143.963 127.775 144.07 127.434L144.748 125.304C144.477 125.149 144.252 124.925 144.096 124.654C143.94 124.384 143.857 124.078 143.857 123.765C143.857 123.453 143.94 123.147 144.096 122.876C144.252 122.606 144.477 122.382 144.748 122.227L146.523 121.193C146.833 121.014 147.191 120.932 147.548 120.959C147.906 120.986 148.247 121.121 148.526 121.346C148.805 121.571 149.01 121.875 149.113 122.219C149.216 122.562 149.213 122.929 149.104 123.27L148.823 124.161L154.021 121.158C154.361 120.962 154.758 120.884 155.147 120.938C155.537 120.991 155.898 121.172 156.173 121.453C156.449 121.734 156.623 122.098 156.669 122.489C156.715 122.879 156.63 123.274 156.427 123.611L154.145 127.388L165.075 121.083C165.451 120.857 165.897 120.778 166.327 120.861C166.757 120.944 167.142 121.184 167.406 121.533C167.671 121.883 167.796 122.318 167.759 122.754C167.722 123.191 167.525 123.599 167.205 123.899L163.627 127.349L165.899 126.039C166.277 125.816 166.724 125.742 167.154 125.829C167.585 125.917 167.967 126.161 168.228 126.514C168.489 126.867 168.609 127.304 168.567 127.741C168.524 128.178 168.321 128.583 167.997 128.879L162.494 134.03C162.599 134.136 162.69 134.256 162.764 134.385C162.998 134.793 163.062 135.276 162.94 135.73C162.818 136.184 162.521 136.571 162.115 136.806L155.185 140.807C154.91 140.967 154.597 141.048 154.28 141.042Z" fill="#FCA380"/>
<path d="M152.703 157.929C152.381 157.928 152.064 157.84 151.788 157.674C151.512 157.507 151.287 157.269 151.136 156.984C150.985 156.699 150.915 156.378 150.933 156.056C150.951 155.734 151.056 155.423 151.237 155.156L154.45 150.442L149.011 153.58C148.641 153.796 148.206 153.872 147.785 153.792C147.364 153.712 146.986 153.483 146.721 153.146C146.455 152.81 146.321 152.389 146.342 151.961C146.363 151.533 146.538 151.127 146.835 150.818L148.34 149.235C148.091 149.188 147.856 149.087 147.65 148.94C147.444 148.793 147.272 148.603 147.147 148.383C146.912 147.975 146.848 147.491 146.97 147.036C147.092 146.581 147.389 146.194 147.797 145.958L156.115 141.159C156.484 140.948 156.917 140.876 157.334 140.957C157.752 141.039 158.127 141.267 158.39 141.601C158.653 141.936 158.787 142.353 158.769 142.778C158.75 143.203 158.579 143.607 158.287 143.917L157.847 144.378L159.405 143.48C159.753 143.28 160.159 143.204 160.556 143.265C160.952 143.325 161.317 143.518 161.59 143.812C161.863 144.106 162.029 144.484 162.059 144.884C162.09 145.284 161.984 145.683 161.759 146.015L158.546 150.729L164.113 147.534C164.441 147.341 164.824 147.259 165.202 147.303C165.581 147.347 165.935 147.513 166.211 147.776C166.489 148.036 166.676 148.379 166.744 148.753C166.813 149.128 166.759 149.514 166.591 149.856L164.748 153.573C164.898 153.705 165.026 153.859 165.128 154.031C165.244 154.233 165.32 154.456 165.35 154.687C165.38 154.919 165.364 155.153 165.304 155.379C165.243 155.604 165.139 155.815 164.996 156C164.854 156.184 164.677 156.339 164.475 156.456L162.395 157.655C162.064 157.849 161.681 157.931 161.3 157.888C160.92 157.846 160.564 157.682 160.284 157.42C160.005 157.159 159.818 156.814 159.75 156.437C159.682 156.061 159.738 155.672 159.91 155.33L160.797 153.555L153.591 157.691C153.321 157.849 153.015 157.931 152.703 157.929Z" fill="#DD4444"/>
<path d="M157.212 125.887C156.839 125.887 156.476 125.769 156.174 125.552C155.871 125.334 155.645 125.026 155.528 124.673C155.41 124.319 155.406 123.938 155.517 123.582C155.628 123.227 155.849 122.915 156.147 122.692L157.836 121.424L151.265 125.219C150.87 125.441 150.405 125.504 149.966 125.394C149.526 125.284 149.145 125.01 148.901 124.628C148.656 124.246 148.568 123.786 148.652 123.341C148.737 122.895 148.988 122.499 149.355 122.234L150.797 121.218L146.104 123.927C145.707 124.154 145.239 124.22 144.795 124.111C144.352 124.001 143.967 123.725 143.722 123.34C143.477 122.954 143.39 122.489 143.479 122.041C143.568 121.593 143.827 121.197 144.201 120.934L156.526 112.333L140.889 121.36C140.49 121.587 140.018 121.651 139.574 121.538C139.129 121.425 138.745 121.144 138.503 120.754C138.261 120.364 138.179 119.895 138.275 119.446C138.371 118.997 138.637 118.603 139.018 118.346L143.775 115.176L137.608 118.726C137.215 118.95 136.751 119.015 136.311 118.908C135.872 118.801 135.489 118.53 135.243 118.151C134.996 117.771 134.904 117.312 134.984 116.866C135.065 116.421 135.313 116.024 135.677 115.755L156.91 100.359L133.622 113.802C133.222 114.04 132.746 114.111 132.295 114.001C131.843 113.891 131.453 113.608 131.208 113.214C130.963 112.819 130.882 112.344 130.983 111.891C131.083 111.438 131.358 111.042 131.747 110.788L137.193 107.16L131.765 110.288C131.369 110.506 130.904 110.565 130.466 110.452C130.028 110.339 129.65 110.063 129.408 109.681C129.166 109.298 129.08 108.838 129.167 108.394C129.253 107.95 129.506 107.556 129.873 107.292L142.589 98.5658L130.125 105.755C129.728 105.975 129.262 106.035 128.822 105.923C128.382 105.81 128.002 105.533 127.76 105.149C127.518 104.765 127.433 104.302 127.521 103.857C127.61 103.412 127.866 103.017 128.236 102.755L137.516 96.3967L129.149 101.228C128.751 101.452 128.283 101.514 127.841 101.401C127.399 101.289 127.018 101.011 126.775 100.625C126.533 100.239 126.448 99.7739 126.539 99.3271C126.63 98.8803 126.89 98.4857 127.264 98.225L130.051 96.3257L128.432 97.2558C128.045 97.4774 127.589 97.5456 127.155 97.4467C126.721 97.3479 126.339 97.0893 126.087 96.7222C125.834 96.3552 125.729 95.9066 125.792 95.4655C125.854 95.0244 126.081 94.6231 126.426 94.3413L143.065 80.8832L122.226 92.9035C121.836 93.1259 121.375 93.1918 120.938 93.0877C120.5 92.9837 120.118 92.7176 119.87 92.343C119.621 91.9685 119.524 91.5135 119.597 91.07C119.671 90.6265 119.91 90.2274 120.267 89.9535L133.125 80.1981L123.284 85.8781C122.903 86.0998 122.452 86.1714 122.02 86.0789C121.589 85.9863 121.207 85.7363 120.95 85.3775C120.693 85.0188 120.578 84.5771 120.629 84.1386C120.68 83.7002 120.893 83.2964 121.225 83.0061L128.354 76.7865C128.325 76.7439 128.3 76.7013 128.276 76.6587C128.04 76.2515 127.976 75.7673 128.097 75.3126C128.218 74.858 128.515 74.47 128.922 74.2341L136.043 70.1232C136.425 69.9006 136.876 69.8287 137.309 69.9215C137.741 70.0142 138.123 70.265 138.38 70.6248C138.637 70.9845 138.751 71.4272 138.699 71.8663C138.647 72.3054 138.433 72.7092 138.098 72.9987L137.314 73.6803L155.845 62.9841C156.236 62.7617 156.696 62.6958 157.134 62.7999C157.571 62.9039 157.953 63.1701 158.201 63.5446C158.45 63.9191 158.548 64.3741 158.474 64.8176C158.4 65.2612 158.161 65.6602 157.804 65.9342L144.946 75.686L160.815 66.5341C161.201 66.3164 161.655 66.2512 162.087 66.3514C162.519 66.4516 162.898 66.7099 163.149 67.0754C163.4 67.441 163.506 67.8873 163.444 68.3266C163.383 68.7658 163.159 69.1661 162.817 69.4487L146.196 82.9103L169.466 69.4771C169.864 69.2462 170.336 69.1788 170.782 69.2889C171.229 69.399 171.615 69.6781 171.86 70.0674C172.105 70.4566 172.189 70.9257 172.094 71.3758C172 71.8259 171.735 72.2219 171.355 72.4804L168.564 74.3796L175.664 70.2758C176.062 70.0488 176.531 69.9839 176.975 70.0945C177.419 70.2052 177.803 70.483 178.047 70.8698C178.291 71.2567 178.376 71.7229 178.285 72.1711C178.193 72.6193 177.933 73.015 177.557 73.2756L168.27 79.6265L180.283 72.6934C180.679 72.4751 181.144 72.4164 181.582 72.5292C182.02 72.642 182.399 72.9179 182.64 73.3004C182.882 73.6829 182.968 74.1432 182.882 74.5872C182.795 75.0313 182.543 75.4256 182.175 75.6896L169.456 84.4155L182.946 76.6303C183.344 76.4034 183.816 76.3398 184.261 76.4529C184.705 76.5661 185.089 76.8471 185.331 77.2371C185.573 77.627 185.655 78.0956 185.559 78.5444C185.463 78.9932 185.197 79.3874 184.816 79.6443L179.381 83.2688L184.547 80.2868C184.94 80.063 185.404 79.998 185.844 80.105C186.284 80.212 186.666 80.4829 186.912 80.8624C187.159 81.2419 187.251 81.7012 187.171 82.1466C187.09 82.5919 186.842 82.9895 186.478 83.2582L165.263 98.6616L190.056 84.348C190.454 84.1307 190.92 84.074 191.359 84.1895C191.797 84.3049 192.175 84.5839 192.414 84.969C192.654 85.3542 192.737 85.8163 192.646 86.2607C192.555 86.705 192.298 87.0978 191.927 87.3584L187.156 90.5534L190.539 88.6009C190.935 88.3735 191.404 88.3077 191.847 88.417C192.291 88.5264 192.675 88.8025 192.92 89.188C193.165 89.5735 193.252 90.0387 193.163 90.4867C193.074 90.9348 192.816 91.3312 192.442 91.5936L180.095 100.213L183.194 98.438C183.59 98.2067 184.06 98.1376 184.506 98.2452C184.951 98.3527 185.338 98.6286 185.585 99.0149C185.832 99.4013 185.92 99.8682 185.83 100.318C185.74 100.767 185.48 101.165 185.104 101.427L182.662 103.145C183.053 103.083 183.454 103.153 183.801 103.344C184.148 103.536 184.42 103.838 184.575 104.203C184.731 104.568 184.759 104.974 184.657 105.356C184.555 105.739 184.327 106.077 184.011 106.315L180.634 108.839C181.024 108.843 181.402 108.974 181.709 109.213C182.017 109.452 182.237 109.785 182.337 110.162C182.436 110.539 182.409 110.937 182.259 111.297C182.109 111.657 181.845 111.957 181.508 112.152L158.078 125.677C157.812 125.819 157.513 125.892 157.212 125.887Z" fill="#FFB392"/>
<path d="M95.2149 193.475C94.8402 193.48 94.4735 193.367 94.1672 193.151C93.861 192.935 93.6309 192.628 93.5099 192.273C93.3889 191.919 93.3833 191.535 93.4938 191.177C93.6043 190.819 93.8253 190.505 94.1251 190.28L96.6491 188.313L93.2944 190.248C92.9139 190.468 92.4656 190.538 92.0359 190.447C91.6063 190.355 91.226 190.107 90.9685 189.751C90.7111 189.395 90.5948 188.956 90.6421 188.52C90.6894 188.083 90.897 187.679 91.2247 187.387L94.7747 184.192L93.2802 185.054C92.9111 185.268 92.4775 185.341 92.0587 185.262C91.6399 185.182 91.2638 184.954 90.9992 184.619C90.7347 184.285 90.5993 183.867 90.6179 183.441C90.6365 183.015 90.8078 182.61 91.1005 182.3L92.3607 180.961C91.9601 180.953 91.5739 180.81 91.2638 180.556C90.9849 180.326 90.7831 180.016 90.6854 179.668C90.5877 179.319 90.5987 178.949 90.7171 178.608L91.4271 176.541C91.1718 176.376 90.9632 176.148 90.8214 175.879C90.6795 175.61 90.6091 175.309 90.617 175.005C90.6248 174.701 90.7106 174.405 90.8661 174.143C91.0217 173.882 91.2417 173.665 91.5052 173.513L93.2802 172.491C93.5947 172.312 93.956 172.233 94.3165 172.263C94.6771 172.294 95.0199 172.432 95.3001 172.661C95.5783 172.891 95.7797 173.201 95.8773 173.549C95.975 173.896 95.9644 174.265 95.8468 174.607L95.6125 175.278L100.465 172.53C100.834 172.319 101.266 172.247 101.683 172.328C102.1 172.408 102.475 172.635 102.738 172.968C103.002 173.301 103.138 173.718 103.121 174.142C103.104 174.566 102.935 174.971 102.645 175.281L101.992 175.991L107.963 172.548C108.34 172.348 108.777 172.29 109.193 172.386C109.61 172.482 109.977 172.725 110.229 173.071C110.48 173.416 110.599 173.84 110.563 174.266C110.527 174.691 110.339 175.09 110.033 175.388L106.483 178.583L116.948 172.548C117.337 172.322 117.797 172.253 118.236 172.354C118.674 172.455 119.057 172.718 119.309 173.091C119.56 173.464 119.661 173.918 119.591 174.362C119.52 174.806 119.284 175.207 118.929 175.484L116.408 177.45L124.882 172.53C125.267 172.316 125.717 172.252 126.146 172.352C126.575 172.451 126.952 172.706 127.203 173.068C127.454 173.429 127.562 173.871 127.506 174.308C127.45 174.744 127.233 175.144 126.899 175.43L121.847 179.616L134.123 172.516C134.491 172.305 134.923 172.233 135.34 172.313C135.756 172.393 136.131 172.619 136.395 172.952C136.659 173.284 136.795 173.7 136.779 174.124C136.763 174.548 136.595 174.952 136.306 175.263L127.981 184.174L148.177 172.53C148.555 172.319 148.997 172.254 149.42 172.346C149.842 172.438 150.217 172.682 150.473 173.03C150.729 173.379 150.848 173.809 150.809 174.24C150.77 174.671 150.575 175.073 150.261 175.37L143.094 181.891L159.328 172.53C159.717 172.309 160.175 172.243 160.61 172.346C161.046 172.448 161.427 172.711 161.676 173.082C161.926 173.453 162.027 173.905 161.958 174.347C161.889 174.789 161.656 175.188 161.305 175.466L158.859 177.372L167.252 172.53C167.639 172.309 168.096 172.242 168.531 172.343C168.966 172.443 169.347 172.704 169.598 173.073C169.849 173.442 169.952 173.892 169.886 174.333C169.821 174.775 169.591 175.175 169.243 175.455L166.048 177.983L175.502 172.53C175.874 172.325 176.308 172.261 176.723 172.349C177.139 172.437 177.51 172.671 177.767 173.009C178.025 173.346 178.153 173.765 178.128 174.19C178.104 174.614 177.927 175.015 177.632 175.32L169.577 183.393L188.392 172.53C188.763 172.316 189.198 172.243 189.619 172.325C190.039 172.407 190.415 172.638 190.679 172.976C190.942 173.313 191.074 173.735 191.051 174.163C191.028 174.59 190.852 174.995 190.554 175.302L182.389 183.72L201.782 172.53C202.173 172.309 202.632 172.244 203.068 172.348C203.504 172.452 203.885 172.717 204.134 173.091C204.382 173.464 204.48 173.917 204.408 174.36C204.336 174.802 204.1 175.201 203.746 175.476L202.865 176.147L207.406 173.527C207.791 173.312 208.243 173.247 208.674 173.347C209.104 173.447 209.482 173.704 209.733 174.067C209.984 174.431 210.091 174.875 210.032 175.313C209.973 175.75 209.753 176.151 209.415 176.435L206.067 179.179L208.456 177.802C208.824 177.593 209.253 177.522 209.668 177.602C210.082 177.682 210.455 177.906 210.719 178.236C210.983 178.566 211.12 178.979 211.107 179.401C211.094 179.823 210.931 180.226 210.647 180.539L207.232 184.245L208.456 183.535C208.862 183.323 209.334 183.275 209.774 183.403C210.213 183.531 210.587 183.823 210.816 184.219C211.045 184.616 211.112 185.085 211.003 185.53C210.894 185.975 210.618 186.36 210.231 186.606L198.914 193.12C198.547 193.328 198.117 193.399 197.703 193.32C197.288 193.24 196.915 193.015 196.651 192.686C196.388 192.356 196.25 191.943 196.263 191.521C196.276 191.099 196.44 190.695 196.724 190.383L200.132 186.684L188.963 193.131C188.578 193.346 188.126 193.411 187.695 193.311C187.265 193.211 186.887 192.954 186.636 192.591C186.385 192.227 186.278 191.783 186.337 191.346C186.396 190.908 186.616 190.507 186.954 190.223L190.312 187.472L180.493 193.152C180.103 193.373 179.643 193.438 179.207 193.334C178.771 193.23 178.39 192.964 178.142 192.591C177.893 192.218 177.795 191.765 177.867 191.322C177.939 190.879 178.176 190.481 178.53 190.205L179.407 189.538L173.13 193.159C172.759 193.373 172.324 193.446 171.903 193.364C171.483 193.282 171.107 193.051 170.843 192.713C170.58 192.375 170.448 191.954 170.471 191.526C170.494 191.099 170.67 190.694 170.968 190.386L179.133 181.969L159.722 193.173C159.35 193.378 158.916 193.442 158.5 193.354C158.085 193.266 157.714 193.032 157.456 192.695C157.198 192.357 157.07 191.938 157.095 191.514C157.12 191.089 157.296 190.688 157.592 190.383L165.65 182.307L146.807 193.184C146.419 193.405 145.963 193.472 145.528 193.371C145.093 193.271 144.712 193.01 144.461 192.641C144.209 192.272 144.106 191.822 144.172 191.38C144.238 190.939 144.468 190.538 144.816 190.259L148.011 187.738L138.553 193.194C138.164 193.415 137.706 193.481 137.271 193.379C136.835 193.276 136.455 193.013 136.205 192.642C135.955 192.271 135.854 191.82 135.923 191.378C135.992 190.936 136.225 190.536 136.576 190.259L139.025 188.349L130.616 193.202C130.238 193.412 129.796 193.478 129.373 193.385C128.951 193.293 128.576 193.05 128.32 192.701C128.064 192.352 127.945 191.922 127.984 191.491C128.022 191.061 128.217 190.659 128.532 190.362L135.703 183.84L119.451 193.223C119.082 193.439 118.648 193.515 118.228 193.436C117.808 193.358 117.43 193.13 117.164 192.796C116.898 192.461 116.762 192.042 116.78 191.615C116.799 191.188 116.97 190.782 117.264 190.472L125.592 181.565L105.357 193.237C104.972 193.459 104.517 193.529 104.083 193.432C103.649 193.335 103.267 193.078 103.013 192.713C102.759 192.348 102.651 191.901 102.711 191.46C102.772 191.019 102.995 190.617 103.337 190.333L108.385 186.155L96.1024 193.255C95.8314 193.406 95.5251 193.482 95.2149 193.475Z" fill="#894E3B"/>
<path d="M16.8664 76.2185C16.4841 76.2179 16.1122 76.0938 15.806 75.8648C15.4999 75.6357 15.2759 75.3139 15.1674 74.9473C15.0589 74.5807 15.0716 74.1888 15.2038 73.83C15.3359 73.4712 15.5804 73.1647 15.9008 72.9561L41.4253 56.3776L8.61978 75.3204C8.21786 75.5501 7.74212 75.6137 7.29399 75.4976C6.84586 75.3815 6.46081 75.095 6.22094 74.699C5.98107 74.3031 5.90537 73.8291 6.00997 73.3782C6.11457 72.9273 6.3912 72.535 6.78088 72.2851L26.0645 60.0589L5.27213 72.065C4.87194 72.2886 4.40076 72.3487 3.95725 72.2327C3.51375 72.1168 3.13231 71.8337 2.89283 71.4428C2.65334 71.0519 2.57437 70.5835 2.67245 70.1357C2.77054 69.6879 3.03807 69.2954 3.41903 69.0404L41.9969 43.9455L4.54438 65.5685C4.14543 65.7955 3.67408 65.859 3.22927 65.7459C2.78445 65.6328 2.40075 65.3517 2.15869 64.9618C1.91663 64.5718 1.83504 64.1033 1.93103 63.6544C2.02702 63.2056 2.29314 62.8114 2.67353 62.5546L46.8391 33.1357L4.54438 57.5526C4.14513 57.7759 3.67509 57.8365 3.23229 57.7216C2.78949 57.6068 2.40812 57.3254 2.16773 56.9362C1.92734 56.547 1.8465 56.0801 1.94206 55.6327C2.03762 55.1853 2.3022 54.7921 2.68063 54.5351L32.6604 34.7474L4.54438 50.9674C4.14725 51.1851 3.68193 51.2427 3.24367 51.1286C2.80541 51.0144 2.42737 50.737 2.18693 50.3533C1.9465 49.9695 1.86186 49.5083 1.95034 49.0641C2.03882 48.62 2.29372 48.2264 2.66288 47.9641L28.9968 30.1537L4.54438 44.2685C4.14349 44.4967 3.66951 44.5599 3.22285 44.4446C2.77619 44.3294 2.39194 44.0448 2.1515 43.6511C1.91105 43.2575 1.83331 42.7857 1.93472 42.3357C2.03614 41.8857 2.30876 41.4928 2.69483 41.2404L4.30298 40.2002C3.90292 40.3574 3.45941 40.3641 3.0548 40.219C2.65019 40.0739 2.31197 39.787 2.10293 39.4114C1.89389 39.0358 1.82824 38.5971 1.91816 38.1768C2.00808 37.7565 2.24747 37.3831 2.59188 37.1259L25.3829 20.054L4.54438 32.0849C4.15962 32.3025 3.70753 32.3687 3.27655 32.2706C2.84556 32.1724 2.46671 31.917 2.21409 31.5543C1.96148 31.1916 1.85328 30.7476 1.91068 30.3094C1.96808 29.8711 2.18693 29.47 2.52443 29.1846L18.7834 15.6946L4.54438 23.927C4.1687 24.1412 3.72775 24.2108 3.30435 24.1229C2.88095 24.035 2.50421 23.7955 2.24489 23.4494C1.98556 23.1034 1.86149 22.6745 1.89597 22.2435C1.93044 21.8124 2.1211 21.4088 2.43213 21.1083L11.3604 12.5351L4.54438 16.4791C4.20251 16.6824 3.80229 16.7649 3.4079 16.7135C3.01352 16.6621 2.64782 16.4797 2.36947 16.1957C2.09112 15.9116 1.91624 15.5422 1.87289 15.1469C1.82953 14.7515 1.92021 14.3531 2.13038 14.0154L5.39638 8.69042C4.9832 8.86976 4.5173 8.88531 4.09308 8.73392C3.66886 8.58254 3.31806 8.27554 3.11177 7.87514C2.90547 7.47474 2.85912 7.01089 2.98209 6.57758C3.10506 6.14427 3.38816 5.77392 3.77403 5.54157L9.67768 2.13002C10.0194 1.93274 10.4171 1.85496 10.808 1.90896C11.1989 1.96297 11.5606 2.14567 11.8361 2.42822C12.1105 2.71074 12.2831 3.07649 12.3268 3.46788C12.3705 3.85927 12.2828 4.25409 12.0775 4.59017L8.81858 9.91517L22.3157 2.13002C22.6916 1.89998 23.1396 1.81801 23.5726 1.90005C24.0056 1.9821 24.3926 2.22229 24.6583 2.57389C24.924 2.9255 25.0494 3.36338 25.0101 3.80233C24.9708 4.24128 24.7696 4.64991 24.4457 4.94872L15.4855 13.5149L35.2199 2.13002C35.6047 1.91244 36.0568 1.84625 36.4878 1.94439C36.9187 2.04253 37.2976 2.29795 37.5502 2.66066C37.8028 3.02338 37.911 3.4673 37.8536 3.90557C37.7962 4.34384 37.5774 4.74493 37.2399 5.03037L20.9809 18.4955L49.3454 2.13002C49.7371 1.90394 50.2004 1.83593 50.6406 1.93988C51.0808 2.04383 51.4647 2.3119 51.7139 2.68935C51.9631 3.06679 52.0588 3.52513 51.9815 3.97077C51.9042 4.41641 51.6597 4.81573 51.2979 5.08717L28.5069 22.1485L63.1904 2.13002C63.5902 1.913 64.0581 1.85778 64.4975 1.97576C64.9368 2.09374 65.3141 2.37592 65.5514 2.76403C65.7888 3.15214 65.868 3.61656 65.7728 4.06142C65.6777 4.50628 65.4153 4.89761 65.0399 5.15462L63.7619 5.98532L70.4501 2.13002C70.8473 1.91232 71.3126 1.85465 71.7508 1.96881C72.1891 2.08298 72.5671 2.36035 72.8076 2.74414C73.048 3.12793 73.1326 3.58911 73.0442 4.03327C72.9557 4.47743 72.7008 4.87097 72.3316 5.13332L45.9871 22.9437L82.0586 2.13002C82.4572 1.90996 82.9252 1.8515 83.3657 1.96673C83.8062 2.08196 84.1856 2.36206 84.4254 2.74912C84.6652 3.13618 84.7471 3.60059 84.6541 4.04633C84.5611 4.49206 84.3005 4.88503 83.9259 5.14397L53.9817 24.9139L93.0743 2.34302C93.4732 2.11609 93.9446 2.05252 94.3894 2.16565C94.8342 2.27878 95.2179 2.55981 95.46 2.94977C95.702 3.33973 95.7836 3.80829 95.6876 4.25712C95.5916 4.70594 95.3255 5.10014 94.9451 5.35697L50.7938 34.7687L98.1721 7.41242C98.5716 7.19238 99.0405 7.1346 99.4815 7.25105C99.9225 7.3675 100.302 7.64925 100.541 8.03784C100.779 8.42644 100.859 8.89206 100.764 9.33811C100.669 9.78416 100.406 10.1764 100.029 10.4335L61.4154 35.5533L98.4241 14.2C98.8256 13.9793 99.2968 13.9223 99.7393 14.041C100.182 14.1597 100.561 14.4449 100.798 14.8369C101.035 15.2289 101.112 15.6975 101.011 16.1445C100.911 16.5915 100.641 16.9823 100.259 17.2353L81.0398 29.4082L98.4348 19.3617C98.8354 19.1287 99.3112 19.0617 99.7607 19.1749C100.21 19.2881 100.597 19.5726 100.84 19.9675C101.082 20.3625 101.161 20.8366 101.058 21.2886C100.956 21.7406 100.681 22.1345 100.291 22.3863L74.7314 38.9755L99.9364 24.4205C100.334 24.197 100.802 24.135 101.244 24.2473C101.686 24.3597 102.067 24.6378 102.31 25.024C102.552 25.4102 102.637 25.8748 102.546 26.3216C102.455 26.7684 102.196 27.163 101.821 27.4238L70.2158 48.9545L105.861 28.3645C106.256 28.1426 106.722 28.0801 107.161 28.19C107.601 28.2999 107.982 28.5738 108.226 28.9555C108.47 29.3373 108.559 29.798 108.475 30.2432C108.39 30.6884 108.138 31.0844 107.771 31.3501L76.3964 53.534L112.39 32.7559C112.786 32.5425 113.248 32.4874 113.683 32.6018C114.118 32.7161 114.494 32.9914 114.733 33.3719C114.973 33.7525 115.06 34.2099 114.975 34.6517C114.891 35.0936 114.642 35.4868 114.278 35.7521L93.6423 49.8953L116.11 36.92C116.507 36.6961 116.974 36.6332 117.416 36.7442C117.857 36.8553 118.239 37.1318 118.483 37.5166C118.726 37.9014 118.813 38.3651 118.724 38.8117C118.635 39.2584 118.378 39.6538 118.006 39.9162L99.2797 52.895C99.641 52.8953 99.9936 53.0059 100.29 53.212C100.587 53.4181 100.814 53.7098 100.941 54.0482C101.067 54.3867 101.088 54.7557 100.999 55.1059C100.91 55.4562 100.717 55.771 100.444 56.0084L91.5691 63.7403L98.3922 59.8033C98.7565 59.5944 99.1832 59.5215 99.5962 59.5975C100.009 59.6735 100.382 59.8935 100.648 60.2184C100.914 60.5433 101.057 60.9521 101.05 61.372C101.043 61.792 100.887 62.1959 100.611 62.512L96.2373 67.45L98.3673 66.2146C98.5694 66.0862 98.7953 66 99.0315 65.9611C99.2677 65.9223 99.5093 65.9316 99.7419 65.9885C99.9744 66.0455 100.193 66.1489 100.384 66.2925C100.576 66.4361 100.737 66.617 100.856 66.8243C100.976 67.0316 101.053 67.2609 101.082 67.4985C101.11 67.7362 101.091 67.9772 101.024 68.2071C100.958 68.437 100.845 68.6511 100.693 68.8364C100.542 69.0217 100.354 69.1744 100.142 69.2854L88.5871 75.97C88.2227 76.1789 87.7961 76.2519 87.383 76.1759C86.9699 76.0999 86.5972 75.8799 86.3311 75.555C86.0649 75.23 85.9226 74.8213 85.9294 74.4013C85.9362 73.9814 86.0918 73.5775 86.3683 73.2614L90.749 68.2914L77.472 75.97C77.0905 76.185 76.6431 76.2514 76.2156 76.1565C75.7881 76.0615 75.4108 75.8119 75.1563 75.4556C74.9017 75.0993 74.7878 74.6615 74.8365 74.2263C74.8852 73.7911 75.0931 73.3893 75.4201 73.0981L84.2951 65.3662L65.9239 75.97C65.5282 76.1861 65.0651 76.2435 64.6286 76.1306C64.1921 76.0177 63.8149 75.7429 63.5737 75.362C63.3324 74.9812 63.2451 74.5227 63.3295 74.0799C63.4139 73.637 63.6637 73.2428 64.0282 72.9774L80.454 61.5996L55.5579 75.97C55.1619 76.1834 54.6996 76.2385 54.2646 76.1241C53.8295 76.0098 53.4541 75.7345 53.2143 75.354C52.9744 74.9734 52.888 74.516 52.9724 74.0742C53.0569 73.6323 53.306 73.2391 53.6693 72.9738L74.3019 58.8342L44.6168 75.97C44.2225 76.185 43.7613 76.2426 43.3262 76.131C42.8912 76.0195 42.5146 75.7472 42.2723 75.369C42.0301 74.9908 41.9403 74.5348 42.0209 74.093C42.1015 73.6511 42.3467 73.2563 42.7069 72.988L74.0889 50.8076L30.5055 75.97C30.109 76.1855 29.6453 76.2417 29.2087 76.1274C28.7721 76.0132 28.3954 75.7368 28.1553 75.3547C27.9152 74.9726 27.8297 74.5134 27.9161 74.0705C28.0025 73.6275 28.2544 73.2341 28.6205 72.9703L60.2439 51.4395L17.7504 75.97C17.4826 76.129 17.1778 76.2147 16.8664 76.2185Z" fill="#159CDC"/>
<path d="M45.2345 211.119C44.8541 211.119 44.4837 210.997 44.1779 210.77C43.8722 210.544 43.6472 210.225 43.5363 209.861C43.4253 209.497 43.4342 209.107 43.5616 208.749C43.6891 208.391 43.9283 208.083 44.2441 207.87L51.5571 202.943L37.8079 210.87C37.4108 211.088 36.9455 211.145 36.5072 211.031C36.069 210.917 35.6909 210.64 35.4505 210.256C35.21 209.872 35.1254 209.411 35.2139 208.967C35.3024 208.523 35.5573 208.129 35.9264 207.867L51.6316 197.238L28.0135 210.87C27.6139 211.09 27.145 211.148 26.704 211.031C26.263 210.915 25.8838 210.633 25.645 210.245C25.4061 209.856 25.3261 209.39 25.4214 208.944C25.5167 208.498 25.78 208.106 26.1568 207.849L35.8554 201.548L19.6781 210.87C19.2798 211.085 18.8146 211.139 18.3776 211.022C17.9406 210.905 17.5647 210.626 17.3268 210.241C17.0888 209.856 17.0068 209.395 17.0974 208.952C17.188 208.509 17.4445 208.117 17.8143 207.856L38.9652 193.901L9.94042 210.671C9.53839 210.917 9.0554 210.992 8.59769 210.881C8.13999 210.77 7.74506 210.482 7.49979 210.08C7.25453 209.678 7.17901 209.195 7.28986 208.737C7.40071 208.28 7.68884 207.885 8.09087 207.64L23.9949 197.405L5.82597 207.892C5.42429 208.127 4.94619 208.195 4.49473 208.081C4.04327 207.968 3.65459 207.681 3.41245 207.283C3.17032 206.886 3.09412 206.409 3.20027 205.955C3.30643 205.502 3.58645 205.109 3.97997 204.86L18.0451 195.843L4.55507 203.653C4.15706 203.87 3.69097 203.927 3.25246 203.811C2.81394 203.696 2.43625 203.417 2.1969 203.032C1.95754 202.647 1.87467 202.185 1.96529 201.74C2.05591 201.296 2.31315 200.903 2.68422 200.643L27.1224 184.341L4.54442 197.38C4.14731 197.607 3.67789 197.672 3.23407 197.561C2.79025 197.451 2.40628 197.173 2.16225 196.786C1.91822 196.399 1.83296 195.933 1.92426 195.485C2.01555 195.037 2.27635 194.641 2.65227 194.38L24.8149 179.13L4.54442 190.845C4.15081 191.074 3.68397 191.144 3.24058 191.038C2.79718 190.933 2.41119 190.662 2.16254 190.28C1.91389 189.898 1.82163 189.435 1.90487 188.987C1.9881 188.539 2.24046 188.14 2.60967 187.873L22.7204 173.197L4.61542 183.645C4.22087 183.865 3.75739 183.926 3.31937 183.816C2.88135 183.706 2.50173 183.433 2.25784 183.053C2.01394 182.673 1.9241 182.214 2.00662 181.77C2.08913 181.326 2.3378 180.93 2.70197 180.663L9.86587 175.576L5.13372 178.309C4.75608 178.515 4.31684 178.576 3.89751 178.482C3.47818 178.387 3.10726 178.144 2.85358 177.797C2.5999 177.451 2.4807 177.023 2.5181 176.595C2.55551 176.167 2.74698 175.767 3.05697 175.469L14.5732 165.075L7.82817 168.98C7.45669 169.18 7.02622 169.241 6.61389 169.152C6.20156 169.063 5.83433 168.83 5.57799 168.495C5.32166 168.161 5.19297 167.745 5.21499 167.324C5.23701 166.903 5.4083 166.503 5.69817 166.197L11.8787 159.945C11.6741 159.757 11.5164 159.524 11.4184 159.264C11.3204 159.004 11.2848 158.725 11.3145 158.448C11.3442 158.172 11.4384 157.907 11.5894 157.673C11.7404 157.44 11.9441 157.245 12.184 157.105L18.2616 153.598C18.6335 153.386 19.0695 153.316 19.4891 153.4C19.9088 153.484 20.2839 153.717 20.5454 154.056C20.8069 154.395 20.9371 154.817 20.9121 155.244C20.8871 155.671 20.7086 156.075 20.4094 156.381L17.5019 159.321L27.4206 153.598C27.7983 153.393 28.2375 153.332 28.6568 153.426C29.0762 153.52 29.4471 153.763 29.7008 154.11C29.9544 154.457 30.0736 154.884 30.0362 155.312C29.9988 155.74 29.8074 156.14 29.4974 156.438L17.9599 166.797L40.9 153.555C41.2953 153.327 41.7633 153.26 42.2066 153.368C42.65 153.476 43.0348 153.751 43.2811 154.135C43.5273 154.519 43.6161 154.984 43.529 155.432C43.4419 155.88 43.1857 156.277 42.8134 156.541L35.646 161.621L49.6294 153.552C50.023 153.322 50.4899 153.253 50.9333 153.358C51.3767 153.463 51.7627 153.735 52.0113 154.116C52.2599 154.498 52.3522 154.961 52.269 155.409C52.1857 155.857 51.9334 156.256 51.5642 156.523L31.4783 171.188L62.0296 153.548C62.4267 153.321 62.8961 153.256 63.3399 153.367C63.7837 153.478 64.1677 153.755 64.4117 154.142C64.6558 154.529 64.741 154.995 64.6497 155.443C64.5584 155.892 64.2976 156.287 63.9217 156.548L41.752 171.813L73.347 153.562C73.7459 153.335 74.2173 153.272 74.6621 153.385C75.1069 153.498 75.4906 153.779 75.7327 154.169C75.9747 154.559 76.0563 155.028 75.9603 155.476C75.8643 155.925 75.5982 156.32 75.2178 156.576L50.7725 172.86L82.4669 154.56C82.8686 154.325 83.3467 154.256 83.7982 154.37C84.2496 154.484 84.6383 154.771 84.8804 155.168C85.1226 155.566 85.1988 156.043 85.0926 156.496C84.9865 156.949 84.7064 157.343 84.3129 157.592L70.2478 166.605L85.9104 157.556C86.3113 157.328 86.7853 157.265 87.2319 157.38C87.6786 157.495 88.0629 157.78 88.3033 158.174C88.5437 158.567 88.6215 159.039 88.5201 159.489C88.4187 159.939 88.146 160.332 87.76 160.584L71.8702 170.808L88.8143 161.028C89.2136 160.805 89.6836 160.744 90.1264 160.859C90.5692 160.974 90.9506 161.255 91.191 161.644C91.4314 162.034 91.5122 162.501 91.4166 162.948C91.3211 163.395 91.0565 163.789 90.6781 164.046L69.513 178.011L91.3455 165.405C91.745 165.185 92.2139 165.127 92.6549 165.244C93.0959 165.36 93.4752 165.642 93.714 166.031C93.9528 166.419 94.0329 166.885 93.9376 167.331C93.8423 167.777 93.5789 168.169 93.2021 168.426L83.5142 174.738L92.8968 169.335C93.2948 169.108 93.7652 169.044 94.2094 169.156C94.6536 169.268 95.0374 169.547 95.2804 169.936C95.5234 170.324 95.6068 170.791 95.5133 171.24C95.4197 171.688 95.1564 172.083 94.7783 172.342L79.0838 182.964L94.1109 174.291C94.5086 174.071 94.9757 174.011 95.4158 174.125C95.856 174.239 96.2356 174.518 96.4764 174.903C96.7173 175.289 96.801 175.752 96.7103 176.198C96.6195 176.643 96.3613 177.037 95.9889 177.298L88.6581 182.239L94.6931 178.767C95.0816 178.548 95.5386 178.483 95.973 178.585C96.4074 178.687 96.7873 178.949 97.0371 179.319C97.2869 179.689 97.3883 180.139 97.321 180.58C97.2537 181.022 97.0227 181.421 96.674 181.7L79.4778 195.136L94.8742 186.261C95.2594 186.043 95.7123 185.976 96.1441 186.075C96.5759 186.173 96.9553 186.429 97.2079 186.793C97.4605 187.157 97.568 187.602 97.5093 188.041C97.4505 188.48 97.2299 188.881 96.8906 189.165L87.1494 197.167L94.8564 192.719C95.238 192.501 95.687 192.432 96.1165 192.525C96.546 192.619 96.9254 192.869 97.1812 193.227C97.4371 193.584 97.5512 194.024 97.5014 194.461C97.4516 194.897 97.2416 195.3 96.9119 195.591L93.298 198.754L94.8564 197.856C95.2057 197.654 95.6134 197.577 96.0123 197.638C96.4112 197.698 96.7775 197.893 97.0508 198.19C97.3241 198.487 97.4881 198.868 97.5157 199.271C97.5434 199.673 97.4331 200.073 97.203 200.405L94.5902 204.168C94.9906 204.138 95.3893 204.245 95.7211 204.471C96.0529 204.698 96.2981 205.03 96.4168 205.413C96.5355 205.797 96.5206 206.209 96.3745 206.583C96.2284 206.958 95.9598 207.271 95.6126 207.473L89.7231 210.87C89.3742 211.071 88.9674 211.147 88.5696 211.086C88.1717 211.025 87.8065 210.83 87.5337 210.534C87.2608 210.238 87.0967 209.858 87.0682 209.457C87.0396 209.055 87.1484 208.656 87.3766 208.325L89.7586 204.899L79.3962 210.87C79.0151 211.084 78.5683 211.151 78.1414 211.056C77.7146 210.961 77.3377 210.712 77.083 210.357C76.8283 210.002 76.7138 209.565 76.7613 209.13C76.8089 208.695 77.0152 208.294 77.3407 208.002L80.9582 204.835L70.4963 210.87C70.1111 211.089 69.6582 211.155 69.2264 211.057C68.7946 210.958 68.4152 210.702 68.1626 210.339C67.91 209.975 67.8025 209.53 67.8612 209.091C67.92 208.652 68.1406 208.251 68.4799 207.966L78.2034 199.94L59.2854 210.87C58.897 211.086 58.442 211.148 58.01 211.044C57.5781 210.941 57.2007 210.679 56.9523 210.311C56.704 209.942 56.6027 209.494 56.6686 209.055C56.7345 208.616 56.9626 208.217 57.3081 207.938L74.5007 194.497L46.122 210.87C45.8532 211.03 45.5471 211.115 45.2345 211.119Z" fill="#F5BA1E"/>
<path d="M52.5402 161.372C52.1692 161.369 51.8087 161.249 51.5093 161.03C51.2099 160.81 50.9867 160.503 50.8712 160.15C50.7556 159.798 50.7534 159.418 50.865 159.064C50.9765 158.71 51.1961 158.4 51.493 158.177L61.9832 150.499L43.8108 160.989C43.4191 161.215 42.9558 161.283 42.5156 161.179C42.0754 161.075 41.6915 160.807 41.4423 160.43C41.1931 160.052 41.0974 159.594 41.1747 159.148C41.252 158.702 41.4965 158.303 41.8583 158.032L62.1252 142.859L32.7419 159.824C32.3478 160.057 31.879 160.128 31.4335 160.024C30.988 159.919 30.6002 159.646 30.351 159.262C30.1018 158.878 30.0105 158.413 30.0962 157.964C30.1818 157.514 30.4378 157.115 30.8107 156.85L56.8322 137.985L22.6563 157.716C22.2548 157.962 21.7721 158.038 21.3144 157.927C20.8566 157.817 20.4615 157.53 20.2157 157.128C19.97 156.727 19.8938 156.244 20.004 155.786C20.1142 155.329 20.4017 154.933 20.8032 154.688L25.8229 151.439L17.5727 156.2C17.1759 156.421 16.7096 156.481 16.2697 156.368C15.8299 156.256 15.4499 155.979 15.2079 155.594C14.966 155.21 14.8806 154.748 14.9691 154.302C15.0577 153.857 15.3136 153.463 15.6841 153.2L45.9727 132.44L10.0254 153.19C9.62436 153.436 9.1417 153.513 8.68367 153.404C8.22563 153.295 7.82972 153.008 7.58304 152.607C7.33637 152.206 7.25912 151.724 7.36831 151.266C7.47749 150.808 7.76416 150.412 8.16524 150.165L38.1201 130.189L5.21874 149.182C4.81683 149.411 4.34109 149.475 3.89296 149.359C3.44483 149.243 3.05978 148.956 2.81991 148.56C2.58004 148.164 2.50433 147.69 2.60894 147.239C2.71354 146.788 2.99017 146.396 3.37984 146.146L10.8952 141.386L4.72174 144.936C4.31957 145.161 3.8455 145.221 3.39985 145.103C2.9542 144.985 2.57194 144.698 2.33394 144.304C2.09594 143.909 2.02089 143.437 2.12466 142.988C2.22843 142.539 2.50288 142.147 2.88994 141.897L7.81024 138.805C7.40677 138.871 6.99271 138.797 6.63807 138.593C6.28342 138.389 6.00994 138.07 5.86385 137.688C5.71776 137.306 5.70801 136.885 5.83627 136.497C5.96452 136.109 6.2229 135.776 6.56774 135.557L14.4239 130.551L11.6087 132.174C11.2125 132.392 10.7478 132.451 10.3098 132.338C9.87166 132.225 9.49317 131.949 9.25162 131.567C9.01006 131.184 8.92367 130.724 9.01009 130.28C9.09651 129.836 9.34922 129.441 9.71659 129.177L44.1196 105.485L14.4132 122.649C14.0161 122.876 13.5467 122.941 13.1029 122.83C12.6591 122.719 12.2751 122.442 12.0311 122.055C11.787 121.668 11.7018 121.202 11.7931 120.754C11.8844 120.305 12.1452 119.91 12.5211 119.649L39.8206 100.958L15.3256 115.094C14.9285 115.321 14.4591 115.386 14.0152 115.276C13.5714 115.165 13.1875 114.887 12.9434 114.5C12.6994 114.114 12.6141 113.647 12.7054 113.199C12.7967 112.751 13.0575 112.355 13.4334 112.095L36.6611 96.1659L15.4356 108.424C15.0364 108.674 14.5545 108.754 14.0958 108.648C13.6371 108.543 13.2392 108.259 12.9897 107.86C12.7402 107.46 12.6595 106.978 12.7653 106.52C12.8712 106.061 13.1549 105.663 13.5541 105.414L27.9884 95.7044L15.4356 102.95C15.0403 103.178 14.5724 103.245 14.129 103.137C13.6856 103.029 13.3008 102.754 13.0546 102.37C12.8083 101.986 12.7195 101.522 12.8066 101.074C12.8937 100.626 13.1499 100.228 13.5222 99.9644L34.0802 85.4094L15.4853 96.141C15.0897 96.3655 14.623 96.4295 14.1815 96.3198C13.74 96.2102 13.3575 95.9352 13.1129 95.5516C12.8683 95.1681 12.7803 94.7053 12.867 94.2588C12.9537 93.8122 13.2086 93.416 13.579 93.1519L26.8453 83.8403L16.2379 89.964C15.8511 90.1828 15.3963 90.2485 14.9633 90.1482C14.5304 90.0478 14.1508 89.7887 13.8997 89.422C13.6486 89.0554 13.5441 88.6078 13.607 88.1679C13.6699 87.7279 13.8955 87.3276 14.2393 87.0459L31.116 73.4423L20.111 79.7897C19.7237 80.0096 19.2679 80.0759 18.834 79.9754C18.4001 79.8749 18.0199 79.615 17.7687 79.2472C17.5176 78.8794 17.4139 78.4306 17.4782 77.9899C17.5425 77.5492 17.7701 77.1488 18.1159 76.8681L24.9922 71.3549C24.7385 71.1982 24.5275 70.9811 24.3781 70.723C24.1427 70.3154 24.0789 69.8309 24.2008 69.3762C24.3226 68.9215 24.6201 68.5338 25.0277 68.2984L38.5781 60.4884C38.9649 60.2696 39.4198 60.2039 39.8527 60.3043C40.2857 60.4046 40.6652 60.6637 40.9163 61.0304C41.1675 61.3971 41.2719 61.8446 41.209 62.2845C41.1462 62.7245 40.9205 63.1248 40.5767 63.4065L38.4148 65.1424L49.1429 58.9299C49.5297 58.7112 49.9846 58.6454 50.4175 58.7458C50.8505 58.8462 51.23 59.1053 51.4811 59.4719C51.7323 59.8386 51.8367 60.2861 51.7738 60.7261C51.711 61.166 51.4853 61.5664 51.1415 61.848L34.2755 75.4445L59.8355 60.6943C60.2304 60.4774 60.6929 60.4188 61.1294 60.5303C61.5658 60.6418 61.9436 60.9151 62.186 61.2948C62.4285 61.6745 62.5175 62.1322 62.435 62.575C62.3525 63.0179 62.1047 63.4129 61.7418 63.6798L48.4613 73.0021L65.5013 63.1686C65.8966 62.9407 66.3646 62.8737 66.808 62.9817C67.2514 63.0897 67.6361 63.3643 67.8824 63.7485C68.1286 64.1327 68.2174 64.597 68.1303 65.045C68.0433 65.493 67.787 65.8902 67.4147 66.1542L46.8567 80.7092L70.9221 66.818C71.3208 66.587 71.7937 66.52 72.2408 66.6313C72.688 66.7425 73.0743 67.0233 73.3182 67.4143C73.5621 67.8052 73.6444 68.2757 73.5477 68.7262C73.451 69.1767 73.1829 69.572 72.8001 69.8284L58.3658 79.5377L74.5289 70.2083C74.9261 69.9813 75.3955 69.9163 75.8393 70.027C76.2831 70.1377 76.6671 70.4154 76.9111 70.8023C77.1551 71.1892 77.2404 71.6553 77.1491 72.1036C77.0578 72.5518 76.797 72.9474 76.4211 73.208L53.1863 89.1404L78.1002 74.77C78.4962 74.5566 78.9585 74.5016 79.3935 74.6159C79.8286 74.7303 80.204 75.0056 80.4438 75.3861C80.6837 75.7666 80.7702 76.2241 80.6857 76.6659C80.6012 77.1077 80.3522 77.501 79.9888 77.7662L52.6822 96.4641L81.0112 80.1092C81.4087 79.8737 81.8823 79.8024 82.3314 79.9105C82.7805 80.0186 83.1699 80.2975 83.4166 80.688C83.6634 81.0785 83.7483 81.5499 83.6531 82.0019C83.5579 82.454 83.2902 82.8511 82.9069 83.109L48.5216 106.791L83.1554 86.7939C83.5574 86.5642 84.0331 86.5006 84.4812 86.6167C84.9294 86.7328 85.3144 87.0193 85.5543 87.4152C85.7942 87.8111 85.8699 88.2851 85.7653 88.7361C85.6607 89.187 85.384 89.5792 84.9943 89.8291L77.1417 94.8311L83.7803 90.9829C84.1817 90.7621 84.6529 90.7051 85.0954 90.8238C85.5379 90.9425 85.9174 91.2277 86.1545 91.6198C86.3915 92.0118 86.4678 92.4803 86.3674 92.9273C86.2669 93.3743 85.9976 93.7652 85.6156 94.0181L83.1306 95.5801L83.94 95.1115C84.3419 94.8818 84.8177 94.8183 85.2658 94.9343C85.7139 95.0504 86.099 95.337 86.3388 95.7329C86.5787 96.1288 86.6544 96.6028 86.5498 97.0537C86.4452 97.5047 86.1686 97.8969 85.7789 98.1468L78.2955 102.886L83.94 99.6271C84.3394 99.3899 84.8158 99.3187 85.2671 99.4287C85.7183 99.5388 86.1085 99.8214 86.3538 100.216C86.5991 100.61 86.68 101.085 86.5792 101.539C86.4783 101.992 86.2038 102.388 85.8144 102.641L55.8417 122.628L83.94 106.408C84.3363 106.189 84.8009 106.131 85.239 106.243C85.6771 106.356 86.0556 106.632 86.2971 107.015C86.5387 107.397 86.6251 107.857 86.5387 108.301C86.4522 108.746 86.1995 109.14 85.8321 109.404L55.5471 130.164L84.1672 113.643C84.567 113.426 85.0349 113.37 85.4743 113.488C85.9136 113.606 86.2909 113.888 86.5283 114.277C86.7656 114.665 86.8448 115.129 86.7497 115.574C86.6545 116.019 86.3921 116.41 86.0167 116.667L80.958 119.944L84.65 117.814C85.0434 117.59 85.5074 117.525 85.9472 117.632C86.387 117.739 86.7692 118.01 87.0159 118.389C87.2625 118.769 87.3549 119.228 87.2741 119.674C87.1933 120.119 86.9454 120.516 86.5812 120.785L60.5632 139.646L86.2652 124.825C86.657 124.599 87.1203 124.531 87.5604 124.635C88.0006 124.739 88.3845 125.007 88.6337 125.384C88.8829 125.762 88.9787 126.22 88.9014 126.666C88.8241 127.111 88.5795 127.511 88.2178 127.782L67.9295 142.955L88.6012 131.02C88.994 130.798 89.4566 130.734 89.8948 130.841C90.3331 130.948 90.7141 131.218 90.9605 131.596C91.2069 131.974 91.3001 132.432 91.2212 132.876C91.1423 133.32 90.8973 133.718 90.5359 133.988L80.0705 141.645L90.898 135.397C91.2788 135.177 91.7279 135.106 92.1582 135.198C92.5884 135.29 92.9692 135.538 93.2265 135.895C93.4839 136.252 93.5996 136.692 93.5511 137.129C93.5026 137.566 93.2934 137.97 92.9641 138.262L82.0514 147.904L94.3557 140.804C94.7226 140.593 95.1527 140.52 95.5686 140.598C95.9844 140.676 96.3587 140.9 96.6238 141.23C96.8889 141.56 97.0275 141.974 97.0145 142.397C97.0016 142.82 96.838 143.224 96.5531 143.537L93.6244 146.732L93.9794 146.526C94.3869 146.295 94.8694 146.233 95.3218 146.356C95.7741 146.479 96.1595 146.776 96.3939 147.182C96.6283 147.588 96.6925 148.07 96.5727 148.523C96.4529 148.976 96.1588 149.363 95.7544 149.6L85.4594 155.547C85.0929 155.755 84.6642 155.827 84.25 155.748C83.8357 155.669 83.4631 155.446 83.1987 155.117C82.9343 154.789 82.7955 154.377 82.807 153.955C82.8186 153.534 82.9799 153.13 83.2619 152.817L86.1943 149.622L68.5152 159.81C68.134 160.031 67.6842 160.103 67.2532 160.01C66.8223 159.918 66.4411 159.669 66.1839 159.311C65.9266 158.953 65.8116 158.512 65.8613 158.075C65.911 157.637 66.1218 157.233 66.4527 156.942L77.3689 147.325L53.4206 161.17C53.1501 161.314 52.8464 161.383 52.5402 161.372Z" fill="#66534F"/>
<path d="M209.45 173.24C209.143 173.117 208.823 173.027 208.495 172.974C212.645 148.007 195.63 125.315 169.492 126.288C169.417 125.141 169.438 124.058 169.438 122.929C174.534 120.655 178.89 116.996 182.009 112.369C185.129 107.742 186.888 102.332 187.085 96.7553C198.701 93.0491 193.887 76.783 193.639 67.5423C189.62 45.3868 164.426 36.281 144.446 41.7764C122.791 46.5192 115.51 69.1114 118.091 88.9453C118.112 90.9423 118.85 92.8653 120.17 94.364C121.491 95.8626 123.305 96.8372 125.283 97.1103C125.638 108.332 132.096 119.83 142.955 123.714V126.614C137.158 126.509 131.411 127.698 126.131 130.094C120.852 132.49 116.173 136.033 112.435 140.465C108.697 144.897 105.994 150.107 104.523 155.715C103.051 161.323 102.849 167.189 103.93 172.885H97.0077C95.3812 165.842 91.3938 159.567 85.7081 155.103C93.227 152.852 102.67 146.878 95.9534 138.539C81.4694 120.707 93.4684 95.03 82.0409 76.6481C100.178 78.9094 103.675 70.0664 102.059 53.9032C125.159 41.2546 124.289 36.4017 101.974 23.6927C102.059 15.4851 104.25 1.97739 92.5028 1.59044C65.3275 1.01534 38.0351 1.59044 10.8528 1.59044C-7.96934 3.17374 4.20006 48.4575 0.934063 62.906C-1.03974 73.7087 7.81396 78.5047 17.8392 76.6552C6.20226 93.1804 16.5576 115.045 7.41991 132.582C-1.03619 143.562 -1.92014 151.94 14.0407 155.884C-0.496586 166.495 0.515163 185.523 0.980213 201.725C0.472563 219.713 70.8478 207.004 86.5672 210.54C123.679 213.025 162.512 210.568 200.167 211.41C211.712 212.428 208.052 199.191 208.506 191.846C213.817 189.74 213.977 176.108 209.45 173.24ZM190.437 136.345C202.571 144.471 203.98 159.473 203.32 172.867H169.335C168.37 165.213 164.422 157.499 167.301 149.956C175.324 148.209 176.311 137.555 180.323 131.517C183.92 132.602 187.331 134.23 190.437 136.345ZM144.311 130.374L153.431 142.536C150.925 144.276 148.571 146.114 145.994 147.765C141.944 142.54 139.81 135.61 136.452 129.792C138.745 129.411 141.061 129.192 143.385 129.138C143.648 129.557 143.988 129.93 144.311 130.374ZM164.277 127.821C164.277 127.736 164.316 127.654 164.408 127.662C164.387 127.658 164.33 127.74 164.277 127.821ZM164.277 127.864C164.277 127.974 164.277 128.017 164.277 127.864V127.864ZM167.759 129.994C167.883 129.827 168.043 129.639 168.21 129.451C170.91 129.567 173.597 129.899 176.244 130.445C173.385 136.16 170.521 141.871 167.653 147.577C164.859 145.525 161.973 143.544 159.133 141.496L167.759 129.994ZM155.49 144.091C157.883 145.752 160.169 147.605 162.654 149.114L161.146 155.096H151.585C150.996 152.758 150.404 150.418 149.81 148.078C151.786 146.869 153.683 145.538 155.49 144.091ZM151.266 158.291L151.461 157.315H160.815L163.925 172.878H148.351C149.324 168.007 150.296 163.141 151.266 158.28V158.291ZM123.406 71.884C127.034 29.4189 196.131 38.9648 189.251 81.0465C188.557 80.7519 187.835 80.5283 187.096 80.3791C185.264 65.5898 166.506 72.349 158.586 62.8847C153.211 61.1452 149.455 69.1718 143.633 69.1824C136.154 69.8676 126.441 71.6674 125.347 80.7341C124.613 80.945 123.9 81.2243 123.217 81.5684C123.185 78.3308 123.161 75.0861 123.406 71.884ZM132.533 106.145C131.313 102.736 130.587 99.1699 130.374 95.5554C130.307 94.6643 129.472 94.3555 128.62 94.3519C122.859 93.7555 120.867 83.567 127.46 83.1233C128.226 83.07 130.374 82.4133 130.374 81.3483C130.885 68.3446 148.799 74.5216 155.696 66.4383C162.931 74.8944 181.285 68.5683 182.03 82.3494C188.64 83.7055 192.84 92.5095 184.945 94.4194C184.174 94.4726 182.03 95.1294 182.027 96.1944C182.098 100.676 181.097 105.109 179.107 109.125C177.116 113.141 174.195 116.623 170.585 119.28C157.265 127.328 137.332 121.577 132.533 106.145ZM164.213 124.793C164.158 125.812 164.177 126.834 164.27 127.85C161.696 131.311 159.097 134.751 156.513 138.205L148.138 127.04V125.24C153.461 126.327 158.962 126.168 164.213 124.775V124.793ZM111.41 148.862C113.093 144.55 115.759 140.69 119.195 137.588C122.631 134.487 126.743 132.229 131.205 130.995C135.571 136.636 136.53 150.016 144.823 150.144C147.886 157.666 144.308 165.253 143.183 172.882H109.071C109.053 164.805 108.52 156.527 111.41 148.844V148.862ZM104.168 175.051C116.92 175.157 130.253 174.98 143.147 175.051C143.424 175.343 143.757 175.575 144.127 175.734C144.496 175.893 144.894 175.975 145.297 175.975C145.699 175.975 146.097 175.893 146.467 175.734C146.836 175.575 147.169 175.343 147.446 175.051H164.518C165.074 175.583 165.814 175.88 166.584 175.88C167.354 175.88 168.094 175.583 168.65 175.051C180.344 175.122 192.08 174.909 203.763 175.132C209.653 176.907 205.755 184.863 207.161 189.904C206.593 189.753 205.996 189.744 205.424 189.878C204.852 190.013 204.322 190.286 203.88 190.674C168.735 190.56 133.59 190.674 98.4206 190.635C98.6583 185.423 98.3525 180.2 97.5083 175.051H104.168ZM101.967 23.785C101.967 24.6157 102.216 24.211 101.967 23.785V23.785ZM101.8 23.5791C101.678 23.4932 101.548 23.4172 101.413 23.3519C101.556 23.398 101.688 23.4729 101.8 23.572V23.5791ZM7.85301 71.0604C3.55041 58.6176 7.42346 43.452 6.15966 30.1324C7.39151 22.5603 3.26286 11.928 8.55591 5.95694C34.9963 4.70024 61.8982 5.95694 88.4877 5.52739C91.6827 5.52739 95.0801 5.17239 96.4646 9.10224C97.1178 31.2649 95.9853 24.5376 113.302 37.0336C117.427 41.1445 105.723 46.5867 103.121 48.3368C86.2441 56.445 111.25 76.8753 79.1264 72.5904C65.7109 55.1173 35.3442 54.8404 20.9064 72.5904C16.9801 72.7431 10.6504 73.7868 7.85301 71.0604ZM10.0647 136.544C22.8447 117.995 10.7747 92.3852 23.9452 74.5003C41.9224 48.9581 80.7665 65.249 82.3001 94.0608C82.7722 107.906 80.9049 122.542 87.9801 135.202C90.2947 139.661 96.4646 145.571 90.9337 150.005C78.7643 161.099 -8.87459 164.741 10.0647 136.544ZM73.418 208.328C59.5907 205.545 10.4481 214.874 6.21291 202.812C5.44256 187.16 4.16101 167.816 17.3067 156.793C38.0602 162.522 59.9806 162.502 80.7239 156.736C94.4908 167.993 96.958 192.389 90.6639 207.501C89.4143 207.501 87.7493 207.345 86.9435 208.339L73.418 208.328ZM203.291 205.63C170.542 210.987 130.832 205.684 95.822 207.49C99.9365 203.873 98.0905 197.6 98.4206 192.783C133.402 192.783 168.37 192.783 203.323 192.783C203.763 197.055 203.752 201.361 203.291 205.63Z" fill="#262626"/>
<path d="M19.6494 22.4184C40.8251 21.5522 62.9168 24.1401 83.6381 21.4456C70.3469 17.7181 47.0128 21.4811 30.4272 20.1818C28.1339 20.4019 16.8839 19.1701 19.6494 22.4184Z" fill="#262626"/>
<path d="M34.4351 50.8609C46.8246 48.0671 20.7854 47.2648 18.9678 49.8208C21.4492 52.5898 29.9799 50.0054 34.4351 50.8609Z" fill="#262626"/>
<path d="M83.3188 34.435C62.1502 35.2976 40.0763 32.7274 19.3301 35.4077C32.8201 38.7731 55.8738 35.3686 72.5055 36.5437C74.813 36.3413 85.818 37.527 83.3188 34.435Z" fill="#262626"/>
</svg>
