<svg width="24" height="25" viewBox="0 0 24 25" fill="none" xmlns="http://www.w3.org/2000/svg">
<path d="M16 8.42139C17.5913 8.42139 19.1174 9.05353 20.2426 10.1787C21.3679 11.304 22 12.8301 22 14.4214V21.4214H18V14.4214C18 13.891 17.7893 13.3822 17.4142 13.0072C17.0391 12.6321 16.5304 12.4214 16 12.4214C15.4696 12.4214 14.9609 12.6321 14.5858 13.0072C14.2107 13.3822 14 13.891 14 14.4214L14 21.4214H10L10 14.4214C10 12.8301 10.6321 11.304 11.7574 10.1787C12.8826 9.05353 14.4087 8.42139 16 8.42139Z" stroke="#1E1E1E" stroke-width="1.5" stroke-linecap="round" stroke-linejoin="round"/>
<path d="M6 9.42139H2L2 21.4214H6L6 9.42139Z" stroke="#1E1E1E" stroke-width="1.5" stroke-linecap="round" stroke-linejoin="round"/>
<path d="M4 6.42139C5.10457 6.42139 6 5.52596 6 4.42139C6 3.31682 5.10457 2.42139 4 2.42139C2.89543 2.42139 2 3.31682 2 4.42139C2 5.52596 2.89543 6.42139 4 6.42139Z" stroke="#1E1E1E" stroke-width="1.5" stroke-linecap="round" stroke-linejoin="round"/>
</svg>
