<svg width="62" height="39" viewBox="0 0 62 39" fill="none" xmlns="http://www.w3.org/2000/svg">
<path d="M29.2727 29.1306C26.5781 28.7073 20.9505 27.5449 17.3975 25.9114C17.7432 25.9591 18.095 25.9889 18.4526 25.9889C19.2396 25.9889 20.0563 25.8697 20.873 25.6253C22.7449 25.0768 29.535 21.4463 36.7185 17.6071C45.1361 13.1062 55.6163 7.50246 57.3451 7.419C58.0844 7.38323 58.6626 7.31169 59.0918 7.25208C58.8593 7.50842 58.5672 7.8363 58.2215 8.2536C56.2005 9.428 51.6639 12.838 46.4178 16.7725C40.4683 21.2376 33.7259 26.2989 29.2727 29.1306Z" fill="url(#paint0_linear_1225_3405)"/>
<path d="M29.3559 29.554C28.7657 29.9474 28.1874 30.3051 27.6211 30.627C28.1457 30.3111 28.7299 29.9534 29.3559 29.554Z" fill="black"/>
<path d="M38.4869 33.5719C36.2334 33.5719 33.9502 33.0771 31.8518 32.1352C33.0798 30.8237 35.0948 29.6492 37.223 28.4152C41.0384 26.1976 44.9789 23.9024 45.2233 20.3136C45.3783 18.0304 44.7762 16.087 43.4706 14.692C42.2783 13.4162 40.5614 12.7187 38.6359 12.7187C37.694 12.7187 36.7163 12.8797 35.7207 13.2076C33.8846 13.8753 31.0768 15.8843 28.102 18.0125C24.7159 20.4388 21.2165 22.9486 19.4698 23.187C19.285 23.2109 19.1062 23.2228 18.9214 23.2228C17.4072 23.2228 16.1135 22.3107 15.6247 20.8919C15.1776 19.5982 15.416 17.6608 17.4131 16.0869C21.3477 12.9989 32.9487 5.78556 37.3184 5.47557C37.694 5.45172 38.0696 5.43384 38.4451 5.43384C44.2814 5.43384 49.295 8.79013 51.5365 14.1912C53.7541 19.5386 52.5618 25.4285 48.4246 29.5717C45.8433 32.1531 42.3141 33.5778 38.4869 33.5778V33.5719Z" fill="#253E90"/>
<g filter="url(#filter0_d_1225_3405)">
<path d="M18.2548 33.3395C17.0208 33.3395 15.8166 33.1845 14.6601 32.8685H14.6422L14.6124 32.8566C13.1697 32.4274 11.8045 31.7656 10.5467 30.8953C10.505 30.8595 10.4811 30.8476 10.4692 30.8357C5.16349 27.1038 2.1768 19.4076 6.74328 11.9379C9.12785 8.03907 13.9387 5.422 18.7139 5.422C21.0984 5.422 23.2923 6.07776 25.1045 7.3237C24.2521 7.87812 23.1253 8.51599 21.8556 9.23136C17.7123 11.5683 12.5557 14.4715 11.9178 17.5655C11.4111 20.0097 11.9178 22.3764 13.3188 24.0515C13.4797 24.2423 13.6287 24.439 13.7778 24.6357L14.0162 24.9457C16.2876 27.8311 25.1224 29.6195 28.2224 30.168C27.9362 30.3468 27.662 30.5137 27.3997 30.6687C24.2878 32.4393 21.1998 33.3395 18.2429 33.3395H18.2548Z" fill="url(#paint1_linear_1225_3405)"/>
</g>
<path d="M55.6527 8.9989L50.3828 6.46528L61.5009 5.97644L54.687 14.7219L55.6527 8.9989Z" fill="#253E90"/>
<defs>
<filter id="filter0_d_1225_3405" x="0.579024" y="0.201997" width="34.1636" height="38.3575" filterUnits="userSpaceOnUse" color-interpolation-filters="sRGB">
<feFlood flood-opacity="0" result="BackgroundImageFix"/>
<feColorMatrix in="SourceAlpha" type="matrix" values="0 0 0 0 0 0 0 0 0 0 0 0 0 0 0 0 0 0 127 0" result="hardAlpha"/>
<feOffset dx="1.3"/>
<feGaussianBlur stdDeviation="2.61"/>
<feColorMatrix type="matrix" values="0 0 0 0 0.137255 0 0 0 0 0.121569 0 0 0 0 0.12549 0 0 0 0.15 0"/>
<feBlend mode="normal" in2="BackgroundImageFix" result="effect1_dropShadow_1225_3405"/>
<feBlend mode="normal" in="SourceGraphic" in2="effect1_dropShadow_1225_3405" result="shape"/>
</filter>
<linearGradient id="paint0_linear_1225_3405" x1="53.8517" y1="9.51742" x2="21.0697" y2="28.8564" gradientUnits="userSpaceOnUse">
<stop offset="0.06" stop-color="#2BAAE2"/>
<stop offset="1" stop-color="#3C59A8"/>
</linearGradient>
<linearGradient id="paint1_linear_1225_3405" x1="15.0833" y1="10.8469" x2="20.3294" y2="69.293" gradientUnits="userSpaceOnUse">
<stop offset="0.06" stop-color="#2BAAE2"/>
<stop offset="1" stop-color="#3C59A8"/>
</linearGradient>
</defs>
</svg>
