<svg width="20" height="20" viewBox="0 0 20 20" fill="none" xmlns="http://www.w3.org/2000/svg">
<path d="M9.99984 5.41699C10.5524 5.41699 11.0823 5.63649 11.473 6.02719C11.8637 6.41789 12.0832 6.94779 12.0832 7.50033C12.0832 7.77391 12.0293 8.04482 11.9246 8.29758C11.8199 8.55034 11.6664 8.78001 11.473 8.97346C11.2795 9.16692 11.0499 9.32038 10.7971 9.42507C10.5443 9.52977 10.2734 9.58366 9.99984 9.58366C9.4473 9.58366 8.9174 9.36417 8.5267 8.97346C8.136 8.58276 7.9165 8.05286 7.9165 7.50033C7.9165 6.94779 8.136 6.41789 8.5267 6.02719C8.9174 5.63649 9.4473 5.41699 9.99984 5.41699ZM9.99984 1.66699C11.5469 1.66699 13.0307 2.28157 14.1246 3.37554C15.2186 4.4695 15.8332 5.95323 15.8332 7.50033C15.8332 11.8753 9.99984 18.3337 9.99984 18.3337C9.99984 18.3337 4.1665 11.8753 4.1665 7.50033C4.1665 5.95323 4.78109 4.4695 5.87505 3.37554C6.96901 2.28157 8.45274 1.66699 9.99984 1.66699ZM9.99984 3.33366C8.89477 3.33366 7.83496 3.77265 7.05356 4.55405C6.27216 5.33545 5.83317 6.39526 5.83317 7.50033C5.83317 8.33366 5.83317 10.0003 9.99984 15.592C14.1665 10.0003 14.1665 8.33366 14.1665 7.50033C14.1665 6.39526 13.7275 5.33545 12.9461 4.55405C12.1647 3.77265 11.1049 3.33366 9.99984 3.33366Z" fill="white"/>
</svg>
