<svg width="588" height="120" viewBox="0 0 588 120" fill="none" xmlns="http://www.w3.org/2000/svg">
<path d="M93.6995 82.9848C93.6995 89.9924 91.8643 96.2791 88.2107 101.862C84.5571 107.444 79.2042 111.803 72.169 114.972C65.1338 118.123 56.773 119.716 47.1208 119.716C35.5484 119.716 25.9981 117.553 18.4701 113.245C13.1341 110.143 8.80086 106.003 5.47016 100.806C2.13947 95.6253 0.474121 90.5791 0.474121 85.6839C0.474121 82.8339 1.47673 80.403 3.48195 78.3745C5.48716 76.346 8.03616 75.3401 11.1289 75.3401C13.644 75.3401 15.7511 76.1281 17.4844 77.7039C19.2178 79.2798 20.6962 81.6268 21.9197 84.7283C23.4151 88.4165 25.0295 91.4844 26.7628 93.9656C28.4961 96.4467 30.9432 98.4753 34.0869 100.085C37.2307 101.694 41.3771 102.499 46.4921 102.499C53.5273 102.499 59.254 100.873 63.6553 97.637C68.0566 94.4015 70.2657 90.3612 70.2657 85.5162C70.2657 81.6771 69.0762 78.5589 66.6971 76.1616C64.3181 73.7642 61.2593 71.9369 57.4868 70.6796C53.7312 69.4222 48.7012 68.081 42.3967 66.6561C33.968 64.7114 26.9158 62.4314 21.223 59.8329C15.5472 57.2343 11.027 53.6802 7.69629 49.1706C4.36559 44.6777 2.70024 39.0783 2.70024 32.3892C2.70024 25.7001 4.46755 20.369 7.98517 15.4067C11.5028 10.4611 16.6008 6.65555 23.2792 3.98997C29.9406 1.34117 37.7915 0 46.8149 0C54.0201 0 60.2397 0.888525 65.5076 2.64881C70.7585 4.40909 75.1258 6.75613 78.5925 9.67317C82.0591 12.5902 84.5911 15.6581 86.1885 18.8769C87.7859 22.0957 88.5845 25.214 88.5845 28.2651C88.5845 31.048 87.5819 33.5627 85.5767 35.8092C83.5715 38.0389 81.0735 39.1621 78.0996 39.1621C75.3807 39.1621 73.3075 38.4915 71.8971 37.1504C70.4866 35.8092 68.9403 33.613 67.2919 30.5619C65.1507 26.1863 62.6017 22.7831 59.6109 20.3355C56.6201 17.8878 51.828 16.664 45.2006 16.664C39.066 16.664 34.1209 17.9884 30.3484 20.654C26.5929 23.3196 24.7066 26.5048 24.7066 30.2433C24.7066 32.5569 25.3524 34.5518 26.6269 36.2451C27.9014 37.9383 29.6687 39.38 31.9118 40.5871C34.1549 41.7941 36.415 42.7497 38.7091 43.4371C41.0032 44.1244 44.7927 45.1303 50.0777 46.4379C56.6881 47.9635 62.6867 49.6567 68.0396 51.4841C73.3925 53.3114 77.9637 55.5579 81.7192 58.1899C85.4748 60.822 88.4146 64.1581 90.5218 68.1816C92.629 72.2051 93.6825 77.1507 93.6825 82.9848H93.6995Z" fill="white"/>
<path d="M127.057 105.416V68.7013L98.4067 24.8786C95.8917 20.9222 94.1244 17.8543 93.0878 15.6413C92.0512 13.4284 91.5244 11.5172 91.5244 9.87431C91.5244 7.19197 92.578 4.87846 94.6852 2.93376C96.7923 0.98907 99.3923 0.0167236 102.485 0.0167236C105.731 0.0167236 108.212 0.922012 109.894 2.73259C111.577 4.54317 114.092 8.16432 117.456 13.596L139.378 48.7346L161.554 13.596C162.879 11.4334 164.001 9.62284 164.919 8.14755C165.819 6.67227 166.822 5.29757 167.926 4.0067C169.014 2.71582 170.238 1.72671 171.563 1.03937C172.888 0.352017 174.52 0.0167236 176.44 0.0167236C179.431 0.0167236 181.929 0.972306 183.917 2.90024C185.922 4.82816 186.925 7.04109 186.925 9.57255C186.925 11.6178 186.415 13.6799 185.413 15.7252C184.393 17.7704 182.66 20.6204 180.213 24.2583L150.848 68.7181V105.433C150.848 110.227 149.727 113.798 147.483 116.179C145.24 118.542 142.385 119.733 138.919 119.733C135.452 119.733 132.546 118.559 130.354 116.212C128.162 113.865 127.074 110.278 127.074 105.433L127.057 105.416Z" fill="white"/>
<path d="M222.951 14.0655L268.646 82.2806V13.4284C268.646 8.95225 269.615 5.59933 271.569 3.36964C273.523 1.13995 276.14 0.0167236 279.454 0.0167236C282.767 0.0167236 285.554 1.13995 287.543 3.36964C289.514 5.59933 290.499 8.96902 290.499 13.4284V104.46C290.499 114.62 286.234 119.699 277.703 119.699C275.562 119.699 273.642 119.397 271.943 118.794C270.243 118.19 268.629 117.235 267.134 115.91C265.638 114.603 264.245 113.06 262.97 111.283C261.696 109.523 260.404 107.712 259.13 105.868L214.556 38.4412V106.271C214.556 110.697 213.52 114.033 211.429 116.296C209.356 118.559 206.688 119.699 203.426 119.699C200.163 119.699 197.376 118.559 195.337 116.262C193.315 113.966 192.295 110.646 192.295 106.271V16.9825C192.295 13.1937 192.72 10.2264 193.569 8.06373C194.589 5.69992 196.254 3.75523 198.616 2.26318C200.962 0.771131 203.494 0.0167236 206.212 0.0167236C208.354 0.0167236 210.172 0.352017 211.701 1.03937C213.214 1.72671 214.556 2.64877 215.695 3.80552C216.833 4.96228 218.023 6.47109 219.212 8.29844C220.419 10.1425 221.659 12.0705 222.934 14.0655H222.951Z" fill="white"/>
<path d="M377.42 20.2517H323.976V48.6174H373.172C376.791 48.6174 379.493 49.4221 381.278 51.0147C383.062 52.6241 383.946 54.7364 383.946 57.3517C383.946 59.967 383.062 62.1129 381.312 63.7726C379.561 65.4323 376.842 66.2537 373.172 66.2537H323.976V99.1123H379.255C382.977 99.1123 385.798 99.9673 387.684 101.677C389.57 103.387 390.522 105.651 390.522 108.501C390.522 111.35 389.57 113.446 387.684 115.156C385.798 116.866 382.977 117.721 379.255 117.721H314.8C309.634 117.721 305.929 116.598 303.652 114.335C301.392 112.071 300.253 108.417 300.253 103.387V16.5467C300.253 13.177 300.763 10.4444 301.766 8.31526C302.768 6.18616 304.366 4.64382 306.524 3.67147C308.682 2.69912 311.435 2.21295 314.8 2.21295H377.42C381.193 2.21295 384.014 3.03442 385.849 4.69411C387.684 6.35381 388.602 8.51644 388.602 11.1988C388.602 13.8811 387.684 16.1276 385.849 17.7705C384.014 19.4302 381.21 20.2517 377.42 20.2517Z" fill="white"/>
<path d="M401.806 95.2732L428.009 57.5194L405.969 23.9566C403.896 20.7043 402.332 17.9046 401.296 15.5576C400.259 13.2273 399.732 10.9808 399.732 8.81821C399.732 6.65558 400.735 4.62707 402.723 2.86678C404.728 1.1065 407.159 0.234741 410.03 0.234741C413.327 0.234741 415.893 1.19032 417.745 3.11825C419.581 5.02942 422.13 8.60027 425.375 13.7973L442.947 41.8445L461.724 13.7973C463.271 11.4335 464.579 9.40498 465.684 7.72852C466.771 6.05206 467.825 4.6606 468.844 3.55413C469.847 2.44767 470.985 1.6262 472.243 1.07297C473.501 0.519739 474.945 0.251506 476.593 0.251506C479.567 0.251506 482.014 1.12326 483.9 2.88355C485.787 4.64383 486.738 6.7394 486.738 9.15351C486.738 12.6741 484.682 17.452 480.587 23.504L457.51 57.5529L482.354 95.3068C484.597 98.6094 486.212 101.359 487.231 103.538C488.251 105.718 488.744 107.78 488.744 109.724C488.744 111.568 488.285 113.245 487.384 114.77C486.483 116.296 485.209 117.503 483.544 118.392C481.895 119.28 480.026 119.733 477.953 119.733C475.71 119.733 473.823 119.28 472.277 118.358C470.731 117.436 469.473 116.296 468.521 114.938C467.57 113.58 465.786 110.915 463.169 106.975L442.556 74.9881L420.668 107.931C418.969 110.563 417.745 112.39 417.032 113.446C416.318 114.502 415.451 115.525 414.432 116.514C413.412 117.503 412.223 118.308 410.829 118.878C409.453 119.448 407.821 119.75 405.952 119.75C403.08 119.75 400.701 118.878 398.798 117.151C396.912 115.424 395.96 112.893 395.96 109.59C395.96 105.701 397.897 100.956 401.789 95.3235L401.806 95.2732Z" fill="white"/>
<path d="M587.492 81.2413C587.492 84.9127 586.574 88.9027 584.739 93.1777C582.903 97.4527 580.015 101.661 576.072 105.785C572.13 109.909 567.1 113.262 560.982 115.827C554.864 118.392 547.727 119.683 539.57 119.683C533.385 119.683 527.777 119.113 522.713 117.956C517.649 116.799 513.061 115.005 508.931 112.558C504.802 110.11 501.013 106.891 497.546 102.901C494.453 99.28 491.819 95.223 489.644 90.73C487.452 86.2371 485.82 81.4425 484.733 76.346C483.645 71.2496 483.102 65.8346 483.102 60.1179C483.102 50.8135 484.478 42.4983 487.214 35.1386C489.95 27.779 493.892 21.4923 498.99 16.2617C504.105 11.0311 510.087 7.05793 516.969 4.3253C523.835 1.59267 531.159 0.234741 538.942 0.234741C548.424 0.234741 556.853 2.09561 564.262 5.83412C571.671 9.57262 577.33 14.1829 581.272 19.6649C585.214 25.1469 587.186 30.344 587.186 35.2225C587.186 37.9048 586.234 40.2686 584.314 42.3139C582.394 44.3592 580.082 45.3818 577.364 45.3818C574.322 45.3818 572.045 44.6777 570.532 43.2527C569.02 41.8277 567.321 39.3968 565.468 35.9266C562.375 30.1931 558.739 25.9181 554.558 23.0849C550.378 20.2517 545.229 18.8267 539.095 18.8267C529.357 18.8267 521.591 22.4814 515.814 29.774C510.036 37.0833 507.147 47.4439 507.147 60.9058C507.147 69.8917 508.422 77.3687 510.988 83.3201C513.537 89.2883 517.173 93.7309 521.846 96.6815C526.536 99.6321 532.025 101.091 538.296 101.091C545.11 101.091 550.871 99.4309 555.595 96.0947C560.302 92.7586 563.871 87.8633 566.267 81.3922C567.27 78.341 568.527 75.8598 570.022 73.9487C571.518 72.0375 573.914 71.0652 577.211 71.0652C580.032 71.0652 582.462 72.0375 584.484 73.9822C586.506 75.9269 587.526 78.341 587.526 81.2245L587.492 81.2413Z" fill="white"/>
</svg>
