<svg width="105" height="104" viewBox="0 0 105 104" fill="none" xmlns="http://www.w3.org/2000/svg">
<path d="M99.3344 61.7405C99.0929 61.5091 98.8376 61.2885 98.5727 61.0762C98.3836 60.9245 98.1908 60.7758 97.9899 60.6346C96.0062 59.239 93.5681 58.63 91.1731 58.502C91.1093 58.4929 91.042 58.4884 90.9703 58.4909C90.8891 58.4874 90.8131 58.4921 90.7418 58.5037C90.6831 58.5067 90.625 58.5124 90.5663 58.5162C90.2037 58.539 89.8438 58.5743 89.4871 58.6231C86.8524 58.9849 84.4027 60.0604 82.445 61.9418C80.7956 63.5269 79.6532 65.6071 79.025 67.8074C78.8724 68.3418 78.7491 68.8829 78.6573 69.4263C78.651 69.4643 78.6463 69.5023 78.6402 69.5401C78.5076 70.3653 78.4428 71.2059 78.4497 72.0474C78.4536 72.5036 78.4798 72.9595 78.5249 73.4134C78.5919 74.0907 78.705 74.7622 78.8643 75.4199C78.9535 75.7882 79.0571 76.152 79.1755 76.5099C79.5015 77.4969 79.9384 78.4388 80.4871 79.3061C80.6739 79.6014 80.8736 79.8876 81.0865 80.1645C81.4523 80.6402 81.8555 81.0875 82.2985 81.4978C82.5459 81.7269 82.8047 81.9451 83.0763 82.1511C83.4285 82.4178 83.8031 82.6617 84.1961 82.885C84.4933 83.054 84.802 83.2095 85.1228 83.3509C85.2113 83.3899 85.2981 83.431 85.3885 83.4677C86.297 83.8392 87.2326 84.0828 88.1755 84.2148C88.6058 84.2751 89.0376 84.3127 89.4694 84.3263C89.8802 84.3391 90.2909 84.3314 90.7 84.3036C91.2645 84.265 91.8253 84.1868 92.3796 84.0743C96.3741 83.2628 100.003 80.5892 101.776 76.8369C102.413 75.4873 102.818 74.0472 102.994 72.5886C103.05 72.122 103.082 71.6536 103.091 71.186C103.159 67.6804 101.906 64.2015 99.3344 61.7405ZM95.7444 80.5785C94.9615 81.071 94.1188 81.4678 93.2323 81.7538C92.692 81.928 92.1361 82.0613 91.5679 82.1498C91.0632 82.2287 90.5493 82.2729 90.0285 82.2792C89.6334 82.2839 89.2344 82.2673 88.8329 82.2278C88.4557 82.1909 88.076 82.1326 87.6954 82.0548C87.6535 82.0461 87.6121 82.0402 87.5702 82.0312C87.2064 81.9524 86.8587 81.8513 86.5235 81.7328C86.1807 81.6116 85.8534 81.47 85.5404 81.3105C85.1687 81.1212 84.8171 80.9079 84.4872 80.6703C84.2107 80.471 83.9497 80.2549 83.7021 80.0252C83.2412 79.5974 82.8307 79.1202 82.4702 78.6037C82.2707 78.3177 82.0846 78.0213 81.9154 77.7134C81.4521 76.8704 81.1037 75.9515 80.8657 74.9958C80.7729 74.6233 80.6965 74.2454 80.6372 73.8638C80.5171 73.088 80.4663 72.2987 80.4842 71.514C80.4919 71.1825 80.5108 70.8516 80.5427 70.5234C80.5582 70.3649 80.577 70.2067 80.5988 70.0487C80.7397 69.0316 81.017 68.0264 81.4149 67.0721C81.7854 66.1836 82.262 65.3404 82.8364 64.5747C83.0542 64.2842 83.2843 64.0037 83.5295 63.7378C84.328 62.8715 85.2611 62.1916 86.2786 61.6818C87.058 61.2913 87.8867 61.0019 88.7445 60.8093C89.4707 60.6462 90.2165 60.5501 90.9703 60.5223C92.1269 60.5711 93.2711 60.7673 94.3516 61.1227C94.6016 61.2048 94.8478 61.2964 95.0901 61.3964C95.8805 61.7212 96.6255 62.1406 97.3054 62.659C97.5701 62.8609 97.8244 63.078 98.0675 63.3104C98.3714 63.6011 98.6568 63.9163 98.9225 64.2562C98.983 64.334 99.0458 64.4087 99.1045 64.4889C99.253 64.6927 99.3901 64.9039 99.5219 65.1184C99.6935 65.3977 99.8514 65.6849 99.9946 65.9797C100.159 66.3181 100.305 66.6656 100.432 67.0203C100.549 67.3483 100.651 67.6821 100.737 68.0203C100.835 68.4056 100.912 68.796 100.97 69.1901C101.027 69.5849 101.066 69.9827 101.082 70.3814C101.105 70.9276 101.088 71.4748 101.035 72.0165C101.019 72.1762 101.001 72.3355 100.979 72.4941C100.93 72.8412 100.863 73.1817 100.784 73.5172C100.573 74.4163 100.258 75.2706 99.8526 76.0691C98.9068 77.9338 97.4744 79.4899 95.7444 80.5785Z" fill="black"/>
<path d="M89.7556 87.1685C89.7355 87.7687 89.714 88.3687 89.6928 88.9688C63.4328 88.1309 37.1168 89.7544 10.8952 87.6651C8.45483 87.4705 6.01794 87.2365 3.5845 86.9706C3.54936 72.2148 4.1108 57.4458 4.56032 42.6997C4.84144 33.4791 5.14714 24.2596 5.46686 15.0404C5.73316 15.0256 5.99986 15.0158 6.26636 15.0099C7.38822 14.9847 8.51171 15.0063 9.63357 15.0307C12.925 15.1022 16.2148 15.2541 19.503 15.4105C24.9382 15.6695 30.3714 16.0367 35.8091 16.2494C35.833 18.2508 35.36 20.1977 35.1656 22.1955C35.0666 23.2119 36.2801 23.4282 36.8793 22.8623C36.899 22.864 36.9181 22.8666 36.9386 22.867C55.2729 23.4175 73.6332 22.7067 91.953 23.7691C91.5783 34.4447 91.1982 45.1204 90.8464 55.7968C90.8031 57.1074 92.8346 57.1033 92.8776 55.7968C93.24 44.8013 93.6323 33.8065 94.018 22.8118C94.0383 22.2331 93.5394 21.8292 93.0024 21.7961C74.4755 20.6519 55.9061 21.3838 37.3628 20.8465C37.6262 18.9932 37.9807 17.1673 37.7875 15.2716C37.7298 14.705 37.3685 14.2771 36.7719 14.2559C30.9359 14.0485 25.1052 13.6459 19.2723 13.3681C16.0032 13.2121 12.7324 13.0664 9.4601 12.9953C8.35814 12.9716 7.25538 12.9563 6.15322 12.9811C5.53105 12.9949 4.80854 12.9716 4.21155 13.1696C4.01655 13.2342 3.86583 13.3376 3.75452 13.4637C3.58836 13.626 3.47624 13.8537 3.46588 14.1489C3.01088 27.2366 2.5833 40.325 2.21422 53.4156C1.89064 64.8956 1.50796 76.3896 1.55468 87.8755C1.55711 88.4764 2.01861 88.8286 2.5703 88.8912C29.0562 91.8871 55.7415 90.391 82.3265 90.8204C85.1089 90.8655 87.8909 90.9352 90.6721 91.0307C91.146 91.0469 91.447 90.7912 91.5776 90.4565C91.6416 90.3311 91.6814 90.1843 91.6877 90.0151C91.7221 89.0663 91.7552 88.1173 91.7869 87.1683C91.8309 85.8579 89.7995 85.8622 89.7556 87.1685Z" fill="black"/>
<path d="M83.154 30.637C74.4267 31.0719 65.6103 30.9721 56.8798 30.6743C55.5692 30.6295 55.5735 32.6609 56.8798 32.7056C65.6103 33.0036 74.4265 33.1031 83.154 32.6682C84.4574 32.6032 84.4637 30.5718 83.154 30.637Z" fill="black"/>
<path d="M82.8897 38.2375C74.1318 37.947 65.374 38.5659 56.6161 38.2755C55.3055 38.232 55.3098 40.2632 56.6161 40.3067C65.374 40.5974 74.1318 39.9785 82.8897 40.2687C84.2003 40.3122 84.196 38.2807 82.8897 38.2375Z" fill="black"/>
<path d="M82.6186 46.0763C78.0879 46.3016 73.5379 46.2624 69.0032 46.2569C64.7853 46.2518 60.5607 46.2567 56.3446 46.1141C55.034 46.0696 55.0383 48.101 56.3446 48.1453C60.5607 48.2879 64.7853 48.2816 69.0032 48.2881C73.5377 48.2952 78.0881 48.333 82.6186 48.1075C83.9221 48.0427 83.9284 46.0113 82.6186 46.0763Z" fill="black"/>
<path d="M78.0365 62.1469C70.6175 62.1027 63.2004 62.5113 55.7821 62.2658C54.4715 62.2223 54.4758 64.2538 55.7821 64.297C63.2004 64.5426 70.6175 64.1339 78.0365 64.1782C79.3466 64.1859 79.3458 62.1547 78.0365 62.1469Z" fill="black"/>
<path d="M55.78 72.0996C59.0326 71.5612 62.3791 71.9479 65.6498 72.0491C68.9656 72.1514 72.2827 71.9619 75.5969 72.1555C76.906 72.2321 76.8985 70.2002 75.5969 70.1242C72.1502 69.9229 68.6979 70.1119 65.2489 70.0054C61.9054 69.9018 58.5648 69.5904 55.2401 70.1409C53.95 70.3546 54.4991 72.3117 55.78 72.0996Z" fill="black"/>
<path d="M55.245 79.737C62.7074 79.9842 70.169 79.5686 77.6322 79.6188C78.9424 79.6275 78.9416 77.5962 77.6322 77.5875C70.169 77.5373 62.7074 77.9529 55.245 77.7057C53.9344 77.6623 53.9387 79.6937 55.245 79.737Z" fill="black"/>
<path d="M47.3641 29.3924C36.5599 29.6616 25.7376 28.4176 14.9506 29.4465C14.2161 29.5165 13.896 30.2033 13.9952 30.7603C13.5253 30.8054 13.0772 31.1302 13.0551 31.7355C12.8052 38.5497 11.8564 45.3507 12.3446 52.1764C12.4221 53.2614 13.8522 53.4455 14.2665 52.7144C14.362 52.7685 14.4745 52.8087 14.6082 52.8294C19.2884 53.556 24.1908 53.1178 28.8956 52.9031C34.5146 52.6466 40.1568 52.2401 45.7842 52.4242C47.0948 52.467 47.0907 50.4356 45.7842 50.3929C40.3553 50.2156 34.9111 50.5912 29.4905 50.8445C26.7772 50.9714 24.0624 51.0894 21.3462 51.1252C19.2931 51.1522 17.1834 51.1869 15.1483 50.8709C14.8123 50.8187 14.5275 50.9156 14.312 51.0892C13.9884 44.6284 14.8499 38.1877 15.0865 31.7355C15.0902 31.6388 15.0811 31.5502 15.0636 31.468C25.4532 30.4922 35.8756 31.6118 46.2831 31.4458C45.8472 37.4216 44.2904 43.2663 43.9929 49.2595C43.9279 50.5692 45.9593 50.5629 46.0241 49.2595C46.3389 42.9212 48.0645 36.7476 48.3797 30.4083C48.4068 29.8647 47.8973 29.3792 47.3641 29.3924Z" fill="black"/>
<path d="M25.9885 70.791C25.6795 71.0027 25.372 71.2168 25.0665 71.4331C21.9028 74.6616 18.4734 77.6052 14.7461 80.1693C14.8854 80.1862 15.0252 80.199 15.1651 80.2134C19.0666 77.3654 22.7443 74.2149 26.7449 71.5009C26.4983 71.2592 26.2464 71.0224 25.9885 70.791Z" fill="#BE1E2D"/>
<path d="M15.9618 82.3169C15.8203 82.3058 15.6785 82.2944 15.5371 82.2814C15.6637 82.35 15.8152 82.3716 15.9618 82.3169Z" fill="#BE1E2D"/>
<path d="M26.6921 73.2811C27.1259 72.7936 26.4101 72.0727 25.974 72.5631C23.3007 75.5677 19.9359 77.8142 16.8184 80.3279C17.3471 80.3484 17.8764 80.3557 18.4052 80.3568C21.2692 78.1116 24.2655 76.0085 26.6921 73.2811Z" fill="#BE1E2D"/>
<path d="M27.5998 74.5942C25.3526 76.5535 23.0341 78.429 20.7402 80.3329C21.2818 80.3243 21.8233 80.3146 22.3646 80.3004C24.3609 78.652 26.3664 77.014 28.318 75.3122C28.8124 74.8812 28.0911 74.1658 27.5998 74.5942Z" fill="#BE1E2D"/>
<path d="M30.4061 75.6638C30.204 75.4127 30.0009 75.1622 29.7972 74.9126C29.7405 74.9315 29.6842 74.9587 29.6308 75.0006C27.4407 76.7105 25.3148 78.4994 23.1777 80.2745C23.7278 80.2574 24.2777 80.2393 24.8275 80.2184C26.6524 78.6993 28.4771 77.1801 30.3489 75.7188C30.3712 75.7011 30.3883 75.6824 30.4061 75.6638Z" fill="#BE1E2D"/>
<path d="M31.7148 77.2891C31.6343 77.1904 31.5539 77.0913 31.4739 76.9921C31.2941 76.8808 31.0532 76.8603 30.8489 77.0315C29.66 78.0289 28.5099 79.0703 27.3594 80.1111C27.7311 80.0943 28.1028 80.078 28.4745 80.0605C28.6346 80.053 28.7947 80.0447 28.9547 80.037C29.8148 79.2625 30.6801 78.4938 31.5669 77.7496C31.7327 77.6109 31.7633 77.4406 31.7148 77.2891Z" fill="#BE1E2D"/>
<path d="M33.25 79.1598C33.2573 79.1535 33.2645 79.1472 33.2718 79.1409C33.0485 78.8872 32.8288 78.6305 32.6108 78.3723C32.0201 78.8893 31.4347 79.4117 30.8574 79.9435C31.6191 79.9051 32.3811 79.8673 33.1432 79.8297L33.1919 79.781C33.3902 79.5829 33.3715 79.3388 33.25 79.1598Z" fill="#BE1E2D"/>
<path d="M40.7162 71.22C38.621 73.2683 36.3702 75.1439 34.1445 77.0474C34.3631 77.3054 34.5847 77.5603 34.809 77.8134C37.0492 75.8963 39.3151 74.0071 41.4249 71.9451C41.1889 71.7032 40.9527 71.4617 40.7162 71.22Z" fill="#BE1E2D"/>
<path d="M43.089 73.6392C42.9657 73.5151 42.8418 73.3916 42.7189 73.2671C42.5619 73.2163 42.3813 73.236 42.2245 73.3753C40.1181 75.2475 38.0113 77.1208 35.9414 79.0336C36.1533 79.2499 36.367 79.465 36.5867 79.6744C36.641 79.6724 36.6952 79.6708 36.7494 79.669C38.7904 77.785 40.8668 75.9388 42.9425 74.0934C43.0985 73.9551 43.1312 73.7885 43.089 73.6392Z" fill="#BE1E2D"/>
<path d="M43.4279 76.1433C42.0275 77.2335 40.6875 78.3911 39.3867 79.5924C39.8929 79.582 40.3989 79.5749 40.9049 79.5708C41.6851 78.869 42.4799 78.1837 43.2971 77.524C43.3369 77.0635 43.3806 76.6032 43.4279 76.1433Z" fill="#BE1E2D"/>
<path d="M43.1484 79.5734C43.16 79.367 43.1761 79.1612 43.1895 78.9551C42.961 79.1566 42.7361 79.3621 42.5137 79.5699C42.7253 79.5716 42.937 79.5703 43.1484 79.5734Z" fill="#BE1E2D"/>
<path d="M47.3639 59.6241C47.3901 59.0808 46.8821 58.5953 46.3483 58.6085C35.5441 58.8774 24.722 57.6339 13.935 58.6625C13.2005 58.7326 12.8804 59.4194 12.9797 59.9764C12.5099 60.0212 12.0618 60.3464 12.0397 60.9516C11.7896 67.7658 10.8408 74.5668 11.3289 81.3924C11.4065 82.4773 12.8363 82.6616 13.2509 81.9305C13.3462 81.9847 13.4591 82.025 13.5928 82.0457C14.2371 82.1456 14.8859 82.2218 15.5375 82.2813C15.6789 82.2941 15.8206 82.3057 15.9622 82.3169C16.7209 82.377 17.4834 82.4141 18.2482 82.4318C18.7619 82.4442 19.2764 82.4491 19.7913 82.4464C20.0418 82.4452 20.2922 82.4418 20.5429 82.4377C21.0952 82.4286 21.6475 82.4131 22.1998 82.393C23.1163 82.3599 24.0318 82.3156 24.943 82.2683C25.4878 82.2401 26.0309 82.2114 26.5722 82.1834C27.0096 82.1611 27.4459 82.1389 27.88 82.1192C28.2966 82.1001 28.7132 82.0804 29.13 82.0599C29.7485 82.0298 30.3676 81.9983 30.9868 81.9669C31.6378 81.9338 32.289 81.9006 32.9404 81.8684C33.4553 81.8428 33.9701 81.818 34.485 81.7942C35.3864 81.7524 36.2877 81.7144 37.1892 81.6829C37.6895 81.6654 38.1896 81.6504 38.6899 81.6374C39.2925 81.6218 39.8954 81.6094 40.4979 81.6023C40.9614 81.5968 41.4247 81.5947 41.8883 81.5951C42.8486 81.5958 43.8088 81.6088 44.7686 81.6402C45.9268 81.6782 46.0574 80.0969 45.1706 79.699C45.1909 79.3206 45.2161 78.9423 45.2431 78.5645C45.2738 78.1345 45.3087 77.7049 45.3473 77.2757C45.8781 71.378 47.0777 65.5458 47.3639 59.6241ZM14.0707 60.9513C14.0744 60.8545 14.0652 60.7661 14.0478 60.6836C24.4388 59.708 34.8626 60.8278 45.2711 60.6615C45.0298 64.3423 44.4716 67.9921 43.975 71.6479C42.8891 70.5421 41.8164 69.4235 40.7169 68.3307C40.4239 68.0394 39.8428 67.8974 39.4861 68.172C36.8837 70.1751 34.8321 72.7405 32.4279 74.9564C30.6817 72.7787 28.951 70.5892 26.7884 68.7973C26.7746 68.7857 26.7601 68.7761 26.7461 68.7658C26.4756 68.1791 25.6929 67.8229 25.1268 68.4331C21.5421 72.2973 17.6073 75.7896 13.2385 78.7408C13.1069 72.8045 13.8532 66.883 14.0707 60.9513ZM30.8574 79.9433C30.2228 79.9752 29.5886 80.0067 28.9547 80.037C28.7946 80.0447 28.6346 80.053 28.4745 80.0605C28.1028 80.078 27.7311 80.0943 27.3594 80.1111C26.5154 80.1493 25.671 80.1855 24.8268 80.218C24.2769 80.2391 23.7269 80.257 23.177 80.274C22.9058 80.2826 22.6349 80.2929 22.3637 80.3C21.8224 80.3142 21.2808 80.324 20.7393 80.3325C20.603 80.335 20.4667 80.339 20.3302 80.3408C19.6926 80.3492 19.0493 80.3573 18.4048 80.3561C17.8761 80.3551 17.3467 80.3478 16.818 80.3272C16.2645 80.3061 15.7128 80.2685 15.1641 80.2129C15.0244 80.1987 14.8844 80.1857 14.7451 80.1688C18.4724 77.6048 21.9018 74.6611 25.0655 71.4326C25.3212 71.1716 25.5786 70.9124 25.8308 70.6479C25.8839 70.6946 25.9348 70.7434 25.9874 70.7905C26.2454 71.0221 26.4971 71.2589 26.7441 71.5004C27.8359 72.5691 28.8298 73.7277 29.7964 74.9121C30.0002 75.1618 30.2033 75.4122 30.4054 75.6633C30.7615 76.1061 31.1166 76.5497 31.4739 76.9917C31.5539 77.0909 31.6343 77.19 31.7148 77.2887C32.0105 77.6525 32.3087 78.0138 32.6107 78.3718C32.8287 78.6299 33.0485 78.8867 33.2717 79.1404C33.4651 79.36 33.6601 79.5783 33.8585 79.7936C33.6201 79.8052 33.3816 79.8174 33.1433 79.8294C32.381 79.8672 31.6191 79.9049 30.8574 79.9433ZM39.3864 79.5925C38.5073 79.6108 37.6281 79.6364 36.749 79.6691C36.6948 79.6711 36.6405 79.6728 36.5863 79.6746C36.3665 79.4652 36.1528 79.2501 35.941 79.0337C35.5524 78.637 35.1764 78.2288 34.8084 77.8134C34.5841 77.5605 34.3625 77.3053 34.1439 77.0474C33.9991 76.8764 33.8535 76.7061 33.7105 76.5337C35.8569 74.5782 37.6846 72.2678 39.9155 70.4062C40.1832 70.6764 40.4495 70.9481 40.7156 71.2199C40.9521 71.4614 41.1883 71.7032 41.4243 71.9451C41.8548 72.3865 42.2854 72.8279 42.7182 73.267C42.8409 73.3915 42.965 73.515 43.0883 73.6391C43.2736 73.826 43.4582 74.0133 43.6449 74.1988C43.5659 74.8463 43.4946 75.4945 43.4276 76.1433C43.3802 76.6031 43.3366 77.0632 43.2967 77.5239C43.2555 78.0004 43.2194 78.4774 43.1881 78.9549C43.1747 79.1611 43.1584 79.3669 43.147 79.5732C42.9354 79.5702 42.7239 79.5714 42.5123 79.5698C41.9764 79.5661 41.4406 79.5663 40.9045 79.5708C40.3986 79.5751 39.8924 79.5822 39.3864 79.5925Z" fill="black"/>
<path d="M31.4219 47.2623C31.5414 47.6375 31.8469 47.9601 32.3378 48.0068C36.7696 48.4295 41.2522 46.0653 41.5932 41.2669C41.7265 39.3925 40.9446 37.5103 39.6168 36.205C37.8915 34.5089 35.3526 34.0306 33.0207 34.2061C32.753 34.2262 32.5411 34.3294 32.3831 34.4785C31.9007 34.6192 31.4918 35.0706 31.6305 35.7017C32.3707 39.0713 31.6868 42.858 30.9736 46.1791C30.8682 46.6688 31.0914 47.0501 31.4219 47.2623ZM39.5687 41.1186C39.499 44.6258 36.1182 46.0572 33.0806 46.0147C33.7345 42.8529 34.2443 39.4274 33.7761 36.2136C36.7399 36.2391 39.6359 37.74 39.5687 41.1186Z" fill="black"/>
<path d="M20.0208 46.9745C20.7975 45.8727 21.464 44.7102 22.0745 43.5169C23.4842 43.6243 24.8909 43.7732 26.3016 43.8685C26.677 44.8457 27.0676 45.8169 27.471 46.7821C27.9682 47.972 29.9347 47.4504 29.4297 46.2422C29.0493 45.3318 28.6806 44.4159 28.3249 43.4951C28.6243 42.9699 28.4279 42.1397 27.7409 41.9453C26.976 39.8562 26.2926 37.7378 25.7146 35.5895C25.7475 35.3236 25.6699 35.0776 25.5267 34.8798C25.5031 34.788 25.4769 34.6972 25.4539 34.6052C25.1338 33.3356 23.1749 33.8743 23.4952 35.1451C23.5226 35.2542 23.5535 35.3622 23.5815 35.4711C22.6346 37.427 21.7995 39.4465 20.8574 41.4078C20.6984 41.3995 20.5395 41.3896 20.3803 41.3833C19.2556 41.338 19.101 42.8269 19.905 43.2835C19.4085 44.1994 18.8709 45.0925 18.267 45.9493C17.5101 47.0226 19.2724 48.0358 20.0208 46.9745ZM24.4247 38.4534C24.7678 39.571 25.1387 40.6798 25.5311 41.7812C24.6945 41.7146 23.8586 41.6353 23.0223 41.563C23.4997 40.5316 23.9569 39.4895 24.4247 38.4534Z" fill="black"/>
<path d="M16.673 68.7494C20.0601 71.5353 24.2369 66.0704 21.1561 63.2508C21.1531 63.248 21.15 63.2461 21.1472 63.2433C21.0907 63.1887 21.0259 63.1377 20.9506 63.092C19.3069 62.0912 17.3353 62.5573 16.2131 64.0946C15.1518 65.5478 15.2452 67.5754 16.673 68.7494ZM17.8694 65.2534C18.3268 64.5484 19.132 64.4281 19.8167 64.7854C20.8224 65.9097 19.5035 68.1955 18.0703 67.2723C17.3069 66.7807 17.4398 65.915 17.8694 65.2534Z" fill="black"/>
<path d="M86.2796 61.6818C85.1531 62.6683 83.9951 63.6218 82.8375 64.5747C82.263 65.3404 81.7865 66.1836 81.416 67.0721C83.8694 64.9972 86.421 63.0242 88.7456 60.8093C87.8878 61.0019 87.059 61.2913 86.2796 61.6818Z" fill="#BE1E2D"/>
<path d="M89.6813 63.7858C90.3672 63.1766 91.0398 62.5526 91.692 61.9058C92.1576 61.4443 91.4393 60.7263 90.974 61.1878C87.7402 64.3937 84.0106 67.0463 80.5989 70.0487C80.5772 70.2068 80.5583 70.365 80.5429 70.5234C80.511 70.8517 80.4921 71.1826 80.4844 71.5141C82.3933 69.7688 84.4268 68.1607 86.4349 66.5239C86.6681 65.1386 88.3792 64.0535 89.6813 63.7858Z" fill="#BE1E2D"/>
<path d="M95.0223 61.8033C95.1296 61.6589 95.1389 61.5169 95.091 61.3964C94.8487 61.2967 94.6025 61.2051 94.3524 61.1228C94.2763 61.1577 94.2046 61.211 94.1452 61.2906C93.4747 62.1935 92.7565 63.0496 92.0039 63.8721C92.351 63.9633 92.687 64.088 93.0116 64.2428C93.7144 63.463 94.3898 62.6548 95.0223 61.8033Z" fill="#BE1E2D"/>
<path d="M91.1196 65.705C90.8529 65.6691 90.5017 65.6967 90.1399 65.7786C89.6195 66.2803 89.0889 66.7717 88.5488 67.2539C88.6894 67.483 88.9547 67.7259 89.2512 67.9522C90.0337 67.2533 90.797 66.5352 91.5378 65.7942C91.4013 65.755 91.262 65.7241 91.1196 65.705Z" fill="#BE1E2D"/>
<path d="M87.0132 68.5876C84.9127 70.3711 82.7332 72.0767 80.6367 73.864C80.6958 74.2457 80.7722 74.6235 80.8652 74.996C83.0955 73.0592 85.4303 71.2303 87.6801 69.3169C87.4284 69.0879 87.2025 68.8456 87.0132 68.5876Z" fill="#BE1E2D"/>
<path d="M84.6174 74.9851C83.6946 75.8732 82.7892 76.7781 81.916 77.7137C82.0852 78.0216 82.2713 78.318 82.4708 78.604C83.2839 77.7238 84.126 76.8717 84.9836 76.0349C84.8764 75.8248 84.775 75.6083 84.6868 75.3773C84.6334 75.2366 84.6129 75.1058 84.6174 74.9851Z" fill="#BE1E2D"/>
<path d="M86.5055 74.5777C87.7661 73.3945 89.0496 72.2337 90.3275 71.0675C90.0285 70.9032 89.722 70.732 89.4175 70.5514C88.1008 71.7488 86.7793 72.942 85.4844 74.1609C85.8555 74.114 86.2585 74.2369 86.5055 74.5777Z" fill="#BE1E2D"/>
<path d="M95.4456 66.184C96.3503 65.2555 97.2292 64.3022 98.0671 63.3104C97.824 63.0778 97.5697 62.8608 97.305 62.6589C96.4963 63.6215 95.6473 64.5462 94.7734 65.4476C94.9355 65.5945 95.0946 65.7468 95.2487 65.9067C95.3345 65.9953 95.3993 66.0885 95.4456 66.184Z" fill="#BE1E2D"/>
<path d="M93.3415 66.884C92.5824 67.625 91.8097 68.3534 91.0293 69.0747C91.3159 69.2415 91.618 69.415 91.9257 69.5968C92.6529 68.922 93.3732 68.2405 94.0821 67.5483C93.9896 67.4993 93.8993 67.4315 93.8135 67.3425C93.664 67.1879 93.5062 67.0333 93.3415 66.884Z" fill="#BE1E2D"/>
<path d="M83.7031 80.0254C83.9507 80.2551 84.2118 80.4711 84.4882 80.6705C85.2964 79.8397 86.1181 79.0222 86.9454 78.2097C86.6584 78.0315 86.3886 77.8253 86.1384 77.5903C85.3182 78.3937 84.5036 79.2031 83.7031 80.0254Z" fill="#BE1E2D"/>
<path d="M88.4601 76.7321C89.8834 75.3523 91.313 73.9786 92.7188 72.5831C92.4537 72.3422 92.171 72.1356 91.9199 71.9741C90.4869 73.3917 89.0286 74.7866 87.5781 76.189C87.843 76.4187 88.1414 76.5981 88.4601 76.7321Z" fill="#BE1E2D"/>
<path d="M99.5213 65.1182C99.3897 64.9037 99.2526 64.6925 99.1039 64.4888C99.0454 64.4085 98.9827 64.3338 98.9219 64.256C97.2053 66.4705 95.3213 68.5303 93.3652 70.5234C93.638 70.7204 93.9007 70.928 94.1456 71.1478C96.0298 69.2246 97.8486 67.2399 99.5213 65.1182Z" fill="#BE1E2D"/>
<path d="M100.431 67.0201C100.304 66.6654 100.159 66.3179 99.994 65.9795C99.9651 66.0024 99.9375 66.0299 99.9109 66.0628C98.2985 68.0642 96.5557 69.9453 94.7676 71.7848C94.9945 72.0546 95.1895 72.342 95.3426 72.6485C97.108 70.8362 98.8309 68.9845 100.431 67.0201Z" fill="#BE1E2D"/>
<path d="M85.541 81.3108C85.854 81.4702 86.1813 81.6118 86.5241 81.733C87.3641 80.7928 88.2265 79.8734 89.1016 78.9655C88.7027 78.9133 88.3181 78.8249 87.9531 78.6959C87.1339 79.5535 86.3265 80.4221 85.541 81.3108Z" fill="#BE1E2D"/>
<path d="M91.2151 76.8099C92.0355 75.9842 92.8592 75.1615 93.6798 74.3358C93.6902 73.956 93.5445 73.592 93.3178 73.2593C92.0782 74.5091 90.8288 75.7502 89.5938 77.0045C90.128 77.0467 90.6809 76.9824 91.2151 76.8099Z" fill="#BE1E2D"/>
<path d="M95.7032 74.3289C97.4129 72.568 99.178 70.8599 100.969 69.1898C100.912 68.796 100.834 68.4056 100.736 68.02C98.9645 69.6627 97.2166 71.3401 95.5195 73.0675C95.6558 73.4567 95.7229 73.8757 95.7032 74.3289Z" fill="#BE1E2D"/>
<path d="M93.2969 75.3955C93.1401 75.5645 92.9839 75.7345 92.8281 75.9047C93.0042 75.7516 93.1639 75.5822 93.2969 75.3955Z" fill="#BE1E2D"/>
<path d="M90.9597 78.9431C90.6705 78.986 90.3871 79.0069 90.1078 79.015C89.2791 80.0087 88.4727 81.0205 87.6953 82.0552C88.076 82.133 88.4556 82.1913 88.8328 82.2282C89.7211 81.0627 90.6459 79.9252 91.6 78.8119C91.3879 78.8673 91.174 78.9112 90.9597 78.9431Z" fill="#BE1E2D"/>
<path d="M101.083 70.3811C97.6465 74.5697 93.7942 78.3854 90.0293 82.2791C90.5499 82.2731 91.064 82.2286 91.5688 82.1498C94.7922 78.8329 98.0519 75.548 101.036 72.0161C101.089 71.4745 101.105 70.9275 101.083 70.3811Z" fill="#BE1E2D"/>
<path d="M95.7443 80.5785C97.1304 79.0915 98.4928 77.5812 99.8525 76.069C100.258 75.2703 100.573 74.4159 100.784 73.5171C98.2904 76.2843 95.8166 79.073 93.2324 81.754C94.1187 81.4678 94.9614 81.0711 95.7443 80.5785Z" fill="#BE1E2D"/>
<path d="M94.0289 69.1297C94.1799 69.1593 94.334 69.1748 94.4902 69.1748C95.4991 69.1748 96.4518 68.5286 96.8605 67.5672C97.2578 66.6321 97.0608 65.5908 96.346 64.8492C94.633 63.0723 92.7188 62.171 90.6562 62.171C90.3355 62.171 90.0091 62.1938 89.6857 62.2391C87.7059 62.5149 84.9358 64.2437 84.8846 66.772C84.8235 69.7959 87.7518 71.3968 89.8897 72.5653C90.3333 72.8077 90.7521 73.037 91.0729 73.2411C91.8122 73.7116 92.1202 74.1513 92.1575 74.2972C92.1074 74.5462 91.7838 74.8519 91.2636 75.1393C90.8389 75.3733 90.3702 75.4991 89.9081 75.4991C89.4927 75.4991 88.4818 75.3849 88.0682 74.3002C87.6821 73.2876 86.7272 72.6389 85.6354 72.6389C84.7626 72.6389 83.9631 73.0551 83.4965 73.7323C83.0559 74.3717 82.9706 75.2015 83.2625 75.9673C84.3671 78.8636 86.8539 80.6406 89.9156 80.6406H89.9161C90.3308 80.6406 90.7574 80.5607 91.1838 80.4976C93.9593 80.0852 96.9212 77.9055 97.2129 74.6283C97.442 72.0551 95.7843 70.3509 94.0289 69.1297ZM95.6956 74.4932C95.4825 76.8868 93.2367 78.6046 90.9601 78.9428C88.1265 79.3637 85.7211 78.0913 84.6864 75.3768C84.219 74.1507 86.1832 73.6254 86.6451 74.8369C87.4871 77.0453 90.0389 77.5535 91.9999 76.4716C92.7702 76.0467 93.5376 75.4162 93.6696 74.492C93.8219 73.426 92.6832 72.4597 91.8914 71.9558C90.0666 70.7941 86.3553 69.4248 86.4083 66.8029C86.4406 65.2063 88.4936 63.9435 89.8966 63.7479C92.0111 63.4533 93.8053 64.408 95.2497 65.9065C96.1585 66.8494 94.7238 68.2873 93.8134 67.3426C93.0921 66.5943 92.1872 65.8492 91.1192 65.7048C90.3544 65.6016 88.8935 66.0121 88.485 66.7702C88.1269 67.4348 90.1541 68.552 90.5851 68.8122C92.6361 70.0496 95.9548 71.5808 95.6956 74.4932ZM92.4586 68.1431C92.3312 68.069 92.2067 67.9966 92.0854 67.9266C91.8364 67.7823 91.5961 67.6434 91.3719 67.5081L91.2264 67.4218C91.0997 67.3473 90.9843 67.2776 90.8793 67.2128C90.903 67.2134 90.9146 67.2148 90.9148 67.2148C91.3609 67.2749 91.8681 67.5794 92.4586 68.1431Z" fill="black"/>
</svg>
