<svg width="561" height="456" viewBox="0 0 561 456" fill="none" xmlns="http://www.w3.org/2000/svg">
<g filter="url(#filter0_d_642_7583)">
<path d="M486.387 290.105C527.497 249.007 527.497 182.372 486.387 141.274C445.276 100.175 378.622 100.175 337.511 141.274C296.401 182.372 296.401 249.007 337.511 290.105C378.622 331.204 445.276 331.204 486.387 290.105Z" fill="url(#paint0_linear_642_7583)"/>
</g>
<path d="M411.632 130.4C373.001 130.54 340.431 156.36 330.078 191.67C327.377 200.88 319.045 207.28 309.442 207.28H309.382C297.188 207.28 286.015 200.73 279.783 190.25C271.531 176.36 256.747 166.72 239.762 165.71C230.659 165.17 222.037 167.06 214.494 170.8C205.932 175.05 195.579 173.17 188.817 166.42L188.407 166.01C180.024 157.63 177.384 145.23 181.215 134.01C184.276 125.05 185.716 115.33 185.206 105.22C183.255 67.0601 149.505 33.9201 111.304 32.6001C66.8613 31.0701 30.5007 67.3501 31.9211 111.76C33.1615 150.64 67.0514 184.58 105.933 185.89C121.497 186.42 136.071 182.3 148.365 174.83C157.838 169.07 169.871 169.74 178.394 176.82L178.994 177.32C186.796 183.81 190.327 194.16 187.967 204.03C186.826 208.8 186.366 213.83 186.706 219.02C187.406 229.85 191.618 239.8 198.22 247.71C201.581 251.73 201.591 257.58 198.29 261.65L197.819 262.23C194.238 266.65 188.187 268.11 182.925 265.95C172.402 261.62 160.839 259.3 148.705 259.48C101.301 260.16 62.9302 299.4 63.2703 346.79C63.6204 394.91 103.202 433.71 151.626 432.8C197.92 431.94 235.711 394.22 236.651 347.94C237.161 322.93 227.058 300.29 210.553 284.17C206.472 280.18 205.392 274.05 208.042 268.99L208.183 268.73C210.673 263.98 216.215 261.72 221.326 263.37C224.777 264.48 228.388 265.23 232.109 265.56C252.325 267.35 270.331 257.12 279.763 241.21C286.005 230.7 297.178 224.1 309.412 224.1C319.035 224.1 327.357 230.54 330.058 239.77C340.451 275.15 373.161 300.99 411.912 300.99C459.716 300.99 498.327 261.69 497.197 213.65C496.106 167.5 457.765 130.26 411.592 130.43L411.632 130.4Z" stroke="url(#paint1_linear_642_7583)" stroke-width="6.3" stroke-miterlimit="10"/>
<g filter="url(#filter1_d_642_7583)">
<path d="M411.632 130.4C373.001 130.54 340.431 156.36 330.078 191.67C327.377 200.88 319.045 207.28 309.442 207.28H309.382C297.188 207.28 286.015 200.73 279.783 190.25C271.531 176.36 256.747 166.72 239.762 165.71C230.659 165.17 222.037 167.06 214.494 170.8C205.932 175.05 195.579 173.17 188.817 166.42L188.407 166.01C180.024 157.63 177.384 145.23 181.215 134.01C184.276 125.05 185.716 115.33 185.206 105.22C183.255 67.0601 149.505 33.9201 111.304 32.6001C66.8613 31.0701 30.5007 67.3501 31.9211 111.76C33.1615 150.64 67.0514 184.58 105.933 185.89C121.497 186.42 136.071 182.3 148.365 174.83C157.838 169.07 169.871 169.74 178.394 176.82L178.994 177.32C186.796 183.81 190.327 194.16 187.967 204.03C186.826 208.8 186.366 213.83 186.706 219.02C187.406 229.85 191.618 239.8 198.22 247.71C201.581 251.73 201.591 257.58 198.29 261.65L197.82 262.23C194.238 266.65 188.187 268.11 182.925 265.95C172.402 261.62 160.839 259.3 148.705 259.48C101.301 260.16 62.9302 299.4 63.2703 346.79C63.6204 394.91 103.202 433.71 151.626 432.8C197.92 431.94 235.711 394.22 236.651 347.94C237.161 322.93 227.058 300.29 210.553 284.17C206.472 280.18 205.392 274.05 208.043 268.99L208.183 268.73C210.673 263.98 216.215 261.72 221.326 263.37C224.777 264.48 228.388 265.23 232.11 265.56C252.325 267.35 270.331 257.12 279.763 241.21C286.005 230.7 297.179 224.1 309.412 224.1C319.035 224.1 327.357 230.54 330.058 239.77C340.451 275.15 373.161 300.99 411.912 300.99C459.716 300.99 498.327 261.69 497.197 213.65C496.107 167.5 457.765 130.26 411.592 130.43L411.632 130.4Z" fill="url(#paint2_linear_642_7583)"/>
</g>
<g filter="url(#filter2_d_642_7583)">
<path d="M221.976 409.72C204.381 429.61 178.654 442.15 150.005 442.15C96.9598 442.15 53.9473 399.16 53.9473 346.12C53.9473 335.97 55.5177 326.19 58.4386 317" stroke="url(#paint3_linear_642_7583)" stroke-width="1.05" stroke-miterlimit="10" stroke-linecap="round"/>
</g>
<path d="M58.3583 320.03C60.0267 320.03 61.3792 318.678 61.3792 317.01C61.3792 315.342 60.0267 313.99 58.3583 313.99C56.6899 313.99 55.3374 315.342 55.3374 317.01C55.3374 318.678 56.6899 320.03 58.3583 320.03Z" fill="url(#paint4_linear_642_7583)"/>
<g filter="url(#filter3_d_642_7583)">
<path d="M47.3054 178.8C28.0298 161.81 15.8662 136.94 15.8662 109.24C15.8662 58.04 57.3783 16.54 108.593 16.54" stroke="url(#paint5_linear_642_7583)" stroke-width="1.05" stroke-miterlimit="10" stroke-linecap="round"/>
</g>
<g filter="url(#filter4_d_642_7583)">
<path d="M201.33 109.24C201.33 123.72 198.009 137.42 192.097 149.62" stroke="url(#paint6_linear_642_7583)" stroke-width="1.05" stroke-miterlimit="10" stroke-linecap="round"/>
</g>
<g filter="url(#filter5_d_642_7583)">
<path d="M162.049 185C146.944 195.67 128.499 201.94 108.603 201.94C105.522 201.94 102.471 201.79 99.4604 201.5" stroke="url(#paint7_linear_642_7583)" stroke-width="1.05" stroke-miterlimit="10" stroke-linecap="round"/>
</g>
<path d="M108.603 19.56C110.271 19.56 111.624 18.2079 111.624 16.54C111.624 14.8721 110.271 13.52 108.603 13.52C106.935 13.52 105.582 14.8721 105.582 16.54C105.582 18.2079 106.935 19.56 108.603 19.56Z" fill="url(#paint8_linear_642_7583)"/>
<path d="M204.351 109.24C204.351 110.91 203.001 112.26 201.33 112.26C199.66 112.26 198.31 110.91 198.31 109.24C198.31 107.57 199.66 106.22 201.33 106.22C203.001 106.22 204.351 107.57 204.351 109.24Z" fill="url(#paint9_linear_642_7583)"/>
<g filter="url(#filter6_d_642_7583)">
<path d="M341.391 304.12C321.285 288.07 306.781 265.3 301.259 239.22" stroke="url(#paint10_linear_642_7583)" stroke-width="1.05" stroke-miterlimit="10" stroke-linecap="round"/>
</g>
<g filter="url(#filter7_d_642_7583)">
<path d="M392.066 104.31C398.518 103.17 405.16 102.57 411.952 102.57C474.44 102.57 525.105 153.21 525.105 215.69C525.105 278.17 474.45 328.81 411.952 328.81" stroke="url(#paint11_linear_642_7583)" stroke-width="1.05" stroke-miterlimit="10" stroke-linecap="round"/>
</g>
<path d="M414.952 328.8C414.952 330.47 413.602 331.82 411.932 331.82C410.261 331.82 408.911 330.47 408.911 328.8C408.911 327.13 410.261 325.78 411.932 325.78C413.602 325.78 414.952 327.13 414.952 328.8Z" fill="url(#paint12_linear_642_7583)"/>
<defs>
<filter id="filter0_d_642_7583" x="292.738" y="96.5095" width="238.422" height="238.36" filterUnits="userSpaceOnUse" color-interpolation-filters="sRGB">
<feFlood flood-opacity="0" result="BackgroundImageFix"/>
<feColorMatrix in="SourceAlpha" type="matrix" values="0 0 0 0 0 0 0 0 0 0 0 0 0 0 0 0 0 0 127 0" result="hardAlpha"/>
<feOffset/>
<feGaussianBlur stdDeviation="6.97"/>
<feColorMatrix type="matrix" values="0 0 0 0 0.698039 0 0 0 0 0.698039 0 0 0 0 0.698039 0 0 0 0.75 0"/>
<feBlend mode="normal" in2="BackgroundImageFix" result="effect1_dropShadow_642_7583"/>
<feBlend mode="normal" in="SourceGraphic" in2="effect1_dropShadow_642_7583" result="shape"/>
</filter>
<filter id="filter1_d_642_7583" x="31.8809" y="32.5535" width="486.34" height="421.262" filterUnits="userSpaceOnUse" color-interpolation-filters="sRGB">
<feFlood flood-opacity="0" result="BackgroundImageFix"/>
<feColorMatrix in="SourceAlpha" type="matrix" values="0 0 0 0 0 0 0 0 0 0 0 0 0 0 0 0 0 0 127 0" result="hardAlpha"/>
<feOffset dx="10.5" dy="10.5"/>
<feGaussianBlur stdDeviation="5.25"/>
<feColorMatrix type="matrix" values="0 0 0 0 0.682353 0 0 0 0 0.807843 0 0 0 0 0.807843 0 0 0 0.75 0"/>
<feBlend mode="normal" in2="BackgroundImageFix" result="effect1_dropShadow_642_7583"/>
<feBlend mode="normal" in="SourceGraphic" in2="effect1_dropShadow_642_7583" result="shape"/>
</filter>
<filter id="filter2_d_642_7583" x="40.7024" y="303.755" width="194.519" height="151.64" filterUnits="userSpaceOnUse" color-interpolation-filters="sRGB">
<feFlood flood-opacity="0" result="BackgroundImageFix"/>
<feColorMatrix in="SourceAlpha" type="matrix" values="0 0 0 0 0 0 0 0 0 0 0 0 0 0 0 0 0 0 127 0" result="hardAlpha"/>
<feOffset/>
<feGaussianBlur stdDeviation="6.36"/>
<feColorMatrix type="matrix" values="0 0 0 0 0.698039 0 0 0 0 0.698039 0 0 0 0 0.698039 0 0 0 0.75 0"/>
<feBlend mode="normal" in2="BackgroundImageFix" result="effect1_dropShadow_642_7583"/>
<feBlend mode="normal" in="SourceGraphic" in2="effect1_dropShadow_642_7583" result="shape"/>
</filter>
<filter id="filter3_d_642_7583" x="0.281308" y="0.955136" width="123.897" height="193.43" filterUnits="userSpaceOnUse" color-interpolation-filters="sRGB">
<feFlood flood-opacity="0" result="BackgroundImageFix"/>
<feColorMatrix in="SourceAlpha" type="matrix" values="0 0 0 0 0 0 0 0 0 0 0 0 0 0 0 0 0 0 127 0" result="hardAlpha"/>
<feOffset/>
<feGaussianBlur stdDeviation="7.53"/>
<feColorMatrix type="matrix" values="0 0 0 0 0.698039 0 0 0 0 0.698039 0 0 0 0 0.698039 0 0 0 0.75 0"/>
<feBlend mode="normal" in2="BackgroundImageFix" result="effect1_dropShadow_642_7583"/>
<feBlend mode="normal" in="SourceGraphic" in2="effect1_dropShadow_642_7583" result="shape"/>
</filter>
<filter id="filter4_d_642_7583" x="176.512" y="93.6551" width="40.4027" height="71.5499" filterUnits="userSpaceOnUse" color-interpolation-filters="sRGB">
<feFlood flood-opacity="0" result="BackgroundImageFix"/>
<feColorMatrix in="SourceAlpha" type="matrix" values="0 0 0 0 0 0 0 0 0 0 0 0 0 0 0 0 0 0 127 0" result="hardAlpha"/>
<feOffset/>
<feGaussianBlur stdDeviation="7.53"/>
<feColorMatrix type="matrix" values="0 0 0 0 0.698039 0 0 0 0 0.698039 0 0 0 0 0.698039 0 0 0 0.75 0"/>
<feBlend mode="normal" in2="BackgroundImageFix" result="effect1_dropShadow_642_7583"/>
<feBlend mode="normal" in="SourceGraphic" in2="effect1_dropShadow_642_7583" result="shape"/>
</filter>
<filter id="filter5_d_642_7583" x="83.8755" y="169.415" width="93.7582" height="48.1102" filterUnits="userSpaceOnUse" color-interpolation-filters="sRGB">
<feFlood flood-opacity="0" result="BackgroundImageFix"/>
<feColorMatrix in="SourceAlpha" type="matrix" values="0 0 0 0 0 0 0 0 0 0 0 0 0 0 0 0 0 0 127 0" result="hardAlpha"/>
<feOffset/>
<feGaussianBlur stdDeviation="7.53"/>
<feColorMatrix type="matrix" values="0 0 0 0 0.698039 0 0 0 0 0.698039 0 0 0 0 0.698039 0 0 0 0.75 0"/>
<feBlend mode="normal" in2="BackgroundImageFix" result="effect1_dropShadow_642_7583"/>
<feBlend mode="normal" in="SourceGraphic" in2="effect1_dropShadow_642_7583" result="shape"/>
</filter>
<filter id="filter6_d_642_7583" x="285.754" y="223.715" width="71.1416" height="95.9102" filterUnits="userSpaceOnUse" color-interpolation-filters="sRGB">
<feFlood flood-opacity="0" result="BackgroundImageFix"/>
<feColorMatrix in="SourceAlpha" type="matrix" values="0 0 0 0 0 0 0 0 0 0 0 0 0 0 0 0 0 0 127 0" result="hardAlpha"/>
<feOffset/>
<feGaussianBlur stdDeviation="7.49"/>
<feColorMatrix type="matrix" values="0 0 0 0 0.698039 0 0 0 0 0.698039 0 0 0 0 0.698039 0 0 0 0.75 0"/>
<feBlend mode="normal" in2="BackgroundImageFix" result="effect1_dropShadow_642_7583"/>
<feBlend mode="normal" in="SourceGraphic" in2="effect1_dropShadow_642_7583" result="shape"/>
</filter>
<filter id="filter7_d_642_7583" x="376.561" y="87.0652" width="164.049" height="257.25" filterUnits="userSpaceOnUse" color-interpolation-filters="sRGB">
<feFlood flood-opacity="0" result="BackgroundImageFix"/>
<feColorMatrix in="SourceAlpha" type="matrix" values="0 0 0 0 0 0 0 0 0 0 0 0 0 0 0 0 0 0 127 0" result="hardAlpha"/>
<feOffset/>
<feGaussianBlur stdDeviation="7.49"/>
<feColorMatrix type="matrix" values="0 0 0 0 0.698039 0 0 0 0 0.698039 0 0 0 0 0.698039 0 0 0 0.75 0"/>
<feBlend mode="normal" in2="BackgroundImageFix" result="effect1_dropShadow_642_7583"/>
<feBlend mode="normal" in="SourceGraphic" in2="effect1_dropShadow_642_7583" result="shape"/>
</filter>
<linearGradient id="paint0_linear_642_7583" x1="371.79" y1="314.48" x2="466.958" y2="86.4959" gradientUnits="userSpaceOnUse">
<stop stop-color="#2BAAE2"/>
<stop offset="1" stop-color="#253E90"/>
</linearGradient>
<linearGradient id="paint1_linear_642_7583" x1="51.9169" y1="52.9902" x2="375.767" y2="376.935" gradientUnits="userSpaceOnUse">
<stop stop-color="white"/>
<stop offset="1" stop-color="#E6E7E8"/>
</linearGradient>
<linearGradient id="paint2_linear_642_7583" x1="50.9267" y1="52.0002" x2="496.647" y2="497.85" gradientUnits="userSpaceOnUse">
<stop stop-color="white"/>
<stop offset="1" stop-color="#E6E7E8"/>
</linearGradient>
<linearGradient id="paint3_linear_642_7583" x1="53.4271" y1="379.58" x2="222.506" y2="379.58" gradientUnits="userSpaceOnUse">
<stop stop-color="#808285"/>
<stop offset="1" stop-color="#58595B"/>
</linearGradient>
<linearGradient id="paint4_linear_642_7583" x1="55.3374" y1="317.01" x2="61.3792" y2="317.01" gradientUnits="userSpaceOnUse">
<stop stop-color="#808285"/>
<stop offset="1" stop-color="#58595B"/>
</linearGradient>
<linearGradient id="paint5_linear_642_7583" x1="15.3461" y1="97.67" x2="109.133" y2="97.67" gradientUnits="userSpaceOnUse">
<stop stop-color="#808285"/>
<stop offset="1" stop-color="#58595B"/>
</linearGradient>
<linearGradient id="paint6_linear_642_7583" x1="191.567" y1="129.43" x2="201.86" y2="129.43" gradientUnits="userSpaceOnUse">
<stop stop-color="#808285"/>
<stop offset="1" stop-color="#58595B"/>
</linearGradient>
<linearGradient id="paint7_linear_642_7583" x1="98.9403" y1="193.47" x2="162.579" y2="193.47" gradientUnits="userSpaceOnUse">
<stop stop-color="#808285"/>
<stop offset="1" stop-color="#58595B"/>
</linearGradient>
<linearGradient id="paint8_linear_642_7583" x1="105.582" y1="16.54" x2="111.624" y2="16.54" gradientUnits="userSpaceOnUse">
<stop stop-color="#808285"/>
<stop offset="1" stop-color="#58595B"/>
</linearGradient>
<linearGradient id="paint9_linear_642_7583" x1="198.31" y1="109.24" x2="204.351" y2="109.24" gradientUnits="userSpaceOnUse">
<stop stop-color="#808285"/>
<stop offset="1" stop-color="#58595B"/>
</linearGradient>
<linearGradient id="paint10_linear_642_7583" x1="300.729" y1="271.67" x2="341.911" y2="271.67" gradientUnits="userSpaceOnUse">
<stop stop-color="#808285"/>
<stop offset="1" stop-color="#58595B"/>
</linearGradient>
<linearGradient id="paint11_linear_642_7583" x1="391.546" y1="215.69" x2="525.625" y2="215.69" gradientUnits="userSpaceOnUse">
<stop stop-color="#808285"/>
<stop offset="1" stop-color="#58595B"/>
</linearGradient>
<linearGradient id="paint12_linear_642_7583" x1="408.911" y1="328.8" x2="414.952" y2="328.8" gradientUnits="userSpaceOnUse">
<stop stop-color="#808285"/>
<stop offset="1" stop-color="#58595B"/>
</linearGradient>
</defs>
</svg>
