<svg width="534" height="423" viewBox="0 0 534 423" fill="none" xmlns="http://www.w3.org/2000/svg">
<g filter="url(#filter0_d_950_7763)">
<path d="M521.121 306.83C522.075 300.718 517.893 294.99 511.782 294.036C505.67 293.083 499.942 297.264 498.989 303.376C498.035 309.487 502.216 315.215 508.328 316.169C514.439 317.122 520.167 312.941 521.121 306.83Z" fill="url(#paint0_linear_950_7763)"/>
</g>
<path d="M229.634 52.49C138.944 52.49 65.4343 126 65.4343 216.69C65.4343 307.38 138.944 380.89 229.634 380.89C320.324 380.89 393.834 307.38 393.834 216.69C393.834 126 320.324 52.49 229.634 52.49ZM229.634 362.35C149.194 362.35 83.9743 297.14 83.9743 216.69C83.9743 136.24 149.194 71.03 229.634 71.03C310.074 71.03 375.294 136.24 375.294 216.69C375.294 297.14 310.084 362.35 229.634 362.35Z" fill="url(#paint1_linear_950_7763)"/>
<path d="M229.634 399.72C330.719 399.72 412.664 317.775 412.664 216.69C412.664 115.605 330.719 33.66 229.634 33.66C128.55 33.66 46.6042 115.605 46.6042 216.69C46.6042 317.775 128.55 399.72 229.634 399.72Z" stroke="url(#paint2_linear_950_7763)" stroke-width="3.15" stroke-miterlimit="10" stroke-linecap="round"/>
<g filter="url(#filter1_d_950_7763)">
<path d="M332.634 319.692C389.517 262.808 389.517 170.581 332.634 113.697C275.75 56.8137 183.523 56.8136 126.639 113.697C69.7555 170.581 69.7555 262.808 126.639 319.692C183.523 376.576 275.75 376.576 332.634 319.692Z" fill="url(#paint3_linear_950_7763)"/>
</g>
<path d="M277.867 224.311C282.087 197.67 263.91 172.652 237.269 168.432C210.627 164.213 185.609 182.389 181.39 209.031C177.17 235.672 195.347 260.69 221.988 264.91C248.63 269.129 273.648 250.953 277.867 224.311Z" fill="url(#paint4_linear_950_7763)"/>
<g filter="url(#filter2_d_950_7763)">
<path d="M56.4285 243.968C59.6598 230.278 51.1809 216.56 37.4903 213.329C23.7998 210.097 10.082 218.576 6.85071 232.267C3.61945 245.957 12.0984 259.675 25.7889 262.906C39.4794 266.138 53.1973 257.659 56.4285 243.968Z" fill="url(#paint5_linear_950_7763)"/>
</g>
<g filter="url(#filter3_d_950_7763)">
<path d="M346.424 408.55C356.818 408.55 365.244 400.124 365.244 389.73C365.244 379.336 356.818 370.91 346.424 370.91C336.03 370.91 327.604 379.336 327.604 389.73C327.604 400.124 336.03 408.55 346.424 408.55Z" fill="url(#paint6_linear_950_7763)"/>
</g>
<g filter="url(#filter4_d_950_7763)">
<path d="M238.744 61.32C254.02 61.32 266.404 48.9362 266.404 33.66C266.404 18.3838 254.02 6 238.744 6C223.468 6 211.084 18.3838 211.084 33.66C211.084 48.9362 223.468 61.32 238.744 61.32Z" fill="url(#paint7_linear_950_7763)"/>
</g>
<path d="M225.127 230.121C221.598 229.575 214.22 228.07 209.569 225.957C210.021 226.02 210.478 226.056 210.951 226.056C211.982 226.056 213.051 225.899 214.119 225.59C216.575 224.882 225.462 220.188 234.876 215.222C245.906 209.402 259.636 202.16 261.9 202.055C262.867 202.013 263.628 201.919 264.191 201.84C263.888 202.17 263.505 202.595 263.054 203.135C260.406 204.656 254.464 209.056 247.591 214.147C239.793 219.921 230.964 226.46 225.127 230.121Z" fill="url(#paint8_linear_950_7763)"/>
<path d="M259.12 204.105L252.141 200.996L266.684 200.02L258.041 211.526L259.12 204.105Z" fill="#253E90"/>
<path d="M237.21 235.857C234.26 235.857 231.267 235.218 228.514 234.001C230.119 232.307 232.766 230.792 235.551 229.192C240.548 226.324 245.714 223.361 246.033 218.72C246.235 215.768 245.443 213.256 243.737 211.452C242.18 209.805 239.931 208.898 237.406 208.898C236.173 208.898 234.887 209.108 233.584 209.528C231.177 210.388 227.498 212.989 223.602 215.742C219.164 218.878 214.576 222.124 212.296 222.428C212.057 222.459 211.817 222.475 211.584 222.475C209.601 222.475 207.905 221.295 207.262 219.465C206.677 217.792 206.986 215.285 209.606 213.256C214.762 209.26 229.959 199.936 235.684 199.538C236.173 199.501 236.673 199.485 237.157 199.485C244.8 199.485 251.376 203.822 254.31 210.807C257.212 217.719 255.649 225.333 250.233 230.687C246.852 234.022 242.228 235.863 237.21 235.863V235.857Z" fill="#253E90"/>
<g filter="url(#filter5_d_950_7763)">
<path d="M210.701 235.564C209.085 235.564 207.501 235.359 205.992 234.955L205.97 234.945H205.933C204.046 234.379 202.249 233.529 200.607 232.407C200.554 232.365 200.522 232.344 200.506 232.333C193.553 227.504 189.641 217.561 195.626 207.907C198.752 202.868 205.051 199.48 211.307 199.48C214.427 199.48 217.308 200.33 219.679 201.939C218.563 202.658 217.085 203.481 215.427 204.404C209.999 207.419 203.243 211.174 202.404 215.175C201.739 218.337 202.404 221.394 204.243 223.56C204.45 223.807 204.647 224.058 204.849 224.315L205.162 224.719C208.139 228.453 219.716 230.76 223.772 231.468C223.395 231.699 223.038 231.914 222.693 232.118C218.616 234.405 214.571 235.569 210.696 235.569L210.701 235.564Z" fill="url(#paint9_linear_950_7763)"/>
</g>
<defs>
<filter id="filter0_d_950_7763" x="494.653" y="289.701" width="39.2033" height="39.2033" filterUnits="userSpaceOnUse" color-interpolation-filters="sRGB">
<feFlood flood-opacity="0" result="BackgroundImageFix"/>
<feColorMatrix in="SourceAlpha" type="matrix" values="0 0 0 0 0 0 0 0 0 0 0 0 0 0 0 0 0 0 127 0" result="hardAlpha"/>
<feOffset dx="4.2" dy="4.2"/>
<feGaussianBlur stdDeviation="4.2"/>
<feColorMatrix type="matrix" values="0 0 0 0 0.682353 0 0 0 0 0.807843 0 0 0 0 0.807843 0 0 0 0.75 0"/>
<feBlend mode="normal" in2="BackgroundImageFix" result="effect1_dropShadow_950_7763"/>
<feBlend mode="normal" in="SourceGraphic" in2="effect1_dropShadow_950_7763" result="shape"/>
</filter>
<filter id="filter1_d_950_7763" x="73.4766" y="60.5347" width="312.32" height="312.32" filterUnits="userSpaceOnUse" color-interpolation-filters="sRGB">
<feFlood flood-opacity="0" result="BackgroundImageFix"/>
<feColorMatrix in="SourceAlpha" type="matrix" values="0 0 0 0 0 0 0 0 0 0 0 0 0 0 0 0 0 0 127 0" result="hardAlpha"/>
<feOffset/>
<feGaussianBlur stdDeviation="5.25"/>
<feColorMatrix type="matrix" values="0 0 0 0 0.698039 0 0 0 0 0.698039 0 0 0 0 0.698039 0 0 0 0.75 0"/>
<feBlend mode="normal" in2="BackgroundImageFix" result="effect1_dropShadow_950_7763"/>
<feBlend mode="normal" in="SourceGraphic" in2="effect1_dropShadow_950_7763" result="shape"/>
</filter>
<filter id="filter2_d_950_7763" x="0.913818" y="207.392" width="71.9517" height="71.9517" filterUnits="userSpaceOnUse" color-interpolation-filters="sRGB">
<feFlood flood-opacity="0" result="BackgroundImageFix"/>
<feColorMatrix in="SourceAlpha" type="matrix" values="0 0 0 0 0 0 0 0 0 0 0 0 0 0 0 0 0 0 127 0" result="hardAlpha"/>
<feOffset dx="5.25" dy="5.25"/>
<feGaussianBlur stdDeviation="5.25"/>
<feColorMatrix type="matrix" values="0 0 0 0 0.682353 0 0 0 0 0.807843 0 0 0 0 0.807843 0 0 0 0.75 0"/>
<feBlend mode="normal" in2="BackgroundImageFix" result="effect1_dropShadow_950_7763"/>
<feBlend mode="normal" in="SourceGraphic" in2="effect1_dropShadow_950_7763" result="shape"/>
</filter>
<filter id="filter3_d_950_7763" x="323.724" y="367.03" width="53.1599" height="53.1601" filterUnits="userSpaceOnUse" color-interpolation-filters="sRGB">
<feFlood flood-opacity="0" result="BackgroundImageFix"/>
<feColorMatrix in="SourceAlpha" type="matrix" values="0 0 0 0 0 0 0 0 0 0 0 0 0 0 0 0 0 0 127 0" result="hardAlpha"/>
<feOffset dx="3.88" dy="3.88"/>
<feGaussianBlur stdDeviation="3.88"/>
<feColorMatrix type="matrix" values="0 0 0 0 0.682353 0 0 0 0 0.807843 0 0 0 0 0.807843 0 0 0 0.75 0"/>
<feBlend mode="normal" in2="BackgroundImageFix" result="effect1_dropShadow_950_7763"/>
<feBlend mode="normal" in="SourceGraphic" in2="effect1_dropShadow_950_7763" result="shape"/>
</filter>
<filter id="filter4_d_950_7763" x="205.384" y="0.3" width="78.1201" height="78.1201" filterUnits="userSpaceOnUse" color-interpolation-filters="sRGB">
<feFlood flood-opacity="0" result="BackgroundImageFix"/>
<feColorMatrix in="SourceAlpha" type="matrix" values="0 0 0 0 0 0 0 0 0 0 0 0 0 0 0 0 0 0 127 0" result="hardAlpha"/>
<feOffset dx="5.7" dy="5.7"/>
<feGaussianBlur stdDeviation="5.7"/>
<feColorMatrix type="matrix" values="0 0 0 0 0.682353 0 0 0 0 0.807843 0 0 0 0 0.807843 0 0 0 0.75 0"/>
<feBlend mode="normal" in2="BackgroundImageFix" result="effect1_dropShadow_950_7763"/>
<feBlend mode="normal" in="SourceGraphic" in2="effect1_dropShadow_950_7763" result="shape"/>
</filter>
<filter id="filter5_d_950_7763" x="186.944" y="191.82" width="46.4079" height="51.4089" filterUnits="userSpaceOnUse" color-interpolation-filters="sRGB">
<feFlood flood-opacity="0" result="BackgroundImageFix"/>
<feColorMatrix in="SourceAlpha" type="matrix" values="0 0 0 0 0 0 0 0 0 0 0 0 0 0 0 0 0 0 127 0" result="hardAlpha"/>
<feOffset dx="1.92"/>
<feGaussianBlur stdDeviation="3.83"/>
<feColorMatrix type="matrix" values="0 0 0 0 0.137255 0 0 0 0 0.121569 0 0 0 0 0.12549 0 0 0 0.15 0"/>
<feBlend mode="normal" in2="BackgroundImageFix" result="effect1_dropShadow_950_7763"/>
<feBlend mode="normal" in="SourceGraphic" in2="effect1_dropShadow_950_7763" result="shape"/>
</filter>
<linearGradient id="paint0_linear_950_7763" x1="501.992" y1="297.058" x2="524.752" y2="319.818" gradientUnits="userSpaceOnUse">
<stop stop-color="white"/>
<stop offset="1" stop-color="#E6E7E8"/>
</linearGradient>
<linearGradient id="paint1_linear_950_7763" x1="73.6843" y1="321.48" x2="298.366" y2="24.3556" gradientUnits="userSpaceOnUse">
<stop stop-color="#2BAAE2"/>
<stop offset="1" stop-color="#253E90"/>
</linearGradient>
<linearGradient id="paint2_linear_950_7763" x1="45.0342" y1="216.69" x2="414.244" y2="216.69" gradientUnits="userSpaceOnUse">
<stop stop-color="#BCBEC0"/>
<stop offset="1" stop-color="#BCBEC0"/>
</linearGradient>
<linearGradient id="paint3_linear_950_7763" x1="124.785" y1="111.839" x2="420.875" y2="407.939" gradientUnits="userSpaceOnUse">
<stop stop-color="white"/>
<stop offset="1" stop-color="#F1F2F2"/>
</linearGradient>
<linearGradient id="paint4_linear_950_7763" x1="194.45" y1="181.528" x2="293.74" y2="280.808" gradientUnits="userSpaceOnUse">
<stop stop-color="white"/>
<stop offset="1" stop-color="#F1F2F2"/>
</linearGradient>
<linearGradient id="paint5_linear_950_7763" x1="13.2968" y1="219.797" x2="65.0768" y2="271.567" gradientUnits="userSpaceOnUse">
<stop stop-color="white"/>
<stop offset="1" stop-color="#E6E7E8"/>
</linearGradient>
<linearGradient id="paint6_linear_950_7763" x1="330.694" y1="374.01" x2="367.795" y2="411.11" gradientUnits="userSpaceOnUse">
<stop stop-color="white"/>
<stop offset="1" stop-color="#E6E7E8"/>
</linearGradient>
<linearGradient id="paint7_linear_950_7763" x1="218.834" y1="13.75" x2="275.054" y2="69.97" gradientUnits="userSpaceOnUse">
<stop stop-color="white"/>
<stop offset="1" stop-color="#E6E7E8"/>
</linearGradient>
<linearGradient id="paint8_linear_950_7763" x1="257.339" y1="204.766" x2="214.682" y2="230.275" gradientUnits="userSpaceOnUse">
<stop offset="0.06" stop-color="#2BAAE2"/>
<stop offset="1" stop-color="#3C59A8"/>
</linearGradient>
<linearGradient id="paint9_linear_950_7763" x1="206.544" y1="206.486" x2="213.235" y2="282.047" gradientUnits="userSpaceOnUse">
<stop offset="0.06" stop-color="#2BAAE2"/>
<stop offset="1" stop-color="#3C59A8"/>
</linearGradient>
</defs>
</svg>
