<svg width="61" height="61" viewBox="0 0 61 61" fill="none" xmlns="http://www.w3.org/2000/svg">
<path d="M17.05 27.475C20.65 34.55 26.45 40.35 33.525 43.95L39.025 38.45C39.725 37.75 40.7 37.55 41.575 37.825C44.375 38.75 47.375 39.25 50.5 39.25C51.163 39.25 51.7989 39.5134 52.2678 39.9822C52.7366 40.4511 53 41.087 53 41.75V50.5C53 51.163 52.7366 51.7989 52.2678 52.2678C51.7989 52.7366 51.163 53 50.5 53C39.2283 53 28.4183 48.5223 20.448 40.552C12.4777 32.5817 8 21.7717 8 10.5C8 9.83696 8.26339 9.20107 8.73223 8.73223C9.20107 8.26339 9.83696 8 10.5 8H19.25C19.913 8 20.5489 8.26339 21.0178 8.73223C21.4866 9.20107 21.75 9.83696 21.75 10.5C21.75 13.625 22.25 16.625 23.175 19.425C23.45 20.3 23.25 21.275 22.55 21.975L17.05 27.475Z" fill="#253E90"/>
</svg>
