<svg width="104" height="104" viewBox="0 0 104 104" fill="none" xmlns="http://www.w3.org/2000/svg">
<g clip-path="url(#clip0_1132_71008)">
<path d="M22.0216 30.2328C21.8606 30.2328 21.7029 30.188 21.566 30.1033C21.429 30.0187 21.3184 29.8977 21.2464 29.7537C21.1744 29.6097 21.144 29.4486 21.1584 29.2883C21.1729 29.128 21.2317 28.9749 21.3283 28.8461L22.7305 26.9655L20.0508 28.5116C19.8741 28.6129 19.6673 28.6487 19.4668 28.6128C19.2663 28.5768 19.0849 28.4714 18.9544 28.3151C18.8239 28.1587 18.7526 27.9613 18.7531 27.7576C18.7536 27.5539 18.8258 27.3569 18.9571 27.2012L22.0632 23.5369L19.5516 24.986C19.3535 25.0896 19.1231 25.1127 18.9084 25.0504C18.6937 24.9881 18.5114 24.8453 18.3995 24.6518C18.2877 24.4582 18.2549 24.229 18.3081 24.0119C18.3613 23.7947 18.4963 23.6066 18.6849 23.4867L25.5143 19.5433C25.691 19.4409 25.8982 19.4043 26.0993 19.4398C26.3005 19.4753 26.4826 19.5807 26.6136 19.7374C26.7446 19.8941 26.8161 20.092 26.8153 20.2963C26.8146 20.5005 26.7418 20.6979 26.6097 20.8537L23.5036 24.5197L25.5143 23.3619C25.6868 23.2636 25.8879 23.2276 26.0839 23.2598C26.2798 23.2921 26.4588 23.3907 26.5907 23.5391C26.7227 23.6875 26.7997 23.8767 26.8088 24.0751C26.818 24.2735 26.7587 24.469 26.6409 24.6289L25.2369 26.52C25.4374 26.419 25.6693 26.3997 25.8838 26.4663C26.0982 26.5329 26.2784 26.6801 26.3865 26.8769C26.4945 27.0737 26.522 27.3047 26.4631 27.5214C26.4042 27.7381 26.2635 27.9234 26.0707 28.0384L22.4549 30.1184C22.3234 30.1947 22.1737 30.2342 22.0216 30.2328Z" fill="#5FC77D"/>
<path d="M7.38099 73.443C7.22004 73.443 7.06227 73.3982 6.92536 73.3136C6.78845 73.229 6.6778 73.1079 6.60582 72.9639C6.53384 72.82 6.50337 72.6588 6.51783 72.4985C6.53228 72.3382 6.59109 72.1851 6.68766 72.0563L8.16966 70.0803L5.82619 71.4323C5.64413 71.5335 5.43172 71.5658 5.22784 71.5231C5.02396 71.4805 4.84225 71.3659 4.71597 71.2003C4.58969 71.0346 4.52729 70.829 4.54018 70.6212C4.55308 70.4133 4.64041 70.217 4.78619 70.0682L5.43792 69.4182L5.13806 69.5915C4.96068 69.6926 4.75333 69.7278 4.55254 69.6909C4.35175 69.6541 4.17042 69.5475 4.04051 69.3901C3.9106 69.2326 3.84044 69.0343 3.84241 68.8302C3.84437 68.626 3.91834 68.4292 4.05126 68.2742L5.92499 66.1214L4.30259 67.0591C4.12095 67.1652 3.90693 67.2016 3.70044 67.1615C3.49395 67.1214 3.30909 67.0076 3.18032 66.8413C3.05155 66.675 2.98766 66.4675 3.00056 66.2575C3.01347 66.0476 3.10229 65.8495 3.25046 65.7002L4.41526 64.5164L3.72193 64.9168C3.54469 65.0189 3.33702 65.0551 3.13566 65.0189C2.93431 64.9827 2.75225 64.8765 2.6217 64.719C2.49116 64.5614 2.42055 64.3628 2.42237 64.1582C2.42419 63.9537 2.49833 63.7563 2.63166 63.6012L4.99766 60.8399L3.07192 61.9493C2.89069 62.0526 2.67828 62.0871 2.47369 62.0464C2.26909 62.0057 2.08603 61.8925 1.95812 61.7278C1.83021 61.563 1.76603 61.3576 1.77736 61.1493C1.78868 60.941 1.87476 60.7438 2.01979 60.5938L3.71326 58.8605L2.67326 59.4602C2.49516 59.5633 2.2862 59.5997 2.08375 59.5628C1.8813 59.5259 1.69858 59.4182 1.56828 59.2589C1.43799 59.0996 1.36861 58.8992 1.37258 58.6934C1.37654 58.4877 1.45359 58.2901 1.58992 58.136L4.45512 54.8946L2.34566 56.1079C2.16316 56.2119 1.94913 56.246 1.74338 56.2039C1.53762 56.1619 1.35413 56.0466 1.22701 55.8794C1.09989 55.7122 1.03779 55.5046 1.05225 55.2951C1.06672 55.0856 1.15677 54.8885 1.30566 54.7403L3.30592 52.773L2.23646 53.3901C2.05751 53.4931 1.84767 53.5288 1.64473 53.4908C1.44178 53.4528 1.25906 53.3436 1.12947 53.1829C0.999882 53.0222 0.931932 52.8204 0.937857 52.6141C0.943782 52.4077 1.02319 52.2102 1.16179 52.0572L4.93526 47.8971L2.34392 49.4C2.16302 49.5044 1.95048 49.54 1.74543 49.5002C1.54037 49.4604 1.35658 49.3478 1.2279 49.1833C1.09922 49.0187 1.0343 48.8133 1.04508 48.6047C1.05586 48.396 1.14163 48.1983 1.28659 48.048L5.43099 43.7579L2.77379 45.285C2.59065 45.3936 2.37394 45.431 2.165 45.39C1.95606 45.3491 1.76951 45.2326 1.64094 45.0629C1.51237 44.8932 1.45077 44.6821 1.46789 44.4698C1.48502 44.2576 1.57967 44.0591 1.73379 43.9122L6.35833 39.4506L3.60232 41.0418C3.4154 41.1495 3.19504 41.1836 2.98432 41.1374C2.7736 41.0913 2.58767 40.9682 2.46286 40.7923C2.33805 40.6163 2.28334 40.4002 2.30943 40.186C2.33552 39.9719 2.44052 39.7752 2.60392 39.6343L6.59059 36.1989L4.64926 37.3186C4.46009 37.428 4.23658 37.4619 4.02348 37.4136C3.81037 37.3652 3.62341 37.2381 3.50003 37.0577C3.37665 36.8774 3.32595 36.6571 3.3581 36.4409C3.39025 36.2248 3.50286 36.0287 3.67339 35.8921L7.58033 32.7721L5.98392 33.6925C5.79265 33.8029 5.56646 33.8361 5.35153 33.7853C5.1366 33.7346 4.94916 33.6037 4.82748 33.4194C4.7058 33.2351 4.65906 33.0113 4.69681 32.7937C4.73456 32.5761 4.85394 32.3812 5.03059 32.2486L13.7891 25.6914L8.25979 28.8842C8.07063 28.9936 7.84712 29.0275 7.63401 28.9792C7.42091 28.9308 7.23395 28.8037 7.11056 28.6233C6.98718 28.443 6.93649 28.2227 6.96863 28.0065C7.00078 27.7904 7.1134 27.5943 7.28393 27.4577L16.0754 20.4151L12.3314 22.5766C12.1453 22.6829 11.9264 22.7164 11.717 22.6707C11.5076 22.6251 11.3226 22.5035 11.1976 22.3294C11.0726 22.1553 11.0166 21.941 11.0403 21.7281C11.0641 21.5151 11.1658 21.3184 11.3261 21.1761L15.6906 17.3454L11.7507 19.6178C11.5691 19.7165 11.3582 19.747 11.1561 19.7039C10.9539 19.6608 10.7738 19.5468 10.6483 19.3826C10.5228 19.2184 10.4601 19.0147 10.4716 18.8084C10.483 18.602 10.5678 18.4065 10.7107 18.2571L12.7595 16.1893L9.59966 18.0127C9.43458 18.1084 9.24256 18.1468 9.05338 18.1222C8.86421 18.0976 8.68844 18.0112 8.55335 17.8765C8.41825 17.7418 8.33138 17.5663 8.30619 17.3772C8.28101 17.1881 8.31892 16.996 8.41406 16.8306L9.72446 14.5599L9.63779 14.6102C9.53915 14.6729 9.42884 14.715 9.31351 14.734C9.19817 14.753 9.08019 14.7484 8.96666 14.7206C8.85313 14.6928 8.74639 14.6423 8.65288 14.5722C8.55937 14.5021 8.48101 14.4137 8.42251 14.3125C8.36402 14.2113 8.3266 14.0994 8.3125 13.9833C8.29841 13.8673 8.30793 13.7496 8.3405 13.6373C8.37307 13.5251 8.428 13.4206 8.50201 13.3301C8.57601 13.2396 8.66755 13.1651 8.77112 13.1109L11.6502 11.4399C11.8151 11.3456 12.0064 11.3081 12.1947 11.3331C12.383 11.3582 12.5579 11.4444 12.6924 11.5785C12.827 11.7126 12.9137 11.8873 12.9393 12.0755C12.9649 12.2637 12.9279 12.4552 12.8341 12.6203L11.5237 14.9066L17.5279 11.4399C17.7097 11.3351 17.9234 11.2998 18.1292 11.3406C18.3351 11.3814 18.5192 11.4955 18.6473 11.6617C18.7754 11.8279 18.8388 12.035 18.8258 12.2444C18.8128 12.4539 18.7243 12.6515 18.5766 12.8006L16.5209 14.8633L22.4142 11.4607C22.6005 11.3525 22.8206 11.3175 23.0313 11.3627C23.242 11.4079 23.4284 11.53 23.554 11.7051C23.6795 11.8803 23.7353 12.096 23.7105 12.31C23.6856 12.5241 23.5819 12.7213 23.4195 12.863L19.0671 16.6919L25.0957 13.2131C25.2848 13.1058 25.5073 13.0734 25.7192 13.1225C25.931 13.1716 26.1167 13.2985 26.2393 13.4781C26.3619 13.6576 26.4126 13.8768 26.3812 14.0919C26.3498 14.3071 26.2386 14.5026 26.0698 14.6397L17.2731 21.6805L25.5151 16.9225C25.7063 16.8121 25.9323 16.7788 26.1471 16.8294C26.362 16.8799 26.5494 17.0106 26.6713 17.1946C26.7933 17.3789 26.8402 17.6029 26.8025 17.8207C26.7648 18.0386 26.6453 18.2337 26.4685 18.3663L17.0703 25.4019C17.2192 25.3906 17.3685 25.4195 17.5024 25.4857C17.6363 25.5519 17.7499 25.6529 17.8313 25.7781C17.9549 25.9585 18.0058 26.179 17.9736 26.3954C17.9415 26.6117 17.8287 26.8079 17.6579 26.9446L13.7458 30.0646C13.9344 29.9707 14.1507 29.9487 14.3543 30.0027C14.558 30.0567 14.735 30.183 14.8522 30.358C14.9695 30.5331 15.019 30.7448 14.9914 30.9537C14.9639 31.1625 14.8612 31.3542 14.7026 31.4929L10.7159 34.9249L11.5826 34.4257C11.7657 34.3171 11.9824 34.2797 12.1914 34.3207C12.4003 34.3616 12.5869 34.4781 12.7154 34.6478C12.844 34.8175 12.9056 35.0286 12.8885 35.2409C12.8714 35.4531 12.7767 35.6516 12.6226 35.7985L8.00499 40.2688L9.91166 39.1733C10.0925 39.0701 10.3045 39.0355 10.5088 39.0758C10.7131 39.1161 10.8961 39.2286 11.0242 39.3927C11.1524 39.5568 11.2172 39.7616 11.2067 39.9696C11.1962 40.1776 11.1112 40.3748 10.9673 40.5253L6.82113 44.8135L8.86472 43.6332C9.04348 43.5313 9.25264 43.4964 9.45479 43.5346C9.65694 43.5728 9.83891 43.6817 9.96814 43.8418C10.0974 44.0018 10.1654 44.2027 10.1602 44.4083C10.1549 44.614 10.0766 44.8111 9.93939 44.9644L6.16592 49.1244L8.32739 47.8764C8.50989 47.7724 8.72392 47.7383 8.92967 47.7804C9.13543 47.8224 9.31892 47.9377 9.44604 48.1049C9.57316 48.2721 9.63526 48.4797 9.6208 48.6892C9.60633 48.8987 9.51628 49.0958 9.36739 49.2439L7.37406 51.2061L8.19566 50.7329C8.37356 50.6309 8.58187 50.5953 8.78356 50.6324C8.98525 50.6695 9.16724 50.7769 9.29719 50.9355C9.42714 51.0942 9.49662 51.2938 9.49329 51.4988C9.48996 51.7039 9.41403 51.9011 9.27899 52.0554L6.41379 55.2933L8.29619 54.2082C8.47766 54.1022 8.69144 54.0658 8.89776 54.1057C9.10408 54.1456 9.28887 54.2591 9.41776 54.4251C9.54664 54.5911 9.61082 54.7982 9.59837 55.008C9.58592 55.2178 9.49767 55.4159 9.35006 55.5654L7.65659 57.2987L8.55099 56.7788C8.72803 56.6776 8.93508 56.6421 9.13572 56.6785C9.33636 56.7149 9.51773 56.8209 9.64795 56.9778C9.77816 57.1347 9.84888 57.3325 9.84765 57.5364C9.84643 57.7403 9.77335 57.9373 9.64126 58.0926L7.25966 60.866L9.05193 59.8346C9.23334 59.7313 9.44597 59.6968 9.65072 59.7377C9.85547 59.7786 10.0386 59.8921 10.1664 60.0572C10.2942 60.2223 10.358 60.428 10.3463 60.6365C10.3345 60.8449 10.2479 61.0421 10.1023 61.1918L8.94099 62.374L9.55459 62.0273C9.73216 61.9252 9.94015 61.8893 10.1417 61.9259C10.3432 61.9626 10.5252 62.0694 10.6554 62.2275C10.7857 62.3856 10.8557 62.5847 10.8532 62.7895C10.8506 62.9943 10.7756 63.1916 10.6414 63.3464L8.76766 65.4905L10.3034 64.603C10.4857 64.5005 10.6989 64.4674 10.9037 64.5097C11.1085 64.552 11.2911 64.667 11.4177 64.8334C11.5444 64.9998 11.6067 65.2064 11.593 65.4151C11.5794 65.6237 11.4907 65.8204 11.3434 65.9689L10.6917 66.6189L10.9586 66.4646C11.1314 66.3646 11.3334 66.3274 11.5304 66.3591C11.7275 66.3908 11.9076 66.4896 12.0403 66.6388C12.1729 66.788 12.25 66.9784 12.2585 67.1778C12.2671 67.3772 12.2065 67.5735 12.087 67.7334L10.605 69.7111L11.4717 69.2102C11.5703 69.1475 11.6806 69.1054 11.7959 69.0864C11.9113 69.0675 12.0293 69.072 12.1428 69.0998C12.2563 69.1276 12.3631 69.1781 12.4566 69.2482C12.5501 69.3184 12.6284 69.4067 12.6869 69.5079C12.7454 69.6091 12.7829 69.7211 12.7969 69.8371C12.811 69.9531 12.8015 70.0708 12.769 70.1831C12.7364 70.2953 12.6814 70.3998 12.6074 70.4903C12.5334 70.5808 12.4419 70.6554 12.3383 70.7095L7.81432 73.3199C7.68363 73.3993 7.53389 73.4418 7.38099 73.443Z" fill="#5FC77D"/>
<path d="M51.897 103.08C51.7187 103.08 51.5448 103.025 51.3989 102.922C51.253 102.82 51.1422 102.675 51.0818 102.507C51.0213 102.339 51.014 102.157 51.061 101.985C51.1079 101.813 51.2068 101.659 51.3441 101.546L52.9041 100.252L48.4928 102.8C48.3107 102.902 48.0983 102.934 47.8944 102.891C47.6906 102.849 47.5088 102.734 47.3826 102.568C47.2563 102.403 47.1939 102.197 47.2068 101.989C47.2197 101.781 47.307 101.585 47.4528 101.436L49.5484 99.3459L44.4142 102.31C44.2413 102.409 44.0396 102.445 43.8431 102.413C43.6465 102.38 43.4671 102.281 43.3351 102.132C43.2031 101.983 43.1264 101.793 43.1181 101.594C43.1097 101.395 43.1702 101.199 43.2893 101.039L45.4802 98.1291L39.8816 101.364C39.7138 101.461 39.5183 101.499 39.3264 101.472C39.1345 101.444 38.9571 101.354 38.8228 101.214C38.6885 101.074 38.6048 100.894 38.5853 100.701C38.5658 100.508 38.6114 100.314 38.715 100.15L40.698 97.0042L35.498 100.008C35.3325 100.104 35.1399 100.142 34.9504 100.117C34.7609 100.092 34.585 100.005 34.4501 99.8692C34.3152 99.7337 34.2289 99.5575 34.2046 99.3678C34.1803 99.1782 34.2194 98.9858 34.3158 98.8207L36.1792 95.6435L31.4714 98.3597C31.2899 98.4631 31.077 98.4975 30.8721 98.4564C30.6672 98.4153 30.484 98.3015 30.3563 98.1361C30.2287 97.9706 30.1651 97.7646 30.1773 97.556C30.1895 97.3474 30.2767 97.1502 30.4228 97.0007L31.0502 96.3663L29.3741 97.3318C29.1978 97.4322 28.9918 97.4676 28.792 97.4317C28.5923 97.3958 28.4115 97.2909 28.2811 97.1354C28.1507 96.9799 28.0791 96.7835 28.0786 96.5806C28.0782 96.3776 28.149 96.181 28.2786 96.0249L29.6376 94.4025L26.9162 95.9729C26.7371 96.0759 26.5271 96.1115 26.324 96.0733C26.121 96.0351 25.9383 95.9256 25.8088 95.7645C25.6794 95.6035 25.6117 95.4015 25.618 95.195C25.6243 94.9885 25.7042 94.791 25.8433 94.6382L26.7758 93.6207L24.8917 94.7093C24.7205 94.809 24.5203 94.847 24.3245 94.8171C24.1286 94.7871 23.949 94.691 23.8154 94.5447C23.6818 94.3983 23.6024 94.2106 23.5904 94.0129C23.5784 93.8151 23.6346 93.6192 23.7494 93.4578L25.4221 91.0935L22.3177 92.8841C22.1479 92.9819 21.95 93.0193 21.7563 92.9901C21.5626 92.961 21.3844 92.8671 21.2509 92.7238C21.1173 92.5804 21.0363 92.396 21.0211 92.2007C21.0058 92.0053 21.0572 91.8106 21.1668 91.6482L22.8897 89.1037L19.8165 90.8769C19.6176 90.99 19.3819 91.0198 19.1611 90.9599C18.9402 90.8999 18.752 90.755 18.6376 90.5568C18.5232 90.3586 18.4918 90.1232 18.5503 89.9019C18.6088 89.6807 18.7524 89.4916 18.9498 89.3758L25.2852 85.7202C25.4549 85.6221 25.653 85.5844 25.8469 85.6134C26.0408 85.6424 26.2192 85.7362 26.3529 85.8797C26.4865 86.0232 26.5675 86.2078 26.5826 86.4033C26.5977 86.5989 26.5461 86.7937 26.4361 86.9561L24.7149 89.5006L27.977 87.6182C28.1482 87.5194 28.348 87.4821 28.5433 87.5124C28.7386 87.5428 28.9177 87.639 29.0509 87.785C29.184 87.9311 29.2632 88.1183 29.2753 88.3156C29.2875 88.5129 29.2318 88.7084 29.1176 88.8697L27.4466 91.2322L30.7833 89.3047C30.9626 89.2006 31.1734 89.1642 31.3772 89.2021C31.5811 89.2401 31.7646 89.3499 31.8944 89.5116C32.0243 89.6733 32.0918 89.8762 32.0848 90.0834C32.0778 90.2907 31.9967 90.4886 31.8562 90.6411L30.9237 91.6586L33.021 90.4453C33.1974 90.3438 33.4039 90.3077 33.6042 90.3431C33.8046 90.3786 33.9861 90.4834 34.1169 90.6393C34.2478 90.7951 34.3196 90.992 34.3198 91.1955C34.3201 91.399 34.2487 91.5961 34.1182 91.7522L32.7576 93.3763L35.7684 91.643C35.95 91.5396 36.1628 91.5052 36.3677 91.5463C36.5726 91.5874 36.7558 91.7011 36.8835 91.8666C37.0111 92.0321 37.0747 92.2381 37.0625 92.4467C37.0503 92.6553 36.9631 92.8525 36.817 93.0019L36.1913 93.6363L38.1344 92.5027C38.3001 92.4065 38.493 92.3679 38.6829 92.393C38.8729 92.418 39.0492 92.5053 39.1842 92.6412C39.3193 92.777 39.4056 92.9538 39.4295 93.1439C39.4534 93.334 39.4137 93.5267 39.3165 93.6918L37.4514 96.8707L42.8542 93.7507C43.022 93.6545 43.2171 93.6171 43.4086 93.6446C43.6 93.6721 43.7768 93.7628 43.9107 93.9023C44.0447 94.0418 44.1281 94.2221 44.1477 94.4145C44.1674 94.6069 44.1221 94.8004 44.019 94.9641L42.043 98.1066L48.2986 94.4943C48.4716 94.3945 48.6737 94.3575 48.8708 94.3894C49.0679 94.4214 49.2479 94.5205 49.3804 94.6699C49.5129 94.8193 49.5897 95.0099 49.5979 95.2094C49.6061 95.4089 49.5451 95.6051 49.4253 95.7649L47.2309 98.6751L54.4173 94.5273C54.5994 94.4261 54.8118 94.3939 55.0157 94.4365C55.2195 94.4791 55.4012 94.5937 55.5275 94.7594C55.6538 94.925 55.7162 95.1306 55.7033 95.3385C55.6904 95.5464 55.6031 95.7426 55.4573 95.8914L53.3617 97.9714L60.9381 93.5982C61.126 93.4902 61.3476 93.4565 61.5592 93.5037C61.7707 93.551 61.9568 93.6759 62.0809 93.8537C62.2049 94.0314 62.2578 94.2492 62.2292 94.4641C62.2005 94.679 62.0924 94.8753 61.9261 95.0143L60.3661 96.3074L69.083 91.2807C69.2743 91.1704 69.5005 91.1372 69.7154 91.1879C69.9304 91.2387 70.1178 91.3696 70.2395 91.5538C70.3612 91.7381 70.4079 91.9619 70.3702 92.1795C70.3324 92.3971 70.213 92.5921 70.0364 92.7246L68.2857 94.0385L71.3398 92.2739C71.53 92.1654 71.7542 92.1329 71.9674 92.1829C72.1805 92.2329 72.3669 92.3617 72.4889 92.5435C72.611 92.7253 72.6597 92.9465 72.6253 93.1628C72.591 93.379 72.476 93.5742 72.3036 93.7091L71.6102 94.243L72.2377 93.8825C72.416 93.7794 72.6251 93.7432 72.8277 93.7803C73.0302 93.8174 73.2129 93.9254 73.3431 94.085C73.4732 94.2445 73.5423 94.4452 73.538 94.6511C73.5336 94.857 73.4561 95.0546 73.3193 95.2085L72.3157 96.3386C72.5042 96.3445 72.6855 96.4117 72.8324 96.5299C72.9792 96.6482 73.0834 96.8112 73.1293 96.994C73.1752 97.1769 73.1601 97.3697 73.0865 97.5433C73.0129 97.7169 72.8847 97.8617 72.7213 97.9558L68.823 100.209C68.645 100.311 68.4365 100.347 68.2347 100.309C68.0329 100.272 67.851 100.164 67.7212 100.005C67.5914 99.8464 67.5221 99.6465 67.5259 99.4414C67.5296 99.2362 67.606 99.039 67.7414 98.8849L68.4712 98.0615L61.394 102.149C61.2035 102.26 60.9776 102.295 60.7623 102.246C60.547 102.197 60.3587 102.067 60.2357 101.884C60.1127 101.701 60.0643 101.477 60.1005 101.259C60.1366 101.041 60.2546 100.846 60.4302 100.712L61.1114 100.192L56.629 102.787C56.4378 102.897 56.2116 102.93 55.9966 102.879C55.7817 102.829 55.5943 102.698 55.4726 102.514C55.3509 102.329 55.3042 102.105 55.3419 101.888C55.3797 101.67 55.4991 101.475 55.6757 101.343L57.4385 100.02L52.3304 102.96C52.1992 103.038 52.0496 103.079 51.897 103.08Z" fill="#5FC77D"/>
<path d="M24.6147 85.748C24.4239 85.748 24.2385 85.685 24.0871 85.5689C23.9358 85.4528 23.827 85.2899 23.7776 85.1057C23.7282 84.9214 23.741 84.726 23.814 84.5497C23.887 84.3734 24.0161 84.2262 24.1813 84.1308L28.9203 81.3956C29.1183 81.292 29.3488 81.2689 29.5635 81.3312C29.7782 81.3935 29.9605 81.5363 30.0723 81.7298C30.1842 81.9234 30.217 82.1526 30.1638 82.3697C30.1106 82.5868 29.9756 82.775 29.7869 82.8949L25.0393 85.6267C24.9106 85.7031 24.7643 85.7449 24.6147 85.748Z" fill="#5FC77D"/>
<path d="M14.9428 96.0838C14.7675 96.084 14.5963 96.0312 14.4517 95.9321C14.3071 95.8331 14.1959 95.6925 14.1328 95.529C14.0697 95.3655 14.0577 95.1867 14.0983 95.0162C14.139 94.8457 14.2303 94.6915 14.3604 94.574L18.5013 90.8266L12.9425 94.035C12.7495 94.1463 12.521 94.1789 12.3045 94.1262C12.088 94.0735 11.9001 93.9394 11.7799 93.7518C11.6597 93.5642 11.6163 93.3375 11.6588 93.1188C11.7014 92.9001 11.8265 92.7061 12.0082 92.5772L13.4764 91.5372L12.6097 92.0312C12.4162 92.1422 12.1874 92.1744 11.9709 92.121C11.7543 92.0676 11.5667 91.9328 11.447 91.7446C11.3273 91.5563 11.2848 91.3292 11.3283 91.1104C11.3718 90.8917 11.498 90.6981 11.6806 90.57L12.3202 90.1332C12.1616 90.1579 11.9991 90.1387 11.8506 90.0776C11.7021 90.0164 11.5732 89.9158 11.4778 89.7866C11.3529 89.6101 11.2983 89.3934 11.325 89.1789C11.3516 88.9643 11.4574 88.7675 11.6217 88.627L17.6034 83.5119L12.6184 86.3806C12.435 86.4909 12.2173 86.5296 12.0072 86.489C11.7971 86.4485 11.6094 86.3317 11.4802 86.161C11.3511 85.9903 11.2897 85.7779 11.3078 85.5647C11.3259 85.3514 11.4223 85.1524 11.5784 85.006L14.324 82.3662L12.6114 83.3542C12.4388 83.4533 12.2373 83.4901 12.0408 83.4582C11.8443 83.4263 11.6648 83.3278 11.5324 83.1791C11.4 83.0304 11.3228 82.8407 11.3138 82.6419C11.3049 82.443 11.3646 82.2471 11.483 82.0871L12.601 80.5774C12.4179 80.5609 12.2448 80.4867 12.1067 80.3653C11.9685 80.244 11.8726 80.0819 11.8326 79.9025C11.7927 79.723 11.8108 79.5355 11.8845 79.367C11.9581 79.1986 12.0834 79.0579 12.2422 78.9654L15.1248 77.3066C15.2972 77.2081 15.4982 77.1719 15.6941 77.2039C15.8901 77.2359 16.0691 77.3342 16.2012 77.4824C16.3333 77.6306 16.4106 77.8196 16.4201 78.018C16.4295 78.2163 16.3706 78.4118 16.2532 78.5719L15.3692 79.7662L19.6349 77.3066C19.8183 77.1962 20.036 77.1575 20.2461 77.1981C20.4562 77.2386 20.6439 77.3555 20.7731 77.5261C20.9022 77.6968 20.9636 77.9092 20.9455 78.1224C20.9274 78.3357 20.831 78.5347 20.6749 78.6811L17.9224 81.3175L24.88 77.3066C25.0668 77.2006 25.2864 77.1678 25.4961 77.2146C25.7058 77.2613 25.8906 77.3843 26.0148 77.5596C26.1389 77.7349 26.1935 77.9501 26.168 78.1634C26.1425 78.3767 26.0386 78.5729 25.8766 78.714L19.8966 83.8256L28.4264 78.903C28.6196 78.7934 28.8474 78.7621 29.063 78.8157C29.2785 78.8692 29.4653 79.0035 29.5847 79.1907C29.7042 79.378 29.7472 79.604 29.7048 79.822C29.6625 80.04 29.538 80.2335 29.3572 80.3624L29.118 80.5358C29.3155 80.4663 29.5315 80.4707 29.726 80.5482C29.9205 80.6256 30.0804 80.7709 30.1761 80.9571C30.2719 81.1433 30.297 81.3578 30.2468 81.5611C30.1966 81.7643 30.0746 81.9426 29.9032 82.0628L25.445 85.2036C25.5951 85.2637 25.725 85.3653 25.8194 85.4966C25.9453 85.6696 26.0027 85.883 25.9806 86.0958C25.9585 86.3086 25.8585 86.5057 25.6998 86.6492L19.3541 92.3866C19.4135 92.4419 19.4638 92.5062 19.5032 92.5772C19.6181 92.7763 19.6492 93.0128 19.5898 93.2348C19.5303 93.4569 19.385 93.6462 19.186 93.7611L15.3726 95.959C15.243 96.038 15.0946 96.0811 14.9428 96.0838Z" fill="#5FC77D"/>
<path d="M85.1224 92.6813C84.9485 92.6814 84.7786 92.6292 84.6348 92.5314C84.491 92.4337 84.3799 92.295 84.316 92.1333C84.252 91.9716 84.2382 91.7944 84.2763 91.6247C84.3144 91.4551 84.4027 91.3008 84.5296 91.1819L86.2993 89.5145L81.1687 92.4767C80.9816 92.5848 80.7608 92.6191 80.5497 92.5728C80.3386 92.5266 80.1524 92.4031 80.0276 92.2267C79.9029 92.0503 79.8485 91.8336 79.8752 91.6191C79.9019 91.4047 80.0078 91.208 80.172 91.0675L84.7359 87.1658L78.8131 90.5857C78.6219 90.6936 78.3969 90.725 78.1834 90.6735C77.97 90.6219 77.7841 90.4913 77.6633 90.3079C77.5425 90.1246 77.4957 89.9023 77.5325 89.6858C77.5693 89.4694 77.6869 89.2749 77.8615 89.1418L83.1482 85.195L78.4855 87.8799C78.2919 87.9893 78.0637 88.02 77.848 87.9658C77.6324 87.9116 77.4459 87.7765 77.327 87.5887C77.2081 87.4008 77.166 87.1744 77.2093 86.9563C77.2527 86.7382 77.3782 86.5452 77.5599 86.417L79.1199 85.3423L78.489 85.7046C78.3075 85.808 78.0949 85.8424 77.8902 85.8015C77.6854 85.7606 77.5023 85.6472 77.3745 85.4821C77.2467 85.3169 77.1828 85.1112 77.1946 84.9028C77.2064 84.6943 77.293 84.4971 77.4385 84.3474L79.7941 81.9502L78.489 82.7042C78.3034 82.8112 78.0848 82.8456 77.8753 82.801C77.6659 82.7563 77.4804 82.6356 77.3546 82.4623C77.2288 82.2889 77.1717 82.0751 77.1943 81.8622C77.2168 81.6492 77.3174 81.4521 77.4767 81.3089L78.0574 80.7889C77.9023 80.789 77.75 80.7474 77.6164 80.6686C77.4829 80.5898 77.3729 80.4766 77.298 80.3408C77.2231 80.2049 77.186 80.0515 77.1906 79.8965C77.1952 79.7415 77.2413 79.5905 77.3242 79.4594L78.853 77.0432C78.669 77.0899 78.4748 77.0758 78.2996 77.003C78.1243 76.9302 77.9773 76.8026 77.8805 76.6393C77.7655 76.4404 77.7341 76.204 77.7932 75.982C77.8524 75.7601 77.9973 75.5706 78.196 75.4554L81.0005 73.8382C81.1681 73.7414 81.3633 73.7036 81.5549 73.7306C81.7465 73.7576 81.9236 73.848 82.0579 73.9873C82.1923 74.1271 82.2759 74.3079 82.2954 74.5009C82.3149 74.6938 82.2691 74.8877 82.1653 75.0515L80.6712 77.4123L83.9646 75.5057C84.1489 75.4068 84.3628 75.3779 84.5667 75.4243C84.7707 75.4707 84.951 75.5894 85.0743 75.7584C85.1977 75.9273 85.2557 76.1352 85.2378 76.3436C85.2199 76.552 85.1272 76.7469 84.9768 76.8923L84.6787 77.161C84.8409 77.1226 85.0107 77.1318 85.1678 77.1874C85.3249 77.2431 85.4626 77.3428 85.5644 77.4747C85.6924 77.6405 85.7561 77.8469 85.7437 78.0559C85.7312 78.265 85.6435 78.4624 85.4968 78.6118L83.1412 81.009L96.7392 73.1587C96.9328 73.0494 97.161 73.0187 97.3767 73.0729C97.5923 73.1271 97.7788 73.2621 97.8977 73.45C98.0166 73.6379 98.0587 73.8643 98.0154 74.0824C97.972 74.3005 97.8465 74.4935 97.6648 74.6217L95.3803 76.199C95.5399 76.182 95.7011 76.2086 95.8467 76.2761C95.9924 76.3435 96.1169 76.4493 96.2071 76.5821C96.3287 76.7668 96.3751 76.9911 96.3368 77.2089C96.2984 77.4268 96.1782 77.6217 96.0008 77.7538L90.7141 81.7006L92.0159 80.9483C92.2028 80.8424 92.4223 80.8096 92.632 80.8564C92.8417 80.9031 93.0265 81.0261 93.1507 81.2014C93.2748 81.3767 93.3294 81.5919 93.3039 81.8052C93.2784 82.0185 93.1746 82.2147 93.0125 82.3558L88.4487 86.2558L91.8668 84.2971C92.0515 84.1848 92.2715 84.1456 92.4836 84.1871C92.6957 84.2286 92.8847 84.3479 93.0134 84.5215C93.1421 84.6952 93.2013 84.9107 93.1793 85.1257C93.1573 85.3407 93.0558 85.5398 92.8947 85.6838L91.1215 87.353L94.1357 85.6197C94.3075 85.5215 94.5077 85.4851 94.7031 85.5165C94.8984 85.5479 95.0771 85.6452 95.2096 85.7922C95.342 85.9391 95.4201 86.127 95.431 86.3246C95.4419 86.5221 95.3848 86.7174 95.2694 86.8781L93.7094 89.0326L94.7493 88.4311C94.848 88.3684 94.9583 88.3263 95.0736 88.3074C95.189 88.2884 95.307 88.293 95.4205 88.3208C95.534 88.3486 95.6407 88.3991 95.7343 88.4692C95.8278 88.5393 95.9061 88.6276 95.9646 88.7288C96.0231 88.83 96.0605 88.942 96.0746 89.058C96.0887 89.1741 96.0792 89.2918 96.0466 89.404C96.0141 89.5163 95.9591 89.6208 95.8851 89.7113C95.8111 89.8017 95.7196 89.8763 95.616 89.9305L91.0366 92.5599C90.8647 92.659 90.6642 92.6961 90.4683 92.6651C90.2724 92.6341 90.0931 92.5369 89.9602 92.3897C89.8274 92.2424 89.749 92.0541 89.7383 91.856C89.7276 91.658 89.7851 91.4623 89.9012 91.3015L91.4699 89.1487L85.5558 92.5599C85.4248 92.6386 85.2751 92.6805 85.1224 92.6813Z" fill="#5FC77D"/>
<path d="M85.6538 80.1822C85.4719 80.1822 85.2946 80.125 85.147 80.0187C84.9995 79.9123 84.8891 79.7622 84.8316 79.5896C84.7741 79.4171 84.7723 79.2308 84.8265 79.0572C84.8808 78.8835 84.9883 78.7314 85.1338 78.6222L88.7616 75.8489C88.5836 75.8448 88.4112 75.786 88.2678 75.6805C88.1244 75.5749 88.017 75.4278 87.9602 75.259C87.9034 75.0903 87.8999 74.9081 87.9503 74.7373C88.0006 74.5666 88.1024 74.4154 88.2416 74.3045L91.086 72.0304C90.899 72.0697 90.7043 72.046 90.5321 71.9632C90.3599 71.8804 90.22 71.7429 90.134 71.5723C90.048 71.4017 90.0207 71.2074 90.0566 71.0197C90.0924 70.832 90.1892 70.6615 90.332 70.5345L94.4556 66.8356L93.2128 67.5532C93.0283 67.6589 92.8113 67.693 92.6032 67.649C92.3951 67.6051 92.2104 67.4862 92.0843 67.3149C91.9582 67.1436 91.8995 66.932 91.9193 66.7202C91.9392 66.5084 92.0362 66.3114 92.1919 66.1665L95.5078 63.1037L94.4088 63.7364C94.2226 63.8414 94.0041 63.8738 93.7954 63.8274C93.5866 63.781 93.4024 63.6592 93.2781 63.4852C93.1538 63.3112 93.0982 63.0974 93.122 62.885C93.1458 62.6725 93.2473 62.4763 93.407 62.3341L94.8144 61.1069C94.6271 61.1583 94.4279 61.1453 94.2488 61.0699C94.0697 60.9945 93.9212 60.8611 93.827 60.6912C93.7329 60.5213 93.6985 60.3246 93.7295 60.1328C93.7605 59.941 93.8551 59.7652 93.998 59.6336L95.8111 57.9661L95.4644 58.1637C95.2778 58.2714 95.0577 58.3056 94.8472 58.2598C94.6366 58.214 94.4507 58.0913 94.3256 57.9158C94.2001 57.74 94.1447 57.5237 94.1703 57.3092C94.196 57.0947 94.3008 56.8975 94.4643 56.7562L95.2166 56.1097C95.0471 56.1037 94.8831 56.0481 94.7449 55.9498C94.6068 55.8515 94.5005 55.7148 94.4392 55.5567C94.3779 55.3985 94.3644 55.2259 94.4003 55.0602C94.4362 54.8944 94.5199 54.7429 94.6411 54.6242L96.5478 52.7592L95.8024 53.189C95.618 53.2905 95.4029 53.3214 95.1974 53.2759C94.9919 53.2304 94.8099 53.1117 94.6855 52.9419C94.5611 52.772 94.5028 52.5627 94.5214 52.353C94.54 52.1434 94.6343 51.9476 94.7867 51.8024L95.5008 51.1558C95.3202 51.1914 95.133 51.1684 94.9663 51.0904C94.7995 51.0124 94.662 50.8833 94.5735 50.7219C94.4851 50.5604 94.4504 50.375 94.4743 50.1925C94.4983 50.01 94.5798 49.8399 94.707 49.7068L96.7575 47.5505L95.5736 48.2334C95.3989 48.3348 95.1943 48.3719 94.995 48.3384C94.7958 48.3049 94.6146 48.2029 94.4826 48.05C94.3506 47.897 94.2762 47.7028 94.2723 47.5008C94.2683 47.2989 94.335 47.1019 94.4608 46.9438L97.3104 43.3697L95.0432 44.6749C94.8635 44.7756 94.6537 44.8089 94.4516 44.769C94.2495 44.729 94.0682 44.6184 93.9403 44.4568C93.8124 44.2953 93.7462 44.0935 93.7536 43.8876C93.761 43.6817 93.8415 43.4852 93.9807 43.3333L95.6482 41.5376L94.5024 42.198C94.3221 42.3035 94.1096 42.3404 93.9042 42.3016C93.6988 42.2629 93.5143 42.1513 93.3847 41.9873C93.2551 41.8233 93.1892 41.618 93.199 41.4092C93.2088 41.2005 93.2938 41.0023 93.4382 40.8512L94.7832 39.4316L93.8715 39.9516C93.7 40.0509 93.4996 40.0885 93.3038 40.0581C93.1079 40.0276 92.9284 39.9309 92.7952 39.7841C92.662 39.6373 92.5831 39.4493 92.5718 39.2514C92.5604 39.0535 92.6172 38.8577 92.7327 38.6966L95.1455 35.3218L92.7327 36.7085C92.564 36.806 92.3674 36.8438 92.1746 36.8158C91.9818 36.7878 91.804 36.6957 91.67 36.5542C91.536 36.4128 91.4536 36.2304 91.436 36.0363C91.4184 35.8423 91.4667 35.648 91.5731 35.4848L92.7292 33.7116C92.5264 33.7627 92.3119 33.7388 92.1253 33.6442C91.9387 33.5496 91.7926 33.3906 91.714 33.1967C91.6354 33.0028 91.6297 32.787 91.6978 32.5892C91.7658 32.3914 91.9032 32.2249 92.0844 32.1204L94.96 30.4598C95.1287 30.3624 95.3254 30.3246 95.5182 30.3526C95.711 30.3806 95.8887 30.4727 96.0227 30.6141C96.1568 30.7555 96.2392 30.938 96.2568 31.132C96.2744 31.3261 96.2261 31.5204 96.1196 31.6836L95.0051 33.3944L97.7438 31.8136C97.9153 31.7142 98.1157 31.6766 98.3115 31.7071C98.5074 31.7376 98.6869 31.8343 98.8201 31.981C98.9533 32.1278 99.0322 32.3158 99.0435 32.5137C99.0549 32.7116 98.9981 32.9074 98.8826 33.0685L96.468 36.4433L99.068 34.9457C99.2482 34.8414 99.4599 34.8055 99.6644 34.8445C99.8689 34.8835 100.053 34.9948 100.182 35.1581C100.311 35.3213 100.377 35.5256 100.368 35.7336C100.359 35.9416 100.275 36.1394 100.132 36.2908L98.7855 37.7138L99.77 37.147C99.9495 37.0452 100.159 37.0108 100.362 37.0498C100.565 37.0889 100.747 37.199 100.875 37.3603C101.004 37.5215 101.071 37.7234 101.064 37.9296C101.057 38.1358 100.977 38.3328 100.838 38.4852L99.1686 40.2826L100.411 39.5668C100.586 39.4674 100.79 39.4318 100.988 39.4662C101.186 39.5005 101.366 39.6025 101.497 39.7549C101.628 39.9073 101.702 40.1004 101.706 40.3014C101.711 40.5023 101.645 40.6985 101.521 40.8564L98.6763 44.4305L101.103 43.03C101.283 42.9269 101.495 42.892 101.699 42.9317C101.902 42.9714 102.085 43.083 102.214 43.2462C102.342 43.4093 102.408 43.6133 102.399 43.8208C102.39 44.0283 102.306 44.2256 102.164 44.3768L100.112 46.5365L101.479 45.7461C101.664 45.6446 101.879 45.6138 102.084 45.6592C102.29 45.7047 102.472 45.8235 102.596 45.9933C102.72 46.1631 102.779 46.3724 102.76 46.5821C102.742 46.7918 102.647 46.9875 102.495 47.1328L101.855 47.7134C102.041 47.6611 102.238 47.6721 102.417 47.7446C102.595 47.8171 102.744 47.947 102.841 48.1138C102.937 48.2806 102.975 48.4748 102.949 48.6656C102.923 48.8565 102.834 49.0331 102.696 49.1677L100.789 51.0328L101.77 50.4677C101.957 50.3582 102.178 50.3227 102.39 50.3682C102.602 50.4137 102.789 50.5369 102.915 50.7136C103.04 50.8902 103.095 51.1074 103.068 51.3224C103.042 51.5374 102.935 51.7346 102.77 51.8752L102.155 52.3952C102.295 52.3976 102.434 52.4298 102.561 52.4896C102.688 52.5493 102.8 52.6353 102.892 52.7418C103.018 52.9139 103.076 53.1265 103.055 53.3388C103.035 53.5512 102.936 53.7484 102.779 53.8928L100.97 55.555L101.623 55.1806C101.809 55.0757 102.028 55.0432 102.236 55.0896C102.445 55.136 102.629 55.2579 102.754 55.4318C102.878 55.6058 102.934 55.8196 102.91 56.0321C102.886 56.2445 102.785 56.4407 102.625 56.5829L101.327 57.713L101.366 57.6922C101.551 57.5866 101.768 57.5524 101.976 57.5964C102.184 57.6403 102.369 57.7592 102.495 57.9305C102.621 58.1018 102.68 58.3134 102.66 58.5252C102.64 58.737 102.543 58.934 102.387 59.0789L99.0611 62.1538L100.794 61.1554C100.979 61.0565 101.193 61.0276 101.397 61.0741C101.601 61.1205 101.781 61.2391 101.904 61.4081C102.028 61.5771 102.086 61.7849 102.068 61.9934C102.05 62.2018 101.957 62.3967 101.807 62.5421L97.6779 66.2462L99.8688 64.9826C100.058 64.8732 100.282 64.8393 100.495 64.8877C100.708 64.9361 100.895 65.0632 101.018 65.2435C101.141 65.4239 101.192 65.6442 101.16 65.8604C101.128 66.0765 101.015 66.2725 100.845 66.4092L98.2447 68.4892L98.8427 68.1425C99.0332 68.0368 99.2565 68.0066 99.4682 68.0581C99.6799 68.1096 99.8644 68.2389 99.985 68.4203C100.106 68.6017 100.154 68.8219 100.119 69.037C100.085 69.2521 99.9707 69.4464 99.7995 69.5812L96.9464 71.7582L97.541 71.4116C97.739 71.308 97.9695 71.2849 98.1842 71.3472C98.3989 71.4095 98.5812 71.5523 98.693 71.7458C98.8049 71.9393 98.8377 72.1686 98.7845 72.3857C98.7313 72.6028 98.5963 72.791 98.4076 72.9109L86.101 80.0176C85.9705 80.1138 85.8154 80.1709 85.6538 80.1822Z" fill="#5FC77D"/>
<path d="M80.5311 26.8146C80.3492 26.8146 80.1719 26.7574 80.0244 26.651C79.8768 26.5447 79.7665 26.3946 79.7089 26.222C79.6514 26.0495 79.6497 25.8632 79.7039 25.6896C79.7581 25.5159 79.8656 25.3638 80.0111 25.2546L80.5849 24.8161L77.5983 26.5408C77.4081 26.6516 77.1828 26.6859 76.9682 26.6367C76.7536 26.5874 76.5658 26.4584 76.4429 26.2757C76.32 26.093 76.2713 25.8704 76.3065 25.6531C76.3418 25.4357 76.4585 25.24 76.6329 25.1056L81.2054 21.5644L75.4351 24.8941C75.2696 24.9898 75.0771 25.028 74.8876 25.0029C74.6981 24.9778 74.5222 24.8907 74.3873 24.7552C74.2524 24.6198 74.1661 24.4435 74.1418 24.2538C74.1175 24.0642 74.1566 23.8719 74.253 23.7068L75.5391 21.5158L75.5062 21.5349C75.4076 21.5976 75.2973 21.6397 75.1819 21.6587C75.0666 21.6777 74.9486 21.6731 74.8351 21.6453C74.7215 21.6175 74.6148 21.567 74.5213 21.4969C74.4278 21.4267 74.3494 21.3384 74.2909 21.2372C74.2324 21.136 74.195 21.024 74.1809 20.908C74.1668 20.792 74.1763 20.6743 74.2089 20.562C74.2415 20.4498 74.2964 20.3453 74.3704 20.2548C74.4444 20.1643 74.536 20.0897 74.6395 20.0356L77.5169 18.3733C77.681 18.2778 77.8723 18.2396 78.0606 18.2647C78.2489 18.2898 78.4234 18.3768 78.5569 18.512C78.6917 18.6476 78.7779 18.8239 78.802 19.0136C78.8261 19.2033 78.7869 19.3956 78.6903 19.5606L77.4025 21.7533L91.3818 13.6933C91.5723 13.5816 91.7982 13.5467 92.0135 13.596C92.2287 13.6452 92.4171 13.7747 92.5401 13.9581C92.6631 14.1415 92.7115 14.3649 92.6753 14.5828C92.6391 14.8006 92.5212 14.9964 92.3455 15.1302L87.7765 18.6645L91.3818 16.5845C91.5724 16.4767 91.7967 16.445 92.0096 16.4958C92.2226 16.5465 92.4085 16.676 92.5299 16.8583C92.6512 17.0405 92.6992 17.2619 92.664 17.478C92.6289 17.6941 92.5132 17.8888 92.3403 18.0232L91.5898 18.5969C91.7557 18.5523 91.9311 18.5579 92.0937 18.6132C92.2563 18.6684 92.3989 18.7708 92.5033 18.9072C92.6309 19.0744 92.6933 19.2823 92.679 19.4921C92.6646 19.702 92.5745 19.8994 92.4253 20.0477L90.5897 21.8746L91.3818 21.417C91.5808 21.3039 91.8164 21.2741 92.0372 21.3341C92.2581 21.394 92.4463 21.5389 92.5607 21.7371C92.6751 21.9353 92.7065 22.1707 92.648 22.392C92.5895 22.6132 92.4459 22.8024 92.2485 22.9181L85.6999 26.6933C85.5179 26.7945 85.3055 26.8267 85.1016 26.7841C84.8977 26.7415 84.716 26.6269 84.5897 26.4612C84.4634 26.2956 84.401 26.09 84.4139 25.8821C84.4268 25.6742 84.5141 25.4779 84.6599 25.3292L86.4938 23.5074L80.9645 26.6933C80.8335 26.7717 80.6838 26.8136 80.5311 26.8146Z" fill="#5FC77D"/>
<path d="M84.9856 14.4352C84.8272 14.4351 84.6719 14.3917 84.5364 14.3096C84.401 14.2274 84.2907 14.1098 84.2174 13.9693C84.1442 13.8289 84.1108 13.6711 84.1209 13.513C84.1311 13.355 84.1843 13.2027 84.2749 13.0728L85.5732 11.2112C85.4195 11.2095 85.2688 11.1689 85.1351 11.0931C85.0014 11.0173 84.8891 10.9088 84.8088 10.7778C84.6937 10.579 84.6623 10.3426 84.7215 10.1206C84.7806 9.89863 84.9255 9.7092 85.1243 9.59398L87.9288 7.97332C88.0988 7.8728 88.2982 7.83411 88.4934 7.8638C88.6887 7.8935 88.8676 7.98974 89 8.13625C89.1333 8.2814 89.2131 8.46764 89.2264 8.66426C89.2396 8.86089 89.1854 9.05615 89.0728 9.21785L87.9219 10.8697L90.6553 9.29238C90.8543 9.17927 91.0899 9.14944 91.3108 9.2094C91.5316 9.26936 91.7198 9.41425 91.8342 9.61245C91.9487 9.81064 91.9801 10.0461 91.9216 10.2673C91.8631 10.4886 91.7194 10.6777 91.522 10.7935L85.4189 14.319C85.2875 14.396 85.1378 14.4361 84.9856 14.4352Z" fill="#5FC77D"/>
<path d="M79.1436 19.0753C78.9885 19.0754 78.8362 19.0338 78.7026 18.955C78.5691 18.8762 78.4591 18.763 78.3842 18.6272C78.3093 18.4914 78.2722 18.338 78.2768 18.1829C78.2814 18.0279 78.3276 17.877 78.4104 17.7458L80.2096 14.8945L76.7862 16.874C76.6092 16.9751 76.4021 17.0107 76.2015 16.9743C76.0009 16.9378 75.8195 16.8319 75.6893 16.6749C75.5591 16.518 75.4883 16.3202 75.4896 16.1163C75.4908 15.9124 75.5639 15.7155 75.696 15.5601L76.8452 14.2254L74.6334 15.5012C74.4581 15.6021 74.2529 15.6385 74.0535 15.604C73.8541 15.5696 73.673 15.4664 73.5417 15.3125C73.4104 15.1585 73.3371 14.9634 73.3345 14.7611C73.3319 14.5588 73.4002 14.3619 73.5276 14.2046L74.9142 12.5077L72.1409 14.111C71.9705 14.209 71.7719 14.2461 71.5777 14.2163C71.3834 14.1865 71.2051 14.0915 71.0719 13.9471C70.9387 13.8026 70.8585 13.6171 70.8446 13.4211C70.8307 13.2251 70.8838 13.0301 70.9952 12.8682L72.7285 10.3705L68.8406 12.6013C68.6586 12.7076 68.4441 12.7439 68.2373 12.7034C68.0304 12.663 67.8454 12.5485 67.7169 12.3815C67.5883 12.2145 67.525 12.0063 67.5389 11.796C67.5527 11.5857 67.6427 11.3877 67.792 11.2389L68.3622 10.6652L66.5232 11.7277C66.3554 11.824 66.1603 11.8613 65.9688 11.8339C65.7774 11.8064 65.6006 11.7157 65.4667 11.5762C65.3327 11.4366 65.2493 11.2563 65.2297 11.0639C65.2101 10.8715 65.2554 10.6781 65.3584 10.5144L67.2217 7.5677L62.1794 10.4797C61.9991 10.5828 61.7877 10.6176 61.5838 10.578C61.3799 10.5383 61.1971 10.4267 61.0686 10.2635C60.94 10.1003 60.8744 9.89642 60.8836 9.68891C60.8928 9.48139 60.9762 9.28408 61.1186 9.1329L62.332 7.8589L58.8826 9.8505C58.704 9.95352 58.4945 9.98948 58.2918 9.95193C58.0891 9.91438 57.9064 9.80579 57.7765 9.64564C57.6466 9.4855 57.5781 9.2843 57.5832 9.07818C57.5884 8.87206 57.6668 8.67452 57.8045 8.52104L59.4789 6.65424L54.681 9.42757C54.4983 9.53295 54.2834 9.56807 54.0767 9.52636C53.8699 9.48465 53.6855 9.36896 53.5579 9.20099C53.4303 9.03302 53.3684 8.82428 53.3837 8.61391C53.399 8.40354 53.4905 8.20597 53.641 8.05824L55.0537 6.67157L50.2784 9.42757C50.1066 9.52662 49.906 9.56374 49.7101 9.53275C49.5142 9.50176 49.3349 9.40453 49.202 9.25728C49.0692 9.11004 48.9909 8.92169 48.9801 8.72366C48.9694 8.52564 49.0269 8.32992 49.143 8.16917L51.6876 4.65224L40.7329 10.9737C40.5494 11.086 40.3306 11.126 40.1192 11.086C39.9078 11.0459 39.7188 10.9287 39.5891 10.757C39.4593 10.5853 39.3981 10.3715 39.4173 10.1572C39.4365 9.94285 39.5347 9.74333 39.6929 9.59744L43.215 6.22784L33.0802 12.0778C32.8917 12.1875 32.6687 12.222 32.4558 12.1745C32.2429 12.127 32.0558 12.001 31.9317 11.8215C31.8077 11.6421 31.7558 11.4225 31.7865 11.2066C31.8173 10.9906 31.9283 10.7942 32.0974 10.6565L34.6558 8.55397L31.7854 10.211C31.608 10.3132 31.4002 10.3492 31.1988 10.3128C30.9973 10.2764 30.8153 10.1698 30.6849 10.012C30.5545 9.85422 30.4842 9.65536 30.4864 9.45067C30.4886 9.24598 30.5632 9.04867 30.6969 8.8937L31.7698 7.6509C31.6079 7.65939 31.4468 7.62372 31.3036 7.5477C31.1604 7.47168 31.0406 7.35817 30.9569 7.2193C30.842 7.02025 30.8108 6.78369 30.8703 6.56168C30.9298 6.33966 31.0751 6.15037 31.2741 6.03544L35.1741 3.7821C35.3513 3.68099 35.5585 3.64564 35.7592 3.68227C35.9599 3.7189 36.1413 3.82517 36.2714 3.98236C36.4014 4.13956 36.4718 4.3376 36.4703 4.54162C36.4687 4.74564 36.3951 4.94256 36.2626 5.0977L35.3613 6.1377L42.8909 1.7905C43.0792 1.68334 43.3008 1.65059 43.512 1.6987C43.7233 1.74681 43.9088 1.87229 44.0321 2.05042C44.1555 2.22854 44.2076 2.44639 44.1783 2.66105C44.1489 2.8757 44.0403 3.07158 43.8737 3.2101L41.3188 5.31957L48.5693 1.13357C48.7528 1.02125 48.9716 0.981226 49.183 1.02128C49.3944 1.06134 49.5834 1.17862 49.7131 1.3503C49.8429 1.52197 49.9041 1.73577 49.8849 1.95009C49.8657 2.16442 49.7675 2.36394 49.6093 2.50984L46.082 5.88117L54.3326 1.1197C54.5048 1.021 54.7056 0.984359 54.9015 1.01591C55.0974 1.04746 55.2766 1.14528 55.409 1.29304C55.5404 1.44015 55.6177 1.62768 55.6281 1.82465C55.6385 2.02161 55.5814 2.21624 55.4662 2.37637L52.9217 5.8933L60.0734 1.76797C60.2559 1.66406 60.47 1.62996 60.6757 1.672C60.8815 1.71404 61.065 1.82936 61.1921 1.99652C61.3192 2.16368 61.3813 2.37132 61.3668 2.58083C61.3524 2.79034 61.2623 2.98746 61.1134 3.13557L59.7025 4.52224L63.3252 2.42664C63.5038 2.32362 63.7133 2.28766 63.916 2.32521C64.1187 2.36275 64.3014 2.47135 64.4313 2.6315C64.5612 2.79164 64.6297 2.99284 64.6246 3.19896C64.6194 3.40508 64.541 3.60262 64.4033 3.7561L62.7272 5.6229L66.6549 3.3557C66.8355 3.25136 67.0476 3.21561 67.2523 3.25502C67.4571 3.29443 67.6408 3.40634 67.7697 3.57024C67.8987 3.73414 67.9642 3.93902 67.9542 4.14732C67.9443 4.35561 67.8596 4.55334 67.7157 4.70424L66.5024 5.9765L69.404 4.3021C69.5717 4.20585 69.7669 4.16849 69.9583 4.19595C70.1498 4.22341 70.3265 4.31412 70.4605 4.45364C70.5944 4.59316 70.6778 4.77348 70.6975 4.96589C70.7171 5.1583 70.6718 5.35174 70.5688 5.51544L68.7037 8.4621L73.1272 5.9089C73.3088 5.81021 73.5197 5.77967 73.7218 5.82279C73.924 5.86592 74.104 5.97987 74.2296 6.14409C74.3551 6.30831 74.4178 6.51198 74.4063 6.71836C74.3949 6.92474 74.3101 7.12023 74.1672 7.26957L73.5986 7.84157L75.1586 6.94024C75.329 6.84232 75.5276 6.80521 75.7219 6.83501C75.9161 6.86481 76.0945 6.95973 76.2277 7.10422C76.3609 7.24871 76.441 7.43417 76.455 7.6302C76.4689 7.82622 76.4158 8.02116 76.3044 8.18304L74.5797 10.679L78.0949 8.6493C78.2703 8.54836 78.4755 8.51197 78.6749 8.54643C78.8743 8.5809 79.0553 8.68406 79.1866 8.83802C79.3179 8.99197 79.3913 9.18703 79.3938 9.38937C79.3964 9.59171 79.3281 9.78857 79.2008 9.94584L77.8141 11.6445L80.376 10.166C80.5532 10.0638 80.7609 10.0276 80.9622 10.0638C81.1636 10.1 81.3457 10.2062 81.4762 10.3638C81.6067 10.5213 81.6773 10.7199 81.6755 10.9245C81.6737 11.1291 81.5996 11.3264 81.4662 11.4816L80.317 12.8162L82.3606 11.6358C82.5284 11.5388 82.7239 11.5007 82.9158 11.5278C83.1078 11.5549 83.2851 11.6456 83.4194 11.7853C83.5538 11.9251 83.6374 12.1058 83.6569 12.2987C83.6764 12.4915 83.6308 12.6853 83.5272 12.8492L81.7488 15.704L91.1833 10.2561C91.2819 10.1934 91.3923 10.1513 91.5076 10.1323C91.6229 10.1133 91.7409 10.1179 91.8544 10.1457C91.968 10.1735 92.0747 10.224 92.1682 10.2941C92.2617 10.3643 92.3401 10.4526 92.3986 10.5538C92.4571 10.655 92.4945 10.767 92.5086 10.883C92.5227 10.999 92.5132 11.1167 92.4806 11.229C92.448 11.3412 92.3931 11.4457 92.3191 11.5362C92.2451 11.6267 92.1535 11.7013 92.05 11.7554L79.57 18.9592C79.4403 19.0341 79.2934 19.0741 79.1436 19.0753Z" fill="#5FC77D"/>
<path d="M34.3295 71.8814C34.1423 71.8816 33.96 71.8213 33.81 71.7094C33.66 71.5974 33.5502 71.4399 33.4971 71.2604C33.4441 71.0809 33.4505 70.889 33.5156 70.7135C33.5806 70.538 33.7008 70.3883 33.858 70.2867L42.2317 64.877L30.5872 71.5988C30.3919 71.7098 30.1612 71.7407 29.9437 71.6849C29.7261 71.6291 29.5387 71.4911 29.4209 71.2998C29.3031 71.1086 29.2642 70.8791 29.3124 70.6597C29.3605 70.4403 29.4919 70.2481 29.6789 70.1238L41.1865 62.563L28.5713 69.843C28.3759 69.9521 28.1459 69.9815 27.9293 69.9249C27.7128 69.8682 27.5265 69.73 27.4096 69.5392C27.2927 69.3483 27.2541 69.1196 27.302 68.901C27.3499 68.6823 27.4805 68.4907 27.6665 68.3662L34.2099 64.116L28.2195 67.5758C28.0239 67.6833 27.7945 67.7113 27.5788 67.6538C27.3632 67.5964 27.178 67.458 27.0618 67.2675C26.9457 67.0769 26.9075 66.8489 26.9552 66.6309C27.003 66.413 27.133 66.2218 27.3181 66.0972L28.1207 65.5772C27.9242 65.6604 27.704 65.6682 27.5021 65.5992C27.3003 65.5301 27.131 65.3891 27.0267 65.203C26.9224 65.0169 26.8904 64.7988 26.9368 64.5906C26.9832 64.3824 27.1048 64.1986 27.2783 64.0744L38.3716 56.0595L28.2195 61.9268C28.0295 62.0347 27.8059 62.0668 27.5933 62.0168C27.3807 61.9669 27.1948 61.8385 27.0728 61.6573C26.9508 61.4762 26.9016 61.2556 26.9352 61.0398C26.9688 60.824 27.0827 60.6288 27.254 60.4934L35.8635 53.7594L28.2195 58.1724C28.0351 58.2713 27.8213 58.3002 27.6173 58.2538C27.4133 58.2074 27.233 58.0887 27.1097 57.9198C26.9863 57.7508 26.9283 57.5429 26.9462 57.3345C26.9641 57.1261 27.0568 56.9312 27.2072 56.7858L32.8128 51.7591L28.2195 54.4111C28.0434 54.5117 27.8377 54.5474 27.6381 54.5119C27.4385 54.4765 27.2576 54.3722 27.1269 54.2172C26.9963 54.0622 26.924 53.8663 26.9229 53.6636C26.9217 53.4609 26.9917 53.2641 27.1205 53.1076L29.6737 50.0292L28.2195 50.8699C28.0711 50.9555 27.9006 50.9953 27.7297 50.9841C27.5587 50.9729 27.3949 50.9113 27.259 50.807C27.123 50.7028 27.021 50.5606 26.9658 50.3984C26.9106 50.2362 26.9048 50.0613 26.9489 49.8958L27.4152 48.1486C27.2723 48.0809 27.1506 47.9754 27.0633 47.8436C26.976 47.7117 26.9265 47.5584 26.92 47.4004C26.9136 47.2424 26.9505 47.0857 27.0268 46.9471C27.1031 46.8086 27.2158 46.6936 27.3528 46.6146L28.2195 46.1136C28.3678 46.0277 28.5382 45.9876 28.7092 45.9985C28.8803 46.0094 29.0443 46.0708 29.1804 46.1748C29.3166 46.2789 29.4189 46.421 29.4743 46.5832C29.5297 46.7454 29.5358 46.9204 29.4917 47.086L29.1607 48.3236L33 46.1084C33.1761 46.0068 33.3822 45.9703 33.5825 46.0053C33.7827 46.0403 33.9643 46.1446 34.0954 46.2999C34.2266 46.4552 34.2989 46.6517 34.2999 46.8549C34.3009 47.0582 34.2303 47.2554 34.1007 47.4119L31.5475 50.4764L39.1481 46.0894C39.3325 45.9905 39.5464 45.9615 39.7503 46.008C39.9543 46.0544 40.1346 46.1731 40.2579 46.342C40.3813 46.511 40.4393 46.7189 40.4214 46.9273C40.4035 47.1357 40.3108 47.3306 40.1604 47.476L34.5548 52.5027L45.6967 46.0703C45.8864 45.9631 46.1095 45.9313 46.3216 45.9812C46.5337 46.0312 46.7192 46.1592 46.8412 46.3397C46.9631 46.5203 47.0126 46.7401 46.9798 46.9555C46.9469 47.1709 46.8341 47.3661 46.6639 47.502L38.0527 54.2534L52.2088 46.0807C52.4012 45.9703 52.6285 45.9379 52.844 45.99C53.0596 46.0422 53.2469 46.175 53.3675 46.3611C53.4881 46.5472 53.5328 46.7725 53.4923 46.9905C53.4519 47.2085 53.3293 47.4028 53.15 47.5332L42.0567 55.5499L58.4696 46.0738C58.6659 45.954 58.9017 45.9171 59.1252 45.9713C59.3487 46.0254 59.5415 46.1661 59.6613 46.3624C59.781 46.5587 59.8179 46.7945 59.7638 47.018C59.7097 47.2414 59.569 47.4343 59.3727 47.554L58.7071 47.9804L62.016 46.0738C62.2116 45.96 62.444 45.9273 62.6634 45.9825C62.8828 46.0378 63.0719 46.1767 63.1903 46.3696C63.3087 46.5624 63.3469 46.7939 63.2969 47.0146C63.2469 47.2353 63.1125 47.4276 62.9225 47.5506L56.3705 51.8059L66.3077 46.0686C66.503 45.9576 66.7337 45.9267 66.9513 45.9825C67.1689 46.0383 67.3563 46.1763 67.4741 46.3676C67.5918 46.5588 67.6307 46.7883 67.5826 47.0077C67.5345 47.2271 67.403 47.4192 67.216 47.5436L55.7153 55.101L71.3691 46.0634C71.5648 45.9519 71.7962 45.9211 72.0143 45.9774C72.2324 46.0336 72.42 46.1726 72.5374 46.3648C72.6548 46.557 72.6928 46.7874 72.6433 47.0071C72.5938 47.2268 72.4606 47.4186 72.2721 47.5419L63.888 52.9586L75.7856 46.0911C75.9799 45.9803 76.2096 45.949 76.4265 46.0037C76.6434 46.0583 76.8308 46.1947 76.9494 46.3843C77.0681 46.574 77.1088 46.8021 77.0631 47.0211C77.0174 47.2401 76.8889 47.4329 76.7043 47.5592L61.2516 57.9974L75.7856 49.608C75.9809 49.497 76.2116 49.4662 76.4292 49.5219C76.6467 49.5777 76.8342 49.7158 76.9519 49.907C77.0697 50.0983 77.1086 50.3278 77.0605 50.5472C77.0123 50.7666 76.8809 50.9587 76.6939 51.0831L70.0743 55.439L75.7943 52.1456C75.9899 52.0319 76.2222 51.9991 76.4417 52.0544C76.6611 52.1097 76.8502 52.2486 76.9686 52.4414C77.0869 52.6343 77.1252 52.8658 77.0752 53.0865C77.0251 53.3071 76.8908 53.4995 76.7008 53.6224L75.7145 54.2655L75.7943 54.2187C75.9864 54.1094 76.2129 54.0777 76.4277 54.1299C76.6424 54.1822 76.829 54.3144 76.9495 54.4997C77.0699 54.685 77.115 54.9093 77.0755 55.1267C77.0361 55.3442 76.9151 55.5383 76.7372 55.6695L67.9232 62.0828L75.7943 57.538C75.9847 57.4287 76.2094 57.3958 76.4232 57.4458C76.637 57.4958 76.8238 57.6251 76.9459 57.8075C77.068 57.99 77.1164 58.2119 77.0812 58.4286C77.046 58.6453 76.9299 58.8406 76.7563 58.975L70.4313 63.8734L75.7821 60.7707C75.9667 60.6665 76.183 60.6335 76.3902 60.6779C76.5974 60.7224 76.7812 60.8413 76.9067 61.012C77.0322 61.1828 77.0908 61.3937 77.0714 61.6047C77.052 61.8157 76.9559 62.0124 76.8013 62.1574L72.2808 66.2896L75.7804 64.2703C75.9587 64.1672 76.1678 64.131 76.3704 64.1681C76.5729 64.2052 76.7556 64.3132 76.8858 64.4728C77.0159 64.6324 77.085 64.8331 77.0807 65.0389C77.0763 65.2448 76.9988 65.4424 76.862 65.5963L75.0923 67.5879L75.7509 67.2083C75.9499 67.0952 76.1855 67.0654 76.4064 67.1253C76.6272 67.1853 76.8154 67.3302 76.9298 67.5284C77.0443 67.7266 77.0757 67.962 77.0172 68.1832C76.9587 68.4045 76.815 68.5936 76.6176 68.7094L71.3275 71.76C71.1494 71.862 70.9409 71.8975 70.7392 71.8601C70.5374 71.8228 70.3554 71.7151 70.2256 71.5562C70.0958 71.3972 70.0266 71.1974 70.0303 70.9922C70.034 70.7871 70.1104 70.5899 70.2459 70.4358L72.0173 68.4407L66.2644 71.76C66.0799 71.8629 65.8642 71.8948 65.6579 71.8498C65.4515 71.8048 65.2687 71.686 65.1437 71.5157C65.0188 71.3454 64.9603 71.1354 64.9793 70.925C64.9983 70.7147 65.0935 70.5185 65.2469 70.3734L69.7536 66.2446L60.2029 71.76C60.0129 71.8665 59.7896 71.8974 59.5778 71.8467C59.3659 71.796 59.1809 71.6674 59.0596 71.4864C58.9383 71.3054 58.8896 71.0854 58.9232 70.8702C58.9568 70.6549 59.0702 70.4602 59.2409 70.3248L65.5676 65.4264L54.6008 71.76C54.4087 71.8693 54.1822 71.9011 53.9674 71.8488C53.7527 71.7966 53.5661 71.6643 53.4456 71.479C53.3252 71.2937 53.2801 71.0694 53.3196 70.852C53.359 70.6346 53.48 70.4404 53.6579 70.3092L62.4719 63.8959L48.8357 71.76C48.6405 71.871 48.4098 71.9019 48.1922 71.8461C47.9746 71.7903 47.7872 71.6523 47.6694 71.461C47.5517 71.2698 47.5128 71.0403 47.5609 70.8209C47.609 70.6015 47.7405 70.4093 47.9275 70.285L48.9068 69.6488L45.2408 71.76C45.0459 71.8691 44.8164 71.8986 44.6002 71.8426C44.384 71.7865 44.1978 71.6491 44.0804 71.4591C43.963 71.269 43.9235 71.041 43.9702 70.8226C44.0168 70.6042 44.146 70.4122 44.3308 70.2867L50.9608 65.9326L40.8555 71.76C40.6616 71.8663 40.4344 71.8945 40.2204 71.8387C40.0064 71.783 39.8218 71.6476 39.7044 71.4602C39.587 71.2728 39.5457 71.0476 39.5889 70.8307C39.6321 70.6139 39.7566 70.4217 39.9368 70.2936L55.3929 59.8503L34.7628 71.76C34.6316 71.8379 34.4821 71.8798 34.3295 71.8814Z" fill="#894D43"/>
<path d="M45.048 51.0814C44.8629 51.081 44.6828 51.0215 44.534 50.9114C44.3852 50.8013 44.2756 50.6465 44.2211 50.4696C44.1667 50.2927 44.1703 50.1031 44.2314 49.9284C44.2926 49.7537 44.408 49.6031 44.5609 49.4988L48.0987 47.0878L41.382 50.96C41.1903 51.0698 40.9639 51.1023 40.7491 51.0508C40.5343 50.9993 40.3473 50.8677 40.2263 50.6829C40.1052 50.4981 40.0593 50.2741 40.0979 50.0566C40.1365 49.8391 40.2566 49.6446 40.4339 49.5127L49.0295 43.167L35.5337 50.96C35.342 51.0698 35.1157 51.1023 34.9009 51.0508C34.6861 50.9993 34.499 50.8677 34.378 50.6829C34.2569 50.4981 34.211 50.2741 34.2496 50.0566C34.2882 49.8391 34.4084 49.6446 34.5856 49.5127L43.2401 43.1132L30.2089 50.6359C30.0149 50.745 29.7863 50.7753 29.5705 50.7204C29.3548 50.6656 29.1684 50.5298 29.0501 50.3412C28.9317 50.1527 28.8904 49.9258 28.9348 49.7076C28.9792 49.4895 29.1059 49.2968 29.2885 49.1695L32.4397 47.0202L28.6611 49.2007C28.4708 49.3058 28.248 49.3356 28.0369 49.2842C27.8257 49.2328 27.6415 49.1039 27.5209 48.9231C27.4003 48.7423 27.352 48.5227 27.3857 48.308C27.4193 48.0933 27.5324 47.899 27.7025 47.7638L35.0623 42.12L28.2191 46.0738C28.032 46.1801 27.812 46.213 27.602 46.1662C27.392 46.1193 27.2069 45.9959 27.0828 45.8202C26.9587 45.6444 26.9044 45.4287 26.9305 45.2151C26.9567 45.0015 27.0613 44.8053 27.2241 44.6646L32.4432 40.2134L28.2191 42.6556C28.0344 42.7699 27.8135 42.8106 27.6003 42.7698C27.387 42.729 27.1968 42.6096 27.0673 42.4352C26.9379 42.2609 26.8786 42.0443 26.9012 41.8283C26.9238 41.6123 27.0267 41.4127 27.1895 41.269L29.4671 39.111L28.2191 39.8303C28.0453 39.9294 27.8427 39.9654 27.6454 39.9322C27.4482 39.899 27.2685 39.7985 27.1369 39.6479C27.0053 39.4973 26.9298 39.3058 26.9233 39.1059C26.9167 38.906 26.9795 38.71 27.1011 38.5511L28.122 37.232C27.9488 37.1986 27.7899 37.1132 27.6666 36.9871C27.5432 36.861 27.4613 36.7003 27.4317 36.5264C27.4021 36.3525 27.4263 36.1737 27.501 36.0139C27.5757 35.8541 27.6974 35.7209 27.8499 35.6322L30.7255 33.9734C30.8992 33.8742 31.1018 33.8382 31.2991 33.8715C31.4963 33.9047 31.676 34.0051 31.8076 34.1557C31.9392 34.3063 32.0147 34.4978 32.0212 34.6977C32.0278 34.8977 31.965 35.0937 31.8435 35.2526L31.164 36.1314L34.9097 33.9734C35.0944 33.8591 35.3152 33.8184 35.5285 33.8592C35.7418 33.9 35.932 34.0194 36.0615 34.1938C36.1909 34.3681 36.2502 34.5847 36.2276 34.8007C36.205 35.0167 36.1021 35.2163 35.9393 35.36L33.6635 37.525L39.8012 33.9734C39.9883 33.867 40.2082 33.8341 40.4182 33.881C40.6283 33.9278 40.8133 34.0512 40.9374 34.227C41.0616 34.4027 41.1158 34.6184 41.0897 34.832C41.0636 35.0456 40.9589 35.2419 40.7961 35.3826L35.5753 39.8303L45.7223 33.9734C45.9126 33.8663 46.1363 33.8349 46.3487 33.8857C46.5611 33.9364 46.7465 34.0655 46.8679 34.2471C46.9892 34.4287 47.0375 34.6494 47.0032 34.865C46.9688 35.0807 46.8543 35.2754 46.6825 35.4103L39.3211 41.0506L51.5792 33.9734C51.7728 33.8682 51.9992 33.8407 52.2124 33.8965C52.4256 33.9523 52.6095 34.0872 52.7267 34.2738C52.844 34.4604 52.8857 34.6846 52.8435 34.9008C52.8013 35.1171 52.6784 35.3092 52.4996 35.438L49.3397 37.5943L55.6144 33.9734C55.8061 33.8636 56.0324 33.8311 56.2472 33.8826C56.462 33.9341 56.6491 34.0657 56.7701 34.2505C56.8912 34.4352 56.9371 34.6593 56.8985 34.8768C56.8599 35.0943 56.7397 35.2888 56.5625 35.4207L47.9063 41.8219L61.5025 33.9734C61.6942 33.8636 61.9206 33.8311 62.1354 33.8826C62.3502 33.9341 62.5372 34.0657 62.6583 34.2505C62.7793 34.4352 62.8252 34.6593 62.7866 34.8768C62.7481 35.0943 62.6279 35.2888 62.4507 35.4207L53.8585 41.7647L67.3543 33.9647C67.548 33.8569 67.7757 33.8275 67.9905 33.8825C68.2052 33.9375 68.3908 34.0727 68.5089 34.2604C68.627 34.448 68.6687 34.6737 68.6255 34.8912C68.5822 35.1086 68.4573 35.3012 68.2764 35.4294L64.7404 37.8404L71.4553 33.9734C71.6487 33.8653 71.876 33.8354 72.0907 33.8897C72.3054 33.9441 72.4912 34.0785 72.6098 34.2655C72.7285 34.4525 72.7711 34.6778 72.7288 34.8952C72.6866 35.1126 72.5627 35.3056 72.3827 35.4346L67.3335 38.9324L74.5337 34.769C74.7239 34.6604 74.9481 34.6279 75.1612 34.6779C75.3744 34.7279 75.5607 34.8567 75.6828 35.0385C75.8049 35.2203 75.8536 35.4415 75.8192 35.6578C75.7848 35.874 75.6699 36.0692 75.4975 36.2042L66.6575 43.0456L75.7817 37.7867C75.9752 37.6757 76.204 37.6435 76.4206 37.6969C76.6371 37.7503 76.8248 37.8851 76.9445 38.0734C77.0641 38.2616 77.1066 38.4887 77.0631 38.7075C77.0196 38.9262 76.8934 39.1198 76.7108 39.2479L76.0764 39.6916C76.2657 39.6622 76.4595 39.6963 76.6273 39.7887C76.7952 39.8811 76.9277 40.0265 77.0042 40.2022C77.0807 40.3779 77.0967 40.5739 77.0499 40.7598C77.0031 40.9456 76.896 41.1106 76.7455 41.2291L74.2703 43.1548L75.7817 42.2882C75.959 42.186 76.1666 42.1498 76.368 42.186C76.5693 42.2222 76.7514 42.3284 76.8819 42.4859C77.0125 42.6435 77.0831 42.8421 77.0813 43.0467C77.0795 43.2512 77.0053 43.4486 76.872 43.6038L74.0137 46.9006L75.7817 45.8814C75.9798 45.7777 76.2102 45.7547 76.4249 45.817C76.6396 45.8792 76.8219 46.0221 76.9338 46.2156C77.0456 46.4091 77.0784 46.6384 77.0252 46.8555C76.972 47.0726 76.837 47.2608 76.6484 47.3807L70.4431 50.96C70.2658 51.0622 70.0582 51.0984 69.8568 51.0622C69.6554 51.026 69.4734 50.9198 69.3428 50.7622C69.2123 50.6047 69.1417 50.4061 69.1435 50.2015C69.1453 49.9969 69.2195 49.7996 69.3528 49.6444L72.2093 46.3338L64.1961 50.96C64.0062 51.0679 63.7826 51.1 63.5699 51.05C63.3573 51.0001 63.1714 50.8716 63.0494 50.6905C62.9274 50.5093 62.8783 50.2888 62.9119 50.073C62.9455 49.8572 63.0593 49.662 63.2307 49.5266L65.7059 47.6043L59.8905 50.96C59.6975 51.0669 59.4709 51.0962 59.257 51.0417C59.0432 50.9873 58.8581 50.8534 58.7396 50.6672C58.6211 50.4811 58.5781 50.2567 58.6193 50.0399C58.6605 49.8231 58.7829 49.6302 58.9615 49.5006L59.0637 49.4295L56.4083 50.96C56.2181 51.0686 55.9939 51.1011 55.7807 51.0511C55.5676 51.0011 55.3812 50.8722 55.2592 50.6905C55.1371 50.5087 55.0884 50.2875 55.1228 50.0712C55.1571 49.855 55.2721 49.6598 55.4445 49.5248L64.2845 42.6834L49.9499 50.96C49.7565 51.0681 49.5292 51.098 49.3145 51.0436C49.0998 50.9893 48.914 50.8548 48.7954 50.6679C48.6767 50.4809 48.6341 50.2555 48.6764 50.0381C48.7186 49.8207 48.8425 49.6278 49.0225 49.4988L54.0683 46.0044L45.4813 50.96C45.3501 51.0379 45.2006 51.0798 45.048 51.0814Z" fill="#AA6352"/>
<path d="M52.8874 58.0147C52.7333 58.0149 52.582 57.9739 52.449 57.8962C52.316 57.8184 52.2061 57.7065 52.1307 57.5721C52.0553 57.4377 52.0171 57.2857 52.02 57.1316C52.0229 56.9776 52.0669 56.8271 52.1473 56.6956L52.9048 55.4528L49.523 57.4046C49.3553 57.4992 49.1609 57.5353 48.9704 57.5071C48.7799 57.479 48.6042 57.3882 48.471 57.249C48.3379 57.1099 48.2548 56.9304 48.235 56.7389C48.2153 56.5473 48.2598 56.3546 48.3617 56.1912L50.5336 52.8407L49.0186 53.7074C48.8667 53.7945 48.6919 53.8335 48.5173 53.8193C48.3427 53.8051 48.1765 53.7384 48.0406 53.6278C47.9047 53.5173 47.8055 53.3681 47.7561 53.2001C47.7067 53.032 47.7093 52.853 47.7637 52.6864L48.1364 51.5598C48.0113 51.4847 47.908 51.3784 47.8365 51.2512C47.722 51.0525 47.6909 50.8166 47.75 50.595C47.8091 50.3734 47.9537 50.1843 48.152 50.0691L49.029 49.563C49.1812 49.475 49.3565 49.4353 49.5317 49.4492C49.7069 49.4632 49.8737 49.53 50.01 49.641C50.1463 49.7519 50.2457 49.9017 50.2949 50.0704C50.3442 50.2391 50.341 50.4188 50.2857 50.5856L50.1245 51.0692L52.7869 49.5335C52.9546 49.4389 53.1491 49.4028 53.3396 49.431C53.5301 49.4591 53.7057 49.5499 53.8389 49.689C53.9721 49.8282 54.0551 50.0076 54.0749 50.1992C54.0947 50.3907 54.0501 50.5834 53.9482 50.7468L51.7781 54.0939L54.9813 52.2444C55.1482 52.1485 55.3422 52.1108 55.5328 52.1373C55.7235 52.1639 55.8999 52.2531 56.0342 52.391C56.1685 52.5289 56.2531 52.7076 56.2746 52.8988C56.2961 53.0901 56.2533 53.2831 56.153 53.4474L55.3089 54.834C55.4731 54.8228 55.6373 54.857 55.7834 54.9328C55.9295 55.0087 56.052 55.1232 56.1374 55.2639C56.2518 55.4628 56.2826 55.6989 56.2232 55.9205C56.1637 56.1421 56.0188 56.3311 55.8202 56.446L53.3208 57.8899C53.1902 57.9698 53.0405 58.0129 52.8874 58.0147Z" fill="#FDE05E"/>
<path d="M77.0698 62.6895C77.0698 55.0923 77.5898 47.2992 77.0698 39.7211C77.2674 31.5363 67.4446 33.4967 61.709 33.2211C62.4786 26.7609 56.8245 26.4056 51.914 26.9377C46.9566 26.4767 41.5642 26.494 42.2853 33.1032C35.0954 32.5832 27.3942 32.7981 26.9314 40.3017C26.4617 47.8937 26.9314 55.6608 26.9314 63.2701C26.9314 67.3452 26.3438 70.9991 31.1816 72.0841C44.7189 73.4708 59.0276 71.3613 72.6862 72.0841C77.5933 70.9679 77.1114 66.8269 77.0698 62.6895ZM47.1074 28.5307C48.8759 28.3599 50.6568 28.3599 52.4253 28.5307C56.3617 27.8755 59.8353 28.5116 59.6932 33.3008C54.5777 33.7407 49.4333 33.7274 44.3202 33.2609C44.2526 31.2 44.341 29.12 47.1074 28.5307ZM29.859 36.8281C32.3724 34.4431 38.9001 35.0463 43.6442 35.4415C49.3729 36.0187 54.2748 35.3739 60.0745 35.2681C60.2815 35.3926 60.5196 35.4558 60.7611 35.4502C61.0026 35.4447 61.2375 35.3707 61.4386 35.2369C70.5126 35.0948 77.2033 35.1763 75.5445 46.358C74.2532 50.8265 62.8912 50.0396 56.1312 49.5005C55.9578 49.2544 55.6372 49.2631 55.3338 49.4381C53.2687 49.1849 51.1813 49.1704 49.1129 49.3948C48.9985 49.3294 48.8671 49.2998 48.7358 49.31C48.6044 49.3202 48.4791 49.3697 48.3762 49.452C40.7877 50.1193 29.71 50.8889 27.8206 45.812C27.7721 41.9744 28.169 38.4107 29.859 36.8281ZM53.8848 56.1877C48.7038 56.4945 49.2932 56.1617 49.3469 51.3864C51.2276 51.2443 52.8136 51.3257 54.6544 51.3361V54.5359C54.6544 55.2933 54.8589 56.0456 53.8848 56.1877ZM72.7937 70.0544C60.1404 69.4945 46.9792 71.2677 34.3969 70.0544C31.3514 69.5777 29.7568 70.4149 28.5365 66.2289C27.8674 60.1536 28.9577 55.7769 27.9437 48.9303C31.3012 53.222 41.3424 52.0693 47.7037 51.5199C47.5945 55.3488 47.0658 58.7652 52.115 58.2175C56.672 58.9853 56.4484 54.5653 56.275 51.3587C62.2897 50.9565 70.2024 52.702 75.4908 50.0309C75.8045 55.1581 77.6748 68.5481 72.8006 70.0492L72.7937 70.0544Z" fill="#262626"/>
<path d="M88.2962 7.82598C87.135 7.94327 86.0558 8.47789 85.2589 9.33059C84.4619 10.1833 84.0015 11.2962 83.9629 12.4627C71.6839 0.603183 49.5579 -2.11295 33.1589 4.55345C32.6158 4.73123 32.114 5.01641 31.6833 5.39202C31.2527 5.76763 30.9019 6.22601 30.652 6.7399C30.402 7.25378 30.258 7.81268 30.2284 8.38336C30.1988 8.95404 30.2842 9.52485 30.4797 10.0618C30.6751 10.5988 30.9765 11.091 31.366 11.5092C31.7554 11.9274 32.225 12.2629 32.7468 12.496C33.2686 12.729 33.8319 12.8547 34.4032 12.8657C34.9746 12.8766 35.5423 12.7726 36.0726 12.5597C42.8944 9.94724 50.2667 9.1047 57.5021 10.1107C64.7375 11.1166 71.6003 13.9383 77.4507 18.3126C76.3674 18.4317 75.3701 18.9594 74.6624 19.7882C73.9547 20.6171 73.5897 21.6846 73.6418 22.7733C73.694 23.862 74.1594 24.8897 74.9431 25.6471C75.7269 26.4045 76.77 26.8344 77.8598 26.8493C84.3511 26.39 94.3109 29.5325 92.8393 19.3093C92.5602 15.2533 94.5154 7.70292 88.2962 7.82598ZM90.8962 22.6512C90.397 27.118 81.8101 24.518 78.567 25.1507C75.2529 25.3465 74.2337 20.1396 77.8737 19.916C78.853 19.9957 81.9505 20.0061 80.8689 18.3768C74.6818 13.2621 67.2473 9.88252 59.3257 8.58362C51.4041 7.28472 43.2796 8.11312 35.7831 10.9841C32.8711 11.9877 30.5259 7.47932 33.4483 6.13078C41.8987 2.88205 51.0677 1.96759 59.9933 3.48334C68.9188 4.99909 77.2719 8.88919 84.1761 14.7455C87.596 15.8947 84.138 9.07052 88.5684 9.55585C92.7162 10.7016 90.5478 19.2244 90.8927 22.6512H90.8962Z" fill="#262626"/>
<path d="M12.7412 67.7404C10.1234 60.9636 9.24367 53.6394 10.1822 46.4355C11.1208 39.2316 13.8478 32.3772 18.1146 26.4974C18.645 32.1065 27.01 30.985 26.9632 25.6706C26.4068 19.084 29.8839 9.76384 19.522 11.284H12.242C6.62257 11.5128 6.07657 19.675 11.9924 19.9142C13.4467 19.9142 10.7427 21.9648 9.94017 23.01C5.12225 29.9715 2.09956 38.0158 1.14094 46.4275C0.182318 54.8391 1.3175 63.3573 4.4455 71.2244C6.72136 76.1505 14.4815 72.8 12.7412 67.7404ZM9.51203 71.8657C8.85903 72.04 8.1646 71.9663 7.5628 71.6587C6.961 71.351 6.4945 70.8314 6.25337 70.2C3.02119 61.7324 2.11391 52.5541 3.62569 43.6176C5.13746 34.6811 9.01319 26.3119 14.8507 19.3786C15.9999 16.952 10.1707 19.6716 9.68536 15.86C9.29883 11.6826 14.6826 13.2721 17.2496 12.9826C18.9622 12.9826 21.6454 12.4956 23.3059 13.2028C25.7551 14.2428 25.0254 18.1948 25.0254 20.2678C24.6267 22.8869 26.4952 28.6312 22.3664 28.5878C18.3607 28.2308 21.6592 21.0738 18.2723 23.5802C13.1695 29.721 9.78913 37.1067 8.47684 44.9823C7.16455 52.8579 7.96742 60.9407 10.8034 68.4042C10.9529 68.7152 11.0381 69.0531 11.0538 69.3978C11.0695 69.7424 11.0155 70.0867 10.8949 70.41C10.7743 70.7332 10.5896 71.0288 10.352 71.279C10.1144 71.5291 9.82868 71.7287 9.51203 71.8657Z" fill="#262626"/>
<path d="M67.9269 91.4386C61.1052 94.0513 53.733 94.8942 46.4977 93.8885C39.2623 92.8828 32.3994 90.0615 26.5488 85.6874C27.6322 85.5684 28.6294 85.0407 29.3371 84.2118C30.0449 83.383 30.4099 82.3154 30.3577 81.2268C30.3055 80.1381 29.8401 79.1103 29.0564 78.3529C28.2726 77.5956 27.2295 77.1656 26.1397 77.1507C19.6536 77.6118 9.68691 74.4658 11.1602 84.6907V92.1978C11.623 97.9854 19.9534 96.9991 20.0366 91.5374C20.0366 90.5615 21.3072 92.7785 22.5621 93.9537C29.5402 98.7618 37.5947 101.778 46.0146 102.736C54.4345 103.694 62.9608 102.564 70.8406 99.4466C71.3804 99.2661 71.8785 98.9793 72.3056 98.6031C72.7327 98.227 73.0801 97.7692 73.3274 97.2566C73.5747 96.744 73.7169 96.1871 73.7455 95.6187C73.7741 95.0503 73.6886 94.4819 73.494 93.9471C73.2994 93.4123 72.9996 92.9219 72.6125 92.5047C72.2253 92.0876 71.7585 91.7523 71.2396 91.5185C70.7207 91.2847 70.1603 91.1572 69.5913 91.1434C69.0224 91.1297 68.4564 91.2301 67.9269 91.4386ZM70.546 97.871C62.0954 101.12 52.9264 102.034 44.0008 100.518C35.0752 99.0016 26.7222 95.1112 19.8182 89.2546C16.3984 88.1054 19.8564 94.9295 15.426 94.4442C11.2781 93.2985 13.4465 84.7757 13.0998 81.3489C13.6008 76.8821 22.1877 79.4821 25.4308 78.8477C30.2841 79.411 28.9442 85.1397 24.2313 84.0841C23.6125 84.0841 22.2865 84.9507 23.122 85.6215C29.309 90.7374 36.7441 94.1179 44.6665 95.4171C52.5889 96.7164 60.7142 95.8877 68.2112 93.0159C71.1284 92.0123 73.4736 96.5207 70.546 97.871Z" fill="#262626"/>
<path d="M99.5778 32.8969C97.4978 27.8061 89.4673 31.148 91.2578 36.2596C93.8744 43.037 94.7527 50.3617 93.8127 57.5656C92.8726 64.7696 90.144 71.6235 85.8758 77.5025C85.7805 76.4006 85.2531 75.3811 84.4087 74.6667C83.5644 73.9523 82.4717 73.6009 81.3692 73.6892C75.5954 74.3687 77.2473 81.1893 77.0358 85.2887C75.488 95.6575 84.9329 92.1492 91.5196 92.716C97.2621 92.7767 98.0958 84.3492 92.0118 84.084C90.5576 84.084 93.2616 82.0335 94.0641 80.9883C98.8752 74.0474 101.896 66.025 102.858 57.6348C103.82 49.2445 102.693 40.7466 99.5778 32.8969ZM89.1484 84.6213C88.3424 86.0791 90.4397 85.7775 91.3029 85.7827C94.6136 85.5729 95.6362 90.8093 91.9962 91.0173C88.3302 90.7175 84.2898 91.6777 80.7001 90.7972C78.2509 89.7572 78.9806 85.8052 78.9806 83.7321C79.3793 81.1131 77.5108 75.3688 81.6396 75.4121C85.6453 75.7692 82.3468 82.9261 85.7337 80.418C90.8381 74.2768 94.2194 66.8898 95.5317 59.0127C96.844 51.1357 96.0403 43.0515 93.2026 35.5871C93.0523 35.2759 92.9664 34.9375 92.9503 34.5922C92.9341 34.247 92.988 33.9021 93.1086 33.5782C93.2293 33.2543 93.4142 32.9582 93.6523 32.7077C93.8903 32.4572 94.1767 32.2574 94.494 32.1204C95.147 31.9461 95.8414 32.0198 96.4432 32.3275C97.045 32.6351 97.5115 33.1547 97.7526 33.7861C100.987 42.2562 101.894 51.4375 100.381 60.3768C98.868 69.3161 94.9895 77.6873 89.1484 84.6213Z" fill="#262626"/>
</g>
<defs>
<clipPath id="clip0_1132_71008">
<rect width="104" height="104" fill="white"/>
</clipPath>
</defs>
</svg>
