<svg width="85" height="84" viewBox="0 0 85 84" fill="none" xmlns="http://www.w3.org/2000/svg">
<path d="M43.5033 83.16C43.3543 83.16 43.2093 83.1124 43.0892 83.0243C42.9692 82.9361 42.8804 82.812 42.8357 82.6699C42.7911 82.5278 42.7929 82.3752 42.8409 82.2342C42.889 82.0933 42.9807 81.9713 43.1029 81.886L52.0265 75.6588L40.6179 82.2388C40.4604 82.3269 40.275 82.3508 40.1004 82.3055C39.9258 82.2602 39.7754 82.1492 39.6806 81.9958C39.5858 81.8423 39.5539 81.6581 39.5916 81.4817C39.6293 81.3053 39.7336 81.1502 39.8829 81.0488L48.9185 75.1002L38.5263 81.1006C38.3688 81.1887 38.1834 81.2126 38.0088 81.1673C37.8342 81.122 37.6838 81.011 37.589 80.8575C37.4942 80.7041 37.4623 80.5199 37.5 80.3435C37.5377 80.1671 37.642 80.012 37.7913 79.9106L52.4045 70.2506L35.9993 79.7286C35.8414 79.8168 35.6556 79.8405 35.4807 79.7948C35.3058 79.749 35.1554 79.6374 35.0609 79.4832C34.9665 79.3291 34.9354 79.1444 34.974 78.9678C35.0127 78.7912 35.1182 78.6364 35.2685 78.5358L50.1337 68.9346L33.6627 78.4434C33.5043 78.5305 33.3185 78.553 33.144 78.5062C32.9695 78.4593 32.8198 78.3469 32.7264 78.1923C32.6329 78.0377 32.6028 77.8529 32.6424 77.6766C32.682 77.5003 32.7882 77.3462 32.9389 77.2464L44.4833 69.9664L31.7433 77.3206C31.5848 77.4112 31.3971 77.4363 31.2204 77.3905C31.0437 77.3447 30.8918 77.2317 30.7972 77.0756C30.7026 76.9195 30.6728 76.7325 30.714 76.5547C30.7553 76.3769 30.8644 76.2222 31.0181 76.1236L46.9557 66.0436L29.7049 76.0032C29.5459 76.0949 29.3574 76.1205 29.1798 76.0745C29.0022 76.0285 28.8497 75.9146 28.7552 75.7574C28.6607 75.6001 28.6317 75.4121 28.6745 75.2337C28.7172 75.0552 28.8283 74.9008 28.9839 74.8034L41.2773 67.1496L28.0123 74.8076C27.8535 74.904 27.663 74.9333 27.4827 74.8892C27.3023 74.8451 27.1468 74.7312 27.0505 74.5724C26.9541 74.4137 26.9248 74.2232 26.9689 74.0428C27.013 73.8624 27.1269 73.707 27.2857 73.6106L50.5985 58.7636L25.8101 73.08C25.6515 73.1647 25.4665 73.1852 25.2933 73.1371C25.1201 73.0891 24.972 72.9763 24.8797 72.8221C24.7873 72.6679 24.7579 72.4841 24.7974 72.3087C24.8369 72.1334 24.9423 71.98 25.0919 71.8802L39.6701 62.8446L24.2575 71.7416C24.098 71.8325 23.9092 71.8571 23.7318 71.8101C23.5543 71.7632 23.4024 71.6484 23.3088 71.4905C23.2152 71.3326 23.1873 71.1443 23.2312 70.9661C23.2751 70.7878 23.3872 70.634 23.5435 70.5376L25.3635 69.433L23.1501 70.7112C22.9904 70.8061 22.7996 70.8337 22.6196 70.7878C22.4396 70.742 22.2852 70.6266 22.1904 70.4669C22.0955 70.3073 22.0679 70.1165 22.1138 69.9365C22.1596 69.7565 22.275 69.6021 22.4347 69.5072L30.6065 64.5148L21.9391 69.5184C21.7805 69.6031 21.5955 69.6236 21.4223 69.5755C21.2491 69.5275 21.101 69.4147 21.0087 69.2605C20.9163 69.1063 20.8869 68.9225 20.9264 68.7471C20.9659 68.5718 21.0713 68.4184 21.2209 68.3186L39.6127 56.938L20.4817 67.9826C20.3224 68.0781 20.1317 68.1063 19.9516 68.0611C19.7715 68.016 19.6167 67.9011 19.5213 67.7418C19.4258 67.5825 19.3976 67.3919 19.4428 67.2118C19.4879 67.0316 19.6028 66.8769 19.7621 66.7814L41.7239 53.1426L18.9879 66.269C18.8294 66.3549 18.644 66.3763 18.4702 66.3288C18.2964 66.2814 18.1475 66.1688 18.0546 66.0144C17.9617 65.86 17.932 65.6758 17.9715 65.5C18.011 65.3242 18.1168 65.1704 18.2669 65.0706L45.2533 48.1866L17.4101 64.26C17.2516 64.3459 17.0662 64.3673 16.8924 64.3199C16.7186 64.2724 16.5697 64.1598 16.4768 64.0054C16.3839 63.851 16.3542 63.6668 16.3937 63.491C16.4332 63.3152 16.539 63.1614 16.6891 63.0616L45.0629 45.318L15.8925 62.16C15.7336 62.2417 15.5495 62.2595 15.3779 62.2099C15.2063 62.1602 15.0602 62.0468 14.9695 61.8929C14.8787 61.7391 14.8503 61.5563 14.8899 61.3821C14.9296 61.2079 15.0343 61.0555 15.1827 60.956L15.2163 60.9336L15.1169 60.991C14.9583 61.0799 14.7713 61.1036 14.5956 61.057C14.4198 61.0105 14.269 60.8974 14.1752 60.7417C14.0813 60.586 14.0517 60.3999 14.0927 60.2228C14.1336 60.0456 14.2418 59.8914 14.3945 59.7926L46.0667 39.9378L13.6931 58.6292C13.5341 58.7209 13.3456 58.7465 13.168 58.7005C12.9904 58.6545 12.8379 58.5406 12.7434 58.3834C12.6489 58.2261 12.6199 58.0381 12.6627 57.8596C12.7054 57.6812 12.8165 57.5268 12.9721 57.4294L43.2737 38.5546L12.4639 56.3416C12.305 56.4277 12.1191 56.4491 11.9449 56.4013C11.7706 56.3535 11.6217 56.2401 11.5291 56.085C11.4365 55.9298 11.4075 55.7449 11.4481 55.5689C11.4887 55.3928 11.5959 55.2393 11.7471 55.1404L36.4501 39.9378L11.5021 54.3382C11.3424 54.4331 11.1516 54.4607 10.9716 54.4148C10.7916 54.369 10.6372 54.2536 10.5424 54.0939C10.4475 53.9343 10.4199 53.7435 10.4658 53.5635C10.5116 53.3835 10.627 53.2291 10.7867 53.1342L30.5393 41.0676L10.7111 52.5154C10.5519 52.6034 10.3648 52.626 10.1893 52.5785C10.0138 52.5309 9.86372 52.417 9.77077 52.2607C9.67781 52.1044 9.6493 51.9181 9.69127 51.7412C9.73325 51.5643 9.84241 51.4107 9.99566 51.3128L33.6375 36.799L9.92846 50.4882C9.84922 50.5349 9.76156 50.5656 9.67048 50.5784C9.5794 50.5912 9.48669 50.586 9.39764 50.5629C9.21779 50.5165 9.06377 50.4005 8.96946 50.2404C8.87515 50.0804 8.84827 49.8895 8.89475 49.7096C8.94122 49.5298 9.05723 49.3757 9.21726 49.2814L9.89346 48.8754L9.45386 49.1288C9.29439 49.2241 9.10361 49.2521 8.9235 49.2066C8.74339 49.1612 8.5887 49.0461 8.49346 48.8866C8.39822 48.7272 8.37023 48.5364 8.41566 48.3563C8.46108 48.1762 8.57619 48.0215 8.73566 47.9262L31.8301 33.6686L8.78326 46.9686C8.62379 47.0639 8.43301 47.0919 8.2529 47.0464C8.07279 47.001 7.9181 46.8859 7.82286 46.7264C7.72762 46.567 7.69963 46.3762 7.74506 46.1961C7.79048 46.016 7.90559 45.8613 8.06506 45.766L27.2731 33.929L8.24986 44.9204C8.09115 45.0078 7.90473 45.0303 7.7298 44.9831C7.55486 44.9359 7.40505 44.8227 7.31185 44.6673C7.21866 44.5119 7.18934 44.3265 7.23008 44.1499C7.27081 43.9734 7.37841 43.8195 7.53026 43.7206L29.5523 30.0006L7.74026 42.5964C7.58134 42.6924 7.39081 42.7213 7.21056 42.6768C7.03032 42.6323 6.87514 42.5181 6.77916 42.3591C6.68318 42.2002 6.65426 42.0097 6.69876 41.8294C6.74326 41.6492 6.85754 41.494 7.01646 41.398L31.9519 25.62L7.27546 39.865C7.11714 39.9521 6.9313 39.9746 6.75679 39.9278C6.58229 39.8809 6.43264 39.7685 6.33915 39.6139C6.24566 39.4593 6.21558 39.2745 6.25518 39.0982C6.29479 38.9219 6.40102 38.7678 6.55166 38.668L29.2723 24.248L6.95486 37.128C6.79666 37.2165 6.61032 37.2401 6.43505 37.1939C6.25978 37.1478 6.10925 37.0354 6.01512 36.8806C5.921 36.7257 5.89061 36.5403 5.93036 36.3635C5.97011 36.1866 6.0769 36.0321 6.22826 35.9324L26.3883 23.1182L6.78826 34.4358C6.62879 34.5309 6.43808 34.5587 6.2581 34.5131C6.07813 34.4676 5.92361 34.3524 5.82856 34.1929C5.73351 34.0335 5.7057 33.8428 5.75125 33.6628C5.7968 33.4828 5.91199 33.3283 6.07146 33.2332L10.5795 30.4556L6.74766 32.6676C6.58934 32.7547 6.4035 32.7772 6.22899 32.7304C6.05449 32.6835 5.90484 32.5711 5.81135 32.4165C5.71786 32.2619 5.68778 32.0771 5.72738 31.9008C5.76699 31.7245 5.87322 31.5704 6.02386 31.4706L21.2839 21.7896L6.74206 30.184C6.58407 30.2759 6.39641 30.3023 6.21918 30.2577C6.04195 30.2131 5.88921 30.1009 5.7936 29.9451C5.69798 29.7894 5.66708 29.6024 5.70749 29.4241C5.7479 29.2459 5.85642 29.0905 6.00986 28.9912L24.9365 16.6446L6.73646 27.1446C6.57836 27.2346 6.39144 27.2595 6.2153 27.2141C6.03915 27.1686 5.88761 27.0564 5.79279 26.9012C5.69797 26.7459 5.66731 26.5598 5.7073 26.3824C5.7473 26.2049 5.85481 26.05 6.00706 25.9504L20.8163 16.38L6.74206 24.5C6.58533 24.5882 6.4007 24.6126 6.22643 24.5683C6.05217 24.524 5.90164 24.4143 5.80605 24.262C5.71046 24.1097 5.67714 23.9265 5.713 23.7503C5.74886 23.5741 5.85115 23.4184 5.99866 23.3156L18.1787 15.0164L6.74206 21.6174C6.58684 21.708 6.40273 21.7354 6.22787 21.6939C6.05301 21.6525 5.90079 21.5453 5.80273 21.3948C5.70467 21.2442 5.66829 21.0616 5.70111 20.8849C5.73394 20.7082 5.83346 20.551 5.97906 20.4456L13.6707 14.8456L6.74206 18.8412C6.58822 18.9266 6.40786 18.951 6.23688 18.9094C6.0659 18.8678 5.91685 18.7634 5.81941 18.6169C5.72197 18.4704 5.68328 18.2925 5.71105 18.1188C5.73882 17.945 5.83101 17.7881 5.96926 17.6792L9.85006 14.7252L6.74206 16.52C6.59289 16.6123 6.41453 16.6452 6.24226 16.6122C6.06999 16.5793 5.91637 16.4828 5.81181 16.342C5.70725 16.2012 5.65937 16.0262 5.67764 15.8518C5.69591 15.6774 5.77899 15.5161 5.91046 15.4L8.66426 12.782L6.74206 13.8922C6.60366 13.9726 6.44189 14.0032 6.2837 13.9788C6.12551 13.9544 5.98047 13.8765 5.87273 13.7581C5.765 13.6397 5.70109 13.488 5.69165 13.3282C5.68221 13.1685 5.72781 13.0103 5.82086 12.88L6.81346 11.48H6.80646C6.65282 11.4795 6.50362 11.4284 6.38187 11.3347C6.26013 11.241 6.17261 11.1098 6.1328 10.9614C6.09299 10.813 6.10312 10.6556 6.16161 10.5135C6.2201 10.3715 6.32371 10.2526 6.45646 10.1752L8.75806 8.84523C8.89632 8.76542 9.05771 8.73527 9.21546 8.75978C9.37321 8.78429 9.51784 8.86198 9.62537 8.97997C9.7329 9.09796 9.79687 9.24916 9.80668 9.4085C9.81648 9.56784 9.77152 9.72575 9.67926 9.85603L8.80986 11.0838L13.0701 8.62543C13.2186 8.51404 13.4053 8.46621 13.5891 8.49246C13.7728 8.51872 13.9387 8.61691 14.0501 8.76543C14.1615 8.91395 14.2093 9.10064 14.183 9.28442C14.1568 9.46821 14.0586 9.63404 13.9101 9.74543L11.1465 12.3564L18.6225 8.04023C18.7763 7.95482 18.9567 7.93047 19.1276 7.97205C19.2986 8.01363 19.4477 8.11807 19.5451 8.26459C19.6426 8.4111 19.6812 8.58894 19.6535 8.7627C19.6257 8.93646 19.5335 9.09338 19.3953 9.20223L15.5201 12.159L24.3793 7.04343C24.5345 6.95287 24.7186 6.92549 24.8935 6.96694C25.0683 7.00839 25.2205 7.11551 25.3186 7.2661C25.4167 7.4167 25.453 7.59924 25.4202 7.77592C25.3874 7.95261 25.2879 8.1099 25.1423 8.21523L17.4535 13.8152L33.7103 4.43523C33.867 4.34709 34.0516 4.32264 34.2259 4.36695C34.4002 4.41126 34.5507 4.52093 34.6463 4.67323C34.7419 4.82553 34.7752 5.00877 34.7393 5.18497C34.7035 5.36117 34.6012 5.51681 34.4537 5.61963L22.2737 13.9174L44.0367 1.35383C44.1943 1.26824 44.3789 1.24647 44.5521 1.29299C44.7254 1.33952 44.8742 1.4508 44.9678 1.60386C45.0614 1.75692 45.0926 1.94007 45.0551 2.11551C45.0176 2.29094 44.9141 2.44527 44.7661 2.54663L29.9611 12.1268L46.5049 2.57603C46.6624 2.48925 46.8473 2.46646 47.0213 2.51239C47.1952 2.55831 47.3447 2.66942 47.4389 2.82267C47.5331 2.97592 47.5647 3.15955 47.5271 3.33546C47.4895 3.51136 47.3857 3.66605 47.2371 3.76743L28.3119 16.1154L49.5429 3.85703C49.7008 3.7736 49.8846 3.75368 50.0567 3.80134C50.2288 3.84901 50.3762 3.96066 50.4687 4.11343C50.5612 4.26621 50.5918 4.44856 50.5542 4.62316C50.5167 4.79776 50.4138 4.95139 50.2667 5.05263L35.0067 14.735L52.1931 4.81463C52.3525 4.71939 52.5433 4.6914 52.7234 4.73682C52.9035 4.78224 53.0582 4.89735 53.1535 5.05683C53.2487 5.2163 53.2767 5.40708 53.2313 5.58719C53.1859 5.7673 53.0707 5.92199 52.9113 6.01723L48.4089 8.79063L54.1923 5.46003C54.3503 5.37438 54.5353 5.35281 54.7088 5.3998C54.8823 5.44679 55.0311 5.55873 55.1243 5.71244C55.2175 5.86614 55.2481 6.04981 55.2095 6.2254C55.171 6.40099 55.0665 6.55504 54.9175 6.65563L34.7519 19.46L57.4501 6.35883C57.6081 6.27318 57.7931 6.25161 57.9666 6.2986C58.1401 6.34559 58.2889 6.45754 58.3821 6.61124C58.4753 6.76494 58.5058 6.94861 58.4673 7.1242C58.4288 7.29979 58.3243 7.45384 58.1753 7.55443L35.4547 21.98L61.0901 7.17923C61.2484 7.09217 61.4342 7.06969 61.6087 7.1165C61.7832 7.16332 61.9329 7.27579 62.0264 7.43039C62.1199 7.585 62.15 7.76977 62.1103 7.94605C62.0707 8.12233 61.9645 8.27647 61.8139 8.37623L36.8701 24.164L65.0745 7.87923C65.2334 7.78758 65.422 7.762 65.5996 7.80798C65.7772 7.85396 65.9296 7.96783 66.0241 8.12508C66.1186 8.28233 66.1476 8.4704 66.1049 8.64881C66.0621 8.82722 65.951 8.98171 65.7955 9.07903L43.7805 22.7906L68.7901 8.35523C68.9489 8.26911 69.1349 8.24773 69.3091 8.29556C69.4833 8.3434 69.6323 8.45674 69.7248 8.61188C69.8174 8.76702 69.8464 8.95195 69.8058 9.12799C69.7652 9.30403 69.6581 9.45755 69.5069 9.55643L50.2863 21.399L72.3447 8.65903C72.4236 8.61196 72.5111 8.58091 72.6021 8.56765C72.693 8.55438 72.7857 8.55916 72.8748 8.58172C72.9639 8.60427 73.0477 8.64416 73.1214 8.6991C73.1951 8.75404 73.2573 8.82296 73.3044 8.90193C73.3514 8.98089 73.3825 9.06835 73.3958 9.15932C73.409 9.25028 73.4042 9.34297 73.3817 9.43208C73.3591 9.5212 73.3192 9.605 73.2643 9.6787C73.2094 9.7524 73.1404 9.81456 73.0615 9.86163L49.9615 24.1234L76.3725 8.87883C76.5318 8.79347 76.718 8.77306 76.892 8.82187C77.0661 8.87068 77.2145 8.98492 77.3062 9.14068C77.3979 9.29644 77.4258 9.48164 77.3841 9.65751C77.3424 9.83339 77.2342 9.98629 77.0823 10.0842L76.4607 10.4594L77.9069 9.61943C78.0657 9.53331 78.2517 9.51193 78.4259 9.55976C78.6001 9.6076 78.7491 9.72094 78.8417 9.87608C78.9342 10.0312 78.9632 10.2162 78.9226 10.3922C78.882 10.5682 78.7749 10.7217 78.6237 10.8206L54.9875 25.34L78.7567 11.62C78.9156 11.5351 79.1012 11.5147 79.2747 11.5631C79.4483 11.6116 79.5965 11.7251 79.6885 11.88C79.7805 12.035 79.8092 12.2194 79.7686 12.395C79.7281 12.5706 79.6213 12.7238 79.4707 12.8226L59.6901 24.8976L78.7581 13.8922C78.9167 13.8086 79.1014 13.7891 79.274 13.8377C79.4467 13.8862 79.5941 13.9992 79.6858 14.1533C79.7776 14.3074 79.8067 14.4908 79.7672 14.6657C79.7277 14.8407 79.6226 14.9938 79.4735 15.0934L54.7901 30.2904L78.7581 16.4514C78.9168 16.364 79.1032 16.3415 79.2781 16.3888C79.4531 16.436 79.6029 16.5492 79.6961 16.7045C79.7893 16.8599 79.8186 17.0454 79.7779 17.2219C79.7371 17.3985 79.6295 17.5524 79.4777 17.6512L49.1789 36.526L78.7581 19.446C78.9165 19.3602 79.1019 19.3388 79.2757 19.3862C79.4496 19.4336 79.5984 19.5463 79.6913 19.7007C79.7842 19.855 79.814 20.0393 79.7744 20.2151C79.7349 20.3909 79.6291 20.5447 79.4791 20.6444L47.8069 40.5006L78.7581 22.631C78.9171 22.5472 79.1023 22.5277 79.2753 22.5767C79.4483 22.6257 79.5958 22.7394 79.6872 22.8942C79.7787 23.049 79.8071 23.2331 79.7665 23.4082C79.7259 23.5834 79.6195 23.7362 79.4693 23.835L78.8771 24.192C79.0291 24.1405 79.1941 24.1423 79.3449 24.197C79.4958 24.2517 79.6236 24.3561 79.7073 24.493C79.8019 24.6505 79.8309 24.8388 79.788 25.0174C79.745 25.1961 79.6336 25.3506 79.4777 25.4478L51.1025 43.1928L78.7581 27.2328C78.917 27.1412 79.1056 27.1156 79.2832 27.1616C79.4608 27.2076 79.6132 27.3214 79.7077 27.4787C79.8022 27.6359 79.8312 27.824 79.7885 28.0024C79.7457 28.1808 79.6346 28.3353 79.4791 28.4326L52.4885 45.311L78.7581 30.1448C78.9171 30.0552 79.1048 30.0313 79.2812 30.0781C79.4576 30.125 79.6088 30.2388 79.7025 30.3955C79.7961 30.5521 79.8249 30.7392 79.7826 30.9168C79.7404 31.0943 79.6305 31.2484 79.4763 31.346L57.4963 44.9946L78.7301 32.739C78.8886 32.6544 79.0736 32.6339 79.2468 32.6819C79.4201 32.7299 79.5682 32.8427 79.6605 32.9969C79.7528 33.1512 79.7822 33.335 79.7427 33.5103C79.7032 33.6857 79.5978 33.8391 79.4483 33.9388L61.0677 45.3096L78.6055 35.1848C78.7646 35.0969 78.9517 35.0742 79.1272 35.1218C79.3027 35.1693 79.4528 35.2833 79.5458 35.4396C79.6387 35.5958 79.6672 35.7821 79.6253 35.959C79.5833 36.1359 79.4741 36.2896 79.3209 36.3874L71.1421 41.3854L78.4221 37.1854C78.5813 37.0937 78.7703 37.0682 78.9481 37.1146C79.126 37.1609 79.2785 37.2754 79.3727 37.4332C79.467 37.5918 79.495 37.7812 79.4504 37.9603C79.4058 38.1394 79.2924 38.2936 79.1347 38.3894L77.2909 39.5094L78.1813 38.9942C78.3403 38.9046 78.528 38.8807 78.7044 38.9275C78.8808 38.9744 79.032 39.0882 79.1256 39.2449C79.2193 39.4015 79.2481 39.5886 79.2058 39.7662C79.1636 39.9437 79.0536 40.0978 78.8995 40.1954L64.3395 49.2114L77.7501 41.4694C77.9088 41.3731 78.0993 41.3437 78.2797 41.3878C78.4601 41.4319 78.6155 41.5459 78.7119 41.7046C78.8082 41.8634 78.8376 42.0539 78.7935 42.2342C78.7494 42.4146 78.6354 42.5701 78.4767 42.6664L55.1639 57.5148L76.9409 44.94C77.0998 44.8484 77.2884 44.8228 77.466 44.8688C77.6436 44.9148 77.796 45.0286 77.8905 45.1859C77.985 45.3431 78.014 45.5312 77.9713 45.7096C77.9285 45.888 77.8174 46.0425 77.6619 46.1398L65.3601 53.802L76.1639 47.565C76.3224 47.4744 76.51 47.4494 76.6867 47.4951C76.8634 47.5409 77.0153 47.6539 77.1099 47.8101C77.2045 47.9662 77.2343 48.1531 77.1931 48.331C77.1518 48.5088 77.0427 48.6635 76.8891 48.762L60.9683 58.8336L75.0313 50.7136C75.1894 50.6291 75.374 50.6085 75.5469 50.6561C75.7198 50.7036 75.8679 50.8158 75.9605 50.9693C76.0532 51.1228 76.0834 51.3061 76.0449 51.4812C76.0064 51.6564 75.9022 51.8101 75.7537 51.9106L64.1799 59.206L73.7419 53.6872C73.8995 53.6016 74.0841 53.5799 74.2573 53.6264C74.4306 53.6729 74.5794 53.7842 74.673 53.9373C74.7666 54.0903 74.7978 54.2735 74.7603 54.4489C74.7228 54.6243 74.6193 54.7787 74.4713 54.88L59.6117 64.4812L71.7917 57.4476C71.9493 57.3563 72.1363 57.3299 72.313 57.3742C72.4897 57.4185 72.6422 57.5299 72.738 57.6849C72.8339 57.8398 72.8656 58.0259 72.8264 58.2038C72.7872 58.3817 72.6802 58.5374 72.5281 58.6376L57.9121 68.2976L68.9301 61.936C69.088 61.8415 69.2768 61.8129 69.4556 61.8565C69.6344 61.9001 69.7888 62.0124 69.8855 62.169C69.9821 62.3257 70.0132 62.5141 69.9719 62.6935C69.9307 62.8728 69.8204 63.0287 69.6651 63.1274L60.6225 69.0788L65.4525 66.2914C65.6084 66.2051 65.7914 66.1815 65.9641 66.2254C66.1369 66.2694 66.2863 66.3776 66.3821 66.5279C66.4778 66.6783 66.5125 66.8595 66.4792 67.0346C66.4459 67.2097 66.3471 67.3655 66.2029 67.4702L57.2835 73.696L57.5439 73.5448C57.6235 73.4942 57.7126 73.4602 57.8058 73.4449C57.8989 73.4295 57.9942 73.4332 58.0859 73.4557C58.1776 73.4781 58.2638 73.5189 58.3394 73.5756C58.4149 73.6322 58.4782 73.7035 58.5254 73.7853C58.5727 73.867 58.6029 73.9574 58.6143 74.0512C58.6257 74.1449 58.618 74.2399 58.5917 74.3306C58.5654 74.4213 58.521 74.5057 58.4612 74.5788C58.4015 74.6518 58.3275 74.7121 58.2439 74.7558L43.8533 83.0648C43.7471 83.1271 43.6263 83.16 43.5033 83.16Z" fill="#D4E6E7"/>
<path d="M42.9026 76.9173C42.7548 76.917 42.6109 76.8698 42.4916 76.7827C42.3722 76.6956 42.2835 76.5729 42.2381 76.4323C42.1927 76.2916 42.193 76.1402 42.239 75.9998C42.2849 75.8593 42.3741 75.737 42.4938 75.6503L51.01 69.5099L40.2986 75.6937C40.1425 75.781 39.9588 75.8051 39.7854 75.7613C39.612 75.7174 39.462 75.6088 39.3661 75.4577C39.2703 75.3067 39.2359 75.1247 39.27 74.9491C39.3041 74.7735 39.4042 74.6177 39.5496 74.5135L52.0362 65.8629L37.57 74.2111C37.4913 74.2587 37.404 74.2904 37.3131 74.3043C37.2222 74.3181 37.1294 74.314 37.0401 74.292C36.9508 74.27 36.8667 74.2307 36.7926 74.1762C36.7185 74.1217 36.6558 74.0532 36.6082 73.9745C36.5606 73.8958 36.5289 73.8085 36.5151 73.7176C36.5012 73.6267 36.5053 73.5339 36.5273 73.4446C36.5493 73.3553 36.5886 73.2712 36.6431 73.1971C36.6976 73.123 36.7661 73.0603 36.8448 73.0127L38.7796 71.7877L36.0566 73.3599C35.8995 73.448 35.7145 73.4721 35.5401 73.4273C35.3657 73.3825 35.2153 73.2722 35.1201 73.1193C35.0249 72.9664 34.9923 72.7828 35.029 72.6065C35.0658 72.4302 35.1691 72.2748 35.3174 72.1727L51.7408 61.2009L33.4414 71.7681C33.2834 71.86 33.0957 71.8864 32.9185 71.8418C32.7413 71.7971 32.5886 71.685 32.4929 71.5292C32.3973 71.3734 32.3664 71.1865 32.4068 71.0082C32.4472 70.83 32.5558 70.6746 32.7092 70.5753L48.966 59.9899L31.235 70.2253C31.0772 70.3098 30.8931 70.3306 30.7204 70.2835C30.5477 70.2364 30.3996 70.1249 30.3066 69.972C30.2136 69.8191 30.1827 69.6364 30.2202 69.4614C30.2577 69.2864 30.3609 69.1324 30.5084 69.0311L46.5664 58.7285L29.3002 68.6965C29.1412 68.7861 28.9535 68.81 28.777 68.7632C28.6006 68.7164 28.4495 68.6025 28.3558 68.4459C28.2622 68.2892 28.2334 68.1022 28.2756 67.9246C28.3179 67.747 28.4278 67.593 28.582 67.4953L30.213 66.4901L28.1228 67.6969C27.9641 67.7843 27.7777 67.8068 27.6027 67.7596C27.4278 67.7124 27.278 67.5992 27.1848 67.4438C27.0916 67.2884 27.0623 67.103 27.103 66.9264C27.1437 66.7498 27.2514 66.596 27.4032 66.4971L35.4098 61.5257L26.818 66.4859C26.6598 66.5704 26.4753 66.591 26.3024 66.5435C26.1295 66.4959 25.9814 66.3838 25.8887 66.2302C25.7961 66.0767 25.7659 65.8935 25.8044 65.7183C25.8429 65.5432 25.9471 65.3895 26.0956 65.2889L42.6828 54.8253L25.2346 64.8969C25.0762 64.9794 24.8923 64.9982 24.7205 64.9496C24.5487 64.9009 24.4019 64.7884 24.3104 64.6351C24.2188 64.4818 24.1892 64.2993 24.2278 64.1249C24.2664 63.9505 24.3701 63.7975 24.5178 63.6971L33.776 57.9697L24.0474 63.5865C23.8884 63.6761 23.7007 63.7 23.5242 63.6532C23.3478 63.6064 23.1967 63.4925 23.103 63.3359C23.0094 63.1792 22.9806 62.9922 23.0228 62.8146C23.0651 62.637 23.175 62.483 23.3292 62.3853L33.0368 56.3891L22.9092 62.2355C22.7502 62.3251 22.5625 62.349 22.386 62.3022C22.2096 62.2554 22.0585 62.1415 21.9648 61.9849C21.8712 61.8282 21.8424 61.6412 21.8846 61.4636C21.9269 61.286 22.0368 61.132 22.191 61.0343L32.1604 54.8869L21.8284 60.8509C21.6687 60.9458 21.4779 60.9733 21.298 60.9275C21.118 60.8817 20.9636 60.7663 20.8687 60.6066C20.7738 60.447 20.7463 60.2561 20.7921 60.0762C20.8379 59.8962 20.9533 59.7418 21.113 59.6469L27.441 55.7703L20.8834 59.5503C20.7243 59.6383 20.5372 59.6609 20.3617 59.6134C20.1862 59.5658 20.0361 59.4519 19.9431 59.2956C19.8501 59.1393 19.8216 58.953 19.8636 58.7761C19.9056 58.5992 20.0148 58.4456 20.168 58.3477L24.69 55.5939L20.021 58.2889C19.8621 58.3849 19.6715 58.4138 19.4913 58.3693C19.3111 58.3248 19.1559 58.2105 19.0599 58.0516C18.9639 57.8927 18.935 57.7022 18.9795 57.5219C19.024 57.3417 19.1383 57.1865 19.2972 57.0905L42.3692 42.5599L18.7386 56.2001C18.5791 56.291 18.3903 56.3156 18.2129 56.2686C18.0355 56.2216 17.8836 56.1069 17.7899 55.949C17.6963 55.7911 17.6684 55.6028 17.7123 55.4245C17.7562 55.2463 17.8684 55.0925 18.0246 54.9961L21.7766 52.7113L17.9966 54.8897C17.8375 54.9777 17.6504 55.0003 17.4749 54.9528C17.2994 54.9052 17.1493 54.7912 17.0563 54.635C16.9633 54.4787 16.9348 54.2924 16.9768 54.1155C17.0188 53.9386 17.128 53.785 17.2812 53.6871L24.788 49.1021L17.2588 53.4421C17.0991 53.537 16.9083 53.5645 16.7284 53.5187C16.5484 53.4729 16.394 53.3575 16.2991 53.1978C16.2042 53.0382 16.1767 52.8473 16.2225 52.6674C16.2683 52.4874 16.3837 52.333 16.5434 52.2381L25.544 46.7375L16.5518 51.9399C16.3923 52.0352 16.2015 52.0631 16.0214 52.0177C15.8413 51.9723 15.6866 51.8572 15.5914 51.6977C15.4962 51.5382 15.4682 51.3475 15.5136 51.1674C15.559 50.9872 15.6741 50.8326 15.8336 50.7373L32.6336 40.3675L15.7692 50.1031C15.6112 50.1888 15.4262 50.2103 15.2527 50.1633C15.0792 50.1164 14.9304 50.0044 14.8372 49.8507C14.7439 49.697 14.7134 49.5133 14.7519 49.3377C14.7904 49.1621 14.895 49.0081 15.044 48.9075L41.35 32.2293L14.82 47.5453C14.6613 47.6327 14.4749 47.6552 14.2999 47.608C14.125 47.5608 13.9752 47.4476 13.882 47.2922C13.7888 47.1368 13.7595 46.9514 13.8002 46.7748C13.8409 46.5983 13.9486 46.4444 14.1004 46.3455L29.3604 36.8703L14.2208 45.6147C14.0624 45.7005 13.877 45.722 13.7031 45.6745C13.5293 45.6271 13.3805 45.5145 13.2876 45.3601C13.1947 45.2057 13.1649 45.0214 13.2044 44.8456C13.244 44.6699 13.3498 44.5161 13.4998 44.4163L29.2736 34.5603L13.6762 43.5637C13.518 43.6482 13.3335 43.6688 13.1606 43.6213C12.9877 43.5737 12.8396 43.4616 12.7469 43.308C12.6543 43.1545 12.6241 42.9713 12.6626 42.7961C12.7011 42.621 12.8053 42.4673 12.9538 42.3667L30.0338 31.5867L13.189 41.3083C13.1103 41.3559 13.023 41.3876 12.9321 41.4015C12.8412 41.4153 12.7484 41.4112 12.6591 41.3892C12.5698 41.3672 12.4857 41.3279 12.4116 41.2734C12.3375 41.2189 12.2748 41.1504 12.2272 41.0717C12.1796 40.993 12.1479 40.9057 12.1341 40.8148C12.1202 40.7239 12.1243 40.6311 12.1463 40.5418C12.1683 40.4525 12.2076 40.3684 12.2621 40.2943C12.3166 40.2202 12.3851 40.1575 12.4638 40.1099L27.9408 30.3099L12.811 39.0459C12.6525 39.1365 12.4649 39.1616 12.2882 39.1158C12.1114 39.07 11.9596 38.957 11.865 38.8009C11.7704 38.6447 11.7405 38.4578 11.7818 38.28C11.823 38.1022 11.9321 37.9475 12.0858 37.8489L26.5058 28.6761L12.5408 36.7359C12.3823 36.8265 12.1947 36.8516 12.018 36.8058C11.8412 36.76 11.6894 36.647 11.5948 36.4909C11.5002 36.3347 11.4703 36.1478 11.5116 35.97C11.5528 35.7921 11.6619 35.6375 11.8156 35.5389L21.8718 29.1843L12.3966 34.6541C12.2381 34.7388 12.053 34.7592 11.8798 34.7112C11.7066 34.6632 11.5585 34.5504 11.4662 34.3962C11.3739 34.242 11.3444 34.0582 11.3839 33.8828C11.4234 33.7075 11.5289 33.554 11.6784 33.4543L13.4452 32.3539L12.3546 32.9839C12.1973 33.0734 12.0114 33.0985 11.836 33.0539C11.6605 33.0092 11.5092 32.8984 11.4138 32.7446C11.3183 32.5908 11.2861 32.4061 11.324 32.2291C11.3618 32.0521 11.4668 31.8966 11.6168 31.7953L28.4868 20.5239L12.342 29.8451C12.1854 29.931 12.0019 29.9537 11.829 29.9087C11.6562 29.8637 11.5071 29.7543 11.4123 29.6029C11.3175 29.4516 11.2841 29.2697 11.319 29.0945C11.3539 28.9194 11.4544 28.7642 11.6 28.6607L27.1092 18.1481L12.342 26.6741C12.1846 26.7622 11.9992 26.7861 11.8246 26.7408C11.6499 26.6955 11.4995 26.5845 11.4047 26.431C11.3099 26.2775 11.278 26.0934 11.3157 25.917C11.3534 25.7405 11.4578 25.5855 11.607 25.4841L15.926 22.6309L12.342 24.7001C12.1873 24.7868 12.0054 24.8116 11.8331 24.7693C11.6608 24.7271 11.511 24.621 11.4139 24.4726C11.3168 24.3241 11.2798 24.1443 11.3101 23.9696C11.3405 23.7948 11.4361 23.6381 11.5776 23.5311L16.745 19.7273L12.342 22.2683C12.1879 22.356 12.0063 22.382 11.8338 22.341C11.6613 22.2999 11.5107 22.195 11.4126 22.0473C11.3145 21.8996 11.2761 21.7202 11.3052 21.5452C11.3342 21.3703 11.4286 21.213 11.5692 21.1049L13.1162 19.9289L12.342 20.3755C12.1914 20.4619 12.014 20.4892 11.8443 20.4521C11.6747 20.415 11.5249 20.3162 11.424 20.1748C11.3232 20.0335 11.2785 19.8597 11.2986 19.6872C11.3187 19.5147 11.4021 19.3559 11.5328 19.2415L12.265 18.6045C12.1305 18.6613 11.9816 18.6745 11.8392 18.6424C11.6967 18.6103 11.5679 18.5345 11.4707 18.4256C11.3735 18.3167 11.3128 18.1801 11.297 18.0349C11.2813 17.8898 11.3114 17.7433 11.383 17.6161L12.013 16.4961C11.864 16.4848 11.7226 16.426 11.6094 16.3286C11.4962 16.2311 11.4171 16.0999 11.3838 15.9543C11.3505 15.8086 11.3646 15.6561 11.4242 15.5191C11.4837 15.3821 11.5856 15.2677 11.7148 15.1927L13.406 14.2127C13.5389 14.1359 13.6933 14.1049 13.8454 14.1245C13.9976 14.144 14.1392 14.213 14.2483 14.3209C14.3575 14.4288 14.4281 14.5695 14.4495 14.7215C14.4708 14.8734 14.4416 15.0282 14.3664 15.1619L13.8512 16.0789L17.816 13.7899C17.9665 13.7038 18.1436 13.6766 18.3129 13.7136C18.4823 13.7506 18.6319 13.8491 18.7328 13.9901C18.8337 14.1311 18.8787 14.3045 18.8591 14.4768C18.8395 14.649 18.7566 14.8078 18.6266 14.9225L17.9196 15.5399L21.9796 13.1921C22.1335 13.1031 22.3155 13.076 22.4887 13.1163C22.6619 13.1566 22.8132 13.2613 22.912 13.4091C23.0111 13.5573 23.05 13.7378 23.0206 13.9137C22.9912 14.0896 22.8958 14.2476 22.7538 14.3555L21.2012 15.5357L26.972 12.2037C27.1267 12.117 27.3086 12.0923 27.4809 12.1345C27.6532 12.1767 27.803 12.2828 27.9001 12.4313C27.9972 12.5797 28.0343 12.7595 28.0039 12.9343C27.9735 13.109 27.8779 13.2657 27.7364 13.3727L22.5662 17.1793L35.3804 9.78031C35.538 9.68894 35.725 9.6626 35.9017 9.70689C36.0784 9.75119 36.2309 9.86262 36.3268 10.0175C36.4226 10.1724 36.4543 10.3586 36.4151 10.5365C36.3759 10.7144 36.2689 10.87 36.1168 10.9703L31.809 13.8179L43.2316 7.22391C43.3886 7.13446 43.574 7.10915 43.7492 7.1533C43.9244 7.19744 44.0758 7.30761 44.1716 7.46077C44.2674 7.61392 44.3003 7.7982 44.2634 7.97506C44.2265 8.15192 44.1227 8.30766 43.9736 8.40971L28.47 18.9223L46.3438 8.60431C46.5008 8.51862 46.6846 8.49624 46.8575 8.54179C47.0304 8.58733 47.1794 8.69733 47.2738 8.84922C47.3682 9.00111 47.4009 9.18337 47.3651 9.35859C47.3294 9.53382 47.2279 9.68872 47.0816 9.79151L30.2116 21.0615L49.6198 9.85171C49.7791 9.75629 49.9698 9.72805 50.1499 9.77321C50.33 9.81837 50.4848 9.93322 50.5802 10.0925C50.6756 10.2518 50.7039 10.4425 50.6587 10.6226C50.6135 10.8027 50.4987 10.9575 50.3394 11.0529L48.5432 12.1729L51.4832 10.4747C51.6421 10.3785 51.8327 10.3494 52.0131 10.3938C52.1935 10.4382 52.3488 10.5524 52.445 10.7113C52.5412 10.8702 52.5703 11.0608 52.5259 11.2412C52.4815 11.4216 52.3673 11.5769 52.2084 11.6731L42.1704 18.0151L53.943 11.2195C54.1012 11.1311 54.2875 11.1075 54.4628 11.1536C54.6381 11.1998 54.7886 11.3121 54.8827 11.467C54.9769 11.6219 55.0073 11.8072 54.9675 11.9841C54.9277 12.1609 54.821 12.3154 54.6696 12.4151L40.2426 21.5921L56.89 11.9839C57.0483 11.8969 57.2342 11.8744 57.4087 11.9212C57.5832 11.968 57.7328 12.0805 57.8263 12.2351C57.9198 12.3897 57.9499 12.5745 57.9103 12.7507C57.8707 12.927 57.7644 13.0812 57.6138 13.1809L42.1396 22.9809L59.9938 12.6699C60.1521 12.5829 60.338 12.5604 60.5125 12.6072C60.687 12.654 60.8366 12.7665 60.9301 12.9211C61.0236 13.0757 61.0537 13.2605 61.0141 13.4367C60.9745 13.613 60.8682 13.7672 60.7176 13.8669L43.6376 24.6469L63.337 13.2775C63.4959 13.1859 63.6845 13.1603 63.8621 13.2063C64.0397 13.2522 64.1922 13.3661 64.2867 13.5234C64.3812 13.6806 64.4101 13.8687 64.3674 14.0471C64.3246 14.2255 64.2135 14.38 64.058 14.4773L48.2856 24.3319L66.6256 13.7423C66.7846 13.6527 66.9723 13.6288 67.1488 13.6756C67.3252 13.7224 67.4763 13.8363 67.57 13.993C67.6637 14.1496 67.6924 14.3367 67.6502 14.5142C67.6079 14.6918 67.498 14.8458 67.3438 14.9435L52.1104 24.4019L69.959 14.0965C70.1173 14.0095 70.3032 13.987 70.4777 14.0338C70.6522 14.0806 70.8018 14.1931 70.8953 14.3477C70.9888 14.5023 71.0189 14.6871 70.9793 14.8633C70.9397 15.0396 70.8334 15.1938 70.6828 15.2935L44.3712 31.9731L73.13 15.3691C73.289 15.2795 73.4767 15.2556 73.6532 15.3024C73.8296 15.3492 73.9807 15.4631 74.0744 15.6198C74.1681 15.7764 74.1968 15.9635 74.1546 16.141C74.1123 16.3186 74.0024 16.4726 73.8482 16.5703L57.0482 26.9429L73.158 17.6399C73.3169 17.555 73.5025 17.5346 73.6761 17.583C73.8497 17.6315 73.9979 17.745 74.0899 17.8999C74.1819 18.0549 74.2106 18.2393 74.17 18.4149C74.1294 18.5905 74.0227 18.7436 73.872 18.8425L64.87 24.3501L73.1622 19.5635C73.3211 19.4786 73.5067 19.4582 73.6803 19.5066C73.8539 19.5551 74.0021 19.6686 74.0941 19.8235C74.1861 19.9785 74.2148 20.1629 74.1742 20.3385C74.1336 20.5141 74.0269 20.6672 73.8762 20.7661L66.3624 25.3553L73.1622 21.4353C73.321 21.3527 73.5053 21.334 73.6774 21.3832C73.8495 21.4323 73.9963 21.5455 74.0875 21.6994C74.1788 21.8534 74.2076 22.0365 74.168 22.211C74.1284 22.3856 74.0235 22.5383 73.8748 22.6379L70.148 24.9073L73.1622 23.1685C73.3204 23.084 73.5049 23.0634 73.6778 23.111C73.8507 23.1585 73.9988 23.2706 74.0915 23.4242C74.1841 23.5777 74.2143 23.761 74.1758 23.9361C74.1373 24.1113 74.0331 24.265 73.8846 24.3655L50.7986 38.9017L73.158 25.9923C73.3175 25.9014 73.5063 25.8768 73.6837 25.9238C73.8611 25.9708 74.013 26.0856 74.1067 26.2434C74.2003 26.4013 74.2282 26.5897 74.1843 26.7679C74.1404 26.9461 74.0282 27.1 73.872 27.1963L69.3724 29.9445L73.1524 27.7591C73.3119 27.6682 73.5007 27.6436 73.6781 27.6906C73.8555 27.7376 74.0074 27.8524 74.1011 28.0102C74.1947 28.1681 74.2226 28.3565 74.1787 28.5347C74.1348 28.7129 74.0226 28.8668 73.8664 28.9631L67.537 32.8411L73.1524 29.6001C73.3112 29.514 73.4972 29.4926 73.6714 29.5405C73.8456 29.5883 73.9946 29.7016 74.0872 29.8568C74.1798 30.0119 74.2088 30.1968 74.1681 30.3729C74.1275 30.5489 74.0204 30.7024 73.8692 30.8013L63.8998 36.9599L73.1482 31.6203C73.3072 31.5307 73.4949 31.5068 73.6714 31.5536C73.8478 31.6004 73.9989 31.7143 74.0926 31.871C74.1863 32.0276 74.215 32.2147 74.1728 32.3922C74.1305 32.5698 74.0206 32.7238 73.8664 32.8215L64.1252 38.8415L73.0852 33.6685C73.2437 33.5838 73.4288 33.5634 73.602 33.6114C73.7752 33.6594 73.9233 33.7722 74.0156 33.9264C74.1079 34.0807 74.1374 34.2645 74.0979 34.4398C74.0584 34.6152 73.9529 34.7686 73.8034 34.8683L64.5536 40.5887L72.9326 35.7531C73.0912 35.6642 73.2782 35.6406 73.4539 35.6871C73.6297 35.7336 73.7804 35.8467 73.8743 36.0024C73.9681 36.1581 73.9977 36.3442 73.9568 36.5214C73.9159 36.6985 73.8076 36.8528 73.655 36.9515L57.0748 47.4095L72.5882 38.4495C72.7469 38.3621 72.9333 38.3396 73.1083 38.3868C73.2832 38.434 73.433 38.5472 73.5262 38.7026C73.6194 38.858 73.6487 39.0435 73.608 39.22C73.5673 39.3966 73.4597 39.5505 73.3078 39.6493L65.3376 44.5997L72.1976 40.6363C72.3571 40.5413 72.5478 40.5135 72.7278 40.559C72.9077 40.6046 73.0623 40.7197 73.1573 40.8792C73.2524 41.0387 73.2802 41.2294 73.2346 41.4094C73.1891 41.5894 73.0739 41.7439 72.9144 41.8389L71.2344 42.8735L71.7664 42.5669C71.9246 42.4785 72.1109 42.4549 72.2862 42.501C72.4615 42.5472 72.612 42.6595 72.7061 42.8144C72.8003 42.9693 72.8307 43.1546 72.7909 43.3315C72.7511 43.5083 72.6444 43.6628 72.493 43.7625L56.4322 54.0623L70.89 45.7183C71.0478 45.6301 71.2336 45.6064 71.4085 45.6522C71.5834 45.6979 71.7339 45.8096 71.8283 45.9637C71.9228 46.1179 71.9539 46.3026 71.9152 46.4792C71.8765 46.6558 71.771 46.8106 71.6208 46.9111L55.3682 57.4923L69.5712 49.2925C69.7287 49.199 69.9166 49.1709 70.0945 49.2143C70.2725 49.2577 70.4264 49.3691 70.5231 49.5247C70.6199 49.6802 70.6518 49.8675 70.612 50.0463C70.5722 50.2251 70.464 50.3812 70.3104 50.4811L53.8814 61.4599L67.5664 53.5611C67.7247 53.4741 67.9106 53.4516 68.0851 53.4984C68.2596 53.5452 68.4092 53.6577 68.5027 53.8123C68.5962 53.9669 68.6263 54.1517 68.5867 54.3279C68.5471 54.5042 68.4408 54.6584 68.2902 54.7581L66.1664 56.1035C66.3264 56.0436 66.5028 56.0443 66.6623 56.1054C66.8219 56.1665 66.9535 56.2839 67.0325 56.4353C67.1115 56.5868 67.1324 56.762 67.0913 56.9278C67.0501 57.0936 66.9497 57.2386 66.809 57.3355L54.3196 65.9889L62.2996 61.3801C62.4549 61.2931 62.6375 61.2685 62.8102 61.3113C62.983 61.3541 63.133 61.4611 63.2296 61.6106C63.3263 61.76 63.3624 61.9407 63.3306 62.1158C63.2988 62.291 63.2015 62.4474 63.0584 62.5533L54.5436 68.6923L55.0938 68.3745C55.1735 68.3239 55.2626 68.2899 55.3557 68.2745C55.4489 68.2592 55.5442 68.2629 55.6359 68.2854C55.7276 68.3078 55.8138 68.3486 55.8893 68.4052C55.9648 68.4619 56.0281 68.5332 56.0754 68.6149C56.1226 68.6967 56.1528 68.7871 56.1642 68.8809C56.1756 68.9746 56.1679 69.0696 56.1416 69.1603C56.1153 69.251 56.0709 69.3354 56.0112 69.4084C55.9514 69.4815 55.8775 69.5418 55.7938 69.5855L43.2498 76.8277C43.144 76.8878 43.0242 76.9187 42.9026 76.9173Z" fill="#2AA084"/>
<path d="M51.2398 31.9857C51.0882 31.9864 50.9406 31.9372 50.8198 31.8457C50.7099 31.7618 50.6273 31.6472 50.5825 31.5164C50.5376 31.3856 50.5325 31.2444 50.5678 31.1107L50.9332 29.7275L50.0778 30.2217C49.9538 30.2936 49.8108 30.3258 49.6679 30.3138C49.5251 30.3018 49.3894 30.2462 49.2792 30.1546C49.1689 30.063 49.0895 29.9397 49.0515 29.8015C49.0136 29.6633 49.019 29.5168 49.067 29.3817L49.8006 27.2523L48.0842 28.2435C47.9422 28.3248 47.7761 28.3538 47.6149 28.3254C47.4538 28.2969 47.3076 28.2129 47.2019 28.088C47.0963 27.963 47.0377 27.8049 47.0365 27.6413C47.0353 27.4776 47.0914 27.3187 47.1952 27.1921L47.3464 27.0073L46.82 27.3111C46.6889 27.3862 46.5371 27.4169 46.3871 27.3986C46.2372 27.3803 46.0972 27.314 45.988 27.2096C45.8789 27.1052 45.8064 26.9682 45.7815 26.8192C45.7566 26.6702 45.7806 26.5172 45.8498 26.3829L46.9698 24.2269L43.8534 26.0259C43.7082 26.1101 43.5375 26.1392 43.3725 26.1081C43.2076 26.0769 43.0593 25.9875 42.9547 25.8562C42.8502 25.7248 42.7964 25.5602 42.803 25.3925C42.8097 25.2247 42.8764 25.065 42.991 24.9423L43.6182 24.2703L40.9974 25.7823C40.9177 25.833 40.8286 25.867 40.7355 25.8823C40.6423 25.8976 40.547 25.8939 40.4553 25.8715C40.3636 25.849 40.2774 25.8082 40.2019 25.7516C40.1264 25.695 40.0631 25.6236 40.0158 25.5419C39.9686 25.4602 39.9384 25.3697 39.927 25.276C39.9156 25.1823 39.9233 25.0872 39.9496 24.9965C39.9759 24.9059 40.0203 24.8215 40.08 24.7484C40.1398 24.6753 40.2138 24.6151 40.2974 24.5713L46.9614 20.7199C47.1065 20.6367 47.2766 20.6083 47.4409 20.6396C47.6051 20.671 47.7528 20.7602 47.857 20.8909C47.9612 21.0217 48.0152 21.1855 48.0091 21.3527C48.003 21.5198 47.9373 21.6792 47.8238 21.8021L47.1994 22.4741L48.3502 21.8161C48.4813 21.741 48.6331 21.7103 48.7831 21.7286C48.933 21.7469 49.073 21.8132 49.1822 21.9176C49.2913 22.0221 49.3638 22.159 49.3887 22.308C49.4136 22.457 49.3897 22.6101 49.3204 22.7443L48.2004 24.8989L50.0204 23.8489C50.1625 23.7676 50.3285 23.7387 50.4897 23.7671C50.6509 23.7955 50.797 23.8795 50.9027 24.0045C51.0083 24.1295 51.0669 24.2875 51.0681 24.4512C51.0694 24.6148 51.0132 24.7738 50.9094 24.9003L50.754 25.0907C50.878 25.0278 51.018 25.0032 51.156 25.0201C51.294 25.037 51.4239 25.0946 51.5291 25.1856C51.6342 25.2767 51.7099 25.397 51.7464 25.5312C51.7829 25.6653 51.7786 25.8074 51.734 25.9391L51.0004 28.0685L51.6892 27.6709C51.8088 27.6021 51.9461 27.5702 52.0838 27.5792C52.2215 27.5882 52.3535 27.6377 52.4632 27.7215C52.5728 27.8052 52.6553 27.9196 52.7002 28.0501C52.745 28.1806 52.7503 28.3214 52.7154 28.4549L52.3402 29.8787C52.5036 29.8409 52.6752 29.863 52.8237 29.941C52.9721 30.019 53.0877 30.1477 53.1492 30.3038C53.2108 30.4598 53.2143 30.6327 53.1591 30.7911C53.1039 30.9495 52.9936 31.0828 52.8484 31.1667L51.5884 31.8905C51.4825 31.9522 51.3623 31.985 51.2398 31.9857Z" fill="#1D7765"/>
<path d="M37.9898 29.8031C37.8652 29.8031 37.7429 29.7699 37.6355 29.7069C37.5281 29.6439 37.4394 29.5534 37.3786 29.4447C37.3178 29.336 37.2872 29.213 37.2898 29.0885C37.2924 28.9639 37.3281 28.8424 37.3934 28.7363L37.8624 27.9719L37.0434 28.4437C36.8904 28.5326 36.7095 28.5603 36.5369 28.5212C36.3644 28.4821 36.213 28.3791 36.1133 28.2329C36.0136 28.0868 35.973 27.9083 35.9996 27.7333C36.0261 27.5584 36.118 27.4 36.2566 27.2901L38.0766 25.8481L35.7778 27.1739C35.6311 27.2585 35.4587 27.287 35.2926 27.2542C35.1265 27.2214 34.9778 27.1295 34.8743 26.9956C34.7707 26.8616 34.7192 26.6946 34.7294 26.5256C34.7395 26.3566 34.8106 26.1969 34.9294 26.0763L38.0864 22.8815L33.9004 25.2979C33.7541 25.3823 33.5823 25.411 33.4166 25.3787C33.2508 25.3464 33.1023 25.2552 32.9985 25.122C32.8947 24.9889 32.8425 24.8227 32.8515 24.654C32.8606 24.4854 32.9303 24.3258 33.0478 24.2045L35.9178 21.2519L32.0902 23.4611C31.9435 23.5457 31.7711 23.5742 31.605 23.5414C31.4389 23.5086 31.2902 23.4167 31.1867 23.2828C31.0831 23.1488 31.0316 22.9818 31.0418 22.8128C31.0519 22.6438 31.123 22.4841 31.2418 22.3635L36.4652 17.0799C36.4026 17.0011 36.3577 16.9098 36.3335 16.8121C36.3094 16.7145 36.3066 16.6127 36.3253 16.5139C36.3441 16.415 36.3839 16.3214 36.4421 16.2393C36.5003 16.1572 36.5755 16.0887 36.6626 16.0383L38.6898 14.8679C38.8365 14.7843 39.0084 14.7566 39.1739 14.7898C39.3394 14.823 39.4873 14.9148 39.5905 15.0485C39.6936 15.1821 39.7449 15.3485 39.7351 15.517C39.7252 15.6855 39.6548 15.8448 39.5368 15.9655L35.8968 19.6447L39.5774 17.5209C39.7237 17.4365 39.8955 17.4078 40.0612 17.4401C40.227 17.4724 40.3755 17.5636 40.4793 17.6967C40.5831 17.8299 40.6353 17.9961 40.6263 18.1647C40.6172 18.3333 40.5475 18.493 40.43 18.6143L37.56 21.5669L41.8874 19.0693C42.0339 18.9905 42.2037 18.9665 42.3663 19.0015C42.5289 19.0365 42.6737 19.1283 42.7748 19.2604C42.8759 19.3925 42.9266 19.5562 42.9179 19.7224C42.9093 19.8885 42.8417 20.0461 42.7274 20.1669L39.5676 23.3631L45.5064 19.9373C45.6593 19.8501 45.8395 19.8237 46.011 19.8634C46.1825 19.9031 46.3327 20.0059 46.4318 20.1514C46.5309 20.2969 46.5715 20.4744 46.5455 20.6485C46.5196 20.8226 46.429 20.9806 46.2918 21.0909L40.528 25.6787C40.5798 25.7846 40.6039 25.9018 40.5983 26.0195C40.5927 26.1372 40.5574 26.2516 40.4958 26.3521L39.9148 27.2971C40.0677 27.3001 40.2154 27.3531 40.3353 27.448C40.4553 27.5429 40.5408 27.6744 40.5789 27.8226C40.617 27.9707 40.6056 28.1272 40.5463 28.2682C40.4871 28.4092 40.3833 28.5269 40.2508 28.6033L38.3356 29.7093C38.2306 29.7704 38.1113 29.8027 37.9898 29.8031Z" fill="#1D7765"/>
<path d="M45.5919 55.4624C45.4727 55.4622 45.3555 55.4317 45.2514 55.3736C45.1474 55.3155 45.0599 55.2318 44.9972 55.1305C44.9345 55.0291 44.8988 54.9134 44.8933 54.7943C44.8879 54.6753 44.9129 54.5568 44.9661 54.4502L45.4967 53.3889C45.3541 53.3655 45.2222 53.2986 45.1192 53.1973C45.0162 53.0959 44.947 52.9652 44.9212 52.823C44.8955 52.6808 44.9143 52.5342 44.9753 52.4031C45.0362 52.2721 45.1361 52.1631 45.2615 52.0912L46.6867 51.2693C46.8171 51.1923 46.969 51.1597 47.1195 51.1764C47.2701 51.193 47.4112 51.2581 47.5216 51.3617C47.6321 51.4654 47.7059 51.6021 47.7321 51.7513C47.7582 51.9005 47.7353 52.0541 47.6667 52.1892L47.2663 52.9899L48.1693 52.4692C48.2489 52.4185 48.338 52.3845 48.4312 52.3692C48.5243 52.3538 48.6196 52.3575 48.7113 52.38C48.803 52.4025 48.8892 52.4432 48.9648 52.4999C49.0403 52.5565 49.1036 52.6278 49.1508 52.7096C49.1981 52.7913 49.2283 52.8818 49.2397 52.9755C49.2511 53.0692 49.2434 53.1643 49.2171 53.2549C49.1908 53.3456 49.1464 53.43 49.0866 53.5031C49.0268 53.5762 48.9529 53.6364 48.8693 53.6801L45.9419 55.3686C45.8354 55.43 45.7147 55.4623 45.5919 55.4624Z" fill="#1D7765"/>
<path d="M45.9138 66.1514C45.7706 66.1511 45.631 66.107 45.5137 66.0249C45.3963 65.9428 45.307 65.8267 45.2577 65.6923C45.2084 65.5579 45.2015 65.4116 45.238 65.2731C45.2745 65.1346 45.3525 65.0107 45.4616 64.918L47.5434 63.1484L45.925 64.0822C45.7736 64.1702 45.5946 64.1982 45.4234 64.1607C45.2523 64.1232 45.1015 64.0228 45.0007 63.8795C44.8999 63.7362 44.8566 63.5603 44.8792 63.3866C44.9018 63.2128 44.9887 63.0539 45.1228 62.9412L46.3254 61.929L45.9054 62.174C45.7613 62.2563 45.5927 62.2847 45.4296 62.2542C45.2664 62.2237 45.1195 62.1362 45.0148 62.0074C44.9102 61.8785 44.8548 61.7167 44.8584 61.5508C44.862 61.3849 44.9245 61.2257 45.0346 61.1016L47.5098 58.3478L41.5332 61.796C41.3826 61.8823 41.2052 61.9096 41.0356 61.8725C40.8659 61.8354 40.7161 61.7366 40.6153 61.5953C40.5144 61.4539 40.4697 61.2801 40.4898 61.1077C40.5099 60.9352 40.5934 60.7763 40.724 60.662L43.524 58.219L39.044 60.802C38.9017 60.8831 38.7355 60.9118 38.5742 60.883C38.4129 60.8542 38.2668 60.7697 38.1614 60.6443C38.056 60.5189 37.9979 60.3605 37.9972 60.1967C37.9966 60.0329 38.0534 59.874 38.1578 59.7478L39.2526 58.4374L37.322 59.5574C37.1779 59.6406 37.0089 59.6697 36.8452 59.6396C36.6815 59.6094 36.5339 59.522 36.4289 59.3928C36.3239 59.2637 36.2684 59.1014 36.2722 58.9351C36.276 58.7687 36.339 58.6091 36.4498 58.485L36.888 57.995L36.2076 58.387C36.0638 58.4693 35.8954 58.498 35.7324 58.4678C35.5695 58.4377 35.4225 58.3507 35.3176 58.2223C35.2128 58.0939 35.1569 57.9325 35.1599 57.7668C35.1629 57.6011 35.2246 57.4418 35.334 57.3174L35.467 57.1676L35.3872 57.2124C35.2549 57.2887 35.1011 57.3197 34.9495 57.3005C34.7979 57.2813 34.6567 57.213 34.5476 57.1061C34.4384 56.9991 34.3672 56.8594 34.3449 56.7082C34.3226 56.557 34.3504 56.4027 34.424 56.2688L35.2332 54.8016L34.4044 55.2776C34.2813 55.3486 34.1395 55.3805 33.9979 55.369C33.8562 55.3575 33.7214 55.3032 33.6114 55.2132C33.5014 55.1232 33.4214 55.0019 33.382 54.8654C33.3426 54.7288 33.3457 54.5835 33.3908 54.4488L34.0278 52.5644L33.6078 52.808C33.4803 52.8812 33.333 52.9124 33.1867 52.8972C33.0404 52.882 32.9027 52.8211 32.793 52.7232C32.6833 52.6253 32.6072 52.4953 32.5755 52.3517C32.5439 52.2081 32.5583 52.0581 32.6166 51.9232L32.8714 51.3352C32.7301 51.31 32.6 51.2421 32.4986 51.1406C32.3972 51.039 32.3295 50.9088 32.3046 50.7674C32.2797 50.6261 32.2988 50.4806 32.3594 50.3505C32.4199 50.2204 32.519 50.1121 32.6432 50.0402L33.9032 49.315C34.0307 49.2417 34.1781 49.2105 34.3244 49.2257C34.4706 49.2409 34.6084 49.3018 34.7181 49.3997C34.8278 49.4976 34.9039 49.6276 34.9355 49.7712C34.9672 49.9148 34.9528 50.0648 34.8944 50.1998L34.7544 50.5344L34.9448 50.4252C35.0679 50.3546 35.2095 50.3231 35.3509 50.3348C35.4922 50.3465 35.6267 50.4009 35.7365 50.4908C35.8462 50.5807 35.9261 50.7018 35.9655 50.8381C36.0049 50.9744 36.0019 51.1194 35.957 51.254L35.3298 53.1314L36.7214 52.3292C36.8537 52.2525 37.0074 52.2213 37.1591 52.2403C37.3108 52.2593 37.4521 52.3273 37.5614 52.4342C37.6714 52.5412 37.7431 52.6813 37.7657 52.8331C37.7882 52.9849 37.7602 53.1398 37.686 53.2742L36.8698 54.74L38.5232 53.7838C38.6672 53.7005 38.8361 53.6713 38.9997 53.7012C39.1633 53.7312 39.3109 53.8184 39.416 53.9473C39.5211 54.0762 39.5769 54.2383 39.5734 54.4046C39.5699 54.5708 39.5073 54.7304 39.3968 54.8548L39.2568 55.006L39.9778 54.6C40.122 54.5167 40.291 54.4876 40.4547 54.5177C40.6183 54.5479 40.7659 54.6354 40.8709 54.7645C40.9759 54.8936 41.0315 55.0559 41.0277 55.2223C41.0239 55.3886 40.9609 55.5482 40.85 55.6724L40.4118 56.161L41.9826 55.2552C42.125 55.1731 42.2916 55.1438 42.4534 55.1723C42.6152 55.2007 42.7618 55.2852 42.8676 55.4108C42.9734 55.5365 43.0316 55.6953 43.0321 55.8596C43.0326 56.0239 42.9753 56.1831 42.8702 56.3094L41.7754 57.6184L49.089 53.396C49.2395 53.3112 49.416 53.285 49.5845 53.3224C49.7531 53.3599 49.9019 53.4583 50.0023 53.5988C50.1027 53.7394 50.1476 53.912 50.1284 54.0836C50.1092 54.2553 50.0272 54.4137 49.8982 54.5286L47.0982 56.973L50.6318 54.9332C50.7761 54.85 50.9453 54.8209 51.109 54.8512C51.2728 54.8816 51.4204 54.9693 51.5253 55.0986C51.6302 55.228 51.6855 55.3905 51.6813 55.557C51.6772 55.7234 51.6138 55.883 51.5026 56.007L49.0246 58.7608L52.4714 56.7714C52.6229 56.6833 52.8019 56.6553 52.973 56.6928C53.1442 56.7304 53.295 56.8307 53.3958 56.974C53.4965 57.1173 53.5399 57.2932 53.5173 57.4669C53.4947 57.6407 53.4077 57.7996 53.2736 57.9124L52.0724 58.9232L53.5452 58.0748C53.6963 57.9902 53.8733 57.9646 54.0421 58.0029C54.211 58.0413 54.3596 58.1408 54.4593 58.2823C54.559 58.4238 54.6028 58.5972 54.5821 58.7691C54.5615 58.941 54.4779 59.0991 54.3474 59.213L50.3322 62.6248C50.3966 62.6774 50.4507 62.7415 50.4918 62.8138C50.5848 62.9744 50.6101 63.1653 50.5624 63.3446C50.5146 63.5239 50.3976 63.6769 50.237 63.77L46.2638 66.0576C46.1574 66.119 46.0367 66.1514 45.9138 66.1514Z" fill="#1D7765"/>
<path d="M36.8113 29.3062C39.5287 30.9988 41.7239 28.3682 40.9637 25.6186C46.0037 25.0488 47.8559 31.2844 51.7311 31.6932C55.0603 31.1024 52.7769 27.153 52.0251 25.2154C51.0029 23.2154 49.3993 21.5716 47.4253 20.5002C45.4512 19.4287 43.1991 18.9797 40.9651 19.2122C41.9451 9.37162 33.1349 19.3802 30.6499 22.1914C31.1693 24.9956 34.9577 27.048 36.8113 29.3062ZM32.7877 22.6968C32.8493 20.0494 36.9107 18.1636 38.5109 15.96C39.7261 16.7902 38.2113 19.4138 39.2865 19.9948C45.5865 19.2416 50.6909 24.1584 51.4763 30.2302C49.2167 26.25 37.6359 20.629 38.8945 28.7686C36.8491 26.761 34.7883 24.7366 32.7877 22.6968Z" fill="#262626"/>
<path d="M53.7375 56.9126C51.2623 53.7346 43.9375 46.918 44.5367 55.4972C40.4221 55.5784 37.6991 52.1806 35.1945 49.4772C26.4907 48.8584 37.1545 64.418 44.5311 62.0926C43.5511 70.6466 50.6911 63.9742 53.1327 60.8788C54.6503 59.8274 55.7703 58.167 53.7375 56.9126ZM51.9091 60.288C50.2445 61.9162 48.6807 63.592 46.9671 65.174C46.0781 64.2444 46.7039 62.5322 46.5639 61.3282C40.4039 61.5354 34.7507 57.6238 34.0619 51.0382C36.1843 54.828 48.0619 60.7752 46.5639 52.6006C47.4151 52.812 50.0639 56.1006 51.5003 57.3158C52.6707 58.1642 53.4771 59.3318 51.9091 60.288Z" fill="#262626"/>
<path d="M80.1638 12.0399C81.1438 6.9719 54.6166 8.5945 47.0524 2.4415C41.514 -1.6507 28.942 8.5735 20.1906 8.1101C15.6 9.6501 7.69977 6.7367 5.38557 11.9755C5.26797 20.9033 4.86617 30.1139 5.79017 39.0389C8.23177 58.3589 24.8694 80.9899 44.8292 82.3297C74.6058 70.0811 83.1766 41.9425 80.1638 12.0399ZM78.0722 34.6639C77.4254 55.9369 62.7408 73.8541 43.6644 82.1057C12.667 71.4993 3.97997 40.7021 7.64937 10.7799C18.5414 7.9225 31.6902 8.3285 41.9844 1.8675C50.2318 5.3815 58.9552 8.5707 68.0874 9.2875C70.9994 10.0071 74.8788 8.8311 77.3568 10.6021C79.4134 18.0123 77.725 26.8435 78.0722 34.6639Z" fill="#262626"/>
<path d="M74.5637 16.0243C72.8837 12.5341 60.0289 13.8963 55.6063 11.4631C49.5457 10.4831 43.9415 4.70534 38.0951 8.96414C15.6069 19.1561 9.07594 5.05954 10.9351 28.8637C10.4285 38.9907 13.0767 49.0254 18.5143 57.5837C23.952 66.142 31.9112 72.8023 41.2941 76.6457C68.1811 70.0657 77.2825 41.0927 74.5637 16.0243ZM72.5365 29.8199C72.8805 39.4667 70.3112 48.9934 65.1633 57.1591C60.0155 65.3247 52.5277 71.7507 43.6755 75.5999C18.6505 67.7053 10.3765 39.9391 12.9665 16.0243C22.1771 13.4567 33.5465 13.0647 42.5065 8.02474C47.5348 10.5186 52.8679 12.3434 58.3699 13.4525C75.1797 16.6291 72.6751 11.8355 72.5365 29.8199Z" fill="#262626"/>
<path d="M41.7364 47.8714C42.6982 48.7604 44.1752 47.6166 43.7636 46.3916C47.2832 45.7182 47.4974 40.5018 43.7048 40.1756C43.1495 40.197 42.6018 40.0401 42.142 39.7279C41.6822 39.4157 41.3344 38.9646 41.1493 38.4406C40.9642 37.9165 40.9517 37.347 41.1135 36.8153C41.2753 36.2837 41.603 35.8177 42.0486 35.4856C42.4761 35.4679 42.9 35.5695 43.2731 35.7789C43.6462 35.9883 43.9536 36.2973 44.1612 36.6714C47.3574 37.3518 45.9112 34.7114 43.7636 34.6148C44.416 32.3048 41.2002 32.806 41.7364 34.808C38.2168 35.4814 38.0026 40.6978 41.7952 41.024C42.349 41.002 42.8953 41.1572 43.3548 41.467C43.8143 41.7768 44.1631 42.2251 44.3504 42.7466C44.5377 43.2682 44.5539 43.8359 44.3965 44.3673C44.2391 44.8986 43.9164 45.366 43.4752 45.7014C43.0459 45.7235 42.6189 45.6254 42.2422 45.4181C41.8656 45.2109 41.5542 44.9027 41.343 44.5282C38.1468 43.8478 39.593 46.4882 41.7406 46.5848L41.7364 47.8714Z" fill="#262626"/>
</svg>
