<svg width="85" height="84" viewBox="0 0 85 84" fill="none" xmlns="http://www.w3.org/2000/svg">
<g clip-path="url(#clip0_1790_6652)">
<path d="M7.99673 21.6581C7.84845 21.658 7.70403 21.6107 7.58431 21.5233C7.46459 21.4358 7.37575 21.3125 7.33059 21.1713C7.28543 21.03 7.28629 20.8781 7.33304 20.7374C7.3798 20.5967 7.47003 20.4744 7.59073 20.3883L9.24273 19.2095L5.39833 21.4271C5.24372 21.515 5.06144 21.5407 4.88852 21.4991C4.71561 21.4575 4.56503 21.3516 4.46736 21.203C4.36969 21.0543 4.33227 20.8741 4.36268 20.6988C4.3931 20.5236 4.48908 20.3665 4.63113 20.2595L11.2531 15.3455L3.20033 19.9949C3.04372 20.0844 2.8586 20.11 2.68357 20.0664C2.50854 20.0227 2.35712 19.9132 2.26088 19.7606C2.16465 19.608 2.13102 19.4242 2.16703 19.2475C2.20303 19.0707 2.30588 18.9147 2.45413 18.8119L5.68673 16.6055L2.43313 18.4801C2.27628 18.5711 2.09023 18.5977 1.91415 18.5543C1.73808 18.5109 1.58573 18.4008 1.48919 18.2473C1.39265 18.0938 1.35946 17.9088 1.39661 17.7313C1.43375 17.5538 1.53834 17.3976 1.68833 17.2957L5.59573 14.6357L2.29033 16.5411C2.13527 16.6274 1.95323 16.6515 1.78102 16.6087C1.60882 16.5659 1.45931 16.4592 1.36273 16.3104C1.26616 16.1615 1.22972 15.9815 1.2608 15.8068C1.29188 15.6321 1.38814 15.4757 1.53013 15.3693L8.67573 10.2201L2.29033 13.9007C2.13498 13.9898 1.95136 14.0161 1.77727 13.9739C1.60317 13.9318 1.45185 13.8245 1.35445 13.6742C1.25705 13.5239 1.22097 13.342 1.25365 13.1658C1.28633 12.9897 1.38528 12.8329 1.53013 12.7275L6.77173 8.93209L2.29033 11.5193C2.13564 11.6093 1.95236 11.6366 1.77814 11.5957C1.60392 11.5547 1.452 11.4486 1.35359 11.2991C1.25519 11.1497 1.21778 10.9682 1.24905 10.7919C1.28032 10.6157 1.3779 10.4582 1.52173 10.3517L4.57513 8.08089L2.29033 9.39969C2.14021 9.48402 1.96428 9.51006 1.79617 9.47283C1.62806 9.43561 1.47957 9.33773 1.37908 9.19792C1.27859 9.0581 1.23316 8.88615 1.25147 8.71495C1.26978 8.54374 1.35055 8.38529 1.47833 8.26989L4.61013 5.48529L2.29033 6.82369C2.14989 6.90366 1.98611 6.93258 1.82678 6.90553C1.66745 6.87848 1.52238 6.79713 1.41621 6.67529C1.31003 6.55345 1.24928 6.39863 1.24428 6.23709C1.23927 6.07556 1.29031 5.91727 1.38873 5.78909L2.92873 3.81089C2.76262 3.85792 2.585 3.8419 2.42998 3.76593C2.27496 3.68995 2.15348 3.55937 2.08889 3.39928C2.02429 3.23918 2.02114 3.06086 2.08003 2.89858C2.13892 2.7363 2.2557 2.6015 2.40793 2.52009L5.27793 0.868087C5.41839 0.787337 5.5825 0.757807 5.7423 0.784533C5.90209 0.811259 6.04767 0.892586 6.1542 1.01465C6.26074 1.13671 6.32163 1.29194 6.32651 1.45388C6.33138 1.61582 6.27993 1.77444 6.18093 1.90269L4.68853 3.82209L9.86153 0.840087C10.0116 0.753451 10.1884 0.725528 10.3578 0.76172C10.5272 0.797912 10.6772 0.895647 10.7788 1.03602C10.8803 1.1764 10.9262 1.34944 10.9075 1.52168C10.8888 1.69392 10.807 1.85312 10.6777 1.96849L7.54173 4.75449L14.3247 0.840087C14.4794 0.750081 14.6627 0.72274 14.8369 0.763684C15.0111 0.804628 15.1631 0.910747 15.2615 1.06023C15.3599 1.20972 15.3973 1.39122 15.366 1.56743C15.3347 1.74364 15.2372 1.90119 15.0933 2.00769L12.0441 4.27149L17.8205 0.936687C17.9759 0.847531 18.1595 0.821319 18.3336 0.863448C18.5077 0.905576 18.659 1.01284 18.7564 1.16316C18.8538 1.31348 18.8899 1.49542 18.8572 1.67153C18.8245 1.84764 18.7256 2.00452 18.5807 2.10989L13.3335 5.90949L19.9303 2.10009C20.0857 2.01093 20.2693 1.98472 20.4434 2.02685C20.6175 2.06898 20.7688 2.17624 20.8662 2.32656C20.9636 2.47688 20.9997 2.65882 20.967 2.83493C20.9343 3.01104 20.8354 3.16792 20.6905 3.27329L13.5505 8.42249L21.0027 4.11889C21.1597 4.02301 21.3482 3.99279 21.5273 4.03476C21.7064 4.07673 21.8618 4.18752 21.9598 4.34316C22.0579 4.49881 22.0907 4.68679 22.0513 4.86647C22.0118 5.04615 21.9032 5.20306 21.7489 5.30329L17.8345 7.98009L21.1063 6.08869C21.2628 6.00166 21.4467 5.97791 21.6202 6.02233C21.7937 6.06675 21.9435 6.17596 22.0389 6.3275C22.1343 6.47903 22.168 6.66137 22.1331 6.837C22.0982 7.01263 21.9973 7.16819 21.8511 7.27169L18.6171 9.47809L21.1063 8.04169C21.2609 7.95379 21.4432 7.92804 21.6161 7.96967C21.7891 8.0113 21.9396 8.11719 22.0373 8.26582C22.135 8.41446 22.1724 8.59471 22.142 8.76994C22.1116 8.94517 22.0156 9.10226 21.8735 9.20929L15.2515 14.1233L21.1063 10.7437C21.262 10.6549 21.4458 10.6292 21.6199 10.6719C21.794 10.7146 21.9451 10.8224 22.042 10.9732C22.1389 11.124 22.1743 11.3062 22.1409 11.4823C22.1075 11.6584 22.0078 11.8149 21.8623 11.9197L20.2075 13.0999L21.1063 12.5819C21.2583 12.4942 21.4376 12.4668 21.6088 12.5051C21.78 12.5433 21.9306 12.6445 22.0308 12.7885C22.131 12.9325 22.1734 13.1089 22.1498 13.2827C22.1261 13.4565 22.038 13.6151 21.9029 13.7271L18.8677 16.2471L21.1077 14.9563C21.2566 14.8764 21.4294 14.8531 21.5941 14.8906C21.7589 14.9281 21.9045 15.0239 22.0041 15.1604C22.1037 15.2968 22.1506 15.4647 22.1361 15.6331C22.1217 15.8014 22.0468 15.9588 21.9253 16.0763L20.9061 16.9919L21.0349 16.9177C21.1146 16.867 21.2037 16.833 21.2969 16.8177C21.39 16.8024 21.4853 16.8061 21.577 16.8285C21.6687 16.851 21.7549 16.8918 21.8304 16.9484C21.906 17.005 21.9693 17.0764 22.0165 17.1581C22.0637 17.2399 22.094 17.3303 22.1054 17.424C22.1167 17.5177 22.109 17.6128 22.0827 17.7035C22.0564 17.7941 22.0121 17.8785 21.9523 17.9516C21.8925 18.0247 21.8186 18.0849 21.7349 18.1287L15.8003 21.5601C15.6515 21.64 15.4787 21.6633 15.314 21.6258C15.1492 21.5883 15.0036 21.4925 14.904 21.356C14.8043 21.2195 14.7574 21.0516 14.7719 20.8833C14.7864 20.715 14.8613 20.5575 14.9827 20.4401L15.9991 19.5259L12.4655 21.5601C12.3138 21.6459 12.1355 21.672 11.9655 21.6333C11.7956 21.5946 11.6462 21.4939 11.5465 21.3508C11.4469 21.2078 11.4043 21.0327 11.4269 20.8599C11.4495 20.687 11.5358 20.5289 11.6689 20.4163L14.7027 17.8963L8.34673 21.5601C8.24092 21.6234 8.12006 21.6573 7.99673 21.6581Z" fill="#49508E"/>
<path d="M38.8323 21.6583C38.6874 21.6585 38.546 21.6138 38.4276 21.5303C38.3092 21.4468 38.2196 21.3286 38.1712 21.1921C38.1229 21.0555 38.118 20.9073 38.1574 20.7679C38.1968 20.6285 38.2785 20.5047 38.3913 20.4137L44.8677 15.1777L34.9823 20.8841C34.8268 20.972 34.6436 20.9971 34.4702 20.9543C34.2968 20.9115 34.1463 20.8041 34.0496 20.654C33.9528 20.5039 33.917 20.3225 33.9496 20.1469C33.9822 19.9713 34.0807 19.8149 34.2249 19.7095L40.3177 15.3387L33.5333 19.2587C33.3772 19.3472 33.1932 19.3725 33.0191 19.3292C32.845 19.2859 32.6941 19.1775 32.5977 19.0263C32.5012 18.875 32.4665 18.6925 32.5007 18.5164C32.5349 18.3403 32.6354 18.184 32.7815 18.0799L38.6769 13.9527L33.0895 17.1727C32.9321 17.2622 32.7462 17.2873 32.5708 17.2426C32.3954 17.198 32.2441 17.0872 32.1486 16.9334C32.0532 16.7796 32.021 16.5948 32.0588 16.4178C32.0967 16.2408 32.2016 16.0854 32.3517 15.9841L33.6733 15.1007L33.0895 15.4367C32.9337 15.5281 32.7486 15.5558 32.5729 15.5139C32.3972 15.472 32.2445 15.3639 32.1467 15.212C32.0489 15.0601 32.0135 14.8764 32.0481 14.6991C32.0826 14.5218 32.1844 14.3647 32.3321 14.2607L38.2975 10.0019L33.0895 13.0077C32.9361 13.0932 32.7562 13.1179 32.5855 13.077C32.4148 13.0361 32.2657 12.9325 32.1677 12.7868C32.0698 12.6411 32.0301 12.4639 32.0567 12.2904C32.0832 12.1169 32.174 11.9596 32.3111 11.8499L38.3451 7.16269L33.0895 10.1965C32.9357 10.283 32.755 10.3083 32.5835 10.2673C32.4119 10.2263 32.2622 10.1221 32.1641 9.9754C32.0661 9.82874 32.0271 9.65049 32.0549 9.4763C32.0826 9.30211 32.1751 9.14482 32.3139 9.03589L34.5035 7.35589L33.0895 8.17209C32.9368 8.2573 32.7577 8.28228 32.5876 8.24212C32.4174 8.20197 32.2684 8.09958 32.1699 7.9551C32.0714 7.81063 32.0306 7.63453 32.0554 7.46146C32.0802 7.28838 32.1689 7.13086 32.3041 7.01989L32.8753 6.56349C32.7331 6.59163 32.5857 6.57495 32.4534 6.51575C32.3212 6.45656 32.2105 6.35777 32.1368 6.23302C32.063 6.10827 32.0298 5.9637 32.0417 5.81927C32.0536 5.67484 32.1101 5.53767 32.2033 5.42669L33.5375 3.83069C33.3853 3.82631 33.2388 3.77248 33.12 3.67735C33.0012 3.58222 32.9167 3.45098 32.8792 3.30349C32.8417 3.15601 32.8533 3.00032 32.9122 2.86001C32.9711 2.71969 33.0741 2.6024 33.2057 2.52589L36.0771 0.868288C36.2195 0.786344 36.3863 0.757139 36.5481 0.785789C36.7099 0.814438 36.8565 0.899115 36.9622 1.02499C37.0679 1.15086 37.1259 1.3099 37.1261 1.47424C37.1263 1.63859 37.0686 1.79777 36.9633 1.92389L35.8223 3.28469L40.0629 0.840288C40.2155 0.755081 40.3946 0.730097 40.5648 0.770253C40.7349 0.810409 40.8839 0.912797 40.9824 1.05727C41.0809 1.20175 41.1217 1.37785 41.0969 1.55092C41.0721 1.724 40.9834 1.88152 40.8483 1.99249L40.4787 2.28929L42.9889 0.840288C43.1426 0.753779 43.3233 0.728491 43.4949 0.769483C43.6664 0.810475 43.8162 0.914725 43.9142 1.06138C44.0122 1.20804 44.0512 1.38629 44.0234 1.56048C43.9957 1.73467 43.9032 1.89196 43.7645 2.00089L41.5693 3.68509L46.5043 0.840288C46.6577 0.753194 46.8383 0.727232 47.01 0.767595C47.1818 0.807959 47.3319 0.911671 47.4305 1.05799C47.529 1.2043 47.5687 1.38243 47.5415 1.55673C47.5144 1.73104 47.4224 1.88867 47.2841 1.99809L41.2501 6.68249L50.0967 1.57669C50.2524 1.48527 50.4375 1.4576 50.6132 1.49947C50.7889 1.54135 50.9417 1.64952 51.0395 1.80138C51.1373 1.95323 51.1726 2.13702 51.138 2.31431C51.1035 2.4916 51.0017 2.64867 50.8541 2.75269L44.8887 7.01289L51.4911 3.20069C51.6484 3.11119 51.8343 3.08612 52.0097 3.13074C52.1851 3.17535 52.3364 3.28618 52.4319 3.43997C52.5274 3.59376 52.5595 3.77854 52.5217 3.95554C52.4838 4.13255 52.3789 4.288 52.2289 4.38929L50.9101 5.27129L51.8901 4.71129C52.0461 4.62277 52.2302 4.59752 52.4043 4.64078C52.5784 4.68403 52.7292 4.79247 52.8257 4.94372C52.9221 5.09498 52.9568 5.27749 52.9226 5.45359C52.8884 5.62969 52.7879 5.78594 52.6419 5.89009L46.7493 10.0075L51.9055 7.03109C52.0609 6.94322 52.2441 6.9181 52.4175 6.96087C52.5909 7.00364 52.7414 7.11107 52.8382 7.26116C52.9349 7.41125 52.9707 7.59265 52.9381 7.76824C52.9055 7.94383 52.8071 8.10032 52.6629 8.20569L46.5575 12.5821L51.9013 9.50209C52.0536 9.41623 52.2326 9.39052 52.403 9.43003C52.5734 9.46954 52.7228 9.57141 52.8219 9.71557C52.9209 9.85974 52.9624 10.0358 52.9381 10.209C52.9139 10.3822 52.8257 10.5401 52.6909 10.6515L46.2131 15.8903L51.9055 12.6003C52.0545 12.5149 52.2298 12.4874 52.3979 12.5228C52.566 12.5583 52.7151 12.6544 52.817 12.7927C52.9188 12.9311 52.9663 13.102 52.9502 13.2731C52.9342 13.4441 52.8558 13.6033 52.7301 13.7203L48.9669 17.1797L51.9069 15.4843C52.0471 15.4033 52.211 15.3735 52.3707 15.3998C52.5305 15.4261 52.6762 15.507 52.783 15.6287C52.8898 15.7503 52.9511 15.9053 52.9565 16.0671C52.9619 16.2289 52.9111 16.3876 52.8127 16.5161L51.2223 18.5993C51.3866 18.5463 51.5647 18.5559 51.7223 18.6262C51.88 18.6965 52.0061 18.8227 52.0765 18.9803C52.1468 19.138 52.1564 19.3161 52.1034 19.4804C52.0503 19.6447 51.9385 19.7836 51.7893 19.8705L48.9193 21.5281C48.7792 21.6092 48.6154 21.6392 48.4556 21.6131C48.2959 21.5869 48.1502 21.5063 48.0432 21.3848C47.9363 21.2633 47.8747 21.1086 47.869 20.9468C47.8634 20.7851 47.9139 20.6264 48.0121 20.4977L49.5801 18.4453L44.1775 21.5603C44.0284 21.6457 43.8531 21.6732 43.685 21.6377C43.5169 21.6022 43.3678 21.5062 43.2659 21.3678C43.1641 21.2295 43.1167 21.0585 43.1327 20.8875C43.1487 20.7165 43.2271 20.5573 43.3529 20.4403L47.1175 16.9809L39.1823 21.5603C39.0764 21.6236 38.9556 21.6575 38.8323 21.6583Z" fill="#49508E"/>
<path d="M40.5401 52.4583C40.3932 52.4583 40.25 52.412 40.1308 52.3261C40.0116 52.2402 39.9225 52.119 39.876 51.9796C39.8296 51.8402 39.8282 51.6898 39.872 51.5495C39.9158 51.4093 40.0026 51.2864 40.1201 51.1983L41.8351 49.9313L37.6225 52.3603C37.4686 52.4474 37.2875 52.473 37.1154 52.4319C36.9434 52.3909 36.7933 52.2863 36.6953 52.1392C36.5972 51.992 36.5585 51.8132 36.5869 51.6386C36.6153 51.4641 36.7087 51.3068 36.8483 51.1983L43.1119 46.4257L34.5593 51.3621C34.4025 51.4489 34.2183 51.4723 34.0447 51.4274C33.8711 51.3824 33.7214 51.2726 33.6264 51.1205C33.5315 50.9685 33.4985 50.7857 33.5342 50.61C33.57 50.4344 33.6718 50.2791 33.8187 50.1763L35.1627 49.2705L33.5961 50.1749C33.4412 50.2532 33.2627 50.2712 33.0952 50.2253C32.9278 50.1794 32.7834 50.073 32.69 49.9266C32.5967 49.7802 32.561 49.6043 32.5901 49.4331C32.6191 49.262 32.7107 49.1077 32.8471 49.0003L37.5329 45.7677L33.0991 48.3269C32.942 48.4149 32.7571 48.4391 32.5826 48.3942C32.4082 48.3494 32.2578 48.2391 32.1626 48.0863C32.0674 47.9334 32.0348 47.7497 32.0716 47.5734C32.1083 47.3971 32.2116 47.2418 32.3599 47.1397L34.0203 46.0281L33.0921 46.5629C32.936 46.6541 32.7506 46.6813 32.5749 46.6389C32.3991 46.5965 32.2466 46.4877 32.1492 46.3353C32.0518 46.183 32.0172 45.9988 32.0526 45.8215C32.088 45.6442 32.1906 45.4874 32.3389 45.3841L37.6659 41.6335L33.0921 44.2697C32.9392 44.3569 32.7591 44.3833 32.5876 44.3436C32.4161 44.3039 32.2658 44.201 32.1667 44.0555C32.0677 43.91 32.0271 43.7325 32.053 43.5584C32.079 43.3843 32.1695 43.2264 32.3067 43.1161L39.2801 37.5707L33.0921 41.1449C32.9431 41.2279 32.7689 41.2537 32.6022 41.2174C32.4356 41.181 32.2879 41.0851 32.187 40.9475C32.086 40.81 32.0388 40.6403 32.0542 40.4704C32.0695 40.3005 32.1464 40.1421 32.2703 40.0249L36.5907 36.0853L33.0907 38.1055C32.9526 38.1847 32.7916 38.2145 32.6343 38.1898C32.477 38.1652 32.3327 38.0877 32.2254 37.9701C32.1181 37.8525 32.054 37.7018 32.0439 37.5429C32.0337 37.384 32.078 37.2264 32.1695 37.0961L34.0175 34.4767L33.9083 34.5397C33.7484 34.6234 33.5622 34.642 33.3888 34.5917C33.2154 34.5414 33.0682 34.426 32.9778 34.2697C32.8875 34.1134 32.861 33.9282 32.904 33.7529C32.9469 33.5775 33.056 33.4255 33.2083 33.3287L36.0783 31.6711C36.2165 31.5918 36.3775 31.5621 36.5348 31.5867C36.6921 31.6113 36.8363 31.6888 36.9437 31.8064C37.051 31.924 37.115 32.0747 37.1252 32.2336C37.1353 32.3925 37.091 32.5501 36.9995 32.6805L35.1515 35.2999L41.4921 31.6403C41.6411 31.5572 41.8153 31.5314 41.982 31.5678C42.1487 31.6041 42.2964 31.7001 42.3973 31.8376C42.4982 31.9751 42.5454 32.1448 42.5301 32.3147C42.5147 32.4846 42.4379 32.643 42.3139 32.7603L37.9935 36.6999L46.7617 31.6403C46.9146 31.5531 47.0948 31.5267 47.2663 31.5664C47.4378 31.606 47.588 31.7089 47.6871 31.8544C47.7862 31.9999 47.8268 32.1774 47.8008 32.3515C47.7749 32.5256 47.6843 32.6836 47.5471 32.7939L40.5723 38.3379L50.4423 32.6399C50.5981 32.5523 50.7815 32.5277 50.9549 32.571C51.1283 32.6144 51.2785 32.7224 51.3749 32.8729C51.4712 33.0235 51.5062 33.2052 51.4729 33.3807C51.4396 33.5563 51.3403 33.7125 51.1955 33.8173L45.8601 37.5679L51.6001 34.2527C51.7569 34.1679 51.94 34.1461 52.1122 34.1917C52.2845 34.2373 52.4329 34.3469 52.5271 34.4981C52.6214 34.6493 52.6544 34.8308 52.6195 35.0055C52.5846 35.1802 52.4844 35.3351 52.3393 35.4385L50.6719 36.5585L51.8997 35.8501C52.0561 35.7618 52.2404 35.7369 52.4146 35.7807C52.5888 35.8245 52.7394 35.9336 52.8354 36.0853C52.9315 36.2371 52.9655 36.42 52.9305 36.5961C52.8955 36.7722 52.7941 36.9282 52.6473 37.0317L47.9671 40.2615L51.8997 37.9921C52.0566 37.9052 52.2408 37.8818 52.4143 37.9268C52.5879 37.9717 52.7376 38.0815 52.8326 38.2336C52.9276 38.3857 52.9606 38.5684 52.9248 38.7441C52.889 38.9198 52.7872 39.075 52.6403 39.1779L51.2823 40.0935L51.8997 39.7379C52.0536 39.6525 52.2339 39.6281 52.4049 39.6697C52.5759 39.7113 52.7249 39.8157 52.8224 39.9622C52.9198 40.1087 52.9585 40.2866 52.9307 40.4603C52.903 40.6341 52.8108 40.791 52.6725 40.8999L46.4201 45.6683L51.9081 42.5001C52.0629 42.4114 52.2458 42.3852 52.4193 42.4268C52.5928 42.4684 52.7438 42.5746 52.8416 42.7239C52.9394 42.8731 52.9765 43.0541 52.9453 43.2297C52.9141 43.4054 52.8171 43.5626 52.6739 43.6691L50.9575 44.9375L51.9081 44.3887C52.0554 44.3059 52.2276 44.2791 52.393 44.3133C52.5584 44.3475 52.7059 44.4404 52.8082 44.5747C52.9105 44.7091 52.9608 44.876 52.9498 45.0445C52.9387 45.2131 52.8671 45.372 52.7481 45.4919L49.7801 48.4221L51.8941 47.2027C52.0394 47.1195 52.2096 47.0911 52.374 47.1226C52.5384 47.1542 52.686 47.2436 52.7901 47.3746C52.8942 47.5057 52.948 47.6697 52.9415 47.8369C52.9351 48.0042 52.869 48.1636 52.7551 48.2863L51.6939 49.4175C51.8427 49.4742 51.967 49.5812 52.0453 49.7199C52.1378 49.8803 52.1629 50.0709 52.1152 50.2499C52.0674 50.4289 51.9507 50.5816 51.7905 50.6747L48.9205 52.3323C48.7751 52.4165 48.6043 52.4455 48.4392 52.4142C48.2742 52.3829 48.1259 52.2932 48.0214 52.1616C47.917 52.03 47.8634 51.8652 47.8704 51.6974C47.8774 51.5295 47.9445 51.3697 48.0595 51.2473L48.5005 50.7783L45.7523 52.3603C45.6051 52.4431 45.4329 52.4698 45.2675 52.4356C45.1021 52.4014 44.9546 52.3086 44.8523 52.1742C44.75 52.0398 44.6997 51.8729 44.7107 51.7044C44.7217 51.5358 44.7934 51.377 44.9123 51.2571L47.8817 48.3269L40.8929 52.3603C40.7861 52.4237 40.6643 52.4575 40.5401 52.4583Z" fill="#49508E"/>
<path d="M69.5938 21.658C69.4452 21.6583 69.3003 21.6112 69.1802 21.5237C69.06 21.4361 68.9709 21.3126 68.9257 21.1709C68.8804 21.0293 68.8815 20.877 68.9286 20.736C68.9757 20.595 69.0665 20.4727 69.1878 20.3868L70.4702 19.4754L67.0682 21.4354C66.9146 21.523 66.7336 21.5493 66.5614 21.5089C66.3892 21.4685 66.2387 21.3645 66.1401 21.2177C66.0415 21.0708 66.0022 20.8921 66.0299 20.7175C66.0577 20.5428 66.1506 20.3852 66.2898 20.2762L74.3258 14.0798L64.5916 19.698C64.4366 19.7875 64.2532 19.8143 64.079 19.7727C63.9049 19.7312 63.7533 19.6245 63.6554 19.4746C63.5575 19.3247 63.5208 19.143 63.5527 18.9669C63.5847 18.7907 63.6829 18.6335 63.8272 18.5276L72.279 12.3312L63.8902 17.1752C63.734 17.2649 63.5492 17.2908 63.3743 17.2477C63.1993 17.2046 63.0478 17.0957 62.9511 16.9436C62.8544 16.7916 62.8201 16.6082 62.8553 16.4315C62.8904 16.2548 62.9923 16.0984 63.1398 15.995L68.7678 12.0596L63.8902 14.8792C63.7365 14.9657 63.5558 14.991 63.3842 14.95C63.2127 14.909 63.0629 14.8047 62.9649 14.6581C62.8669 14.5114 62.8279 14.3332 62.8556 14.159C62.8834 13.9848 62.9759 13.8275 63.1146 13.7186L71.2346 7.46618L63.8902 11.704C63.7365 11.7905 63.5558 11.8158 63.3842 11.7748C63.2127 11.7338 63.0629 11.6295 62.9649 11.4829C62.8669 11.3362 62.8279 11.158 62.8556 10.9838C62.8834 10.8096 62.9759 10.6523 63.1146 10.5434L67.2992 7.32338L63.8902 9.28898C63.7371 9.37399 63.5576 9.39849 63.3873 9.35764C63.2169 9.31678 63.0681 9.21354 62.9701 9.06831C62.8722 8.92307 62.8323 8.74639 62.8583 8.57315C62.8842 8.39991 62.9742 8.24271 63.1104 8.13258L64.4978 7.04618L63.8902 7.39618C63.7525 7.47583 63.5917 7.50617 63.4344 7.4822C63.2771 7.45823 63.1326 7.38137 63.0248 7.2643C62.9171 7.14723 62.8524 6.99693 62.8415 6.83818C62.8306 6.67942 62.8741 6.52169 62.9648 6.39098L64.8716 3.63998L64.7078 3.73378C64.5479 3.81747 64.3617 3.8361 64.1883 3.7858C64.0149 3.7355 63.8677 3.62014 63.7773 3.46383C63.687 3.30752 63.6605 3.12234 63.7035 2.94698C63.7464 2.77162 63.8555 2.61964 64.0078 2.52278L66.8778 0.867978C67.0156 0.788325 67.1764 0.757984 67.3337 0.781957C67.491 0.80593 67.6355 0.882786 67.7432 0.999857C67.851 1.11693 67.9157 1.26723 67.9266 1.42598C67.9375 1.58473 67.894 1.74247 67.8032 1.87318L65.8964 4.61998L72.4582 0.839978C72.6115 0.753407 72.7917 0.727727 72.963 0.768052C73.1343 0.808377 73.2841 0.911749 73.3826 1.05758C73.4811 1.20341 73.5211 1.381 73.4946 1.55497C73.468 1.72895 73.3769 1.88655 73.2394 1.99638L71.8562 3.07858L75.7314 0.839978C75.8852 0.751706 76.0668 0.725083 76.2394 0.765486C76.4121 0.805889 76.563 0.910306 76.6616 1.05765C76.7602 1.20499 76.7993 1.38428 76.7709 1.5593C76.7424 1.73432 76.6486 1.89203 76.5084 2.00058L72.3252 5.22058L79.657 0.979978C79.8108 0.891706 79.9924 0.865083 80.165 0.905486C80.3377 0.945889 80.4886 1.05031 80.5872 1.19765C80.6858 1.34499 80.7249 1.52428 80.6965 1.6993C80.668 1.87432 80.5742 2.03203 80.434 2.14058L72.3182 8.39998L82.0594 2.77618C82.2157 2.68651 82.4005 2.66053 82.5754 2.70366C82.7503 2.74678 82.9019 2.85569 82.9986 3.00772C83.0952 3.15975 83.1296 3.34319 83.0944 3.51989C83.0593 3.69658 82.9573 3.85292 82.8098 3.95638L77.186 7.88618L82.6866 4.70958C82.8417 4.62002 83.0251 4.59327 83.1992 4.63481C83.3734 4.67635 83.525 4.78304 83.6229 4.93293C83.7208 5.08282 83.7575 5.26452 83.7256 5.44067C83.6936 5.61683 83.5954 5.77404 83.451 5.87998L74.995 12.0806L82.7062 7.62858C82.8598 7.5426 83.0401 7.5176 83.2112 7.55856C83.3823 7.59952 83.5317 7.70342 83.6297 7.84959C83.7277 7.99575 83.767 8.17346 83.7399 8.34732C83.7127 8.52117 83.6211 8.67843 83.4832 8.78778L75.4458 14.987L82.7062 10.7968C82.8621 10.7069 83.0467 10.6805 83.2215 10.7231C83.3964 10.7657 83.5481 10.874 83.6453 11.0255C83.7424 11.177 83.7774 11.3601 83.743 11.5368C83.7087 11.7134 83.6076 11.8701 83.4608 11.9742L82.1798 12.8828L82.7062 12.579C82.8587 12.4899 83.0392 12.4618 83.2116 12.5002C83.3839 12.5386 83.5354 12.6407 83.6356 12.7861C83.7358 12.9315 83.7774 13.1094 83.752 13.2841C83.7266 13.4589 83.6361 13.6176 83.4986 13.7284L80.7084 16.0034L82.7062 14.8498C82.8514 14.7656 83.0219 14.7364 83.1867 14.7674C83.3516 14.7984 83.4998 14.8875 83.6045 15.0186C83.7091 15.1498 83.7632 15.3141 83.7569 15.4817C83.7506 15.6493 83.6843 15.8091 83.57 15.932L81.6184 18.0404L82.471 17.549C82.631 17.4653 82.8171 17.4467 82.9905 17.497C83.1639 17.5473 83.3112 17.6626 83.4015 17.8189C83.4919 17.9752 83.5184 18.1604 83.4754 18.3358C83.4325 18.5111 83.3234 18.6631 83.171 18.76L78.3172 21.56C78.1723 21.6432 78.0024 21.6717 77.8382 21.6405C77.674 21.6093 77.5264 21.5204 77.422 21.3899C77.3177 21.2593 77.2635 21.0957 77.2693 20.9287C77.275 20.7617 77.3404 20.6022 77.4534 20.4792L79.405 18.368L73.875 21.56C73.7228 21.6469 73.5434 21.6736 73.3725 21.6347C73.2015 21.5957 73.0514 21.4941 72.9518 21.3498C72.8522 21.2055 72.8104 21.0291 72.8346 20.8554C72.8588 20.6817 72.9473 20.5235 73.0826 20.412L75.87 18.1398L69.9382 21.56C69.8339 21.622 69.7152 21.6557 69.5938 21.658Z" fill="#49508E"/>
<path d="M73.5286 52.4583C73.3825 52.4587 73.2399 52.4134 73.1208 52.3287C73.0017 52.2441 72.9122 52.1242 72.8646 51.9861C72.8171 51.8479 72.814 51.6984 72.8557 51.5583C72.8974 51.4183 72.9819 51.2949 73.0974 51.2053L74.6822 49.9691L70.5354 52.3603C70.3833 52.4454 70.205 52.4708 70.0353 52.4314C69.8656 52.392 69.7166 52.2908 69.6176 52.1475C69.5185 52.0041 69.4765 51.829 69.4997 51.6563C69.5228 51.4836 69.6096 51.3258 69.743 51.2137L75.9366 46.1485L66.0596 51.8521C65.9051 51.9413 65.7224 51.9681 65.5488 51.9271C65.3752 51.8861 65.2238 51.7804 65.1255 51.6315C65.0272 51.4827 64.9895 51.3019 65.02 51.1262C65.0504 50.9504 65.1469 50.7929 65.2896 50.6859L73.278 44.6995L64.2578 49.9061C64.1014 49.9911 63.9185 50.0133 63.7463 49.9682C63.5741 49.9231 63.4256 49.8141 63.3309 49.6634C63.2362 49.5128 63.2025 49.3317 63.2366 49.157C63.2706 48.9823 63.37 48.8271 63.5144 48.7231L67.1992 46.2031L63.8896 48.1197C63.7324 48.2065 63.5478 48.2295 63.3741 48.1841C63.2004 48.1386 63.0508 48.0282 62.9562 47.8755C62.8616 47.7229 62.8293 47.5398 62.866 47.364C62.9026 47.1882 63.0055 47.0332 63.1532 46.9311L63.863 46.4593C63.7042 46.5419 63.5198 46.5606 63.3477 46.5114C63.1756 46.4623 63.0289 46.3491 62.9376 46.1952C62.8464 46.0412 62.8176 45.8581 62.8572 45.6836C62.8967 45.509 63.0016 45.3563 63.1504 45.2567L64.0226 44.6715L63.8896 44.7485C63.7343 44.8355 63.5517 44.8601 63.3789 44.8173C63.2062 44.7745 63.0562 44.6675 62.9595 44.518C62.8628 44.3686 62.8267 44.1879 62.8586 44.0128C62.8904 43.8376 62.9877 43.6812 63.1308 43.5753L68.2394 39.8919L63.8896 42.4021C63.7387 42.4888 63.5611 42.5162 63.3912 42.479C63.2213 42.4418 63.0713 42.3427 62.9704 42.201C62.8696 42.0592 62.8251 41.885 62.8457 41.7123C62.8663 41.5396 62.9504 41.3808 63.0818 41.2667L68.5418 36.5529L63.8896 39.2395C63.7405 39.3225 63.5663 39.3483 63.3997 39.312C63.233 39.2757 63.0853 39.1797 62.9844 39.0422C62.8835 38.9046 62.8362 38.735 62.8516 38.5651C62.8669 38.3952 62.9438 38.2367 63.0678 38.1195L65.2952 36.0909L63.8952 36.8987C63.7503 36.9819 63.5806 37.0105 63.4165 36.9795C63.2524 36.9485 63.1048 36.8598 63.0003 36.7295C62.8959 36.5992 62.8415 36.4358 62.8469 36.2689C62.8523 36.102 62.9173 35.9425 63.03 35.8193L64.15 34.6013C63.9827 34.5494 63.8416 34.4358 63.7551 34.2835C63.6627 34.123 63.6375 33.9324 63.6853 33.7535C63.7331 33.5745 63.8498 33.4218 64.01 33.3287L66.88 31.6711C67.0248 31.5879 67.1945 31.5593 67.3586 31.5903C67.5227 31.6213 67.6703 31.71 67.7748 31.8403C67.8792 31.9706 67.9336 32.134 67.9282 32.3009C67.9228 32.4678 67.8579 32.6273 67.7452 32.7505L67.139 33.4113L70.2078 31.6403C70.3568 31.5572 70.531 31.5315 70.6976 31.5678C70.8643 31.6041 71.012 31.7001 71.1129 31.8376C71.2138 31.9752 71.2611 32.1448 71.2457 32.3147C71.2304 32.4846 71.1535 32.6431 71.0296 32.7603L68.8036 34.7875L74.2636 31.6375C74.4144 31.5508 74.592 31.5234 74.7619 31.5606C74.9319 31.5978 75.0818 31.6969 75.1827 31.8386C75.2835 31.9804 75.328 32.1545 75.3074 32.3273C75.2868 32.5 75.2027 32.6588 75.0714 32.7729L69.6114 37.4853L79.5318 31.7593C79.6867 31.6748 79.8679 31.6519 80.039 31.6953C80.2101 31.7387 80.3585 31.8452 80.4545 31.9934C80.5504 32.1415 80.5869 32.3205 80.5565 32.4944C80.5261 32.6683 80.4311 32.8243 80.2906 32.9311L75.1806 36.6173L81.5576 32.9325C81.7148 32.8414 81.9013 32.815 82.0776 32.8588C82.2539 32.9027 82.4063 33.0135 82.5025 33.1676C82.5987 33.3218 82.6311 33.5073 82.593 33.685C82.5549 33.8627 82.4491 34.0186 82.2982 34.1197L81.419 34.7091L82.371 34.1589C82.5283 34.0694 82.7142 34.0443 82.8896 34.0889C83.065 34.1336 83.2163 34.2444 83.3118 34.3982C83.4073 34.552 83.4394 34.7368 83.4016 34.9138C83.3637 35.0908 83.2588 35.2462 83.1088 35.3475L82.4186 35.8081L82.6986 35.6471C82.8553 35.559 83.0399 35.5345 83.2142 35.5788C83.3884 35.6231 83.539 35.7328 83.6346 35.8851C83.7302 36.0374 83.7635 36.2206 83.7276 36.3968C83.6918 36.573 83.5895 36.7287 83.442 36.8315L79.7572 39.3403L82.7056 37.6393C82.86 37.5501 83.0427 37.5233 83.2163 37.5643C83.3899 37.6053 83.5413 37.711 83.6396 37.8599C83.7379 38.0087 83.7756 38.1895 83.7451 38.3652C83.7147 38.541 83.6182 38.6984 83.4756 38.8055L75.4858 44.8003L82.7056 40.6339C82.8576 40.5488 83.0359 40.5234 83.2056 40.5628C83.3753 40.6022 83.5243 40.7034 83.6233 40.8467C83.7224 40.9901 83.7644 41.1652 83.7413 41.3379C83.7181 41.5105 83.6313 41.6684 83.498 41.7805L77.303 46.8485L82.7056 43.7223C82.8592 43.6328 83.0412 43.6051 83.2145 43.6448C83.3878 43.6846 83.5395 43.7889 83.6388 43.9364C83.738 44.084 83.7774 44.2638 83.7489 44.4393C83.7204 44.6148 83.6262 44.7729 83.4854 44.8815L81.9034 46.1135L82.7056 45.6515C82.8501 45.5683 83.0196 45.5395 83.1835 45.5701C83.3474 45.6008 83.495 45.689 83.5997 45.8188C83.7043 45.9487 83.7592 46.1116 83.7544 46.2783C83.7496 46.445 83.6855 46.6045 83.5736 46.7281L81.5912 48.9107L82.4466 48.4165C82.5262 48.3659 82.6153 48.3318 82.7085 48.3165C82.8016 48.3012 82.8969 48.3049 82.9886 48.3273C83.0803 48.3498 83.1665 48.3906 83.2421 48.4472C83.3176 48.5039 83.3809 48.5752 83.4281 48.6569C83.4754 48.7387 83.5056 48.8291 83.517 48.9228C83.5284 49.0166 83.5207 49.1116 83.4944 49.2023C83.4681 49.2929 83.4237 49.3774 83.3639 49.4504C83.3041 49.5235 83.2302 49.5837 83.1466 49.6275L78.4076 52.3603C78.2632 52.4426 78.0942 52.4708 77.931 52.4399C77.7677 52.409 77.6207 52.3211 77.5163 52.1918C77.412 52.0625 77.357 51.9003 77.3612 51.7342C77.3655 51.5681 77.4287 51.4089 77.5396 51.2851L79.5206 49.1025L73.8786 52.3603C73.7727 52.4237 73.6519 52.4575 73.5286 52.4583Z" fill="#49508E"/>
<path d="M68.5735 83.2582C68.4266 83.2582 68.2834 83.212 68.1642 83.1261C68.045 83.0402 67.9559 82.9189 67.9094 82.7795C67.863 82.6402 67.8615 82.4897 67.9053 82.3495C67.9491 82.2092 68.036 82.0863 68.1535 81.9982L73.0535 78.3456L65.8295 82.5148C65.6734 82.6 65.4908 82.6226 65.3187 82.5781C65.1465 82.5336 64.9978 82.4252 64.9027 82.275C64.8075 82.1248 64.7731 81.944 64.8064 81.7694C64.8397 81.5947 64.9382 81.4393 65.0819 81.3346L68.5819 78.9112L64.5499 81.238C64.3935 81.3229 64.2106 81.3451 64.0385 81.3001C63.8663 81.255 63.7177 81.146 63.623 80.9953C63.5284 80.8446 63.4946 80.6635 63.5287 80.4889C63.5628 80.3142 63.6621 80.159 63.8065 80.055L67.1399 77.7786L63.9353 79.628C63.7787 79.7175 63.5936 79.7431 63.4185 79.6995C63.2435 79.6558 63.0921 79.5463 62.9958 79.3937C62.8996 79.2411 62.866 79.0573 62.902 78.8806C62.938 78.7038 63.0408 78.5478 63.1891 78.445L67.5683 75.442L63.8919 77.5602C63.7373 77.6481 63.555 77.6738 63.3821 77.6322C63.2092 77.5906 63.0586 77.4847 62.9609 77.3361C62.8633 77.1874 62.8258 77.0072 62.8562 76.8319C62.8867 76.6567 62.9826 76.4996 63.1247 76.3926L71.1369 70.437L63.8919 74.6202C63.7364 74.7081 63.5532 74.7332 63.3798 74.6904C63.2064 74.6476 63.056 74.5402 62.9592 74.3901C62.8624 74.24 62.8267 74.0586 62.8592 73.883C62.8918 73.7074 62.9903 73.551 63.1345 73.4456L66.7941 70.8276L63.8919 72.5076C63.7372 72.5976 63.5539 72.6249 63.3797 72.584C63.2055 72.543 63.0536 72.4369 62.9552 72.2874C62.8567 72.138 62.8193 71.9565 62.8506 71.7802C62.8819 71.604 62.9795 71.4465 63.1233 71.34L65.4095 69.6362L63.8919 70.5126C63.7384 70.5986 63.5581 70.6236 63.3869 70.5826C63.2158 70.5416 63.0664 70.4377 62.9684 70.2916C62.8704 70.1454 62.8311 69.9677 62.8583 69.7938C62.8854 69.62 62.977 69.4627 63.1149 69.3534L63.8289 68.8004C63.6883 68.8635 63.5308 68.8784 63.3808 68.8429C63.2309 68.8073 63.0968 68.7233 62.9995 68.6038C62.9022 68.4843 62.847 68.336 62.8426 68.182C62.8381 68.0279 62.8846 67.8767 62.9749 67.7518L64.7361 65.3228L64.7095 65.3368C64.5495 65.4205 64.3634 65.4391 64.19 65.3888C64.0166 65.3385 63.8693 65.2232 63.779 65.0668C63.6886 64.9105 63.6622 64.7254 63.7051 64.55C63.7481 64.3746 63.8571 64.2226 64.0095 64.1258L66.8795 62.4682C67.0183 62.3882 67.1803 62.3582 67.3385 62.3832C67.4967 62.4083 67.6415 62.4868 67.7488 62.6057C67.8561 62.7247 67.9194 62.8768 67.9281 63.0367C67.9367 63.1967 67.8903 63.3548 67.7965 63.4846L66.0367 65.9136L72.0567 62.4374C72.2103 62.3497 72.3914 62.3235 72.5635 62.3638C72.7357 62.4042 72.8862 62.5083 72.9848 62.6551C73.0834 62.8019 73.1227 62.9806 73.095 63.1553C73.0672 63.3299 72.9744 63.4876 72.8351 63.5966L72.1477 64.1286L75.0807 62.4402C75.2354 62.3502 75.4187 62.3228 75.5929 62.3638C75.7671 62.4047 75.919 62.5108 76.0174 62.6603C76.1158 62.8098 76.1532 62.9913 76.122 63.1675C76.0907 63.3437 75.9931 63.5013 75.8493 63.6078L73.5631 65.3102L78.5359 62.4402C78.6914 62.3523 78.8745 62.3272 79.0479 62.37C79.2213 62.4127 79.3718 62.5202 79.4686 62.6703C79.5654 62.8203 79.6011 63.0017 79.5685 63.1773C79.5359 63.3529 79.4375 63.5094 79.2933 63.6148L75.6267 66.2384L80.9131 63.1864C81.0677 63.0985 81.25 63.0727 81.4229 63.1144C81.5958 63.156 81.7464 63.2619 81.8441 63.4105C81.9417 63.5592 81.9792 63.7394 81.9487 63.9146C81.9183 64.0899 81.8223 64.247 81.6803 64.354L73.6765 70.304L82.4685 65.2276C82.6251 65.1381 82.8102 65.1125 82.9852 65.1561C83.1603 65.1997 83.3117 65.3093 83.4079 65.4619C83.5042 65.6144 83.5378 65.7983 83.5018 65.975C83.4658 66.1518 83.3629 66.3078 83.2147 66.4106L78.8229 69.4234L82.7079 67.1834C82.8646 67.0952 83.0493 67.0708 83.2235 67.1151C83.3978 67.1594 83.5483 67.2691 83.6439 67.4214C83.7395 67.5737 83.7728 67.7569 83.7369 67.9331C83.7011 68.1093 83.5988 68.265 83.4513 68.3678L80.1221 70.6372L82.7079 69.1448C82.8643 69.0565 83.0486 69.0317 83.2228 69.0755C83.3969 69.1193 83.5476 69.2283 83.6436 69.3801C83.7396 69.5318 83.7736 69.7147 83.7386 69.8908C83.7036 70.0669 83.6023 70.2229 83.4555 70.3264L79.9457 72.7554L82.7079 71.1608C82.8623 71.0736 83.0441 71.0483 83.2164 71.0899C83.3888 71.1315 83.539 71.237 83.6366 71.3851C83.7341 71.5332 83.7719 71.7128 83.7422 71.8876C83.7125 72.0624 83.6175 72.2195 83.4765 72.327L78.5765 75.9824L82.7093 73.6024C82.8593 73.5158 83.0361 73.4878 83.2056 73.524C83.375 73.5602 83.525 73.6579 83.6265 73.7983C83.7281 73.9387 83.7739 74.1117 83.7553 74.284C83.7366 74.4562 83.6547 74.6154 83.5255 74.7308L79.2219 78.578L82.7093 76.5662C82.8583 76.4842 83.032 76.4593 83.198 76.496C83.364 76.5328 83.511 76.6287 83.6114 76.7658C83.7119 76.903 83.759 77.0721 83.744 77.2414C83.7289 77.4108 83.6528 77.5689 83.5297 77.6862L82.4097 78.6998L82.6225 78.5766C82.7022 78.5259 82.7913 78.4919 82.8844 78.4766C82.9776 78.4613 83.0729 78.465 83.1646 78.4874C83.2563 78.5099 83.3425 78.5507 83.418 78.6073C83.4935 78.6639 83.5568 78.7353 83.6041 78.817C83.6513 78.8988 83.6815 78.9892 83.6929 79.0829C83.7043 79.1766 83.6966 79.2717 83.6703 79.3624C83.644 79.453 83.5996 79.5374 83.5399 79.6105C83.4801 79.6836 83.4061 79.7438 83.3225 79.7876L77.4649 83.1602C77.3159 83.2422 77.1422 83.2671 76.9762 83.2304C76.8102 83.1936 76.6632 83.0977 76.5627 82.9605C76.4623 82.8234 76.4152 82.6543 76.4302 82.485C76.4452 82.3156 76.5214 82.1575 76.6445 82.0402L77.7645 81.0252L74.0559 83.1602C73.9071 83.2391 73.7348 83.2617 73.5706 83.2238C73.4065 83.1859 73.2615 83.0901 73.1623 82.954C73.0631 82.8179 73.0163 82.6505 73.0305 82.4827C73.0447 82.3148 73.119 82.1577 73.2397 82.0402L77.5419 78.193L68.9235 83.1602C68.8177 83.2235 68.6968 83.2574 68.5735 83.2582Z" fill="#49508E"/>
<path d="M9.87012 21.7128C18.0489 22.3134 24.0661 21.7548 22.5247 11.7616H26.0849C27.7747 19.7276 21.2213 40.7416 31.6849 42.3978C30.8645 49.325 32.6299 53.5768 40.3873 52.4134C48.6095 52.958 54.9305 52.6178 53.3205 42.4104H56.8891C58.6517 50.5696 52.0031 73.0102 62.4723 74.6552C60.3541 85.9392 71.5905 83.121 78.8229 83.3786C86.0567 83.0314 83.8153 74.4858 84.1331 69.5844C85.6619 59.6822 74.1385 62.5424 67.9393 62.2218C61.7429 62.2666 62.3197 68.9782 62.4793 73.4302C55.1559 69.1364 60.4409 50.4926 58.9233 42.4104H62.4961C60.4549 55.2666 69.7215 51.8758 78.4813 52.2482C85.8537 52.2048 83.9329 43.8902 84.1233 38.9174C85.1383 32.9156 80.7969 30.9066 75.4699 31.7522C67.4367 31.2342 60.8665 31.4834 62.4961 41.59H58.9135V11.7H62.4835C62.6487 14.318 61.7961 17.5436 63.4635 19.8032C65.2835 22.1174 68.5833 21.5966 71.1817 21.5966C75.8745 21.479 84.3417 23.0274 84.1191 15.9896C83.4331 11.343 85.9475 5.16759 82.1073 1.64939C77.9073 -0.239211 72.7553 1.22099 68.2473 0.809389C62.5493 0.669389 62.0537 6.31279 62.4863 10.7074H53.3163C54.0541 3.84739 52.3895 -0.310611 44.6475 0.907389C36.9741 0.211589 29.8817 0.96619 31.6863 10.6402H22.5247C22.2937 7.45659 23.4837 3.50019 20.2847 1.44779C15.0795 0.462189 1.22792 -1.95981 0.875115 5.95719C1.11732 13.6054 -1.69808 23.6602 9.87012 21.7128ZM66.4091 64.0152C71.1229 64.3792 81.6985 60.8736 82.0695 67.9562C81.1679 72.1562 84.6329 80.58 78.9811 81.8232C74.3079 81.1232 63.9591 84.7268 64.5303 77.0632C65.2625 72.9626 62.6599 66.8166 66.4091 64.0152ZM66.0857 33.015C70.8989 32.9646 81.7573 29.8762 82.0863 37.173C81.1917 41.4458 84.5209 49.5476 79.3297 51.3522C74.4591 50.7306 64.0473 54.1942 64.5135 46.3122C65.1575 42.0562 62.8895 36.3708 66.0857 33.015ZM66.1431 2.33819C70.9101 2.40679 81.6509 -0.806211 82.0849 6.31279C81.2127 10.3462 84.4789 19.099 79.2849 20.4038C74.4927 19.6674 64.0711 23.313 64.5093 15.5402C65.1869 11.3472 62.8251 5.53579 66.1431 2.33819ZM48.4835 51.187C43.7053 50.4394 33.2823 54.1032 33.7163 46.3458C34.3911 42.1584 32.0223 36.3386 35.3473 33.155C40.1073 33.2292 50.8397 30.0092 51.2835 37.1072C50.4099 41.1392 53.6803 49.8892 48.4835 51.187ZM35.2983 2.25979C40.1045 2.25979 50.9447 -0.88881 51.2863 6.37299C50.4155 10.405 53.6663 19.1634 48.5143 20.4976C43.6689 19.8242 33.2459 23.3676 33.7135 15.5094C34.3687 11.2856 32.0657 5.55539 35.2983 2.25979ZM31.6863 11.7602C30.8351 18.672 32.7433 22.6522 40.3551 21.5014C48.3911 21.9928 54.9347 21.8374 53.3135 11.7014H56.8863V41.5914H53.3177C54.0387 34.744 52.4231 30.362 44.6153 31.5884C37.0133 30.9178 29.8901 31.6248 31.6821 41.2568C24.3937 36.9084 29.5989 19.68 28.1135 11.7602H31.6863ZM4.79092 2.34939C9.53692 2.69659 20.1321 -0.79221 20.4709 6.37439C19.5679 10.5856 23.0287 19.0108 17.3909 20.2876C12.6799 19.6254 2.34652 23.1702 2.92472 15.4492C3.65272 11.3276 1.05992 5.19139 4.79092 2.34939Z" fill="#262626"/>
</g>
<defs>
<clipPath id="clip0_1790_6652">
<rect width="84" height="84" fill="white" transform="translate(0.5)"/>
</clipPath>
</defs>
</svg>
