<svg width="35" height="35" viewBox="0 0 35 35" fill="none" xmlns="http://www.w3.org/2000/svg">
<path d="M28.834 9.00004H23.1673V6.16671C23.1673 5.41526 22.8688 4.69459 22.3375 4.16324C21.8061 3.63188 21.0854 3.33337 20.334 3.33337H14.6673C13.0948 3.33337 11.834 4.59421 11.834 6.16671V9.00004H6.16732C4.59482 9.00004 3.33398 10.2609 3.33398 11.8334V27.4167C3.33398 28.1682 3.6325 28.8888 4.16385 29.4202C4.6952 29.9515 5.41587 30.25 6.16732 30.25H28.834C29.5854 30.25 30.3061 29.9515 30.8375 29.4202C31.3688 28.8888 31.6673 28.1682 31.6673 27.4167V11.8334C31.6673 11.0819 31.3688 10.3613 30.8375 9.8299C30.3061 9.29855 29.5854 9.00004 28.834 9.00004ZM14.6673 6.16671H20.334V9.00004H14.6673V6.16671ZM17.5007 13.25C18.44 13.25 19.3408 13.6232 20.005 14.2874C20.6692 14.9516 21.0423 15.8524 21.0423 16.7917C21.0423 17.731 20.6692 18.6319 20.005 19.296C19.3408 19.9602 18.44 20.3334 17.5007 20.3334C16.5613 20.3334 15.6605 19.9602 14.9963 19.296C14.3321 18.6319 13.959 17.731 13.959 16.7917C13.959 15.8524 14.3321 14.9516 14.9963 14.2874C15.6605 13.6232 16.5613 13.25 17.5007 13.25ZM24.584 27.4167H10.4173V25.6459C10.4173 23.6909 13.5907 22.1042 17.5007 22.1042C21.4107 22.1042 24.584 23.6909 24.584 25.6459V27.4167Z" fill="#253E90"/>
</svg>
