<svg width="181" height="171" viewBox="0 0 181 171" fill="none" xmlns="http://www.w3.org/2000/svg">
<g clip-path="url(#clip0_974_7479)">
<path d="M181 140.856C173.209 144.714 163.783 143.009 157.626 136.881L157.254 136.511C149.622 128.907 147.22 117.664 150.709 107.484C153.495 99.3575 154.805 90.5426 154.339 81.3689C152.562 46.7561 121.845 16.6948 87.0737 15.5011C46.6239 14.1133 13.5286 47.0207 14.8213 87.3024C15.9487 122.568 46.7951 153.353 82.1865 154.54C96.3525 155.023 109.615 151.283 120.806 144.508C129.43 139.286 140.379 139.892 148.141 146.314L148.69 146.766C155.791 152.653 159.007 162.044 156.859 170.994" fill="url(#paint0_linear_974_7479)"/>
<path d="M84.8836 143.873C117.766 143.873 144.416 117.317 144.416 84.562C144.416 51.8075 117.761 25.251 84.8836 25.251C52.0067 25.251 25.3511 51.8075 25.3511 84.562C25.3511 117.317 52.0067 143.873 84.8836 143.873Z" fill="url(#paint1_linear_974_7479)"/>
<path d="M29.0933 147.654C11.5511 132.247 0.478027 109.684 0.478027 84.5621C0.478027 38.1176 38.2599 0.476318 84.8778 0.476318" stroke="url(#paint2_linear_974_7479)" stroke-width="1.62" stroke-miterlimit="10" stroke-linecap="round"/>
<path d="M169.284 84.562C169.284 97.6991 166.261 110.125 160.878 121.192" stroke="url(#paint3_linear_974_7479)" stroke-width="1.62" stroke-miterlimit="10" stroke-linecap="round"/>
<path d="M133.532 153.282C119.785 162.961 102.999 168.648 84.8897 168.648C82.086 168.648 79.3059 168.513 76.5671 168.248" stroke="url(#paint4_linear_974_7479)" stroke-width="1.62" stroke-miterlimit="10" stroke-linecap="round"/>
<path d="M172.034 84.5621C172.034 86.0793 170.806 87.3024 169.284 87.3024C167.761 87.3024 166.533 86.0793 166.533 84.5621C166.533 83.0449 167.761 81.8218 169.284 81.8218C170.806 81.8218 172.034 83.0449 172.034 84.5621Z" fill="url(#paint5_linear_974_7479)"/>
<path d="M41.0977 79.5166V76.7041C41.6074 77.1318 42.1611 77.4541 42.7588 77.6709C43.3564 77.8818 43.96 77.9873 44.5693 77.9873C44.9268 77.9873 45.2373 77.9551 45.501 77.8906C45.7705 77.8262 45.9932 77.7383 46.1689 77.627C46.3506 77.5098 46.4854 77.375 46.5732 77.2227C46.6611 77.0645 46.7051 76.8945 46.7051 76.7129C46.7051 76.4668 46.6348 76.2471 46.4941 76.0537C46.3535 75.8604 46.1602 75.6816 45.9141 75.5176C45.6738 75.3535 45.3867 75.1953 45.0527 75.043C44.7188 74.8906 44.3584 74.7354 43.9717 74.5771C42.9873 74.167 42.252 73.666 41.7656 73.0742C41.2852 72.4824 41.0449 71.7676 41.0449 70.9297C41.0449 70.2734 41.1768 69.7109 41.4404 69.2422C41.7041 68.7676 42.0615 68.3779 42.5127 68.0732C42.9697 67.7686 43.4971 67.5459 44.0947 67.4053C44.6924 67.2588 45.3252 67.1855 45.9932 67.1855C46.6494 67.1855 47.2295 67.2266 47.7334 67.3086C48.2432 67.3848 48.7119 67.5049 49.1396 67.6689V70.2969C48.9287 70.1504 48.6973 70.0215 48.4453 69.9102C48.1992 69.7988 47.9443 69.708 47.6807 69.6377C47.417 69.5615 47.1533 69.5059 46.8896 69.4707C46.6318 69.4355 46.3857 69.418 46.1514 69.418C45.8291 69.418 45.5361 69.4502 45.2725 69.5146C45.0088 69.5732 44.7861 69.6582 44.6045 69.7695C44.4229 69.8809 44.2822 70.0156 44.1826 70.1738C44.083 70.3262 44.0332 70.499 44.0332 70.6924C44.0332 70.9033 44.0889 71.0938 44.2002 71.2637C44.3115 71.4277 44.4697 71.5859 44.6748 71.7383C44.8799 71.8848 45.1289 72.0312 45.4219 72.1777C45.7148 72.3184 46.0459 72.4648 46.415 72.6172C46.9189 72.8281 47.3701 73.0537 47.7686 73.2939C48.1729 73.5283 48.5186 73.7949 48.8057 74.0938C49.0928 74.3926 49.3125 74.7354 49.4648 75.1221C49.6172 75.5029 49.6934 75.9482 49.6934 76.458C49.6934 77.1611 49.5586 77.7529 49.2891 78.2334C49.0254 78.708 48.665 79.0947 48.208 79.3936C47.751 79.6865 47.2178 79.8975 46.6084 80.0264C46.0049 80.1553 45.3662 80.2197 44.6924 80.2197C44.001 80.2197 43.3418 80.1611 42.7148 80.0439C42.0938 79.9268 41.5547 79.751 41.0977 79.5166ZM56.4785 79.8945C56.0684 80.1113 55.4502 80.2197 54.624 80.2197C52.667 80.2197 51.6885 79.2031 51.6885 77.1699V73.0479H50.2295V71H51.6885V69.0576L54.457 68.2666V71H56.4785V73.0479H54.457V76.6865C54.457 77.624 54.8291 78.0928 55.5732 78.0928C55.8662 78.0928 56.168 78.0078 56.4785 77.8379V79.8945ZM63.9229 73.5049C63.5889 73.3232 63.1992 73.2324 62.7539 73.2324C62.1504 73.2324 61.6787 73.4551 61.3389 73.9004C60.999 74.3398 60.8291 74.9404 60.8291 75.7021V80H58.0518V71H60.8291V72.6699H60.8643C61.3037 71.4512 62.0947 70.8418 63.2373 70.8418C63.5303 70.8418 63.7588 70.877 63.9229 70.9473V73.5049ZM73.2393 76.291H67.3682C67.4619 77.5977 68.2852 78.251 69.8379 78.251C70.8281 78.251 71.6982 78.0166 72.4482 77.5479V79.5518C71.6162 79.9971 70.5352 80.2197 69.2051 80.2197C67.752 80.2197 66.624 79.8184 65.8213 79.0156C65.0186 78.207 64.6172 77.082 64.6172 75.6406C64.6172 74.1465 65.0508 72.9629 65.918 72.0898C66.7852 71.2168 67.8516 70.7803 69.1172 70.7803C70.4297 70.7803 71.4434 71.1699 72.1582 71.9492C72.8789 72.7285 73.2393 73.7861 73.2393 75.1221V76.291ZM70.6641 74.5859C70.6641 73.2969 70.1426 72.6523 69.0996 72.6523C68.6543 72.6523 68.2676 72.8369 67.9395 73.2061C67.6172 73.5752 67.4209 74.0352 67.3506 74.5859H70.6641ZM82.3799 80H79.752V78.708H79.7168C79.1133 79.7158 78.2197 80.2197 77.0361 80.2197C76.1631 80.2197 75.4746 79.9736 74.9707 79.4814C74.4727 78.9834 74.2236 78.3213 74.2236 77.4951C74.2236 75.749 75.2578 74.7412 77.3262 74.4717L79.7695 74.1465C79.7695 73.1621 79.2363 72.6699 78.1699 72.6699C77.0977 72.6699 76.0781 72.9893 75.1113 73.6279V71.5361C75.498 71.3369 76.0254 71.1611 76.6934 71.0088C77.3672 70.8564 77.9795 70.7803 78.5303 70.7803C81.0967 70.7803 82.3799 72.0605 82.3799 74.6211V80ZM79.7695 76.3438V75.7373L78.1348 75.9482C77.2324 76.0654 76.7812 76.4727 76.7812 77.1699C76.7812 77.4863 76.8896 77.7471 77.1064 77.9521C77.3291 78.1514 77.6279 78.251 78.0029 78.251C78.5244 78.251 78.9492 78.0723 79.2773 77.7148C79.6055 77.3516 79.7695 76.8945 79.7695 76.3438ZM98.8682 80H96.0996V74.8672C96.0996 73.5605 95.6191 72.9072 94.6582 72.9072C94.2012 72.9072 93.8291 73.1035 93.542 73.4961C93.2549 73.8887 93.1113 74.3779 93.1113 74.9639V80H90.334V74.8145C90.334 73.543 89.8623 72.9072 88.9189 72.9072C88.4443 72.9072 88.0635 73.0947 87.7764 73.4697C87.4951 73.8447 87.3545 74.3545 87.3545 74.999V80H84.5771V71H87.3545V72.4062H87.3896C87.6768 71.9258 88.0781 71.5361 88.5938 71.2373C89.1152 70.9326 89.6836 70.7803 90.2988 70.7803C91.5703 70.7803 92.4404 71.3398 92.9092 72.459C93.5947 71.3398 94.6025 70.7803 95.9326 70.7803C97.8896 70.7803 98.8682 71.9873 98.8682 74.4014V80ZM103.843 80H101.065V66.6758H103.843V80ZM107.587 69.5762C107.118 69.5762 106.734 69.4385 106.436 69.1631C106.137 68.8818 105.987 68.5391 105.987 68.1348C105.987 67.7188 106.137 67.3789 106.436 67.1152C106.734 66.8516 107.118 66.7197 107.587 66.7197C108.062 66.7197 108.445 66.8516 108.738 67.1152C109.037 67.3789 109.187 67.7188 109.187 68.1348C109.187 68.5566 109.037 68.9023 108.738 69.1719C108.445 69.4414 108.062 69.5762 107.587 69.5762ZM108.958 80H106.181V71H108.958V80ZM119.988 80H117.22V74.999C117.22 73.6045 116.722 72.9072 115.726 72.9072C115.245 72.9072 114.85 73.0918 114.539 73.4609C114.229 73.8301 114.073 74.2988 114.073 74.8672V80H111.296V71H114.073V72.4238H114.108C114.771 71.3281 115.734 70.7803 117 70.7803C118.992 70.7803 119.988 72.0166 119.988 74.4893V80ZM130.28 76.291H124.409C124.503 77.5977 125.326 78.251 126.879 78.251C127.869 78.251 128.739 78.0166 129.489 77.5479V79.5518C128.657 79.9971 127.576 80.2197 126.246 80.2197C124.793 80.2197 123.665 79.8184 122.862 79.0156C122.06 78.207 121.658 77.082 121.658 75.6406C121.658 74.1465 122.092 72.9629 122.959 72.0898C123.826 71.2168 124.893 70.7803 126.158 70.7803C127.471 70.7803 128.484 71.1699 129.199 71.9492C129.92 72.7285 130.28 73.7861 130.28 75.1221V76.291ZM127.705 74.5859C127.705 73.2969 127.184 72.6523 126.141 72.6523C125.695 72.6523 125.309 72.8369 124.98 73.2061C124.658 73.5752 124.462 74.0352 124.392 74.5859H127.705ZM65.083 103.517V100.704C65.5928 101.132 66.1465 101.454 66.7441 101.671C67.3418 101.882 67.9453 101.987 68.5547 101.987C68.9121 101.987 69.2227 101.955 69.4863 101.891C69.7559 101.826 69.9785 101.738 70.1543 101.627C70.3359 101.51 70.4707 101.375 70.5586 101.223C70.6465 101.064 70.6904 100.895 70.6904 100.713C70.6904 100.467 70.6201 100.247 70.4795 100.054C70.3389 99.8604 70.1455 99.6816 69.8994 99.5176C69.6592 99.3535 69.3721 99.1953 69.0381 99.043C68.7041 98.8906 68.3438 98.7354 67.957 98.5771C66.9727 98.167 66.2373 97.666 65.751 97.0742C65.2705 96.4824 65.0303 95.7676 65.0303 94.9297C65.0303 94.2734 65.1621 93.7109 65.4258 93.2422C65.6895 92.7676 66.0469 92.3779 66.498 92.0732C66.9551 91.7686 67.4824 91.5459 68.0801 91.4053C68.6777 91.2588 69.3105 91.1855 69.9785 91.1855C70.6348 91.1855 71.2148 91.2266 71.7188 91.3086C72.2285 91.3848 72.6973 91.5049 73.125 91.6689V94.2969C72.9141 94.1504 72.6826 94.0215 72.4307 93.9102C72.1846 93.7988 71.9297 93.708 71.666 93.6377C71.4023 93.5615 71.1387 93.5059 70.875 93.4707C70.6172 93.4355 70.3711 93.418 70.1367 93.418C69.8145 93.418 69.5215 93.4502 69.2578 93.5146C68.9941 93.5732 68.7715 93.6582 68.5898 93.7695C68.4082 93.8809 68.2676 94.0156 68.168 94.1738C68.0684 94.3262 68.0186 94.499 68.0186 94.6924C68.0186 94.9033 68.0742 95.0938 68.1855 95.2637C68.2969 95.4277 68.4551 95.5859 68.6602 95.7383C68.8652 95.8848 69.1143 96.0312 69.4072 96.1777C69.7002 96.3184 70.0312 96.4648 70.4004 96.6172C70.9043 96.8281 71.3555 97.0537 71.7539 97.2939C72.1582 97.5283 72.5039 97.7949 72.791 98.0938C73.0781 98.3926 73.2979 98.7354 73.4502 99.1221C73.6025 99.5029 73.6787 99.9482 73.6787 100.458C73.6787 101.161 73.5439 101.753 73.2744 102.233C73.0107 102.708 72.6504 103.095 72.1934 103.394C71.7363 103.687 71.2031 103.897 70.5938 104.026C69.9902 104.155 69.3516 104.22 68.6777 104.22C67.9863 104.22 67.3271 104.161 66.7002 104.044C66.0791 103.927 65.54 103.751 65.083 103.517ZM82.9688 104H80.3408V102.708H80.3057C79.7021 103.716 78.8086 104.22 77.625 104.22C76.752 104.22 76.0635 103.974 75.5596 103.481C75.0615 102.983 74.8125 102.321 74.8125 101.495C74.8125 99.749 75.8467 98.7412 77.915 98.4717L80.3584 98.1465C80.3584 97.1621 79.8252 96.6699 78.7588 96.6699C77.6865 96.6699 76.667 96.9893 75.7002 97.6279V95.5361C76.0869 95.3369 76.6143 95.1611 77.2822 95.0088C77.9561 94.8564 78.5684 94.7803 79.1191 94.7803C81.6855 94.7803 82.9688 96.0605 82.9688 98.6211V104ZM80.3584 100.344V99.7373L78.7236 99.9482C77.8213 100.065 77.3701 100.473 77.3701 101.17C77.3701 101.486 77.4785 101.747 77.6953 101.952C77.918 102.151 78.2168 102.251 78.5918 102.251C79.1133 102.251 79.5381 102.072 79.8662 101.715C80.1943 101.352 80.3584 100.895 80.3584 100.344ZM87.9434 104H85.166V90.6758H87.9434V104ZM98.3672 100.291H92.4961C92.5898 101.598 93.4131 102.251 94.9658 102.251C95.9561 102.251 96.8262 102.017 97.5762 101.548V103.552C96.7441 103.997 95.6631 104.22 94.333 104.22C92.8799 104.22 91.752 103.818 90.9492 103.016C90.1465 102.207 89.7451 101.082 89.7451 99.6406C89.7451 98.1465 90.1787 96.9629 91.0459 96.0898C91.9131 95.2168 92.9795 94.7803 94.2451 94.7803C95.5576 94.7803 96.5713 95.1699 97.2861 95.9492C98.0068 96.7285 98.3672 97.7861 98.3672 99.1221V100.291ZM95.792 98.5859C95.792 97.2969 95.2705 96.6523 94.2275 96.6523C93.7822 96.6523 93.3955 96.8369 93.0674 97.2061C92.7451 97.5752 92.5488 98.0352 92.4785 98.5859H95.792ZM99.4307 103.763V101.513C99.8877 101.788 100.342 101.993 100.793 102.128C101.25 102.263 101.681 102.33 102.085 102.33C102.577 102.33 102.964 102.263 103.245 102.128C103.532 101.993 103.676 101.788 103.676 101.513C103.676 101.337 103.611 101.19 103.482 101.073C103.354 100.956 103.187 100.854 102.981 100.766C102.782 100.678 102.562 100.599 102.322 100.528C102.082 100.458 101.851 100.379 101.628 100.291C101.271 100.156 100.954 100.013 100.679 99.8604C100.409 99.7021 100.181 99.5205 99.9932 99.3154C99.8115 99.1104 99.6709 98.873 99.5713 98.6035C99.4775 98.334 99.4307 98.0146 99.4307 97.6455C99.4307 97.1416 99.5391 96.708 99.7559 96.3447C99.9785 95.9814 100.271 95.6855 100.635 95.457C101.004 95.2227 101.423 95.0527 101.892 94.9473C102.366 94.8359 102.858 94.7803 103.368 94.7803C103.767 94.7803 104.171 94.8125 104.581 94.877C104.991 94.9355 105.396 95.0234 105.794 95.1406V97.2852C105.442 97.0801 105.064 96.9277 104.66 96.8281C104.262 96.7227 103.869 96.6699 103.482 96.6699C103.301 96.6699 103.128 96.6875 102.964 96.7227C102.806 96.752 102.665 96.7988 102.542 96.8633C102.419 96.9219 102.322 97.001 102.252 97.1006C102.182 97.1943 102.146 97.3027 102.146 97.4258C102.146 97.5898 102.199 97.7305 102.305 97.8477C102.41 97.9648 102.548 98.0674 102.718 98.1553C102.888 98.2373 103.075 98.3135 103.28 98.3838C103.491 98.4482 103.699 98.5156 103.904 98.5859C104.273 98.7148 104.607 98.8555 104.906 99.0078C105.205 99.1602 105.46 99.3389 105.671 99.5439C105.888 99.749 106.052 99.9893 106.163 100.265C106.28 100.54 106.339 100.868 106.339 101.249C106.339 101.782 106.222 102.239 105.987 102.62C105.759 102.995 105.451 103.303 105.064 103.543C104.684 103.777 104.241 103.947 103.737 104.053C103.239 104.164 102.721 104.22 102.182 104.22C101.191 104.22 100.274 104.067 99.4307 103.763Z" fill="white"/>
</g>
<defs>
<linearGradient id="paint0_linear_974_7479" x1="33.9336" y1="34.5481" x2="212.795" y2="214.077" gradientUnits="userSpaceOnUse">
<stop stop-color="white"/>
<stop offset="1" stop-color="#E6E7E7"/>
</linearGradient>
<linearGradient id="paint1_linear_974_7479" x1="43.5012" y1="108.854" x2="139.821" y2="51.8815" gradientUnits="userSpaceOnUse">
<stop stop-color="#30A9E0"/>
<stop offset="1" stop-color="#234090"/>
</linearGradient>
<linearGradient id="paint2_linear_974_7479" x1="-7.4795e-05" y1="74.0653" x2="85.3559" y2="74.0653" gradientUnits="userSpaceOnUse">
<stop stop-color="#818285"/>
<stop offset="1" stop-color="#595A5C"/>
</linearGradient>
<linearGradient id="paint3_linear_974_7479" x1="160.4" y1="102.874" x2="169.762" y2="102.874" gradientUnits="userSpaceOnUse">
<stop stop-color="#818285"/>
<stop offset="1" stop-color="#595A5C"/>
</linearGradient>
<linearGradient id="paint4_linear_974_7479" x1="76.089" y1="160.962" x2="134.01" y2="160.962" gradientUnits="userSpaceOnUse">
<stop stop-color="#818285"/>
<stop offset="1" stop-color="#595A5C"/>
</linearGradient>
<linearGradient id="paint5_linear_974_7479" x1="166.533" y1="84.5562" x2="172.034" y2="84.5562" gradientUnits="userSpaceOnUse">
<stop stop-color="#818285"/>
<stop offset="1" stop-color="#595A5C"/>
</linearGradient>
<clipPath id="clip0_974_7479">
<rect width="181" height="171" fill="white"/>
</clipPath>
</defs>
</svg>
