<svg width="561" height="458" viewBox="0 0 561 458" fill="none" xmlns="http://www.w3.org/2000/svg">
<g filter="url(#filter0_d_950_7806)">
<path d="M486.247 290.105C527.346 249.007 527.346 182.372 486.247 141.274C445.149 100.175 378.514 100.175 337.415 141.274C296.317 182.372 296.317 249.007 337.415 290.105C378.514 331.204 445.149 331.204 486.247 290.105Z" fill="url(#paint0_linear_950_7806)"/>
</g>
<path d="M411.514 130.4C372.894 130.54 340.334 156.36 329.984 191.67C327.284 200.88 318.954 207.28 309.354 207.28H309.294C297.104 207.28 285.934 200.73 279.704 190.25C271.454 176.36 256.674 166.72 239.694 165.71C230.594 165.17 221.974 167.06 214.434 170.8C205.874 175.05 195.524 173.17 188.764 166.42L188.354 166.01C179.974 157.63 177.334 145.23 181.164 134.01C184.224 125.05 185.664 115.33 185.154 105.22C183.204 67.0599 149.464 33.9199 111.274 32.5999C66.8443 31.0699 30.4943 67.3499 31.9143 111.76C33.1543 150.64 67.0343 184.58 105.904 185.89C121.464 186.42 136.034 182.3 148.324 174.83C157.794 169.07 169.824 169.74 178.344 176.82L178.944 177.32C186.744 183.81 190.274 194.16 187.914 204.03C186.774 208.8 186.314 213.83 186.654 219.02C187.354 229.85 191.564 239.8 198.164 247.71C201.524 251.73 201.534 257.58 198.234 261.65L197.764 262.23C194.184 266.65 188.134 268.11 182.874 265.95C172.354 261.62 160.794 259.3 148.664 259.48C101.274 260.16 62.9143 299.4 63.2543 346.79C63.6043 394.91 103.174 433.71 151.584 432.8C197.864 431.94 235.644 394.22 236.584 347.94C237.094 322.93 226.994 300.29 210.494 284.17C206.414 280.18 205.334 274.05 207.984 268.99L208.124 268.73C210.614 263.98 216.154 261.72 221.264 263.37C224.714 264.48 228.324 265.23 232.044 265.56C252.254 267.35 270.254 257.12 279.684 241.21C285.924 230.7 297.094 224.1 309.324 224.1C318.944 224.1 327.264 230.54 329.964 239.77C340.354 275.15 373.054 300.99 411.794 300.99C459.584 300.99 498.184 261.69 497.054 213.65C495.964 167.5 457.634 130.26 411.474 130.43L411.514 130.4Z" stroke="url(#paint1_linear_950_7806)" stroke-width="6.3" stroke-miterlimit="10"/>
<g filter="url(#filter1_d_950_7806)">
<path d="M411.514 130.4C372.894 130.54 340.334 156.36 329.984 191.67C327.284 200.88 318.954 207.28 309.354 207.28H309.294C297.104 207.28 285.934 200.73 279.704 190.25C271.454 176.36 256.674 166.72 239.694 165.71C230.594 165.17 221.974 167.06 214.434 170.8C205.874 175.05 195.524 173.17 188.764 166.42L188.354 166.01C179.974 157.63 177.334 145.23 181.164 134.01C184.224 125.05 185.664 115.33 185.154 105.22C183.204 67.0599 149.464 33.9199 111.274 32.5999C66.8443 31.0699 30.4943 67.3499 31.9143 111.76C33.1543 150.64 67.0343 184.58 105.904 185.89C121.464 186.42 136.034 182.3 148.324 174.83C157.794 169.07 169.824 169.74 178.344 176.82L178.944 177.32C186.744 183.81 190.274 194.16 187.914 204.03C186.774 208.8 186.314 213.83 186.654 219.02C187.354 229.85 191.564 239.8 198.164 247.71C201.524 251.73 201.534 257.58 198.234 261.65L197.764 262.23C194.184 266.65 188.134 268.11 182.874 265.95C172.354 261.62 160.794 259.3 148.664 259.48C101.274 260.16 62.9143 299.4 63.2543 346.79C63.6043 394.91 103.174 433.71 151.584 432.8C197.864 431.94 235.644 394.22 236.584 347.94C237.094 322.93 226.994 300.29 210.494 284.17C206.414 280.18 205.334 274.05 207.984 268.99L208.124 268.73C210.614 263.98 216.154 261.72 221.264 263.37C224.714 264.48 228.324 265.23 232.044 265.56C252.254 267.35 270.254 257.12 279.684 241.21C285.924 230.7 297.094 224.1 309.324 224.1C318.944 224.1 327.264 230.54 329.964 239.77C340.354 275.15 373.054 300.99 411.794 300.99C459.584 300.99 498.184 261.69 497.054 213.65C495.964 167.5 457.634 130.26 411.474 130.43L411.514 130.4Z" fill="url(#paint2_linear_950_7806)"/>
</g>
<g filter="url(#filter2_d_950_7806)">
<path d="M205.559 401.717C236.262 371.014 236.262 321.235 205.559 290.532C174.856 259.829 125.077 259.829 94.3737 290.532C63.6707 321.235 63.6707 371.014 94.3737 401.717C125.077 432.42 174.856 432.42 205.559 401.717Z" fill="url(#paint3_linear_950_7806)"/>
</g>
<g filter="url(#filter3_d_950_7806)">
<path d="M202.094 398.252C230.884 369.463 230.884 322.786 202.094 293.997C173.305 265.207 126.628 265.207 97.8385 293.997C69.049 322.786 69.049 369.463 97.8385 398.252C126.628 427.042 173.305 427.042 202.094 398.252Z" stroke="url(#paint4_linear_950_7806)" stroke-width="3.15" stroke-miterlimit="10"/>
</g>
<g filter="url(#filter4_d_950_7806)">
<path d="M108.574 174.63C144.688 174.63 173.964 145.354 173.964 109.24C173.964 73.1262 144.688 43.8501 108.574 43.8501C72.4604 43.8501 43.1843 73.1262 43.1843 109.24C43.1843 145.354 72.4604 174.63 108.574 174.63Z" fill="url(#paint5_linear_950_7806)"/>
</g>
<g filter="url(#filter5_d_950_7806)">
<path d="M411.834 292.92C454.487 292.92 489.064 258.343 489.064 215.69C489.064 173.037 454.487 138.46 411.834 138.46C369.181 138.46 334.604 173.037 334.604 215.69C334.604 258.343 369.181 292.92 411.834 292.92Z" stroke="url(#paint6_linear_950_7806)" stroke-width="5.25" stroke-miterlimit="10"/>
</g>
<g filter="url(#filter6_d_950_7806)">
<path d="M221.914 409.72C204.324 429.61 178.604 442.15 149.964 442.15C96.9343 442.15 53.9343 399.16 53.9343 346.12C53.9343 335.97 55.5043 326.19 58.4243 317" stroke="url(#paint7_linear_950_7806)" stroke-width="1.05" stroke-miterlimit="10" stroke-linecap="round"/>
</g>
<path d="M58.3443 320.03C60.0122 320.03 61.3643 318.678 61.3643 317.01C61.3643 315.342 60.0122 313.99 58.3443 313.99C56.6764 313.99 55.3243 315.342 55.3243 317.01C55.3243 318.678 56.6764 320.03 58.3443 320.03Z" fill="url(#paint8_linear_950_7806)"/>
<g filter="url(#filter7_d_950_7806)">
<path d="M47.2943 178.8C28.0243 161.81 15.8643 136.94 15.8643 109.24C15.8643 58.04 57.3643 16.54 108.564 16.54" stroke="url(#paint9_linear_950_7806)" stroke-width="1.05" stroke-miterlimit="10" stroke-linecap="round"/>
</g>
<g filter="url(#filter8_d_950_7806)">
<path d="M201.274 109.24C201.274 123.72 197.954 137.42 192.044 149.62" stroke="url(#paint10_linear_950_7806)" stroke-width="1.05" stroke-miterlimit="10" stroke-linecap="round"/>
</g>
<g filter="url(#filter9_d_950_7806)">
<path d="M162.004 185C146.904 195.67 128.464 201.94 108.574 201.94C105.494 201.94 102.444 201.79 99.4343 201.5" stroke="url(#paint11_linear_950_7806)" stroke-width="1.05" stroke-miterlimit="10" stroke-linecap="round"/>
</g>
<path d="M108.574 19.56C110.242 19.56 111.594 18.2079 111.594 16.54C111.594 14.8721 110.242 13.52 108.574 13.52C106.906 13.52 105.554 14.8721 105.554 16.54C105.554 18.2079 106.906 19.56 108.574 19.56Z" fill="url(#paint12_linear_950_7806)"/>
<path d="M204.294 109.24C204.294 110.91 202.944 112.26 201.274 112.26C199.604 112.26 198.254 110.91 198.254 109.24C198.254 107.57 199.604 106.22 201.274 106.22C202.944 106.22 204.294 107.57 204.294 109.24Z" fill="url(#paint13_linear_950_7806)"/>
<g filter="url(#filter10_d_950_7806)">
<path d="M341.294 304.12C321.194 288.07 306.694 265.3 301.174 239.22" stroke="url(#paint14_linear_950_7806)" stroke-width="1.05" stroke-miterlimit="10" stroke-linecap="round"/>
</g>
<g filter="url(#filter11_d_950_7806)">
<path d="M391.954 104.31C398.404 103.17 405.044 102.57 411.834 102.57C474.304 102.57 524.954 153.21 524.954 215.69C524.954 278.17 474.314 328.81 411.834 328.81" stroke="url(#paint15_linear_950_7806)" stroke-width="1.05" stroke-miterlimit="10" stroke-linecap="round"/>
</g>
<path d="M414.834 328.8C414.834 330.47 413.484 331.82 411.814 331.82C410.144 331.82 408.794 330.47 408.794 328.8C408.794 327.13 410.144 325.78 411.814 325.78C413.484 325.78 414.834 327.13 414.834 328.8Z" fill="url(#paint16_linear_950_7806)"/>
<defs>
<filter id="filter0_d_950_7806" x="292.651" y="96.5095" width="238.36" height="238.36" filterUnits="userSpaceOnUse" color-interpolation-filters="sRGB">
<feFlood flood-opacity="0" result="BackgroundImageFix"/>
<feColorMatrix in="SourceAlpha" type="matrix" values="0 0 0 0 0 0 0 0 0 0 0 0 0 0 0 0 0 0 127 0" result="hardAlpha"/>
<feOffset/>
<feGaussianBlur stdDeviation="6.97"/>
<feColorMatrix type="matrix" values="0 0 0 0 0.698039 0 0 0 0 0.698039 0 0 0 0 0.698039 0 0 0 0.75 0"/>
<feBlend mode="normal" in2="BackgroundImageFix" result="effect1_dropShadow_950_7806"/>
<feBlend mode="normal" in="SourceGraphic" in2="effect1_dropShadow_950_7806" result="shape"/>
</filter>
<filter id="filter1_d_950_7806" x="31.8741" y="32.5532" width="486.204" height="421.262" filterUnits="userSpaceOnUse" color-interpolation-filters="sRGB">
<feFlood flood-opacity="0" result="BackgroundImageFix"/>
<feColorMatrix in="SourceAlpha" type="matrix" values="0 0 0 0 0 0 0 0 0 0 0 0 0 0 0 0 0 0 127 0" result="hardAlpha"/>
<feOffset dx="10.5" dy="10.5"/>
<feGaussianBlur stdDeviation="5.25"/>
<feColorMatrix type="matrix" values="0 0 0 0 0.682353 0 0 0 0 0.807843 0 0 0 0 0.807843 0 0 0 0.75 0"/>
<feBlend mode="normal" in2="BackgroundImageFix" result="effect1_dropShadow_950_7806"/>
<feBlend mode="normal" in="SourceGraphic" in2="effect1_dropShadow_950_7806" result="shape"/>
</filter>
<filter id="filter2_d_950_7806" x="60.9265" y="257.085" width="178.08" height="178.08" filterUnits="userSpaceOnUse" color-interpolation-filters="sRGB">
<feFlood flood-opacity="0" result="BackgroundImageFix"/>
<feColorMatrix in="SourceAlpha" type="matrix" values="0 0 0 0 0 0 0 0 0 0 0 0 0 0 0 0 0 0 127 0" result="hardAlpha"/>
<feOffset/>
<feGaussianBlur stdDeviation="5.21"/>
<feColorMatrix type="matrix" values="0 0 0 0 0.698039 0 0 0 0 0.698039 0 0 0 0 0.698039 0 0 0 0.75 0"/>
<feBlend mode="normal" in2="BackgroundImageFix" result="effect1_dropShadow_950_7806"/>
<feBlend mode="normal" in="SourceGraphic" in2="effect1_dropShadow_950_7806" result="shape"/>
</filter>
<filter id="filter3_d_950_7806" x="64.9114" y="261.07" width="170.11" height="170.11" filterUnits="userSpaceOnUse" color-interpolation-filters="sRGB">
<feFlood flood-opacity="0" result="BackgroundImageFix"/>
<feColorMatrix in="SourceAlpha" type="matrix" values="0 0 0 0 0 0 0 0 0 0 0 0 0 0 0 0 0 0 127 0" result="hardAlpha"/>
<feOffset/>
<feGaussianBlur stdDeviation="4.88"/>
<feColorMatrix type="matrix" values="0 0 0 0 0.698039 0 0 0 0 0.698039 0 0 0 0 0.698039 0 0 0 0.75 0"/>
<feBlend mode="normal" in2="BackgroundImageFix" result="effect1_dropShadow_950_7806"/>
<feBlend mode="normal" in="SourceGraphic" in2="effect1_dropShadow_950_7806" result="shape"/>
</filter>
<filter id="filter4_d_950_7806" x="32.5643" y="33.2301" width="152.02" height="152.02" filterUnits="userSpaceOnUse" color-interpolation-filters="sRGB">
<feFlood flood-opacity="0" result="BackgroundImageFix"/>
<feColorMatrix in="SourceAlpha" type="matrix" values="0 0 0 0 0 0 0 0 0 0 0 0 0 0 0 0 0 0 127 0" result="hardAlpha"/>
<feOffset/>
<feGaussianBlur stdDeviation="5.31"/>
<feColorMatrix type="matrix" values="0 0 0 0 0.698039 0 0 0 0 0.698039 0 0 0 0 0.698039 0 0 0 0.75 0"/>
<feBlend mode="normal" in2="BackgroundImageFix" result="effect1_dropShadow_950_7806"/>
<feBlend mode="normal" in="SourceGraphic" in2="effect1_dropShadow_950_7806" result="shape"/>
</filter>
<filter id="filter5_d_950_7806" x="321.759" y="125.615" width="180.15" height="180.15" filterUnits="userSpaceOnUse" color-interpolation-filters="sRGB">
<feFlood flood-opacity="0" result="BackgroundImageFix"/>
<feColorMatrix in="SourceAlpha" type="matrix" values="0 0 0 0 0 0 0 0 0 0 0 0 0 0 0 0 0 0 127 0" result="hardAlpha"/>
<feOffset/>
<feGaussianBlur stdDeviation="5.11"/>
<feColorMatrix type="matrix" values="0 0 0 0 0.698039 0 0 0 0 0.698039 0 0 0 0 0.698039 0 0 0 0.75 0"/>
<feBlend mode="normal" in2="BackgroundImageFix" result="effect1_dropShadow_950_7806"/>
<feBlend mode="normal" in="SourceGraphic" in2="effect1_dropShadow_950_7806" result="shape"/>
</filter>
<filter id="filter6_d_950_7806" x="40.6893" y="303.755" width="194.47" height="151.64" filterUnits="userSpaceOnUse" color-interpolation-filters="sRGB">
<feFlood flood-opacity="0" result="BackgroundImageFix"/>
<feColorMatrix in="SourceAlpha" type="matrix" values="0 0 0 0 0 0 0 0 0 0 0 0 0 0 0 0 0 0 127 0" result="hardAlpha"/>
<feOffset/>
<feGaussianBlur stdDeviation="6.36"/>
<feColorMatrix type="matrix" values="0 0 0 0 0.698039 0 0 0 0 0.698039 0 0 0 0 0.698039 0 0 0 0.75 0"/>
<feBlend mode="normal" in2="BackgroundImageFix" result="effect1_dropShadow_950_7806"/>
<feBlend mode="normal" in="SourceGraphic" in2="effect1_dropShadow_950_7806" result="shape"/>
</filter>
<filter id="filter7_d_950_7806" x="0.279325" y="0.955136" width="123.87" height="193.43" filterUnits="userSpaceOnUse" color-interpolation-filters="sRGB">
<feFlood flood-opacity="0" result="BackgroundImageFix"/>
<feColorMatrix in="SourceAlpha" type="matrix" values="0 0 0 0 0 0 0 0 0 0 0 0 0 0 0 0 0 0 127 0" result="hardAlpha"/>
<feOffset/>
<feGaussianBlur stdDeviation="7.53"/>
<feColorMatrix type="matrix" values="0 0 0 0 0.698039 0 0 0 0 0.698039 0 0 0 0 0.698039 0 0 0 0.75 0"/>
<feBlend mode="normal" in2="BackgroundImageFix" result="effect1_dropShadow_950_7806"/>
<feBlend mode="normal" in="SourceGraphic" in2="effect1_dropShadow_950_7806" result="shape"/>
</filter>
<filter id="filter8_d_950_7806" x="176.459" y="93.6551" width="40.4001" height="71.5499" filterUnits="userSpaceOnUse" color-interpolation-filters="sRGB">
<feFlood flood-opacity="0" result="BackgroundImageFix"/>
<feColorMatrix in="SourceAlpha" type="matrix" values="0 0 0 0 0 0 0 0 0 0 0 0 0 0 0 0 0 0 127 0" result="hardAlpha"/>
<feOffset/>
<feGaussianBlur stdDeviation="7.53"/>
<feColorMatrix type="matrix" values="0 0 0 0 0.698039 0 0 0 0 0.698039 0 0 0 0 0.698039 0 0 0 0.75 0"/>
<feBlend mode="normal" in2="BackgroundImageFix" result="effect1_dropShadow_950_7806"/>
<feBlend mode="normal" in="SourceGraphic" in2="effect1_dropShadow_950_7806" result="shape"/>
</filter>
<filter id="filter9_d_950_7806" x="83.8493" y="169.415" width="93.7401" height="48.1102" filterUnits="userSpaceOnUse" color-interpolation-filters="sRGB">
<feFlood flood-opacity="0" result="BackgroundImageFix"/>
<feColorMatrix in="SourceAlpha" type="matrix" values="0 0 0 0 0 0 0 0 0 0 0 0 0 0 0 0 0 0 127 0" result="hardAlpha"/>
<feOffset/>
<feGaussianBlur stdDeviation="7.53"/>
<feColorMatrix type="matrix" values="0 0 0 0 0.698039 0 0 0 0 0.698039 0 0 0 0 0.698039 0 0 0 0.75 0"/>
<feBlend mode="normal" in2="BackgroundImageFix" result="effect1_dropShadow_950_7806"/>
<feBlend mode="normal" in="SourceGraphic" in2="effect1_dropShadow_950_7806" result="shape"/>
</filter>
<filter id="filter10_d_950_7806" x="285.669" y="223.715" width="71.1301" height="95.9102" filterUnits="userSpaceOnUse" color-interpolation-filters="sRGB">
<feFlood flood-opacity="0" result="BackgroundImageFix"/>
<feColorMatrix in="SourceAlpha" type="matrix" values="0 0 0 0 0 0 0 0 0 0 0 0 0 0 0 0 0 0 127 0" result="hardAlpha"/>
<feOffset/>
<feGaussianBlur stdDeviation="7.49"/>
<feColorMatrix type="matrix" values="0 0 0 0 0.698039 0 0 0 0 0.698039 0 0 0 0 0.698039 0 0 0 0.75 0"/>
<feBlend mode="normal" in2="BackgroundImageFix" result="effect1_dropShadow_950_7806"/>
<feBlend mode="normal" in="SourceGraphic" in2="effect1_dropShadow_950_7806" result="shape"/>
</filter>
<filter id="filter11_d_950_7806" x="376.449" y="87.0652" width="164.01" height="257.25" filterUnits="userSpaceOnUse" color-interpolation-filters="sRGB">
<feFlood flood-opacity="0" result="BackgroundImageFix"/>
<feColorMatrix in="SourceAlpha" type="matrix" values="0 0 0 0 0 0 0 0 0 0 0 0 0 0 0 0 0 0 127 0" result="hardAlpha"/>
<feOffset/>
<feGaussianBlur stdDeviation="7.49"/>
<feColorMatrix type="matrix" values="0 0 0 0 0.698039 0 0 0 0 0.698039 0 0 0 0 0.698039 0 0 0 0.75 0"/>
<feBlend mode="normal" in2="BackgroundImageFix" result="effect1_dropShadow_950_7806"/>
<feBlend mode="normal" in="SourceGraphic" in2="effect1_dropShadow_950_7806" result="shape"/>
</filter>
<linearGradient id="paint0_linear_950_7806" x1="371.684" y1="314.48" x2="466.871" y2="86.5156" gradientUnits="userSpaceOnUse">
<stop stop-color="#2BAAE2"/>
<stop offset="1" stop-color="#253E90"/>
</linearGradient>
<linearGradient id="paint1_linear_950_7806" x1="51.9043" y1="52.9899" x2="375.754" y2="376.84" gradientUnits="userSpaceOnUse">
<stop stop-color="white"/>
<stop offset="1" stop-color="#E6E7E8"/>
</linearGradient>
<linearGradient id="paint2_linear_950_7806" x1="50.9143" y1="51.9999" x2="496.634" y2="497.72" gradientUnits="userSpaceOnUse">
<stop stop-color="white"/>
<stop offset="1" stop-color="#E6E7E8"/>
</linearGradient>
<linearGradient id="paint3_linear_950_7806" x1="97.9034" y1="398.188" x2="134.917" y2="254.968" gradientUnits="userSpaceOnUse">
<stop stop-color="#2BAAE2"/>
<stop offset="1" stop-color="#253E90"/>
</linearGradient>
<linearGradient id="paint4_linear_950_7806" x1="203.205" y1="399.369" x2="96.7246" y2="292.879" gradientUnits="userSpaceOnUse">
<stop stop-color="white"/>
<stop offset="1" stop-color="#E6E7E8"/>
</linearGradient>
<linearGradient id="paint5_linear_950_7806" x1="47.3361" y1="109.24" x2="153.334" y2="46.7784" gradientUnits="userSpaceOnUse">
<stop stop-color="#2BAAE2"/>
<stop offset="1" stop-color="#253E90"/>
</linearGradient>
<linearGradient id="paint6_linear_950_7806" x1="339.508" y1="215.69" x2="464.699" y2="141.919" gradientUnits="userSpaceOnUse">
<stop stop-color="#2BAAE2"/>
<stop offset="1" stop-color="#253E90"/>
</linearGradient>
<linearGradient id="paint7_linear_950_7806" x1="53.4143" y1="379.58" x2="222.444" y2="379.58" gradientUnits="userSpaceOnUse">
<stop stop-color="#808285"/>
<stop offset="1" stop-color="#58595B"/>
</linearGradient>
<linearGradient id="paint8_linear_950_7806" x1="55.3243" y1="317.01" x2="61.3643" y2="317.01" gradientUnits="userSpaceOnUse">
<stop stop-color="#808285"/>
<stop offset="1" stop-color="#58595B"/>
</linearGradient>
<linearGradient id="paint9_linear_950_7806" x1="15.3443" y1="97.67" x2="109.104" y2="97.67" gradientUnits="userSpaceOnUse">
<stop stop-color="#808285"/>
<stop offset="1" stop-color="#58595B"/>
</linearGradient>
<linearGradient id="paint10_linear_950_7806" x1="191.514" y1="129.43" x2="201.804" y2="129.43" gradientUnits="userSpaceOnUse">
<stop stop-color="#808285"/>
<stop offset="1" stop-color="#58595B"/>
</linearGradient>
<linearGradient id="paint11_linear_950_7806" x1="98.9143" y1="193.47" x2="162.534" y2="193.47" gradientUnits="userSpaceOnUse">
<stop stop-color="#808285"/>
<stop offset="1" stop-color="#58595B"/>
</linearGradient>
<linearGradient id="paint12_linear_950_7806" x1="105.554" y1="16.54" x2="111.594" y2="16.54" gradientUnits="userSpaceOnUse">
<stop stop-color="#808285"/>
<stop offset="1" stop-color="#58595B"/>
</linearGradient>
<linearGradient id="paint13_linear_950_7806" x1="198.254" y1="109.24" x2="204.294" y2="109.24" gradientUnits="userSpaceOnUse">
<stop stop-color="#808285"/>
<stop offset="1" stop-color="#58595B"/>
</linearGradient>
<linearGradient id="paint14_linear_950_7806" x1="300.644" y1="271.67" x2="341.814" y2="271.67" gradientUnits="userSpaceOnUse">
<stop stop-color="#808285"/>
<stop offset="1" stop-color="#58595B"/>
</linearGradient>
<linearGradient id="paint15_linear_950_7806" x1="391.434" y1="215.69" x2="525.474" y2="215.69" gradientUnits="userSpaceOnUse">
<stop stop-color="#808285"/>
<stop offset="1" stop-color="#58595B"/>
</linearGradient>
<linearGradient id="paint16_linear_950_7806" x1="408.794" y1="328.8" x2="414.834" y2="328.8" gradientUnits="userSpaceOnUse">
<stop stop-color="#808285"/>
<stop offset="1" stop-color="#58595B"/>
</linearGradient>
</defs>
</svg>
