<svg width="160" height="160" viewBox="0 0 160 160" fill="none" xmlns="http://www.w3.org/2000/svg">
<path d="M157.335 112C157.335 137.04 137.041 157.333 112.001 157.333C98.1613 157.333 85.7613 151.12 77.468 141.333C70.7213 133.44 66.668 123.2 66.668 112C66.668 87.8401 85.548 68.1067 109.335 66.7467C110.215 66.6934 111.121 66.6667 112.001 66.6667C121.361 66.6667 130.028 69.4934 137.228 74.3201L136.695 74.8534C136.135 75.4401 135.868 76.2934 136.055 77.0667L137.788 84.4267C138.001 85.3067 138.695 86.0001 139.575 86.2134L146.935 87.9467C147.708 88.1334 148.561 87.8668 149.148 87.3068L149.681 86.7734C154.508 93.9734 157.335 102.64 157.335 112Z" fill="#D93625"/>
<path d="M112.003 146.667C131.148 146.667 146.669 131.146 146.669 112C146.669 92.8543 131.148 77.3335 112.003 77.3335C92.8567 77.3335 77.3359 92.8543 77.3359 112C77.3359 131.146 92.8567 146.667 112.003 146.667Z" fill="#ECF0F1"/>
<path d="M112 136C125.255 136 136 125.255 136 112C136 98.7452 125.255 88 112 88C98.7452 88 88 98.7452 88 112C88 125.255 98.7452 136 112 136Z" fill="#D93625"/>
<path d="M156.642 79.8135L149.149 87.3068C148.562 87.8668 147.709 88.1335 146.935 87.9468L139.575 86.2135C138.695 86.0002 138.002 85.3068 137.789 84.4268L136.055 77.0668C135.869 76.2935 136.135 75.4402 136.695 74.8535L144.189 67.3602C145.122 66.4268 146.615 66.4268 147.549 67.3602L156.642 76.4535C157.575 77.3868 157.575 78.8802 156.642 79.8135Z" fill="#ED8B13"/>
<path d="M112.001 125.333C119.365 125.333 125.335 119.364 125.335 112C125.335 104.636 119.365 98.6667 112.001 98.6667C104.638 98.6667 98.668 104.636 98.668 112C98.668 119.364 104.638 125.333 112.001 125.333Z" fill="#ECF0F1"/>
<path d="M109.335 24.0001V66.7467C85.548 68.1068 66.668 87.8401 66.668 112C66.668 123.2 70.7213 133.44 77.468 141.333H5.33464C3.86797 141.333 2.66797 140.133 2.66797 138.667V5.33341C2.66797 3.86675 3.86797 2.66675 5.33464 2.66675H88.0013V18.6667C88.0013 21.6001 90.4013 24.0001 93.3346 24.0001H109.335Z" fill="#ECF0F1"/>
<path d="M109.333 24.0001H93.3333C90.4 24.0001 88 21.6001 88 18.6667V2.66675L109.333 24.0001Z" fill="#88ABAB"/>
<path d="M34.6693 34.6667H16.0026C14.5298 34.6667 13.3359 35.8607 13.3359 37.3334V56.0001C13.3359 57.4728 14.5298 58.6667 16.0026 58.6667H34.6693C36.142 58.6667 37.3359 57.4728 37.3359 56.0001V37.3334C37.3359 35.8607 36.142 34.6667 34.6693 34.6667Z" fill="#58C758"/>
<path d="M34.6693 69.3335H16.0026C14.5298 69.3335 13.3359 70.5274 13.3359 72.0002V90.6668C13.3359 92.1396 14.5298 93.3335 16.0026 93.3335H34.6693C36.142 93.3335 37.3359 92.1396 37.3359 90.6668V72.0002C37.3359 70.5274 36.142 69.3335 34.6693 69.3335Z" fill="#58C758"/>
<path d="M34.6693 104H16.0026C14.5298 104 13.3359 105.194 13.3359 106.667V125.333C13.3359 126.806 14.5298 128 16.0026 128H34.6693C36.142 128 37.3359 126.806 37.3359 125.333V106.667C37.3359 105.194 36.142 104 34.6693 104Z" fill="#58C758"/>
<path d="M155.041 71.136C156.156 70 157.27 68.8613 158.388 67.7226C159.766 66.3226 157.641 64.2613 156.276 65.6106C155.137 66.728 153.996 67.8453 152.857 68.9626C151.668 67.84 150.468 66.7306 149.23 65.656C147.75 64.2693 145.484 64.0106 143.758 64.9973C142.508 65.6293 140.82 68.2133 139.87 69.1066C139.401 69.68 138.494 70.7386 137.636 71.7386C129.428 66.2106 120.436 63.8186 111.646 63.9733C111.332 51.672 111.129 35.4373 110.918 23.9653C110.913 23.5706 110.758 23.176 110.454 22.8773L109.332 21.7813V21.6133L109.185 21.6373C104.609 17.1626 88.881 1.78395 88.881 1.78395C62.5983 0.802617 35.713 2.07728 9.23835 1.53595C7.55301 1.59728 6.13701 1.35728 4.30235 1.65595C2.10235 2.21328 1.27301 4.45328 1.48635 6.50662L1.46235 11.1386C1.34768 37.7733 0.78768 77.0586 0.45968 103.795C0.366347 112.229 0.22768 127.963 0.182347 136.224L0.166347 138.541C-0.0256534 141.24 2.55035 143.971 5.36368 143.859C29.2757 144.048 53.3317 144.139 77.2224 143.069C93.1077 160.091 121.126 164.568 141.513 147.925C159.542 133.627 164.257 106.355 152.329 86.6053C153.481 85.5946 154.94 84.304 155.665 83.7039C156.366 83.0773 157.686 81.9839 158.35 81.3439C160.454 79.3306 159.998 75.8693 157.844 74.0613C156.948 73.0426 155.988 72.0959 155.038 71.1333L155.041 71.136ZM145.481 69.0639C145.833 68.7413 145.694 68.92 145.777 68.8773C145.854 68.8853 145.948 69.0079 145.868 69.0506C146.918 70.2106 148.006 71.4293 149.116 72.6346C145.58 76.1013 142.033 79.56 138.486 83.016C138.257 82.0106 138.148 80.9173 137.844 80.048L137.449 78.0826C137.294 77.104 136.993 76.5893 137.404 76.0133C139.676 73.9066 143.145 71.1493 145.481 69.0639ZM122.942 112C123.089 127.984 99.9637 128.072 99.9423 112C100.764 101.637 111.166 98.7386 117.716 102.957C115.185 105.349 112.66 107.744 110.11 110.115C107.486 112.659 111.366 116.491 113.881 113.885C116.246 111.341 118.636 108.824 121.02 106.299C122.02 107.864 122.737 109.736 122.942 112ZM121.662 99.2426C112.788 93.032 97.297 97.352 97.3823 112C98.5237 131.184 126.502 131.347 127.716 112C127.756 107.971 126.628 104.741 124.801 102.283C126.014 101.008 127.241 99.7466 128.46 98.4746C131.574 102.251 133.51 107.005 133.609 112C134.324 131.709 109.708 142.477 95.777 128.221C81.7183 114.181 92.2143 89.6773 111.996 90.3199C117.07 90.3706 121.804 92.352 125.54 95.52C124.246 96.7599 122.961 98.0079 121.662 99.2426ZM129.318 91.8906C124.561 87.824 118.414 85.3839 111.998 85.6853C89.5103 85.9333 78.193 114.141 94.2757 129.723C109.977 145.611 138.062 134.573 138.385 112.003C138.737 105.525 136.249 99.392 132.124 94.6666C133.382 93.36 134.633 92.0453 135.894 90.7439C140.86 96.2293 144.086 103.493 144.278 112.003C144.817 141.293 109.07 156.675 88.2357 135.765C75.3557 123.296 75.5877 100.819 88.745 88.752C102.18 75.9013 121.302 77.5973 133.241 88.1226C131.937 89.384 130.622 90.632 129.318 91.8906ZM89.993 12.76C90.0704 10.7013 90.2117 8.64528 90.0837 6.58662C93.7877 10.3733 101.849 18.6186 105.39 22.2426C100.934 22.8826 96.3823 23.232 92.0223 22.7173C87.9317 21.112 90.089 16.0986 89.9903 12.7626L89.993 12.76ZM40.401 138.736C29.873 138.664 18.529 138.669 7.97168 138.789L5.65435 138.805H5.36368C5.29435 138.805 5.33701 138.803 5.31568 138.805C5.28368 138.805 5.25968 138.797 5.23035 138.773C4.93701 105.045 3.97168 44.3093 3.86501 11.136L3.84101 6.50395C3.86501 6.18128 3.74768 4.94928 3.96635 4.71195C4.53701 3.53862 5.56368 3.86662 6.92101 3.80795L9.23835 3.79728C17.873 3.73862 26.5103 3.76528 35.1477 3.77062C34.529 6.95195 34.569 10.1573 35.3503 13.3333C37.3877 15.9786 37.7584 7.42928 37.001 3.77062C38.713 3.77062 40.4277 3.76262 42.1397 3.76528C41.4437 7.22928 41.5557 10.7493 42.345 14.224C44.4143 17.0533 44.753 7.63995 43.961 3.76528C45.689 3.77062 47.4197 3.75728 49.1477 3.76528C48.433 7.52795 48.5424 11.344 49.3397 15.1173C51.4357 18.12 51.7557 7.86395 50.9397 3.77328C52.681 3.77862 54.4223 3.78662 56.1663 3.79462C55.865 5.63995 55.6783 7.49062 55.681 9.34128C55.681 11.5653 55.9024 13.792 56.337 16.0079C56.985 16.9813 57.465 16.6053 57.793 15.4933C58.121 14.3813 58.2997 12.5333 58.3477 10.5626C58.393 8.59195 58.3077 6.49595 58.1077 4.89062C58.0597 4.49595 58.001 4.13062 57.9397 3.80528C60.049 3.81328 62.1557 3.82128 64.265 3.82928C63.9717 5.48795 63.8197 7.28262 63.8117 9.14662C63.793 12.0746 64.0623 15.2133 64.4543 16.896C65.1264 17.8693 65.6064 17.472 65.929 16.3226C66.2517 15.1733 66.417 13.2746 66.457 11.2373C66.5077 8.47995 66.3637 5.41862 66.0943 4.14928C66.0677 4.02928 66.0383 3.94395 66.0117 3.83462C68.1237 3.84262 70.233 3.85062 72.3423 3.85862C72.081 5.30928 71.961 7.07995 71.945 8.94928C71.905 12.5786 72.2277 16.6346 72.5717 17.784C73.265 18.7573 73.7477 18.3386 74.0623 17.1546C74.377 15.9706 74.529 14.016 74.5637 11.9146C74.6117 8.78395 74.4464 5.28262 74.185 3.86662C76.273 3.87462 78.361 3.88262 80.449 3.89062C80.2143 5.12262 80.0997 6.86128 80.073 8.75462C80.0144 13.088 80.3877 18.0586 80.6837 18.672C81.401 19.6426 81.8837 19.208 82.193 17.984C82.5023 16.7626 82.641 14.7546 82.6703 12.5893C82.713 9.35462 82.5157 5.76262 82.2917 3.89595L86.3077 3.91195C85.633 6.86395 85.8943 9.81328 86.0063 12.7653C86.3183 15.5146 86.113 17.9786 86.937 20.736C87.9903 23.6346 91.2943 25.3733 94.1957 25.048C98.745 25.0666 103.238 25.328 107.737 26.12C107.681 37.5546 107.142 52.6399 106.982 64.2773C99.233 65.208 91.8037 68.0906 85.393 72.488C79.8543 72.4106 50.6703 72.0079 50.6703 72.0079C47.1104 72.0266 47.1264 77.3253 50.6703 77.3413L79.8304 76.936C76.9824 79.5679 74.4357 82.536 72.2943 85.808C70.0544 85.76 50.6677 85.3413 50.6677 85.3413C49.1557 85.3066 47.9077 86.552 47.9423 88.0666C47.9743 89.5386 49.193 90.7066 50.6677 90.6746L69.737 90.2639C67.0784 95.5253 65.3904 101.387 64.9797 107.685C60.8144 107.392 50.6703 106.675 50.6703 106.675C46.9104 106.509 46.9157 112.173 50.6703 112.008L64.8757 111.005C64.881 112.093 64.9157 113.192 65.001 114.304C65.129 116.579 65.4223 118.784 65.8464 120.923L50.6703 120.011C46.9477 119.883 46.9557 125.475 50.6703 125.344L66.6703 124.381C68.2543 130.021 70.865 135.093 74.217 139.504C62.9477 139.048 51.6783 138.779 40.409 138.744L40.401 138.736ZM140.036 146.128C112.43 169.224 69.4757 150.197 68.5557 114.125C67.321 79.3626 105.694 58.0639 134.868 75.6986C134.822 75.8986 134.788 76.1013 134.793 76.2853C134.809 77.4426 135.132 77.9226 135.257 78.5946C135.737 80.3466 136.212 82.2693 136.612 84.0533C122.894 72.3626 100.841 71.0106 86.2223 86.2293C72.5343 99.9039 72.769 123.987 86.7317 137.267C109.342 159.805 148.534 144.163 149.049 112.003C149.241 102.136 145.734 93.7733 140.137 87.4986L140.377 87.56L144.244 88.6266C145.54 88.984 147.118 89.6426 148.505 89.3093C160.606 106.715 156.74 132.792 140.036 146.128ZM152.74 80.784C151.529 82.168 149.337 84.728 148.129 86.072C147.796 86.5733 147.348 86.6 146.804 86.4746L144.825 86.1386C144.129 85.9626 142.436 85.7066 141.07 85.4266C144.484 81.9226 147.9 78.4213 151.324 74.9279C152.518 76.1146 153.734 77.2426 154.988 78.16C154.537 78.8133 153.276 80.1093 152.74 80.784Z" fill="#232323"/>
<path d="M40.7782 30.1146L37.5702 33.4453C36.6956 32.8106 35.6396 32.4426 34.5649 32.5306L33.1356 32.6026C29.4742 32.7999 19.7862 33.2266 15.9942 33.3893C13.8636 33.3893 12.0262 35.3546 12.1676 37.4319L12.2049 38.8613C12.2929 44.3946 12.3516 50.5013 12.1089 56.0026C11.9649 58.1413 13.9676 60.1413 16.0929 60.0906L17.5222 60.1573C23.0529 60.4933 29.1622 60.8213 34.6636 61.0586C37.4182 61.2213 39.9782 58.6079 39.8876 55.9066C39.9862 53.5413 40.0556 51.1279 40.0102 48.7653C39.9516 45.3679 39.8076 41.9706 39.6929 38.5759C42.4476 35.9253 44.6209 33.8319 44.6209 33.8213C47.0342 31.2933 43.2022 27.6239 40.7782 30.1199V30.1146ZM34.7729 55.9039C34.8076 56.1359 34.8502 56.1679 34.6636 56.2799C29.1516 56.5306 23.0636 56.8293 17.5222 57.1786C16.3836 57.2239 14.7329 57.5973 14.5489 55.9999C14.2929 50.4879 14.3756 44.4026 14.4529 38.8586C14.4609 37.6426 14.3222 35.9279 15.9969 35.9466C20.4742 36.1573 29.8209 36.5333 34.3436 36.7946L26.6022 44.8293L25.5302 43.7973C23.5169 41.8719 20.5276 44.8506 22.4582 46.8693L25.0742 49.5866C25.9382 50.4879 27.3836 50.4826 28.2476 49.5866C28.2609 49.5679 31.3409 46.6026 34.8262 43.2506C34.7276 45.0959 34.6182 46.9439 34.6476 48.7626C34.6049 51.1279 34.6689 53.5386 34.7702 55.9039H34.7729Z" fill="#232323"/>
<path d="M40.7782 64.7813L37.5702 68.112C36.6956 67.4773 35.6396 67.1093 34.5649 67.1973L33.1356 67.2693C29.4742 67.4667 19.7862 67.8933 15.9942 68.056C13.8636 68.056 12.0262 70.0213 12.1676 72.0987L12.2049 73.528C12.2929 79.0613 12.3516 85.168 12.1089 90.6693C11.9649 92.808 13.9676 94.808 16.0929 94.7573L17.5222 94.824C23.0529 95.16 29.1622 95.488 34.6636 95.7253C37.4182 95.888 39.9782 93.2747 39.8876 90.5733C39.9862 88.208 40.0556 85.7947 40.0102 83.432C39.9516 80.0347 39.8076 76.6373 39.6929 73.2427C42.4476 70.592 44.6209 68.4987 44.6209 68.488C47.0342 65.96 43.2022 62.2907 40.7782 64.7867V64.7813ZM34.7729 90.5707C34.8076 90.8027 34.8502 90.8347 34.6636 90.9467C29.1516 91.1973 23.0636 91.496 17.5222 91.8453C16.3836 91.8907 14.7329 92.264 14.5489 90.6667C14.2929 85.1547 14.3756 79.0693 14.4529 73.5253C14.4609 72.3093 14.3222 70.5947 15.9969 70.6133C20.4742 70.824 29.8209 71.2 34.3436 71.4613L26.6022 79.496L25.5302 78.464C23.5169 76.5387 20.5276 79.5173 22.4582 81.536L25.0742 84.2533C25.9382 85.1547 27.3836 85.1493 28.2476 84.2533C28.2609 84.2347 31.3409 81.2693 34.8262 77.9173C34.7276 79.7627 34.6182 81.6107 34.6476 83.4293C34.6049 85.7947 34.6689 88.2053 34.7702 90.5707H34.7729Z" fill="#232323"/>
<path d="M40.7782 99.4479L37.5702 102.779C36.6956 102.144 35.6396 101.776 34.5649 101.864L33.1356 101.936C29.4742 102.133 19.7862 102.56 15.9942 102.723C13.8636 102.723 12.0262 104.688 12.1676 106.765L12.2049 108.195C12.2929 113.728 12.3516 119.835 12.1089 125.336C11.9649 127.475 13.9676 129.475 16.0929 129.424L17.5222 129.491C23.0529 129.827 29.1622 130.155 34.6636 130.392C37.4182 130.555 39.9782 127.941 39.8876 125.24C39.9862 122.875 40.0556 120.461 40.0102 118.099C39.9516 114.701 39.8076 111.304 39.6929 107.909C42.4476 105.259 44.6209 103.165 44.6209 103.155C47.0342 100.627 43.2022 96.9572 40.7782 99.4532V99.4479ZM34.7729 125.237C34.8076 125.469 34.8502 125.501 34.6636 125.613C29.1516 125.864 23.0636 126.163 17.5222 126.512C16.3836 126.557 14.7329 126.931 14.5489 125.333C14.2929 119.821 14.3756 113.736 14.4529 108.192C14.4609 106.976 14.3222 105.261 15.9969 105.28C20.4742 105.491 29.8209 105.867 34.3436 106.128L26.6022 114.163L25.5302 113.131C23.5169 111.205 20.5276 114.184 22.4582 116.203L25.0742 118.92C25.9382 119.821 27.3836 119.816 28.2476 118.92C28.2609 118.901 31.3409 115.936 34.8262 112.584C34.7276 114.429 34.6182 116.277 34.6476 118.096C34.6049 120.461 34.6689 122.872 34.7702 125.237H34.7729Z" fill="#232323"/>
<path d="M50.6654 42.1733C50.684 42.1679 98.7214 42.6773 98.7187 42.6666C102.233 42.5706 102.156 37.3519 98.6627 37.3333L50.6627 37.8266C47.8387 37.8666 47.868 42.1359 50.6654 42.1733Z" fill="#232323"/>
<path d="M87.9978 50.6665L50.6645 51.1598C47.8538 51.2052 47.8698 55.4612 50.6645 55.5065L87.9978 55.9998C91.5578 55.9785 91.5392 50.6825 87.9978 50.6665Z" fill="#232323"/>
</svg>
