<svg width="12" height="13" viewBox="0 0 12 13" fill="none" xmlns="http://www.w3.org/2000/svg">
<path d="M11.5139 4.8478C11.4782 4.74252 11.4123 4.65001 11.3246 4.58169C11.2369 4.51338 11.1311 4.47225 11.0202 4.46338L7.77776 4.20577L6.37464 1.10023C6.32995 1.00021 6.25727 0.915251 6.16536 0.855618C6.07346 0.795984 5.96625 0.76422 5.85669 0.76416C5.74712 0.7641 5.63988 0.795746 5.54791 0.855279C5.45594 0.914811 5.38316 0.999686 5.33837 1.09966L3.93525 4.20577L0.692783 4.46338C0.583841 4.47201 0.479692 4.51183 0.392796 4.5781C0.3059 4.64436 0.239937 4.73425 0.202797 4.83701C0.165658 4.93978 0.158915 5.05106 0.183375 5.15756C0.207836 5.26406 0.262464 5.36125 0.340724 5.43752L2.73689 7.77307L1.88944 11.4422C1.86371 11.5532 1.87196 11.6695 1.91311 11.7758C1.95427 11.8821 2.02643 11.9736 2.12024 12.0384C2.21405 12.1032 2.32518 12.1383 2.43919 12.1392C2.55321 12.14 2.66485 12.1066 2.75964 12.0433L5.8565 9.97896L8.95337 12.0433C9.05025 12.1076 9.1645 12.1407 9.28076 12.1381C9.39702 12.1356 9.50971 12.0975 9.60368 12.029C9.69765 11.9605 9.76838 11.8649 9.80637 11.755C9.84436 11.6451 9.84778 11.5262 9.81617 11.4143L8.77592 7.77477L11.3558 5.45344C11.5247 5.30104 11.5867 5.06333 11.5139 4.8478Z" fill="url(#paint0_linear_417_1063)"/>
<defs>
<linearGradient id="paint0_linear_417_1063" x1="0.530057" y1="6.45167" x2="9.7496" y2="1.01886" gradientUnits="userSpaceOnUse">
<stop stop-color="#2BAAE2"/>
<stop offset="1" stop-color="#253E90"/>
</linearGradient>
</defs>
</svg>
