<svg width="247" height="229" viewBox="0 0 247 229" fill="none" xmlns="http://www.w3.org/2000/svg">
<g clip-path="url(#clip0_974_7471)">
<path d="M207.521 189.476C248.872 148.07 248.872 80.9295 207.521 39.5241C166.169 -1.88125 99.1224 -1.88125 57.7644 39.5241C16.4129 80.9295 16.4129 148.07 57.7644 189.476C99.1158 230.881 166.169 230.881 207.521 189.476Z" fill="url(#paint0_linear_974_7471)"/>
<path d="M0 140.206C6.28198 129.618 17.5152 122.969 29.8247 122.969C39.5054 122.969 47.8748 129.455 50.5951 138.756C61.052 174.4 93.9558 200.436 132.933 200.436C181.023 200.436 219.856 160.84 218.721 112.439C217.625 65.939 179.059 28.4201 132.607 28.5899L132.646 28.5573C93.7861 28.701 61.0259 54.7108 50.6081 90.2897C47.8944 99.5715 39.5119 106.018 29.8508 106.018H29.7921C17.5282 106.018 6.28851 99.4212 0.01957 88.8593" fill="url(#paint1_linear_974_7471)"/>
<path d="M132.646 192.311C175.563 192.311 210.358 157.476 210.358 114.497C210.358 71.5172 175.569 36.6829 132.646 36.6829C89.7221 36.6829 54.9331 71.5172 54.9331 114.497C54.9331 157.476 89.7221 192.311 132.646 192.311Z" stroke="url(#paint2_linear_974_7471)" stroke-width="8.1" stroke-miterlimit="10"/>
<path d="M61.6716 203.598C41.4493 187.425 26.8565 164.485 21.3052 138.207" stroke="url(#paint3_linear_974_7471)" stroke-width="1.62" stroke-miterlimit="10" stroke-linecap="round"/>
<path d="M112.645 2.27959C119.136 1.12998 125.816 0.529053 132.646 0.529053C195.505 0.529053 246.471 51.5493 246.471 114.503C246.471 177.457 195.518 228.477 132.646 228.477" stroke="url(#paint4_linear_974_7471)" stroke-width="1.62" stroke-miterlimit="10" stroke-linecap="round"/>
<path d="M92.3281 108H88.8906L87.8945 104.885H82.9141L81.9277 108H78.5098L83.6074 93.9961H87.3477L92.3281 108ZM87.1719 102.463L85.668 97.7559C85.5573 97.4043 85.4792 96.9844 85.4336 96.4961H85.3555C85.3229 96.9062 85.2415 97.3132 85.1113 97.7168L83.5879 102.463H87.1719ZM98.4023 93.9961V96.4375H97.2305V105.559H98.4023V108H92.9043V105.559H94.0762V96.4375H92.9043V93.9961H98.4023ZM105.561 103.742H100.219V101.584H105.561V103.742ZM111.664 103.176V108H108.51V93.9961H113.451C116.98 93.9961 118.744 95.4837 118.744 98.459C118.744 99.8652 118.236 101.005 117.221 101.877C116.212 102.743 114.861 103.176 113.168 103.176H111.664ZM111.664 96.418V100.783H112.904C114.584 100.783 115.424 100.048 115.424 98.5762C115.424 97.1374 114.584 96.418 112.904 96.418H111.664ZM124.652 108.244C122.986 108.244 121.674 107.779 120.717 106.848C119.766 105.91 119.291 104.641 119.291 103.039C119.291 101.385 119.786 100.093 120.775 99.1621C121.765 98.2246 123.103 97.7559 124.789 97.7559C126.449 97.7559 127.751 98.2246 128.695 99.1621C129.639 100.093 130.111 101.327 130.111 102.863C130.111 104.523 129.623 105.835 128.646 106.799C127.676 107.762 126.345 108.244 124.652 108.244ZM124.73 100.119C124.001 100.119 123.435 100.37 123.031 100.871C122.628 101.372 122.426 102.082 122.426 103C122.426 104.921 123.201 105.881 124.75 105.881C126.228 105.881 126.967 104.895 126.967 102.922C126.967 101.053 126.221 100.119 124.73 100.119ZM146.596 98L143.715 108H140.473L138.998 102.141C138.9 101.75 138.845 101.324 138.832 100.861H138.773C138.728 101.369 138.663 101.783 138.578 102.102L136.996 108H133.793L130.971 98H134.115L135.492 104.523C135.557 104.829 135.606 105.201 135.639 105.637H135.697C135.73 105.181 135.788 104.797 135.873 104.484L137.592 98H140.531L142.074 104.523C142.113 104.686 142.159 105.064 142.211 105.656H142.279C142.312 105.279 142.364 104.901 142.436 104.523L143.734 98H146.596ZM156.957 103.879H150.434C150.538 105.331 151.452 106.057 153.178 106.057C154.278 106.057 155.245 105.796 156.078 105.275V107.502C155.154 107.997 153.952 108.244 152.475 108.244C150.86 108.244 149.607 107.798 148.715 106.906C147.823 106.008 147.377 104.758 147.377 103.156C147.377 101.496 147.859 100.181 148.822 99.2109C149.786 98.2409 150.971 97.7559 152.377 97.7559C153.835 97.7559 154.962 98.1888 155.756 99.0547C156.557 99.9206 156.957 101.096 156.957 102.58V103.879ZM154.096 101.984C154.096 100.552 153.516 99.8359 152.357 99.8359C151.863 99.8359 151.433 100.041 151.068 100.451C150.71 100.861 150.492 101.372 150.414 101.984H154.096ZM165.316 100.783C164.945 100.581 164.512 100.48 164.018 100.48C163.347 100.48 162.823 100.728 162.445 101.223C162.068 101.711 161.879 102.378 161.879 103.225V108H158.793V98H161.879V99.8555H161.918C162.406 98.5013 163.285 97.8242 164.555 97.8242C164.88 97.8242 165.134 97.8633 165.316 97.9414V100.783ZM175.668 103.879H169.145C169.249 105.331 170.163 106.057 171.889 106.057C172.989 106.057 173.956 105.796 174.789 105.275V107.502C173.865 107.997 172.663 108.244 171.186 108.244C169.571 108.244 168.318 107.798 167.426 106.906C166.534 106.008 166.088 104.758 166.088 103.156C166.088 101.496 166.57 100.181 167.533 99.2109C168.497 98.2409 169.682 97.7559 171.088 97.7559C172.546 97.7559 173.673 98.1888 174.467 99.0547C175.268 99.9206 175.668 101.096 175.668 102.58V103.879ZM172.807 101.984C172.807 100.552 172.227 99.8359 171.068 99.8359C170.574 99.8359 170.144 100.041 169.779 100.451C169.421 100.861 169.203 101.372 169.125 101.984H172.807ZM187.289 108H184.203V106.623H184.164C183.461 107.704 182.429 108.244 181.068 108.244C179.818 108.244 178.812 107.805 178.051 106.926C177.289 106.04 176.908 104.807 176.908 103.225C176.908 101.571 177.328 100.246 178.168 99.25C179.008 98.2539 180.108 97.7559 181.469 97.7559C182.758 97.7559 183.656 98.2181 184.164 99.1426H184.203V93.1953H187.289V108ZM184.262 103.137V102.385C184.262 101.734 184.073 101.193 183.695 100.764C183.318 100.334 182.826 100.119 182.221 100.119C181.537 100.119 181.003 100.389 180.619 100.93C180.235 101.464 180.043 102.199 180.043 103.137C180.043 104.016 180.229 104.693 180.6 105.168C180.971 105.643 181.485 105.881 182.143 105.881C182.768 105.881 183.275 105.63 183.666 105.129C184.063 104.628 184.262 103.964 184.262 103.137ZM90.9121 136H87.4746L86.4785 132.885H81.498L80.5117 136H77.0938L82.1914 121.996H85.9316L90.9121 136ZM85.7559 130.463L84.252 125.756C84.1413 125.404 84.0632 124.984 84.0176 124.496H83.9395C83.9069 124.906 83.8255 125.313 83.6953 125.717L82.1719 130.463H85.7559ZM101.859 136H98.7832V134.477H98.7344C97.9727 135.655 96.9538 136.244 95.6777 136.244C93.36 136.244 92.2012 134.841 92.2012 132.035V126H95.2773V131.762C95.2773 133.174 95.8372 133.881 96.957 133.881C97.5104 133.881 97.9531 133.689 98.2852 133.305C98.6172 132.914 98.7832 132.387 98.7832 131.723V126H101.859V136ZM110.512 135.883C110.056 136.124 109.369 136.244 108.451 136.244C106.277 136.244 105.189 135.115 105.189 132.855V128.275H103.568V126H105.189V123.842L108.266 122.963V126H110.512V128.275H108.266V132.318C108.266 133.36 108.679 133.881 109.506 133.881C109.831 133.881 110.167 133.786 110.512 133.598V135.883ZM116.947 136.244C115.281 136.244 113.969 135.779 113.012 134.848C112.061 133.91 111.586 132.641 111.586 131.039C111.586 129.385 112.081 128.093 113.07 127.162C114.06 126.225 115.398 125.756 117.084 125.756C118.744 125.756 120.046 126.225 120.99 127.162C121.934 128.093 122.406 129.327 122.406 130.863C122.406 132.523 121.918 133.835 120.941 134.799C119.971 135.762 118.64 136.244 116.947 136.244ZM117.025 128.119C116.296 128.119 115.73 128.37 115.326 128.871C114.923 129.372 114.721 130.082 114.721 131C114.721 132.921 115.495 133.881 117.045 133.881C118.523 133.881 119.262 132.895 119.262 130.922C119.262 129.053 118.516 128.119 117.025 128.119ZM140.287 136H137.211V130.297C137.211 128.845 136.677 128.119 135.609 128.119C135.102 128.119 134.688 128.337 134.369 128.773C134.05 129.21 133.891 129.753 133.891 130.404V136H130.805V130.238C130.805 128.826 130.281 128.119 129.232 128.119C128.705 128.119 128.282 128.327 127.963 128.744C127.65 129.161 127.494 129.727 127.494 130.443V136H124.408V126H127.494V127.562H127.533C127.852 127.029 128.298 126.596 128.871 126.264C129.451 125.925 130.082 125.756 130.766 125.756C132.178 125.756 133.145 126.378 133.666 127.621C134.428 126.378 135.548 125.756 137.025 125.756C139.2 125.756 140.287 127.097 140.287 129.779V136ZM151.049 136H148.129V134.564H148.09C147.419 135.684 146.426 136.244 145.111 136.244C144.141 136.244 143.376 135.971 142.816 135.424C142.263 134.87 141.986 134.135 141.986 133.217C141.986 131.277 143.135 130.157 145.434 129.857L148.148 129.496C148.148 128.402 147.556 127.855 146.371 127.855C145.18 127.855 144.047 128.21 142.973 128.92V126.596C143.402 126.374 143.988 126.179 144.73 126.01C145.479 125.84 146.16 125.756 146.771 125.756C149.623 125.756 151.049 127.178 151.049 130.023V136ZM148.148 131.938V131.264L146.332 131.498C145.329 131.628 144.828 132.081 144.828 132.855C144.828 133.207 144.949 133.497 145.189 133.725C145.437 133.946 145.769 134.057 146.186 134.057C146.765 134.057 147.237 133.858 147.602 133.461C147.966 133.057 148.148 132.549 148.148 131.938ZM159.535 135.883C159.079 136.124 158.393 136.244 157.475 136.244C155.3 136.244 154.213 135.115 154.213 132.855V128.275H152.592V126H154.213V123.842L157.289 122.963V126H159.535V128.275H157.289V132.318C157.289 133.36 157.702 133.881 158.529 133.881C158.855 133.881 159.19 133.786 159.535 133.598V135.883ZM162.846 124.418C162.325 124.418 161.898 124.265 161.566 123.959C161.234 123.646 161.068 123.266 161.068 122.816C161.068 122.354 161.234 121.977 161.566 121.684C161.898 121.391 162.325 121.244 162.846 121.244C163.373 121.244 163.799 121.391 164.125 121.684C164.457 121.977 164.623 122.354 164.623 122.816C164.623 123.285 164.457 123.669 164.125 123.969C163.799 124.268 163.373 124.418 162.846 124.418ZM164.369 136H161.283V126H164.369V136ZM171.732 136.244C170.066 136.244 168.754 135.779 167.797 134.848C166.846 133.91 166.371 132.641 166.371 131.039C166.371 129.385 166.866 128.093 167.855 127.162C168.845 126.225 170.183 125.756 171.869 125.756C173.529 125.756 174.831 126.225 175.775 127.162C176.719 128.093 177.191 129.327 177.191 130.863C177.191 132.523 176.703 133.835 175.727 134.799C174.757 135.762 173.425 136.244 171.732 136.244ZM171.811 128.119C171.081 128.119 170.515 128.37 170.111 128.871C169.708 129.372 169.506 130.082 169.506 131C169.506 132.921 170.281 133.881 171.83 133.881C173.308 133.881 174.047 132.895 174.047 130.922C174.047 129.053 173.301 128.119 171.811 128.119ZM188.852 136H185.775V130.443C185.775 128.894 185.222 128.119 184.115 128.119C183.581 128.119 183.142 128.324 182.797 128.734C182.452 129.145 182.279 129.665 182.279 130.297V136H179.193V126H182.279V127.582H182.318C183.054 126.365 184.125 125.756 185.531 125.756C187.745 125.756 188.852 127.13 188.852 129.877V136Z" fill="#253E90"/>
</g>
<defs>
<linearGradient id="paint0_linear_974_7471" x1="91.3009" y1="213.637" x2="187.296" y2="-15.9534" gradientUnits="userSpaceOnUse">
<stop stop-color="#30A9E0"/>
<stop offset="1" stop-color="#234090"/>
</linearGradient>
<linearGradient id="paint1_linear_974_7471" x1="42.904" y1="43.0971" x2="238.454" y2="238.399" gradientUnits="userSpaceOnUse">
<stop stop-color="white"/>
<stop offset="1" stop-color="#E6E7E7"/>
</linearGradient>
<linearGradient id="paint2_linear_974_7471" x1="78.6324" y1="146.372" x2="204.683" y2="72.1899" gradientUnits="userSpaceOnUse">
<stop stop-color="#30A9E0"/>
<stop offset="1" stop-color="#234090"/>
</linearGradient>
<linearGradient id="paint3_linear_974_7471" x1="20.7703" y1="170.899" x2="62.2" y2="170.899" gradientUnits="userSpaceOnUse">
<stop stop-color="#818285"/>
<stop offset="1" stop-color="#595A5C"/>
</linearGradient>
<linearGradient id="paint4_linear_974_7471" x1="112.117" y1="114.497" x2="247" y2="114.497" gradientUnits="userSpaceOnUse">
<stop stop-color="#818285"/>
<stop offset="1" stop-color="#595A5C"/>
</linearGradient>
<clipPath id="clip0_974_7471">
<rect width="247" height="229" fill="white"/>
</clipPath>
</defs>
</svg>
