<svg width="550" height="457" viewBox="0 0 550 457" fill="none" xmlns="http://www.w3.org/2000/svg">
<g filter="url(#filter0_d_642_7583)">
<path d="M486.702 289.625C527.813 248.527 527.813 181.892 486.702 140.794C445.592 99.6948 378.938 99.6948 337.827 140.794C296.716 181.892 296.716 248.527 337.827 289.625C378.938 330.724 445.592 330.724 486.702 289.625Z" fill="url(#paint0_linear_642_7583)"/>
</g>
<path d="M411.948 129.92C373.316 130.06 340.747 155.88 330.394 191.19C327.693 200.4 319.361 206.8 309.758 206.8H309.698C297.504 206.8 286.331 200.25 280.099 189.77C271.847 175.88 257.063 166.24 240.078 165.23C230.975 164.69 222.352 166.58 214.81 170.32C206.248 174.57 195.895 172.69 189.133 165.94L188.723 165.53C180.34 157.15 177.699 144.75 181.531 133.53C184.591 124.57 186.032 114.85 185.522 104.74C183.571 66.58 149.821 33.44 111.62 32.12C67.1772 30.59 30.8166 66.87 32.237 111.28C33.4774 150.16 67.3673 184.1 106.249 185.41C121.813 185.94 136.387 181.82 148.681 174.35C158.154 168.59 170.187 169.26 178.71 176.34L179.31 176.84C187.112 183.33 190.643 193.68 188.283 203.55C187.142 208.32 186.682 213.35 187.022 218.54C187.722 229.37 191.934 239.32 198.536 247.23C201.897 251.25 201.907 257.1 198.606 261.17L198.135 261.75C194.554 266.17 188.503 267.63 183.241 265.47C172.718 261.14 161.155 258.82 149.021 259C101.617 259.68 63.2461 298.92 63.5862 346.31C63.9363 394.43 103.518 433.23 151.942 432.32C198.235 431.46 236.026 393.74 236.967 347.46C237.477 322.45 227.374 299.81 210.869 283.69C206.788 279.7 205.708 273.57 208.358 268.51L208.498 268.25C210.989 263.5 216.531 261.24 221.642 262.89C225.093 264 228.704 264.75 232.425 265.08C252.641 266.87 270.647 256.64 280.079 240.73C286.321 230.22 297.494 223.62 309.728 223.62C319.351 223.62 327.673 230.06 330.374 239.29C340.767 274.67 373.477 300.51 412.228 300.51C460.032 300.51 498.643 261.21 497.513 213.17C496.422 167.02 458.081 129.78 411.908 129.95L411.948 129.92Z" stroke="url(#paint1_linear_642_7583)" stroke-width="6.3" stroke-miterlimit="10"/>
<g filter="url(#filter1_d_642_7583)">
<path d="M411.948 129.92C373.316 130.06 340.747 155.88 330.394 191.19C327.693 200.4 319.361 206.8 309.758 206.8H309.698C297.504 206.8 286.331 200.25 280.099 189.77C271.847 175.88 257.063 166.24 240.078 165.23C230.975 164.69 222.352 166.58 214.81 170.32C206.248 174.57 195.895 172.69 189.133 165.94L188.723 165.53C180.34 157.15 177.699 144.75 181.531 133.53C184.591 124.57 186.032 114.85 185.522 104.74C183.571 66.58 149.821 33.44 111.62 32.12C67.1772 30.59 30.8166 66.87 32.237 111.28C33.4774 150.16 67.3673 184.1 106.249 185.41C121.813 185.94 136.387 181.82 148.681 174.35C158.154 168.59 170.187 169.26 178.71 176.34L179.31 176.84C187.112 183.33 190.643 193.68 188.283 203.55C187.142 208.32 186.682 213.35 187.022 218.54C187.722 229.37 191.934 239.32 198.536 247.23C201.896 251.25 201.907 257.1 198.606 261.17L198.135 261.75C194.554 266.17 188.503 267.63 183.241 265.47C172.718 261.14 161.155 258.82 149.021 259C101.617 259.68 63.2461 298.92 63.5862 346.31C63.9363 394.43 103.518 433.23 151.942 432.32C198.235 431.46 236.026 393.74 236.967 347.46C237.477 322.45 227.374 299.81 210.869 283.69C206.788 279.7 205.708 273.57 208.358 268.51L208.498 268.25C210.989 263.5 216.531 261.24 221.642 262.89C225.093 264 228.704 264.75 232.425 265.08C252.641 266.87 270.647 256.64 280.079 240.73C286.321 230.22 297.494 223.62 309.728 223.62C319.351 223.62 327.673 230.06 330.374 239.29C340.767 274.67 373.477 300.51 412.228 300.51C460.032 300.51 498.643 261.21 497.513 213.17C496.422 167.02 458.081 129.78 411.908 129.95L411.948 129.92Z" fill="url(#paint2_linear_642_7583)"/>
</g>
<g filter="url(#filter2_d_642_7583)">
<path d="M205.933 401.237C236.645 370.534 236.645 320.755 205.933 290.052C175.221 259.349 125.427 259.349 94.7149 290.052C64.0029 320.755 64.0029 370.534 94.7149 401.237C125.427 431.94 175.221 431.94 205.933 401.237Z" fill="url(#paint3_linear_642_7583)"/>
</g>
<g filter="url(#filter3_d_642_7583)">
<path d="M202.466 397.772C231.264 368.983 231.264 322.306 202.466 293.517C173.669 264.727 126.978 264.727 98.1802 293.517C69.3824 322.306 69.3824 368.983 98.1802 397.772C126.978 426.562 173.669 426.562 202.466 397.772Z" stroke="url(#paint4_linear_642_7583)" stroke-width="3.15" stroke-miterlimit="10"/>
</g>
<g filter="url(#filter4_d_642_7583)">
<path d="M108.919 174.15C145.044 174.15 174.328 144.874 174.328 108.76C174.328 72.6461 145.044 43.37 108.919 43.37C72.7949 43.37 43.5103 72.6461 43.5103 108.76C43.5103 144.874 72.7949 174.15 108.919 174.15Z" fill="url(#paint5_linear_642_7583)"/>
</g>
<g filter="url(#filter5_d_642_7583)">
<path d="M412.268 292.44C454.933 292.44 489.52 257.863 489.52 215.21C489.52 172.557 454.933 137.98 412.268 137.98C369.602 137.98 335.015 172.557 335.015 215.21C335.015 257.863 369.602 292.44 412.268 292.44Z" stroke="url(#paint6_linear_642_7583)" stroke-width="5.25" stroke-miterlimit="10"/>
</g>
<g filter="url(#filter6_d_642_7583)">
<path d="M222.292 409.24C204.697 429.13 178.97 441.67 150.321 441.67C97.2757 441.67 54.2632 398.68 54.2632 345.64C54.2632 335.49 55.8336 325.71 58.7545 316.52" stroke="url(#paint7_linear_642_7583)" stroke-width="1.05" stroke-miterlimit="10" stroke-linecap="round"/>
</g>
<path d="M58.6744 319.55C60.3428 319.55 61.6953 318.198 61.6953 316.53C61.6953 314.862 60.3428 313.51 58.6744 313.51C57.0061 313.51 55.6536 314.862 55.6536 316.53C55.6536 318.198 57.0061 319.55 58.6744 319.55Z" fill="url(#paint8_linear_642_7583)"/>
<g filter="url(#filter7_d_642_7583)">
<path d="M47.6213 178.32C28.3457 161.33 16.1821 136.46 16.1821 108.76C16.1821 57.5601 57.6942 16.0601 108.909 16.0601" stroke="url(#paint9_linear_642_7583)" stroke-width="1.05" stroke-miterlimit="10" stroke-linecap="round"/>
</g>
<g filter="url(#filter8_d_642_7583)">
<path d="M201.646 108.76C201.646 123.24 198.325 136.94 192.413 149.14" stroke="url(#paint10_linear_642_7583)" stroke-width="1.05" stroke-miterlimit="10" stroke-linecap="round"/>
</g>
<g filter="url(#filter9_d_642_7583)">
<path d="M162.365 184.52C147.26 195.19 128.815 201.46 108.919 201.46C105.838 201.46 102.787 201.31 99.7764 201.02" stroke="url(#paint11_linear_642_7583)" stroke-width="1.05" stroke-miterlimit="10" stroke-linecap="round"/>
</g>
<path d="M108.919 19.08C110.587 19.08 111.94 17.7279 111.94 16.06C111.94 14.3921 110.587 13.04 108.919 13.04C107.251 13.04 105.898 14.3921 105.898 16.06C105.898 17.7279 107.251 19.08 108.919 19.08Z" fill="url(#paint12_linear_642_7583)"/>
<path d="M204.667 108.76C204.667 110.43 203.317 111.78 201.646 111.78C199.976 111.78 198.625 110.43 198.625 108.76C198.625 107.09 199.976 105.74 201.646 105.74C203.317 105.74 204.667 107.09 204.667 108.76Z" fill="url(#paint13_linear_642_7583)"/>
<g filter="url(#filter10_d_642_7583)">
<path d="M341.707 303.64C321.601 287.59 307.097 264.82 301.575 238.74" stroke="url(#paint14_linear_642_7583)" stroke-width="1.05" stroke-miterlimit="10" stroke-linecap="round"/>
</g>
<g filter="url(#filter11_d_642_7583)">
<path d="M392.382 103.83C398.834 102.69 405.476 102.09 412.268 102.09C474.756 102.09 525.421 152.73 525.421 215.21C525.421 277.69 474.766 328.33 412.268 328.33" stroke="url(#paint15_linear_642_7583)" stroke-width="1.05" stroke-miterlimit="10" stroke-linecap="round"/>
</g>
<path d="M415.269 328.32C415.269 329.99 413.918 331.34 412.248 331.34C410.577 331.34 409.227 329.99 409.227 328.32C409.227 326.65 410.577 325.3 412.248 325.3C413.918 325.3 415.269 326.65 415.269 328.32Z" fill="url(#paint16_linear_642_7583)"/>
<defs>
<filter id="filter0_d_642_7583" x="293.054" y="96.0295" width="238.422" height="238.36" filterUnits="userSpaceOnUse" color-interpolation-filters="sRGB">
<feFlood flood-opacity="0" result="BackgroundImageFix"/>
<feColorMatrix in="SourceAlpha" type="matrix" values="0 0 0 0 0 0 0 0 0 0 0 0 0 0 0 0 0 0 127 0" result="hardAlpha"/>
<feOffset/>
<feGaussianBlur stdDeviation="6.97"/>
<feColorMatrix type="matrix" values="0 0 0 0 0.698039 0 0 0 0 0.698039 0 0 0 0 0.698039 0 0 0 0.75 0"/>
<feBlend mode="normal" in2="BackgroundImageFix" result="effect1_dropShadow_642_7583"/>
<feBlend mode="normal" in="SourceGraphic" in2="effect1_dropShadow_642_7583" result="shape"/>
</filter>
<filter id="filter1_d_642_7583" x="32.1968" y="32.0734" width="486.34" height="421.262" filterUnits="userSpaceOnUse" color-interpolation-filters="sRGB">
<feFlood flood-opacity="0" result="BackgroundImageFix"/>
<feColorMatrix in="SourceAlpha" type="matrix" values="0 0 0 0 0 0 0 0 0 0 0 0 0 0 0 0 0 0 127 0" result="hardAlpha"/>
<feOffset dx="10.5" dy="10.5"/>
<feGaussianBlur stdDeviation="5.25"/>
<feColorMatrix type="matrix" values="0 0 0 0 0.682353 0 0 0 0 0.807843 0 0 0 0 0.807843 0 0 0 0.75 0"/>
<feBlend mode="normal" in2="BackgroundImageFix" result="effect1_dropShadow_642_7583"/>
<feBlend mode="normal" in="SourceGraphic" in2="effect1_dropShadow_642_7583" result="shape"/>
</filter>
<filter id="filter2_d_642_7583" x="61.2609" y="256.605" width="178.126" height="178.08" filterUnits="userSpaceOnUse" color-interpolation-filters="sRGB">
<feFlood flood-opacity="0" result="BackgroundImageFix"/>
<feColorMatrix in="SourceAlpha" type="matrix" values="0 0 0 0 0 0 0 0 0 0 0 0 0 0 0 0 0 0 127 0" result="hardAlpha"/>
<feOffset/>
<feGaussianBlur stdDeviation="5.21"/>
<feColorMatrix type="matrix" values="0 0 0 0 0.698039 0 0 0 0 0.698039 0 0 0 0 0.698039 0 0 0 0.75 0"/>
<feBlend mode="normal" in2="BackgroundImageFix" result="effect1_dropShadow_642_7583"/>
<feBlend mode="normal" in="SourceGraphic" in2="effect1_dropShadow_642_7583" result="shape"/>
</filter>
<filter id="filter3_d_642_7583" x="65.2466" y="260.59" width="170.154" height="170.11" filterUnits="userSpaceOnUse" color-interpolation-filters="sRGB">
<feFlood flood-opacity="0" result="BackgroundImageFix"/>
<feColorMatrix in="SourceAlpha" type="matrix" values="0 0 0 0 0 0 0 0 0 0 0 0 0 0 0 0 0 0 127 0" result="hardAlpha"/>
<feOffset/>
<feGaussianBlur stdDeviation="4.88"/>
<feColorMatrix type="matrix" values="0 0 0 0 0.698039 0 0 0 0 0.698039 0 0 0 0 0.698039 0 0 0 0.75 0"/>
<feBlend mode="normal" in2="BackgroundImageFix" result="effect1_dropShadow_642_7583"/>
<feBlend mode="normal" in="SourceGraphic" in2="effect1_dropShadow_642_7583" result="shape"/>
</filter>
<filter id="filter4_d_642_7583" x="32.8903" y="32.75" width="152.058" height="152.02" filterUnits="userSpaceOnUse" color-interpolation-filters="sRGB">
<feFlood flood-opacity="0" result="BackgroundImageFix"/>
<feColorMatrix in="SourceAlpha" type="matrix" values="0 0 0 0 0 0 0 0 0 0 0 0 0 0 0 0 0 0 127 0" result="hardAlpha"/>
<feOffset/>
<feGaussianBlur stdDeviation="5.31"/>
<feColorMatrix type="matrix" values="0 0 0 0 0.698039 0 0 0 0 0.698039 0 0 0 0 0.698039 0 0 0 0.75 0"/>
<feBlend mode="normal" in2="BackgroundImageFix" result="effect1_dropShadow_642_7583"/>
<feBlend mode="normal" in="SourceGraphic" in2="effect1_dropShadow_642_7583" result="shape"/>
</filter>
<filter id="filter5_d_642_7583" x="322.17" y="125.135" width="180.195" height="180.15" filterUnits="userSpaceOnUse" color-interpolation-filters="sRGB">
<feFlood flood-opacity="0" result="BackgroundImageFix"/>
<feColorMatrix in="SourceAlpha" type="matrix" values="0 0 0 0 0 0 0 0 0 0 0 0 0 0 0 0 0 0 127 0" result="hardAlpha"/>
<feOffset/>
<feGaussianBlur stdDeviation="5.11"/>
<feColorMatrix type="matrix" values="0 0 0 0 0.698039 0 0 0 0 0.698039 0 0 0 0 0.698039 0 0 0 0.75 0"/>
<feBlend mode="normal" in2="BackgroundImageFix" result="effect1_dropShadow_642_7583"/>
<feBlend mode="normal" in="SourceGraphic" in2="effect1_dropShadow_642_7583" result="shape"/>
</filter>
<filter id="filter6_d_642_7583" x="41.0183" y="303.275" width="194.519" height="151.64" filterUnits="userSpaceOnUse" color-interpolation-filters="sRGB">
<feFlood flood-opacity="0" result="BackgroundImageFix"/>
<feColorMatrix in="SourceAlpha" type="matrix" values="0 0 0 0 0 0 0 0 0 0 0 0 0 0 0 0 0 0 127 0" result="hardAlpha"/>
<feOffset/>
<feGaussianBlur stdDeviation="6.36"/>
<feColorMatrix type="matrix" values="0 0 0 0 0.698039 0 0 0 0 0.698039 0 0 0 0 0.698039 0 0 0 0.75 0"/>
<feBlend mode="normal" in2="BackgroundImageFix" result="effect1_dropShadow_642_7583"/>
<feBlend mode="normal" in="SourceGraphic" in2="effect1_dropShadow_642_7583" result="shape"/>
</filter>
<filter id="filter7_d_642_7583" x="0.597226" y="0.475034" width="123.897" height="193.43" filterUnits="userSpaceOnUse" color-interpolation-filters="sRGB">
<feFlood flood-opacity="0" result="BackgroundImageFix"/>
<feColorMatrix in="SourceAlpha" type="matrix" values="0 0 0 0 0 0 0 0 0 0 0 0 0 0 0 0 0 0 127 0" result="hardAlpha"/>
<feOffset/>
<feGaussianBlur stdDeviation="7.53"/>
<feColorMatrix type="matrix" values="0 0 0 0 0.698039 0 0 0 0 0.698039 0 0 0 0 0.698039 0 0 0 0.75 0"/>
<feBlend mode="normal" in2="BackgroundImageFix" result="effect1_dropShadow_642_7583"/>
<feBlend mode="normal" in="SourceGraphic" in2="effect1_dropShadow_642_7583" result="shape"/>
</filter>
<filter id="filter8_d_642_7583" x="176.828" y="93.175" width="40.4027" height="71.5502" filterUnits="userSpaceOnUse" color-interpolation-filters="sRGB">
<feFlood flood-opacity="0" result="BackgroundImageFix"/>
<feColorMatrix in="SourceAlpha" type="matrix" values="0 0 0 0 0 0 0 0 0 0 0 0 0 0 0 0 0 0 127 0" result="hardAlpha"/>
<feOffset/>
<feGaussianBlur stdDeviation="7.53"/>
<feColorMatrix type="matrix" values="0 0 0 0 0.698039 0 0 0 0 0.698039 0 0 0 0 0.698039 0 0 0 0.75 0"/>
<feBlend mode="normal" in2="BackgroundImageFix" result="effect1_dropShadow_642_7583"/>
<feBlend mode="normal" in="SourceGraphic" in2="effect1_dropShadow_642_7583" result="shape"/>
</filter>
<filter id="filter9_d_642_7583" x="84.1912" y="168.935" width="93.7584" height="48.11" filterUnits="userSpaceOnUse" color-interpolation-filters="sRGB">
<feFlood flood-opacity="0" result="BackgroundImageFix"/>
<feColorMatrix in="SourceAlpha" type="matrix" values="0 0 0 0 0 0 0 0 0 0 0 0 0 0 0 0 0 0 127 0" result="hardAlpha"/>
<feOffset/>
<feGaussianBlur stdDeviation="7.53"/>
<feColorMatrix type="matrix" values="0 0 0 0 0.698039 0 0 0 0 0.698039 0 0 0 0 0.698039 0 0 0 0.75 0"/>
<feBlend mode="normal" in2="BackgroundImageFix" result="effect1_dropShadow_642_7583"/>
<feBlend mode="normal" in="SourceGraphic" in2="effect1_dropShadow_642_7583" result="shape"/>
</filter>
<filter id="filter10_d_642_7583" x="286.07" y="223.235" width="71.1419" height="95.9102" filterUnits="userSpaceOnUse" color-interpolation-filters="sRGB">
<feFlood flood-opacity="0" result="BackgroundImageFix"/>
<feColorMatrix in="SourceAlpha" type="matrix" values="0 0 0 0 0 0 0 0 0 0 0 0 0 0 0 0 0 0 127 0" result="hardAlpha"/>
<feOffset/>
<feGaussianBlur stdDeviation="7.49"/>
<feColorMatrix type="matrix" values="0 0 0 0 0.698039 0 0 0 0 0.698039 0 0 0 0 0.698039 0 0 0 0.75 0"/>
<feBlend mode="normal" in2="BackgroundImageFix" result="effect1_dropShadow_642_7583"/>
<feBlend mode="normal" in="SourceGraphic" in2="effect1_dropShadow_642_7583" result="shape"/>
</filter>
<filter id="filter11_d_642_7583" x="376.877" y="86.5851" width="164.049" height="257.25" filterUnits="userSpaceOnUse" color-interpolation-filters="sRGB">
<feFlood flood-opacity="0" result="BackgroundImageFix"/>
<feColorMatrix in="SourceAlpha" type="matrix" values="0 0 0 0 0 0 0 0 0 0 0 0 0 0 0 0 0 0 127 0" result="hardAlpha"/>
<feOffset/>
<feGaussianBlur stdDeviation="7.49"/>
<feColorMatrix type="matrix" values="0 0 0 0 0.698039 0 0 0 0 0.698039 0 0 0 0 0.698039 0 0 0 0.75 0"/>
<feBlend mode="normal" in2="BackgroundImageFix" result="effect1_dropShadow_642_7583"/>
<feBlend mode="normal" in="SourceGraphic" in2="effect1_dropShadow_642_7583" result="shape"/>
</filter>
<linearGradient id="paint0_linear_642_7583" x1="372.106" y1="314" x2="467.273" y2="86.0159" gradientUnits="userSpaceOnUse">
<stop stop-color="#2BAAE2"/>
<stop offset="1" stop-color="#253E90"/>
</linearGradient>
<linearGradient id="paint1_linear_642_7583" x1="52.2329" y1="52.51" x2="376.083" y2="376.455" gradientUnits="userSpaceOnUse">
<stop stop-color="white"/>
<stop offset="1" stop-color="#E6E7E8"/>
</linearGradient>
<linearGradient id="paint2_linear_642_7583" x1="51.2426" y1="51.5201" x2="496.963" y2="497.37" gradientUnits="userSpaceOnUse">
<stop stop-color="white"/>
<stop offset="1" stop-color="#E6E7E8"/>
</linearGradient>
<linearGradient id="paint3_linear_642_7583" x1="98.2456" y1="397.708" x2="135.25" y2="254.483" gradientUnits="userSpaceOnUse">
<stop stop-color="#2BAAE2"/>
<stop offset="1" stop-color="#253E90"/>
</linearGradient>
<linearGradient id="paint4_linear_642_7583" x1="203.577" y1="398.889" x2="97.0971" y2="292.368" gradientUnits="userSpaceOnUse">
<stop stop-color="white"/>
<stop offset="1" stop-color="#E6E7E8"/>
</linearGradient>
<linearGradient id="paint5_linear_642_7583" x1="47.6632" y1="108.76" x2="153.676" y2="46.2713" gradientUnits="userSpaceOnUse">
<stop stop-color="#2BAAE2"/>
<stop offset="1" stop-color="#253E90"/>
</linearGradient>
<linearGradient id="paint6_linear_642_7583" x1="339.92" y1="215.21" x2="465.129" y2="141.407" gradientUnits="userSpaceOnUse">
<stop stop-color="#2BAAE2"/>
<stop offset="1" stop-color="#253E90"/>
</linearGradient>
<linearGradient id="paint7_linear_642_7583" x1="53.743" y1="379.1" x2="222.822" y2="379.1" gradientUnits="userSpaceOnUse">
<stop stop-color="#808285"/>
<stop offset="1" stop-color="#58595B"/>
</linearGradient>
<linearGradient id="paint8_linear_642_7583" x1="55.6536" y1="316.53" x2="61.6953" y2="316.53" gradientUnits="userSpaceOnUse">
<stop stop-color="#808285"/>
<stop offset="1" stop-color="#58595B"/>
</linearGradient>
<linearGradient id="paint9_linear_642_7583" x1="15.662" y1="97.1901" x2="109.449" y2="97.1901" gradientUnits="userSpaceOnUse">
<stop stop-color="#808285"/>
<stop offset="1" stop-color="#58595B"/>
</linearGradient>
<linearGradient id="paint10_linear_642_7583" x1="191.883" y1="128.95" x2="202.176" y2="128.95" gradientUnits="userSpaceOnUse">
<stop stop-color="#808285"/>
<stop offset="1" stop-color="#58595B"/>
</linearGradient>
<linearGradient id="paint11_linear_642_7583" x1="99.2562" y1="192.99" x2="162.895" y2="192.99" gradientUnits="userSpaceOnUse">
<stop stop-color="#808285"/>
<stop offset="1" stop-color="#58595B"/>
</linearGradient>
<linearGradient id="paint12_linear_642_7583" x1="105.898" y1="16.06" x2="111.94" y2="16.06" gradientUnits="userSpaceOnUse">
<stop stop-color="#808285"/>
<stop offset="1" stop-color="#58595B"/>
</linearGradient>
<linearGradient id="paint13_linear_642_7583" x1="198.625" y1="108.76" x2="204.667" y2="108.76" gradientUnits="userSpaceOnUse">
<stop stop-color="#808285"/>
<stop offset="1" stop-color="#58595B"/>
</linearGradient>
<linearGradient id="paint14_linear_642_7583" x1="301.045" y1="271.19" x2="342.227" y2="271.19" gradientUnits="userSpaceOnUse">
<stop stop-color="#808285"/>
<stop offset="1" stop-color="#58595B"/>
</linearGradient>
<linearGradient id="paint15_linear_642_7583" x1="391.862" y1="215.21" x2="525.941" y2="215.21" gradientUnits="userSpaceOnUse">
<stop stop-color="#808285"/>
<stop offset="1" stop-color="#58595B"/>
</linearGradient>
<linearGradient id="paint16_linear_642_7583" x1="409.227" y1="328.32" x2="415.269" y2="328.32" gradientUnits="userSpaceOnUse">
<stop stop-color="#808285"/>
<stop offset="1" stop-color="#58595B"/>
</linearGradient>
</defs>
</svg>
