<svg width="85" height="84" viewBox="0 0 85 84" fill="none" xmlns="http://www.w3.org/2000/svg">
<g clip-path="url(#clip0_823_1146)">
<path d="M78.2 83.1419C77.9178 83.1418 77.6632 82.9724 77.5543 82.712C77.4454 82.4517 77.5035 82.1514 77.7016 81.9505L78.9238 80.7073L75.6338 82.6001C75.3271 82.7847 74.9305 82.7082 74.7145 82.4227C74.4985 82.1373 74.5327 81.7348 74.7938 81.4899L77.9326 78.4687L73.5086 81.0209C73.1998 81.2002 72.8056 81.1184 72.5937 80.831C72.3818 80.5437 72.4201 80.1429 72.6826 79.9009L76.1 76.7397L71.7432 79.2597C71.4318 79.4374 71.0365 79.3512 70.8274 79.06C70.6184 78.7687 70.6632 78.3666 70.9312 78.1285L73.5982 75.7835L70.2144 77.7435C69.8983 77.9247 69.4961 77.8332 69.2896 77.5331C69.083 77.2329 69.1412 76.8246 69.4234 76.5941L70.535 75.6967L69.0314 76.5647C68.7228 76.7414 68.3307 76.6586 68.1199 76.3722C67.909 76.0859 67.9464 75.6869 68.2068 75.4447L70.9046 72.9401L67.42 74.9547C67.1121 75.1199 66.7296 75.0328 66.5236 74.7506C66.3176 74.4684 66.3512 74.0775 66.6024 73.8347L68.82 71.8481L65.9612 73.5001C65.65 73.6801 65.2531 73.5952 65.0429 73.3036C64.8326 73.0121 64.8774 72.6087 65.1464 72.3703L67.021 70.7043L64.5738 72.1169C64.2728 72.2931 63.8881 72.2209 63.6715 71.9476C63.4549 71.6743 63.4725 71.2832 63.7128 71.0305L66.58 67.9785L62.6838 70.2269C62.3852 70.3987 62.0059 70.3277 61.7897 70.0595C61.5734 69.7913 61.5845 69.4056 61.8158 69.1503L64.529 66.1683L60.7826 68.3313C60.4836 68.5051 60.1024 68.4345 59.8855 68.1651C59.6686 67.8957 59.6809 67.5083 59.9146 67.2533L62.3548 64.5765L58.9738 66.5281C58.6797 66.6972 58.3067 66.6312 58.0886 66.3714C57.8705 66.1116 57.8701 65.7328 58.0876 65.4725L60.4998 62.5913L57.0334 64.5933C56.7348 64.7651 56.3555 64.6941 56.1393 64.4259C55.923 64.1577 55.9341 63.772 56.1654 63.5167L58.0876 61.3985L55.3898 62.9553C55.0974 63.1252 54.7254 63.0619 54.5057 62.8048C54.2861 62.5477 54.2816 62.1703 54.4952 61.9081L56.514 59.4203L53.854 60.9603C53.5496 61.1315 53.1655 61.0521 52.9539 60.7742C52.7423 60.4963 52.768 60.105 53.014 59.8571L53.6888 59.1893L52.8614 59.6667C52.5556 59.8454 52.1645 59.7676 51.9504 59.4854C51.7363 59.2032 51.7668 58.8056 52.0214 58.5593L54.8732 55.7929C54.7922 55.4875 54.9258 55.1656 55.1994 55.0075L56.4594 54.2823C56.7656 54.1007 57.1594 54.1779 57.3744 54.4617C57.5894 54.7455 57.5571 55.1454 57.2994 55.3911L57.0516 55.6333L57.7138 55.2511C58.0182 55.0799 58.4023 55.1593 58.6138 55.4372C58.8254 55.715 58.7998 56.1064 58.5538 56.3543L57.8748 57.0235L59.097 56.3235C59.388 56.1521 59.7604 56.216 59.9776 56.4747C60.1974 56.7312 60.2027 57.1081 59.9902 57.3707L57.9728 59.8571L61.26 57.9503C61.5582 57.7804 61.9356 57.8517 62.1512 58.1188C62.3668 58.3858 62.357 58.7698 62.128 59.0255L60.2072 61.1437L63.2298 59.3993C63.5237 59.2319 63.8953 59.2987 64.1126 59.5579C64.3299 59.8172 64.3307 60.1947 64.1146 60.4549L61.7024 63.3347L65.5538 61.1115C65.8527 60.9396 66.2322 61.011 66.4482 61.2798C66.6643 61.5485 66.6524 61.9345 66.4204 62.1895L63.983 64.8663L67.7196 62.7089C68.0186 62.535 68.3997 62.6056 68.6167 62.875C68.8336 63.1444 68.8212 63.5318 68.5876 63.7869L65.88 66.7675L70.003 64.3875C70.3038 64.2134 70.6868 64.2864 70.9025 64.559C71.1182 64.8316 71.1012 65.2211 70.8626 65.4739L67.9954 68.5217L72.2668 66.0563C72.5774 65.8795 72.9713 65.9652 73.1805 66.2549C73.3897 66.5446 73.3471 66.9454 73.0816 67.1847L71.2 68.8549L73.9244 67.2827C74.2322 67.1175 74.6147 67.2046 74.8207 67.4868C75.0267 67.7689 74.9931 68.1598 74.742 68.4027L72.5384 70.3809L75.6786 68.5609C75.9872 68.3842 76.3793 68.4669 76.5901 68.7533C76.801 69.0397 76.7636 69.4387 76.5032 69.6809L73.804 72.1799L77.598 69.9889C77.914 69.8077 78.3163 69.8992 78.5228 70.1993C78.7294 70.4994 78.6711 70.9078 78.389 71.1383L77.276 72.0385L79.0162 71.0333C79.3281 70.8521 79.7266 70.9375 79.9368 71.2307C80.1469 71.5238 80.0999 71.9287 79.8282 72.1659L77.1598 74.5109L80.7774 72.4221C81.0861 72.2428 81.4804 72.3246 81.6923 72.6119C81.9042 72.8993 81.8659 73.3001 81.6034 73.5421L78.2 76.7061L82.2068 74.3933C82.5135 74.2086 82.9101 74.2851 83.1261 74.5706C83.3421 74.8561 83.3079 75.2585 83.0468 75.5035L79.8982 78.5261L82.68 76.9189C82.9835 76.7417 83.3713 76.817 83.5864 77.0948C83.8016 77.3727 83.7773 77.767 83.5298 78.0165L81.9898 79.5831C82.2956 79.6064 82.5506 79.826 82.619 80.1249C82.6874 80.4239 82.5532 80.7325 82.288 80.8865L78.5458 83.0467C78.441 83.1085 78.3217 83.1414 78.2 83.1419Z" fill="#A17861"/>
<path d="M36.9758 69.139C36.6666 69.1397 36.3935 68.9375 36.3041 68.6415C36.2147 68.3455 36.3301 68.0259 36.588 67.8552L46.5812 61.2276L33.2042 68.9501C32.8746 69.1432 32.451 69.0364 32.2524 68.7102C32.0537 68.3839 32.1533 67.9586 32.4762 67.7544L42.0802 61.5791L29.9142 68.6001C29.5856 68.7968 29.1599 68.693 28.9588 68.367C28.7577 68.0411 28.8559 67.614 29.1792 67.4086L47.207 55.5801L26.2238 67.6956C25.8925 67.8951 25.4622 67.7883 25.2627 67.4569C25.0632 67.1256 25.1701 66.6953 25.5014 66.4958L34.8128 60.6704L23.9852 66.9201C23.6564 67.1038 23.2411 66.9945 23.0454 66.6726C22.8498 66.3507 22.944 65.9317 23.2586 65.7244L42.4148 53.48L21.181 65.7371C20.8527 65.915 20.4426 65.8039 20.249 65.4846C20.0553 65.1654 20.1463 64.7504 20.4558 64.5415L41.9682 50.82L18.6204 64.2964C18.4063 64.4257 18.1395 64.431 17.9205 64.3103C17.7015 64.1895 17.5636 63.9611 17.5586 63.7111C17.5537 63.461 17.6825 63.2273 17.8966 63.098L39.64 49.3234L16.26 62.8265C15.9303 63.0112 15.5134 62.9008 15.3183 62.5772C15.1232 62.2535 15.2203 61.8333 15.5376 61.6281L35.3742 49.1988L14.4092 61.2976C14.0793 61.4793 13.6649 61.3675 13.4712 61.0445C13.2775 60.7216 13.374 60.3033 13.6896 60.0978L31.0202 49.3263L12.7502 59.8753C12.4193 60.0755 11.9886 59.9696 11.7884 59.6386C11.5881 59.3077 11.6941 58.8771 12.025 58.6768L37.5568 42.5377L10.9092 57.9209C10.5801 58.0991 10.1689 57.987 9.97596 57.6662C9.78299 57.3455 9.87649 56.9297 10.1882 56.7224L31.7216 43.2825L9.39999 56.1625C9.07136 56.3358 8.66457 56.2222 8.47331 55.9036C8.28204 55.5851 8.37295 55.1727 8.68039 54.964L30.3636 41.4401L8.07419 54.3088C7.74433 54.4905 7.32987 54.3787 7.13618 54.0557C6.94249 53.7328 7.03899 53.3145 7.35459 53.1091L28.7242 39.7965L6.88419 52.3964C6.5521 52.5944 6.12243 52.4856 5.92449 52.1535C5.72655 51.8215 5.8353 51.3918 6.16739 51.1939L21.7592 41.5829L5.91539 50.7388C5.58643 50.9198 5.17333 50.8089 4.97908 50.4877C4.78482 50.1664 4.87858 49.7491 5.19159 49.5419L32.0408 32.5739L4.86819 48.2608C4.53649 48.4599 4.10619 48.3525 3.90709 48.0207C3.70799 47.689 3.81549 47.2587 4.14719 47.0596L24.8994 34.1279L4.00019 46.2001C3.67002 46.3765 3.25945 46.262 3.06833 45.9401C2.8772 45.6181 2.97319 45.2028 3.28619 44.9974L7.66819 42.3277L3.62079 44.66C3.29117 44.8484 2.87149 44.7397 2.67477 44.415C2.47805 44.0903 2.57601 43.668 2.89559 43.4631L27.5538 27.8783L2.98099 42.0644C2.65137 42.2528 2.23169 42.1441 2.03497 41.8194C1.83825 41.4947 1.93621 41.0724 2.25579 40.8675L27.2472 24.983L2.58339 39.2225C2.25259 39.4053 1.83634 39.2926 1.64309 38.9677C1.44984 38.6429 1.5494 38.2233 1.86799 38.0199L8.82599 33.7485L2.44059 37.4361C2.1099 37.6223 1.69098 37.5112 1.4962 37.1854C1.30143 36.8596 1.40176 36.438 1.72239 36.2349L10.8224 30.625L2.29639 35.5447C1.96546 35.7445 1.53516 35.6383 1.33529 35.3074C1.13542 34.9764 1.24166 34.5461 1.57259 34.3463L20.0526 22.6646L2.51899 32.7825C2.1897 32.9583 1.78033 32.8448 1.58859 32.5245C1.39684 32.2042 1.49021 31.7898 1.80079 31.5827L10.4906 26.1801L2.68839 30.6881C2.36028 30.8685 1.94827 30.7588 1.75336 30.4391C1.55845 30.1193 1.64968 29.7028 1.96039 29.4938L20.362 17.626L3.40799 27.4135C3.08019 27.5998 2.66367 27.493 2.46597 27.1719C2.26826 26.8509 2.36041 26.4309 2.67439 26.222L20.425 14.5516L4.54479 23.7188C4.21847 23.9018 3.806 23.7958 3.60827 23.4782C3.41054 23.1607 3.49745 22.7438 3.80559 22.5316L17.9204 13.1376L6.21919 19.8926C5.89515 20.0765 5.48391 19.9743 5.28358 19.6602C5.08325 19.3461 5.16405 18.9301 5.46739 18.7138L17.3184 10.409L9.51899 14.91C9.19951 15.0883 8.79663 14.9905 8.59446 14.6856C8.39228 14.3807 8.45901 13.9715 8.74759 13.7466L14.7074 9.24005C14.5403 9.18638 14.3992 9.07264 14.3112 8.92085C14.1179 8.58605 14.2326 8.15795 14.5674 7.96465L22.3402 3.47625C22.6597 3.29796 23.0625 3.39576 23.2647 3.70067C23.4669 4.00559 23.4002 4.41476 23.1116 4.63965L18.6106 8.04585L30.4392 1.21665C30.7632 1.03281 31.1745 1.13498 31.3748 1.44908C31.5751 1.76319 31.4943 2.17917 31.191 2.39545L19.3386 10.703L36.2702 0.926848C36.5971 0.740866 37.0126 0.846538 37.211 1.16613C37.4094 1.48572 37.3197 1.90496 37.008 2.11545L22.9002 11.5066L40.6102 1.27965C40.9388 1.08287 41.3645 1.1867 41.5656 1.51266C41.7667 1.83862 41.6685 2.26567 41.3452 2.47105L23.5834 14.1484L44.3034 2.18825C44.6321 2.00115 45.0499 2.10896 45.2471 2.43172C45.4442 2.75448 45.3493 3.17546 45.0328 3.38245L26.6256 15.26L47.4184 3.24805C47.7491 3.06175 48.168 3.17294 48.3628 3.49871C48.5576 3.82447 48.4572 4.24612 48.1366 4.44925L39.4202 9.86305L49.4134 4.09365C49.743 3.90528 50.1627 4.01399 50.3594 4.33868C50.5561 4.66338 50.4582 5.08571 50.1386 5.29065L31.695 16.954L51.8032 5.34525C52.1353 5.14731 52.565 5.25606 52.7629 5.58815C52.9608 5.92024 52.8521 6.34991 52.52 6.54785L43.434 12.1478L53.451 6.36445C53.781 6.1855 54.1934 6.29873 54.3858 6.6211C54.5781 6.94346 54.482 7.36018 54.1678 7.56565L47.1678 11.8622L55.0078 7.33745C55.3374 7.14908 55.7571 7.25779 55.9538 7.58248C56.1505 7.90718 56.0526 8.32951 55.733 8.53445L30.7402 24.423L57.1456 9.17845C57.4752 8.99008 57.8949 9.09879 58.0916 9.42348C58.2883 9.74818 58.1904 10.1705 57.8708 10.3754L33.2126 25.9588L59.1602 10.983C59.4832 10.8499 59.8549 10.9753 60.0312 11.2769C60.2076 11.5784 60.1346 11.9638 59.8602 12.18L55.5062 14.84L60.157 12.1548C60.4876 11.9642 60.9101 12.0736 61.1067 12.4007C61.3032 12.7278 61.2015 13.1522 60.878 13.3546L40.1202 26.2892L61.6312 13.8726C61.9621 13.6724 62.3927 13.7783 62.593 14.1092C62.7932 14.4402 62.6873 14.8708 62.3564 15.071L35.5142 32.0335L63.1628 16.0734C63.4949 15.8755 63.9245 15.9843 64.1225 16.3163C64.3204 16.6484 64.2117 17.0781 63.8796 17.276L48.264 26.8997L64.1792 17.71C64.3938 17.5813 64.6607 17.5767 64.8796 17.6981C65.0984 17.8196 65.2358 18.0485 65.2401 18.2987C65.2443 18.549 65.1148 18.7825 64.9002 18.9112L43.546 32.2113L65.26 19.6756C65.5886 19.5023 65.9954 19.6159 66.1867 19.9345C66.3779 20.253 66.287 20.6654 65.9796 20.874L44.288 34.4051L66.1518 21.784C66.4804 21.6107 66.8872 21.7243 67.0785 22.0429C67.2697 22.3614 67.1788 22.7738 66.8714 22.9824L45.3268 36.4337L67.0268 23.9065C67.3577 23.7066 67.788 23.8128 67.9879 24.1438C68.1878 24.4747 68.0815 24.905 67.7506 25.1048L42.2328 41.2371L67.6764 26.5469C68.0062 26.3652 68.4207 26.477 68.6144 26.8C68.8081 27.1229 68.7116 27.5412 68.396 27.7467L51.0486 38.5266L68.1916 28.6286C68.5222 28.438 68.9447 28.5474 69.1413 28.8745C69.3378 29.2016 69.2361 29.626 68.9126 29.8284L49.0802 42.2591L68.4408 31.0801C68.7717 30.8798 69.2023 30.9857 69.4026 31.3167C69.6028 31.6476 69.4969 32.0782 69.166 32.2785L47.4296 46.0474L68.6606 33.7905C68.9889 33.6125 69.399 33.7236 69.5926 34.0429C69.7863 34.3621 69.6952 34.7771 69.3858 34.986L47.8678 48.72L68.515 36.799C68.8446 36.6059 69.2681 36.7127 69.4668 37.0389C69.6655 37.3652 69.5659 37.7905 69.243 37.9947L50.0798 50.2405L68.2798 39.7405C68.6095 39.5557 69.0263 39.6661 69.2215 39.9897C69.4166 40.3134 69.3195 40.7336 69.0022 40.9389L59.7146 46.7503L67.7002 42.1303C68.0268 41.9525 68.4355 42.0612 68.6306 42.3778C68.8258 42.6943 68.7393 43.1083 68.4338 43.3203L50.4018 55.1601L66.6754 45.766C67.005 45.5729 67.4285 45.6797 67.6272 46.0059C67.8259 46.3322 67.7263 46.7575 67.4034 46.9616L57.7952 53.1399L65.4196 48.7396C65.7461 48.5594 66.1565 48.6668 66.353 48.9838C66.5494 49.3008 66.4627 49.7162 66.156 49.9282L56.1586 56.5601L63.3602 52.3993C63.6828 52.2141 64.0938 52.3136 64.2961 52.6257C64.4983 52.9379 64.4212 53.3537 64.1204 53.5724L55.1954 60.039L59.2372 57.7067C59.4542 57.5687 59.7293 57.5608 59.9539 57.6861C60.1784 57.8114 60.3161 58.0498 60.3127 58.3069C60.3092 58.564 60.165 58.7985 59.9372 58.9176L44.1802 68.0121C43.8576 68.1972 43.4466 68.0977 43.2443 67.7856C43.042 67.4734 43.1192 67.0576 43.42 66.8389L52.352 60.3666L37.3202 69.0439C37.2156 69.1048 37.0969 69.1376 36.9758 69.139Z" fill="#CDD1DA"/>
<path d="M34.7636 63.5993C34.4528 63.6003 34.1785 63.3963 34.0901 63.0984C34.0017 62.8004 34.1203 62.4799 34.3814 62.3112L38.2118 59.8277L32.2422 63.2801C31.9166 63.4631 31.5047 63.3584 31.3062 63.042C31.1076 62.7257 31.1924 62.3092 31.4988 62.0956L46.1988 52.1179L28.2788 62.4582C27.9525 62.6412 27.54 62.5352 27.3423 62.2176C27.1445 61.9001 27.2314 61.4832 27.5396 61.271L44.3872 50.071L24.9678 61.2753C24.6392 61.472 24.2135 61.3682 24.0124 61.0422C23.8113 60.7163 23.9095 60.2892 24.2328 60.0839L42.7128 47.9473L22.0698 59.8655C21.7402 60.0586 21.3166 59.9518 21.118 59.6256C20.9193 59.2993 21.0189 58.874 21.3418 58.6699L38.2678 47.789L19.7878 58.4528C19.4591 58.6399 19.0412 58.5321 18.8441 58.2094C18.647 57.8866 18.7418 57.4656 19.0584 57.2586L39.3794 44.107L17.6052 56.6819C17.2772 56.8651 16.8631 56.7568 16.6669 56.4365C16.4706 56.1161 16.5622 55.698 16.8744 55.489L38.7676 41.3168L15.529 54.74C15.1994 54.9284 14.7797 54.8197 14.583 54.495C14.3862 54.1703 14.4842 53.748 14.8038 53.543L33.3776 41.7355L13.9806 52.9355C13.6481 53.133 13.2184 53.0236 13.0209 52.6912C12.8233 52.3587 12.9327 51.929 13.2652 51.7314L13.5956 51.5299L13.1 51.8098C12.7693 52.0005 12.3469 51.8911 12.1503 51.564C11.9537 51.2369 12.0554 50.8125 12.379 50.6101L25.8274 42.21L12.064 50.1466C11.734 50.3256 11.3216 50.2124 11.1292 49.89C10.9368 49.5676 11.033 49.1509 11.3472 48.9454L14.738 46.8636L11.2674 48.8601C10.9381 49.0359 10.5287 48.9224 10.337 48.6021C10.1452 48.2818 10.2386 47.8674 10.5492 47.6602L20.2316 41.6557L10.5128 47.271C10.1807 47.469 9.75101 47.3602 9.55307 47.0281C9.35514 46.6961 9.46389 46.2664 9.79597 46.0684L17.216 41.4793L9.86177 45.7282C9.53216 45.9166 9.11247 45.8079 8.91576 45.4832C8.71904 45.1585 8.817 44.7362 9.13658 44.5312L25.9688 33.8913L9.11417 43.6199C8.78607 43.8003 8.37406 43.6906 8.17915 43.3709C7.98424 43.0511 8.07546 42.6346 8.38617 42.4257L28.9004 29.2334L8.47997 41.0201C8.15012 41.2017 7.73566 41.0899 7.54197 40.7669C7.34828 40.444 7.44478 40.0257 7.76037 39.8203L17.4666 33.7624L8.17617 39.1273C7.84705 39.3055 7.43591 39.1934 7.24295 38.8726C7.04998 38.5519 7.14348 38.1361 7.45517 37.9288L17.3378 31.7394L8.01377 37.1225C7.68401 37.3243 7.25308 37.2205 7.05127 36.8908C6.84947 36.561 6.95321 36.1301 7.28297 35.9282L25.3332 24.22L8.00258 34.2217C7.6743 34.3996 7.26418 34.2885 7.07054 33.9692C6.8769 33.65 6.96792 33.235 7.27737 33.0261L18.4872 25.886L8.19997 31.8276C7.87038 32.0186 7.44857 31.911 7.25077 31.5855C7.05276 31.2593 7.15238 30.8347 7.47477 30.6306L14.1948 26.3816L8.62277 29.6016C8.40845 29.7307 8.14156 29.7356 7.92265 29.6145C7.70373 29.4934 7.56604 29.2647 7.56145 29.0146C7.55685 28.7645 7.68605 28.5309 7.90037 28.4019L9.11277 27.6416H9.10577C8.77794 27.8465 8.34607 27.7469 8.14118 27.419C7.93628 27.0912 8.03594 26.6593 8.36378 26.4545L20.94 17.9817L10.4778 24.024C10.153 24.2074 9.74148 24.104 9.54206 23.7888C9.34264 23.4736 9.42537 23.0574 9.73017 22.8424L18.8904 16.5201L12.6422 20.1321C12.3261 20.3133 11.9239 20.2217 11.7174 19.9216C11.5108 19.6215 11.569 19.2131 11.8512 18.9826L18.168 13.8853C17.8972 13.9126 17.6362 13.7761 17.5044 13.5381C17.3111 13.2033 17.4258 12.7752 17.7606 12.5819L24.916 8.45185C25.232 8.27063 25.6343 8.36215 25.8408 8.66228C26.0473 8.9624 25.9891 9.37078 25.707 9.60125L19.7332 14.4201L33.3132 6.58005C33.638 6.39667 34.0495 6.50014 34.2489 6.81532C34.4483 7.13051 34.3656 7.5467 34.0608 7.76165L24.9048 14.0771L37.7848 6.64305C38.1116 6.45363 38.5298 6.55769 38.7297 6.87819C38.9296 7.19869 38.8392 7.62001 38.5254 7.83025L25.9366 16.3087L41.59 7.27025C41.9206 7.0796 42.343 7.18896 42.5396 7.5161C42.7362 7.84325 42.6345 8.26758 42.311 8.47005L41.0706 9.24705L43.627 7.77285C43.9559 7.59195 44.369 7.70276 44.5633 8.02402C44.7575 8.34527 44.6638 8.76257 44.3508 8.96985L37.6308 13.2161L45.6724 8.57505C46.0006 8.39715 46.4108 8.50821 46.6044 8.82746C46.798 9.1467 46.707 9.56173 46.3976 9.77065L35.1976 16.9107L47.96 9.53825C48.2897 9.33606 48.721 9.43948 48.9232 9.76925C49.1254 10.099 49.0219 10.5303 48.6922 10.7325L30.6322 22.4463L50.3904 11.0419C50.7195 10.8636 51.1306 10.9757 51.3236 11.2965C51.5166 11.6172 51.4231 12.033 51.1114 12.2403L41.24 18.4213L52.062 12.1801C52.3926 11.9894 52.8151 12.0988 53.0116 12.4259C53.2082 12.753 53.1065 13.1774 52.783 13.3799L43.0698 19.4419L53.504 13.4219C53.8341 13.2204 54.2651 13.3248 54.4665 13.655C54.6679 13.9851 54.5635 14.416 54.2334 14.6175L33.722 27.7957L55.4556 15.2503C55.7845 15.0694 56.1976 15.1802 56.3919 15.5014C56.5861 15.8227 56.4924 16.24 56.1794 16.4473L39.343 27.0872L56.92 16.9471C57.2521 16.7487 57.6821 16.8572 57.8804 17.1893C58.0787 17.5213 57.9703 17.9513 57.6382 18.1496L50.2 22.7444L57.9574 18.2644C58.2872 18.0828 58.7017 18.1946 58.8954 18.5176C59.0891 18.8405 58.9926 19.2588 58.677 19.4642L49.017 25.459L58.88 19.7611C59.2121 19.5631 59.6417 19.6719 59.8397 20.004C60.0376 20.336 59.9289 20.7657 59.5968 20.9636L56.1724 23.0637L59.6724 21.0407C60.0022 20.859 60.4167 20.9708 60.6104 21.2938C60.8041 21.6167 60.7076 22.035 60.392 22.2404L46.952 30.6404L60.5222 22.82C60.853 22.6372 61.2692 22.7499 61.4625 23.0748C61.6557 23.3996 61.5562 23.8192 61.2376 24.0226L60.8974 24.2313L61.0766 24.1276C61.4062 23.9393 61.8259 24.048 62.0226 24.3727C62.2193 24.6974 62.1214 25.1197 61.8018 25.3247L43.2364 37.1266L61.8802 26.3634C62.2089 26.1764 62.6267 26.2842 62.8239 26.6069C63.021 26.9297 62.9261 27.3507 62.6096 27.5576L40.7178 41.72L62.5578 29.1102C62.8857 28.927 63.2998 29.0353 63.4961 29.3556C63.6924 29.676 63.6008 30.0941 63.2886 30.3031L42.9592 43.4631L62.9106 31.9438C63.2407 31.7424 63.6717 31.8468 63.8731 32.1769C64.0745 32.5071 63.9701 32.938 63.64 33.1395L46.7266 44.0132L63.094 34.5632C63.4218 34.3769 63.8383 34.4837 64.036 34.8048C64.2337 35.1258 64.1416 35.5458 63.8276 35.7547L45.3476 47.8899L62.8336 37.8001C63.1612 37.6055 63.5843 37.7086 63.7855 38.0322C63.9867 38.3558 63.8922 38.7809 63.5728 38.9887L46.714 50.197L62.1644 41.2776C62.4911 41.0841 62.9126 41.1863 63.1143 41.5081C63.316 41.8298 63.2244 42.2537 62.9078 42.4634L48.2078 52.4384L60.882 45.1207C61.2118 44.9188 61.6427 45.0226 61.8445 45.3524C62.0463 45.6821 61.9426 46.113 61.6128 46.3148L57.7796 48.7998L59.7088 47.6882C60.0335 47.5141 60.4377 47.6216 60.633 47.9341C60.8284 48.2465 60.7481 48.6569 60.4494 48.8727L55.709 52.0717L57.6928 50.9264C58.0123 50.7419 58.4203 50.837 58.6251 51.144C58.83 51.4509 58.7614 51.8642 58.4684 52.0885L53.14 56.1611C53.3914 56.2589 53.5643 56.4924 53.5843 56.7615C53.6043 57.0305 53.468 57.2871 53.2338 57.421L46.084 61.5483C45.7647 61.7289 45.3601 61.6324 45.1567 61.3271C44.9533 61.0219 45.0201 60.6113 45.3098 60.3862L49.0128 57.5541L39.0504 63.3067C38.7247 63.4871 38.3147 63.3809 38.1175 63.0651C37.9203 62.7493 38.0048 62.3344 38.3098 62.1209L43.06 58.9219L35.1136 63.5041C35.0073 63.566 34.8866 63.5988 34.7636 63.5993Z" fill="#2081E9"/>
<path d="M33.4884 53.6326C33.1775 53.6328 32.9038 53.4279 32.8163 53.1296C32.7289 52.8312 32.8486 52.5109 33.1104 52.3432L37.6912 49.4032L31.121 53.1958C30.7948 53.3846 30.3777 53.2813 30.1774 52.962C29.977 52.6422 30.0662 52.2211 30.379 52.01L44.519 42.4354L27.7568 52.1122C27.4291 52.3022 27.0098 52.1971 26.8105 51.875C26.6111 51.5529 26.7042 51.1307 27.0204 50.9222L39.962 42.3626L25.1402 50.9208C24.8124 51.1072 24.3959 51.0004 24.1982 50.6793C24.0005 50.3582 24.0926 49.9382 24.4066 49.7294L36.2604 41.9902L22.8498 49.7322C22.5217 49.9127 22.1097 49.803 21.9148 49.4832C21.7199 49.1635 21.8111 48.747 22.1218 48.538L31.1 42.7784L21.097 48.552C20.7669 48.7534 20.3359 48.6491 20.1345 48.3189C19.9331 47.9888 20.0375 47.5578 20.3676 47.3564L29.8512 41.2678L19.3176 47.348C18.9915 47.5236 18.5851 47.4149 18.3903 47.0999C18.1956 46.7849 18.2798 46.3727 18.5826 46.1594L33.4086 36.3594L17.2834 45.6694C16.9571 45.8524 16.5446 45.7464 16.3469 45.4288C16.1492 45.1113 16.2361 44.6943 16.5442 44.4822L32.8514 33.5622L15.147 43.7822C14.8205 43.9625 14.4101 43.8551 14.2137 43.5381C14.0172 43.2211 14.1039 42.8057 14.4106 42.5936L29.1106 32.8552L13.3032 41.986C12.9751 42.1665 12.5631 42.0568 12.3682 41.737C12.1733 41.4173 12.2645 41.0008 12.5752 40.7918L20.8912 35.4578L11.9886 40.6C11.6609 40.79 11.2416 40.6849 11.0423 40.3628C10.8429 40.0407 10.936 39.6185 11.2522 39.41L24.6628 30.52L10.3828 38.766C10.0567 38.9519 9.64195 38.8474 9.44281 38.5292C9.24368 38.2109 9.33104 37.7923 9.64081 37.5802L23.5232 28.224L8.74901 36.7486C8.42074 36.9265 8.01062 36.8155 7.81698 36.4962C7.62334 36.177 7.71435 35.7619 8.02381 35.553L9.47981 34.6276L7.98321 35.4928C7.65639 35.6822 7.23823 35.5782 7.03829 35.2577C6.83836 34.9372 6.92878 34.5159 7.24261 34.3056L16.729 27.937L11.8668 30.744C11.5454 30.9281 11.1363 30.83 10.9333 30.5202C10.7304 30.2104 10.8039 29.7961 11.101 29.575L18.5602 24.0576C18.3063 23.9645 18.1287 23.7333 18.1041 23.4639C18.0796 23.1946 18.2125 22.9351 18.4454 22.7976L26.7964 17.9774C27.1178 17.7933 27.5269 17.8914 27.7299 18.2012C27.9328 18.5111 27.8594 18.9253 27.5622 19.1464L21.867 23.359L33.9644 16.373C34.2912 16.1836 34.7094 16.2877 34.9093 16.6082C35.1093 16.9287 35.0189 17.35 34.705 17.5602L25.2102 23.9344L37.9838 16.5592C38.3134 16.3709 38.7331 16.4796 38.9298 16.8043C39.1266 17.129 39.0286 17.5513 38.709 17.7562L37.2432 18.6858L40.27 16.94C40.5962 16.7542 41.0109 16.8586 41.21 17.1769C41.4091 17.4951 41.3218 17.9138 41.012 18.1258L27.1324 27.4806L43.5614 17.99C43.8879 17.8098 44.2984 17.9172 44.4948 18.2342C44.6912 18.5512 44.6046 18.9665 44.2978 19.1786L30.8872 28.07L46.1808 19.2402C46.5096 19.0564 46.9249 19.1658 47.1206 19.4877C47.3162 19.8096 47.222 20.2286 46.9074 20.4358L38.5928 25.7684L48.138 20.258C48.465 20.072 48.8805 20.1777 49.0788 20.4973C49.2772 20.8169 49.1876 21.2361 48.8758 21.4466L34.1632 31.192L50.4284 21.8022C50.7547 21.6193 51.1672 21.7253 51.3649 22.0428C51.5627 22.3604 51.4758 22.7773 51.1676 22.9894L34.866 33.9094L52.786 23.5662C53.1131 23.3833 53.5263 23.4904 53.7233 23.8093C53.9202 24.1282 53.8311 24.5456 53.521 24.7562L38.695 34.5562L54.8202 25.2378C55.1498 25.0447 55.5734 25.1514 55.772 25.4777C55.9707 25.804 55.8711 26.2293 55.5482 26.4334L46.0562 32.5248L56.2832 26.6224C56.6109 26.447 57.0184 26.5582 57.2116 26.8757C57.4048 27.1932 57.3162 27.6063 57.0098 27.8166L48.033 33.5762L57.6888 28C58.0174 27.8089 58.4384 27.915 58.6373 28.2389C58.8361 28.5629 58.7401 28.9863 58.421 29.1928L46.5602 36.9348L59.219 29.6268C59.5467 29.4368 59.9661 29.542 60.1654 29.864C60.3647 30.1861 60.2717 30.6083 59.9554 30.8168L47.0194 39.3708L60.7828 31.4258C61.109 31.24 61.5237 31.3444 61.7228 31.6627C61.922 31.9809 61.8346 32.3996 61.5248 32.6116L47.3848 42.1876L62.4362 33.4964C62.7649 33.3093 63.1828 33.4171 63.3799 33.7399C63.577 34.0627 63.4822 34.4836 63.1656 34.6906L58.5708 37.6432L62.2766 35.504C62.6028 35.3182 63.0175 35.4226 63.2166 35.7409C63.4158 36.0591 63.3284 36.4778 63.0186 36.6898L54.5528 42.4116L58.071 40.3816C58.3938 40.1992 58.8028 40.3001 59.0037 40.6117C59.2046 40.9233 59.1278 41.3375 58.8284 41.5562L52.5942 46.0208C52.6821 46.0807 52.7553 46.1597 52.8084 46.2518C53.0019 46.5863 52.8879 47.0142 52.5536 47.208L44.2026 52.0282C43.8798 52.2106 43.4708 52.1097 43.2699 51.7982C43.069 51.4866 43.1459 51.0724 43.4452 50.8536L46.4118 48.7284L38.1322 53.508C37.8061 53.6939 37.3913 53.5894 37.1922 53.2712C36.9931 52.9529 37.0804 52.5343 37.3902 52.3222L45.8518 46.6032L33.8384 53.5374C33.7321 53.5994 33.6114 53.6322 33.4884 53.6326Z" fill="#F1F3F6"/>
<path d="M33.7205 48.0537C33.4192 48.0537 33.1517 47.8609 33.0564 47.575C32.9612 47.2892 33.0595 46.9745 33.3005 46.7937L38.2999 43.0207L31.1179 47.1703C30.7935 47.349 30.3861 47.244 30.1883 46.9309C29.9906 46.6178 30.071 46.2048 30.3717 45.9887L32.9071 44.2401L29.3777 46.2841C29.0522 46.4672 28.6403 46.3624 28.4417 46.0461C28.2432 45.7297 28.3279 45.3132 28.6343 45.0997L31.7367 42.9885L27.8321 45.2411C27.5085 45.4005 27.1167 45.2879 26.9271 44.9809C26.7376 44.674 26.8124 44.2732 27.0999 44.0553L29.4953 42.4509L26.6757 44.0777C26.3537 44.2609 25.9446 44.1614 25.7427 43.8507C25.5408 43.54 25.6159 43.1258 25.9141 42.9059L35.1905 36.1663L25.1175 41.9819C24.7933 42.163 24.384 42.0595 24.185 41.7459C23.986 41.4323 24.0666 41.0179 24.3685 40.8017L31.0507 36.1635L24.2131 40.1115C23.8883 40.2949 23.4768 40.1914 23.2774 39.8762C23.078 39.561 23.1607 39.1448 23.4655 38.9299L28.7603 35.2899L23.5999 38.2691C23.275 38.4498 22.8654 38.3449 22.6673 38.0303C22.4692 37.7156 22.5517 37.301 22.8551 37.0861L26.9739 34.2637L23.3759 36.3399C23.0524 36.5216 22.6433 36.4194 22.4434 36.1068C22.2435 35.7943 22.3221 35.38 22.6227 35.1625L27.3659 31.8165L23.4683 34.0663C23.1514 34.2438 22.7514 34.1495 22.5473 33.849C22.3431 33.5486 22.4026 33.142 22.6843 32.9127L28.9297 27.9609L24.3895 30.5803C24.0784 30.7603 23.6815 30.6754 23.4712 30.3838C23.261 30.0923 23.3057 29.6889 23.5747 29.4505L26.8703 26.5217C26.5853 26.4636 26.3659 26.2352 26.3192 25.9481C26.2726 25.6609 26.4084 25.3749 26.6603 25.2295L31.4679 22.4547C31.7791 22.2747 32.176 22.3596 32.3862 22.6511C32.5965 22.9427 32.5517 23.3461 32.2827 23.5845L29.6409 25.9309L36.4715 21.9885C36.7886 21.8076 37.1915 21.9009 37.3969 22.2026C37.6024 22.5044 37.5414 22.9133 37.2569 23.1421L31.0101 28.0953L40.0359 22.8859C40.3594 22.7042 40.7685 22.8064 40.9684 23.119C41.1684 23.4315 41.0897 23.8458 40.7891 24.0633L36.0487 27.4065L42.0113 23.9639C42.3367 23.7779 42.7508 23.8812 42.9508 24.1981C43.1507 24.5151 43.0655 24.9334 42.7575 25.1469L38.6247 27.9777L43.5471 25.1371C43.8725 24.9511 44.2866 25.0544 44.4866 25.3713C44.6865 25.6883 44.6013 26.1066 44.2933 26.3201L38.9999 29.9601L44.9359 26.5329C45.2611 26.3436 45.6778 26.4453 45.8792 26.7631C46.0807 27.0809 45.9949 27.5011 45.6849 27.7145L39.0125 32.3401L46.0531 28.2801C46.3752 28.0969 46.7842 28.1964 46.9862 28.5071C47.1881 28.8177 47.1129 29.232 46.8147 29.4519L37.5341 36.1901L47.0793 30.6797C47.4056 30.4968 47.8181 30.6027 48.0158 30.9203C48.2136 31.2379 48.1267 31.6548 47.8185 31.8669L45.4217 33.4713L47.4657 32.2911C47.7913 32.108 48.2032 32.2128 48.4017 32.5291C48.6003 32.8454 48.5155 33.2619 48.2091 33.4755L45.1067 35.5867L47.6799 34.1041C48.0053 33.9181 48.4194 34.0214 48.6194 34.3383C48.8193 34.6553 48.7341 35.0736 48.4261 35.2871L45.8921 37.0287L47.5189 36.0893C47.8391 35.9058 48.2468 36.0025 48.4505 36.3102C48.6543 36.6178 48.5842 37.0309 48.2903 37.2541L43.2839 41.0341L46.7573 39.0293C47.0659 38.8526 47.458 38.9353 47.6689 39.2217C47.8797 39.5081 47.8423 39.9071 47.5819 40.1493L43.9839 43.4729H43.9923C44.3082 43.474 44.5842 43.6865 44.666 43.9915C44.7478 44.2966 44.6152 44.6187 44.3423 44.7777L39.5361 47.5441C39.2275 47.7208 38.8354 47.638 38.6246 47.3516C38.4137 47.0653 38.4511 46.6663 38.7115 46.4241L42.0141 43.3735L34.0705 47.9599C33.9641 48.0213 33.8434 48.0537 33.7205 48.0537Z" fill="#00B6E6"/>
<path d="M34.5413 41.1041C34.2495 41.1038 33.9885 40.9226 33.8862 40.6493C33.784 40.376 33.8621 40.068 34.0821 39.8763L35.1027 38.9887L32.8949 40.2627C32.5933 40.4391 32.2079 40.3661 31.9916 40.0917C31.7754 39.8173 31.7946 39.4254 32.0367 39.1735L34.7051 36.3735L31.1323 38.4399C30.8243 38.6072 30.44 38.5209 30.2331 38.238C30.0262 37.955 30.0604 37.5627 30.3133 37.3199L31.7987 35.9801L30.4743 36.7445C30.1586 36.9248 29.7575 36.8334 29.551 36.5343C29.3445 36.2351 29.4014 35.8277 29.6819 35.5965L30.0669 35.2815C29.8367 35.298 29.6126 35.2026 29.4649 35.0253C29.248 34.7572 29.2587 34.371 29.4901 34.1153L31.2387 32.1763C30.9269 32.1655 30.6599 31.9497 30.5839 31.6472C30.5079 31.3446 30.6414 31.0282 30.9111 30.8715L34.1451 29.0039C34.443 28.8339 34.8202 28.9049 35.036 29.1714C35.2518 29.438 35.2427 29.8217 35.0145 30.0777L33.4941 31.7577L36.5559 29.9909C36.8713 29.8087 37.2737 29.8988 37.4813 30.1981C37.6892 30.4984 37.6313 30.908 37.3483 31.1389L37.0809 31.3573C37.3446 31.3092 37.6122 31.4184 37.7669 31.6373C37.9774 31.9267 37.9357 32.3283 37.6703 32.5683L36.1849 33.9067L38.2219 32.7307C38.523 32.5565 38.9064 32.63 39.1219 32.9031C39.3373 33.1762 39.3195 33.5661 39.0801 33.8185L36.4103 36.6185L40.6803 34.1601C40.9924 33.9812 41.3893 34.0679 41.5982 34.3608C41.8072 34.6536 41.7602 35.0571 41.4895 35.2941L40.4577 36.1929C40.7967 36.0435 41.1934 36.1841 41.3626 36.5137C41.5319 36.8433 41.415 37.2476 41.0961 37.4361L34.8983 41.0145C34.7896 41.0763 34.6662 41.1072 34.5413 41.1041Z" fill="#444444"/>
<path d="M9.59176 12.5581C-12.4652 37.1715 11.4902 75.4601 43.0602 68.2011C47.1459 67.2633 51.0276 65.5917 54.5164 63.2675L67.1584 75.8675C71.0896 79.7875 74.5658 85.0025 80.7552 82.5161C80.9281 82.4532 81.0802 82.3437 81.1948 82.1997C84.1348 79.8295 85.245 76.0551 82.5374 72.9121C80.81 71.2681 78.912 69.8131 76.8758 68.5721L61.4268 57.1915C66.8386 50.9376 69.9072 42.9964 70.1068 34.7285C69.25 3.7185 30.3048 -10.5559 9.59176 12.5581ZM79.7598 81.2869C74.5224 83.2693 68.1496 74.1007 65.2586 71.2181L56.1502 62.1363C57.5738 61.0633 58.9112 59.8804 60.15 58.5985L70.9832 66.5785C74.7898 69.3897 86.848 75.6925 79.7598 81.2869ZM54.4506 61.8353C54.3 61.9067 54.1657 62.0082 54.0558 62.1335C47.2617 67.0554 38.7735 69.0377 30.5022 67.6341C14.6822 65.0581 2.91376 50.6101 2.91376 34.7341C2.91516 15.0641 20.8002 -0.946301 40.4982 2.3661C56.6402 5.0807 67.64 19.2949 68.0866 35.2717C67.8359 45.7439 62.8137 55.5275 54.4506 61.8353Z" fill="#262626"/>
<path d="M49.1306 34.9316C48.1996 17.6542 21.9496 17.769 21.8698 35.0716C21.79 52.5856 48.2108 51.9906 49.1306 34.9316ZM35.2874 23.2402C41.964 23.054 46.731 28.7618 47.0698 35.0646C46.7114 41.7286 41.6476 47.5106 34.4698 46.756C28.4946 46.0002 23.9942 40.9499 23.9292 34.9274C23.9059 28.5907 28.9526 23.3978 35.2874 23.2402Z" fill="#262626"/>
<path d="M42.114 34.7284C42.0912 34.1701 42.0067 33.6161 41.862 33.0764C41.7486 32.6382 40.686 32.9714 40.4774 33.0428C38.3774 33.7624 37.7362 30.73 38.1576 29.4938C38.1752 29.4322 38.1653 29.366 38.1304 29.3123C38.0955 29.2586 38.039 29.2227 37.9756 29.2138C32.6346 27.8222 26.0112 33.2332 30.0306 38.668C33.6706 43.5974 41.8004 40.46 42.114 34.7284ZM32.09 31.4328C32.608 30.7958 34.5624 29.5232 35.422 29.8928C36.388 30.3128 35.7258 30.4612 35.8868 31.0674C35.9748 31.9199 36.3622 32.7136 36.9802 33.3074C37.8078 33.9572 38.8829 34.2022 39.9104 33.9752C40.0043 34.3995 40.0633 34.8307 40.0868 35.2646C39.881 39.0852 35.8266 41.6094 32.6976 38.7842C30.6098 36.8667 30.3453 33.6671 32.09 31.4328Z" fill="#262626"/>
<path d="M35.8849 6.38842C35.0659 6.36042 33.7457 7.56582 35.1149 7.61202C48.4273 7.84096 59.7196 17.4519 62.0733 30.5566C62.1321 30.8996 62.1489 31.2412 62.1937 31.5828C55.6893 23.4628 46.0741 15.9812 35.5839 16.033C24.9803 16.0862 15.2391 23.7162 8.70393 31.9342C10.0205 21.2429 17.3222 12.2399 27.5115 8.74462C28.8401 8.27562 27.6403 7.49442 26.6883 7.82902C14.8611 11.9996 6.64033 22.8342 6.50173 34.9848C6.46883 35.0896 6.46883 35.202 6.50173 35.3068C6.49428 37.8065 6.82392 40.2957 7.48172 42.7072C11.5437 56.475 25.0371 65.2253 39.2643 63.3178C53.4915 61.4104 64.2034 49.4148 64.4953 35.0632C64.524 34.9726 64.5279 34.8759 64.5065 34.7832C64.5065 34.7664 64.5065 34.751 64.5065 34.7342C64.4169 18.7686 51.3899 6.91342 35.8849 6.38842ZM14.3599 28.3012C20.2763 22.4212 28.1891 16.9248 36.9279 17.6388C47.2109 18.4788 56.5447 26.9796 62.3323 35.1178C56.0421 43.9196 45.4763 53.2926 34.0747 52.3602C27.1209 51.7932 20.9049 47.5778 15.9125 42.9802C14.7253 41.8868 9.39132 36.8986 8.56112 35.262C8.56112 35.0632 8.54573 34.8644 8.54853 34.6656C10.3379 32.4138 12.2796 30.2874 14.3599 28.3012ZM39.4199 62.142C25.891 63.7609 13.1995 55.2821 9.51593 42.164C9.18489 40.9254 8.94069 39.6651 8.78513 38.3924C15.2895 46.5124 24.9145 54.0192 35.4159 53.9674C46.0013 53.9142 55.7271 46.3094 62.2567 38.1082C60.9001 49.9802 51.8043 60.434 39.4199 62.142Z" fill="#262626"/>
</g>
<defs>
<clipPath id="clip0_823_1146">
<rect width="84" height="84" fill="white" transform="translate(0.5)"/>
</clipPath>
</defs>
</svg>
