<svg width="85" height="84" viewBox="0 0 85 84" fill="none" xmlns="http://www.w3.org/2000/svg">
<g clip-path="url(#clip0_823_3055)">
<path d="M29.1782 27.2902C29.0312 27.2902 28.888 27.244 28.7689 27.1581C28.6497 27.0722 28.5605 26.951 28.5141 26.8116C28.4676 26.6722 28.4662 26.5217 28.51 26.3815C28.5538 26.2413 28.6406 26.1184 28.7582 26.0302L34.34 21.931L25.842 26.8352C25.6868 26.9235 25.5038 26.9491 25.3304 26.9069C25.157 26.8647 25.0062 26.7579 24.9089 26.6082C24.8117 26.4586 24.7752 26.2774 24.8071 26.1018C24.839 25.9262 24.9367 25.7694 25.0804 25.6634L33.8794 19.2598L25.842 23.9008C25.6845 23.9944 25.4966 24.0225 25.3186 23.9791C25.1406 23.9357 24.9868 23.8242 24.89 23.6687C24.7933 23.5131 24.7614 23.3258 24.8012 23.147C24.8409 22.9682 24.9492 22.8121 25.1028 22.7122L26.9018 21.5096L25.842 22.1214C25.6849 22.2095 25.4999 22.2336 25.3255 22.1888C25.1511 22.144 25.0006 22.0337 24.9054 21.8808C24.8102 21.7279 24.7776 21.5443 24.8144 21.368C24.8511 21.1917 24.9544 21.0363 25.1028 20.9342L26.5672 19.9542L25.842 20.3742C25.6858 20.4654 25.5005 20.4927 25.3247 20.4503C25.1489 20.4078 24.9964 20.2991 24.899 20.1467C24.8017 19.9943 24.767 19.8102 24.8024 19.6329C24.8378 19.4555 24.9404 19.2988 25.0888 19.1954L30.0266 15.7164L25.842 18.1286C25.6872 18.2212 25.5027 18.2504 25.3269 18.2103C25.1511 18.1701 24.9976 18.0637 24.8983 17.9132C24.7991 17.7627 24.7617 17.5797 24.7941 17.4023C24.8264 17.2249 24.926 17.0668 25.072 16.961L29.6654 13.524L25.842 15.7304C25.6928 15.8183 25.5164 15.8478 25.3468 15.8133C25.1772 15.7787 25.0264 15.6825 24.9235 15.5433C24.8207 15.4041 24.773 15.2317 24.7899 15.0594C24.8067 14.8871 24.8867 14.7271 25.0146 14.6104L29.1908 10.7142L25.842 12.6504C25.6942 12.7368 25.5199 12.766 25.3521 12.7326C25.1842 12.6992 25.0344 12.6055 24.931 12.4691C24.8275 12.3328 24.7777 12.1633 24.7907 11.9926C24.8038 11.822 24.879 11.662 25.002 11.543L26.1444 10.423L25.8406 10.598C25.7221 10.6663 25.5862 10.6983 25.4498 10.6902C25.3133 10.6822 25.1822 10.6343 25.0726 10.5526C24.963 10.4708 24.8798 10.3588 24.8331 10.2303C24.7865 10.1018 24.7785 9.96242 24.8102 9.82943L25.2232 8.09063C25.0806 8.03229 24.9618 7.92776 24.8858 7.79383C24.7928 7.63322 24.7674 7.44229 24.8152 7.26298C24.863 7.08368 24.98 6.93069 25.1406 6.83763L25.8406 6.43303C25.9589 6.36451 26.0948 6.33218 26.2313 6.34002C26.3679 6.34786 26.4991 6.39553 26.6089 6.47713C26.7186 6.55874 26.8021 6.67072 26.8489 6.79922C26.8957 6.92773 26.9039 7.06714 26.8724 7.20023L26.5462 8.57363L30.2562 6.44003C30.4037 6.35492 30.5773 6.32655 30.7443 6.36024C30.9113 6.39393 31.0603 6.48736 31.1633 6.62303C31.2664 6.7587 31.3164 6.9273 31.304 7.09721C31.2917 7.26713 31.2177 7.4267 31.0962 7.54603L29.9538 8.66603L33.8052 6.44003C33.9543 6.35214 34.1307 6.32262 34.3003 6.35718C34.4699 6.39174 34.6207 6.48792 34.7236 6.62715C34.8264 6.76639 34.8741 6.93879 34.8573 7.11108C34.8404 7.28336 34.7604 7.44331 34.6326 7.56003L30.4564 11.4492L39.1364 6.43583C39.2908 6.34667 39.4735 6.31985 39.6471 6.36084C39.8207 6.40184 39.9721 6.50756 40.0704 6.65641C40.1687 6.80526 40.2064 6.98601 40.1759 7.16176C40.1455 7.3375 40.049 7.49498 39.9064 7.60203L35.3172 11.0404L42.7568 6.74523C42.9129 6.65403 43.0982 6.62678 43.274 6.6692C43.4498 6.71161 43.6023 6.8204 43.6997 6.97276C43.797 7.12513 43.8317 7.30926 43.7963 7.48659C43.7609 7.66391 43.6583 7.82067 43.51 7.92403L38.5708 11.4044L43.825 8.37063C43.982 8.28257 44.167 8.25844 44.3414 8.30325C44.5159 8.34806 44.6663 8.45837 44.7615 8.61124C44.8567 8.76411 44.8893 8.94778 44.8525 9.12408C44.8158 9.30037 44.7125 9.45572 44.5642 9.55783L43.0984 10.5378L44.6594 9.63763C44.8164 9.54957 45.0014 9.52544 45.1758 9.57025C45.3502 9.61506 45.5007 9.72537 45.5959 9.87824C45.6911 10.0311 45.7237 10.2148 45.6869 10.3911C45.6502 10.5674 45.5469 10.7227 45.3986 10.8248L43.5982 12.0288L44.6608 11.4156C44.8159 11.3274 44.9989 11.3017 45.1723 11.3439C45.3458 11.3861 45.4965 11.493 45.5938 11.6426C45.6911 11.7923 45.7275 11.9734 45.6956 12.149C45.6637 12.3247 45.566 12.4815 45.4224 12.5874L36.6248 18.9896L44.6636 14.3486C44.8186 14.2591 45.002 14.2323 45.1762 14.2739C45.3503 14.3154 45.5019 14.4221 45.5998 14.572C45.6977 14.7219 45.7344 14.9036 45.7025 15.0797C45.6705 15.2559 45.5723 15.4131 45.428 15.519L39.8462 19.6196L44.665 16.8364C44.8191 16.7487 45.0007 16.7227 45.1732 16.7638C45.3457 16.8048 45.4962 16.9098 45.5943 17.0575C45.6924 17.2052 45.7308 17.3846 45.7018 17.5595C45.6727 17.7344 45.5784 17.8918 45.4378 17.9998L42.25 20.4302L44.6734 19.0302C44.8262 18.94 45.0076 18.9113 45.1808 18.9497C45.354 18.9882 45.5062 19.091 45.6065 19.2374C45.7068 19.3838 45.7478 19.5628 45.7212 19.7382C45.6945 19.9137 45.6022 20.0724 45.4629 20.1824L43.8698 21.4662L44.6692 21C44.8183 20.9121 44.9947 20.8826 45.1643 20.9172C45.3339 20.9517 45.4847 21.0479 45.5876 21.1872C45.6904 21.3264 45.7381 21.4988 45.7213 21.6711C45.7044 21.8434 45.6244 22.0033 45.4966 22.12L44.6566 22.9054L44.6706 22.897C44.8315 22.8042 45.0228 22.7791 45.2022 22.8273C45.3817 22.8755 45.5346 22.993 45.6275 23.1539C45.7203 23.3149 45.7454 23.5061 45.6972 23.6856C45.649 23.865 45.5315 24.018 45.3706 24.1108L40.0716 27.1698C39.9224 27.2577 39.746 27.2872 39.5764 27.2527C39.4068 27.2181 39.256 27.1219 39.1531 26.9827C39.0503 26.8435 39.0026 26.6711 39.0195 26.4988C39.0363 26.3265 39.1163 26.1665 39.2442 26.0498L40.0842 25.2644L36.7732 27.1768C36.6203 27.2691 36.438 27.2994 36.2635 27.2616C36.089 27.2239 35.9355 27.1208 35.8344 26.9737C35.7334 26.8265 35.6924 26.6462 35.7199 26.4698C35.7473 26.2934 35.8411 26.1341 35.9822 26.0246L37.5782 24.738L33.3418 27.1838C33.1876 27.2735 33.005 27.301 32.8313 27.2606C32.6576 27.2202 32.5058 27.115 32.407 26.9666C32.3082 26.8181 32.2698 26.6375 32.2996 26.4617C32.3295 26.2858 32.4253 26.128 32.5676 26.0204L35.7582 23.5956L29.5282 27.1936C29.4223 27.2566 29.3014 27.29 29.1782 27.2902Z" fill="#EB6374"/>
<path d="M30.1179 24.735C29.9638 24.735 29.8141 24.6842 29.6918 24.5904C29.5696 24.4966 29.4817 24.3651 29.4418 24.2162C29.4019 24.0674 29.4123 23.9095 29.4712 23.7672C29.5302 23.6248 29.6345 23.5059 29.7679 23.4288L33.1503 21.4772C33.3113 21.3844 33.5025 21.3593 33.682 21.4075C33.8614 21.4557 34.0144 21.5732 34.1072 21.7341C34.2001 21.8951 34.2251 22.0863 34.177 22.2658C34.1288 22.4452 34.0113 22.5982 33.8503 22.691L30.4679 24.6398C30.3617 24.7018 30.2409 24.7346 30.1179 24.735Z" fill="#E7BDA0"/>
<path d="M11.2654 42.6999C11.1154 42.6999 10.9693 42.6517 10.8487 42.5625C10.7281 42.4732 10.6394 42.3475 10.5957 42.204C10.5519 42.0605 10.5554 41.9068 10.6057 41.7654C10.6559 41.624 10.7503 41.5025 10.8748 41.4189L19.636 35.5067L9.04221 41.6177C8.8838 41.7105 8.69526 41.7374 8.51722 41.6925C8.33917 41.6476 8.18589 41.5346 8.0904 41.3778C7.99491 41.221 7.96486 41.0329 8.00673 40.8541C8.04859 40.6754 8.15902 40.5202 8.31421 40.4221L10.662 38.9199L9.04221 39.8551C8.88752 39.9451 8.70424 39.9724 8.53002 39.9315C8.3558 39.8905 8.20388 39.7844 8.10547 39.6349C8.00707 39.4854 7.96966 39.3039 8.00093 39.1277C8.0322 38.9515 8.12978 38.794 8.27361 38.6875L16.7114 32.4127L8.67121 37.0495C8.51508 37.1407 8.32971 37.1679 8.15394 37.1255C7.97817 37.0831 7.82563 36.9743 7.72828 36.8219C7.63092 36.6696 7.5963 36.4854 7.63167 36.3081C7.66704 36.1308 7.76965 35.974 7.91801 35.8707L13.658 31.8331L7.91801 35.1511C7.76079 35.2422 7.5743 35.2686 7.39797 35.2247C7.22163 35.1808 7.06927 35.0701 6.97309 34.9159C6.87691 34.7618 6.84446 34.5762 6.88259 34.3986C6.92072 34.2209 7.02644 34.065 7.17741 33.9639L8.96101 32.7697L7.14101 33.8169C6.98368 33.9064 6.79779 33.9314 6.62237 33.8868C6.44695 33.8422 6.29564 33.7314 6.20018 33.5776C6.10472 33.4238 6.07254 33.239 6.11039 33.062C6.14825 32.885 6.2532 32.7296 6.40321 32.6283L8.47241 31.2465L6.33321 32.4799C6.17708 32.5711 5.99171 32.5983 5.81594 32.5559C5.64017 32.5135 5.48763 32.4047 5.39028 32.2523C5.29292 32.1 5.2583 31.9158 5.29367 31.7385C5.32904 31.5612 5.43165 31.4044 5.58001 31.3011L13.84 25.4673L5.34621 30.3673C5.19008 30.4585 5.00471 30.4857 4.82894 30.4433C4.65317 30.4009 4.50063 30.2921 4.40328 30.1397C4.30592 29.9874 4.2713 29.8032 4.30667 29.6259C4.34204 29.4486 4.44465 29.2918 4.59301 29.1885L13.553 22.8885L4.87021 27.9103C4.71385 28.0031 4.52749 28.0315 4.35058 27.9893C4.17368 27.9472 4.02012 27.8378 3.92242 27.6845C3.82472 27.5311 3.79054 27.3457 3.82712 27.1676C3.8637 26.9894 3.96817 26.8325 4.11841 26.7301L13.4368 20.1907L4.84221 25.1523C4.68513 25.2403 4.50015 25.2645 4.32573 25.2196C4.15131 25.1748 4.00088 25.0645 3.90569 24.9117C3.81051 24.7588 3.7779 24.5751 3.81465 24.3988C3.8514 24.2225 3.95468 24.0672 4.10301 23.9651L8.96941 20.7045L4.84221 23.0845C4.68439 23.1726 4.49857 23.1964 4.32367 23.1506C4.14876 23.1049 3.99834 22.9932 3.90389 22.8391C3.80945 22.6849 3.7783 22.5002 3.81699 22.3236C3.85567 22.147 3.96117 21.9922 4.11141 21.8917L4.70921 21.5025C4.55063 21.5544 4.37872 21.5479 4.22448 21.4843C4.07024 21.4206 3.94381 21.304 3.86798 21.1553C3.79214 21.0067 3.77189 20.8359 3.81088 20.6736C3.84987 20.5114 3.94552 20.3684 4.08061 20.2705L14.89 12.4095L4.84221 18.2125C4.6948 18.2964 4.52194 18.3239 4.35575 18.29C4.18956 18.256 4.04136 18.1629 3.93868 18.0279C3.83601 17.8929 3.78585 17.7251 3.79754 17.5559C3.80922 17.3867 3.88195 17.2275 4.00221 17.1079L5.22581 15.9011L4.84361 16.1223C4.70811 16.2 4.55051 16.2302 4.39587 16.208C4.24124 16.1858 4.09847 16.1126 3.99029 15.9999C3.8821 15.8872 3.81472 15.7415 3.79887 15.5861C3.78302 15.4307 3.81961 15.2745 3.90281 15.1423L5.11801 13.2383C4.95397 13.2795 4.78055 13.2599 4.62982 13.1832C4.47909 13.1064 4.36125 12.9777 4.29808 12.8208C4.23491 12.6639 4.23068 12.4894 4.28619 12.3297C4.34169 12.1699 4.45317 12.0356 4.60001 11.9517L6.86241 10.6399C6.99791 10.5621 7.15552 10.5319 7.31015 10.5541C7.46478 10.5763 7.60755 10.6496 7.71573 10.7623C7.82392 10.875 7.8913 11.0206 7.90715 11.176C7.923 11.3314 7.88641 11.4877 7.80321 11.6199L6.62161 13.4777L9.25221 11.9587C9.39979 11.8736 9.57335 11.8452 9.74035 11.8789C9.90735 11.9126 10.0563 12.006 10.1594 12.1417C10.2624 12.2773 10.3124 12.4459 10.3001 12.6159C10.2877 12.7858 10.2138 12.9453 10.0922 13.0647L8.86861 14.2701L25.705 4.55127C25.8602 4.46302 26.0432 4.43736 26.2166 4.47956C26.39 4.52175 26.5408 4.6286 26.638 4.77825C26.7353 4.92791 26.7717 5.10907 26.7399 5.28469C26.708 5.46031 26.6103 5.61712 26.4666 5.72307L15.6586 13.5799L26.4582 7.34847C26.616 7.26029 26.8019 7.23658 26.9768 7.28232C27.1517 7.32807 27.3021 7.4397 27.3965 7.59385C27.491 7.74801 27.5221 7.93272 27.4834 8.10932C27.4448 8.28592 27.3393 8.44071 27.189 8.54127L26.5912 8.93047C26.7524 8.87673 26.9276 8.88347 27.0842 8.94941C27.2408 9.01535 27.3681 9.136 27.4423 9.28886C27.5165 9.44171 27.5326 9.61634 27.4875 9.78017C27.4425 9.94401 27.3393 10.0859 27.1974 10.1793L22.3254 13.4399L26.4582 11.0599C26.6146 10.967 26.8009 10.9387 26.9778 10.9808C27.1547 11.023 27.3083 11.1323 27.406 11.2857C27.5037 11.439 27.5379 11.6244 27.5013 11.8026C27.4647 11.9807 27.3603 12.1376 27.21 12.2401L17.8902 18.7753L26.4582 13.8291C26.6142 13.7405 26.7983 13.7153 26.9724 13.7586C27.1465 13.8018 27.2974 13.9103 27.3938 14.0615C27.4903 14.2128 27.525 14.3953 27.4908 14.5714C27.4566 14.7475 27.3561 14.9037 27.21 15.0079L18.25 21.3079L26.461 16.5675C26.6171 16.4763 26.8025 16.449 26.9783 16.4914C27.1541 16.5339 27.3066 16.6426 27.4039 16.795C27.5013 16.9474 27.5359 17.1315 27.5006 17.3088C27.4652 17.4862 27.3626 17.6429 27.2142 17.7463L18.9542 23.5801L26.4666 19.2401C26.6239 19.1506 26.8098 19.1255 26.9852 19.1701C27.1607 19.2147 27.312 19.3256 27.4074 19.4794C27.5029 19.6331 27.5351 19.8179 27.4972 19.9949C27.4594 20.1719 27.3544 20.3274 27.2044 20.4287L25.1268 21.8161L26.4666 21.0419C26.6241 20.9483 26.812 20.9202 26.99 20.9636C27.1679 21.007 27.3218 21.1185 27.4185 21.274C27.5153 21.4296 27.5472 21.6169 27.5074 21.7957C27.4676 21.9745 27.3594 22.1306 27.2058 22.2305L25.4306 23.4177L26.4666 22.8213C26.6227 22.7301 26.8081 22.7028 26.9839 22.7452C27.1596 22.7877 27.3122 22.8964 27.4095 23.0488C27.5069 23.2012 27.5415 23.3853 27.5062 23.5626C27.4708 23.74 27.3682 23.8967 27.2198 24.0001L21.4798 28.0349L26.461 25.1593C26.616 25.0654 26.8013 25.0353 26.978 25.0753C27.1547 25.1152 27.309 25.2221 27.4085 25.3735C27.5081 25.5248 27.545 25.7089 27.5117 25.887C27.4783 26.065 27.3772 26.2232 27.2296 26.3283L18.7904 32.6045L35.757 22.8045C35.9156 22.7077 36.106 22.678 36.2865 22.7217C36.467 22.7654 36.6228 22.879 36.7195 23.0376C36.8162 23.1961 36.846 23.3866 36.8023 23.5671C36.7586 23.7476 36.645 23.9033 36.4864 24.0001L34.1302 25.5163L36.2442 24.2955C36.4014 24.2043 36.5879 24.1779 36.7643 24.2218C36.9406 24.2657 37.093 24.3764 37.1891 24.5306C37.2853 24.6848 37.3178 24.8703 37.2796 25.048C37.2415 25.2257 37.1358 25.3815 36.9848 25.4827L28.2236 31.3949L33.2398 28.4983C33.3973 28.4047 33.5852 28.3766 33.7632 28.42C33.9411 28.4634 34.095 28.5749 34.1917 28.7304C34.2885 28.886 34.3204 29.0733 34.2806 29.2521C34.2408 29.4309 34.1326 29.587 33.979 29.6869L28.3664 33.4347C28.4661 33.4866 28.5516 33.562 28.6156 33.6545C28.7156 33.799 28.7576 33.9758 28.7332 34.1499C28.7088 34.3239 28.6199 34.4824 28.484 34.5939L25.257 37.2539C25.3955 37.2206 25.5408 37.2303 25.6736 37.2818C25.8064 37.3332 25.9203 37.424 26.0002 37.5419C26.0801 37.6598 26.1221 37.7992 26.1206 37.9417C26.1191 38.0841 26.0743 38.2226 25.992 38.3389L24.9826 39.7599L25.0876 39.6983C25.1672 39.6516 25.2553 39.6211 25.3468 39.6086C25.4383 39.5961 25.5313 39.6018 25.6206 39.6254C25.7098 39.649 25.7935 39.69 25.8668 39.7461C25.9402 39.8022 26.0017 39.8722 26.0478 39.9521C26.094 40.0321 26.1239 40.1204 26.1358 40.2119C26.1477 40.3035 26.1414 40.3965 26.1172 40.4856C26.093 40.5746 26.0514 40.6581 25.9949 40.731C25.9383 40.804 25.8679 40.865 25.7876 40.9107L22.919 42.5669C22.7809 42.6461 22.6199 42.6759 22.4626 42.6512C22.3053 42.6266 22.161 42.5491 22.0537 42.4315C21.9464 42.3139 21.8823 42.1632 21.8722 42.0043C21.862 41.8454 21.9063 41.6878 21.9978 41.5575L23.0086 40.1267L18.7638 42.5781C18.6115 42.6684 18.4306 42.6976 18.2575 42.6598C18.0845 42.6221 17.9322 42.5201 17.8314 42.3745C17.7305 42.229 17.6886 42.0506 17.7141 41.8753C17.7395 41.7 17.8305 41.5409 17.9686 41.4301L21.057 38.8891L14.6506 42.5879C14.4933 42.6774 14.3074 42.7024 14.132 42.6578C13.9566 42.6132 13.8052 42.5024 13.7098 42.3486C13.6143 42.1948 13.5821 42.01 13.62 41.833C13.6579 41.656 13.7628 41.5006 13.9128 41.3993L15.3408 40.4445L11.6154 42.6005C11.5095 42.6639 11.3888 42.6982 11.2654 42.6999Z" fill="#E7BDA0"/>
<path d="M21.6868 6.28302C21.5327 6.28301 21.3829 6.23216 21.2607 6.13836C21.1384 6.04455 21.0506 5.91303 21.0107 5.7642C20.9708 5.61536 20.9811 5.45752 21.0401 5.31516C21.0991 5.1728 21.2033 5.05387 21.3368 4.97682L23.6594 3.63982C23.8201 3.54846 24.0104 3.52436 24.1888 3.5728C24.3672 3.62123 24.5192 3.73825 24.6116 3.89833C24.704 4.05842 24.7294 4.24856 24.6821 4.42726C24.6349 4.60597 24.5189 4.75873 24.3594 4.85222L22.0368 6.19202C21.9303 6.25286 21.8095 6.28427 21.6868 6.28302Z" fill="#E7BDA0"/>
<path d="M15.6922 5.72869C15.5622 5.72869 15.4348 5.69249 15.3242 5.62415C15.2136 5.5558 15.1242 5.45802 15.0661 5.34174C15.008 5.22547 14.9833 5.0953 14.995 4.96583C15.0067 4.83636 15.0542 4.71269 15.1322 4.60869L16.0156 3.44529C15.8753 3.41862 15.7465 3.34968 15.6465 3.24772C15.5465 3.14576 15.4801 3.01565 15.4562 2.87487C15.4323 2.73408 15.452 2.58934 15.5127 2.46007C15.5734 2.33081 15.6722 2.2232 15.7958 2.15169L18.0624 0.839892C18.2023 0.759486 18.3657 0.729901 18.525 0.756144C18.6842 0.782388 18.8295 0.862848 18.9362 0.983905C19.0429 1.10496 19.1046 1.25918 19.1106 1.42045C19.1167 1.58172 19.0669 1.74014 18.9696 1.86889L18.3522 2.68229L20.0798 1.68409C20.2405 1.59273 20.4308 1.56864 20.6092 1.61707C20.7876 1.6655 20.9396 1.78253 21.032 1.94261C21.1244 2.10269 21.1498 2.29283 21.1025 2.47154C21.0553 2.65024 20.9393 2.80301 20.7798 2.89649L16.0422 5.63489C15.9358 5.69634 15.8151 5.72869 15.6922 5.72869Z" fill="#E7BDA0"/>
<path d="M10.0924 14.2952C9.94548 14.2952 9.80229 14.249 9.6831 14.1631C9.56392 14.0771 9.47478 13.9559 9.42832 13.8165C9.38186 13.6772 9.38044 13.5267 9.42424 13.3865C9.46805 13.2462 9.55487 13.1233 9.6724 13.0352L12.2036 11.1004L10.4424 12.1168C10.2954 12.1985 10.1238 12.2245 9.95912 12.1901C9.79445 12.1557 9.64768 12.0631 9.54569 11.9293C9.44369 11.7955 9.39329 11.6295 9.4037 11.4616C9.41412 11.2937 9.48465 11.1351 9.6024 11.015L11.2166 9.39378L10.4424 9.84178C10.2943 9.93094 10.1185 9.96215 9.94875 9.92941C9.77903 9.89667 9.62742 9.80229 9.52313 9.66444C9.41883 9.5266 9.36923 9.35504 9.38386 9.18281C9.3985 9.01058 9.47634 8.84985 9.6024 8.73158L10.1736 8.17998C10.034 8.19722 9.8925 8.17202 9.76746 8.10767C9.64242 8.04332 9.53966 7.94279 9.47257 7.81919C9.40549 7.6956 9.37718 7.55466 9.39135 7.41474C9.40552 7.27483 9.4615 7.14242 9.552 7.03478L10.252 6.19478C10.1344 6.14207 10.0336 6.05792 9.96078 5.95159C9.88795 5.84526 9.84588 5.72089 9.83922 5.59218C9.83256 5.46347 9.86157 5.33542 9.92304 5.22214C9.98451 5.10886 10.0761 5.01475 10.1876 4.95018L12.4626 3.63978C12.605 3.55868 12.7714 3.53014 12.9328 3.55913C13.0941 3.58813 13.2401 3.67281 13.3454 3.79843C13.4507 3.92405 13.5086 4.08264 13.5089 4.24655C13.5093 4.41046 13.4521 4.5693 13.3474 4.69538L13.1878 4.88718L14.2574 4.26838C14.4055 4.17923 14.5813 4.14801 14.751 4.18076C14.9208 4.2135 15.0724 4.30788 15.1767 4.44572C15.281 4.58357 15.3306 4.75512 15.3159 4.92736C15.3013 5.09959 15.2235 5.26031 15.0974 5.37858L14.69 5.77198L15.11 5.52558C15.2569 5.44489 15.4278 5.41955 15.5918 5.45419C15.7557 5.48882 15.9018 5.58113 16.0035 5.71433C16.1052 5.84753 16.1557 6.01279 16.1459 6.18008C16.1361 6.34737 16.0666 6.50559 15.95 6.62598L14.3386 8.25138L20.8584 4.48678C21.0123 4.3997 21.1935 4.37409 21.3655 4.4151C21.5375 4.45612 21.6876 4.56072 21.7857 4.70789C21.8837 4.85505 21.9224 5.03387 21.894 5.20842C21.8656 5.38296 21.7722 5.54029 21.6326 5.64878L19.0972 7.58918L25.1704 4.08078C25.3311 3.98942 25.5214 3.96533 25.6998 4.01376C25.8782 4.06219 26.0302 4.17922 26.1226 4.3393C26.215 4.49938 26.2404 4.68952 26.1931 4.86823C26.1459 5.04693 26.0299 5.1997 25.8704 5.29318L10.4424 14.2028C10.3359 14.2637 10.2152 14.2956 10.0924 14.2952Z" fill="#E7BDA0"/>
<path d="M9.93663 59.4917C9.78885 59.4913 9.64497 59.4442 9.52561 59.357C9.40625 59.2699 9.31752 59.1472 9.27214 59.0066C9.22677 58.866 9.22706 58.7146 9.27299 58.5741C9.31892 58.4336 9.40813 58.3113 9.52783 58.2247L15.1572 54.1647L7.64203 58.5047C7.48577 58.5943 7.30096 58.6203 7.12604 58.5772C6.95112 58.534 6.79956 58.4251 6.7029 58.2731C6.60624 58.1211 6.57191 57.9376 6.60706 57.7609C6.64221 57.5842 6.74414 57.4279 6.89163 57.3245L13.095 52.9929L7.64203 56.1401C7.48688 56.2283 7.30389 56.254 7.13046 56.2118C6.95703 56.1696 6.80627 56.0627 6.709 55.9131C6.61173 55.7634 6.57531 55.5823 6.60717 55.4066C6.63904 55.231 6.73678 55.0742 6.88043 54.9683L15.5254 48.6795L7.64203 53.2295C7.48542 53.3153 7.30191 53.3381 7.12907 53.293C6.95624 53.248 6.80715 53.1386 6.71233 52.9873C6.61751 52.8359 6.58413 52.654 6.61903 52.4789C6.65392 52.3037 6.75445 52.1485 6.90003 52.0451L8.30983 51.0917L7.64203 51.4767C7.48825 51.5649 7.3067 51.5915 7.13405 51.5511C6.9614 51.5107 6.81052 51.4063 6.71187 51.259C6.61323 51.1116 6.57418 50.9324 6.60261 50.7573C6.63103 50.5823 6.72482 50.4246 6.86503 50.3161L11.8798 46.4381L7.64203 48.8839C7.49029 48.9697 7.312 48.9958 7.14204 48.9571C6.97207 48.9184 6.82266 48.8176 6.72304 48.6746C6.62342 48.5315 6.58075 48.3565 6.60339 48.1836C6.62602 48.0108 6.71233 47.8526 6.84543 47.7401L9.67903 45.3895L7.64203 46.5655C7.49138 46.6518 7.31402 46.6791 7.14438 46.642C6.97474 46.6049 6.82494 46.5061 6.72408 46.3648C6.62322 46.2234 6.57849 46.0496 6.59859 45.8772C6.61868 45.7047 6.70217 45.5458 6.83283 45.4315L7.52443 44.8295C7.4039 44.8705 7.27453 44.8784 7.14989 44.8523C7.02526 44.8262 6.90994 44.7671 6.81603 44.6811C6.70628 44.5792 6.6321 44.4448 6.60438 44.2976C6.57666 44.1505 6.59687 43.9983 6.66203 43.8635L7.42643 42.2801C7.29417 42.289 7.16199 42.2614 7.04442 42.2001C6.92686 42.1389 6.82845 42.0464 6.76003 41.9329C6.66721 41.7721 6.64205 41.581 6.6901 41.4017C6.73815 41.2224 6.85546 41.0695 7.01623 40.9767L8.65003 40.0401C8.7796 39.9655 8.92963 39.9344 9.07815 39.9513C9.22668 39.9681 9.36591 40.0321 9.47545 40.1338C9.58499 40.2355 9.65909 40.3697 9.68691 40.5165C9.71472 40.6634 9.69479 40.8153 9.63003 40.9501L8.91183 42.4201L13.0488 40.0401C13.1995 39.9537 13.3768 39.9264 13.5465 39.9635C13.7161 40.0006 13.8659 40.0994 13.9668 40.2407C14.0676 40.3821 14.1124 40.5559 14.0923 40.7284C14.0722 40.9008 13.9887 41.0597 13.858 41.1741L13.2098 41.7341L16.1498 40.0345C16.3018 39.9452 16.4819 39.9165 16.6541 39.9542C16.8263 39.9919 16.978 40.0932 17.0788 40.2378C17.1795 40.3824 17.222 40.5598 17.1978 40.7344C17.1735 40.909 17.0842 41.068 16.9478 41.1797L14.11 43.5317L20.1664 40.0317C20.32 39.9457 20.5002 39.9207 20.6714 39.9616C20.8425 40.0026 20.9919 40.1065 21.0899 40.2527C21.1879 40.3988 21.2272 40.5765 21.2001 40.7504C21.1729 40.9243 21.0813 41.0815 20.9434 41.1909L15.93 45.0801L24.6576 40.0401C24.8146 39.9506 25.0001 39.9253 25.1753 39.9694C25.3505 40.0136 25.5018 40.1238 25.5976 40.2769C25.6935 40.4301 25.7264 40.6143 25.6895 40.7912C25.6526 40.9681 25.5487 41.1238 25.3996 41.2259L23.9898 42.1793L26.3278 40.8297C26.483 40.7414 26.666 40.7157 26.8394 40.7579C27.0128 40.8001 27.1636 40.907 27.2609 41.0566C27.3581 41.2063 27.3945 41.3875 27.3627 41.5631C27.3308 41.7387 27.2331 41.8955 27.0894 42.0015L18.45 48.2833L26.465 43.6633C26.621 43.5769 26.804 43.5533 26.9767 43.5972C27.1494 43.6412 27.2989 43.7494 27.3946 43.8997C27.4903 44.0501 27.5251 44.2313 27.4918 44.4064C27.4585 44.5815 27.3597 44.7373 27.2154 44.8421L21.0134 49.1751L26.4734 46.0237C26.6287 45.9366 26.8113 45.912 26.9841 45.9548C27.1568 45.9976 27.3068 46.1047 27.4035 46.2541C27.5001 46.4036 27.5362 46.5842 27.5044 46.7594C27.4726 46.9345 27.3753 47.0909 27.2322 47.1969L21.5902 51.2639L26.4748 48.4401C26.6285 48.3505 26.8104 48.3228 26.9838 48.3626C27.1571 48.4024 27.3088 48.5066 27.408 48.6542C27.5073 48.8017 27.5467 48.9815 27.5182 49.157C27.4897 49.3326 27.3955 49.4907 27.2546 49.5993L22.8334 53.0251L26.4818 50.9251C26.6308 50.842 26.805 50.8162 26.9717 50.8526C27.1384 50.8889 27.2861 50.9848 27.387 51.1224C27.4879 51.2599 27.5351 51.4296 27.5198 51.5995C27.5044 51.7694 27.4276 51.9278 27.3036 52.0451L24.1242 54.9501L26.4888 53.5865C26.638 53.4972 26.815 53.4666 26.9855 53.5007C27.1559 53.5347 27.3076 53.631 27.411 53.7707C27.5144 53.9104 27.5621 54.0836 27.5448 54.2566C27.5276 54.4296 27.4466 54.5899 27.3176 54.7065L26.731 55.2567C26.83 55.2402 26.9313 55.2454 27.028 55.272C27.1247 55.2986 27.2144 55.3459 27.291 55.4107C27.4012 55.5032 27.4803 55.6274 27.5173 55.7664C27.5544 55.9055 27.5477 56.0525 27.4982 56.1877L27.0236 57.4841C27.1576 57.5194 27.278 57.5938 27.3697 57.6977C27.4614 57.8016 27.5201 57.9303 27.5386 58.0677C27.557 58.205 27.5343 58.3447 27.4733 58.4691C27.4123 58.5935 27.3157 58.697 27.1958 58.7665L26.1612 59.3643C26.0367 59.4364 25.893 59.4684 25.7496 59.4559C25.6062 59.4434 25.4702 59.3871 25.36 59.2945C25.2498 59.2019 25.1709 59.0776 25.1339 58.9385C25.0969 58.7994 25.1036 58.6523 25.1532 58.5173L25.52 57.5177L22.3 59.3741C22.1509 59.4633 21.9739 59.4939 21.8034 59.4598C21.633 59.4258 21.4813 59.3295 21.3779 59.1898C21.2745 59.0501 21.2268 58.8769 21.244 58.7039C21.2613 58.531 21.3423 58.3706 21.4712 58.2541L21.9108 57.8453L19.2508 59.3853C19.1014 59.4713 18.9255 59.4992 18.7568 59.4635C18.5881 59.4279 18.4385 59.3312 18.3366 59.1921C18.2349 59.0529 18.188 58.8811 18.2051 58.7096C18.2221 58.538 18.3019 58.3788 18.429 58.2625L21.6098 55.3575L14.6098 59.3979C14.5329 59.4491 14.4466 59.4846 14.3559 59.5025C14.2653 59.5203 14.1719 59.5201 14.0813 59.5019C13.9907 59.4837 13.9046 59.4479 13.8278 59.3964C13.7511 59.3449 13.6852 59.2788 13.634 59.2019C13.5828 59.1249 13.5473 59.0386 13.5294 58.948C13.5116 58.8573 13.5117 58.764 13.5299 58.6734C13.5481 58.5827 13.584 58.4966 13.6355 58.4199C13.687 58.3431 13.7531 58.2773 13.83 58.2261L18.254 54.7989L10.2866 59.3979C10.1805 59.4599 10.0596 59.4923 9.93663 59.4917Z" fill="#49508E"/>
<path d="M25.9888 56.959C25.8522 56.9591 25.7186 56.9192 25.6045 56.8443C25.4903 56.7694 25.4005 56.6627 25.3462 56.5374C25.2919 56.4121 25.2754 56.2737 25.2988 56.1391C25.3222 56.0046 25.3844 55.8798 25.4778 55.7802L26.5376 54.6462L25.1866 55.426C25.0374 55.5167 24.8598 55.5484 24.6884 55.5149C24.5171 55.4813 24.3645 55.385 24.2605 55.2447C24.1566 55.1045 24.1088 54.9305 24.1265 54.7568C24.1443 54.5831 24.2262 54.4223 24.3564 54.306L24.4964 54.173L24.2864 54.2948C24.1439 54.3776 23.9768 54.4075 23.8145 54.3792C23.6521 54.3509 23.505 54.2662 23.3989 54.1401C23.2928 54.0139 23.2347 53.8544 23.2347 53.6896C23.2347 53.5249 23.2928 53.3653 23.3988 53.2392L24.7988 51.5718L23.0166 52.5994C22.8829 52.6767 22.7274 52.7076 22.5743 52.6873C22.4213 52.667 22.2792 52.5967 22.1702 52.4872C22.0613 52.3778 21.9916 52.2354 21.972 52.0823C21.9524 51.9291 21.9839 51.7737 22.0618 51.6404L23.2714 49.5768L23.1412 49.6524C22.9805 49.7437 22.7902 49.7678 22.6118 49.7194C22.4334 49.671 22.2814 49.554 22.189 49.3939C22.0966 49.2338 22.0712 49.0437 22.1185 48.8649C22.1657 48.6862 22.2817 48.5335 22.4412 48.44L24.8646 47.04C24.9984 46.9623 25.1542 46.9311 25.3076 46.9513C25.4611 46.9715 25.6035 47.042 25.7126 47.1518C25.8217 47.2615 25.8913 47.4043 25.9107 47.5579C25.93 47.7114 25.8979 47.867 25.8194 48.0004L24.6098 50.0696L27.5246 48.3896C27.6669 48.3084 27.8332 48.2797 27.9945 48.3085C28.1557 48.3373 28.3018 48.4218 28.4072 48.5472C28.5126 48.6726 28.5707 48.831 28.5714 48.9948C28.5721 49.1587 28.5152 49.3175 28.4108 49.4438L27.0108 51.1154L28.954 49.9954C29.1032 49.9031 29.2815 49.8702 29.4538 49.9032C29.6261 49.9362 29.7797 50.0326 29.8843 50.1734C29.9888 50.3142 30.0367 50.4892 30.0184 50.6636C30.0002 50.8381 29.9171 50.9993 29.7856 51.1154L29.6456 51.247L29.9256 51.0874C30.071 51.0022 30.2423 50.9723 30.408 51.0033C30.5736 51.0342 30.7226 51.1239 30.8275 51.2558C30.9323 51.3877 30.9861 51.5531 30.9788 51.7215C30.9716 51.8898 30.9038 52.0499 30.788 52.1724L29.7282 53.3036L31.1632 52.4762C31.2429 52.4255 31.332 52.3915 31.4251 52.3762C31.5183 52.3609 31.6136 52.3646 31.7053 52.387C31.797 52.4095 31.8832 52.4503 31.9587 52.5069C32.0342 52.5635 32.0975 52.6349 32.1448 52.7166C32.192 52.7984 32.2222 52.8888 32.2336 52.9825C32.245 53.0762 32.2373 53.1713 32.211 53.262C32.1847 53.3526 32.1403 53.437 32.0806 53.5101C32.0208 53.5832 31.9469 53.6434 31.8632 53.6872L26.3472 56.8722C26.2379 56.9333 26.114 56.9633 25.9888 56.959Z" fill="#A6725C"/>
<path d="M16.3736 80.4579C16.2238 80.4581 16.0778 80.4102 15.9572 80.3212C15.8366 80.2322 15.7477 80.1069 15.7037 79.9636C15.6596 79.8203 15.6627 79.6667 15.7125 79.5254C15.7623 79.384 15.8561 79.2623 15.9802 79.1783L25.8838 72.4583L13.0654 79.8573C12.9077 79.947 12.7214 79.9719 12.5456 79.9268C12.3699 79.8818 12.2185 79.7703 12.1234 79.6158C12.0283 79.4613 11.9969 79.2759 12.0357 79.0987C12.0746 78.9215 12.1808 78.7664 12.3318 78.6659L21.1336 72.8979L11.9174 78.2179C11.7589 78.3085 11.5713 78.3336 11.3946 78.2878C11.2179 78.242 11.066 78.129 10.9714 77.9729C10.8768 77.8167 10.847 77.6298 10.8882 77.452C10.9295 77.2741 11.0386 77.1195 11.1922 77.0209L12.0126 76.5029C11.8532 76.5665 11.6759 76.5693 11.5146 76.5107C11.3532 76.4521 11.219 76.3363 11.1375 76.1853C11.0559 76.0343 11.0327 75.8585 11.0722 75.6915C11.1117 75.5245 11.2112 75.3778 11.3518 75.2793L22.4202 67.5793L9.97704 74.7599C9.81947 74.8467 9.63455 74.8695 9.46064 74.8235C9.28672 74.7776 9.13716 74.6665 9.04297 74.5133C8.94879 74.36 8.91722 74.1764 8.9548 74.0005C8.99239 73.8246 9.09625 73.6699 9.24484 73.5685L13.5694 70.7447L6.84944 74.6241C6.69089 74.7208 6.50041 74.7506 6.31991 74.7069C6.13941 74.6632 5.98366 74.5496 5.88694 74.391C5.79021 74.2325 5.76043 74.042 5.80415 73.8615C5.84786 73.681 5.96149 73.5252 6.12004 73.4285L8.89484 71.6519L5.41304 73.6609C5.25631 73.7457 5.07316 73.7674 4.90092 73.7218C4.72868 73.6762 4.58031 73.5667 4.48606 73.4155C4.3918 73.2643 4.35875 73.0828 4.39364 72.9081C4.42853 72.7334 4.52874 72.5785 4.67384 72.4751L15.157 65.4373L4.93704 71.3411C4.78242 71.429 4.60014 71.4548 4.42723 71.4131C4.25432 71.3715 4.10373 71.2656 4.00607 71.117C3.9084 70.9683 3.87097 70.7881 3.90139 70.6129C3.93181 70.4376 4.02779 70.2805 4.16984 70.1735L12.2898 64.1535L3.92484 68.9793C3.76982 69.0689 3.58638 69.0956 3.41224 69.0541C3.2381 69.0125 3.08649 68.9058 2.9886 68.7559C2.8907 68.6061 2.85396 68.4244 2.88592 68.2482C2.91788 68.0721 3.01612 67.9148 3.16044 67.8089L7.70204 64.4811L2.32044 67.5877C2.18489 67.6681 2.02615 67.7005 1.86993 67.6795C1.71371 67.6585 1.56915 67.5854 1.45965 67.472C1.35016 67.3586 1.28213 67.2116 1.26659 67.0547C1.25106 66.8979 1.28891 66.7404 1.37404 66.6077L2.35404 65.0243C2.19042 65.0911 2.00759 65.0936 1.84223 65.0312C1.67688 64.9688 1.54124 64.8462 1.46256 64.6879C1.38388 64.5297 1.36797 64.3475 1.41803 64.178C1.46808 64.0085 1.5804 63.8642 1.73244 63.7741L4.05224 62.4399C4.18701 62.3621 4.34386 62.3314 4.498 62.3527C4.65215 62.374 4.79481 62.4461 4.90344 62.5575C5.0123 62.6691 5.08079 62.8139 5.09804 62.9688C5.11528 63.1238 5.0803 63.2801 4.99864 63.4129L4.02984 64.9879L18.1446 56.8399C18.2997 56.7503 18.4831 56.7236 18.6572 56.7651C18.8314 56.8067 18.983 56.9134 19.0809 57.0633C19.1788 57.2131 19.2155 57.3948 19.1836 57.571C19.1516 57.7471 19.0534 57.9044 18.909 58.0103L14.366 61.3381L22.1584 56.8399C22.3131 56.752 22.4953 56.7263 22.6682 56.7679C22.8412 56.8095 22.9917 56.9154 23.0894 57.064C23.1871 57.2127 23.2245 57.3929 23.1941 57.5682C23.1637 57.7434 23.0677 57.9005 22.9256 58.0075L14.8168 64.0205L32.4022 53.8677C32.559 53.783 32.7421 53.7612 32.9144 53.8068C33.0866 53.8524 33.235 53.9619 33.3292 54.1131C33.4235 54.2643 33.4565 54.4458 33.4216 54.6205C33.3867 54.7953 33.2865 54.9501 33.1414 55.0535L22.6498 62.0955L33.9324 55.5799C34.0909 55.4871 34.2794 55.4602 34.4574 55.5051C34.6355 55.5499 34.7888 55.663 34.8842 55.8198C34.9797 55.9766 35.0098 56.1647 34.9679 56.3434C34.9261 56.5222 34.8156 56.6774 34.6604 56.7755L31.8898 58.5493L34.9824 56.7657C35.1401 56.676 35.3265 56.6511 35.5022 56.6962C35.678 56.7412 35.8293 56.8527 35.9245 57.0072C36.0196 57.1617 36.051 57.3471 36.0121 57.5243C35.9732 57.7015 35.8671 57.8566 35.716 57.9571L31.3872 60.7823L36.1262 58.0481C36.2824 57.9608 36.466 57.9367 36.6394 57.9806C36.8128 58.0245 36.9629 58.1331 37.0587 58.2841C37.1546 58.4351 37.189 58.6171 37.1548 58.7927C37.1207 58.9683 37.0207 59.1242 36.8752 59.2283L25.8068 66.9283L40.9268 58.2021C41.0055 58.1546 41.0928 58.123 41.1837 58.1092C41.2746 58.0954 41.3673 58.0997 41.4565 58.1217C41.5458 58.1437 41.6298 58.1831 41.7038 58.2376C41.7779 58.2922 41.8404 58.3607 41.8879 58.4394C41.9355 58.5181 41.967 58.6054 41.9808 58.6963C41.9946 58.7871 41.9904 58.8798 41.9683 58.9691C41.9463 59.0583 41.9069 59.1424 41.8524 59.2164C41.7979 59.2904 41.7293 59.353 41.6506 59.4005L40.9772 59.8205L41.8606 59.3123C42.0183 59.2226 42.2047 59.1977 42.3804 59.2428C42.5562 59.2878 42.7075 59.3993 42.8027 59.5538C42.8978 59.7083 42.9292 59.8937 42.8903 60.0709C42.8514 60.2481 42.7453 60.4032 42.5942 60.5037L33.7938 66.2717L41.8676 61.6111C42.0244 61.523 42.209 61.4985 42.3833 61.5428C42.5575 61.5871 42.7081 61.6968 42.8036 61.8491C42.8992 62.0014 42.9326 62.1846 42.8967 62.3608C42.8608 62.537 42.7585 62.6927 42.611 62.7955L32.7088 69.5155L41.8718 64.2249C42.0277 64.135 42.2123 64.1086 42.3871 64.1512C42.562 64.1938 42.7137 64.3021 42.8109 64.4536C42.908 64.6051 42.943 64.7882 42.9086 64.9649C42.8743 65.1415 42.7732 65.2982 42.6264 65.4023L34.0108 71.4853L41.8788 66.9437C42.0327 66.8566 42.2139 66.831 42.3859 66.872C42.5579 66.913 42.7081 67.0176 42.8061 67.1648C42.9042 67.312 42.9429 67.4908 42.9145 67.6653C42.8861 67.8399 42.7927 67.9972 42.653 68.1057L35.3394 73.6833L41.8872 69.9033C42.0305 69.8208 42.1984 69.7917 42.3611 69.8211C42.5238 69.8505 42.6708 69.9366 42.7761 70.064C42.8815 70.1915 42.9383 70.3521 42.9365 70.5174C42.9347 70.6828 42.8745 70.8421 42.7664 70.9673L40.9996 73.0029L41.8928 72.4877C42.0243 72.4121 42.1767 72.3811 42.3272 72.3996C42.4777 72.418 42.6182 72.4849 42.7274 72.59C42.8367 72.6952 42.9089 72.833 42.9331 72.9827C42.9573 73.1324 42.9322 73.2859 42.8616 73.4201L42.4808 74.1397C42.6073 74.1841 42.7183 74.2638 42.8007 74.3694C42.8832 74.475 42.9336 74.6021 42.946 74.7355C42.9584 74.8689 42.9322 75.0031 42.8706 75.122C42.809 75.241 42.7145 75.3398 42.5984 75.4067L41.2908 76.1599C41.1593 76.2359 41.0066 76.2671 40.8557 76.2487C40.7049 76.2303 40.5642 76.1633 40.4548 76.0578C40.3454 75.9524 40.2733 75.8142 40.2493 75.6642C40.2254 75.5141 40.2509 75.3604 40.322 75.2261L40.4872 74.9167L38.0876 76.2999C37.9442 76.3833 37.7758 76.413 37.6125 76.3837C37.4492 76.3545 37.3016 76.2682 37.196 76.1402C37.0904 76.0123 37.0337 75.851 37.036 75.6851C37.0383 75.5192 37.0994 75.3595 37.2084 75.2345L38.9752 73.2003L26.5698 80.3599C26.4159 80.447 26.2348 80.4726 26.0628 80.4316C25.8907 80.3906 25.7406 80.286 25.6426 80.1388C25.5445 79.9916 25.5058 79.8128 25.5342 79.6383C25.5626 79.4637 25.656 79.3064 25.7956 79.1979L33.1092 73.6217L21.4388 80.3599C21.2833 80.4447 21.1015 80.4674 20.9299 80.4234C20.7583 80.3794 20.6098 80.272 20.5143 80.1229C20.4187 79.9737 20.3833 79.7939 20.4151 79.6196C20.4469 79.4454 20.5436 79.2897 20.6856 79.1839L29.2956 73.1023L16.7236 80.3599C16.6176 80.4228 16.4969 80.4566 16.3736 80.4579Z" fill="#A6725C"/>
<path d="M5.92982 63.3178C5.79136 63.318 5.65594 63.2772 5.54068 63.2005C5.42542 63.1237 5.33551 63.0146 5.28231 62.8867C5.2291 62.7589 5.21501 62.6182 5.2418 62.4823C5.26859 62.3465 5.33507 62.2216 5.43282 62.1236L6.87202 60.676L5.01002 61.7484C4.87204 61.827 4.71141 61.8564 4.55452 61.8317C4.39763 61.807 4.2538 61.7297 4.14666 61.6125C4.03951 61.4952 3.97542 61.345 3.96491 61.1865C3.9544 61.0281 3.9981 60.8707 4.08882 60.7404L4.93722 59.5378C4.77782 59.5551 4.61728 59.5173 4.48246 59.4304C4.34764 59.3436 4.24671 59.2132 4.19655 59.0609C4.14638 58.9086 4.15003 58.7437 4.20687 58.5937C4.26371 58.4438 4.3703 58.3179 4.50882 58.2372L6.91542 56.84C7.05355 56.7607 7.21455 56.731 7.37187 56.7556C7.52918 56.7802 7.67341 56.8577 7.78075 56.9753C7.88808 57.0929 7.95211 57.2436 7.96227 57.4025C7.97243 57.5614 7.92811 57.719 7.83662 57.8494L7.06802 58.94L10.7234 56.84C10.8703 56.7553 11.0428 56.7268 11.2091 56.7597C11.3754 56.7927 11.524 56.8848 11.6275 57.0191C11.731 57.1533 11.7822 57.3206 11.7717 57.4898C11.7612 57.6589 11.6897 57.8185 11.5704 57.939L10.134 59.381L14.5412 56.84C14.6209 56.7893 14.71 56.7553 14.8031 56.74C14.8963 56.7247 14.9916 56.7284 15.0833 56.7508C15.175 56.7733 15.2612 56.814 15.3367 56.8707C15.4123 56.9273 15.4755 56.9987 15.5228 57.0804C15.57 57.1621 15.6003 57.2526 15.6116 57.3463C15.623 57.44 15.6153 57.5351 15.589 57.6257C15.5627 57.7164 15.5184 57.8008 15.4586 57.8739C15.3988 57.947 15.3249 58.0072 15.2412 58.051L6.28122 63.231C6.17397 63.2908 6.05262 63.3208 5.92982 63.3178Z" fill="#A6725C"/>
<path d="M45.7331 77.658C45.5882 77.6577 45.447 77.6125 45.3289 77.5286C45.2108 77.4447 45.1217 77.3262 45.0738 77.1895C45.0258 77.0528 45.0215 76.9046 45.0614 76.7653C45.1012 76.6261 45.1833 76.5026 45.2963 76.412L51.4269 71.4952L41.6353 77.1469C41.4793 77.2355 41.2952 77.2607 41.1211 77.2175C40.947 77.1742 40.7961 77.0658 40.6997 76.9145C40.6032 76.7633 40.5685 76.5807 40.6027 76.4046C40.6369 76.2285 40.7374 76.0723 40.8835 75.9682L45.3831 72.8209L41.2419 75.2122C41.0874 75.3013 40.9047 75.3281 40.7311 75.2871C40.5575 75.2461 40.4061 75.1404 40.3078 74.9916C40.2096 74.8427 40.1718 74.662 40.2023 74.4862C40.2328 74.3105 40.3292 74.153 40.4719 74.0459L49.1099 67.5905L41.2419 72.1321C41.0871 72.2208 40.9042 72.247 40.7307 72.2054C40.5572 72.1638 40.4062 72.0576 40.3084 71.9083C40.2106 71.7591 40.1736 71.5781 40.2047 71.4025C40.2359 71.2268 40.333 71.0697 40.4761 70.9632L48.6367 64.9306L41.2419 69.1992C41.0875 69.2863 40.9057 69.3117 40.7333 69.27C40.561 69.2284 40.4108 69.1229 40.3132 68.9748C40.2156 68.8268 40.1779 68.6472 40.2076 68.4723C40.2373 68.2975 40.3323 68.1405 40.4733 68.033L45.8899 63.9911L41.2419 66.6763C41.0899 66.7615 40.9116 66.7868 40.7418 66.7474C40.5721 66.7081 40.4232 66.6068 40.3241 66.4635C40.225 66.3202 40.183 66.1451 40.2062 65.9724C40.2294 65.7997 40.3161 65.6419 40.4495 65.5297L44.3415 62.3462L41.2419 64.1367C41.0953 64.2213 40.9231 64.2499 40.7571 64.2172C40.5911 64.1846 40.4426 64.093 40.3389 63.9593C40.2353 63.8256 40.1836 63.6588 40.1933 63.4899C40.2031 63.321 40.2737 63.1614 40.3921 63.0405L42.7973 60.578L41.2419 61.4739C41.1117 61.5502 40.9604 61.5824 40.8104 61.5657C40.6604 61.549 40.5199 61.4842 40.4097 61.3811C40.2995 61.278 40.2256 61.1421 40.199 60.9936C40.1723 60.8451 40.1944 60.6919 40.2619 60.557L40.9941 59.0813C40.8667 59.0819 40.7414 59.05 40.6297 58.9888C40.518 58.9276 40.4237 58.839 40.3557 58.7313C40.2633 58.5707 40.2384 58.38 40.2864 58.201C40.3345 58.022 40.4515 57.8694 40.6119 57.7766L42.2499 56.8399C42.3801 56.7637 42.5314 56.7315 42.6814 56.7482C42.8313 56.7649 42.9719 56.8297 43.0821 56.9328C43.1922 57.0359 43.2662 57.1718 43.2928 57.3203C43.3194 57.4688 43.2974 57.622 43.2299 57.757L42.5607 59.1066L46.5059 56.8287C46.6523 56.7443 46.8243 56.7156 46.9902 56.7481C47.1561 56.7806 47.3046 56.872 47.4083 57.0054C47.5121 57.1389 47.564 57.3053 47.5546 57.4741C47.5452 57.6428 47.475 57.8025 47.3571 57.9235L44.9519 60.3875L51.1357 56.8175C51.2877 56.7324 51.466 56.7071 51.6358 56.7465C51.8055 56.7858 51.9544 56.8871 52.0535 57.0304C52.1525 57.1737 52.1946 57.3488 52.1714 57.5215C52.1482 57.6942 52.0614 57.852 51.9281 57.9641L48.0361 61.1477L55.5541 56.8077C55.7085 56.7206 55.8903 56.6952 56.0626 56.7369C56.235 56.7785 56.3852 56.884 56.4828 57.0321C56.5803 57.1801 56.6181 57.3597 56.5884 57.5346C56.5587 57.7094 56.4637 57.8664 56.3227 57.9739L50.8907 62.0199L58.6467 57.5399C58.8015 57.4513 58.9843 57.425 59.1578 57.4666C59.3313 57.5082 59.4824 57.6145 59.5802 57.7638C59.6779 57.913 59.715 58.094 59.6839 58.2696C59.6527 58.4453 59.5556 58.6024 59.4125 58.709L51.2547 64.736L58.6551 60.4631C58.8096 60.374 58.9923 60.3472 59.1659 60.3882C59.3395 60.4292 59.4909 60.5349 59.5891 60.6837C59.6874 60.8326 59.7252 61.0133 59.6947 61.1891C59.6642 61.3648 59.5678 61.5223 59.4251 61.6293L50.7899 68.082L58.6621 63.5375C58.8183 63.4479 59.0032 63.4219 59.1781 63.465C59.353 63.5082 59.5046 63.6171 59.6012 63.7691C59.6979 63.9211 59.7322 64.1046 59.6971 64.2813C59.6619 64.458 59.56 64.6143 59.4125 64.7178L54.9017 67.8706L58.6691 65.6977C58.8216 65.6129 59.0003 65.5881 59.1701 65.6282C59.3399 65.6683 59.4887 65.7704 59.5872 65.9144C59.6856 66.0585 59.7268 66.2341 59.7025 66.4069C59.6782 66.5797 59.5903 66.7372 59.4559 66.8486L53.3239 71.7682L58.6775 68.6784C58.8278 68.5938 59.004 68.5677 59.1723 68.605C59.3407 68.6424 59.4893 68.7405 59.5897 68.8807C59.6902 69.0209 59.7353 69.1932 59.7166 69.3646C59.6978 69.536 59.6165 69.6944 59.4881 69.8095L56.1099 72.7706L58.6915 71.281C58.8282 71.2022 58.9876 71.1719 59.1437 71.1951C59.2998 71.2183 59.4435 71.2935 59.5514 71.4086C59.6594 71.5237 59.7253 71.6719 59.7385 71.8292C59.7516 71.9864 59.7112 72.1435 59.6239 72.275L57.9061 74.8594L58.7013 74.4002C58.781 74.3495 58.8701 74.3155 58.9632 74.3002C59.0564 74.2848 59.1517 74.2885 59.2434 74.311C59.3351 74.3335 59.4213 74.3742 59.4968 74.4309C59.5723 74.4875 59.6356 74.5588 59.6829 74.6406C59.7301 74.7223 59.7603 74.8128 59.7717 74.9065C59.7831 75.0002 59.7754 75.0953 59.7491 75.1859C59.7228 75.2766 59.6784 75.361 59.6187 75.4341C59.5589 75.5072 59.4849 75.5674 59.4013 75.6112L56.0105 77.56C55.8737 77.6387 55.7144 77.669 55.5583 77.6458C55.4022 77.6226 55.2585 77.5474 55.1506 77.4323C55.0426 77.3172 54.9767 77.169 54.9635 77.0117C54.9504 76.8545 54.9907 76.6974 55.0781 76.5659L56.7973 73.9844L50.6009 77.56C50.4506 77.6445 50.2744 77.6706 50.1061 77.6333C49.9377 77.5959 49.7891 77.4978 49.6887 77.3576C49.5882 77.2175 49.543 77.0452 49.5618 76.8737C49.5806 76.7023 49.6619 76.5439 49.7903 76.4287L53.1783 73.4664L46.0831 77.56C45.9773 77.6233 45.8564 77.6571 45.7331 77.658Z" fill="#FFD576"/>
<path d="M71.6876 80.4524C71.5545 80.452 71.4244 80.4137 71.3123 80.3421C71.2002 80.2704 71.1109 80.1683 71.0548 80.0477C70.9987 79.9271 70.9781 79.793 70.9954 79.6611C71.0128 79.5292 71.0674 79.405 71.1528 79.303L71.3096 79.114L70.2498 79.7286C70.1053 79.8108 69.9362 79.8389 69.7728 79.8079C69.6095 79.7768 69.4625 79.6887 69.3582 79.5591C69.254 79.4296 69.1992 79.2672 69.2038 79.101C69.2083 78.9347 69.2719 78.7756 69.3832 78.652L70.8602 77.0294L69.2782 77.9436C69.1985 77.9942 69.1094 78.0282 69.0162 78.0435C68.9231 78.0589 68.8278 78.0552 68.7361 78.0327C68.6444 78.0103 68.5582 77.9695 68.4827 77.9128C68.4071 77.8562 68.3438 77.7849 68.2966 77.7031C68.2494 77.6214 68.2191 77.5309 68.2077 77.4372C68.1964 77.3435 68.204 77.2485 68.2304 77.1578C68.2567 77.0671 68.301 76.9827 68.3608 76.9096C68.4206 76.8366 68.4945 76.7763 68.5782 76.7326L74.0634 73.5658C74.2079 73.4835 74.377 73.4554 74.5403 73.4864C74.7037 73.5175 74.8507 73.6057 74.9549 73.7352C75.0592 73.8647 75.1139 74.0272 75.1094 74.1934C75.1048 74.3596 75.0412 74.5188 74.93 74.6424L73.453 76.2636L74.0634 75.9122C74.2058 75.8302 74.3726 75.801 74.5344 75.8297C74.6962 75.8583 74.8428 75.943 74.9485 76.0689C75.0542 76.1947 75.1122 76.3538 75.1124 76.5181C75.1126 76.6825 75.0549 76.8416 74.9496 76.9678L74.2496 77.8078C74.3828 77.8687 74.4938 77.9695 74.5674 78.0962C74.6603 78.2568 74.6857 78.4477 74.6379 78.627C74.5901 78.8063 74.4731 78.9593 74.3126 79.0524L72.0488 80.3586C71.9393 80.4226 71.8143 80.4551 71.6876 80.4524Z" fill="#E7BDA0"/>
<path d="M66.088 83.2523C65.962 83.2524 65.8383 83.2185 65.73 83.1542C65.6217 83.0899 65.5327 82.9975 65.4725 82.8868C65.4123 82.7762 65.383 82.6513 65.3879 82.5254C65.3927 82.3995 65.4315 82.2772 65.5 82.1715L66.6382 80.4173L64.0902 81.8901C63.937 81.9767 63.7568 82.0024 63.5855 81.962C63.4142 81.9217 63.2643 81.8183 63.1658 81.6725C63.0673 81.5267 63.0273 81.3491 63.0539 81.1751C63.0804 81.0011 63.1715 80.8435 63.309 80.7337L66.1286 78.5287L63.6422 79.9595C63.4882 80.0455 63.3074 80.0701 63.136 80.0285C62.9645 79.9869 62.8151 79.8821 62.7177 79.7351C62.6202 79.5881 62.5818 79.4097 62.6102 79.2356C62.6386 79.0615 62.7317 78.9045 62.8708 78.7961L65.0478 77.1399L63.6478 77.9519C63.4871 78.0433 63.2968 78.0674 63.1184 78.0189C62.94 77.9705 62.788 77.8535 62.6956 77.6934C62.6032 77.5333 62.5778 77.3432 62.6251 77.1645C62.6723 76.9858 62.7883 76.833 62.9478 76.7395L74.0638 70.3219C74.2178 70.2359 74.3986 70.2113 74.5701 70.2529C74.7415 70.2945 74.8909 70.3993 74.9883 70.5463C75.0858 70.6933 75.1242 70.8717 75.0958 71.0458C75.0674 71.2199 74.9743 71.3769 74.8352 71.4853L72.6582 73.1359L74.0582 72.3253C74.2114 72.2403 74.3908 72.2158 74.5612 72.2566C74.7315 72.2975 74.8804 72.4007 74.9783 72.546C75.0762 72.6912 75.1162 72.8679 75.0902 73.0411C75.0642 73.2144 74.9742 73.3716 74.838 73.4817L69.2786 77.8399L69.315 77.8749C69.4234 77.9887 69.4903 78.1356 69.505 78.292C69.5197 78.4485 69.4814 78.6053 69.3962 78.7373L68.2146 80.5573C68.3772 80.5251 68.5459 80.5516 68.6907 80.6321C68.8356 80.7126 68.9472 80.8419 69.0056 80.997C69.0641 81.1521 69.0656 81.3229 69.01 81.479C68.9544 81.6351 68.8452 81.7664 68.7018 81.8495L66.438 83.1557C66.3321 83.2188 66.2112 83.2521 66.088 83.2523Z" fill="#E7BDA0"/>
<path d="M76.8578 73.4215C76.7257 73.4215 76.5963 73.3841 76.4846 73.3137C76.3729 73.2432 76.2834 73.1426 76.2264 73.0234C76.1694 72.9042 76.1474 72.7713 76.1627 72.6401C76.1781 72.5089 76.2303 72.3847 76.3132 72.2819L77.0888 71.3229L75.42 72.2861C75.271 72.3692 75.0968 72.395 74.9301 72.3586C74.7635 72.3223 74.6158 72.2263 74.5149 72.0888C74.4139 71.9513 74.3667 71.7816 74.3821 71.6117C74.3974 71.4418 74.4743 71.2834 74.5982 71.1661L74.7984 70.9841C74.6348 71.0528 74.4511 71.0567 74.2846 70.9951C74.1182 70.9335 73.9813 70.8109 73.9018 70.6522C73.8223 70.4936 73.806 70.3106 73.8563 70.1404C73.9066 69.9701 74.0197 69.8254 74.1726 69.7353L79.6578 66.5685C79.8068 66.4855 79.9811 66.4597 80.1477 66.496C80.3144 66.5324 80.4621 66.6283 80.563 66.7659C80.6639 66.9034 80.7111 67.0731 80.6958 67.243C80.6804 67.4129 80.6036 67.5713 80.4796 67.6885L79.9966 68.1295C80.0994 68.1292 80.2011 68.1509 80.2948 68.1932C80.3885 68.2354 80.472 68.2973 80.5398 68.3745C80.6462 68.499 80.7055 68.6568 80.7076 68.8205C80.7096 68.9842 80.6542 69.1435 80.551 69.2705L79.676 70.3513C79.8115 70.3374 79.948 70.3626 80.0696 70.4239C80.1912 70.4852 80.2927 70.58 80.362 70.6971C80.4549 70.8579 80.48 71.049 80.432 71.2283C80.3839 71.4076 80.2666 71.5605 80.1058 71.6533L77.2078 73.3333C77.1012 73.3935 76.9803 73.424 76.8578 73.4215Z" fill="#E7BDA0"/>
<path d="M59.1579 80.122C59.0078 80.122 58.8618 80.0739 58.7412 79.9846C58.6206 79.8953 58.5319 79.7697 58.4881 79.6262C58.4444 79.4827 58.4479 79.3289 58.4982 79.1875C58.5484 79.0462 58.6428 78.9247 58.7673 78.841L62.9323 76.041L58.3123 78.701C58.1551 78.7921 57.9686 78.8185 57.7922 78.7747C57.6159 78.7308 57.4635 78.62 57.3674 78.4659C57.2712 78.3117 57.2387 78.1261 57.2769 77.9485C57.315 77.7708 57.4207 77.6149 57.5717 77.5138L62.5151 74.2L58.0421 76.776C57.8868 76.8576 57.7065 76.8778 57.5369 76.8328C57.3674 76.7878 57.2209 76.6807 57.1265 76.5328C57.0321 76.3849 56.9967 76.207 57.0273 76.0342C57.0579 75.8615 57.1523 75.7065 57.2917 75.6L66.1691 69.4078L58.0491 74.1006C57.8915 74.192 57.7045 74.2183 57.5278 74.174C57.3511 74.1297 57.1986 74.0183 57.1027 73.8634C57.0069 73.7085 56.9752 73.5223 57.0144 73.3444C57.0536 73.1665 57.1606 73.0109 57.3127 72.9106L60.6433 70.7L58.0421 72.1966C57.8866 72.2845 57.7034 72.3096 57.53 72.2668C57.3566 72.224 57.2062 72.1166 57.1094 71.9665C57.0126 71.8164 56.9768 71.635 57.0094 71.4594C57.042 71.2839 57.1405 71.1274 57.2847 71.022L67.8113 63.49L58.0421 69.1278C57.8845 69.2146 57.6996 69.2374 57.5257 69.1914C57.3518 69.1455 57.2022 69.0344 57.108 68.8812C57.0138 68.7279 56.9823 68.5443 57.0198 68.3684C57.0574 68.1925 57.1613 68.0378 57.3099 67.9364L58.1191 67.4058L58.0421 67.4506C57.885 67.5387 57.7 67.5628 57.5256 67.518C57.3512 67.4732 57.2007 67.3629 57.1056 67.21C57.0104 67.0571 56.9778 66.8734 57.0145 66.6971C57.0513 66.5209 57.1545 66.3655 57.3029 66.2634L61.1375 63.6902L58.0421 65.478C57.8857 65.5663 57.7014 65.5911 57.5272 65.5473C57.353 65.5035 57.2024 65.3945 57.1064 65.2427C57.0103 65.091 56.9763 64.9081 57.0113 64.732C57.0463 64.5558 57.1477 64.3999 57.2945 64.2964L63.0681 60.3134L58.0421 63.2142C57.8853 63.3023 57.7007 63.3268 57.5264 63.2825C57.3522 63.2382 57.2017 63.1285 57.1061 62.9762C57.0105 62.8239 56.9772 62.6407 57.013 62.4645C57.0489 62.2883 57.1512 62.1326 57.2987 62.0298L60.6923 59.7254L58.0421 61.2556C57.8873 61.3443 57.7044 61.3705 57.5309 61.3289C57.3574 61.2873 57.2064 61.181 57.1086 61.0318C57.0108 60.8825 56.9737 60.7016 57.0049 60.5259C57.0361 60.3502 57.1331 60.1931 57.2763 60.0866L65.5517 53.9882L58.0421 58.3282C57.8821 58.4119 57.696 58.4305 57.5226 58.3802C57.3492 58.3299 57.2019 58.2146 57.1116 58.0582C57.0212 57.9019 56.9948 57.7168 57.0377 57.5414C57.0807 57.366 57.1897 57.2141 57.3421 57.1172L75.7213 46.5052C75.8761 46.4165 76.0589 46.3903 76.2324 46.4319C76.4059 46.4735 76.557 46.5798 76.6548 46.729C76.7525 46.8783 76.7896 47.0592 76.7585 47.2349C76.7273 47.4105 76.6302 47.5677 76.4871 47.6742L68.2117 53.7712L76.6271 48.9146C76.7838 48.8265 76.9684 48.802 77.1427 48.8463C77.317 48.8906 77.4675 49.0003 77.5631 49.1526C77.6587 49.3049 77.692 49.4881 77.6561 49.6643C77.6203 49.8405 77.518 49.9962 77.3705 50.099L73.9727 52.4048L77.4797 50.3804C77.6361 50.2921 77.8204 50.2673 77.9946 50.3111C78.1687 50.3549 78.3194 50.4639 78.4154 50.6157C78.5114 50.7674 78.5454 50.9503 78.5104 51.1264C78.4754 51.3026 78.374 51.4585 78.2273 51.562L72.4523 55.5464L78.4723 52.0702C78.6294 51.9821 78.8143 51.958 78.9888 52.0028C79.1632 52.0476 79.3136 52.1579 79.4088 52.3108C79.504 52.4637 79.5366 52.6474 79.4998 52.8236C79.4631 52.9999 79.3598 53.1553 79.2115 53.2574L75.3755 55.8306L79.1555 53.6494C79.3132 53.5597 79.4995 53.5348 79.6753 53.5799C79.851 53.6249 80.0024 53.7364 80.0975 53.8909C80.1926 54.0454 80.224 54.2308 80.1852 54.408C80.1463 54.5852 80.0401 54.7403 79.8891 54.8408L79.0673 55.3798L79.5223 55.1166C79.6778 55.0287 79.8609 55.0036 80.0343 55.0464C80.2077 55.0891 80.3582 55.1966 80.455 55.3467C80.5518 55.4968 80.5875 55.6782 80.5549 55.8537C80.5223 56.0293 80.4239 56.1858 80.2797 56.2912L69.7601 63.8204L79.6581 58.1C79.8155 58.009 80.0021 57.9828 80.1785 58.0269C80.3549 58.0711 80.5071 58.1822 80.6031 58.3366C80.6993 58.4914 80.7313 58.6776 80.6923 58.8556C80.6534 59.0337 80.5465 59.1895 80.3945 59.29L77.0569 61.502L79.6581 59.9998C79.8143 59.9101 79.9991 59.8841 80.1741 59.9273C80.349 59.9704 80.5005 60.0793 80.5972 60.2313C80.6939 60.3834 80.7282 60.5668 80.693 60.7435C80.6579 60.9202 80.556 61.0765 80.4085 61.18L71.5227 67.3764L79.6581 62.6808C79.8152 62.5927 80.0001 62.5686 80.1746 62.6134C80.349 62.6582 80.4994 62.7685 80.5946 62.9214C80.6898 63.0743 80.7224 63.2579 80.6856 63.4342C80.6489 63.6105 80.5456 63.7659 80.3973 63.868L75.4721 67.1762L79.6581 64.7612C79.8149 64.6743 79.9991 64.6509 80.1727 64.6959C80.3463 64.7408 80.496 64.8507 80.591 65.0027C80.6859 65.1548 80.7189 65.3375 80.6832 65.5132C80.6474 65.6889 80.5456 65.8442 80.3987 65.947L63.8997 77.0714C63.9029 77.1973 63.8721 77.3218 63.8105 77.4317C63.7489 77.5416 63.6588 77.6328 63.5497 77.6958L59.5079 80.0282C59.4016 80.09 59.2808 80.1224 59.1579 80.122Z" fill="#E7BDA0"/>
<path d="M50.0395 62.4974C49.8902 62.4973 49.7448 62.4495 49.6246 62.3609C49.5044 62.2723 49.4156 62.1475 49.3714 62.0049C49.3271 61.8623 49.3296 61.7092 49.3786 61.5681C49.4275 61.427 49.5203 61.3053 49.6433 61.2206L60.6221 53.6844L48.4813 60.6928C48.3238 60.7864 48.1359 60.8145 47.958 60.7711C47.78 60.7277 47.6261 60.6162 47.5294 60.4607C47.4327 60.3051 47.4008 60.1178 47.4405 59.939C47.4803 59.7602 47.5886 59.6041 47.7421 59.5042L57.0759 53.2658L48.5765 58.1728C48.4198 58.2657 48.233 58.2938 48.0559 58.2512C47.8788 58.2086 47.7252 58.0986 47.6279 57.9446C47.5306 57.7906 47.4971 57.6047 47.5347 57.4264C47.5722 57.2481 47.6778 57.0915 47.8289 56.9898L55.6899 51.5956L55.5499 51.674C55.3949 51.7636 55.2115 51.7903 55.0373 51.7488C54.8632 51.7073 54.7116 51.6006 54.6137 51.4507C54.5158 51.3008 54.479 51.1191 54.511 50.9429C54.543 50.7668 54.6412 50.6096 54.7855 50.5036L58.8315 47.53C58.7217 47.4865 58.6247 47.4158 58.5495 47.3246C58.4743 47.2334 58.4235 47.1247 58.4017 47.0085C58.3799 46.8924 58.3878 46.7726 58.4248 46.6604C58.4618 46.5481 58.5266 46.4471 58.6131 46.3666L59.3453 45.6862C59.2348 45.7292 59.1151 45.7435 58.9976 45.7275C58.88 45.7116 58.7684 45.6661 58.6733 45.5952C58.564 45.5137 58.4809 45.4021 58.4341 45.274C58.3873 45.1459 58.379 45.007 58.4101 44.8742L58.8301 43.0948C58.7073 43.0462 58.6008 42.9638 58.5229 42.8571C58.4449 42.7505 58.3988 42.624 58.3897 42.4922C58.3806 42.3604 58.409 42.2288 58.4716 42.1124C58.5342 41.9961 58.6284 41.8999 58.7433 41.8348L59.4433 41.4302C59.5616 41.3619 59.6973 41.3296 59.8336 41.3374C59.97 41.3453 60.1011 41.3928 60.2108 41.4742C60.3205 41.5556 60.4039 41.6673 60.4509 41.7956C60.4979 41.9238 60.5063 42.063 60.4751 42.196L60.1419 43.6142L63.9499 41.4218C64.0991 41.3339 64.2755 41.3044 64.4451 41.339C64.6147 41.3735 64.7655 41.4697 64.8684 41.609C64.9712 41.7482 65.0188 41.9206 65.002 42.0929C64.9852 42.2652 64.9052 42.4251 64.7773 42.5418L64.0773 43.197L67.1573 41.4162C67.3121 41.3295 67.494 41.3048 67.6662 41.347C67.8385 41.3893 67.9883 41.4953 68.0854 41.6438C68.1825 41.7922 68.2196 41.972 68.1892 42.1468C68.1588 42.3215 68.0632 42.4782 67.9217 42.5852L65.8217 44.1252L70.5411 41.4022C70.6977 41.3127 70.8829 41.2871 71.0579 41.3307C71.2329 41.3744 71.3843 41.4839 71.4806 41.6365C71.5768 41.7891 71.6104 41.9729 71.5744 42.1497C71.5384 42.3264 71.4356 42.4825 71.2873 42.5852L63.4347 47.9752L74.8377 41.3952C74.9953 41.297 75.1855 41.2655 75.3664 41.3075C75.5473 41.3495 75.7041 41.4616 75.8023 41.6192C75.9005 41.7769 75.9321 41.967 75.8901 42.1479C75.8481 42.3288 75.7359 42.4856 75.5783 42.5838L66.2403 48.825L75.4607 43.505C75.6173 43.4155 75.8025 43.3899 75.9775 43.4336C76.1525 43.4772 76.3039 43.5867 76.4002 43.7393C76.4964 43.8919 76.53 44.0757 76.494 44.2525C76.458 44.4292 76.3552 44.5853 76.2069 44.688L57.9971 57.1844L58.0055 57.197C58.0983 57.3578 58.1235 57.5489 58.0755 57.7282C58.0274 57.9075 57.9101 58.0604 57.7493 58.1532L50.3895 62.4022C50.2832 62.4642 50.1625 62.497 50.0395 62.4974Z" fill="#E7BDA0"/>
<path d="M62.6172 44.0595C62.4713 44.0598 62.329 44.0146 62.21 43.9301C62.0911 43.8456 62.0016 43.726 61.9539 43.5882C61.9063 43.4503 61.9029 43.301 61.9442 43.1611C61.9856 43.0212 62.0696 42.8977 62.1846 42.8079L68.9564 37.5061L58.4564 43.5681C58.2993 43.6612 58.112 43.6892 57.9345 43.6461C57.7571 43.6031 57.6035 43.4924 57.5065 43.3377C57.4095 43.183 57.3768 42.9965 57.4154 42.818C57.4539 42.6395 57.5607 42.4831 57.713 42.3823L60.8896 40.2263L58.042 41.8699C57.8874 41.9578 57.7051 41.9835 57.5322 41.9419C57.3592 41.9003 57.2087 41.7944 57.111 41.6458C57.0133 41.4971 56.9759 41.3169 57.0063 41.1416C57.0367 40.9664 57.1327 40.8093 57.2748 40.7023L67.0174 33.4699L58.042 38.6499C57.8869 38.7395 57.7035 38.7662 57.5294 38.7247C57.3552 38.6831 57.2036 38.5764 57.1057 38.4265C57.0078 38.2767 56.9711 38.095 57.003 37.9188C57.035 37.7426 57.1333 37.5854 57.2776 37.4795L64.5268 32.1511L58.042 35.8975C57.8898 35.9856 57.7101 36.0132 57.5386 35.9749C57.367 35.9366 57.2161 35.8351 57.1159 35.6907C57.0158 35.5462 56.9736 35.3694 56.9978 35.1952C57.0221 35.0211 57.1109 34.8625 57.2468 34.7509L62.956 30.0469L58.042 32.8847C57.8894 32.971 57.71 32.9969 57.5393 32.9573C57.3686 32.9177 57.2189 32.8155 57.1198 32.6709C57.0208 32.5263 56.9796 32.3499 57.0044 32.1764C57.0292 32.0029 57.1182 31.845 57.2538 31.7339L58.917 30.3969L58.042 30.9023C57.902 30.9835 57.7383 31.0137 57.5786 30.9878C57.4189 30.9618 57.2731 30.8814 57.166 30.7601C57.0589 30.6388 56.9971 30.4842 56.9912 30.3225C56.9852 30.1609 57.0355 30.0021 57.1334 29.8733L58.868 27.5801L58.042 28.0575C57.9195 28.1282 57.7786 28.1601 57.6376 28.1491C57.4967 28.1382 57.3623 28.0848 57.2523 27.996C57.1423 27.9072 57.0618 27.7871 57.0213 27.6517C56.9808 27.5162 56.9823 27.3717 57.0256 27.2371L57.3364 26.2683C57.2326 26.2077 57.1466 26.1208 57.0872 26.0163C56.9942 25.8557 56.9689 25.6648 57.0166 25.4855C57.0644 25.3062 57.1814 25.1532 57.342 25.0601L58.042 24.6527C58.1644 24.5815 58.3056 24.5492 58.4468 24.56C58.588 24.5707 58.7227 24.6241 58.8329 24.7129C58.9432 24.8018 59.0239 24.9221 59.0644 25.0578C59.1049 25.1935 59.1033 25.3383 59.0598 25.4731L58.91 25.9379L61.15 24.6443C61.2898 24.5638 61.4531 24.534 61.6123 24.5601C61.7715 24.5861 61.9169 24.6663 62.0237 24.7872C62.1306 24.9081 62.1924 25.0621 62.1988 25.2233C62.2051 25.3846 62.1556 25.543 62.0586 25.6719L60.324 27.9721L66.1116 24.6303C66.2644 24.5419 66.4449 24.5145 66.617 24.5536C66.7891 24.5927 66.9401 24.6953 67.0398 24.841C67.1394 24.9867 67.1804 25.1646 67.1544 25.3392C67.1285 25.5138 67.0375 25.6721 66.8998 25.7825L65.2352 27.1195L69.564 24.6205C69.7161 24.5324 69.8958 24.5048 70.0674 24.5431C70.2389 24.5814 70.3898 24.6829 70.49 24.8273C70.5902 24.9718 70.6323 25.1486 70.6081 25.3228C70.5839 25.4969 70.495 25.6555 70.3592 25.7671L64.65 30.4655L74.8098 24.5995C74.9648 24.5099 75.1482 24.4832 75.3224 24.5247C75.4965 24.5663 75.6481 24.673 75.746 24.8228C75.8439 24.9727 75.8806 25.1544 75.8487 25.3306C75.8167 25.5067 75.7185 25.664 75.5742 25.7699L68.3264 31.0969L76.858 26.1801C77.0126 26.0922 77.1949 26.0664 77.3678 26.1081C77.5407 26.1497 77.6913 26.2556 77.7889 26.4042C77.8866 26.5529 77.924 26.7331 77.8936 26.9083C77.8632 27.0836 77.7672 27.2407 77.6252 27.3477L67.884 34.5703L76.858 29.3903C77.0147 29.3022 77.1993 29.2777 77.3736 29.322C77.5479 29.3663 77.6984 29.476 77.794 29.6283C77.8896 29.7806 77.9229 29.9638 77.887 30.14C77.8512 30.3162 77.7489 30.4719 77.6014 30.5747L74.422 32.7321L76.858 31.3321C77.0114 31.2432 77.1929 31.2159 77.3657 31.2557C77.5385 31.2954 77.6898 31.3993 77.789 31.5463C77.8882 31.6933 77.9279 31.8725 77.9001 32.0477C77.8723 32.2228 77.779 32.3809 77.6392 32.4899L70.8674 37.7861L76.858 34.3281C77.0106 34.2402 77.1907 34.2131 77.3624 34.2521C77.5341 34.2912 77.6848 34.3935 77.7844 34.5387C77.8841 34.6839 77.9253 34.8613 77.8999 35.0356C77.8746 35.2098 77.7845 35.3681 77.6476 35.4789L74.156 38.3069L76.858 36.7473C77.0061 36.6639 77.1795 36.6373 77.3458 36.6724C77.5121 36.7075 77.66 36.8019 77.7618 36.938C77.8636 37.0741 77.9124 37.2426 77.8991 37.4121C77.8858 37.5815 77.8114 37.7403 77.6896 37.8589L75.6288 39.8273L76.858 39.1175C76.9869 39.0446 77.1357 39.0144 77.2828 39.0314C77.43 39.0484 77.568 39.1116 77.6769 39.212C77.7858 39.3124 77.8601 39.4448 77.8891 39.59C77.918 39.7353 77.9001 39.886 77.838 40.0205L77.04 41.7243C77.2003 41.7039 77.3628 41.7397 77.4998 41.8256C77.6368 41.9114 77.7398 42.042 77.7914 42.1952C77.8431 42.3484 77.8401 42.5148 77.783 42.666C77.7258 42.8172 77.6182 42.944 77.4782 43.0249L75.8528 43.9643C75.7238 44.0372 75.5751 44.0674 75.4279 44.0504C75.2808 44.0334 75.1428 43.9702 75.0338 43.8698C74.9249 43.7694 74.8506 43.637 74.8217 43.4918C74.7927 43.3465 74.8106 43.1958 74.8728 43.0613L75.6302 41.4429L71.2636 43.9629C71.1152 44.0486 70.9406 44.077 70.7728 44.0426C70.6049 44.0082 70.4555 43.9135 70.3528 43.7763C70.2502 43.6391 70.2014 43.4691 70.2157 43.2983C70.23 43.1276 70.3065 42.968 70.4306 42.8499L72.49 40.8801L67.156 43.9601C67.0036 44.046 66.8246 44.0717 66.6542 44.0322C66.4838 43.9926 66.3344 43.8908 66.2354 43.7466C66.1363 43.6024 66.0948 43.4264 66.1191 43.2532C66.1433 43.08 66.2316 42.9221 66.3664 42.8107L69.858 39.9827L62.97 43.9601C62.8633 44.024 62.7415 44.0583 62.6172 44.0595Z" fill="#56B38F"/>
<path d="M77.95 21.6579C77.7959 21.6579 77.6461 21.607 77.5239 21.5132C77.4016 21.4194 77.3137 21.2879 77.2739 21.1391C77.234 20.9902 77.2443 20.8324 77.3033 20.69C77.3622 20.5477 77.4665 20.4287 77.6 20.3517L82.451 17.5517C82.6117 17.4603 82.802 17.4362 82.9804 17.4847C83.1587 17.5331 83.3107 17.6501 83.4032 17.8102C83.4956 17.9703 83.5209 18.1604 83.4737 18.3391C83.4264 18.5178 83.3104 18.6706 83.151 18.7641L78.3 21.5641C78.1937 21.6259 78.0729 21.6583 77.95 21.6579Z" fill="#A6725C"/>
<path d="M58.2634 27.2578C58.1094 27.2578 57.9596 27.207 57.8373 27.1132C57.7151 27.0193 57.6272 26.8878 57.5873 26.739C57.5474 26.5902 57.5578 26.4323 57.6168 26.29C57.6757 26.1476 57.78 26.0287 57.9134 25.9516L79.0044 13.7716C79.1617 13.6805 79.3482 13.6541 79.5245 13.698C79.7008 13.7418 79.8532 13.8526 79.9494 14.0068C80.0455 14.1609 80.078 14.3465 80.0399 14.5241C80.0017 14.7018 79.896 14.8577 79.7451 14.9588L78.4262 15.8478L80.0908 14.886C80.2459 14.7965 80.4293 14.7697 80.6034 14.8112C80.7776 14.8528 80.9292 14.9595 81.0271 15.1094C81.125 15.2593 81.1617 15.441 81.1298 15.6171C81.0978 15.7933 80.9996 15.9505 80.8552 16.0564L76.0168 19.6138L82.0284 16.1432C82.1807 16.0546 82.3608 16.0268 82.5328 16.0651C82.7047 16.1035 82.8559 16.2053 82.9561 16.3502C83.0563 16.4951 83.0982 16.6725 83.0734 16.8469C83.0485 17.0213 82.9589 17.18 82.8222 17.2912L77.4574 21.6998L78.6138 21.032C78.7526 20.952 78.9146 20.922 79.0728 20.9471C79.231 20.9721 79.3759 21.0506 79.4832 21.1696C79.5905 21.2885 79.6538 21.4406 79.6624 21.6006C79.6711 21.7605 79.6247 21.9186 79.5308 22.0484L77.8956 24.3038L79.6471 23.293C79.8077 23.2017 79.998 23.1776 80.1764 23.226C80.3548 23.2744 80.5068 23.3914 80.5992 23.5515C80.6917 23.7116 80.717 23.9017 80.6698 24.0805C80.6225 24.2592 80.5065 24.4119 80.347 24.5054L75.7536 27.1598C75.6149 27.2406 75.4525 27.2711 75.2939 27.2464C75.1352 27.2217 74.9899 27.1432 74.8823 27.0241C74.7746 26.9049 74.7112 26.7524 74.7026 26.5921C74.6941 26.4317 74.7409 26.2733 74.8352 26.1434L76.4704 23.8866L70.8102 27.1598C70.6581 27.2479 70.4784 27.2756 70.3068 27.2372C70.1353 27.1989 69.9844 27.0974 69.8842 26.953C69.784 26.8085 69.7419 26.6317 69.7661 26.4576C69.7904 26.2834 69.8792 26.1248 70.015 26.0132L75.3812 21.6018L65.7464 27.1598C65.5914 27.2494 65.408 27.2761 65.2338 27.2346C65.0597 27.193 64.9081 27.0864 64.8102 26.9365C64.7123 26.7866 64.6756 26.6049 64.7075 26.4287C64.7395 26.2526 64.8377 26.0954 64.982 25.9894L69.8218 22.4306L61.6318 27.1598C61.4749 27.2493 61.2894 27.2746 61.1142 27.2304C60.939 27.1863 60.7877 27.0761 60.6918 26.923C60.596 26.7698 60.5631 26.5855 60.6 26.4087C60.6369 26.2318 60.7408 26.0761 60.8898 25.974L62.2128 25.0822L58.6134 27.1598C58.5076 27.2231 58.3868 27.2569 58.2634 27.2578Z" fill="#A6725C"/>
<path d="M57.8126 36.722C57.6796 36.722 57.5494 36.6841 57.4371 36.6127C57.3249 36.5413 57.2354 36.4394 57.179 36.3189C57.1225 36.1985 57.1016 36.0644 57.1186 35.9325C57.1357 35.8006 57.1899 35.6762 57.275 35.574L58.4958 34.1068L56.61 35.196C56.4705 35.2768 56.3073 35.3069 56.1481 35.2813C55.989 35.2556 55.8435 35.1758 55.7364 35.0554C55.6292 34.9349 55.5669 34.7811 55.5601 34.62C55.5532 34.4589 55.6021 34.3004 55.6986 34.1712L57.3926 31.9046L54.9384 33.32C54.792 33.4035 54.6205 33.4313 54.4552 33.3985C54.29 33.3656 54.1421 33.2742 54.0388 33.1411C53.9355 33.008 53.8837 32.8421 53.8928 32.6739C53.902 32.5056 53.9715 32.3464 54.0886 32.2252L54.881 31.4118L53.796 32.039C53.653 32.1216 53.4854 32.151 53.3228 32.1219C53.1603 32.0929 53.0132 32.0073 52.9076 31.8803C52.8021 31.7533 52.7448 31.593 52.746 31.4279C52.7471 31.2628 52.8067 31.1033 52.914 30.9778L54.412 29.2236L52.3484 30.415C52.1902 30.5035 52.0039 30.5271 51.8286 30.4809C51.6533 30.4348 51.5028 30.3224 51.4087 30.1676C51.3146 30.0127 51.2842 29.8273 51.3239 29.6505C51.3637 29.4737 51.4705 29.3191 51.6218 29.2194L52.8636 28.427L51.353 29.2992C51.1953 29.3889 51.009 29.4138 50.8332 29.3688C50.6575 29.3237 50.5061 29.2122 50.411 29.0577C50.3159 28.9033 50.2845 28.7179 50.3233 28.5407C50.3622 28.3635 50.4684 28.2083 50.6194 28.1078L58.0786 23.2078L50.0538 27.8404C49.8951 27.9368 49.7046 27.9662 49.5242 27.922C49.3438 27.8779 49.1884 27.764 49.092 27.6052C48.9957 27.4465 48.9663 27.256 49.0104 27.0756C49.0545 26.8953 49.1685 26.7398 49.3272 26.6434L50.3268 26.005L49.0668 26.733C48.9086 26.8215 48.7223 26.8451 48.547 26.7989C48.3717 26.7528 48.2212 26.6404 48.1271 26.4856C48.033 26.3307 48.0026 26.1453 48.0423 25.9685C48.0821 25.7917 48.1889 25.6371 48.3402 25.5374L48.5012 25.4324L47.93 25.7628C47.7724 25.8542 47.5854 25.8806 47.4087 25.8363C47.232 25.792 47.0795 25.6805 46.9837 25.5256C46.8878 25.3707 46.8561 25.1845 46.8953 25.0066C46.9345 24.8287 47.0415 24.6731 47.1936 24.5728L52.7404 20.9048L44.262 25.8048C44.1044 25.9031 43.9142 25.9346 43.7333 25.8926C43.5524 25.8506 43.3956 25.7385 43.2974 25.5808C43.1992 25.4232 43.1676 25.2331 43.2096 25.0522C43.2517 24.8713 43.3638 24.7145 43.5214 24.6162L55.0686 16.8714L44.0422 23.24C43.8848 23.3281 43.6994 23.352 43.5248 23.3067C43.3502 23.2614 43.1998 23.1504 43.105 22.997C43.0102 22.8435 42.9783 22.6593 43.016 22.4829C43.0536 22.3065 43.158 22.1514 43.3072 22.05L51.5966 16.5662L44.0366 20.9272C43.8791 21.014 43.6941 21.0368 43.5202 20.9909C43.3463 20.945 43.1967 20.8338 43.1026 20.6806C43.0084 20.5273 42.9768 20.3437 43.0144 20.1678C43.052 19.9919 43.1558 19.8372 43.3044 19.7358L46.5132 17.6358L44.0422 19.068C43.8845 19.1577 43.6982 19.1826 43.5224 19.1376C43.3467 19.0925 43.1953 18.981 43.1002 18.8265C43.0051 18.6721 42.9737 18.4867 43.0125 18.3095C43.0514 18.1323 43.1576 17.9771 43.3086 17.8766L44.8318 16.8742L44.0422 17.3292C43.8873 17.4167 43.7049 17.4419 43.532 17.3996C43.3592 17.3574 43.2089 17.2509 43.1118 17.1019C43.0146 16.9529 42.9779 16.7724 43.009 16.5973C43.0401 16.4221 43.1367 16.2653 43.2792 16.1588L49.785 11.4142L44.045 14.7294C43.8905 14.8186 43.7078 14.8454 43.5342 14.8044C43.3607 14.7634 43.2093 14.6577 43.111 14.5089C43.0127 14.36 42.9749 14.1793 43.0054 14.0035C43.0359 13.8278 43.1323 13.6703 43.275 13.5632L47.055 10.7282L44.0422 12.46C43.9254 12.5275 43.7917 12.5598 43.657 12.553C43.5223 12.5463 43.3924 12.5007 43.283 12.4219C43.1735 12.3431 43.0892 12.2343 43.0401 12.1087C42.991 11.9831 42.9792 11.846 43.0062 11.7138L43.4598 9.50044C43.3334 9.45606 43.2224 9.37633 43.1399 9.27073C43.0575 9.16512 43.0071 9.03807 42.9947 8.90466C42.9823 8.77125 43.0085 8.63709 43.0701 8.51811C43.1317 8.39914 43.2261 8.30033 43.3422 8.23344L44.0422 7.82884C44.159 7.76096 44.293 7.72832 44.4279 7.73488C44.5629 7.74143 44.693 7.7869 44.8027 7.86579C44.9124 7.94468 44.9969 8.05362 45.046 8.17948C45.0952 8.30533 45.1068 8.44271 45.0796 8.57504L44.6904 10.4692L56.4812 3.66244C56.6357 3.57329 56.8184 3.54646 56.992 3.58746C57.1656 3.62846 57.317 3.73417 57.4153 3.88302C57.5136 4.03188 57.5513 4.21263 57.5208 4.38837C57.4903 4.56412 57.3939 4.7216 57.2512 4.82864L53.4712 7.66364L60.4572 3.64004C60.6124 3.54949 60.7966 3.5221 60.9714 3.56356C61.1463 3.60501 61.2985 3.71212 61.3966 3.86272C61.4946 4.01332 61.531 4.19586 61.4982 4.37254C61.4653 4.54922 61.3658 4.70652 61.2202 4.81184L54.7102 9.55084L64.961 3.64004C65.1187 3.55039 65.3051 3.52546 65.4808 3.57051C65.6565 3.61556 65.8079 3.72708 65.903 3.88155C65.9982 4.03603 66.0296 4.2214 65.9907 4.3986C65.9518 4.5758 65.8457 4.73098 65.6946 4.83144L64.1658 5.83664L67.971 3.64004C68.1287 3.55039 68.3151 3.52546 68.4908 3.57051C68.6665 3.61556 68.8179 3.72708 68.913 3.88155C69.0082 4.03603 69.0396 4.2214 69.0007 4.3986C68.9618 4.5758 68.8557 4.73098 68.7046 4.83144L65.4986 6.92444L70.8298 3.84444C70.9873 3.75638 71.1726 3.7325 71.3473 3.77779C71.5219 3.82308 71.6723 3.93404 71.7671 4.08753C71.8619 4.24101 71.8938 4.42518 71.8561 4.6016C71.8184 4.77802 71.7141 4.93309 71.5648 5.03444L63.274 10.5182L72.3978 5.25004C72.5549 5.16199 72.7399 5.13785 72.9143 5.18267C73.0887 5.22748 73.2392 5.33779 73.3343 5.49066C73.4295 5.64353 73.4621 5.8272 73.4254 6.00349C73.3886 6.17979 73.2854 6.33514 73.137 6.43724L61.5926 14.1806L72.0114 8.16064C72.1689 8.07258 72.3542 8.0487 72.5289 8.09399C72.7035 8.13928 72.8539 8.25024 72.9487 8.40373C73.0435 8.55721 73.0754 8.74138 73.0377 8.9178C73 9.09422 72.8957 9.24929 72.7464 9.35064L67.1982 13.02L73.7628 9.24004C73.921 9.15161 74.1074 9.12799 74.2826 9.17415C74.4579 9.2203 74.6084 9.33264 74.7026 9.48753C74.7967 9.64241 74.8271 9.82777 74.7873 10.0046C74.7476 10.1814 74.6408 10.3359 74.4894 10.4356L74.3284 10.5392L76.5796 9.24004C76.7378 9.15161 76.9242 9.12799 77.0994 9.17415C77.2747 9.2203 77.4252 9.33264 77.5194 9.48753C77.6135 9.64241 77.6439 9.82777 77.6041 10.0046C77.5644 10.1814 77.4576 10.3359 77.3062 10.4356L76.2996 11.0782L78.5102 9.80004C78.6681 9.70548 78.8569 9.67692 79.0357 9.72053C79.2145 9.76414 79.369 9.87642 79.4656 10.0331C79.5623 10.1897 79.5933 10.3781 79.5521 10.5575C79.5108 10.7368 79.4006 10.8928 79.2452 10.9914L71.7818 15.8914L79.5868 11.3848C79.745 11.2964 79.9314 11.2728 80.1066 11.3189C80.2819 11.3651 80.4324 11.4774 80.5266 11.6323C80.6207 11.7872 80.6511 11.9726 80.6113 12.1494C80.5716 12.3262 80.4648 12.4807 80.3134 12.5804L58.283 26.6308C58.2727 26.781 58.2143 26.9239 58.1164 27.0382L56.6198 28.7938L58.5798 27.6598C58.7264 27.5753 58.8986 27.5467 59.0646 27.5794C59.2306 27.612 59.3791 27.7036 59.4828 27.8373C59.5864 27.971 59.6382 28.1378 59.6284 28.3067C59.6186 28.4755 59.548 28.6352 59.4296 28.756L58.6386 29.5666L59.6424 28.987C59.7821 28.9064 59.9453 28.8765 60.1045 28.9023C60.2637 28.9282 60.4091 29.0082 60.5161 29.1288C60.6231 29.2495 60.6852 29.4034 60.6918 29.5646C60.6984 29.7257 60.6492 29.8842 60.5524 30.0132L58.857 32.2798L61.1936 30.9316C61.336 30.8496 61.5026 30.8203 61.6644 30.8488C61.8261 30.8772 61.9728 30.9617 62.0786 31.0873C62.1844 31.213 62.2426 31.3718 62.2431 31.5361C62.2436 31.7004 62.1863 31.8596 62.0812 31.9858L60.8702 33.4516L61.8264 32.9C61.9871 32.8087 62.1774 32.7846 62.3558 32.833C62.5342 32.8815 62.6862 32.9985 62.7786 33.1586C62.871 33.3186 62.8964 33.5088 62.8492 33.6875C62.8019 33.8662 62.6859 34.019 62.5264 34.1124L58.1682 36.6324C58.0598 36.6934 57.937 36.7243 57.8126 36.722Z" fill="#A6725C"/>
<path d="M3.08505 68.9122C3.68343 69.0355 4.29461 69.0854 4.90505 69.0606C-0.0453469 73.8444 8.23005 75.4698 11.9429 74.6438C5.15845 83.083 24.9853 79.954 29.0803 79.9008C32.9345 79.1322 35.7219 75.4712 39.8771 76.0172C42.8983 79.7972 51.9465 76.7368 56.7107 77.6776C56.828 78.2673 57.0912 78.8182 57.4762 79.2801C57.8613 79.7419 58.3559 80.0999 58.9148 80.3214C59.4738 80.5429 60.0794 80.6208 60.6762 80.5481C61.2731 80.4754 61.8422 80.2543 62.3317 79.905C62.1917 84.287 69.1987 84.4396 69.7965 80.157C74.1183 81.9462 76.3051 77.0476 75.5519 73.2326C84.5119 75.075 80.6619 59.3334 80.6283 54.145C79.2185 50.6212 76.4619 47.6238 76.8819 43.5736C80.1971 39.5598 77.3775 32.109 78.2637 26.9402C80.6199 26.4026 82.0969 23.2596 80.1831 21.4928C85.1209 21.1694 85.0831 14.5964 79.8751 14.8834C84.0751 10.1514 76.6901 8.3902 72.9885 9.1728C78.2399 0.452201 59.4421 4.0012 55.0923 3.9564C51.4523 4.9574 48.5767 8.092 44.5923 7.7994C40.7003 4.2994 32.9625 7.2282 27.8021 6.3112C27.3079 3.64 24.3455 3.073 22.3043 4.2C22.3547 -0.260398 15.3225 -0.0685979 14.7009 3.9494C10.3777 2.38 8.23005 7.1134 8.97625 10.906C0.121253 8.8704 3.65625 25.3862 4.06225 30.4094C5.61345 33.5874 7.94305 36.5246 7.62805 40.2584C4.26805 44.3884 7.13105 51.982 6.22805 57.2726C3.77105 57.7458 2.32905 61.0946 4.54805 62.6486C0.742853 62.44 -1.05895 67.8874 3.08505 68.9122ZM37.5419 58.38C34.2071 54.9584 31.4603 50.8676 27.8707 47.74C27.4045 45.3712 29.1391 41.3 26.4707 40.0806V36.386C29.8461 33.3942 33.5687 30.5732 36.6473 27.286C39.1029 26.9486 43.0873 28.3052 44.5251 25.7866H47.0843C50.3673 29.1914 53.1281 33.1758 56.6435 36.3216C57.1349 38.6092 55.3331 42.7616 58.0281 43.8102V47.4278C54.6051 50.5078 50.8377 53.333 47.7283 56.7196C45.2951 57.057 41.2127 55.6654 39.9527 58.3786L37.5419 58.38ZM21.4419 51.9288C22.3323 53.8244 24.0865 55.2748 25.2751 56.98C19.5953 57.001 13.9491 56.959 8.26645 56.9408C8.32525 51.7384 8.15445 46.3904 8.31825 41.2496C13.9827 41.4022 19.8613 40.9402 25.4683 41.4218C26.3503 43.0668 25.5831 45.3642 25.8253 47.2234C23.2577 47.201 20.4493 49.1498 21.4461 51.9302L21.4419 51.9288ZM63.0541 32.0698C62.2379 30.2232 60.5341 28.8288 59.3861 27.1894C65.0197 27.181 70.5959 27.1796 76.2365 27.2496C76.0783 32.361 76.5305 37.6096 76.0965 42.6496C75.7689 42.6273 75.4429 42.7113 75.1669 42.889H59.8901C59.7782 42.7897 59.6457 42.7164 59.5022 42.6743C59.3587 42.6322 59.2076 42.6223 59.0599 42.6454C58.1135 41.0494 58.9101 38.7506 58.6623 36.9236C61.2677 37.0244 64.0579 34.9594 63.0541 32.0698ZM50.4219 76.3224C47.8277 76.2594 45.1957 76.426 42.6211 76.3224C41.6075 76.1362 41.8721 74.7278 41.8721 73.976C41.8917 68.7106 41.8287 63.2688 41.9029 58.0776C43.5745 58.0384 45.3287 58.1014 47.0297 58.0776C46.3409 64.6212 53.6657 63 56.6211 59.2424C56.6211 64.974 56.6603 70.574 56.5343 76.3224H50.4219ZM79.0211 59.22C78.8321 63.14 79.4145 67.2 78.7803 71.0542C75.0157 74.8146 75.3307 66.4734 75.4763 64.3174C72.7421 61.7162 73.4673 67.8174 73.4253 69.3952C72.7253 72.1322 75.2999 78.6492 71.3477 78.967C68.0871 76.1152 70.6477 69.8992 69.8707 65.8658C70.3187 64.1298 68.9481 62.6794 67.8281 64.5008C67.0021 67.4842 70.0331 83.2608 65.4621 81.6186C62.5585 77.511 65.0505 69.3336 64.2623 64.1312C60.1883 63.301 63.0317 72.989 62.2351 75.7134C62.7027 77.6972 60.8435 80.3502 59.0949 78.1172C57.9749 71.4056 59.0263 64.1998 58.6749 57.33L58.6441 57.351C58.6749 56.6314 57.5241 56.4424 56.9641 56.931C54.8935 59.2732 47.8263 64.4322 49.2109 57.6058C52.5625 52.8794 61.0731 50.4966 60.0679 43.9264C64.9833 43.8914 69.8973 44.0048 74.8127 43.9264C74.2345 49.5824 79.7015 53.5164 79.0211 59.22ZM51.6931 6.79C57.2399 3.605 65.2045 4.389 71.2245 5.39C74.7707 11.067 66.1201 8.2362 63.7107 9.8C66.3399 12.0904 76.7167 8.0836 78.8853 11.963C79.6917 18.144 66.9307 12.8254 63.7065 15.3832C65.8751 17.8178 80.5065 13.4862 81.7413 17.7842C82.3475 22.9796 68.4147 19.2654 64.7537 20.3112C59.9419 22.701 74.2051 21.4018 75.5855 21.6986C78.3995 20.7494 80.7249 25.1174 77.3901 26.0148C71.0285 26.0316 64.6333 26.0022 58.2591 26.0148C53.5943 26.4446 62.1511 31.2802 61.1739 33.901C57.5983 41.0816 51.2269 21.5124 44.6833 24.6148C44.6329 19.39 44.7421 14.1694 44.6833 8.9446C47.1634 8.82461 49.5737 8.08376 51.6931 6.79ZM34.0811 7.6888C36.6753 7.749 39.3059 7.588 41.8819 7.6888C42.8913 7.8694 42.6267 9.2722 42.6267 10.0226C42.6043 15.2852 42.6743 20.7242 42.5945 25.9126C40.9145 25.9518 39.1561 25.8888 37.4481 25.9126C38.5681 19.4628 30.4061 21.322 27.8637 24.878C27.8777 19.1044 27.7979 13.482 27.9785 7.6902L34.0811 7.6888ZM5.46365 24.7072C5.51965 22.0892 4.34365 5.5034 9.03645 14.2716C9.31645 16.0384 7.89825 22.183 11.0637 19.3284V8.96C11.0637 7.427 10.6927 4.2 13.3289 4.9938C17.0683 6.2888 11.7763 23.0538 16.6637 19.3228C17.0151 13.839 15.9441 7.9282 17.1103 2.6474C20.0853 0.840002 20.6103 5.0344 20.2365 7.1274C20.9365 9.4318 18.3269 22.7416 22.2609 19.327C22.6067 14.7434 21.5399 9.7482 22.7299 5.362C24.3399 3.7814 25.9233 6.0088 25.8337 7.4928C25.8337 13.9496 25.8337 20.4087 25.8337 26.8702L25.8505 26.8604C28.2193 27.9804 30.1569 23.6558 32.3619 22.9922C34.7181 21.7084 36.1419 24.6512 35.2935 26.4754C32.1421 30.0328 28.0989 32.9154 24.6353 36.2376H24.6885C24.0767 37.2554 24.5961 38.7268 24.4337 39.9084C19.5029 39.9084 14.5847 39.9462 9.65805 39.9476C10.2041 34.3196 4.71185 30.4094 5.46365 24.7072ZM4.42625 63.42C5.0647 63.3871 5.70441 63.3871 6.34285 63.42C22.3281 64.729 27.4829 61.6 7.26405 62.4134C5.55885 61.6756 4.51865 58.7734 6.47305 57.9404C6.70805 58.045 6.96569 58.0884 7.22198 58.0666C7.47826 58.0448 7.72488 57.9585 7.93885 57.8158C13.9589 57.8368 19.9789 57.8256 25.9989 57.8158C25.9233 57.8018 25.8449 57.764 25.8407 57.6758C25.8575 57.8158 26.2803 57.8354 26.0227 57.8158C30.2311 57.8648 24.7263 54.0358 24.0417 52.346C22.5899 50.925 23.4579 47.1534 25.9065 48.3644C29.3813 51.6796 32.3941 55.608 35.7065 59.1444L35.7261 59.1332C37.0921 59.239 38.4631 59.2666 39.8323 59.2158C39.8729 64.5568 39.7693 69.8992 39.8323 75.2388C35.2585 75.0036 32.0063 78.9306 27.5879 79.3786C23.9297 78.6338 8.82785 82.1338 13.4227 74.7278C23.3809 76.4722 23.1331 71.7388 13.4913 73.7786C10.3189 74.1986 2.29125 73.759 6.63125 69.062C11.2513 68.7078 16.4467 69.8824 20.7825 68.5636C17.8215 66.4146 4.29045 70.7 2.75885 66.22C2.65151 65.9269 2.61085 65.6135 2.63984 65.3028C2.66884 64.992 2.76675 64.6915 2.92646 64.4233C3.08617 64.1552 3.30365 63.9259 3.5631 63.7524C3.82254 63.5788 4.11741 63.4653 4.42625 63.42Z" fill="#262626"/>
</g>
<defs>
<clipPath id="clip0_823_3055">
<rect width="84" height="84" fill="white" transform="translate(0.25)"/>
</clipPath>
</defs>
</svg>
