<svg width="73" height="45" viewBox="0 0 73 45" fill="none" xmlns="http://www.w3.org/2000/svg">
<path d="M33.988 34.1578C30.7263 33.6455 23.9141 32.2383 19.6133 30.2611C20.0318 30.3188 20.4576 30.3549 20.8906 30.3549C21.8431 30.3549 22.8317 30.2105 23.8203 29.9147C26.0862 29.2508 34.3055 24.8561 43.0011 20.2089C53.1904 14.7606 65.8765 7.97737 67.9692 7.87634C68.864 7.83304 69.5639 7.74645 70.0835 7.67429C69.8021 7.98458 69.4485 8.38148 69.03 8.88661C66.5837 10.3082 61.0921 14.4359 54.7418 19.1986C47.5401 24.6035 39.3785 30.7301 33.988 34.1578Z" fill="white"/>
<path d="M34.0882 34.6702C33.3738 35.1465 32.6738 35.5794 31.9883 35.9691C32.6233 35.5867 33.3305 35.1537 34.0882 34.6702Z" fill="black"/>
<path d="M45.1419 39.5339C42.4141 39.5339 39.6503 38.9349 37.1102 37.7948C38.5967 36.2072 41.0358 34.7856 43.612 33.2918C48.2304 30.6074 53.0003 27.8292 53.2962 23.485C53.4838 20.7212 52.755 18.3687 51.1746 16.6801C49.7314 15.1358 47.6531 14.2915 45.3223 14.2915C44.1821 14.2915 42.9986 14.4864 41.7935 14.8833C39.5709 15.6915 36.1721 18.1234 32.5712 20.6995C28.4724 23.6365 24.2365 26.6746 22.1221 26.9632C21.8984 26.9921 21.6819 27.0065 21.4582 27.0065C19.6253 27.0065 18.0594 25.9024 17.4677 24.185C16.9264 22.6191 17.2151 20.2738 19.6325 18.3687C24.3952 14.6307 38.438 5.89907 43.7275 5.52383C44.1821 5.49496 44.6367 5.47332 45.0913 5.47332C52.156 5.47332 58.2249 9.53605 60.9382 16.0739C63.6226 22.5469 62.1793 29.6765 57.1713 34.6918C54.0467 37.8164 49.7747 39.5411 45.1419 39.5411V39.5339Z" fill="#253E90"/>
<g filter="url(#filter0_d_1075_6176)">
<path d="M20.6511 39.2525C19.1574 39.2525 17.6997 39.0648 16.2998 38.6824H16.2781L16.242 38.668C14.4957 38.1484 12.8432 37.3474 11.3206 36.2938C11.2701 36.2505 11.2412 36.2361 11.2268 36.2217C4.80432 31.7043 1.189 22.3882 6.71662 13.3462C9.60311 8.62684 15.4266 5.45892 21.2068 5.45892C24.0933 5.45892 26.7488 6.2527 28.9426 7.76089C27.9107 8.432 26.5468 9.20413 25.0097 10.0701C19.9945 12.8988 13.7524 16.4131 12.9803 20.1584C12.3669 23.117 12.9803 25.9818 14.6761 28.0096C14.871 28.2405 15.0514 28.4787 15.2318 28.7168L15.5204 29.092C18.2698 32.5847 28.9642 34.7495 32.7167 35.4134C32.3703 35.6299 32.0383 35.832 31.7208 36.0196C27.954 38.1628 24.216 39.2525 20.6367 39.2525H20.6511Z" fill="white"/>
</g>
<path d="M65.9202 9.78865L59.541 6.72175L72.9993 6.13002L64.7511 16.7162L65.9202 9.78865Z" fill="#253E90"/>
<defs>
<filter id="filter0_d_1075_6176" x="0.0800002" y="0.238916" width="39.1568" height="44.2336" filterUnits="userSpaceOnUse" color-interpolation-filters="sRGB">
<feFlood flood-opacity="0" result="BackgroundImageFix"/>
<feColorMatrix in="SourceAlpha" type="matrix" values="0 0 0 0 0 0 0 0 0 0 0 0 0 0 0 0 0 0 127 0" result="hardAlpha"/>
<feOffset dx="1.3"/>
<feGaussianBlur stdDeviation="2.61"/>
<feColorMatrix type="matrix" values="0 0 0 0 0.137255 0 0 0 0 0.121569 0 0 0 0 0.12549 0 0 0 0.15 0"/>
<feBlend mode="normal" in2="BackgroundImageFix" result="effect1_dropShadow_1075_6176"/>
<feBlend mode="normal" in="SourceGraphic" in2="effect1_dropShadow_1075_6176" result="shape"/>
</filter>
</defs>
</svg>
