<svg width="24" height="25" viewBox="0 0 24 25" fill="none" xmlns="http://www.w3.org/2000/svg">
<path fill-rule="evenodd" clip-rule="evenodd" d="M12 7.42139C12 9.07824 13.3431 10.4214 15 10.4214C16.6569 10.4214 18 9.07824 18 7.42139C18 5.76453 16.6569 4.42139 15 4.42139C13.3431 4.42139 12 5.76453 12 7.42139ZM10 7.42139C10 10.1828 12.2386 12.4214 15 12.4214C17.7614 12.4214 20 10.1828 20 7.42139C20 4.65996 17.7614 2.42139 15 2.42139C12.2386 2.42139 10 4.65996 10 7.42139ZM9 4.42139C9 3.8691 8.55229 3.42139 8 3.42139C5.79086 3.42139 4 5.21225 4 7.42139C4 9.63053 5.79086 11.4214 8 11.4214C8.55229 11.4214 9 10.9737 9 10.4214C9 9.8691 8.55229 9.42139 8 9.42139C6.89543 9.42139 6 8.52596 6 7.42139C6 6.31682 6.89543 5.42139 8 5.42139C8.55229 5.42139 9 4.97367 9 4.42139ZM19 13.4214C20.6569 13.4214 22 14.7645 22 16.4214V21.4214C22 21.9737 21.5523 22.4214 21 22.4214C20.4477 22.4214 20 21.9737 20 21.4214V16.4214C20 15.8691 19.5523 15.4214 19 15.4214H11C10.4477 15.4214 10 15.8691 10 16.4214L10 21.4214C10 21.9737 9.55229 22.4214 9 22.4214C8.44771 22.4214 8 21.9737 8 21.4214L8 16.4214C8 14.7645 9.34315 13.4214 11 13.4214H19ZM7 13.4214C7.55229 13.4214 8 13.8691 8 14.4214C8 14.9737 7.55229 15.4214 7 15.4214L5 15.4214C4.44772 15.4214 4 15.8691 4 16.4214V21.4214C4 21.9737 3.55228 22.4214 3 22.4214C2.44772 22.4214 2 21.9737 2 21.4214V16.4214C2 14.7645 3.34315 13.4214 5 13.4214L7 13.4214Z" fill="#333333"/>
</svg>
