<svg width="24" height="25" viewBox="0 0 24 25" fill="none" xmlns="http://www.w3.org/2000/svg">
<path fill-rule="evenodd" clip-rule="evenodd" d="M9.00003 8.23584C9.00003 9.89269 10.3432 11.2358 12 11.2358C13.6569 11.2358 15 9.89269 15 8.23584C15 6.57899 13.6569 5.23584 12 5.23584C10.3432 5.23584 9.00003 6.57899 9.00003 8.23584ZM9.57819 12.6112C8.04069 11.7584 7.00003 10.1186 7.00003 8.23584C7.00003 5.47442 9.2386 3.23584 12 3.23584C14.7614 3.23584 17 5.47442 17 8.23584C17 10.1186 15.9594 11.7584 14.4218 12.6112C15.631 12.9953 16.7431 13.6652 17.6569 14.579C18.6759 15.5981 19.3917 16.8638 19.746 18.2358C19.9133 18.8837 20 19.5553 20 20.2358L18 20.2358H12H6H4C4 19.5553 4.08671 18.8837 4.25401 18.2358C4.60831 16.8638 5.32406 15.5981 6.34315 14.579C7.25692 13.6652 8.36897 12.9953 9.57819 12.6112ZM7.75736 15.9932C7.11855 16.632 6.63866 17.4 6.34314 18.2358H12L17.6569 18.2358C17.3613 17.4 16.8814 16.632 16.2426 15.9932C15.1174 14.868 13.5913 14.2358 12 14.2358C10.4087 14.2358 8.88258 14.868 7.75736 15.9932Z" fill="#333333"/>
</svg>
