<svg width="160" height="160" viewBox="0 0 160 160" fill="none" xmlns="http://www.w3.org/2000/svg">
<path d="M135.375 70.5867C134.974 70.5868 134.595 70.4069 134.342 70.0968C134.088 69.7866 133.988 69.3791 134.068 68.9867L134.743 65.7867L127.959 69.7041C127.419 70.0143 126.736 69.9096 126.314 69.4518C125.892 68.994 125.843 68.305 126.196 67.7921L129.335 63.2241L124.967 65.7414C124.424 66.054 123.736 65.9463 123.315 65.4826C122.893 65.0188 122.852 64.3242 123.215 63.8134L126.348 59.4321L122.185 61.8321C121.632 62.1513 120.93 62.0331 120.511 61.5503C120.093 61.0675 120.076 60.3558 120.471 59.8534L123.241 56.3174L119.713 58.3547C119.138 58.6909 118.403 58.5512 117.992 58.0274C117.58 57.5036 117.619 56.7565 118.081 56.2774L119.337 54.9627L117.892 55.7974C117.354 56.1072 116.674 56.005 116.251 55.5507C115.828 55.0965 115.774 54.4105 116.121 53.8961L119.393 49.0694L114.935 51.6427C114.38 51.9609 113.677 51.84 113.26 51.3548C112.843 50.8696 112.83 50.1567 113.228 49.6561L115.895 46.3121L111.823 48.6614C111.189 48.9926 110.408 48.7658 110.05 48.1472C109.693 47.5286 109.886 46.7381 110.489 46.3547L120.681 40.4721C121.236 40.1539 121.939 40.2747 122.356 40.76C122.773 41.2452 122.786 41.9581 122.388 42.4587L119.721 45.8001L123.089 43.8534C123.627 43.5436 124.308 43.6458 124.731 44.1001C125.154 44.5543 125.207 45.2403 124.86 45.7547L121.601 50.5894L126.063 48.0134C126.637 47.6815 127.368 47.8222 127.778 48.3435C128.188 48.8647 128.152 49.6081 127.695 50.0881L126.441 51.4001L127.881 50.5707C128.434 50.2512 129.136 50.3685 129.555 50.8505C129.974 51.3325 129.992 52.0438 129.599 52.5467L126.828 56.0827L130.356 54.0481C130.899 53.7354 131.587 53.8431 132.008 54.3069C132.429 54.7707 132.471 55.4653 132.108 55.9761L128.975 60.3601L133.137 57.9601C133.677 57.6498 134.36 57.7545 134.782 58.2123C135.204 58.6702 135.253 59.3591 134.9 59.8721L131.753 64.4321L136.001 61.9787C136.457 61.7161 137.024 61.7458 137.45 62.0546C137.876 62.3633 138.08 62.8934 137.972 63.4081L137.297 66.6081L137.716 66.3654C138.129 66.1272 138.638 66.1275 139.05 66.366C139.463 66.6046 139.717 67.0453 139.717 67.522C139.717 67.9988 139.462 68.4392 139.049 68.6774L136.047 70.4081C135.842 70.525 135.61 70.5865 135.375 70.5867Z" fill="#95D259"/>
<path d="M114.472 22.5813C113.911 22.5822 113.409 22.231 113.217 21.7031C113.025 21.1752 113.185 20.5837 113.616 20.224L123.694 11.8187L121.95 12.824C121.378 13.1515 120.653 13.0123 120.243 12.4965C119.833 11.9807 119.861 11.2429 120.31 10.76L125.208 5.50401C125.169 5.45412 125.133 5.40155 125.102 5.34667C124.733 4.70897 124.952 3.89354 125.59 3.52534L128.936 1.60001C129.507 1.27639 130.229 1.41628 130.637 1.92981C131.046 2.44333 131.02 3.1778 130.576 3.66134L128.339 6.06134L135.779 1.76801C136.378 1.42343 137.141 1.59404 137.537 2.16099C137.933 2.72794 137.829 3.50317 137.299 3.94667L127.224 12.344L136.515 6.98134C136.928 6.71859 137.452 6.7036 137.88 6.94228C138.308 7.18095 138.57 7.63489 138.563 8.12461C138.557 8.61432 138.282 9.06099 137.848 9.28801L115.139 22.4C114.937 22.5188 114.707 22.5814 114.472 22.5813Z" fill="#95D259"/>
<path d="M91.7344 70.5867C91.2094 70.5868 90.7331 70.2789 90.5179 69.8C90.3026 69.3212 90.3884 68.7606 90.737 68.368L95.2117 63.328L84.2224 69.6694C83.6106 70.0253 82.8273 69.8412 82.4381 69.25C82.0489 68.6588 82.1895 67.8666 82.7584 67.4454L87.161 64.168L84.2277 65.864C83.6087 66.2083 82.8287 66.0085 82.4513 65.4091C82.074 64.8098 82.2311 64.02 82.809 63.6107L90.1717 58.584L88.873 59.3307C88.2547 59.6855 87.4667 59.4912 87.0842 58.8897C86.7017 58.2881 86.8601 57.4921 87.4437 57.0827L92.937 53.2427C92.3943 53.3664 91.8319 53.1399 91.5263 52.6747C91.1378 52.0846 91.277 51.2939 91.8437 50.872L101.958 43.3414L99.0517 45.0214C98.4435 45.3655 97.6729 45.1817 97.2855 44.6002C96.898 44.0187 97.0252 43.2367 97.577 42.808L110.222 33.168L103.91 36.8C103.301 37.1467 102.528 36.9627 102.14 36.379C101.752 35.7953 101.883 35.011 102.438 34.584L116.572 23.8854L101.438 32.6214C100.885 32.937 100.185 32.8166 99.7685 32.334C99.3521 31.8513 99.3356 31.1415 99.729 30.64L102.438 27.224L99.0063 29.2027C98.4421 29.5306 97.7234 29.4019 97.308 28.8985C96.8926 28.3952 96.9027 27.6651 97.3317 27.1734L99.465 24.7147L96.8677 26.2107C96.3117 26.5282 95.6085 26.4056 95.1927 25.9187C94.7769 25.4319 94.7658 24.7182 95.1664 24.2187L97.7744 20.992L94.5023 22.88C93.9575 23.197 93.2651 23.0891 92.8425 22.6215C92.42 22.1538 92.3826 21.454 92.753 20.944L95.8464 16.664L91.7584 19.024C91.1861 19.3516 90.4604 19.2116 90.0509 18.6948C89.6415 18.178 89.6713 17.4395 90.121 16.9574L91.5664 15.416L89.881 16.3867C89.3375 16.6988 88.6499 16.5902 88.229 16.1257C87.8081 15.6612 87.7676 14.9663 88.1317 14.456L91.2357 10.1334L87.1183 12.5067C86.5874 12.8203 85.9099 12.7227 85.489 12.272C85.0723 11.8286 85.0087 11.1594 85.3343 10.6454L87.9024 6.64536L84.385 8.67736C83.88 8.96489 83.247 8.89226 82.8203 8.49784C82.3935 8.10341 82.2714 7.47803 82.5184 6.95203L83.0517 5.82403C82.4335 5.8637 81.8695 5.47245 81.6901 4.87957C81.5107 4.2867 81.7632 3.64837 82.2997 3.33869L85.305 1.60003C85.8095 1.31378 86.4411 1.38647 86.8673 1.77982C87.2936 2.17317 87.4166 2.79694 87.1717 3.32269L86.7397 4.23203L91.313 1.60003C91.8439 1.29795 92.5122 1.39528 92.9349 1.83625C93.3576 2.27722 93.4266 2.94902 93.1023 3.46669L90.5344 7.46669L95.273 4.73069C95.8172 4.41617 96.5072 4.52443 96.9289 4.99051C97.3506 5.45658 97.3895 6.15389 97.0223 6.66403L93.913 10.9867L98.033 8.61069C98.6021 8.2978 99.3138 8.44044 99.7184 8.94846C100.123 9.45648 100.103 10.1821 99.6703 10.6667L98.225 12.2107L99.9077 11.24C100.452 10.9284 101.139 11.038 101.56 11.5032C101.98 11.9684 102.019 12.6636 101.654 13.1734L98.561 17.464L102.652 15.1014C103.208 14.7806 103.914 14.9018 104.331 15.3897C104.748 15.8776 104.759 16.5936 104.356 17.0934L101.748 20.32L105.022 18.4294C105.587 18.1014 106.305 18.2302 106.721 18.7335C107.136 19.2369 107.126 19.9669 106.697 20.4587L104.564 22.9254L107.164 21.424C107.717 21.1084 108.417 21.2288 108.834 21.7114C109.25 22.194 109.266 22.9039 108.873 23.4054L106.166 26.824L133.724 10.9067C134.332 10.5671 135.1 10.7534 135.485 11.3342C135.87 11.915 135.743 12.6943 135.193 13.1227L121.068 23.8214L126.934 20.4267C127.542 20.0826 128.313 20.2663 128.701 20.8478C129.088 21.4293 128.961 22.2113 128.409 22.64L115.78 32.2667L120.433 29.6C121.045 29.2441 121.828 29.4281 122.217 30.0194C122.606 30.6106 122.466 31.4028 121.897 31.824L111.764 39.3574L117.66 35.9547C118.278 35.5999 119.066 35.7941 119.448 36.3957C119.831 36.9973 119.673 37.7933 119.089 38.2027L114.169 41.6427L119.377 38.6374C119.998 38.277 120.793 38.473 121.175 39.0808C121.557 39.6885 121.39 40.4898 120.796 40.8934L106.862 50.4C107.276 50.6077 107.552 51.0147 107.592 51.4756C107.632 51.9365 107.431 52.3853 107.06 52.6614L101.601 56.7254C102.021 56.7149 102.423 56.8953 102.694 57.216C103.107 57.7232 103.092 58.4552 102.657 58.944L96.0383 66.4107C96.1102 66.4924 96.1728 66.5819 96.225 66.6774C96.5932 67.3151 96.3747 68.1305 95.737 68.4987L92.401 70.4C92.1996 70.5211 91.9693 70.5855 91.7344 70.5867Z" fill="#95D259"/>
<path d="M54.4568 52.0853C53.8989 52.0863 53.3994 51.7398 53.2048 51.2169C53.0103 50.694 53.1619 50.1053 53.5848 49.7413L57.6568 46.232L56.6968 46.7867C56.1024 47.1275 55.3464 46.9622 54.9483 46.4044C54.5503 45.8467 54.6399 45.078 55.1555 44.6267L57.9235 42.2267L56.7475 42.9067C56.1591 43.2534 55.4039 43.0995 54.9981 42.5502C54.5923 42.0009 54.6671 41.2338 55.1715 40.7733L59.7582 36.5067L56.7475 38.2427C56.1584 38.607 55.3885 38.4597 54.9756 37.9036C54.5627 37.3475 54.6443 36.5678 55.1635 36.1093L60.1102 31.4293L56.7475 33.3707C56.165 33.7112 55.42 33.5629 55.0123 33.0254C54.6046 32.4879 54.6626 31.7305 55.1475 31.2613L60.6622 25.896L56.7422 28.1573C56.1647 28.4946 55.4268 28.3519 55.0167 27.8237C54.6065 27.2955 54.6511 26.5453 55.1208 26.0693L61.5368 19.5013L56.7368 22.2693C56.1561 22.6 55.4203 22.4496 55.0158 21.9177C54.6113 21.3858 54.6631 20.6366 55.1368 20.1653L60.8302 14.5653L56.7368 16.928C56.149 17.2646 55.4022 17.1069 55.0006 16.5615C54.599 16.016 54.6702 15.256 55.1662 14.7947L59.1902 11.0613L56.7368 12.4773C56.1561 12.808 55.4203 12.6576 55.0158 12.1257C54.6113 11.5938 54.6631 10.8446 55.1368 10.3733L56.5395 8.98668C56.0395 9.16701 55.4802 9.03762 55.1102 8.65601C54.6858 8.21101 54.6208 7.53356 54.9528 7.01601L55.8062 5.68268C55.3285 5.49407 55.0016 5.04791 54.9658 4.53562C54.9299 4.02334 55.1914 3.53599 55.6382 3.28268L58.6355 1.60001C59.1663 1.30051 59.8325 1.39902 60.2539 1.83929C60.6754 2.27956 60.7446 2.94952 60.4222 3.46668L60.1795 3.84534L64.0888 1.60001C64.6693 1.26356 65.4094 1.41089 65.8168 1.94401C66.2238 2.47724 66.1713 3.22982 65.6942 3.70134L64.3448 5.03468L68.1848 2.81868C68.7727 2.48208 69.5195 2.63974 69.9211 3.18523C70.3227 3.73072 70.2515 4.49065 69.7555 4.95201L65.7288 8.68534L68.5875 7.03734C69.1682 6.70672 69.904 6.85704 70.3085 7.38896C70.713 7.92088 70.6613 8.67007 70.1875 9.14134L64.4942 14.7413L68.5848 12.3787C69.1615 12.046 69.8951 12.1896 70.3037 12.7152C70.7123 13.2407 70.6707 13.9872 70.2062 14.464L63.7902 21.016L68.5902 18.248C69.1726 17.9075 69.9176 18.0558 70.3253 18.5933C70.7331 19.1308 70.675 19.8882 70.1902 20.3573L64.6808 25.7173L68.5875 23.4667C69.1765 23.1023 69.9465 23.2497 70.3594 23.8058C70.7723 24.3619 70.6906 25.1415 70.1715 25.6L65.2248 30.28L68.5875 28.3387C69.1758 27.9919 69.9311 28.1458 70.3369 28.6951C70.7427 29.2444 70.6678 30.0115 70.1635 30.472L65.5688 34.7387L68.5875 33C69.1819 32.6592 69.9379 32.8245 70.336 33.3823C70.734 33.94 70.6444 34.7087 70.1288 35.16L67.3662 37.56L68.5875 36.8533C69.1837 36.5042 69.9479 36.6683 70.3482 37.2316C70.7484 37.7948 70.652 38.5705 70.1262 39.0187L66.0542 42.5173L68.5875 41.056C69.0008 40.7933 69.5249 40.7783 69.9526 41.0169C70.3802 41.2556 70.6426 41.7096 70.636 42.1993C70.6294 42.689 70.3548 43.1357 69.9208 43.3627L55.1208 51.896C54.9206 52.0178 54.6912 52.0832 54.4568 52.0853Z" fill="#95D259"/>
<path d="M46.9347 70.5333C46.3679 70.5338 45.8627 70.1757 45.6754 69.6407C45.488 69.1057 45.6594 68.5107 46.1027 68.1573L52.9454 62.712L40.7854 69.7307C40.1702 70.0733 39.3947 69.8785 39.0145 69.2859C38.6342 68.6933 38.7803 67.9071 39.3481 67.4907L44.8014 63.616L36.4654 68.416C35.871 68.7597 35.1128 68.5958 34.7134 68.0373C34.3157 67.4785 34.4068 66.7091 34.9241 66.2587L38.8334 62.856L32.8414 66.3227C32.2544 66.6456 31.5189 66.4829 31.123 65.9424C30.7271 65.4019 30.7938 64.6516 31.2787 64.1893L32.6121 62.9707L30.2681 64.3253C29.713 64.6467 29.0077 64.5273 28.5893 64.0411C28.171 63.5548 28.1581 62.8396 28.5587 62.3387L32.4227 57.5093L26.9001 60.7093C26.3336 61.0261 25.6213 60.8889 25.213 60.3844C24.8047 59.8799 24.8189 59.1547 25.2467 58.6667L29.0281 54.4L24.5481 56.984C23.9834 57.3082 23.2672 57.1772 22.8539 56.6741C22.4406 56.171 22.4511 55.443 22.8787 54.952L28.2521 48.8187L22.7401 52C22.1456 52.3408 21.3896 52.1755 20.9916 51.6178C20.5936 51.06 20.6831 50.2913 21.1987 49.84L23.2361 48.0693L22.3347 48.6027C21.7472 48.9345 21.0043 48.7751 20.6047 48.2314C20.205 47.6876 20.2746 46.9311 20.7667 46.4693L24.6654 42.9067L22.0814 44.3973C21.5015 44.7234 20.77 44.5722 20.367 44.0429C19.964 43.5136 20.0128 42.7682 20.4814 42.296L26.3187 36.5173L22.0814 38.9333C21.4881 39.2773 20.7305 39.1151 20.3301 38.5583C19.9297 38.0014 20.0171 37.2316 20.5321 36.7787L23.6787 34.0053L22.0787 34.928C21.4868 35.2698 20.7322 35.1087 20.3316 34.5548C19.931 34.001 20.0141 33.2339 20.5241 32.7787L24.0307 29.6533L22.0814 30.7787C21.4928 31.1309 20.733 30.9791 20.3249 30.4277C19.9169 29.8763 19.9938 29.1053 20.5027 28.6453L25.2041 24.2667L22.0787 26.0693C21.4921 26.3881 20.7601 26.2237 20.366 25.6848C19.9718 25.1458 20.0371 24.3985 20.5187 23.936L24.3907 20.408L22.0787 21.7413C21.4783 22.0831 20.7162 21.9095 20.323 21.3415C19.9297 20.7734 20.0355 19.9991 20.5667 19.5573L21.6014 18.7093C21.1073 18.7772 20.6161 18.567 20.3241 18.1627C19.9253 17.6027 20.0177 16.8313 20.5374 16.3813L23.2281 14.048L22.0787 14.7093C21.69 14.9852 21.1837 15.0326 20.7505 14.8339C20.3173 14.6352 20.023 14.2205 19.9785 13.7459C19.934 13.2714 20.146 12.8092 20.5347 12.5333L21.8094 11.4667C21.3114 11.6217 20.7687 11.472 20.4205 11.0836C20.0723 10.6953 19.9825 10.1396 20.1907 9.66135L21.8681 5.79735C21.2308 5.90816 20.6059 5.54558 20.3858 4.93731C20.1658 4.32905 20.4141 3.65058 20.9747 3.32801L23.9801 1.60001C24.4778 1.31291 25.1035 1.37697 25.5327 1.75898C25.9619 2.14098 26.0981 2.755 25.8707 3.28268L24.2467 7.01601L32.7801 2.09335C33.3764 1.74908 34.1367 1.91548 34.5347 2.47735C34.9338 3.03916 34.839 3.81255 34.3161 4.26135L33.1854 5.22935L33.9241 4.80268C34.5185 4.46188 35.2745 4.62716 35.6725 5.18493C36.0706 5.74271 35.981 6.51136 35.4654 6.96268L32.7774 9.29601L33.9241 8.63468C34.5257 8.28482 35.2952 8.45654 35.691 9.02897C36.0868 9.60141 35.9758 10.382 35.4361 10.8213L34.4014 11.6693C34.8897 11.6052 35.3748 11.809 35.6707 12.2027C36.0717 12.7539 35.9924 13.5188 35.4867 13.976L31.6094 17.4747L33.9214 16.1413C34.51 15.7891 35.2698 15.9409 35.6779 16.4923C36.0859 17.0437 36.009 17.8148 35.5001 18.2747L30.8014 22.6667L33.9214 20.864C34.5133 20.5222 35.2679 20.6834 35.6685 21.2372C36.0691 21.7911 35.986 22.5582 35.4761 23.0133L31.9721 26.1333L33.9214 25.008C34.5137 24.6704 35.2653 24.8341 35.6637 25.3874C36.062 25.9407 35.9788 26.7054 35.4707 27.16L32.3241 29.936L33.9241 29.0133C34.5039 28.6873 35.2354 28.8385 35.6385 29.3678C36.0415 29.8971 35.9927 30.6425 35.5241 31.1147L29.6841 36.896L33.9187 34.4533C34.5063 34.1215 35.2492 34.2809 35.6488 34.8246C36.0485 35.3684 35.9789 36.125 35.4867 36.5867L31.5961 40.144L33.9187 38.8107C34.5132 38.4699 35.2692 38.6352 35.6672 39.1929C36.0652 39.7507 35.9757 40.5194 35.4601 40.9707L33.4147 42.7467L33.9214 42.456C34.4866 42.132 35.2032 42.2638 35.6161 42.7678C36.0289 43.2718 36.0171 44.0004 35.5881 44.4907L30.2174 50.6053L34.7774 47.976C35.3432 47.6521 36.0602 47.7847 36.4726 48.2896C36.885 48.7946 36.8718 49.5237 36.4414 50.0133L32.6601 54.28L37.2281 51.6427C37.7832 51.3213 38.4885 51.4407 38.9068 51.927C39.3252 52.4132 39.338 53.1284 38.9374 53.6293L35.0707 58.4613L42.1054 54.4C42.6924 54.0771 43.4279 54.2398 43.8238 54.7803C44.2197 55.3208 44.153 56.0711 43.6681 56.5333L42.3347 57.7467L49.4761 53.624C50.0705 53.2832 50.8265 53.4485 51.2245 54.0063C51.6226 54.564 51.533 55.3327 51.0174 55.784L47.1081 59.2L68.1961 47.0267C68.8129 46.671 69.6004 46.8628 69.9847 47.4623C70.3689 48.0618 70.2142 48.8574 69.6334 49.2693L64.1747 53.1387L67.1081 51.4427C67.7121 51.0982 68.4794 51.2758 68.8707 51.8505C69.262 52.4253 69.146 53.2043 68.6041 53.64L61.7561 59.0907L64.0094 57.792C64.4227 57.5293 64.9468 57.5143 65.3745 57.7529C65.8022 57.9916 66.0645 58.4456 66.0579 58.9353C66.0513 59.425 65.7767 59.8717 65.3427 60.0987L47.5881 70.3493C47.3901 70.4667 47.1648 70.5301 46.9347 70.5333Z" fill="#95D259"/>
<path d="M53.485 141.584C52.9153 141.585 52.4078 141.225 52.2217 140.686C52.0356 140.148 52.2121 139.551 52.661 139.2L55.413 137.045C55.0763 136.98 54.777 136.79 54.5756 136.512C54.1789 135.943 54.2844 135.165 54.8183 134.723L56.4796 133.333C55.8792 133.527 55.2256 133.273 54.913 132.725C54.6004 132.177 54.7144 131.485 55.1863 131.067L58.885 127.733L56.7516 128.968C56.1744 129.301 55.44 129.157 55.0317 128.63C54.6234 128.103 54.6667 127.356 55.133 126.88L61.4556 120.44L56.7463 123.168C56.1544 123.51 55.3998 123.349 54.9992 122.795C54.5986 122.241 54.6817 121.474 55.1916 121.019L58.6823 117.904L56.7463 119.021C56.1455 119.369 55.3781 119.198 54.9824 118.628C54.5867 118.057 54.6951 117.278 55.2316 116.837L56.2983 115.955C55.7019 116.056 55.1123 115.743 54.862 115.192C54.6117 114.641 54.7635 113.991 55.2316 113.608L56.205 112.808C55.741 112.846 55.2897 112.645 55.0076 112.275C54.6044 111.734 54.6685 110.977 55.157 110.512L60.1943 105.712L56.7276 107.704C56.1302 108.04 55.3753 107.868 54.982 107.307C54.5887 106.746 54.6851 105.978 55.205 105.531L56.805 104.197L56.741 104.232C56.1409 104.578 55.3757 104.407 54.9801 103.839C54.5844 103.27 54.6903 102.493 55.2236 102.051L56.3303 101.136C55.7389 101.253 55.1428 100.958 54.8763 100.418C54.6097 99.8771 54.739 99.2248 55.1916 98.8268L56.1436 97.9815C55.7704 98.0155 55.402 97.877 55.1436 97.6055C54.7122 97.1871 54.6139 96.5319 54.9036 96.0055L56.1223 93.7681C55.5567 93.6915 55.1025 93.2633 54.9928 92.7032C54.8831 92.143 55.142 91.5752 55.637 91.2908L58.6316 89.5655C59.1494 89.2657 59.8034 89.3475 60.2314 89.7655C60.6593 90.1836 60.7565 90.8355 60.469 91.3601L59.509 93.1228L65.6743 89.6001C66.2659 89.2635 67.0161 89.4266 67.4146 89.9784C67.8131 90.5303 67.7319 91.2937 67.2263 91.7494L66.8263 92.1068L68.3276 91.2401C68.9265 90.9014 69.6848 91.0741 70.0781 91.6387C70.4713 92.2033 70.3703 92.9745 69.845 93.4188L68.885 94.2188C69.4896 94.0454 70.1332 94.3182 70.4291 94.8733C70.725 95.4284 70.5927 96.1148 70.1116 96.5201L68.5116 97.8535L68.573 97.8215C69.1575 97.4881 69.8989 97.6425 70.3017 98.1816C70.7044 98.7207 70.6424 99.4754 70.157 99.9415L65.1196 104.741L68.573 102.747C69.1758 102.387 69.9539 102.557 70.3527 103.134C70.7515 103.712 70.6345 104.5 70.085 104.936L69.1116 105.736C69.5914 105.695 70.0569 105.911 70.3356 106.304C70.7295 106.874 70.6217 107.65 70.0876 108.091L69.021 108.973C69.609 108.87 70.1942 109.17 70.4535 109.707C70.7128 110.245 70.583 110.89 70.1356 111.285L66.645 114.4L68.581 113.283C69.1582 112.95 69.8926 113.094 70.3009 113.621C70.7092 114.148 70.6659 114.895 70.1996 115.371L63.877 121.811L68.581 119.093C69.1676 118.775 69.8996 118.939 70.2937 119.478C70.6879 120.017 70.6226 120.764 70.141 121.227L66.4396 124.533L68.573 123.296C69.1734 122.943 69.9442 123.112 70.3423 123.683C70.7405 124.255 70.6318 125.036 70.093 125.477L68.589 126.723C69.1985 126.368 69.9788 126.55 70.3694 127.137C70.7601 127.724 70.6261 128.513 70.0636 128.939L68.8956 129.851C69.4788 129.696 70.0935 129.952 70.3943 130.475C70.7607 131.112 70.5424 131.925 69.9063 132.293L54.1383 141.397C53.9403 141.515 53.7152 141.579 53.485 141.584Z" fill="#1F6FDA"/>
<path d="M45.7976 158.475C45.2316 158.475 44.7273 158.118 44.5395 157.584C44.3517 157.05 44.5215 156.456 44.9629 156.101L53.7789 149.035L39.4216 157.333C38.803 157.683 38.0191 157.486 37.6393 156.885C37.2594 156.285 37.417 155.492 37.9976 155.083L41.3149 152.789L35.7336 156C35.1706 156.325 34.4556 156.196 34.0409 155.696C33.6263 155.195 33.6327 154.469 34.0563 153.976L38.2536 149.096L31.1816 153.173C30.6117 153.511 29.8799 153.373 29.4723 152.851C29.0619 152.334 29.0914 151.595 29.5416 151.112L32.5923 147.837L28.2003 150.373C27.6332 150.701 26.9123 150.568 26.4991 150.06C26.086 149.552 26.1028 148.819 26.5389 148.331L30.0696 144.373L25.7069 146.891C25.1382 147.218 24.4158 147.083 24.0039 146.572C23.592 146.061 23.6131 145.327 24.0536 144.84L28.2269 140.237L23.7469 142.824C23.1543 143.167 22.3983 143.005 21.9978 142.45C21.5973 141.895 21.6825 141.126 22.1949 140.672L23.8776 139.176L22.7229 139.843C22.1348 140.184 21.3839 140.029 20.9803 139.481C20.5766 138.934 20.6496 138.17 21.1496 137.709L24.9869 134.155L22.2296 135.755C21.6426 136.078 20.9071 135.915 20.5112 135.374C20.1153 134.834 20.182 134.084 20.6669 133.621L24.5016 130.133L22.0803 131.528C21.4825 131.87 20.7229 131.7 20.3274 131.136C19.9319 130.573 20.0305 129.801 20.5549 129.355L22.1869 127.981L22.0803 128.043C21.5021 128.36 20.7786 128.208 20.3784 127.683C19.9781 127.159 20.0214 126.421 20.4803 125.947L26.5229 119.893L22.0909 122.451C21.5131 122.784 20.7779 122.639 20.37 122.111C19.962 121.583 20.0069 120.835 20.4749 120.36L26.7149 114.037L22.0909 116.704C21.4905 117.057 20.7197 116.888 20.3216 116.317C19.9234 115.745 20.0321 114.964 20.5709 114.523L21.8269 113.483C21.2296 113.674 20.5798 113.423 20.2659 112.88C19.952 112.337 20.059 111.649 20.5229 111.227L24.6189 107.467L22.0776 108.933C21.5003 109.247 20.7806 109.094 20.3816 108.572C19.9826 108.05 20.0234 107.315 20.4776 106.84L26.6669 100.557L22.0776 103.2C21.5216 103.518 20.8184 103.395 20.4026 102.908C19.9868 102.421 19.9757 101.708 20.3763 101.208L25.0056 95.4775L22.0723 97.1655C21.5442 97.4691 20.8775 97.3763 20.4525 96.9399C20.0274 96.5036 19.9522 95.8347 20.2696 95.3148L21.2323 93.7415C20.7292 93.582 20.3676 93.1408 20.3099 92.6163C20.2521 92.0917 20.5092 91.5825 20.9656 91.3174L23.9709 89.5841C24.499 89.2805 25.1657 89.3733 25.5907 89.8096C26.0158 90.246 26.091 90.9149 25.7736 91.4348L25.2856 92.2348L29.8776 89.5841C30.4338 89.2634 31.1395 89.3846 31.5569 89.8724C31.9742 90.3603 31.9846 91.0763 31.5816 91.5761L26.9469 97.3095L33.9123 93.2881C34.4909 92.9503 35.2305 93.0944 35.64 93.6248C36.0494 94.1552 36.0016 94.9072 35.5283 95.3815L29.3336 101.675L33.9309 99.0214C34.5182 98.6941 35.2573 98.8553 35.6551 99.3973C36.0528 99.9394 35.9847 100.693 35.4963 101.155L31.3896 104.904L33.9309 103.437C34.5302 103.093 35.2935 103.263 35.689 103.83C36.0846 104.397 35.9812 105.173 35.4509 105.616L34.1869 106.667C34.7711 106.483 35.4051 106.721 35.7244 107.244C36.0437 107.766 35.9661 108.439 35.5363 108.875L29.2963 115.2L33.9203 112.533C34.4984 112.216 35.2219 112.369 35.6222 112.893C36.0224 113.417 35.9791 114.156 35.5203 114.629L29.4723 120.688L33.9096 118.128C34.5074 117.787 35.2669 117.956 35.6625 118.52C36.058 119.083 35.9594 119.855 35.4349 120.301L33.8136 121.667L33.9096 121.613C34.4969 121.286 35.236 121.447 35.6337 121.989C36.0315 122.531 35.9634 123.285 35.4749 123.747L31.6376 127.232L33.9096 125.923C34.4977 125.581 35.2486 125.737 35.6523 126.284C36.0559 126.832 35.983 127.595 35.4829 128.056L31.6509 131.611L33.9123 130.304C34.5049 129.961 35.2609 130.123 35.6614 130.678C36.0619 131.234 35.9767 132.002 35.4643 132.456L33.7736 133.955L34.2616 133.675C34.8304 133.347 35.5528 133.483 35.9647 133.994C36.3765 134.504 36.3555 135.239 35.9149 135.725L31.7523 140.32L35.9176 137.92C36.4839 137.596 37.2014 137.73 37.6134 138.236C38.0253 138.741 38.0108 139.471 37.5789 139.96L34.0483 143.92L38.9763 141.067C39.5481 140.735 40.2764 140.873 40.688 141.39C41.0996 141.907 41.0702 142.648 40.6189 143.131L37.5656 146.4L43.6989 142.861C44.2619 142.537 44.9769 142.665 45.3916 143.166C45.8063 143.666 45.7998 144.393 45.3763 144.885L41.1789 149.763L68.2909 134.133C68.9104 133.773 69.704 133.967 70.0877 134.572C70.4714 135.177 70.3079 135.978 69.7176 136.384L66.4003 138.667L67.5923 137.979C68.1943 137.644 68.9522 137.823 69.341 138.392C69.7297 138.96 69.6214 139.731 69.0909 140.171L60.2909 147.237L64.6349 144.728C65.2721 144.366 66.0822 144.586 66.4486 145.221C66.8151 145.855 66.6006 146.667 65.9683 147.037L46.4616 158.293C46.2605 158.412 46.0312 158.475 45.7976 158.475Z" fill="#1F6FDA"/>
<path d="M91.1761 158.589C90.5992 158.596 90.0833 158.232 89.8976 157.685C89.7119 157.139 89.8985 156.536 90.3601 156.189L100.987 147.944L86.2588 156.451C85.665 156.79 84.9106 156.626 84.5124 156.069C84.1143 155.513 84.2017 154.746 84.7148 154.293L87.2934 152.035L86.0801 152.733C85.5829 153.019 84.9585 152.955 84.5298 152.574C84.101 152.193 83.964 151.581 84.1894 151.053L85.8854 147.112C85.3308 147.208 84.7746 146.951 84.4881 146.467C84.3105 146.16 84.2621 145.796 84.3536 145.454C84.4452 145.111 84.6692 144.82 84.9761 144.643L87.9761 142.933C88.4738 142.646 89.0995 142.71 89.5287 143.092C89.958 143.474 90.0942 144.088 89.8668 144.616L88.2268 148.435L97.7574 142.933C98.3502 142.6 99.0989 142.766 99.495 143.319C99.8912 143.872 99.8078 144.634 99.3014 145.088L96.7174 147.352L116.592 135.885C117.199 135.539 117.97 135.72 118.36 136.3C118.749 136.88 118.625 137.663 118.075 138.093L107.443 146.325L116.803 140.928C117.391 140.576 118.151 140.728 118.559 141.279C118.967 141.83 118.89 142.601 118.381 143.061L110.629 150.331L123.437 142.933C124.013 142.605 124.742 142.749 125.149 143.271C125.557 143.793 125.519 144.535 125.061 145.013L118.928 151.355L133.517 142.933C134.106 142.575 134.871 142.725 135.281 143.279C135.692 143.832 135.613 144.607 135.099 145.067L129.427 150.4L137.92 145.501C138.482 145.18 139.193 145.308 139.607 145.806C140.021 146.303 140.018 147.026 139.6 147.52L135.6 152.213L137.939 150.864C138.47 150.551 139.147 150.644 139.575 151.088C140.003 151.532 140.071 152.211 139.739 152.731L138.792 154.269C139.104 154.369 139.366 154.582 139.528 154.867C139.897 155.504 139.679 156.319 139.043 156.688L136.045 158.416C135.514 158.732 134.835 158.64 134.406 158.196C133.976 157.751 133.909 157.07 134.243 156.549L134.701 155.811L130.189 158.4C129.628 158.722 128.916 158.593 128.502 158.096C128.088 157.598 128.091 156.875 128.509 156.381L132.509 151.691L120.891 158.4C120.302 158.758 119.537 158.609 119.127 158.055C118.716 157.501 118.796 156.726 119.309 156.267L124.981 150.933L112.029 158.4C111.454 158.732 110.722 158.59 110.312 158.067C109.903 157.543 109.942 156.798 110.403 156.32L116.536 149.979L101.947 158.4C101.358 158.747 100.603 158.593 100.197 158.044C99.7916 157.494 99.8664 156.727 100.371 156.267L108.12 148.997L91.8428 158.4C91.6415 158.522 91.4113 158.587 91.1761 158.589Z" fill="#1F6FDA"/>
<path d="M120.599 105.256C119.996 105.256 119.467 104.851 119.311 104.268C119.155 103.685 119.41 103.07 119.932 102.768L137.922 92.3841C138.489 92.0603 139.207 92.1946 139.618 92.7014C140.03 93.2082 140.014 93.9384 139.58 94.4268L135.847 98.5681L137.914 97.3761C138.439 97.0764 139.1 97.168 139.525 97.5991C139.949 98.0302 140.03 98.6929 139.722 99.2135L138.711 100.907C139.228 101.051 139.609 101.492 139.676 102.025C139.743 102.558 139.483 103.079 139.018 103.347L136.028 105.067C135.502 105.371 134.837 105.281 134.411 104.848C133.985 104.414 133.905 103.748 134.218 103.227L134.804 102.248L129.916 105.067C129.349 105.391 128.632 105.256 128.22 104.749C127.808 104.243 127.824 103.512 128.258 103.024L131.991 98.8828L121.266 105.067C121.064 105.188 120.834 105.253 120.599 105.256Z" fill="#1F6FDA"/>
<path d="M106.493 143.63C105.949 143.627 105.462 143.296 105.26 142.791C105.058 142.286 105.183 141.71 105.576 141.334L108.112 138.934L107.416 139.334C106.827 139.68 106.072 139.526 105.666 138.977C105.26 138.428 105.335 137.661 105.84 137.2L107.832 135.334L107.416 135.574C106.829 135.892 106.097 135.728 105.703 135.189C105.309 134.65 105.374 133.903 105.856 133.44L107.114 132.304C106.576 132.459 105.999 132.261 105.669 131.808C105.267 131.258 105.346 130.493 105.85 130.035L107.184 128.843C106.581 129.044 105.92 128.792 105.604 128.24C105.289 127.689 105.406 126.991 105.885 126.574L106.744 125.824C106.215 125.818 105.74 125.5 105.532 125.014C105.325 124.527 105.425 123.965 105.786 123.579L110.178 118.883L107.426 120.47C106.856 120.801 106.128 120.665 105.716 120.15C105.304 119.634 105.33 118.895 105.778 118.411L110.365 113.435L107.432 115.131C106.812 115.485 106.023 115.288 105.642 114.685C105.261 114.081 105.424 113.284 106.01 112.878L109.97 110.134L107.413 111.608C106.798 111.961 106.016 111.771 105.63 111.177C105.245 110.582 105.392 109.79 105.965 109.374L112.002 105.011L107.373 107.678C106.767 108.026 105.995 107.848 105.603 107.269C105.212 106.691 105.333 105.907 105.882 105.475L111.13 101.368L104.701 105.078C104.124 105.41 103.391 105.267 102.982 104.741C102.573 104.215 102.615 103.469 103.08 102.992L109.184 96.7495L94.7836 105.07C94.1975 105.38 93.4722 105.213 93.0815 104.677C92.6909 104.141 92.7537 103.399 93.2289 102.936L98.3169 98.4028L87.3623 104.712C86.7626 105.063 85.994 104.895 85.596 104.325C85.198 103.756 85.304 102.976 85.8396 102.534L89.3356 99.6162L86.0876 101.483C85.4957 101.825 84.7411 101.663 84.3405 101.11C83.9399 100.556 84.023 99.7887 84.5329 99.3335L85.773 98.2295C85.3209 98.3502 84.8385 98.2281 84.4983 97.9068C84.0669 97.4981 83.9582 96.8531 84.2316 96.3255L85.549 93.8055C84.9639 93.7648 84.474 93.3466 84.3422 92.7751C84.2103 92.2036 84.4675 91.613 84.9756 91.3202L87.9863 89.5842C88.4997 89.2865 89.148 89.364 89.5768 89.7743C90.0056 90.1845 90.1117 90.8288 89.8369 91.3548L88.717 93.4882L95.5009 89.6002C96.087 89.2895 96.8124 89.4568 97.203 89.9929C97.5937 90.529 97.5309 91.2708 97.0556 91.7335L95.9889 92.6935L101.376 89.5842C101.974 89.2469 102.73 89.4191 103.124 89.982C103.517 90.545 103.418 91.3146 102.896 91.7602L99.405 94.6775L108.229 89.5842C108.815 89.2735 109.54 89.4408 109.931 89.9769C110.322 90.513 110.259 91.2548 109.784 91.7175L104.696 96.2508L116.269 89.6002C116.845 89.2716 117.576 89.4169 117.982 89.941C118.389 90.4651 118.349 91.2086 117.888 91.6855L111.781 97.9282L126.213 89.6002C126.819 89.2514 127.591 89.4295 127.983 90.0083C128.374 90.5871 128.253 91.3702 127.704 91.8028L122.458 95.9068L133.392 89.6002C134.006 89.2475 134.789 89.437 135.174 90.0315C135.559 90.6261 135.413 91.4181 134.84 91.8348L128.802 96.1842L137.632 91.0882C138.252 90.7203 139.053 90.913 139.438 91.5229C139.824 92.1329 139.654 92.9388 139.056 93.3415L118.522 107.475C118.68 107.938 118.571 108.449 118.24 108.808L113.653 113.784L116.586 112.088C117.159 111.757 117.888 111.895 118.299 112.413C118.71 112.931 118.679 113.673 118.226 114.155L113.834 118.851L116.589 117.251C117.182 116.916 117.932 117.083 118.328 117.637C118.724 118.192 118.639 118.955 118.13 119.408L117.272 120.158C117.822 120.162 118.313 120.504 118.508 121.019C118.703 121.534 118.561 122.115 118.152 122.483L116.818 123.672C117.418 123.469 118.078 123.716 118.397 124.263C118.717 124.81 118.607 125.506 118.136 125.928L116.874 127.064C117.467 126.895 118.098 127.153 118.401 127.689C118.705 128.225 118.602 128.9 118.152 129.32L116.165 131.187L116.576 130.952C117.164 130.594 117.929 130.744 118.34 131.297C118.75 131.851 118.671 132.626 118.157 133.086L115.626 135.486L116.576 134.952C117.209 134.621 117.99 134.848 118.348 135.466C118.706 136.085 118.512 136.876 117.909 137.259L107.144 143.478C106.944 143.584 106.719 143.636 106.493 143.63Z" fill="#1F6FDA"/>
<path d="M81.0075 68.0268C80.9755 68.4173 81.1571 68.7947 81.4822 69.0134C85.9715 71.9067 91.7589 71.8226 96.1622 68.8001C99.8075 65.9841 106.424 49.1654 110.597 49.5814C115.93 50.1148 120.485 65.7094 124.928 68.9281C129.419 71.8496 135.225 71.7929 139.658 68.7841C140.132 68.4763 140.383 67.9218 140.304 67.3628C139.893 61.7228 134.792 57.0188 131.597 52.5308C128.749 48.5308 119.864 40.0774 120.325 34.8321C120.749 30.0908 130.17 20.9921 132.89 17.1681C135.872 12.9761 139.949 9.18944 140.33 3.9681C140.362 3.57755 140.181 3.20019 139.856 2.98144C135.365 0.0897374 129.578 0.175943 125.176 3.2001C121.53 6.01077 114.914 22.8294 110.741 22.4001C105.408 21.8668 100.853 6.2721 96.4102 3.05344C91.9186 0.131893 86.1131 0.188645 81.6795 3.19744C81.2061 3.50524 80.9543 4.05977 81.0342 4.61877C81.1927 7.0754 82.1961 9.40158 83.8742 11.2028C84.9062 12.6534 88.5809 11.1388 87.4075 9.4881C82.5302 2.6321 90.6369 3.5921 94.4235 6.9441C99.0795 11.0694 101.128 18.1441 105.533 22.5628C110.688 27.7174 113.242 25.3921 117.218 20.1014C120.402 15.8641 123.426 8.5521 127.645 5.43477C128.802 4.5841 133.152 2.7681 134.744 4.08277C137.709 6.52544 135.168 7.48277 133.997 9.8641C130.064 17.8641 118.744 25.5548 116.712 34.1948C114.976 41.5814 126.368 51.8454 130.189 57.2161C131.89 59.6161 137.786 65.0988 135.074 67.8828C130.325 72.7468 123.149 59.7334 121.578 57.5281C118.088 52.6214 114.322 42.9708 107.224 47.6614C103.296 50.2588 93.7515 73.9414 86.5942 67.8801C81.4769 63.5441 101.746 44.3388 103.848 38.8934C106.805 31.2348 97.1409 23.1601 92.8795 17.1788C91.8475 15.7281 88.1702 17.2428 89.3462 18.8934C92.3942 23.1788 95.9409 27.3468 98.5862 31.8828C101.677 37.1894 100.437 37.9548 96.9195 42.9014C92.0022 49.8214 81.6422 59.3228 81.0075 68.0268Z" fill="#262626"/>
<path d="M36.5986 8.00012C36.2333 3.64545 36.3106 2.82145 31.9586 1.72545C29.4466 1.06679 22.452 1.02945 20.34 3.48812C17.852 6.38412 19.404 13.6881 19.404 17.0028C19.404 25.5361 19.268 34.1015 19.404 42.6428C19.684 60.5441 32.132 72.1548 50.036 69.6775C50.1026 69.6775 50.172 69.6641 50.2413 69.6561C50.3106 69.6481 50.3213 69.6561 50.3613 69.6561C50.4013 69.6561 50.452 69.6295 50.5 69.6215C50.628 69.5975 50.74 69.5894 50.884 69.5495C61.4029 66.9824 69.3416 58.3345 71.0013 47.6348C71.581 40.492 71.6701 33.3178 71.268 26.1628C71.268 25.2188 67.4066 25.8641 67.4066 27.1975C67.4066 42.6935 69.628 62.3175 50.6573 67.8668C23.2546 71.6935 23.2653 45.8295 23.2653 27.4135C23.2653 21.9015 21.2493 11.8535 23.2653 6.68012C25.036 2.13345 30.668 2.26945 32.7373 7.20012C34.556 11.5441 32.7373 20.9815 32.7373 25.6295C32.7373 31.8241 32.1133 38.3921 32.7373 44.5628C33.9613 56.6641 44.7213 59.7041 53.9106 53.5468C54.0785 53.4554 54.2143 53.3149 54.3 53.1441C59.2226 48.1468 57.932 40.6108 57.932 34.1601V7.49345C57.932 6.34145 57.6786 4.29345 58.4066 3.62945C60.7016 3.24251 63.0451 3.24251 65.34 3.62945C68.9426 5.25612 67.3933 13.2748 67.3933 16.5255C67.3933 17.4695 71.2546 16.8241 71.2546 15.4908C71.2546 11.3335 73.2626 2.88012 67.8706 1.73878C64.7506 1.06678 56.6546 0.685452 54.588 4.02945C52.58 7.27479 54.0706 14.4748 54.0706 18.0161V35.1841C54.0706 41.2455 55.3453 48.5174 50.7506 53.2081C35.7373 63.1441 36.5986 39.9548 36.5986 33.3361C36.5986 24.9841 37.2973 16.3095 36.5986 8.00012Z" fill="#262626"/>
<path d="M67.1049 89.3334C62.5715 88.3281 55.3715 88.4961 54.0382 93.7601C52.4622 100.064 54.0382 108.835 54.0382 115.272C54.3585 122.241 54.2463 129.224 53.7022 136.179C53.2169 137.868 52.2834 139.394 51.0009 140.595C33.0035 152.491 36.6009 112.523 36.6009 107.853C36.6009 103.704 38.7342 93.4294 35.0009 90.2081C32.2889 87.8694 22.5902 88.2188 20.2649 91.2748C16.6835 95.9761 19.3689 109.461 19.3689 114.813C19.3689 133.805 19.6542 159.989 46.2355 158.635C70.8942 157.376 71.2729 133.107 71.2729 114.512C71.2729 112.571 67.3689 113.203 67.3689 114.843C67.3689 120.747 67.8009 126.805 67.3689 132.685C66.3849 146.091 56.6489 158.515 41.1609 155.277C31.8826 153.208 24.849 145.619 23.4889 136.211C22.3369 129.256 23.2729 121.485 23.2729 114.48C23.2729 110.525 20.8382 96.5894 23.2729 93.3974C26.0358 91.0736 30.1088 91.2164 32.7022 93.7281C33.6489 95.1521 32.7022 100.597 32.7022 102.261C32.7022 110.923 32.5555 119.595 32.7022 128.253C32.9129 140.595 41.2169 150.483 53.6435 142.155C53.7444 142.074 53.8381 141.985 53.9235 141.888C53.9395 141.872 53.9635 141.861 53.9795 141.845C53.9955 141.829 54.0275 141.792 54.0542 141.765C54.1184 141.709 54.1773 141.646 54.2302 141.579C55.8506 139.999 57.0158 138.012 57.6035 135.827C58.9849 124.864 57.9395 113.291 57.9395 102.256C57.9395 97.9574 56.3529 93.0321 60.8302 92.0028C69.2809 90.0614 67.3689 98.4908 67.3689 104.157C67.3689 106.099 71.2729 105.467 71.2729 103.827C71.2862 98.7468 73.4862 90.7361 67.1049 89.3334Z" fill="#262626"/>
<path d="M123.366 104.981C126.902 104.072 131.07 105.648 134.67 104.981C137.796 104.405 139.366 104.056 140.59 101.056C145.614 88.7441 134.03 89.6854 126.638 89.6854H101.228C97.5423 89.6854 91.5743 88.4854 88.0383 89.7788C81.4196 92.1974 80.8383 102.664 87.5049 104.979C92.8649 106.845 101.238 101.832 104.748 107.432C107.038 111.091 104.748 124.168 104.748 128.376C104.748 132.787 106.348 141.059 102.774 143.016C98.3609 145.429 90.9583 140.819 86.3396 143.72C80.6809 147.277 81.9503 156.875 88.4276 158.312C94.1209 159.576 101.425 158.312 107.246 158.312C115.534 158.312 124.124 159.008 132.382 158.312C134.769 158.112 137.87 158.675 139.676 156.523C141.676 154.139 141.404 145.933 139.449 143.912C135.497 139.824 125.521 145.763 121.342 143.016C116.657 139.936 119.276 127.16 119.276 122.147C119.276 121.155 115.414 121.816 115.414 123.181C115.414 129.683 112.214 142.283 119.23 144.979C123.308 146.547 131.094 142.64 134.681 144.979C137.177 146.608 137.081 149.664 136.748 152.365C136.278 156.077 137.145 155.144 134.548 156.349C130.854 158.059 122.118 156.349 118.081 156.349H95.8143C90.8836 156.349 88.6329 157.357 87.2649 152.323C84.7023 142.872 92.6596 145.139 99.0703 144.979C106.004 144.808 108.102 144.203 108.598 137.208C109.041 130.992 108.598 124.581 108.598 118.349C108.598 115.317 110.07 107.904 108.209 105.203C103.11 97.8001 89.3689 109.069 87.2649 98.0028C86.0356 91.5281 87.9423 91.6508 93.2756 91.6508H115.201C119.734 91.6508 129.932 89.6294 134.017 91.6508C136.633 92.9441 136.342 93.8588 136.734 96.6694C137.452 101.851 136.697 102.096 132.633 103.021C122.606 105.301 115.401 99.0961 115.401 112.52C115.401 113.512 119.262 112.851 119.262 111.485C119.265 105.579 118.836 106.149 123.366 104.981Z" fill="#262626"/>
<path d="M158.057 78.7974H3.39046C1.79046 78.7974 -0.65754 81.1974 1.94513 81.1974H156.612C158.204 81.2027 160.66 78.7974 158.057 78.7974Z" fill="#262626"/>
</svg>
