<svg width="105" height="104" viewBox="0 0 105 104" fill="none" xmlns="http://www.w3.org/2000/svg">
<g clip-path="url(#clip0_1132_71104)">
<path d="M54.8253 83.954C54.6373 83.9542 54.4544 83.8932 54.3041 83.7803C54.1538 83.6674 54.0443 83.5087 53.9921 83.3282C53.9398 83.1476 53.9477 82.9549 54.0146 82.7793C54.0814 82.6036 54.2035 82.4544 54.3625 82.3541L66.5669 74.6269L50.6497 83.8136C50.4535 83.9258 50.2212 83.9568 50.0024 83.9001C49.7836 83.8434 49.5956 83.7035 49.4785 83.5102C49.3613 83.3169 49.3244 83.0855 49.3754 82.8653C49.4265 82.6451 49.5616 82.4536 49.7519 82.3316L65.1456 72.6007L46.5296 83.3473C46.3331 83.4666 46.0972 83.503 45.8739 83.4484C45.6506 83.3937 45.4581 83.2527 45.3388 83.0561C45.2195 82.8596 45.1832 82.6237 45.2378 82.4004C45.2924 82.1771 45.4335 81.9846 45.63 81.8653L67.0523 68.1997L42.3696 82.4477C42.1744 82.5537 41.9459 82.5807 41.7314 82.5231C41.5169 82.4654 41.3326 82.3277 41.2168 82.1382C41.1009 81.9487 41.0622 81.7219 41.1087 81.5047C41.1551 81.2875 41.2832 81.0964 41.4665 80.9709L69.16 63.0431L37.9739 81.0472C37.7775 81.1572 37.546 81.1865 37.3284 81.1289C37.1108 81.0713 36.9242 80.9313 36.808 80.7386C36.6918 80.5458 36.6551 80.3154 36.7058 80.096C36.7565 79.8767 36.8905 79.6857 37.0794 79.5635L58.4601 66.0712L34.7793 79.7437C34.5821 79.8619 34.346 79.8968 34.123 79.8409C33.9 79.785 33.7084 79.6428 33.5903 79.4456C33.4721 79.2484 33.4371 79.0123 33.4931 78.7893C33.549 78.5663 33.6912 78.3747 33.8884 78.2565L46.3979 70.512L32.3579 78.6136C32.1611 78.7271 31.9276 78.7587 31.7077 78.7018C31.4878 78.6449 31.2991 78.5039 31.1821 78.3092C31.0651 78.1145 31.0292 77.8817 31.0821 77.6608C31.1351 77.4399 31.2726 77.2486 31.4652 77.1281L49.5889 65.8164L29.7665 77.2564C29.5703 77.3685 29.338 77.3996 29.1192 77.3429C28.9004 77.2862 28.7124 77.1463 28.5953 76.953C28.4781 76.7597 28.4412 76.5283 28.4922 76.3081C28.5433 76.0879 28.6784 75.8964 28.8687 75.7744L53.3312 60.32L26.9117 75.5733C26.7143 75.6912 26.4781 75.7259 26.2551 75.6697C26.0321 75.6134 25.8406 75.4709 25.7227 75.2735C25.6047 75.076 25.5701 74.8398 25.6263 74.6168C25.6826 74.3938 25.8251 74.2023 26.0225 74.0844L38.3188 66.4941L24.8647 74.2612C24.6672 74.3789 24.4311 74.4133 24.2083 74.3569C23.9854 74.3005 23.7941 74.1579 23.6765 73.9605C23.5588 73.763 23.5243 73.5269 23.5807 73.3041C23.6371 73.0813 23.7797 72.89 23.9772 72.7723L32.4047 67.6L23.0256 73.0115C22.8298 73.1161 22.6012 73.1416 22.3872 73.0827C22.1731 73.0238 21.9898 72.885 21.8751 72.6949C21.7603 72.5048 21.723 72.278 21.7706 72.0611C21.8183 71.8442 21.9473 71.6539 22.1312 71.5295L45.9923 56.5067L20.5487 71.1949C20.3531 71.3025 20.1236 71.3304 19.908 71.273C19.6923 71.2156 19.5072 71.0772 19.391 70.8867C19.2748 70.6961 19.2367 70.4681 19.2844 70.2501C19.3322 70.0321 19.4621 69.841 19.6473 69.7164L48.9632 50.9739L17.7563 68.9867C17.5588 69.0992 17.3251 69.1296 17.1054 69.0715C16.8857 69.0133 16.6976 68.8712 16.5817 68.6757C16.4658 68.4803 16.4313 68.2471 16.4856 68.0264C16.54 67.8058 16.6788 67.6153 16.8723 67.496L20.0096 65.5789L16.2656 67.7439C16.0696 67.8517 15.8395 67.8795 15.6234 67.8215C15.4074 67.7636 15.2221 67.6243 15.1063 67.4329C14.9906 67.2415 14.9533 67.0127 15.0024 66.7945C15.0514 66.5762 15.1829 66.3854 15.3694 66.2619L38.1056 51.9653L14.1006 65.832C13.9039 65.9508 13.668 65.9866 13.4448 65.9315C13.2217 65.8764 13.0296 65.735 12.9107 65.5382C12.7919 65.3414 12.7561 65.1055 12.8112 64.8824C12.8663 64.6592 13.0078 64.4671 13.2045 64.3483L35.5056 50.3152L12.0085 63.8768C11.8113 63.9949 11.5752 64.0299 11.3522 63.974C11.1292 63.9181 10.9376 63.7759 10.8194 63.5787C10.7013 63.3815 10.6663 63.1454 10.7223 62.9224C10.7782 62.6994 10.9204 62.5077 11.1176 62.3896L24.8317 53.8876L10.3497 62.2475C10.1533 62.3575 9.92188 62.3868 9.70429 62.3292C9.48669 62.2716 9.30005 62.1316 9.18384 61.9388C9.06764 61.7461 9.03099 61.5156 9.08166 61.2963C9.13232 61.077 9.26633 60.886 9.45532 60.7637L28.0817 49.0949L8.53145 60.3824C8.33457 60.4933 8.10214 60.5229 7.88373 60.465C7.66531 60.407 7.47818 60.266 7.36221 60.0721C7.24625 59.8781 7.21062 59.6465 7.26293 59.4267C7.31525 59.2069 7.45135 59.0161 7.64225 58.8952L15.2845 54.184L7.13785 58.8883C6.94148 58.9983 6.71001 59.0276 6.49242 58.97C6.27483 58.9124 6.08818 58.7724 5.97197 58.5796C5.85577 58.3869 5.81912 58.1564 5.86979 57.9371C5.92046 57.7178 6.05446 57.5268 6.24345 57.4045L24.8924 45.6612L5.38372 56.9227C5.18696 57.0417 4.95097 57.0778 4.72765 57.0228C4.50433 56.9679 4.31198 56.8265 4.19292 56.6297C4.07385 56.433 4.03782 56.197 4.09276 55.9737C4.1477 55.7504 4.28909 55.558 4.48585 55.4389L22.9979 43.732L3.66252 54.8947C3.46639 55.0096 3.23295 55.0429 3.01252 54.9873C2.79209 54.9318 2.60231 54.7918 2.48409 54.5977C2.36586 54.4035 2.32865 54.1707 2.38049 53.9493C2.43232 53.728 2.56904 53.5359 2.76118 53.4144L23.998 39.7592L3.00905 51.8769C2.81367 51.9981 2.57818 52.0366 2.35437 51.9841C2.13057 51.9316 1.93678 51.7924 1.81565 51.597C1.69452 51.4016 1.65596 51.1661 1.70845 50.9423C1.76095 50.7185 1.90021 50.5247 2.09558 50.4036L23.9547 35.9095L9.18838 44.434C8.99604 44.5444 8.7687 44.5768 8.55316 44.5247C8.33762 44.4725 8.15027 44.3397 8.02967 44.1536C7.90908 43.9675 7.86442 43.7422 7.90488 43.5242C7.94534 43.3062 8.06785 43.1119 8.24718 42.9815L21.5835 33.3389C21.4281 33.3437 21.2744 33.3058 21.139 33.2295C21.0037 33.1531 20.8918 33.0411 20.8156 32.9056C20.7012 32.7067 20.6704 32.4706 20.7298 32.249C20.7893 32.0274 20.9342 31.8384 21.1328 31.7235L34.5262 23.9893C34.7186 23.879 34.9459 23.8465 35.1615 23.8987C35.377 23.9508 35.5644 24.0836 35.685 24.2697C35.8056 24.4558 35.8502 24.6811 35.8098 24.8991C35.7693 25.1172 35.6468 25.3114 35.4674 25.4419L22.9771 34.4725L47.3096 20.4221C47.505 20.301 47.7405 20.2624 47.9643 20.3149C48.1881 20.3674 48.3819 20.5067 48.503 20.7021C48.6241 20.8974 48.6627 21.1329 48.6102 21.3567C48.5577 21.5806 48.4184 21.7743 48.2231 21.8955L26.3588 36.4L54.4648 20.1743C54.6605 20.0628 54.892 20.032 55.11 20.0883C55.3281 20.1445 55.5157 20.2835 55.6331 20.4757C55.7505 20.6679 55.7885 20.8983 55.739 21.118C55.6895 21.3377 55.5564 21.5295 55.3679 21.6528L34.1189 35.3132L59.3372 20.7532C59.5332 20.6454 59.7633 20.6176 59.9794 20.6755C60.1954 20.7335 60.3807 20.8728 60.4964 21.0642C60.6122 21.2556 60.6494 21.4844 60.6004 21.7026C60.5514 21.9209 60.4198 22.1117 60.2333 22.2352L41.7283 33.9369L63.1089 21.5939C63.3049 21.4861 63.535 21.4583 63.7511 21.5162C63.9671 21.5742 64.1524 21.7134 64.2682 21.9048C64.3839 22.0963 64.4212 22.325 64.3721 22.5433C64.3231 22.7615 64.1916 22.9524 64.0051 23.0759L45.3683 34.814L66.4595 22.6373C66.6563 22.5264 66.8888 22.4968 67.1072 22.5548C67.3256 22.6127 67.5127 22.7537 67.6287 22.9477C67.7447 23.1416 67.7803 23.3732 67.728 23.593C67.6757 23.8129 67.5396 24.0036 67.3487 24.1245L59.696 28.8427L68.8827 23.5404C69.0794 23.4269 69.3129 23.3953 69.5328 23.4522C69.7527 23.5091 69.9414 23.6501 70.0584 23.8448C70.1754 24.0395 70.2113 24.2723 70.1584 24.4932C70.1054 24.7141 69.9679 24.9054 69.7753 25.0259L51.1524 36.6895L71.7513 24.7971C71.9476 24.6922 72.1767 24.6669 72.3912 24.7264C72.6056 24.7858 72.789 24.9255 72.9032 25.1164C73.0175 25.3073 73.054 25.5349 73.0051 25.752C72.9562 25.9691 72.8257 26.1591 72.6405 26.2825L58.9212 34.7897L74.1589 26C74.3557 25.8812 74.5916 25.8454 74.8147 25.9005C75.0379 25.9556 75.23 26.097 75.3489 26.2938C75.4677 26.4906 75.5035 26.7265 75.4484 26.9496C75.3933 27.1728 75.2518 27.3649 75.0551 27.4837L52.7644 41.5064L76.9479 27.5461C77.1437 27.4415 77.3722 27.416 77.5863 27.4749C77.8003 27.5338 77.9837 27.6726 78.0984 27.8627C78.2131 28.0528 78.2505 28.2796 78.2028 28.4965C78.1552 28.7134 78.0261 28.9037 77.8423 29.0281L55.1183 43.3195L79.6155 29.1772C79.8125 29.0683 80.0441 29.0403 80.2614 29.0992C80.4787 29.158 80.6645 29.2991 80.7796 29.4926C80.8947 29.686 80.93 29.9167 80.8781 30.1357C80.8261 30.3548 80.6909 30.545 80.5012 30.6661L77.3396 32.5867L81.3072 30.2952C81.5033 30.1803 81.7368 30.147 81.9572 30.2025C82.1776 30.2581 82.3674 30.398 82.4856 30.5922C82.6039 30.7864 82.6411 31.0192 82.5892 31.2405C82.5374 31.4619 82.4007 31.654 82.2085 31.7755L52.8875 50.5232L84.2608 32.4099C84.4572 32.2998 84.6886 32.2705 84.9062 32.3281C85.1238 32.3857 85.3105 32.5257 85.4267 32.7185C85.5429 32.9113 85.5795 33.1417 85.5288 33.361C85.4782 33.5803 85.3442 33.7713 85.1552 33.8936L61.2889 48.9216L86.6632 34.2715C86.8606 34.1538 87.0967 34.1194 87.3196 34.1758C87.5424 34.2321 87.7337 34.3748 87.8514 34.5722C87.9691 34.7696 88.0035 35.0058 87.9471 35.2286C87.8907 35.4514 87.7481 35.6427 87.5507 35.7604L79.1371 40.9275L88.3151 35.6304C88.5119 35.5195 88.7444 35.4899 88.9628 35.5478C89.1812 35.6058 89.3683 35.7468 89.4843 35.9407C89.6003 36.1347 89.6359 36.3663 89.5836 36.5861C89.5313 36.806 89.3952 36.9967 89.2043 37.1176L76.9149 44.7044L90.0501 37.1211C90.2461 37.0133 90.4762 36.9855 90.6923 37.0434C90.9083 37.1014 91.0936 37.2406 91.2094 37.432C91.3251 37.6235 91.3624 37.8522 91.3133 38.0705C91.2643 38.2887 91.1328 38.4796 90.9463 38.6031L66.4941 54.0575L92.3 39.1508C92.4961 39.0445 92.7257 39.018 92.9409 39.0767C93.1561 39.1355 93.3404 39.2749 93.4554 39.4661C93.5704 39.6572 93.6073 39.8853 93.5583 40.103C93.5094 40.3206 93.3784 40.511 93.1927 40.6345L75.0603 51.9619L94.1581 40.9361C94.355 40.8252 94.5874 40.7956 94.8058 40.8536C95.0243 40.9115 95.2114 41.0525 95.3274 41.2465C95.4433 41.4404 95.479 41.672 95.4266 41.8918C95.3743 42.1117 95.2382 42.3024 95.0473 42.4233L82.5795 50.1436L95.7528 42.536C95.9495 42.4172 96.1854 42.3814 96.4086 42.4365C96.6318 42.4916 96.8239 42.633 96.9427 42.8298C97.0616 43.0266 97.0974 43.2625 97.0423 43.4856C96.9872 43.7088 96.8457 43.9009 96.6489 44.0197L75.2423 57.5293L97.6941 44.5692C97.8893 44.4632 98.1178 44.4363 98.3323 44.4939C98.5468 44.5515 98.7311 44.6893 98.8469 44.8788C98.9628 45.0683 99.0015 45.295 98.955 45.5122C98.9086 45.7294 98.7805 45.9205 98.5972 46.046L70.9124 63.9721L100.032 47.1588C100.228 47.0493 100.459 47.0201 100.676 47.0772C100.893 47.1344 101.079 47.2734 101.196 47.4652C101.312 47.657 101.35 47.8865 101.301 48.1054C101.252 48.3243 101.119 48.5156 100.932 48.6391L79.5219 62.3029L101.875 49.4C102.071 49.2922 102.301 49.2644 102.517 49.3223C102.733 49.3803 102.918 49.5196 103.034 49.711C103.15 49.9024 103.187 50.1312 103.138 50.3494C103.089 50.5677 102.958 50.7585 102.771 50.882L87.3583 60.6216L102.369 51.9549C102.565 51.8471 102.795 51.8193 103.011 51.8773C103.227 51.9352 103.412 52.0745 103.528 52.2659C103.644 52.4573 103.681 52.6861 103.632 52.9043C103.583 53.1226 103.452 53.3134 103.265 53.4369L91.0624 61.1641L98.8485 56.6696C99.0441 56.5559 99.2765 56.5231 99.4959 56.5784C99.7153 56.6337 99.9044 56.7726 100.023 56.9654C100.141 57.1582 100.179 57.3897 100.129 57.6104C100.079 57.8311 99.945 58.0235 99.7551 58.1464L88.1417 65.7367L92.3295 63.3187C92.5238 63.2079 92.7534 63.1766 92.9703 63.2312C93.1872 63.2859 93.3746 63.4223 93.4933 63.6119C93.6119 63.8015 93.6527 64.0297 93.607 64.2487C93.5613 64.4676 93.4327 64.6604 93.2481 64.7868L84.3111 70.8535C84.3963 70.9192 84.4671 71.0018 84.5191 71.0961C84.6334 71.295 84.6643 71.5312 84.6048 71.7528C84.5453 71.9744 84.4004 72.1633 84.2019 72.2783L70.8101 80.0107C70.6162 80.117 70.389 80.1451 70.175 80.0894C69.9611 80.0336 69.7765 79.8982 69.6591 79.7108C69.5417 79.5234 69.5004 79.2983 69.5435 79.0814C69.5868 78.8645 69.7112 78.6724 69.8915 78.5443L72.5365 76.7468L61.8159 82.9365C61.6218 83.038 61.3966 83.0622 61.1854 83.0043C60.9742 82.9465 60.7927 82.8109 60.6775 82.6247C60.5622 82.4385 60.5217 82.2156 60.5641 82.0008C60.6064 81.786 60.7285 81.5951 60.9059 81.4667L72.5036 73.8885L55.2656 83.8361C55.132 83.914 54.98 83.9547 54.8253 83.954Z" fill="#E1EFFF"/>
<path d="M54.5095 83.9644C54.3249 83.9647 54.1451 83.9061 53.9962 83.7971C53.8473 83.6881 53.737 83.5344 53.6815 83.3584C53.626 83.1824 53.6281 82.9933 53.6876 82.8186C53.747 82.6439 53.8607 82.4927 54.012 82.3871L66.9444 73.3408L49.0269 83.6836C48.8314 83.7912 48.6019 83.8191 48.3863 83.7617C48.1706 83.7043 47.9855 83.5659 47.8693 83.3753C47.7531 83.1848 47.715 82.9568 47.7627 82.7388C47.8104 82.5208 47.9404 82.3296 48.1256 82.2051L53.1869 78.9603L45.8203 83.2104C45.6261 83.318 45.398 83.3469 45.1831 83.2913C44.9682 83.2356 44.7829 83.0997 44.6653 82.9114C44.5477 82.7231 44.5068 82.4969 44.5511 82.2794C44.5954 82.0618 44.7215 81.8696 44.9033 81.7423L64.3167 68.6487L41.0536 82.0751C40.8579 82.1865 40.6265 82.2174 40.4084 82.1611C40.1903 82.1048 40.0027 81.9659 39.8853 81.7736C39.7679 81.5814 39.7299 81.3511 39.7794 81.1314C39.8289 80.9116 39.962 80.7198 40.1505 80.5966L55.3172 70.8171L37.7603 80.9588C37.5638 81.0671 37.333 81.0949 37.1164 81.0364C36.8998 80.978 36.7143 80.8378 36.5989 80.6455C36.4836 80.4531 36.4473 80.2234 36.4977 80.0049C36.5481 79.7863 36.6813 79.5957 36.8693 79.4734L41.0935 76.8422L35.5069 80.0627C35.3112 80.1741 35.0798 80.205 34.8617 80.1487C34.6436 80.0924 34.456 79.9535 34.3386 79.7612C34.2212 79.569 34.1832 79.3387 34.2328 79.119C34.2823 78.8992 34.4154 78.7074 34.6039 78.5842L54.0172 66.1042L32.6313 78.4594C32.4347 78.566 32.2045 78.5925 31.9888 78.5332C31.7731 78.474 31.5886 78.3337 31.474 78.1416C31.3594 77.9495 31.3235 77.7206 31.3738 77.5026C31.4241 77.2847 31.5567 77.0946 31.7439 76.9722L36.1067 74.2716L31.0991 77.1628C30.9016 77.2807 30.6654 77.3154 30.4424 77.2592C30.2195 77.2029 30.0279 77.0604 29.91 76.863C29.7921 76.6655 29.7574 76.4293 29.8137 76.2063C29.8699 75.9833 30.0124 75.7918 30.2099 75.6739L34.0561 73.2992L29.6899 75.8195C29.4931 75.933 29.2597 75.9646 29.0398 75.9077C28.8199 75.8508 28.6311 75.7098 28.5141 75.5151C28.3971 75.3204 28.3612 75.0876 28.4142 74.8667C28.4671 74.6458 28.6047 74.4545 28.7972 74.334L38.8505 68.0767L28.2079 74.2214C28.0128 74.3288 27.7839 74.357 27.5685 74.3002C27.3532 74.2433 27.168 74.1057 27.0514 73.916C26.9348 73.7263 26.8957 73.4989 26.9423 73.2811C26.9888 73.0633 27.1174 72.8718 27.3013 72.7463L54.4956 55.0663L26.0776 71.4671C25.8827 71.5717 25.6552 71.5978 25.4416 71.5401C25.2281 71.4824 25.0447 71.3452 24.929 71.1566C24.8133 70.9681 24.7741 70.7424 24.8195 70.5259C24.8648 70.3094 24.9912 70.1184 25.1728 69.992L52.4069 52.312L24.2767 68.5551C24.0806 68.67 23.8471 68.7033 23.6267 68.6478C23.4063 68.5922 23.2165 68.4523 23.0983 68.2581C22.98 68.0639 22.9428 67.8311 22.9947 67.6098C23.0465 67.3884 23.1832 67.1963 23.3753 67.0748L48.1742 51.1282L22.8865 65.7228C22.6905 65.8306 22.4604 65.8584 22.2444 65.8005C22.0283 65.7425 21.8431 65.6033 21.7273 65.4119C21.6116 65.2204 21.5743 64.9917 21.6233 64.7734C21.6724 64.5552 21.8039 64.3643 21.9904 64.2408L40.3048 52.6656L21.9488 63.2667C21.7536 63.3727 21.5251 63.3996 21.3106 63.342C21.0961 63.2844 20.9119 63.1466 20.796 62.9571C20.6801 62.7676 20.6414 62.5409 20.6879 62.3237C20.7344 62.1065 20.8625 61.9154 21.0457 61.7899L45.8913 45.7098L21.0457 60.0496C20.8495 60.1694 20.6136 60.2063 20.3901 60.1521C20.1667 60.098 19.9738 59.9573 19.8541 59.761C19.7343 59.5647 19.6975 59.3289 19.7516 59.1054C19.8057 58.8819 19.9464 58.6891 20.1427 58.5694L41.454 44.876L20.4928 56.9747C20.2963 57.0829 20.0655 57.1107 19.8489 57.0523C19.6323 56.9939 19.4469 56.8537 19.3315 56.6613C19.2161 56.4689 19.1798 56.2393 19.2302 56.0207C19.2807 55.8021 19.4139 55.6116 19.6019 55.4892L25.8991 51.5684L20.2831 54.8098C20.0873 54.9144 19.8587 54.9399 19.6447 54.881C19.4306 54.8221 19.2473 54.6833 19.1326 54.4932C19.0178 54.3031 18.9804 54.0762 19.0281 53.8594C19.0758 53.6425 19.2048 53.4522 19.3887 53.3278L30.2359 46.4794L20.2345 52.2531C20.0384 52.3593 19.8088 52.3859 19.5936 52.3272C19.3784 52.2684 19.1941 52.129 19.0791 51.9378C18.9641 51.7467 18.9273 51.5186 18.9762 51.3009C19.0251 51.0833 19.1561 50.8929 19.3419 50.7694L22.0788 49.062L20.3455 50.0656C20.1501 50.1868 19.9146 50.2253 19.6908 50.1728C19.467 50.1203 19.2732 49.9811 19.1521 49.7857C19.0309 49.5903 18.9924 49.3548 19.0449 49.131C19.0974 48.9072 19.2366 48.7134 19.432 48.5923L37.7603 36.4278L20.8949 46.1639C20.7009 46.273 20.4723 46.3033 20.2566 46.2484C20.0408 46.1936 19.8544 46.0578 19.7361 45.8692C19.6177 45.6807 19.5765 45.4538 19.6209 45.2356C19.6653 45.0175 19.7919 44.8248 19.9745 44.6975L36.5989 33.3632L22.1325 41.7144C21.9376 41.8235 21.7081 41.853 21.4919 41.7969C21.2757 41.7409 21.0895 41.6035 20.9721 41.4135C20.8547 41.2234 20.8153 40.9954 20.8619 40.777C20.9086 40.5586 21.0378 40.3666 21.2225 40.2411L26.5508 36.7467L23.4637 38.5286C23.2726 38.6365 23.0475 38.6679 22.8341 38.6163C22.6207 38.5648 22.4348 38.4341 22.314 38.2508C22.1931 38.0675 22.1464 37.8451 22.1832 37.6287C22.22 37.4122 22.3375 37.2178 22.5121 37.0847L32.3748 29.6851L26.9651 32.8051C26.7757 32.9152 26.5516 32.9495 26.338 32.901C26.1244 32.8526 25.937 32.7251 25.8136 32.5441C25.6901 32.3632 25.6398 32.1422 25.6727 31.9256C25.7056 31.709 25.8193 31.513 25.9909 31.3768L30.3867 27.879C30.3397 27.8292 30.299 27.7739 30.2653 27.7143C30.151 27.5154 30.1201 27.2793 30.1796 27.0577C30.2391 26.8361 30.384 26.6471 30.5826 26.5322L36.1119 23.3394C36.3013 23.2293 36.5253 23.195 36.739 23.2434C36.9526 23.2918 37.14 23.4193 37.2634 23.6003C37.3868 23.7813 37.4372 24.0023 37.4042 24.2188C37.3713 24.4354 37.2576 24.6315 37.086 24.7676L36.2003 25.48L44.0003 20.9734C44.1916 20.863 44.4177 20.8298 44.6327 20.8805C44.8476 20.9313 45.035 21.0622 45.1567 21.2465C45.2784 21.4307 45.3251 21.6545 45.2874 21.8721C45.2496 22.0897 45.1303 22.2847 44.9536 22.4172L35.0961 29.8134L51.8887 20.1067C52.0835 20.0007 52.3114 19.9734 52.5257 20.0304C52.74 20.0874 52.9243 20.2244 53.0407 20.4132C53.157 20.6019 53.1966 20.8281 53.1513 21.0451C53.1059 21.2622 52.9791 21.4536 52.797 21.58L47.4548 25.0883L55.7973 20.28C55.9914 20.1709 56.22 20.1406 56.4357 20.1955C56.6515 20.2504 56.8379 20.3861 56.9562 20.5747C57.0746 20.7633 57.1158 20.9901 57.0714 21.2083C57.027 21.4264 56.9004 21.6191 56.7178 21.7464L40.0881 33.0842L60.9003 21.0652C61.0954 20.9521 61.3269 20.9195 61.5457 20.9743C61.7645 21.0292 61.9533 21.1671 62.072 21.3589C62.1907 21.5507 62.2299 21.7812 62.1814 22.0015C62.1328 22.2218 62.0003 22.4144 61.812 22.5386L43.4924 34.7014L65.1469 22.2023C65.3431 22.096 65.5727 22.0695 65.7879 22.1282C66.0031 22.1869 66.1874 22.3264 66.3024 22.5175C66.4174 22.7087 66.4542 22.9368 66.4053 23.1545C66.3564 23.3721 66.2254 23.5625 66.0396 23.686L63.294 25.3986L67.454 22.9979C67.65 22.8901 67.8801 22.8623 68.0962 22.9202C68.3122 22.9782 68.4975 23.1174 68.6133 23.3089C68.729 23.5003 68.7663 23.729 68.7172 23.9473C68.6682 24.1655 68.5367 24.3564 68.3502 24.4799L57.5081 31.3214L70.0973 24.0535C70.2938 23.9453 70.5247 23.9175 70.7412 23.9759C70.9578 24.0343 71.1433 24.1745 71.2587 24.3669C71.3741 24.5592 71.4104 24.7889 71.3599 25.0075C71.3095 25.2261 71.1763 25.4166 70.9883 25.539L64.6685 29.4667L72.1825 25.1334C72.3781 25.0258 72.6076 24.9978 72.8232 25.0553C73.0389 25.1127 73.224 25.2511 73.3402 25.4416C73.4564 25.6322 73.4945 25.8602 73.4468 26.0782C73.399 26.2962 73.2691 26.4873 73.0839 26.6119L51.776 40.3052L74.5815 27.1319C74.7772 27.0205 75.0086 26.9896 75.2267 27.0459C75.4448 27.1022 75.6324 27.2411 75.7498 27.4333C75.8672 27.6255 75.9052 27.8559 75.8557 28.0756C75.8062 28.2953 75.673 28.4872 75.4845 28.6104L50.6476 44.6923L76.9041 29.5326C77.1009 29.4135 77.3369 29.3775 77.5602 29.4324C77.7835 29.4873 77.9759 29.6287 78.0949 29.8255C78.214 30.0222 78.25 30.2582 78.1951 30.4816C78.1402 30.7049 77.9988 30.8972 77.802 31.0163L59.4824 42.5932L78.5699 31.5744C78.7656 31.463 78.997 31.4322 79.2151 31.4884C79.4332 31.5447 79.6208 31.6837 79.7382 31.8759C79.8556 32.0681 79.8936 32.2984 79.8441 32.5182C79.7946 32.7379 79.6614 32.9297 79.4729 33.053L54.6707 48.9996L80.3361 34.1848C80.5311 34.0802 80.7586 34.0541 80.9722 34.1118C81.1857 34.1695 81.3691 34.3067 81.4848 34.4953C81.6004 34.6839 81.6396 34.9095 81.5943 35.126C81.549 35.3426 81.4225 35.5336 81.2409 35.6599L54.0103 53.3399L81.9603 37.206C82.1554 37.0986 82.3843 37.0704 82.5996 37.1272C82.815 37.1841 83.0001 37.3217 83.1167 37.5114C83.2333 37.7011 83.2724 37.9285 83.2259 38.1463C83.1794 38.3641 83.0508 38.5556 82.8668 38.6811L55.6587 56.3732L83.2776 40.4266C83.4748 40.3082 83.711 40.273 83.9341 40.3287C84.1573 40.3845 84.3492 40.5266 84.4675 40.7238C84.5859 40.921 84.6211 41.1572 84.5654 41.3804C84.5096 41.6035 84.3675 41.7954 84.1703 41.9138L74.1533 48.1538L83.9241 42.5118C84.1216 42.3938 84.3578 42.3592 84.5808 42.4154C84.8038 42.4717 84.9953 42.6142 85.1132 42.8116C85.2311 43.0091 85.2658 43.2453 85.2095 43.4683C85.1533 43.6913 85.0108 43.8828 84.8133 44.0007L80.9411 46.391L84.3869 44.3976C84.5838 44.2867 84.8163 44.2571 85.0347 44.315C85.2531 44.373 85.4402 44.514 85.5562 44.708C85.6721 44.9019 85.7078 45.1335 85.6555 45.3533C85.6031 45.5732 85.467 45.7639 85.2761 45.8848L80.9428 48.568L84.7336 46.3736C84.9292 46.2661 85.1586 46.2381 85.3743 46.2955C85.5899 46.353 85.7751 46.4914 85.8913 46.6819C86.0074 46.8725 86.0456 47.1005 85.9979 47.3185C85.9501 47.5364 85.8201 47.7276 85.6349 47.8522L66.2095 60.3322L85.0525 49.4538C85.2498 49.3354 85.4859 49.3002 85.7091 49.356C85.9322 49.4117 86.1241 49.5538 86.2425 49.751C86.3609 49.9482 86.396 50.1844 86.3403 50.4076C86.2845 50.6307 86.1424 50.8226 85.9452 50.941L81.7505 53.56L85.1045 51.6256C85.3001 51.5181 85.5296 51.4901 85.7452 51.5475C85.9609 51.605 86.146 51.7434 86.2622 51.9339C86.3783 52.1245 86.4165 52.3525 86.3688 52.5704C86.321 52.7884 86.1911 52.9796 86.0059 53.1042L70.8427 62.8784L84.9191 54.7526C85.1134 54.6418 85.3431 54.6105 85.56 54.6651C85.7769 54.7198 85.9642 54.8562 86.0829 55.0458C86.2015 55.2354 86.2423 55.4636 86.1966 55.6826C86.1509 55.9015 86.0223 56.0943 85.8377 56.2207L66.4244 69.3143L84.1789 59.0634C84.3751 58.9484 84.6085 58.9151 84.8289 58.9707C85.0494 59.0263 85.2392 59.1662 85.3574 59.3604C85.4756 59.5545 85.5128 59.7874 85.461 60.0087C85.4091 60.23 85.2724 60.4221 85.0803 60.5436L80.0432 63.7763L83.3452 61.8696C83.5388 61.7547 83.7695 61.7196 83.9886 61.7717C84.2076 61.8239 84.3977 61.9593 84.5187 62.1492C84.6396 62.3391 84.6819 62.5686 84.6367 62.7892C84.5914 63.0097 84.462 63.204 84.276 63.3308L71.3419 72.3788L81.2895 66.6363C81.4831 66.527 81.7113 66.4962 81.9269 66.5505C82.1426 66.6047 82.3291 66.7397 82.448 66.9276C82.5669 67.1155 82.609 67.3419 82.5656 67.5599C82.5223 67.778 82.3968 67.9711 82.2151 68.0992L78.0551 70.9696L78.8784 70.4964C79.0694 70.3893 79.2938 70.3584 79.5066 70.4099C79.7194 70.4614 79.9048 70.5916 80.0255 70.7743C80.1463 70.9569 80.1934 71.1785 80.1575 71.3945C80.1215 71.6105 80.0051 71.8049 79.8317 71.9386L75.9595 74.8488C76.0948 74.924 76.207 75.035 76.2836 75.1695C76.3985 75.3686 76.4297 75.6051 76.3702 75.8271C76.3107 76.0491 76.1655 76.2384 75.9664 76.3534L67.227 81.4026C67.036 81.5097 66.8116 81.5406 66.5988 81.4891C66.386 81.4375 66.2006 81.3074 66.0798 81.1247C65.9591 80.9421 65.9119 80.7205 65.9479 80.5045C65.9838 80.2885 66.1002 80.0941 66.2736 79.9604L67.3136 79.1735L60.2936 83.226C60.1 83.3353 59.8718 83.3661 59.6562 83.3119C59.4405 83.2576 59.254 83.1226 59.1351 82.9347C59.0162 82.7468 58.9741 82.5205 59.0175 82.3024C59.0608 82.0843 59.1863 81.8912 59.368 81.7631L63.528 78.8944L54.9428 83.8483C54.8114 83.9251 54.6617 83.9652 54.5095 83.9644Z" fill="#4184A9"/>
<path d="M50.9218 71.7964C50.7399 71.7964 50.5626 71.7392 50.4151 71.6328C50.2675 71.5265 50.1571 71.3764 50.0996 71.2038C50.0421 71.0312 50.0403 70.845 50.0946 70.6713C50.1488 70.4977 50.2563 70.3455 50.4018 70.2364L57.9141 64.7279L47.2922 70.8569C47.0985 70.9697 46.8686 71.003 46.6508 70.9498C46.433 70.8967 46.2443 70.7612 46.1243 70.5719C46.0043 70.3825 45.9623 70.1541 46.0072 69.9345C46.052 69.7148 46.1802 69.5211 46.3649 69.394L54.0522 64.0588L44.3646 69.6505C44.2676 69.7102 44.1599 69.7501 44.0475 69.7681C43.9351 69.7861 43.8202 69.7818 43.7095 69.7554C43.5987 69.729 43.4943 69.681 43.4021 69.6143C43.3099 69.5475 43.2317 69.4632 43.1721 69.3663C43.1124 69.2693 43.0725 69.1615 43.0545 69.0491C43.0365 68.9367 43.0408 68.8219 43.0672 68.7111C43.0936 68.6004 43.1416 68.4959 43.2083 68.4037C43.2751 68.3115 43.3594 68.2334 43.4563 68.1737L44.4565 67.522L42.5966 68.5949C42.4018 68.7009 42.1739 68.7282 41.9596 68.6712C41.7453 68.6142 41.561 68.4772 41.4446 68.2885C41.3283 68.0997 41.2887 67.8735 41.334 67.6565C41.3794 67.4394 41.5062 67.248 41.6883 67.1216L46.0789 64.2339L40.8217 67.2707C40.6262 67.3878 40.3924 67.4231 40.1711 67.3691C39.9497 67.3151 39.7585 67.1761 39.6388 66.9822C39.5192 66.7882 39.4807 66.555 39.5318 66.3329C39.5829 66.1108 39.7193 65.9178 39.9117 65.7956L45.6629 62.01L39.2166 65.7315C39.022 65.8443 38.7911 65.877 38.5728 65.8227C38.3544 65.7683 38.1658 65.6312 38.0467 65.4403C37.9276 65.2495 37.8875 65.0198 37.9347 64.7998C37.9819 64.5798 38.1128 64.3868 38.2997 64.2616L47.8781 57.8101L37.5855 63.7485C37.3904 63.8617 37.1589 63.8943 36.9401 63.8394C36.7213 63.7846 36.5326 63.6466 36.4139 63.4548C36.2952 63.263 36.2559 63.0325 36.3045 62.8123C36.353 62.592 36.4855 62.3994 36.6738 62.2752L42.6261 58.3544L36.4433 61.9233C36.2489 62.0341 36.0193 62.0654 35.8024 62.0108C35.5855 61.9561 35.3981 61.8197 35.2795 61.6301C35.1608 61.4405 35.1201 61.2123 35.1658 60.9933C35.2115 60.7744 35.34 60.5816 35.5246 60.4552L44.7633 54.2152L35.3755 59.6336C35.1821 59.7402 34.9552 59.7688 34.7413 59.7138C34.5274 59.6587 34.3426 59.524 34.2247 59.3372C34.1067 59.1505 34.0645 58.9257 34.1067 58.7089C34.1489 58.4921 34.2723 58.2996 34.4517 58.1707L45.1983 50.7763L34.5539 56.9227C34.3592 57.0335 34.129 57.0645 33.9118 57.0093C33.6946 56.954 33.5073 56.8168 33.3891 56.6264C33.2709 56.436 33.2311 56.2072 33.2779 55.9881C33.3248 55.7689 33.4548 55.5765 33.6405 55.4511L38.7365 52.0641L34.1917 54.6884C33.9985 54.798 33.7706 54.8293 33.5551 54.7757C33.3395 54.7222 33.1527 54.5879 33.0333 54.4006C32.9139 54.2134 32.8709 53.9874 32.9132 53.7694C32.9556 53.5513 33.08 53.3579 33.2609 53.2289L43.3142 46.1864L34.1275 51.4904C33.9349 51.6021 33.7068 51.6353 33.4903 51.5833C33.2738 51.5313 33.0857 51.3979 32.9649 51.2109C32.8441 51.0239 32.7998 50.7976 32.8414 50.5789C32.883 50.3601 33.0071 50.1658 33.1881 50.0361L42.9207 43.0387L34.7481 47.7568C34.5555 47.8685 34.3273 47.9017 34.1108 47.8497C33.8943 47.7977 33.7062 47.6643 33.5854 47.4773C33.4646 47.2903 33.4204 47.064 33.4619 46.8453C33.5035 46.6265 33.6276 46.4322 33.8086 46.3025L39.123 42.4892L36.0949 44.2399C35.908 44.3458 35.6884 44.3786 35.4788 44.3319C35.2691 44.2851 35.0842 44.1621 34.9601 43.9868C34.8359 43.8115 34.7813 43.5963 34.8069 43.383C34.8324 43.1697 34.9362 42.9735 35.0982 42.8324L39.8389 38.7799C39.655 38.7646 39.4808 38.6909 39.3416 38.5697C39.2025 38.4485 39.1056 38.2861 39.0652 38.106C39.0248 37.926 39.0429 37.7377 39.1169 37.5687C39.1909 37.3996 39.3169 37.2586 39.4766 37.1661L46.4533 33.1379C46.6404 33.0298 46.8612 32.9955 47.0723 33.0418C47.2833 33.088 47.4695 33.2115 47.5943 33.3879C47.7191 33.5643 47.7735 33.781 47.7468 33.9955C47.7201 34.2099 47.6142 34.4066 47.4499 34.5471L43.3524 38.0536L53.3589 32.2712C53.5515 32.1595 53.7797 32.1263 53.9961 32.1783C54.2126 32.2303 54.4008 32.3637 54.5216 32.5507C54.6424 32.7377 54.6866 32.964 54.645 33.1827C54.6035 33.4015 54.4793 33.5958 54.2983 33.7255L48.9822 37.5388L57.0908 32.8588C57.2834 32.7471 57.5115 32.7139 57.728 32.7659C57.9445 32.8179 58.1326 32.9513 58.2534 33.1383C58.3742 33.3253 58.4185 33.5516 58.3769 33.7703C58.3353 33.9891 58.2112 34.1834 58.0302 34.3131L48.3062 41.3036L59.6751 34.7395C59.8683 34.6299 60.0962 34.5986 60.3118 34.6522C60.5273 34.7057 60.7141 34.84 60.8335 35.0272C60.953 35.2145 60.9959 35.4405 60.9536 35.6585C60.9112 35.8765 60.7868 36.07 60.606 36.1989L50.5422 43.2432L61.7257 36.7883C61.9199 36.6846 62.1462 36.6588 62.3588 36.716C62.5713 36.7731 62.7542 36.909 62.8702 37.096C62.9862 37.2831 63.0267 37.5073 62.9835 37.7231C62.9403 37.9389 62.8165 38.1302 62.6374 38.2581L57.5362 41.6485L63.2753 38.3361C63.4692 38.2253 63.6984 38.1936 63.9151 38.2476C64.1318 38.3017 64.3193 38.4373 64.4384 38.6262C64.5576 38.8151 64.5992 39.0427 64.5546 39.2615C64.51 39.4804 64.3827 39.6736 64.1992 39.8008L53.4525 47.1969L65.2981 40.3589C65.4923 40.2514 65.7203 40.2224 65.9352 40.2781C66.1501 40.3337 66.3355 40.4697 66.4531 40.658C66.5707 40.8463 66.6115 41.0725 66.5672 41.29C66.5229 41.5075 66.3969 41.6998 66.215 41.8271L56.9781 48.0671L67.1389 42.2032C67.3338 42.0942 67.5633 42.0646 67.7795 42.1207C67.9957 42.1768 68.1819 42.3141 68.2993 42.5042C68.4167 42.6942 68.4562 42.9222 68.4095 43.1406C68.3628 43.3591 68.2337 43.551 68.0489 43.6765L62.1174 47.5852L68.7145 43.7719C68.9091 43.6591 69.14 43.6264 69.3584 43.6807C69.5767 43.735 69.7653 43.8721 69.8844 44.063C70.0035 44.2539 70.0436 44.4836 69.9964 44.7036C69.9492 44.9235 69.8183 45.1165 69.6314 45.2417L60.0392 51.7019L70.4184 45.7097C70.614 45.5888 70.8496 45.5506 71.0734 45.6034C71.2972 45.6562 71.4908 45.7958 71.6118 45.9914C71.7327 46.187 71.7709 46.4226 71.7181 46.6464C71.6653 46.8702 71.5257 47.0639 71.3301 47.1848L65.5806 50.9669L70.9349 47.8764C71.1301 47.7654 71.3609 47.7345 71.5784 47.7903C71.796 47.8461 71.9834 47.9842 72.1012 48.1754C72.219 48.3667 72.2579 48.5962 72.2097 48.8156C72.1616 49.035 72.0302 49.2271 71.8432 49.3515L67.4353 52.2513L71.1966 50.0812C71.3919 49.9702 71.6226 49.9393 71.8402 49.9951C72.0577 50.0509 72.2452 50.189 72.3629 50.3802C72.4807 50.5715 72.5196 50.801 72.4715 51.0204C72.4233 51.2398 72.2919 51.4319 72.1049 51.5563L71.1117 52.2045L71.207 52.1491C71.4008 52.0363 71.6307 52.003 71.8484 52.0562C72.0662 52.1093 72.2549 52.2448 72.3749 52.4341C72.4949 52.6235 72.5369 52.8519 72.4921 53.0716C72.4472 53.2912 72.319 53.4849 72.1343 53.612L64.4522 58.9472L70.8049 55.2933C70.9965 55.186 71.2217 55.1553 71.435 55.2076C71.6483 55.2599 71.8337 55.3913 71.9539 55.5751C72.0741 55.7589 72.12 55.9815 72.0824 56.1978C72.0448 56.4142 71.9265 56.6082 71.7513 56.7407L64.2425 62.2457L69.4945 59.2141C69.6812 59.1069 69.9012 59.0729 70.1115 59.119C70.3219 59.165 70.5076 59.2877 70.6324 59.4632C70.7573 59.6386 70.8123 59.8543 70.7868 60.0681C70.7614 60.282 70.6572 60.4787 70.4946 60.6199L65.4506 64.9913C65.6543 64.9217 65.8767 64.9303 66.0744 65.0156C66.272 65.1008 66.4309 65.2566 66.52 65.4526C66.6092 65.6486 66.6222 65.8707 66.5565 66.0757C66.4908 66.2808 66.3512 66.454 66.1647 66.5617L58.5173 70.9765C58.3308 71.0818 58.112 71.1144 57.9029 71.0679C57.6939 71.0214 57.5095 70.8991 57.3853 70.7247C57.261 70.5503 57.2058 70.3361 57.2301 70.1233C57.2545 69.9106 57.3567 69.7144 57.5171 69.5725L62.5005 65.2548L51.3551 71.6889C51.2226 71.762 51.0732 71.799 50.9218 71.7964Z" fill="#38555E"/>
<path d="M64.6157 49.3376C64.4447 49.3379 64.2774 49.2876 64.1349 49.1931C63.9924 49.0985 63.8811 48.9639 63.815 48.8062C63.7488 48.6485 63.7308 48.4748 63.7632 48.3069C63.7955 48.1389 63.8769 47.9843 63.9969 47.8626L68.2921 43.5067L60.6533 47.9146C60.4646 48.0228 60.2421 48.056 60.03 48.0078C59.8179 47.9595 59.6316 47.8332 59.5083 47.654C59.385 47.4748 59.3336 47.2558 59.3643 47.0404C59.395 46.8251 59.5055 46.6291 59.674 46.4915L63.8808 43.0734L58.608 46.1067C58.4176 46.216 58.1928 46.2489 57.9791 46.1989C57.7653 46.1489 57.5785 46.0196 57.4564 45.8372C57.3343 45.6548 57.2859 45.4328 57.3211 45.2161C57.3563 44.9994 57.4724 44.8041 57.646 44.6698L60.8544 42.2067L57.4068 44.2C57.2172 44.3053 56.995 44.3356 56.7841 44.285C56.5732 44.2344 56.3889 44.1066 56.2676 43.9268C56.1464 43.747 56.0969 43.5282 56.1291 43.3138C56.1613 43.0993 56.2727 42.9046 56.4413 42.7683L59.908 40.0539L56.7239 41.8947C56.533 42.0057 56.3069 42.0397 56.0919 41.9897C55.8768 41.9397 55.6889 41.8095 55.5666 41.6257C55.4442 41.4419 55.3967 41.2183 55.4336 41.0006C55.4706 40.7829 55.5892 40.5875 55.7653 40.4543L56.8677 39.6171L56.6701 39.7315C56.4913 39.8357 56.2812 39.8724 56.0776 39.8351C55.8741 39.7978 55.6906 39.6889 55.5604 39.5281C55.4301 39.3673 55.3617 39.1652 55.3675 38.9583C55.3733 38.7515 55.453 38.5535 55.592 38.4003L58.7293 34.9336C58.527 35.0147 58.3016 35.0165 58.098 34.9388C57.8944 34.8611 57.7275 34.7095 57.6307 34.5143C57.5338 34.319 57.5141 34.0945 57.5754 33.8853C57.6367 33.6762 57.7745 33.4978 57.9615 33.3858L62.6103 30.6991C62.789 30.5961 62.9987 30.5603 63.2015 30.598C63.4044 30.6358 63.5871 30.7447 63.7168 30.9051C63.8466 31.0656 63.9148 31.267 63.9093 31.4733C63.9037 31.6795 63.8248 31.877 63.6867 32.0303L60.5667 35.497L67.8831 31.2728C68.0739 31.1618 68.3 31.1278 68.5151 31.1778C68.7302 31.2278 68.918 31.358 69.0404 31.5418C69.1627 31.7256 69.2103 31.9492 69.1733 32.1669C69.1364 32.3846 69.0177 32.58 68.8416 32.7132L67.7444 33.547L69.7429 32.3943C69.9326 32.289 70.1548 32.2587 70.3657 32.3093C70.5766 32.3599 70.7608 32.4877 70.8821 32.6675C71.0034 32.8473 71.0528 33.0661 71.0206 33.2806C70.9885 33.495 70.8771 33.6897 70.7084 33.826L67.2417 36.537L71.3844 34.1467C71.5748 34.0374 71.7996 34.0044 72.0133 34.0545C72.2271 34.1045 72.4139 34.2338 72.536 34.4162C72.6582 34.5986 72.7065 34.8206 72.6713 35.0373C72.6361 35.254 72.52 35.4492 72.3464 35.5836L69.1328 38.0328L72.4365 36.1262C72.625 36.0185 72.8471 35.9855 73.0588 36.0337C73.2704 36.0819 73.4563 36.2077 73.5796 36.3864C73.7029 36.5651 73.7547 36.7835 73.7247 36.9985C73.6947 37.2135 73.5851 37.4094 73.4176 37.5475L69.2073 40.9708L72.9583 38.8059C73.1397 38.7025 73.3523 38.6681 73.5571 38.709C73.7618 38.7499 73.9449 38.8633 74.0727 39.0284C74.2005 39.1936 74.2644 39.3993 74.2526 39.6077C74.2409 39.8162 74.1542 40.0134 74.0087 40.1631L69.7152 44.5242L71.9009 43.2623C72.099 43.1587 72.3294 43.1356 72.5441 43.1979C72.7588 43.2602 72.9411 43.403 73.053 43.5965C73.1649 43.79 73.1976 44.0193 73.1444 44.2364C73.0913 44.4535 72.9562 44.6417 72.7676 44.7616L65.0491 49.2267C64.9168 49.3009 64.7674 49.3392 64.6157 49.3376Z" fill="white"/>
<g clip-path="url(#clip1_1132_71104)">
<path d="M24.2886 85.748C24.0996 85.7479 23.9158 85.6861 23.7652 85.5719C23.6146 85.4577 23.5054 85.2973 23.4544 85.1153C23.4034 84.9334 23.4132 84.7397 23.4825 84.5638C23.5517 84.3879 23.6765 84.2395 23.838 84.1412L38.5522 75.1798L21.9001 84.7929C21.7032 84.9038 21.4708 84.9334 21.2524 84.8755C21.034 84.8175 20.8468 84.6765 20.7309 84.4826C20.6149 84.2886 20.5793 84.057 20.6316 83.8372C20.6839 83.6174 20.82 83.4266 21.0109 83.3057L51.2316 64.662L20.0454 82.6644C19.8488 82.771 19.6186 82.7975 19.4029 82.7382C19.1872 82.679 19.0027 82.5387 18.8881 82.3466C18.7735 82.1545 18.7375 81.9256 18.7878 81.7076C18.8381 81.4897 18.9708 81.2996 19.158 81.1772L51.9786 60.9093L19.5514 79.6293C19.3539 79.7393 19.1211 79.7678 18.9029 79.7086C18.6846 79.6495 18.4982 79.5073 18.3832 79.3126C18.2683 79.1178 18.2341 78.8859 18.2878 78.6662C18.3416 78.4466 18.479 78.2566 18.6709 78.1369L22.2156 76.0032L19.5514 77.5389C19.3539 77.6489 19.1211 77.6774 18.9029 77.6182C18.6846 77.5591 18.4982 77.4169 18.3832 77.2222C18.2683 77.0274 18.2341 76.7955 18.2878 76.5758C18.3416 76.3562 18.479 76.1662 18.6709 76.0465L19.4214 75.5958C19.2207 75.669 18.9999 75.6654 18.8017 75.5857C18.6034 75.5061 18.4415 75.3559 18.3472 75.1642C18.2528 74.9725 18.2326 74.7527 18.2904 74.547C18.3483 74.3413 18.4801 74.1642 18.6605 74.0497L59.9918 48.2057L19.5514 71.552C19.3543 71.6592 19.1233 71.6857 18.9069 71.6261C18.6906 71.5664 18.5059 71.4251 18.3916 71.232C18.2773 71.0389 18.2423 70.809 18.2941 70.5906C18.3459 70.3723 18.4803 70.1825 18.6692 70.0613L28.3412 64.2148L19.5514 69.2882C19.3533 69.405 19.1169 69.4383 18.8942 69.3807C18.6716 69.3232 18.4809 69.1796 18.3641 68.9814C18.2473 68.7833 18.2141 68.5469 18.2716 68.3242C18.3291 68.1016 18.4728 67.9109 18.6709 67.7941L21.1721 66.2896L19.5514 67.2238C19.3549 67.3321 19.1241 67.3599 18.9075 67.3014C18.691 67.243 18.5055 67.1028 18.3901 66.9105C18.2747 66.7181 18.2384 66.4884 18.2888 66.2699C18.3393 66.0513 18.4725 65.8608 18.6605 65.7384L57.9621 41.2533L19.5514 63.44C19.354 63.5525 19.1202 63.5829 18.9006 63.5248C18.6809 63.4666 18.4928 63.3245 18.3769 63.129C18.261 62.9336 18.2265 62.7004 18.2808 62.4797C18.3352 62.2591 18.474 62.0686 18.6674 61.9493L41.4261 48.0462L19.5514 60.6666C19.3545 60.7705 19.1252 60.7945 18.911 60.7339C18.6969 60.6732 18.5142 60.5324 18.401 60.3408C18.2878 60.1491 18.2527 59.9212 18.3029 59.7044C18.3532 59.4875 18.4849 59.2983 18.6709 59.176L23.9784 55.9866L19.5514 58.5346C19.3549 58.6429 19.1241 58.6707 18.9075 58.6122C18.691 58.5538 18.5055 58.4136 18.3901 58.2213C18.2747 58.0289 18.2384 57.7993 18.2888 57.5807C18.3393 57.3621 18.4725 57.1716 18.6605 57.0492L59.2569 31.694L19.5514 54.6173C19.3548 54.7239 19.1246 54.7504 18.9089 54.6912C18.6932 54.632 18.5087 54.4916 18.3941 54.2995C18.2795 54.1075 18.2435 53.8785 18.2938 53.6606C18.3441 53.4426 18.4768 53.2525 18.664 53.1301L49.8466 33.8901L19.5514 51.3829C19.3538 51.5004 19.1175 51.5345 18.8947 51.4778C18.6719 51.421 18.4807 51.2781 18.3632 51.0804C18.2458 50.8828 18.2117 50.6465 18.2684 50.4237C18.3251 50.2009 18.468 50.0097 18.6657 49.8922L43.2929 34.7724L19.5462 48.4796C19.3483 48.5966 19.1121 48.6302 18.8894 48.5729C18.6667 48.5157 18.4759 48.3724 18.3589 48.1745C18.2419 47.9766 18.2083 47.7403 18.2655 47.5177C18.3227 47.295 18.4661 47.1042 18.664 46.9872L30.4004 39.8424L19.5514 46.1066C19.3547 46.2201 19.1212 46.2518 18.9013 46.1949C18.6814 46.1379 18.4927 45.9969 18.3757 45.8023C18.2587 45.6076 18.2228 45.3747 18.2757 45.1538C18.3287 44.9329 18.4662 44.7417 18.6588 44.6212L47.2224 26.7384L19.5514 42.7162C19.454 42.7751 19.346 42.8142 19.2334 42.8312C19.1209 42.8483 19.0061 42.8431 18.8956 42.8158C18.7851 42.7885 18.6811 42.7397 18.5894 42.6722C18.4978 42.6047 18.4203 42.5199 18.3615 42.4224C18.3027 42.325 18.2636 42.217 18.2465 42.1044C18.2294 41.9919 18.2347 41.8771 18.262 41.7666C18.2892 41.6561 18.338 41.5521 18.4055 41.4604C18.473 41.3688 18.5579 41.2913 18.6553 41.2325L47.16 23.1365L19.5514 39.0745C19.3549 39.1827 19.1241 39.2105 18.9075 39.1521C18.691 39.0937 18.5055 38.9535 18.3901 38.7611C18.2747 38.5687 18.2384 38.3391 18.2888 38.1205C18.3393 37.9019 18.4725 37.7114 18.6605 37.589L34.2397 27.8685L19.5514 36.3497C19.3542 36.4678 19.1181 36.5028 18.8952 36.4469C18.6722 36.391 18.4805 36.2488 18.3624 36.0516C18.2442 35.8544 18.2093 35.6183 18.2652 35.3953C18.3211 35.1723 18.4633 34.9807 18.6605 34.8625L29.272 28.2533L19.5514 33.8624C19.354 33.9803 19.1178 34.0149 18.8948 33.9587C18.6718 33.9025 18.4803 33.76 18.3624 33.5625C18.2444 33.3651 18.2098 33.1289 18.266 32.9059C18.3223 32.6829 18.4648 32.4914 18.6622 32.3734L21.5032 30.6141L19.5514 31.7425C19.3558 31.8634 19.1202 31.9017 18.8964 31.8488C18.6726 31.796 18.4789 31.6564 18.358 31.4608C18.2371 31.2652 18.1989 31.0296 18.2517 30.8058C18.3045 30.582 18.4441 30.3883 18.6397 30.2674L39.2664 16.6001L19.5514 27.9829C19.3569 28.0919 19.1279 28.1218 18.912 28.0663C18.696 28.0108 18.5098 27.8743 18.3919 27.685C18.2741 27.4957 18.2337 27.2683 18.2792 27.0501C18.3247 26.8318 18.4526 26.6395 18.6362 26.513L35.1826 15.4197L19.5514 24.44C19.3566 24.5508 19.1265 24.5818 18.9093 24.5266C18.6921 24.4713 18.5048 24.3341 18.3866 24.1437C18.2684 23.9533 18.2286 23.7245 18.2754 23.5054C18.3223 23.2862 18.4522 23.0938 18.638 22.9684L29.3534 15.808L19.5514 21.4673C19.359 21.5809 19.1301 21.6157 18.9126 21.5646C18.6951 21.5134 18.5057 21.3802 18.384 21.1928C18.2624 21.0054 18.2178 20.7782 18.2596 20.5587C18.3014 20.3392 18.4264 20.1443 18.6085 20.0148L31.2272 10.8628L19.5514 17.602C19.3588 17.7136 19.1306 17.7469 18.9142 17.6949C18.6977 17.6428 18.5096 17.5095 18.3887 17.3225C18.2679 17.1355 18.2237 16.9092 18.2653 16.6904C18.3068 16.4717 18.431 16.2774 18.612 16.1477L25.4084 11.2666L19.5514 14.6501C19.3641 14.7605 19.142 14.7965 18.9293 14.7508C18.7167 14.7051 18.529 14.5811 18.4035 14.4035C18.278 14.2258 18.2239 14.0075 18.2519 13.7918C18.28 13.5761 18.3881 13.3789 18.5548 13.2392L25.5678 7.24877L19.5514 10.7154C19.3668 10.8243 19.1484 10.8608 18.9384 10.818C18.7284 10.7752 18.5417 10.6561 18.4143 10.4838C18.287 10.3114 18.228 10.0979 18.2488 9.88461C18.2696 9.67131 18.3688 9.47328 18.527 9.32877L21.7476 6.32317L19.5566 7.5885C19.3777 7.69149 19.1678 7.72721 18.9649 7.68922C18.762 7.65124 18.5792 7.54205 18.4496 7.38131C18.3201 7.22058 18.2521 7.01886 18.258 6.81248C18.264 6.60609 18.3434 6.40861 18.482 6.25557L19.8946 4.69557C19.7857 4.66684 19.6835 4.61662 19.5942 4.54786C19.5049 4.4791 19.4303 4.39319 19.3746 4.29517C19.2596 4.09633 19.2282 3.85993 19.2873 3.63794C19.3465 3.41595 19.4913 3.22652 19.6901 3.1113L23.2504 1.07464C23.4293 0.971651 23.6392 0.935935 23.8421 0.973919C24.045 1.0119 24.2278 1.12109 24.3573 1.28183C24.4869 1.44256 24.5549 1.64428 24.549 1.85066C24.543 2.05705 24.4636 2.25454 24.325 2.40757L23.4948 3.32277L27.4572 1.03997C27.6418 0.931155 27.8602 0.894613 28.0702 0.937401C28.2802 0.980188 28.4669 1.09927 28.5943 1.27165C28.7216 1.44403 28.7806 1.65749 28.7598 1.87079C28.7389 2.0841 28.6398 2.28213 28.4816 2.42664L25.261 5.42357L32.8634 1.03997C33.0506 0.93189 33.2713 0.897618 33.4824 0.943875C33.6935 0.990132 33.8797 1.11358 34.0045 1.29001C34.1293 1.46644 34.1836 1.68313 34.1569 1.89757C34.1302 2.11201 34.0243 2.30874 33.8601 2.44917L26.8453 8.4361L39.6668 1.03997C39.8594 0.9283 40.0876 0.895033 40.304 0.947068C40.5205 0.999102 40.7086 1.13245 40.8295 1.31945C40.9503 1.50646 40.9945 1.73279 40.9529 1.95151C40.9114 2.17023 40.7872 2.36457 40.6062 2.49424L33.8081 7.3701L44.7818 1.03997C44.9743 0.926408 45.2031 0.891564 45.4207 0.942713C45.6382 0.993861 45.8275 1.12705 45.9492 1.31447C46.0709 1.5019 46.1155 1.72907 46.0736 1.94858C46.0318 2.16808 45.9068 2.36295 45.7248 2.4925L33.1061 11.6393L51.4794 1.03997C51.6744 0.924145 51.907 0.88937 52.1274 0.943106C52.3477 0.996843 52.5382 1.13481 52.658 1.3274C52.7778 1.51999 52.8173 1.75186 52.768 1.97324C52.7188 2.19463 52.5847 2.3879 52.3946 2.51157L41.6809 9.6581L56.617 1.03997C56.8115 0.930947 57.0405 0.90107 57.2565 0.956551C57.4724 1.01203 57.6587 1.1486 57.7765 1.33787C57.8944 1.52714 57.9348 1.75455 57.8893 1.97281C57.8438 2.19108 57.7159 2.38342 57.5322 2.50984L40.9841 13.6084L62.76 1.03997C62.9551 0.926839 63.1866 0.89423 63.4054 0.949071C63.6242 1.00391 63.813 1.14188 63.9317 1.33367C64.0503 1.52547 64.0896 1.75597 64.041 1.97624C63.9925 2.1965 63.86 2.38916 63.6717 2.5133L43.045 16.1824L69.2704 1.03997C69.368 0.981471 69.4762 0.942778 69.5888 0.926101C69.7015 0.909424 69.8162 0.915089 69.9266 0.942774C70.0371 0.970458 70.1409 1.01962 70.2324 1.08745C70.3238 1.15528 70.4009 1.24045 70.4594 1.3381C70.5179 1.43576 70.5566 1.54397 70.5733 1.65658C70.59 1.76918 70.5843 1.88397 70.5566 1.99438C70.5289 2.1048 70.4798 2.20868 70.412 2.30009C70.3441 2.39151 70.259 2.46867 70.1613 2.52717L67.3256 4.27784L72.9416 1.03997C73.1383 0.926507 73.3718 0.89483 73.5917 0.951757C73.8116 1.00868 74.0003 1.14966 74.1173 1.34436C74.2343 1.53905 74.2702 1.7719 74.2173 1.99278C74.1643 2.21367 74.0268 2.40494 73.8342 2.52544L63.2089 9.14677L77.2506 1.03997C77.4474 0.926507 77.6809 0.89483 77.9008 0.951757C78.1207 1.00868 78.3094 1.14966 78.4264 1.34436C78.5434 1.53905 78.5793 1.7719 78.5263 1.99278C78.4734 2.21367 78.3358 2.40494 78.1433 2.52544L62.5554 12.246L81.974 1.03997C82.1702 0.927822 82.4025 0.896775 82.6213 0.953449C82.8401 1.01012 83.0281 1.15004 83.1452 1.34335C83.2623 1.53666 83.2993 1.76808 83.2482 1.98826C83.1972 2.20844 83.0621 2.39996 82.8718 2.52197L54.3724 20.6093L88.2781 1.03997C88.4749 0.926507 88.7083 0.89483 88.9282 0.951757C89.1481 1.00868 89.3369 1.14966 89.4539 1.34436C89.5709 1.53905 89.6068 1.7719 89.5538 1.99278C89.5009 2.21367 89.3633 2.40494 89.1708 2.52544L60.6037 20.4065L94.1558 1.03997C94.3533 0.927457 94.587 0.896997 94.8067 0.955153C95.0264 1.01331 95.2144 1.15543 95.3304 1.35089C95.4463 1.54636 95.4808 1.77954 95.4265 2.0002C95.3721 2.22086 95.2333 2.41135 95.0398 2.53064L83.2913 9.67717L97.9588 1.2133C98.1558 1.10438 98.3874 1.07639 98.6047 1.13525C98.822 1.19412 99.0079 1.33521 99.1229 1.52868C99.238 1.72215 99.2733 1.95281 99.2214 2.17184C99.1694 2.39087 99.0342 2.58109 98.8445 2.70224L74.2156 17.8204L100.41 2.69704C100.607 2.57935 100.843 2.54492 101.066 2.60132C101.289 2.65772 101.48 2.80033 101.598 2.99777C101.716 3.19522 101.75 3.43132 101.694 3.65415C101.637 3.87699 101.495 4.06829 101.297 4.18597L70.1318 23.4121L101.675 5.19997C101.872 5.0816 102.108 5.04641 102.332 5.10216C102.555 5.15791 102.747 5.30002 102.865 5.49724C102.983 5.69445 103.019 5.93061 102.963 6.15377C102.907 6.37693 102.765 6.5688 102.568 6.68717L61.9661 32.0441L101.781 9.05837C101.978 8.94833 102.211 8.91985 102.429 8.97902C102.648 9.0382 102.834 9.18033 102.949 9.37509C103.064 9.56985 103.098 9.80181 103.044 10.0215C102.991 10.2411 102.853 10.4311 102.661 10.5508L97.385 13.7332L101.781 11.1938C101.978 11.0813 102.212 11.0509 102.432 11.109C102.651 11.1672 102.839 11.3093 102.955 11.5048C103.071 11.7002 103.106 11.9334 103.051 12.1541C102.997 12.3747 102.858 12.5652 102.665 12.6845L79.9061 26.5772L101.781 13.9498C101.978 13.8317 102.214 13.7967 102.437 13.8526C102.66 13.9086 102.852 14.0508 102.97 14.248C103.088 14.4452 103.123 14.6813 103.067 14.9043C103.011 15.1272 102.869 15.3189 102.672 15.437L63.3597 39.9308L101.781 17.7441C101.879 17.6863 101.987 17.6484 102.1 17.6325C102.213 17.6166 102.328 17.6231 102.438 17.6516C102.548 17.6801 102.652 17.73 102.743 17.7985C102.834 17.867 102.91 17.9528 102.968 18.0509C103.026 18.149 103.064 18.2575 103.08 18.3703C103.096 18.4831 103.089 18.5979 103.061 18.7081C103.032 18.8184 102.982 18.9219 102.914 19.0129C102.845 19.1038 102.759 19.1804 102.661 19.2382L100.127 20.7636L101.781 19.8085C101.979 19.6915 102.215 19.6579 102.438 19.7151C102.66 19.7723 102.851 19.9157 102.968 20.1136C103.085 20.3115 103.119 20.5478 103.061 20.7704C103.004 20.9931 102.861 21.1839 102.663 21.3009L92.991 27.1474L101.781 22.074C101.977 21.9657 102.208 21.9379 102.425 21.9964C102.641 22.0548 102.827 22.195 102.942 22.3873C103.057 22.5797 103.094 22.8094 103.043 23.0279C102.993 23.2465 102.86 23.437 102.672 23.5594L61.349 49.4L101.781 26.0572C101.979 25.9404 102.215 25.9071 102.438 25.9647C102.661 26.0222 102.851 26.1658 102.968 26.364C103.085 26.5621 103.118 26.7985 103.061 27.0212C103.003 27.2438 102.859 27.4345 102.661 27.5513L101.911 28.002C102.116 27.9157 102.346 27.9116 102.554 27.9903C102.762 28.0691 102.931 28.2247 103.028 28.4251C103.124 28.6254 103.14 28.8552 103.072 29.0668C103.004 29.2784 102.857 29.4557 102.661 29.562L99.1166 31.6974L101.781 30.16C101.978 30.0423 102.214 30.0079 102.437 30.0643C102.66 30.1207 102.851 30.2633 102.969 30.4607C103.087 30.6581 103.121 30.8943 103.065 31.1171C103.008 31.3399 102.866 31.5312 102.668 31.6489L69.8372 51.9289L101.781 33.4758C101.977 33.3692 102.208 33.3427 102.423 33.402C102.639 33.4612 102.824 33.6015 102.938 33.7936C103.053 33.9857 103.089 34.2146 103.038 34.4326C102.988 34.6505 102.855 34.8406 102.668 34.963L72.4684 53.5946L101.781 36.6721C101.978 36.5649 102.209 36.5383 102.425 36.598C102.642 36.6577 102.826 36.7989 102.941 36.992C103.055 37.1852 103.09 37.4151 103.038 37.6334C102.986 37.8518 102.852 38.0415 102.663 38.1628L87.9297 47.138L101.783 39.1404C101.979 39.0321 102.21 39.0043 102.426 39.0628C102.643 39.1212 102.828 39.2614 102.944 39.4537C103.059 39.6461 103.096 39.8758 103.045 40.0943C102.995 40.3129 102.861 40.5034 102.673 40.6258L74.3317 58.2798L101.781 42.432C101.977 42.3237 102.208 42.2959 102.425 42.3544C102.641 42.4128 102.827 42.553 102.942 42.7453C103.057 42.9377 103.094 43.1674 103.043 43.3859C102.993 43.6045 102.86 43.7951 102.672 43.9174L77.7117 59.5313L101.781 45.6317C101.977 45.5217 102.209 45.4924 102.426 45.55C102.644 45.6076 102.83 45.7476 102.947 45.9403C103.063 46.1331 103.099 46.3635 103.049 46.5829C102.998 46.8022 102.864 46.9932 102.675 47.1154L78.4865 62.4L101.781 48.9493C101.978 48.8384 102.21 48.8088 102.428 48.8667C102.647 48.9247 102.834 49.0657 102.95 49.2596C103.066 49.4536 103.102 49.6852 103.049 49.905C102.997 50.1249 102.861 50.3156 102.67 50.4365L92.27 56.8949L101.789 51.4002C101.985 51.2927 102.214 51.2647 102.43 51.3222C102.646 51.3796 102.831 51.518 102.947 51.7085C103.063 51.8991 103.101 52.1271 103.054 52.3451C103.006 52.5631 102.876 52.7542 102.691 52.8788L81.8318 66.3104L101.781 54.7924C101.977 54.6823 102.209 54.653 102.426 54.7106C102.644 54.7682 102.83 54.9082 102.947 55.101C103.063 55.2938 103.099 55.5242 103.049 55.7435C102.998 55.9628 102.864 56.1538 102.675 56.2761L93.2424 62.2266L101.781 57.304C101.976 57.1994 102.204 57.1736 102.418 57.2319C102.632 57.2902 102.815 57.4282 102.93 57.6175C103.045 57.8069 103.084 58.0331 103.037 58.2498C102.991 58.4664 102.863 58.6571 102.68 58.7825L92.27 65.4558L101.781 59.9733C101.976 59.8658 102.206 59.8378 102.421 59.8952C102.637 59.9526 102.822 60.091 102.938 60.2816C103.055 60.4721 103.093 60.7001 103.045 60.9181C102.997 61.1361 102.867 61.3273 102.682 61.4518L95.9741 65.7592L101.781 62.4C101.974 62.2916 102.201 62.2611 102.415 62.3148C102.63 62.3684 102.816 62.5021 102.935 62.6885C103.055 62.8749 103.098 63.0999 103.057 63.3172C103.015 63.5346 102.893 63.728 102.713 63.8577L87.408 74.672L101.781 66.3762C101.974 66.2633 102.204 66.2296 102.421 66.2821C102.639 66.3346 102.828 66.4693 102.948 66.658C103.069 66.8466 103.112 67.0746 103.068 67.2941C103.024 67.5137 102.897 67.7077 102.713 67.8357L93.2926 74.4622L101.786 69.5638C101.978 69.454 102.204 69.4216 102.419 69.4731C102.634 69.5246 102.821 69.6562 102.942 69.841C103.063 70.0257 103.109 70.2498 103.07 70.4673C103.032 70.6848 102.911 70.8793 102.734 71.0112L95.4454 76.3845L101.786 72.7237C101.975 72.6171 102.198 72.5856 102.41 72.6355C102.621 72.6854 102.806 72.813 102.928 72.9929C103.05 73.1729 103.1 73.3921 103.068 73.6071C103.036 73.8222 102.924 74.0172 102.755 74.1537L97.7768 78.0693L101.786 75.7553C101.973 75.648 102.193 75.6141 102.403 75.6601C102.613 75.7062 102.799 75.8289 102.924 76.0043C103.049 76.1798 103.104 76.3955 103.078 76.6093C103.053 76.8231 102.949 77.0198 102.786 77.161L100.013 79.5617L101.791 78.5373C101.973 78.4361 102.186 78.4039 102.39 78.4465C102.593 78.4891 102.775 78.6038 102.901 78.7694C103.028 78.935 103.09 79.1406 103.077 79.3485C103.064 79.5564 102.977 79.7527 102.831 79.9014L101.663 81.0662C101.857 81.0545 102.05 81.1087 102.21 81.2201C102.37 81.3315 102.488 81.4935 102.545 81.6801C102.601 81.8666 102.593 82.0668 102.522 82.2482C102.45 82.4297 102.32 82.5818 102.152 82.68L97.0436 85.6266C96.8615 85.7278 96.6491 85.76 96.4452 85.7174C96.2413 85.6748 96.0596 85.5602 95.9333 85.3945C95.8071 85.2289 95.7447 85.0233 95.7576 84.8154C95.7705 84.6076 95.8578 84.4113 96.0036 84.2625L96.9222 83.3456L92.9598 85.6266C92.7734 85.7319 92.5545 85.7645 92.3455 85.7179C92.1365 85.6714 91.9521 85.5492 91.8278 85.3748C91.7036 85.2004 91.6483 84.9862 91.6727 84.7734C91.697 84.5607 91.7993 84.3645 91.9597 84.2226L94.733 81.822L88.1464 85.6353C87.9569 85.7419 87.7343 85.7734 87.5227 85.7235C87.3111 85.6736 87.1259 85.5461 87.004 85.3661C86.882 85.1861 86.8322 84.9669 86.8643 84.7519C86.8964 84.5369 87.0082 84.3418 87.1774 84.2053L92.1538 80.2897L82.8926 85.6266C82.701 85.7364 82.4746 85.7689 82.2598 85.7174C82.045 85.6659 81.8579 85.5343 81.7369 85.3495C81.6159 85.1647 81.5699 84.9407 81.6085 84.7232C81.6471 84.5057 81.7673 84.3112 81.9445 84.1793L89.2349 78.806L77.4153 85.6266C77.2224 85.735 76.9953 85.7655 76.7807 85.7118C76.566 85.6582 76.38 85.5245 76.2607 85.3381C76.1415 85.1517 76.0981 84.9267 76.1394 84.7094C76.1806 84.492 76.3035 84.2986 76.4828 84.1689L85.9052 77.5389L71.8946 85.6266C71.702 85.7339 71.4757 85.7638 71.2618 85.71C71.048 85.6563 70.8626 85.5231 70.7435 85.3375C70.6244 85.1519 70.5806 84.9279 70.6209 84.7111C70.6611 84.4943 70.7826 84.301 70.9604 84.1706L86.264 73.3546L65.0081 85.6266C64.8124 85.7381 64.5809 85.7689 64.3629 85.7126C64.1448 85.6564 63.9571 85.5174 63.8397 85.3252C63.7223 85.133 63.6844 84.9026 63.7339 84.6829C63.7834 84.4632 63.9165 84.2714 64.105 84.1481L70.8165 79.839L60.7909 85.6266C60.5955 85.7312 60.3675 85.757 60.1538 85.6987C59.94 85.6404 59.7566 85.5024 59.6415 85.3131C59.5263 85.1237 59.488 84.8975 59.5345 84.6808C59.5809 84.4642 59.7086 84.2735 59.8913 84.1481L70.3069 77.48L56.1785 85.6266C55.9827 85.7313 55.7542 85.7568 55.5401 85.6979C55.326 85.639 55.1427 85.5002 55.028 85.3101C54.9133 85.12 54.8759 84.8931 54.9235 84.6763C54.9712 84.4594 55.1002 84.2691 55.2841 84.1446L64.7204 78.1854L51.8261 85.6266C51.631 85.73 51.4039 85.755 51.1911 85.6966C50.9782 85.6381 50.7956 85.5007 50.6806 85.3123C50.5656 85.1239 50.5269 84.8987 50.5722 84.6827C50.6176 84.4666 50.7437 84.2761 50.9248 84.1498L71.7664 70.7252L45.957 85.6266C45.7616 85.7264 45.5355 85.7484 45.3245 85.688C45.1135 85.6276 44.9332 85.4894 44.8201 85.3013C44.7071 85.1132 44.6696 84.8892 44.7152 84.6745C44.7609 84.4598 44.8863 84.2704 45.0661 84.1446L55.4765 77.6845L41.7104 85.6266C41.5145 85.7313 41.286 85.7568 41.072 85.6979C40.8579 85.639 40.6746 85.5002 40.5599 85.3101C40.4451 85.12 40.4077 84.8931 40.4554 84.6763C40.503 84.4594 40.6321 84.2691 40.816 84.1446L64.9994 68.8636L35.9644 85.6266C35.7682 85.7329 35.5387 85.7594 35.3234 85.7007C35.1082 85.642 34.9239 85.5025 34.8089 85.3114C34.6939 85.1202 34.6571 84.8921 34.706 84.6745C34.755 84.4568 34.8859 84.2664 35.0717 84.1429L60.0421 68.5325L30.4246 85.6266C30.2279 85.7401 29.9944 85.7718 29.7745 85.7149C29.5546 85.6579 29.3659 85.5169 29.2489 85.3223C29.1319 85.1276 29.096 84.8947 29.1489 84.6738C29.2019 84.4529 29.3394 84.2617 29.532 84.1412L57.865 66.4958L24.722 85.6266C24.5907 85.7045 24.4412 85.7464 24.2886 85.748Z" fill="#2BAAE2"/>
<path d="M71.3204 50.4591C71.17 50.4589 71.0223 50.4196 70.8917 50.345C70.7612 50.2705 70.6522 50.1632 70.5757 50.0338C70.4991 49.9045 70.4575 49.7574 70.4549 49.607C70.4524 49.4567 70.489 49.3083 70.5612 49.1764L72.1212 46.3233L68.8088 48.23C68.6256 48.3386 68.4089 48.376 68.2 48.335C67.991 48.294 67.8045 48.1776 67.6759 48.0079C67.5474 47.8382 67.4858 47.6271 67.5029 47.4148C67.52 47.2026 67.6147 47.0041 67.7688 46.8572L69.1554 45.5104L67.1933 46.6457C67.0946 46.7026 66.9857 46.7396 66.8728 46.7544C66.7598 46.7692 66.6451 46.7616 66.5351 46.7321C66.4251 46.7025 66.3219 46.6516 66.2316 46.5822C66.1413 46.5128 66.0655 46.4263 66.0086 46.3277C65.9517 46.229 65.9148 46.1201 65.8999 46.0071C65.8851 45.8942 65.8927 45.7794 65.9222 45.6694C65.9518 45.5594 66.0027 45.4563 66.0721 45.366C66.1415 45.2756 66.228 45.1998 66.3266 45.1429L74.3 40.5375C74.4831 40.4289 74.6998 40.3915 74.9088 40.4325C75.1177 40.4734 75.3043 40.5899 75.4328 40.7596C75.5614 40.9293 75.623 41.1404 75.6059 41.3526C75.5888 41.5649 75.4941 41.7634 75.34 41.9103L73.9533 43.2571C74.118 43.1679 74.3071 43.1344 74.4924 43.1618C74.6777 43.1891 74.8492 43.2757 74.9811 43.4086C75.113 43.5415 75.1984 43.7136 75.2243 43.8991C75.2503 44.0845 75.2154 44.2734 75.125 44.4375L73.5182 47.372C73.7194 47.3336 73.9276 47.3677 74.106 47.4681C74.2844 47.5686 74.4215 47.729 74.493 47.9209C74.5644 48.1128 74.5656 48.3238 74.4963 48.5165C74.427 48.7092 74.2918 48.8711 74.1145 48.9736L71.7502 50.3377C71.62 50.415 71.4718 50.4569 71.3204 50.4591Z" fill="white"/>
<path d="M39.0278 72.1726C38.8482 72.173 38.6728 72.1175 38.5261 72.0139C38.3793 71.9103 38.2684 71.7636 38.2086 71.5942C38.1488 71.4248 38.1432 71.241 38.1924 71.0683C38.2417 70.8955 38.3434 70.7423 38.4836 70.6299L38.5945 70.5415L38.175 70.7824C37.983 70.8964 37.7544 70.9319 37.5368 70.8815C37.3193 70.8311 37.1296 70.6986 37.0073 70.5117C36.885 70.3249 36.8396 70.098 36.8805 69.8785C36.9214 69.6589 37.0455 69.4636 37.2269 69.3334L41.3869 66.2602L36.4764 69.0924C36.2835 69.2008 36.0564 69.2313 35.8417 69.1776C35.6271 69.124 35.441 68.9902 35.3218 68.8039C35.2026 68.6175 35.1591 68.3925 35.2004 68.1751C35.2417 67.9578 35.3646 67.7644 35.5438 67.6347L45.4238 60.6823L34.4068 67.0471C34.2105 67.1592 33.9782 67.1903 33.7594 67.1336C33.5406 67.0769 33.3526 66.937 33.2355 66.7437C33.1184 66.5504 33.0814 66.319 33.1325 66.0988C33.1836 65.8786 33.3186 65.6871 33.5089 65.5651L39.6588 61.6599L32.8988 65.5582C32.7034 65.6627 32.4754 65.6885 32.2616 65.6302C32.0478 65.5719 31.8645 65.4339 31.7493 65.2446C31.6341 65.0553 31.5959 64.829 31.6423 64.6124C31.6888 64.3957 31.8165 64.2051 31.9992 64.0796L42.5552 57.3196L36.1193 61.0359C35.9225 61.155 35.6865 61.191 35.4632 61.136C35.2399 61.0811 35.0476 60.9397 34.9285 60.743C34.8094 60.5462 34.7734 60.3102 34.8283 60.0869C34.8833 59.8636 35.0247 59.6712 35.2214 59.5522L40.8565 55.9919C40.6677 55.997 40.4824 55.9402 40.3289 55.8303C40.1753 55.7204 40.0618 55.5634 40.0057 55.3831C39.9496 55.2027 39.9539 55.009 40.018 54.8314C40.0821 54.6537 40.2024 54.5019 40.3608 54.399L47.6148 49.6895L47.1918 49.9339C47.0951 49.9939 46.9875 50.0342 46.8752 50.0526C46.7628 50.071 46.648 50.0671 46.5372 50.0411C46.4263 50.0151 46.3217 49.9675 46.2293 49.9011C46.1369 49.8347 46.0584 49.7507 45.9984 49.6539C45.9384 49.5572 45.8981 49.4496 45.8797 49.3373C45.8613 49.2249 45.8652 49.1101 45.8912 48.9993C45.9172 48.8885 45.9648 48.7838 46.0312 48.6914C46.0976 48.599 46.1816 48.5205 46.2784 48.4606L52.9569 44.0284C52.7577 44.0839 52.5452 44.0663 52.3578 43.9788C52.1704 43.8913 52.0204 43.7397 51.935 43.5514C51.8497 43.363 51.8344 43.1503 51.8921 42.9517C51.9498 42.7531 52.0767 42.5817 52.2497 42.4684L57.4826 38.9463C57.3367 38.8938 57.2075 38.8031 57.1085 38.6837C57.0096 38.5642 56.9445 38.4204 56.9201 38.2673C56.8956 38.1141 56.9127 37.9572 56.9696 37.8129C57.0265 37.6686 57.1211 37.5422 57.2434 37.447L60.1693 35.1642L57.3786 36.7744C57.2064 36.873 57.0055 36.9094 56.8095 36.8777C56.6136 36.8459 56.4345 36.7479 56.3022 36.5999C56.1699 36.452 56.0924 36.2631 56.0826 36.0649C56.0728 35.8667 56.1314 35.6711 56.2485 35.5108L58.6925 32.1932L55.0768 34.2732C54.9057 34.3722 54.706 34.4098 54.5107 34.3797C54.3154 34.3496 54.1363 34.2537 54.0029 34.1078C53.8696 33.962 53.7902 33.7749 53.7777 33.5777C53.7653 33.3805 53.8206 33.1849 53.9345 33.0235L54.4545 32.2851C54.2824 32.2494 54.1251 32.1623 54.0037 32.0353C53.8822 31.9082 53.8023 31.7472 53.7745 31.5736C53.7466 31.4001 53.7722 31.2221 53.8479 31.0635C53.9235 30.9048 54.0456 30.7729 54.198 30.6852L56.6801 29.2517C56.851 29.1535 57.0502 29.1164 57.245 29.1466C57.4397 29.1768 57.6184 29.2725 57.7515 29.4179C57.8845 29.5633 57.9641 29.7497 57.977 29.9464C57.9899 30.143 57.9353 30.3382 57.8224 30.4998L57.6022 30.8135L61.4156 28.6122C61.5878 28.5136 61.7887 28.4771 61.9846 28.5089C62.1806 28.5406 62.3596 28.6387 62.492 28.7866C62.6243 28.9346 62.7018 29.1234 62.7116 29.3217C62.7214 29.5199 62.6628 29.7155 62.5457 29.8758L60.1017 33.1934L70.0649 27.4422C70.2548 27.3343 70.4785 27.3022 70.6911 27.3522C70.9037 27.4021 71.0896 27.5305 71.2116 27.7117C71.3336 27.8928 71.3827 28.1134 71.3491 28.3292C71.3155 28.545 71.2017 28.7401 71.0304 28.8756L68.1201 31.174L74.6617 27.3971C74.856 27.2863 75.0857 27.255 75.3026 27.3097C75.5195 27.3643 75.7069 27.5007 75.8255 27.6903C75.9442 27.88 75.9849 28.1081 75.9392 28.3271C75.8935 28.546 75.7649 28.7389 75.5804 28.8652L74.0481 29.9052L75.7312 28.9328C75.926 28.822 76.1561 28.791 76.3733 28.8462C76.5905 28.9015 76.7778 29.0387 76.896 29.2291C77.0142 29.4195 77.054 29.6483 77.0072 29.8674C76.9603 30.0865 76.8304 30.279 76.6446 30.4044L70.3752 34.5644L75.511 31.5987C75.7071 31.4785 75.9429 31.4411 76.1665 31.4947C76.3902 31.5483 76.5833 31.6886 76.7036 31.8847C76.8238 32.0808 76.8612 32.3165 76.8075 32.5402C76.7539 32.7638 76.6136 32.957 76.4176 33.0772L69.1601 37.7763L75.1366 34.327C75.3334 34.2081 75.5693 34.1723 75.7924 34.2274C76.0156 34.2825 76.2077 34.424 76.3266 34.6207C76.4454 34.8175 76.4812 35.0534 76.4261 35.2766C76.371 35.4997 76.2295 35.6918 76.0328 35.8107L72.5817 37.9912L74.816 36.7016C74.9133 36.6424 75.0213 36.603 75.1338 36.5856C75.2464 36.5681 75.3613 36.573 75.4719 36.6C75.5826 36.6269 75.6868 36.6754 75.7788 36.7427C75.8707 36.8099 75.9484 36.8946 76.0076 36.992C76.0668 37.0893 76.1063 37.1973 76.1237 37.3098C76.1411 37.4224 76.1362 37.5373 76.1093 37.6479C76.0823 37.7586 76.0338 37.8628 75.9666 37.9548C75.8993 38.0467 75.8146 38.1244 75.7173 38.1836L65.1734 44.9228L74.4242 39.5807C74.6205 39.4685 74.8528 39.4375 75.0716 39.4942C75.2904 39.5508 75.4784 39.6908 75.5955 39.8841C75.7126 40.0774 75.7496 40.3088 75.6985 40.529C75.6474 40.7492 75.5124 40.9407 75.3221 41.0627L62.1401 49.4347C62.2814 49.496 62.4038 49.5939 62.4947 49.7183C62.5856 49.8427 62.6417 49.989 62.6572 50.1423C62.6728 50.2955 62.6472 50.4501 62.5831 50.5902C62.519 50.7303 62.4187 50.8508 62.2926 50.9392L52.404 57.8934L53.7334 57.129C53.9252 57.0163 54.1529 56.9817 54.3695 57.0323C54.5861 57.0829 54.7749 57.2148 54.8969 57.4007C55.0189 57.5867 55.0648 57.8124 55.025 58.0312C54.9853 58.25 54.8629 58.4452 54.6833 58.5763L48.2058 63.3707C48.3657 63.4339 48.5029 63.5438 48.5993 63.6862C48.7224 63.8664 48.773 64.0866 48.7408 64.3025C48.7087 64.5185 48.5963 64.7143 48.426 64.851L43.8898 68.5031C44.0024 68.7017 44.0321 68.9368 43.9724 69.1571C43.9126 69.3775 43.7684 69.5654 43.5709 69.68L39.4594 72.0547C39.3287 72.1318 39.1796 72.1725 39.0278 72.1726Z" fill="white"/>
<path d="M11.5888 103.081C11.4037 103.082 11.2234 103.023 11.0743 102.913C10.9252 102.803 10.8151 102.649 10.7601 102.472C10.705 102.296 10.708 102.106 10.7686 101.931C10.8291 101.756 10.944 101.605 11.0965 101.501L21.0996 94.6279L6.7337 102.922C6.53763 103.042 6.30193 103.079 6.07845 103.025C5.85497 102.971 5.66201 102.831 5.54203 102.635C5.42205 102.439 5.38486 102.203 5.43866 101.98C5.49246 101.756 5.63283 101.563 5.8289 101.443L10.2766 98.5712L4.36076 101.986C4.16585 102.108 3.93052 102.147 3.70655 102.095C3.48258 102.044 3.28832 101.905 3.1665 101.71C3.04467 101.515 3.00527 101.28 3.05696 101.056C3.10864 100.832 3.24718 100.638 3.4421 100.516L18.4597 90.4072L2.54596 99.5939C2.35105 99.7157 2.11572 99.7551 1.89175 99.7035C1.66778 99.6518 1.47352 99.5132 1.3517 99.3183C1.22987 99.1234 1.19047 98.8881 1.24216 98.6641C1.29384 98.4401 1.43238 98.2459 1.6273 98.124L18.1512 87.0307L2.21836 96.226C2.02324 96.3392 1.7917 96.3718 1.57293 96.3169C1.35415 96.2621 1.16537 96.1241 1.04668 95.9323C0.927996 95.7405 0.888754 95.51 0.937292 95.2898C0.98583 95.0695 1.11832 94.8769 1.30663 94.7527L15.9464 85.0547L2.21836 92.976C2.02275 93.0898 1.79041 93.1225 1.57099 93.0673C1.35156 93.012 1.16245 92.8731 1.04408 92.6802C0.925697 92.4874 0.887437 92.2559 0.937469 92.0352C0.987501 91.8145 1.12186 91.6222 1.31183 91.4992L12.1053 84.4654L2.2253 90.1732C2.03053 90.2792 1.80254 90.3065 1.58825 90.2495C1.37396 90.1925 1.18967 90.0555 1.07331 89.8668C0.956948 89.678 0.917362 89.4518 0.962698 89.2348C1.00803 89.0177 1.13484 88.8263 1.31703 88.6999L11.9597 81.725L2.21836 87.3479C2.02476 87.4572 1.79654 87.488 1.58091 87.4337C1.36528 87.3795 1.17874 87.2445 1.05986 87.0566C0.940977 86.8687 0.898857 86.6423 0.942208 86.4243C0.985558 86.2062 1.11106 86.0131 1.29276 85.885L16.092 75.6583L2.2253 83.668C2.03291 83.7744 1.80731 83.8036 1.59417 83.7499C1.38103 83.6961 1.19627 83.5634 1.0773 83.3786C0.958337 83.1937 0.914051 82.9706 0.953411 82.7543C0.992771 82.5381 1.11284 82.3448 1.2893 82.2138L12.7293 74.0775L2.22703 80.1442C2.03648 80.252 1.81218 80.2837 1.59921 80.2329C1.38624 80.1821 1.20038 80.0526 1.07898 79.8704C0.957587 79.6882 0.90965 79.4668 0.944806 79.2507C0.979962 79.0346 1.09561 78.8398 1.2685 78.7055L10.4864 71.6682L2.21836 76.44C2.02874 76.5453 1.80653 76.5756 1.59563 76.5251C1.38473 76.4745 1.20046 76.3466 1.0792 76.1668C0.957941 75.987 0.908511 75.7683 0.940669 75.5538C0.972827 75.3393 1.08424 75.1447 1.2529 75.0083L6.21023 71.1308L2.22356 73.4344C2.03371 73.5403 1.81102 73.5709 1.59964 73.5202C1.38826 73.4696 1.20363 73.3414 1.08236 73.161C0.961087 72.9806 0.912022 72.7612 0.944894 72.5464C0.977765 72.3315 1.09017 72.1369 1.25983 72.001L2.23916 71.2383L2.21836 71.24C2.0464 71.3389 1.84572 71.3758 1.64982 71.3446C1.45393 71.3133 1.27469 71.2158 1.14202 71.0684C1.00935 70.9209 0.931292 70.7324 0.920871 70.5343C0.910451 70.3362 0.968301 70.1405 1.08476 69.9799L3.24103 67.0211H3.23063C3.03256 67.1247 2.80212 67.1478 2.58744 67.0855C2.37276 67.0232 2.19044 66.8804 2.07858 66.6869C1.96671 66.4934 1.93395 66.2641 1.98713 66.047C2.04031 65.8299 2.17532 65.6417 2.36396 65.5218L5.9173 63.4695C6.08926 63.3706 6.28995 63.3337 6.48584 63.365C6.68173 63.3962 6.86097 63.4937 6.99364 63.6412C7.12631 63.7887 7.20437 63.9772 7.21479 64.1753C7.22521 64.3734 7.16736 64.5691 7.0509 64.7296L4.89463 67.6954L12.2734 63.44C12.4634 63.3322 12.687 63.3001 12.8996 63.35C13.1122 63.4 13.2981 63.5284 13.4201 63.7096C13.5422 63.8907 13.5913 64.1113 13.5577 64.3271C13.5241 64.5429 13.4102 64.738 13.2389 64.8735L12.2596 65.6344L16.0729 63.44C16.2625 63.3348 16.4847 63.3045 16.6956 63.355C16.9065 63.4056 17.0908 63.5334 17.2121 63.7133C17.3333 63.8931 17.3828 64.1118 17.3506 64.3263C17.3184 64.5408 17.207 64.7354 17.0384 64.8718L12.0689 68.7458L21.2694 63.44C21.46 63.3322 21.6843 63.3005 21.8973 63.3513C22.1102 63.4021 22.2961 63.5316 22.4175 63.7138C22.5389 63.896 22.5868 64.1174 22.5517 64.3335C22.5165 64.5496 22.4009 64.7444 22.228 64.8787L13.0118 71.9108L27.6949 63.44C27.8877 63.3301 28.1153 63.2983 28.3308 63.3511C28.5463 63.404 28.7333 63.5375 28.8533 63.7242C28.9733 63.9109 29.0172 64.1364 28.9758 64.3545C28.9344 64.5725 28.811 64.7663 28.6309 64.896L17.1909 73.0427L33.8084 63.44C34.0016 63.3345 34.2277 63.3065 34.4408 63.3616C34.6539 63.4168 34.8381 63.5509 34.9559 63.7369C35.0737 63.9229 35.1163 64.1467 35.0751 64.3629C35.0339 64.5792 34.9119 64.7716 34.734 64.9012L19.933 75.1279L37.7482 64.8267C37.9437 64.7096 38.1775 64.6743 38.3989 64.7283C38.6202 64.7823 38.8115 64.9213 38.9311 65.1152C39.0507 65.3091 39.0892 65.5424 39.0381 65.7645C38.9871 65.9866 38.8506 66.1796 38.6582 66.3018L28.0173 73.2698L39.0846 66.8824C39.2797 66.775 39.5087 66.7468 39.724 66.8036C39.9393 66.8605 40.1245 66.9981 40.2411 67.1878C40.3577 67.3776 40.3968 67.6049 40.3503 67.8227C40.3037 68.0405 40.1751 68.232 39.9912 68.3575L29.196 75.4L39.381 69.5206C39.5762 69.4074 39.8077 69.3748 40.0265 69.4297C40.2453 69.4845 40.434 69.6225 40.5527 69.8143C40.6714 70.0061 40.7106 70.2366 40.6621 70.4568C40.6136 70.6771 40.4811 70.8698 40.2928 70.9939L25.6617 80.6919L39.381 72.7706C39.5757 72.6578 39.8066 72.6251 40.0249 72.6794C40.2432 72.7337 40.4319 72.8708 40.5509 73.0617C40.67 73.2526 40.7102 73.4823 40.663 73.7023C40.6158 73.9222 40.4849 74.1152 40.298 74.2404L23.7793 85.3338L39.3793 76.3204C39.574 76.2076 39.8048 76.1749 40.0232 76.2293C40.2415 76.2836 40.4301 76.4207 40.5492 76.6116C40.6683 76.8024 40.7085 77.0322 40.6613 77.2521C40.614 77.4721 40.4832 77.6651 40.2962 77.7903L25.2682 87.9147L39.381 79.768C39.5763 79.6621 39.8047 79.6351 40.0192 79.6927C40.2338 79.7503 40.418 79.8881 40.5339 80.0776C40.6497 80.2671 40.6884 80.4939 40.642 80.7111C40.5955 80.9283 40.4674 81.1194 40.2841 81.2448L35.8485 84.1118L39.381 82.0734C39.5745 81.9668 39.8014 81.9381 40.0153 81.9932C40.2292 82.0483 40.414 82.183 40.5319 82.3697C40.6499 82.5565 40.6921 82.7813 40.6499 82.9981C40.6077 83.2149 40.4843 83.4074 40.3049 83.5363L30.2966 90.4107L39.381 85.1691C39.5717 85.0627 39.7956 85.0322 40.0078 85.0837C40.2201 85.1352 40.405 85.2649 40.5257 85.447C40.6464 85.629 40.6939 85.8498 40.6587 86.0654C40.6236 86.2809 40.5084 86.4753 40.3361 86.6095L29.8564 94.5603L39.381 89.0622C39.5741 88.9509 39.8025 88.9182 40.019 88.9709C40.2355 89.0236 40.4234 89.1577 40.5436 89.3453C40.6639 89.5329 40.7072 89.7596 40.6647 89.9783C40.6222 90.1971 40.4971 90.391 40.3153 90.5199L38.1625 92.0418L39.3758 91.338C39.5673 91.2292 39.7929 91.1973 40.007 91.2489C40.2211 91.3004 40.4075 91.4315 40.5285 91.6155C40.6494 91.7996 40.6957 92.0227 40.6581 92.2397C40.6204 92.4566 40.5016 92.6511 40.3257 92.7836L38.7986 93.9172L39.3758 93.5844C39.5574 93.4857 39.7683 93.4552 39.9705 93.4983C40.1726 93.5415 40.3527 93.6554 40.4782 93.8196C40.6038 93.9839 40.6664 94.1875 40.655 94.3939C40.6436 94.6003 40.5587 94.7958 40.4158 94.9451L37.1832 98.2107L39.3377 96.9662C39.5367 96.8531 39.7723 96.8232 39.9931 96.8832C40.214 96.9432 40.4022 97.088 40.5166 97.2862C40.631 97.4844 40.6624 97.7198 40.6039 97.9411C40.5454 98.1624 40.4018 98.3515 40.2044 98.4672L32.413 102.96C32.2314 103.059 32.0205 103.089 31.8184 103.046C31.6162 103.003 31.4362 102.889 31.3106 102.725C31.1851 102.561 31.1224 102.357 31.1339 102.151C31.1453 101.944 31.2301 101.749 31.373 101.599L34.6161 98.3372L26.6012 102.96C26.4097 103.069 26.1841 103.101 25.97 103.049C25.7559 102.998 25.5695 102.867 25.4485 102.683C25.3276 102.499 25.2813 102.275 25.3189 102.058C25.3566 101.841 25.4754 101.647 25.6513 101.514L27.1818 100.379L22.7064 102.96C22.5136 103.07 22.286 103.102 22.0705 103.049C21.855 102.996 21.6679 102.863 21.5479 102.676C21.4279 102.489 21.3841 102.264 21.4255 102.046C21.4669 101.828 21.5903 101.634 21.7704 101.504L23.9336 99.9752L18.763 102.96C18.5722 103.069 18.3474 103.101 18.1338 103.05C17.9202 102.999 17.7339 102.869 17.6124 102.686C17.4909 102.504 17.4434 102.281 17.4794 102.065C17.5153 101.848 17.6322 101.653 17.8062 101.52L28.286 93.5706L12.0221 102.96C11.8909 103.038 11.7414 103.08 11.5888 103.081Z" fill="#253E90"/>
<path d="M29.9861 85.748C29.8117 85.7478 29.6414 85.695 29.4975 85.5965C29.3535 85.498 29.2427 85.3583 29.1794 85.1958C29.1161 85.0332 29.1033 84.8554 29.1427 84.6855C29.1821 84.5156 29.2719 84.3615 29.4003 84.2434L33.4476 80.5272L24.6128 85.6266C24.4211 85.7364 24.1947 85.7689 23.9799 85.7174C23.7651 85.6659 23.5781 85.5343 23.4571 85.3495C23.336 85.1647 23.2901 84.9407 23.3287 84.7232C23.3673 84.5057 23.4874 84.3111 23.6647 84.1793L26.8453 81.8341L21.8187 84.7392C21.6254 84.8521 21.3959 84.8858 21.1782 84.8333C20.9606 84.7808 20.7718 84.6461 20.6512 84.4574C20.5307 84.2688 20.4878 84.0408 20.5316 83.8213C20.5754 83.6017 20.7024 83.4077 20.8861 83.2797L23.4671 81.4666L20.3644 83.2572C20.1717 83.3644 19.9454 83.3943 19.7316 83.3406C19.5177 83.2868 19.3324 83.1536 19.2133 82.968C19.0942 82.7825 19.0503 82.5584 19.0906 82.3416C19.1309 82.1248 19.2523 81.9316 19.4301 81.8012L24.0737 78.5078L19.5861 81.0853C19.3924 81.193 19.1647 81.2224 18.9499 81.1674C18.7351 81.1124 18.5496 80.9772 18.4315 80.7896C18.3134 80.602 18.2716 80.3762 18.3149 80.1588C18.3581 79.9414 18.4831 79.7488 18.664 79.6206L19.3729 79.137C19.1784 79.1977 18.9687 79.188 18.7806 79.1094C18.5926 79.0308 18.4382 78.8885 18.3447 78.7075C18.2512 78.5264 18.2245 78.3182 18.2692 78.1194C18.314 77.9205 18.4274 77.7439 18.5895 77.6203L25.3616 72.4984L19.5515 75.8558C19.3632 75.963 19.1416 75.9957 18.9303 75.9476C18.7191 75.8995 18.5335 75.774 18.4102 75.5959C18.2869 75.4178 18.2348 75.1999 18.2641 74.9853C18.2934 74.7706 18.4021 74.5747 18.5687 74.4362L23.7461 70.174L19.5532 72.6006C19.367 72.7085 19.1474 72.7434 18.937 72.6983C18.7266 72.6532 18.5405 72.5315 18.4149 72.3568C18.2892 72.1821 18.2331 71.9669 18.2574 71.7531C18.2816 71.5393 18.3846 71.3422 18.5461 71.2001L20.7405 69.2639L19.5532 69.9486C19.3705 70.054 19.1556 70.0891 18.9488 70.0474C18.7421 70.0057 18.5576 69.89 18.43 69.722C18.3025 69.5541 18.2405 69.3453 18.2558 69.135C18.2711 68.9246 18.3626 68.727 18.5132 68.5793L19.0887 68.016C18.9055 68.0089 18.7291 67.9447 18.5843 67.8322C18.448 67.7252 18.3469 67.5799 18.2941 67.4149C18.2413 67.2499 18.2391 67.0728 18.2879 66.9066L18.7125 65.4558C18.5757 65.3834 18.4607 65.2756 18.3796 65.1437C18.2985 65.0117 18.2542 64.8605 18.2514 64.7057C18.2486 64.5508 18.2873 64.3981 18.3635 64.2633C18.4397 64.1285 18.5507 64.0165 18.6848 63.9391L19.5515 63.4399C19.7014 63.3532 19.874 63.3134 20.0468 63.3257C20.2197 63.338 20.3849 63.4018 20.5211 63.5089C20.6573 63.616 20.7583 63.7614 20.811 63.9265C20.8637 64.0916 20.8657 64.2687 20.8168 64.4349L20.5568 65.3189L23.8103 63.4399C23.993 63.3346 24.2079 63.2994 24.4146 63.3412C24.6214 63.3829 24.8058 63.4986 24.9334 63.6665C25.061 63.8345 25.1229 64.0432 25.1076 64.2536C25.0923 64.464 25.0008 64.6615 24.8503 64.8093L24.6579 64.9982L27.3567 63.4382C27.5426 63.3323 27.7611 63.2988 27.9702 63.3444C28.1793 63.3899 28.3641 63.5111 28.4891 63.6848C28.6142 63.8585 28.6705 64.0722 28.6474 64.285C28.6242 64.4977 28.5232 64.6943 28.3637 64.837L26.1728 66.7731L31.9535 63.4399C32.1415 63.335 32.3618 63.3038 32.5716 63.3524C32.7813 63.4011 32.9655 63.526 33.0881 63.703C33.2108 63.88 33.2632 64.0962 33.2351 64.3097C33.207 64.5232 33.1005 64.7186 32.9363 64.8578L27.7605 69.1201L36.6005 64.0206C36.7913 63.912 37.0162 63.8799 37.2298 63.9307C37.4433 63.9815 37.6297 64.1114 37.7512 64.2943C37.8726 64.4771 37.9202 64.6993 37.8842 64.9158C37.8482 65.1324 37.7314 65.3272 37.5573 65.461L30.7869 70.583L38.6996 66.0139C38.8936 65.9048 39.1222 65.8746 39.338 65.9294C39.5537 65.9843 39.7401 66.1201 39.8585 66.3086C39.9768 66.4972 40.0181 66.724 39.9737 66.9422C39.9293 67.1604 39.8026 67.353 39.62 67.4803L39.1433 67.8045L39.3063 67.7126C39.4989 67.6053 39.7252 67.5755 39.9391 67.6292C40.1529 67.6829 40.3383 67.8161 40.4574 68.0017C40.5765 68.1873 40.6203 68.4113 40.58 68.6281C40.5398 68.8449 40.4183 69.0382 40.2405 69.1686L35.5883 72.462L39.4016 70.2658C39.5949 70.1529 39.8244 70.1192 40.042 70.1717C40.2596 70.2242 40.4485 70.3589 40.569 70.5475C40.6896 70.7362 40.7324 70.9641 40.6886 71.1837C40.6449 71.4032 40.5178 71.5973 40.3341 71.7253L37.7601 73.5331L39.4085 72.5833C39.6001 72.4759 39.8253 72.4453 40.0386 72.4976C40.2519 72.5499 40.4374 72.6812 40.5576 72.865C40.6778 73.0488 40.7237 73.2714 40.6861 73.4878C40.6485 73.7041 40.5301 73.8982 40.3549 74.0306L37.1795 76.3741L39.4155 75.081C39.6 74.9768 39.8163 74.9438 40.0235 74.9883C40.2308 75.0327 40.4145 75.1516 40.54 75.3224C40.6655 75.4931 40.7241 75.704 40.7047 75.915C40.6853 76.1261 40.5892 76.3227 40.4347 76.4677L36.3856 80.1857L39.4276 78.4298C39.6099 78.3273 39.8231 78.2942 40.0279 78.3365C40.2327 78.3788 40.4153 78.4938 40.5419 78.6602C40.6686 78.8266 40.7309 79.0332 40.7172 79.2419C40.7036 79.4505 40.6149 79.6472 40.4676 79.7957L39.4917 80.7594C39.6491 80.6827 39.8263 80.6561 39.9993 80.6834C40.1723 80.7107 40.3328 80.7905 40.4589 80.912C40.5935 81.0407 40.683 81.2093 40.7142 81.3929C40.7454 81.5764 40.7167 81.7652 40.6323 81.9312L40.0637 83.063C40.2335 83.1022 40.3875 83.1917 40.5056 83.3198C40.6237 83.4478 40.7005 83.6085 40.726 83.7808C40.7514 83.9532 40.7243 84.1292 40.6483 84.2859C40.5722 84.4426 40.4506 84.5728 40.2995 84.6594L38.6164 85.6284C38.4548 85.7242 38.2664 85.7648 38.0796 85.7443C37.8928 85.7237 37.7178 85.643 37.5809 85.5143C37.444 85.3856 37.3526 85.2159 37.3205 85.0308C37.2885 84.8456 37.3174 84.6551 37.4031 84.4878L37.7809 83.739L34.5067 85.6266C34.3244 85.7291 34.1112 85.7623 33.9064 85.7199C33.7016 85.6776 33.519 85.5626 33.3923 85.3962C33.2656 85.2298 33.2034 85.0233 33.217 84.8146C33.2307 84.6059 33.3194 84.4092 33.4667 84.2607L34.4304 83.3074L30.4125 85.6266C30.2836 85.7041 30.1365 85.746 29.9861 85.748Z" fill="#42427A"/>
<path d="M3.8976 102.424C13.8123 103.704 24.1204 102.52 34.1581 102.91C43.5649 102.643 40.7604 91.9239 41.1209 85.5764C58.8772 85.514 76.63 85.5469 94.3845 85.54C100.077 86.3183 104.629 82.3264 103.521 76.4556V17.6488C103.001 12.0085 106.135 1.81653 97.8581 1.13879C73.6903 1.16479 49.5137 1.03999 25.3441 1.12839C14.5351 1.22893 18.5061 14.1145 17.8093 21.1761C17.8093 35.2739 17.8093 49.3717 17.8093 63.4695C10.9089 63.4071 -1.25733 61.7361 0.476002 72.3095C1.80547 79.8616 -2.99413 98.7272 3.8976 102.424ZM20.3209 73.8833V64.7764C41.3376 63.8127 38.7029 64.7521 38.6111 84.3284C29.2927 83.798 18.026 88.1677 20.3209 73.8833ZM59.3937 37.7867C60.0143 35.6269 53.2109 33.4117 56.4003 30.7857C61.9937 30.0924 67.7241 29.1356 73.3107 28.5012C77.2193 29.4805 72.7751 40.8581 73.1373 44.3629C73.0316 45.1412 73.12 47.8487 72.4301 48.4692C71.1596 49.6132 68.3187 45.8068 67.6375 45.1256C67.1175 44.6056 65.9232 44.9297 65.4587 45.3925L41.1261 69.7008C41.3879 65.4715 37.6057 63.0396 33.6919 63.4799L59.3937 37.7867ZM20.3209 6.69933C20.1355 -1.27401 39.1467 3.59666 44.7748 2.33653C61.9348 2.39199 79.0948 2.25506 96.2548 2.33653C100.89 2.56533 101.02 6.66986 101.02 10.1175V79.0088C101.02 81.2621 100.432 84.1759 97.5912 84.3284H41.1209C41.1313 80.2811 41.1001 76.2355 41.1383 72.1951L66.2265 47.1172C76.8917 59.5071 77.3407 34.658 77.1465 28.5272C72.2481 24.7953 63.6456 29.4181 57.6639 29.1789C51.1517 29.8324 52.5332 34.7967 56.9064 37.7607L31.208 63.4643C27.568 63.4643 23.9488 63.5076 20.3209 63.4816C20.5497 44.564 19.8841 25.6031 20.3209 6.69933ZM3.2164 67.6087C5.67773 62.3133 13.1623 65.6812 17.8111 64.7764C17.142 86.8608 16.5821 86.1501 38.6111 85.5764C37.6525 90.272 41.3324 100.157 35.1739 101.629H9.03C4.77987 102.189 2.28907 98.5313 2.98934 94.5377C3.19734 85.5799 2.5768 76.492 3.2164 67.6087Z" fill="#262626"/>
</g>
</g>
<defs>
<clipPath id="clip0_1132_71104">
<rect width="104" height="104" fill="white" transform="translate(0.666016)"/>
</clipPath>
<clipPath id="clip1_1132_71104">
<rect width="104" height="104" fill="white"/>
</clipPath>
</defs>
</svg>
