<svg width="20" height="17" viewBox="0 0 20 17" fill="none" xmlns="http://www.w3.org/2000/svg">
<path d="M13.4 8.15956L8.5 4.99956C8.34798 4.91179 8.17554 4.86559 8 4.86559C7.82446 4.86559 7.65202 4.91179 7.5 4.99956C7.35174 5.08508 7.22791 5.20723 7.14036 5.3543C7.05282 5.50138 7.00449 5.66846 7 5.83956V12.1596C7.0013 12.3378 7.05019 12.5124 7.14161 12.6653C7.23303 12.8183 7.36367 12.944 7.52 13.0296C7.66543 13.1152 7.83123 13.1601 8 13.1596C8.17714 13.1474 8.34869 13.0925 8.5 12.9996L13.4 9.83956C13.5403 9.74891 13.6557 9.62453 13.7356 9.47779C13.8155 9.33106 13.8574 9.16664 13.8574 8.99956C13.8574 8.83248 13.8155 8.66806 13.7356 8.52133C13.6557 8.37459 13.5403 8.25022 13.4 8.15956ZM9 10.3196V7.67956L11 8.99956L9 10.3196ZM17.38 1.50956L15.83 1.30956C11.991 0.839521 8.109 0.839521 4.27 1.30956L2.72 1.50956C1.97471 1.59067 1.2854 1.94343 0.783675 2.50049C0.281954 3.05755 0.0029736 3.77988 0 4.52956V13.4696C0.00635666 14.2081 0.280506 14.9193 0.771546 15.471C1.26259 16.0228 1.93715 16.3776 2.67 16.4696L4.22 16.6596C6.13776 16.8926 8.06815 17.0061 10 16.9996C11.9323 16.9995 13.8627 16.8793 15.78 16.6396L17.33 16.4496C18.0628 16.3576 18.7374 16.0028 19.2285 15.451C19.7195 14.8993 19.9936 14.1881 20 13.4496V4.52956C19.9985 3.78754 19.7265 3.07152 19.235 2.5156C18.7435 1.95969 18.0662 1.60201 17.33 1.50956H17.38ZM18.05 13.5096C18.0508 13.7615 17.9565 14.0044 17.7859 14.1898C17.6154 14.3752 17.3811 14.4894 17.13 14.5096L15.58 14.6996C11.9077 15.1596 8.19232 15.1596 4.52 14.6996L2.97 14.5096C2.71889 14.4894 2.48463 14.3752 2.31406 14.1898C2.1435 14.0044 2.04919 13.7615 2.05 13.5096V4.52956C2.06192 4.28151 2.16055 4.04552 2.32869 3.86276C2.49683 3.68 2.7238 3.56207 2.97 3.52956L4.47 3.29956C8.14273 2.84621 11.8573 2.84621 15.53 3.29956L17.08 3.48956C17.3262 3.52207 17.5532 3.64 17.7213 3.82276C17.8894 4.00552 17.9881 4.24151 18 4.48956L18.05 13.5096Z" fill="url(#paint0_linear_417_968)"/>
<defs>
<linearGradient id="paint0_linear_417_968" x1="0.634921" y1="8.97843" x2="14.8191" y2="-1.4416" gradientUnits="userSpaceOnUse">
<stop stop-color="#2BAAE2"/>
<stop offset="1" stop-color="#253E90"/>
</linearGradient>
</defs>
</svg>
